<?xml version="1.0" encoding="utf-8"?>
<svg xmlns="http://www.w3.org/2000/svg" xmlns:xlink="http://www.w3.org/1999/xlink" width="500" height="300" viewBox="0 0 2000 1200">
<defs>
  <clipPath id="clip820">
    <rect x="0" y="0" width="2000" height="1200"/>
  </clipPath>
</defs>
<path clip-path="url(#clip820)" d="M0 1200 L2000 1200 L2000 0 L0 0  Z" fill="#ffffff" fill-rule="evenodd" fill-opacity="1"/>
<defs>
  <clipPath id="clip821">
    <rect x="400" y="0" width="1401" height="1200"/>
  </clipPath>
</defs>
<path clip-path="url(#clip820)" d="M195.212 1035.39 L1952.76 1035.39 L1952.76 47.2441 L195.212 47.2441  Z" fill="#ffffff" fill-rule="evenodd" fill-opacity="1"/>
<defs>
  <clipPath id="clip822">
    <rect x="195" y="47" width="1759" height="989"/>
  </clipPath>
</defs>
<polyline clip-path="url(#clip822)" style="stroke:#000000; stroke-linecap:round; stroke-linejoin:round; stroke-width:2; stroke-opacity:0.1; fill:none" points="533.312,1035.39 533.312,47.2441 "/>
<polyline clip-path="url(#clip822)" style="stroke:#000000; stroke-linecap:round; stroke-linejoin:round; stroke-width:2; stroke-opacity:0.1; fill:none" points="893.76,1035.39 893.76,47.2441 "/>
<polyline clip-path="url(#clip822)" style="stroke:#000000; stroke-linecap:round; stroke-linejoin:round; stroke-width:2; stroke-opacity:0.1; fill:none" points="1254.21,1035.39 1254.21,47.2441 "/>
<polyline clip-path="url(#clip822)" style="stroke:#000000; stroke-linecap:round; stroke-linejoin:round; stroke-width:2; stroke-opacity:0.1; fill:none" points="1614.66,1035.39 1614.66,47.2441 "/>
<polyline clip-path="url(#clip822)" style="stroke:#000000; stroke-linecap:round; stroke-linejoin:round; stroke-width:2; stroke-opacity:0.1; fill:none" points="195.212,1007.42 1952.76,1007.42 "/>
<polyline clip-path="url(#clip822)" style="stroke:#000000; stroke-linecap:round; stroke-linejoin:round; stroke-width:2; stroke-opacity:0.1; fill:none" points="195.212,696.684 1952.76,696.684 "/>
<polyline clip-path="url(#clip822)" style="stroke:#000000; stroke-linecap:round; stroke-linejoin:round; stroke-width:2; stroke-opacity:0.1; fill:none" points="195.212,385.947 1952.76,385.947 "/>
<polyline clip-path="url(#clip822)" style="stroke:#000000; stroke-linecap:round; stroke-linejoin:round; stroke-width:2; stroke-opacity:0.1; fill:none" points="195.212,75.2104 1952.76,75.2104 "/>
<polyline clip-path="url(#clip820)" style="stroke:#000000; stroke-linecap:round; stroke-linejoin:round; stroke-width:4; stroke-opacity:1; fill:none" points="195.212,1035.39 1952.76,1035.39 "/>
<polyline clip-path="url(#clip820)" style="stroke:#000000; stroke-linecap:round; stroke-linejoin:round; stroke-width:4; stroke-opacity:1; fill:none" points="533.312,1035.39 533.312,1016.49 "/>
<polyline clip-path="url(#clip820)" style="stroke:#000000; stroke-linecap:round; stroke-linejoin:round; stroke-width:4; stroke-opacity:1; fill:none" points="893.76,1035.39 893.76,1016.49 "/>
<polyline clip-path="url(#clip820)" style="stroke:#000000; stroke-linecap:round; stroke-linejoin:round; stroke-width:4; stroke-opacity:1; fill:none" points="1254.21,1035.39 1254.21,1016.49 "/>
<polyline clip-path="url(#clip820)" style="stroke:#000000; stroke-linecap:round; stroke-linejoin:round; stroke-width:4; stroke-opacity:1; fill:none" points="1614.66,1035.39 1614.66,1016.49 "/>
<path clip-path="url(#clip820)" d="M523.59 1060.03 L541.946 1060.03 L541.946 1063.96 L527.872 1063.96 L527.872 1072.44 Q528.891 1072.09 529.909 1071.93 Q530.928 1071.74 531.946 1071.74 Q537.733 1071.74 541.113 1074.91 Q544.492 1078.08 544.492 1083.5 Q544.492 1089.08 541.02 1092.18 Q537.548 1095.26 531.228 1095.26 Q529.053 1095.26 526.784 1094.89 Q524.539 1094.52 522.131 1093.78 L522.131 1089.08 Q524.215 1090.21 526.437 1090.77 Q528.659 1091.32 531.136 1091.32 Q535.14 1091.32 537.478 1089.22 Q539.816 1087.11 539.816 1083.5 Q539.816 1079.89 537.478 1077.78 Q535.14 1075.68 531.136 1075.68 Q529.261 1075.68 527.386 1076.09 Q525.534 1076.51 523.59 1077.39 L523.59 1060.03 Z" fill="#000000" fill-rule="nonzero" fill-opacity="1" /><path clip-path="url(#clip820)" d="M868.447 1090.65 L876.086 1090.65 L876.086 1064.29 L867.776 1065.95 L867.776 1061.69 L876.04 1060.03 L880.716 1060.03 L880.716 1090.65 L888.355 1090.65 L888.355 1094.59 L868.447 1094.59 L868.447 1090.65 Z" fill="#000000" fill-rule="nonzero" fill-opacity="1" /><path clip-path="url(#clip820)" d="M907.799 1063.11 Q904.188 1063.11 902.359 1066.67 Q900.554 1070.21 900.554 1077.34 Q900.554 1084.45 902.359 1088.01 Q904.188 1091.56 907.799 1091.56 Q911.433 1091.56 913.239 1088.01 Q915.068 1084.45 915.068 1077.34 Q915.068 1070.21 913.239 1066.67 Q911.433 1063.11 907.799 1063.11 M907.799 1059.4 Q913.609 1059.4 916.665 1064.01 Q919.743 1068.59 919.743 1077.34 Q919.743 1086.07 916.665 1090.68 Q913.609 1095.26 907.799 1095.26 Q901.989 1095.26 898.91 1090.68 Q895.855 1086.07 895.855 1077.34 Q895.855 1068.59 898.91 1064.01 Q901.989 1059.4 907.799 1059.4 Z" fill="#000000" fill-rule="nonzero" fill-opacity="1" /><path clip-path="url(#clip820)" d="M1229.39 1090.65 L1237.03 1090.65 L1237.03 1064.29 L1228.72 1065.95 L1228.72 1061.69 L1236.99 1060.03 L1241.66 1060.03 L1241.66 1090.65 L1249.3 1090.65 L1249.3 1094.59 L1229.39 1094.59 L1229.39 1090.65 Z" fill="#000000" fill-rule="nonzero" fill-opacity="1" /><path clip-path="url(#clip820)" d="M1258.79 1060.03 L1277.15 1060.03 L1277.15 1063.96 L1263.07 1063.96 L1263.07 1072.44 Q1264.09 1072.09 1265.11 1071.93 Q1266.13 1071.74 1267.15 1071.74 Q1272.93 1071.74 1276.31 1074.91 Q1279.69 1078.08 1279.69 1083.5 Q1279.69 1089.08 1276.22 1092.18 Q1272.75 1095.26 1266.43 1095.26 Q1264.25 1095.26 1261.99 1094.89 Q1259.74 1094.52 1257.33 1093.78 L1257.33 1089.08 Q1259.42 1090.21 1261.64 1090.77 Q1263.86 1091.32 1266.34 1091.32 Q1270.34 1091.32 1272.68 1089.22 Q1275.02 1087.11 1275.02 1083.5 Q1275.02 1079.89 1272.68 1077.78 Q1270.34 1075.68 1266.34 1075.68 Q1264.46 1075.68 1262.59 1076.09 Q1260.74 1076.51 1258.79 1077.39 L1258.79 1060.03 Z" fill="#000000" fill-rule="nonzero" fill-opacity="1" /><path clip-path="url(#clip820)" d="M1593.43 1090.65 L1609.75 1090.65 L1609.75 1094.59 L1587.8 1094.59 L1587.8 1090.65 Q1590.47 1087.9 1595.05 1083.27 Q1599.66 1078.62 1600.84 1077.27 Q1603.08 1074.75 1603.96 1073.01 Q1604.86 1071.25 1604.86 1069.56 Q1604.86 1066.81 1602.92 1065.07 Q1601 1063.34 1597.9 1063.34 Q1595.7 1063.34 1593.24 1064.1 Q1590.81 1064.87 1588.04 1066.42 L1588.04 1061.69 Q1590.86 1060.56 1593.31 1059.98 Q1595.77 1059.4 1597.8 1059.4 Q1603.17 1059.4 1606.37 1062.09 Q1609.56 1064.77 1609.56 1069.26 Q1609.56 1071.39 1608.75 1073.31 Q1607.97 1075.21 1605.86 1077.81 Q1605.28 1078.48 1602.18 1081.69 Q1599.08 1084.89 1593.43 1090.65 Z" fill="#000000" fill-rule="nonzero" fill-opacity="1" /><path clip-path="url(#clip820)" d="M1629.56 1063.11 Q1625.95 1063.11 1624.12 1066.67 Q1622.32 1070.21 1622.32 1077.34 Q1622.32 1084.45 1624.12 1088.01 Q1625.95 1091.56 1629.56 1091.56 Q1633.2 1091.56 1635 1088.01 Q1636.83 1084.45 1636.83 1077.34 Q1636.83 1070.21 1635 1066.67 Q1633.2 1063.11 1629.56 1063.11 M1629.56 1059.4 Q1635.37 1059.4 1638.43 1064.01 Q1641.51 1068.59 1641.51 1077.34 Q1641.51 1086.07 1638.43 1090.68 Q1635.37 1095.26 1629.56 1095.26 Q1623.75 1095.26 1620.67 1090.68 Q1617.62 1086.07 1617.62 1077.34 Q1617.62 1068.59 1620.67 1064.01 Q1623.75 1059.4 1629.56 1059.4 Z" fill="#000000" fill-rule="nonzero" fill-opacity="1" /><path clip-path="url(#clip820)" d="M998.677 1126.73 L1005.11 1126.73 L1005.11 1146.21 L1028.47 1146.21 L1028.47 1126.73 L1034.9 1126.73 L1034.9 1174.25 L1028.47 1174.25 L1028.47 1151.62 L1005.11 1151.62 L1005.11 1174.25 L998.677 1174.25 L998.677 1126.73 Z" fill="#000000" fill-rule="nonzero" fill-opacity="1" /><path clip-path="url(#clip820)" d="M1061.25 1142.71 Q1056.54 1142.71 1053.8 1146.4 Q1051.07 1150.06 1051.07 1156.46 Q1051.07 1162.86 1053.77 1166.55 Q1056.51 1170.21 1061.25 1170.21 Q1065.93 1170.21 1068.67 1166.52 Q1071.41 1162.83 1071.41 1156.46 Q1071.41 1150.13 1068.67 1146.43 Q1065.93 1142.71 1061.25 1142.71 M1061.25 1137.74 Q1068.89 1137.74 1073.25 1142.71 Q1077.61 1147.68 1077.61 1156.46 Q1077.61 1165.21 1073.25 1170.21 Q1068.89 1175.17 1061.25 1175.17 Q1053.58 1175.17 1049.22 1170.21 Q1044.89 1165.21 1044.89 1156.46 Q1044.89 1147.68 1049.22 1142.71 Q1053.58 1137.74 1061.25 1137.74 Z" fill="#000000" fill-rule="nonzero" fill-opacity="1" /><path clip-path="url(#clip820)" d="M1086.72 1160.18 L1086.72 1138.6 L1092.57 1138.6 L1092.57 1159.96 Q1092.57 1165.02 1094.54 1167.57 Q1096.52 1170.08 1100.47 1170.08 Q1105.21 1170.08 1107.94 1167.06 Q1110.71 1164.03 1110.71 1158.82 L1110.71 1138.6 L1116.57 1138.6 L1116.57 1174.25 L1110.71 1174.25 L1110.71 1168.78 Q1108.58 1172.02 1105.75 1173.62 Q1102.95 1175.17 1099.22 1175.17 Q1093.08 1175.17 1089.9 1171.36 Q1086.72 1167.54 1086.72 1160.18 M1101.45 1137.74 L1101.45 1137.74 Z" fill="#000000" fill-rule="nonzero" fill-opacity="1" /><path clip-path="url(#clip820)" d="M1149.29 1144.08 Q1148.3 1143.51 1147.13 1143.25 Q1145.98 1142.96 1144.58 1142.96 Q1139.61 1142.96 1136.94 1146.21 Q1134.3 1149.43 1134.3 1155.47 L1134.3 1174.25 L1128.41 1174.25 L1128.41 1138.6 L1134.3 1138.6 L1134.3 1144.14 Q1136.14 1140.9 1139.1 1139.34 Q1142.06 1137.74 1146.3 1137.74 Q1146.9 1137.74 1147.63 1137.84 Q1148.37 1137.9 1149.26 1138.06 L1149.29 1144.08 Z" fill="#000000" fill-rule="nonzero" fill-opacity="1" /><polyline clip-path="url(#clip820)" style="stroke:#000000; stroke-linecap:round; stroke-linejoin:round; stroke-width:4; stroke-opacity:1; fill:none" points="195.212,1035.39 195.212,47.2441 "/>
<polyline clip-path="url(#clip820)" style="stroke:#000000; stroke-linecap:round; stroke-linejoin:round; stroke-width:4; stroke-opacity:1; fill:none" points="195.212,1007.42 214.109,1007.42 "/>
<polyline clip-path="url(#clip820)" style="stroke:#000000; stroke-linecap:round; stroke-linejoin:round; stroke-width:4; stroke-opacity:1; fill:none" points="195.212,696.684 214.109,696.684 "/>
<polyline clip-path="url(#clip820)" style="stroke:#000000; stroke-linecap:round; stroke-linejoin:round; stroke-width:4; stroke-opacity:1; fill:none" points="195.212,385.947 214.109,385.947 "/>
<polyline clip-path="url(#clip820)" style="stroke:#000000; stroke-linecap:round; stroke-linejoin:round; stroke-width:4; stroke-opacity:1; fill:none" points="195.212,75.2104 214.109,75.2104 "/>
<path clip-path="url(#clip820)" d="M153.267 993.22 Q149.656 993.22 147.827 996.785 Q146.022 1000.33 146.022 1007.46 Q146.022 1014.56 147.827 1018.13 Q149.656 1021.67 153.267 1021.67 Q156.901 1021.67 158.707 1018.13 Q160.536 1014.56 160.536 1007.46 Q160.536 1000.33 158.707 996.785 Q156.901 993.22 153.267 993.22 M153.267 989.517 Q159.077 989.517 162.133 994.123 Q165.212 998.706 165.212 1007.46 Q165.212 1016.18 162.133 1020.79 Q159.077 1025.37 153.267 1025.37 Q147.457 1025.37 144.378 1020.79 Q141.323 1016.18 141.323 1007.46 Q141.323 998.706 144.378 994.123 Q147.457 989.517 153.267 989.517 Z" fill="#000000" fill-rule="nonzero" fill-opacity="1" /><path clip-path="url(#clip820)" d="M113.916 710.029 L121.554 710.029 L121.554 683.664 L113.244 685.33 L113.244 681.071 L121.508 679.404 L126.184 679.404 L126.184 710.029 L133.823 710.029 L133.823 713.964 L113.916 713.964 L113.916 710.029 Z" fill="#000000" fill-rule="nonzero" fill-opacity="1" /><path clip-path="url(#clip820)" d="M153.267 682.483 Q149.656 682.483 147.827 686.048 Q146.022 689.59 146.022 696.719 Q146.022 703.826 147.827 707.39 Q149.656 710.932 153.267 710.932 Q156.901 710.932 158.707 707.39 Q160.536 703.826 160.536 696.719 Q160.536 689.59 158.707 686.048 Q156.901 682.483 153.267 682.483 M153.267 678.779 Q159.077 678.779 162.133 683.386 Q165.212 687.969 165.212 696.719 Q165.212 705.446 162.133 710.052 Q159.077 714.636 153.267 714.636 Q147.457 714.636 144.378 710.052 Q141.323 705.446 141.323 696.719 Q141.323 687.969 144.378 683.386 Q147.457 678.779 153.267 678.779 Z" fill="#000000" fill-rule="nonzero" fill-opacity="1" /><path clip-path="url(#clip820)" d="M117.133 399.292 L133.452 399.292 L133.452 403.227 L111.508 403.227 L111.508 399.292 Q114.17 396.538 118.753 391.908 Q123.36 387.255 124.54 385.913 Q126.786 383.39 127.665 381.653 Q128.568 379.894 128.568 378.204 Q128.568 375.45 126.624 373.714 Q124.703 371.978 121.601 371.978 Q119.402 371.978 116.948 372.742 Q114.517 373.505 111.74 375.056 L111.74 370.334 Q114.564 369.2 117.017 368.621 Q119.471 368.042 121.508 368.042 Q126.878 368.042 130.073 370.728 Q133.267 373.413 133.267 377.904 Q133.267 380.033 132.457 381.954 Q131.67 383.853 129.564 386.445 Q128.985 387.116 125.883 390.334 Q122.781 393.528 117.133 399.292 Z" fill="#000000" fill-rule="nonzero" fill-opacity="1" /><path clip-path="url(#clip820)" d="M153.267 371.746 Q149.656 371.746 147.827 375.311 Q146.022 378.853 146.022 385.982 Q146.022 393.089 147.827 396.653 Q149.656 400.195 153.267 400.195 Q156.901 400.195 158.707 396.653 Q160.536 393.089 160.536 385.982 Q160.536 378.853 158.707 375.311 Q156.901 371.746 153.267 371.746 M153.267 368.042 Q159.077 368.042 162.133 372.649 Q165.212 377.232 165.212 385.982 Q165.212 394.709 162.133 399.315 Q159.077 403.899 153.267 403.899 Q147.457 403.899 144.378 399.315 Q141.323 394.709 141.323 385.982 Q141.323 377.232 144.378 372.649 Q147.457 368.042 153.267 368.042 Z" fill="#000000" fill-rule="nonzero" fill-opacity="1" /><path clip-path="url(#clip820)" d="M127.272 73.8563 Q130.628 74.5739 132.503 76.8424 Q134.402 79.1109 134.402 82.4442 Q134.402 87.5599 130.883 90.3608 Q127.365 93.1617 120.883 93.1617 Q118.707 93.1617 116.392 92.7219 Q114.101 92.3052 111.647 91.4488 L111.647 86.9349 Q113.591 88.0692 115.906 88.6479 Q118.221 89.2266 120.744 89.2266 Q125.142 89.2266 127.434 87.4905 Q129.749 85.7544 129.749 82.4442 Q129.749 79.3886 127.596 77.6757 Q125.466 75.9396 121.647 75.9396 L117.619 75.9396 L117.619 72.097 L121.832 72.097 Q125.281 72.097 127.11 70.7313 Q128.939 69.3424 128.939 66.7498 Q128.939 64.0878 127.04 62.6758 Q125.165 61.2406 121.647 61.2406 Q119.726 61.2406 117.527 61.6573 Q115.328 62.0739 112.689 62.9535 L112.689 58.7869 Q115.351 58.0462 117.666 57.6758 Q120.003 57.3054 122.064 57.3054 Q127.388 57.3054 130.49 59.736 Q133.591 62.1434 133.591 66.2637 Q133.591 69.1341 131.948 71.1248 Q130.304 73.0924 127.272 73.8563 Z" fill="#000000" fill-rule="nonzero" fill-opacity="1" /><path clip-path="url(#clip820)" d="M153.267 61.0091 Q149.656 61.0091 147.827 64.5739 Q146.022 68.1156 146.022 75.2451 Q146.022 82.3516 147.827 85.9164 Q149.656 89.458 153.267 89.458 Q156.901 89.458 158.707 85.9164 Q160.536 82.3516 160.536 75.2451 Q160.536 68.1156 158.707 64.5739 Q156.901 61.0091 153.267 61.0091 M153.267 57.3054 Q159.077 57.3054 162.133 61.9119 Q165.212 66.4952 165.212 75.2451 Q165.212 83.972 162.133 88.5784 Q159.077 93.1617 153.267 93.1617 Q147.457 93.1617 144.378 88.5784 Q141.323 83.972 141.323 75.2451 Q141.323 66.4952 144.378 61.9119 Q147.457 57.3054 153.267 57.3054 Z" fill="#000000" fill-rule="nonzero" fill-opacity="1" /><path clip-path="url(#clip820)" d="M21.2918 757.368 L27.562 757.368 Q25.8114 761.028 24.952 764.275 Q24.0927 767.521 24.0927 770.545 Q24.0927 775.797 26.1297 778.661 Q28.1667 781.494 31.9225 781.494 Q35.0735 781.494 36.6968 779.616 Q38.2882 777.706 39.2749 772.423 L40.0706 768.54 Q41.4392 761.347 44.9085 757.941 Q48.346 754.503 54.1388 754.503 Q61.0456 754.503 64.6104 759.15 Q68.1752 763.766 68.1752 772.709 Q68.1752 776.083 67.4113 779.903 Q66.6474 783.69 65.1515 787.764 L58.5311 787.764 Q60.7273 783.849 61.8413 780.094 Q62.9553 776.338 62.9553 772.709 Q62.9553 767.203 60.791 764.211 Q58.6266 761.219 54.6162 761.219 Q51.1151 761.219 49.1417 763.384 Q47.1684 765.516 46.1817 770.418 L45.4178 774.333 Q43.9855 781.526 40.93 784.741 Q37.8744 787.955 32.4317 787.955 Q26.1297 787.955 22.5012 783.531 Q18.8728 779.075 18.8728 771.277 Q18.8728 767.935 19.4775 764.466 Q20.0823 760.997 21.2918 757.368 Z" fill="#000000" fill-rule="nonzero" fill-opacity="1" /><path clip-path="url(#clip820)" d="M21.4827 738.939 L31.6042 738.939 L31.6042 726.876 L36.1557 726.876 L36.1557 738.939 L55.5074 738.939 Q59.8679 738.939 61.1093 737.762 Q62.3506 736.552 62.3506 732.892 L62.3506 726.876 L67.2522 726.876 L67.2522 732.892 Q67.2522 739.671 64.7377 742.249 Q62.1914 744.828 55.5074 744.828 L36.1557 744.828 L36.1557 749.124 L31.6042 749.124 L31.6042 744.828 L21.4827 744.828 L21.4827 738.939 Z" fill="#000000" fill-rule="nonzero" fill-opacity="1" /><path clip-path="url(#clip820)" d="M49.3327 702.973 Q49.3327 710.071 50.9559 712.808 Q52.5792 715.545 56.4941 715.545 Q59.6133 715.545 61.4594 713.508 Q63.2736 711.439 63.2736 707.907 Q63.2736 703.037 59.8361 700.109 Q56.3668 697.148 50.6377 697.148 L49.3327 697.148 L49.3327 702.973 M46.9137 691.292 L67.2522 691.292 L67.2522 697.148 L61.8413 697.148 Q65.0878 699.154 66.6474 702.146 Q68.1752 705.137 68.1752 709.466 Q68.1752 714.941 65.1196 718.187 Q62.0323 721.402 56.8761 721.402 Q50.8605 721.402 47.8049 717.391 Q44.7494 713.349 44.7494 705.36 L44.7494 697.148 L44.1765 697.148 Q40.1342 697.148 37.9381 699.822 Q35.7101 702.464 35.7101 707.27 Q35.7101 710.325 36.4421 713.222 Q37.1742 716.118 38.6383 718.792 L33.2275 718.792 Q31.9861 715.577 31.3814 712.553 Q30.7448 709.53 30.7448 706.665 Q30.7448 698.931 34.7552 695.111 Q38.7656 691.292 46.9137 691.292 Z" fill="#000000" fill-rule="nonzero" fill-opacity="1" /><path clip-path="url(#clip820)" d="M21.4827 673.436 L31.6042 673.436 L31.6042 661.373 L36.1557 661.373 L36.1557 673.436 L55.5074 673.436 Q59.8679 673.436 61.1093 672.259 Q62.3506 671.049 62.3506 667.389 L62.3506 661.373 L67.2522 661.373 L67.2522 667.389 Q67.2522 674.168 64.7377 676.746 Q62.1914 679.324 55.5074 679.324 L36.1557 679.324 L36.1557 683.621 L31.6042 683.621 L31.6042 679.324 L21.4827 679.324 L21.4827 673.436 Z" fill="#000000" fill-rule="nonzero" fill-opacity="1" /><path clip-path="url(#clip820)" d="M47.9641 623.179 L50.8286 623.179 L50.8286 650.106 Q56.8761 649.724 60.0589 646.477 Q63.2099 643.199 63.2099 637.374 Q63.2099 634.001 62.3824 630.85 Q61.5549 627.667 59.8998 624.548 L65.4379 624.548 Q66.7747 627.699 67.475 631.009 Q68.1752 634.319 68.1752 637.725 Q68.1752 646.255 63.2099 651.252 Q58.2447 656.217 49.7783 656.217 Q41.0254 656.217 35.9011 651.506 Q30.7448 646.764 30.7448 638.743 Q30.7448 631.55 35.3918 627.38 Q40.0069 623.179 47.9641 623.179 M46.2453 629.035 Q41.4392 629.099 38.5746 631.741 Q35.7101 634.351 35.7101 638.679 Q35.7101 643.581 38.4792 646.541 Q41.2482 649.469 46.2772 649.915 L46.2453 629.035 Z" fill="#000000" fill-rule="nonzero" fill-opacity="1" /><path clip-path="url(#clip820)" d="M35.7101 579.033 Q35.7101 583.743 39.4022 586.481 Q43.0625 589.218 49.46 589.218 Q55.8575 589.218 59.5497 586.512 Q63.2099 583.775 63.2099 579.033 Q63.2099 574.354 59.5178 571.617 Q55.8257 568.879 49.46 568.879 Q43.1261 568.879 39.434 571.617 Q35.7101 574.354 35.7101 579.033 M30.7448 579.033 Q30.7448 571.394 35.7101 567.033 Q40.6753 562.673 49.46 562.673 Q58.2129 562.673 63.2099 567.033 Q68.1752 571.394 68.1752 579.033 Q68.1752 586.703 63.2099 591.064 Q58.2129 595.393 49.46 595.393 Q40.6753 595.393 35.7101 591.064 Q30.7448 586.703 30.7448 579.033 Z" fill="#000000" fill-rule="nonzero" fill-opacity="1" /><path clip-path="url(#clip820)" d="M17.727 534.918 L22.5967 534.918 L22.5967 540.52 Q22.5967 543.671 23.8699 544.913 Q25.143 546.122 28.4532 546.122 L31.6042 546.122 L31.6042 536.478 L36.1557 536.478 L36.1557 546.122 L67.2522 546.122 L67.2522 552.01 L36.1557 552.01 L36.1557 557.612 L31.6042 557.612 L31.6042 552.01 L29.1216 552.01 Q23.1696 552.01 20.4642 549.241 Q17.727 546.472 17.727 540.457 L17.727 534.918 Z" fill="#000000" fill-rule="nonzero" fill-opacity="1" /><path clip-path="url(#clip820)" d="M32.9728 483.643 L38.4473 483.643 Q37.0787 486.125 36.4103 488.64 Q35.7101 491.122 35.7101 493.669 Q35.7101 499.366 39.3385 502.517 Q42.9352 505.668 49.46 505.668 Q55.9849 505.668 59.6133 502.517 Q63.2099 499.366 63.2099 493.669 Q63.2099 491.122 62.5415 488.64 Q61.8413 486.125 60.4727 483.643 L65.8835 483.643 Q67.0294 486.093 67.6023 488.735 Q68.1752 491.345 68.1752 494.305 Q68.1752 502.358 63.1144 507.1 Q58.0537 511.843 49.46 511.843 Q40.739 511.843 35.7419 507.068 Q30.7448 502.262 30.7448 493.923 Q30.7448 491.218 31.3177 488.64 Q31.8588 486.062 32.9728 483.643 Z" fill="#000000" fill-rule="nonzero" fill-opacity="1" /><path clip-path="url(#clip820)" d="M45.7361 443.825 L67.2522 443.825 L67.2522 449.682 L45.927 449.682 Q40.8663 449.682 38.3518 451.655 Q35.8374 453.628 35.8374 457.575 Q35.8374 462.318 38.8611 465.055 Q41.8848 467.792 47.1047 467.792 L67.2522 467.792 L67.2522 473.68 L17.727 473.68 L17.727 467.792 L37.1424 467.792 Q33.9277 465.691 32.3363 462.859 Q30.7448 459.994 30.7448 456.27 Q30.7448 450.127 34.5643 446.976 Q38.3518 443.825 45.7361 443.825 Z" fill="#000000" fill-rule="nonzero" fill-opacity="1" /><path clip-path="url(#clip820)" d="M49.3327 415.943 Q49.3327 423.041 50.9559 425.778 Q52.5792 428.516 56.4941 428.516 Q59.6133 428.516 61.4594 426.479 Q63.2736 424.41 63.2736 420.877 Q63.2736 416.007 59.8361 413.079 Q56.3668 410.119 50.6377 410.119 L49.3327 410.119 L49.3327 415.943 M46.9137 404.262 L67.2522 404.262 L67.2522 410.119 L61.8413 410.119 Q65.0878 412.124 66.6474 415.116 Q68.1752 418.108 68.1752 422.436 Q68.1752 427.911 65.1196 431.157 Q62.0323 434.372 56.8761 434.372 Q50.8605 434.372 47.8049 430.362 Q44.7494 426.319 44.7494 418.331 L44.7494 410.119 L44.1765 410.119 Q40.1342 410.119 37.9381 412.792 Q35.7101 415.434 35.7101 420.24 Q35.7101 423.296 36.4421 426.192 Q37.1742 429.089 38.6383 431.762 L33.2275 431.762 Q31.9861 428.547 31.3814 425.524 Q30.7448 422.5 30.7448 419.635 Q30.7448 411.901 34.7552 408.082 Q38.7656 404.262 46.9137 404.262 Z" fill="#000000" fill-rule="nonzero" fill-opacity="1" /><path clip-path="url(#clip820)" d="M37.0787 371.543 Q36.5058 372.529 36.2512 373.707 Q35.9647 374.853 35.9647 376.253 Q35.9647 381.218 39.2112 383.892 Q42.4259 386.534 48.4733 386.534 L67.2522 386.534 L67.2522 392.422 L31.6042 392.422 L31.6042 386.534 L37.1424 386.534 Q33.8959 384.688 32.3363 381.728 Q30.7448 378.768 30.7448 374.534 Q30.7448 373.93 30.8403 373.198 Q30.904 372.466 31.0631 371.574 L37.0787 371.543 Z" fill="#000000" fill-rule="nonzero" fill-opacity="1" /><path clip-path="url(#clip820)" d="M49.0144 343.088 Q42.6487 343.088 39.1476 345.73 Q35.6464 348.34 35.6464 353.082 Q35.6464 357.793 39.1476 360.434 Q42.6487 363.044 49.0144 363.044 Q55.3483 363.044 58.8494 360.434 Q62.3506 357.793 62.3506 353.082 Q62.3506 348.34 58.8494 345.73 Q55.3483 343.088 49.0144 343.088 M62.828 337.231 Q71.931 337.231 76.3551 341.274 Q80.8111 345.316 80.8111 353.655 Q80.8111 356.742 80.3337 359.48 Q79.8881 362.217 78.9332 364.795 L73.2359 364.795 Q74.6364 362.217 75.3048 359.702 Q75.9732 357.188 75.9732 354.578 Q75.9732 348.817 72.9495 345.952 Q69.9576 343.088 63.8783 343.088 L60.9819 343.088 Q64.133 344.902 65.6926 347.735 Q67.2522 350.568 67.2522 354.514 Q67.2522 361.071 62.2551 365.081 Q57.258 369.092 49.0144 369.092 Q40.739 369.092 35.7419 365.081 Q30.7448 361.071 30.7448 354.514 Q30.7448 350.568 32.3044 347.735 Q33.864 344.902 37.0151 343.088 L31.6042 343.088 L31.6042 337.231 L62.828 337.231 Z" fill="#000000" fill-rule="nonzero" fill-opacity="1" /><path clip-path="url(#clip820)" d="M47.9641 294.677 L50.8286 294.677 L50.8286 321.604 Q56.8761 321.222 60.0589 317.975 Q63.2099 314.697 63.2099 308.872 Q63.2099 305.498 62.3824 302.347 Q61.5549 299.164 59.8998 296.045 L65.4379 296.045 Q66.7747 299.196 67.475 302.506 Q68.1752 305.817 68.1752 309.222 Q68.1752 317.752 63.2099 322.749 Q58.2447 327.715 49.7783 327.715 Q41.0254 327.715 35.9011 323.004 Q30.7448 318.262 30.7448 310.241 Q30.7448 303.048 35.3918 298.878 Q40.0069 294.677 47.9641 294.677 M46.2453 300.533 Q41.4392 300.597 38.5746 303.239 Q35.7101 305.848 35.7101 310.177 Q35.7101 315.079 38.4792 318.039 Q41.2482 320.967 46.2772 321.413 L46.2453 300.533 Z" fill="#000000" fill-rule="nonzero" fill-opacity="1" /><path clip-path="url(#clip822)" d="M244.953 883.127 L317.043 883.127 L389.133 883.127 L461.222 883.127 L533.312 883.127 L605.401 976.348 L677.491 976.348 L749.581 976.348 L821.67 976.348 L893.76 976.348 L965.849 976.348 L1037.94 976.348 L1110.03 1007.42 L1182.12 1007.42 L1254.21 1007.42 L1326.3 808.55 L1398.39 559.96 L1470.48 337.617 L1542.57 559.12 L1614.66 953.068 L1686.75 1007.42 L1758.83 1007.42 L1830.92 1007.42 L1903.01 1007.42 L1903.01 1007.42 L1830.92 541.316 L1758.83 323.8 L1686.75 323.8 L1614.66 292.726 L1542.57 75.2104 L1470.48 75.2104 L1398.39 224.364 L1326.3 486.033 L1254.21 833.306 L1182.12 1006.3 L1110.03 1006.3 L1037.94 975.225 L965.849 944.151 L893.76 883.127 L821.67 883.127 L749.581 883.127 L677.491 883.127 L605.401 883.127 L533.312 883.127 L461.222 883.127 L389.133 883.127 L317.043 883.127 L244.953 883.127  Z" fill="#00467f" fill-rule="evenodd" fill-opacity="0.2"/>
<polyline clip-path="url(#clip822)" style="stroke:#00467f; stroke-linecap:round; stroke-linejoin:round; stroke-width:4; stroke-opacity:0; fill:none" points="244.953,883.127 317.043,883.127 389.133,883.127 461.222,883.127 533.312,883.127 605.401,929.737 677.491,929.737 749.581,929.737 821.67,929.737 893.76,929.737 965.849,960.249 1037.94,975.786 1110.03,1006.86 1182.12,1006.86 1254.21,920.364 1326.3,647.291 1398.39,392.162 1470.48,206.413 1542.57,317.165 1614.66,622.897 1686.75,665.611 1758.83,665.611 1830.92,774.369 1903.01,1007.42 "/>
<path clip-path="url(#clip822)" d="M244.953 883.127 L317.043 883.127 L389.133 883.127 L461.222 883.127 L533.312 883.127 L605.401 976.348 L677.491 976.348 L749.581 976.348 L821.67 976.348 L893.76 976.348 L965.849 976.348 L1037.94 976.348 L1110.03 1007.42 L1182.12 1007.42 L1254.21 990.217 L1326.3 710.261 L1398.39 456.707 L1470.48 206.267 L1542.57 391.336 L1614.66 780.632 L1686.75 941.646 L1758.83 982.61 L1830.92 982.61 L1903.01 1007.42 L1903.01 1007.42 L1830.92 572.39 L1758.83 572.39 L1686.75 547.508 L1614.66 417.021 L1542.57 95.5967 L1470.48 75.2104 L1398.39 233.657 L1326.3 522.672 L1254.21 833.342 L1182.12 1007.42 L1110.03 1007.38 L1037.94 975.225 L965.849 944.151 L893.76 883.127 L821.67 883.127 L749.581 883.127 L677.491 883.127 L605.401 883.127 L533.312 883.127 L461.222 883.127 L389.133 883.127 L317.043 883.127 L244.953 883.127  Z" fill="#00467f" fill-rule="evenodd" fill-opacity="0.2"/>
<polyline clip-path="url(#clip822)" style="stroke:#00467f; stroke-linecap:round; stroke-linejoin:round; stroke-width:4; stroke-opacity:0; fill:none" points="244.953,883.127 317.043,883.127 389.133,883.127 461.222,883.127 533.312,883.127 605.401,929.737 677.491,929.737 749.581,929.737 821.67,929.737 893.76,929.737 965.849,960.249 1037.94,975.786 1110.03,1007.4 1182.12,1007.42 1254.21,911.779 1326.3,616.467 1398.39,345.182 1470.48,140.739 1542.57,243.466 1614.66,598.827 1686.75,744.577 1758.83,777.5 1830.92,777.5 1903.01,1007.42 "/>
<path clip-path="url(#clip822)" d="M244.953 883.127 L317.043 883.127 L389.133 883.127 L461.222 883.127 L533.312 883.127 L605.401 914.2 L677.491 914.2 L749.581 914.2 L821.67 914.2 L893.76 914.2 L965.849 944.151 L1037.94 976.311 L1110.03 1007.42 L1182.12 1007.42 L1254.21 951.836 L1326.3 683.738 L1398.39 402.63 L1470.48 157.353 L1542.57 323.8 L1614.66 665.611 L1686.75 855.168 L1758.83 883.127 L1830.92 883.127 L1903.01 1007.42 L1903.01 1007.42 L1830.92 646.855 L1758.83 646.855 L1686.75 634.537 L1614.66 479.169 L1542.57 160.894 L1470.48 75.2104 L1398.39 284.646 L1326.3 589.513 L1254.21 873.497 L1182.12 1007.42 L1110.03 1007.41 L1037.94 976.311 L965.849 944.151 L893.76 883.127 L821.67 883.127 L749.581 883.127 L677.491 883.127 L605.401 883.127 L533.312 883.127 L461.222 883.127 L389.133 883.127 L317.043 883.127 L244.953 883.127  Z" fill="#00467f" fill-rule="evenodd" fill-opacity="0.2"/>
<polyline clip-path="url(#clip822)" style="stroke:#00467f; stroke-linecap:round; stroke-linejoin:round; stroke-width:4; stroke-opacity:0; fill:none" points="244.953,883.127 317.043,883.127 389.133,883.127 461.222,883.127 533.312,883.127 605.401,898.664 677.491,898.664 749.581,898.664 821.67,898.664 893.76,898.664 965.849,944.151 1037.94,976.311 1110.03,1007.42 1182.12,1007.42 1254.21,912.666 1326.3,636.625 1398.39,343.638 1470.48,116.282 1542.57,242.347 1614.66,572.39 1686.75,744.853 1758.83,764.991 1830.92,764.991 1903.01,1007.42 "/>
<polyline clip-path="url(#clip822)" style="stroke:#00467f; stroke-linecap:round; stroke-linejoin:round; stroke-width:4; stroke-opacity:1; fill:none" points="244.953,883.127 317.043,883.127 389.133,883.127 461.222,883.127 533.312,883.127 605.401,883.127 677.491,883.127 749.581,883.127 821.67,883.127 893.76,883.127 965.849,944.151 1037.94,976.311 1110.03,1007.42 1182.12,1007.42 1254.21,913.722 1326.3,627.931 1398.39,352.429 1470.48,75.2104 1542.57,229.912 1614.66,571.189 1686.75,758.832 1758.83,807.378 1830.92,807.378 1903.01,1007.42 "/>
</svg>
