<?xml version="1.0" encoding="utf-8"?>
<svg xmlns="http://www.w3.org/2000/svg" xmlns:xlink="http://www.w3.org/1999/xlink" width="500" height="300" viewBox="0 0 2000 1200">
<defs>
  <clipPath id="clip050">
    <rect x="0" y="0" width="2000" height="1200"/>
  </clipPath>
</defs>
<path clip-path="url(#clip050)" d="M0 1200 L2000 1200 L2000 0 L0 0  Z" fill="#ffffff" fill-rule="evenodd" fill-opacity="1"/>
<defs>
  <clipPath id="clip051">
    <rect x="400" y="0" width="1401" height="1200"/>
  </clipPath>
</defs>
<path clip-path="url(#clip050)" d="M152.112 493.904 L937.675 493.904 L937.675 117.424 L152.112 117.424  Z" fill="#ffffff" fill-rule="evenodd" fill-opacity="1"/>
<defs>
  <clipPath id="clip052">
    <rect x="152" y="117" width="787" height="377"/>
  </clipPath>
</defs>
<polyline clip-path="url(#clip052)" style="stroke:#000000; stroke-linecap:round; stroke-linejoin:round; stroke-width:2; stroke-opacity:0.1; fill:none" points="275.404,493.904 275.404,117.424 "/>
<polyline clip-path="url(#clip052)" style="stroke:#000000; stroke-linecap:round; stroke-linejoin:round; stroke-width:2; stroke-opacity:0.1; fill:none" points="443.835,493.904 443.835,117.424 "/>
<polyline clip-path="url(#clip052)" style="stroke:#000000; stroke-linecap:round; stroke-linejoin:round; stroke-width:2; stroke-opacity:0.1; fill:none" points="612.266,493.904 612.266,117.424 "/>
<polyline clip-path="url(#clip052)" style="stroke:#000000; stroke-linecap:round; stroke-linejoin:round; stroke-width:2; stroke-opacity:0.1; fill:none" points="780.697,493.904 780.697,117.424 "/>
<polyline clip-path="url(#clip050)" style="stroke:#000000; stroke-linecap:round; stroke-linejoin:round; stroke-width:4; stroke-opacity:1; fill:none" points="152.112,493.904 937.675,493.904 "/>
<polyline clip-path="url(#clip050)" style="stroke:#000000; stroke-linecap:round; stroke-linejoin:round; stroke-width:4; stroke-opacity:1; fill:none" points="275.404,493.904 275.404,475.006 "/>
<polyline clip-path="url(#clip050)" style="stroke:#000000; stroke-linecap:round; stroke-linejoin:round; stroke-width:4; stroke-opacity:1; fill:none" points="443.835,493.904 443.835,475.006 "/>
<polyline clip-path="url(#clip050)" style="stroke:#000000; stroke-linecap:round; stroke-linejoin:round; stroke-width:4; stroke-opacity:1; fill:none" points="612.266,493.904 612.266,475.006 "/>
<polyline clip-path="url(#clip050)" style="stroke:#000000; stroke-linecap:round; stroke-linejoin:round; stroke-width:4; stroke-opacity:1; fill:none" points="780.697,493.904 780.697,475.006 "/>
<path clip-path="url(#clip050)" d="M247.14 549.169 L263.459 549.169 L263.459 553.104 L241.515 553.104 L241.515 549.169 Q244.177 546.414 248.76 541.784 Q253.367 537.132 254.547 535.789 Q256.793 533.266 257.672 531.53 Q258.575 529.771 258.575 528.081 Q258.575 525.326 256.631 523.59 Q254.709 521.854 251.608 521.854 Q249.408 521.854 246.955 522.618 Q244.524 523.382 241.746 524.933 L241.746 520.211 Q244.571 519.076 247.024 518.498 Q249.478 517.919 251.515 517.919 Q256.885 517.919 260.08 520.604 Q263.274 523.289 263.274 527.78 Q263.274 529.91 262.464 531.831 Q261.677 533.729 259.57 536.322 Q258.992 536.993 255.89 540.21 Q252.788 543.405 247.14 549.169 Z" fill="#000000" fill-rule="nonzero" fill-opacity="1" /><path clip-path="url(#clip050)" d="M273.274 547.224 L278.158 547.224 L278.158 553.104 L273.274 553.104 L273.274 547.224 Z" fill="#000000" fill-rule="nonzero" fill-opacity="1" /><path clip-path="url(#clip050)" d="M288.39 518.544 L306.746 518.544 L306.746 522.479 L292.672 522.479 L292.672 530.951 Q293.691 530.604 294.709 530.442 Q295.728 530.257 296.746 530.257 Q302.533 530.257 305.913 533.428 Q309.292 536.599 309.292 542.016 Q309.292 547.595 305.82 550.696 Q302.348 553.775 296.029 553.775 Q293.853 553.775 291.584 553.405 Q289.339 553.034 286.931 552.294 L286.931 547.595 Q289.015 548.729 291.237 549.284 Q293.459 549.84 295.936 549.84 Q299.941 549.84 302.279 547.734 Q304.617 545.627 304.617 542.016 Q304.617 538.405 302.279 536.298 Q299.941 534.192 295.936 534.192 Q294.061 534.192 292.186 534.609 Q290.334 535.025 288.39 535.905 L288.39 518.544 Z" fill="#000000" fill-rule="nonzero" fill-opacity="1" /><path clip-path="url(#clip050)" d="M410.999 518.544 L429.356 518.544 L429.356 522.479 L415.282 522.479 L415.282 530.951 Q416.3 530.604 417.319 530.442 Q418.337 530.257 419.356 530.257 Q425.143 530.257 428.522 533.428 Q431.902 536.599 431.902 542.016 Q431.902 547.595 428.43 550.696 Q424.958 553.775 418.638 553.775 Q416.462 553.775 414.194 553.405 Q411.948 553.034 409.541 552.294 L409.541 547.595 Q411.624 548.729 413.847 549.284 Q416.069 549.84 418.546 549.84 Q422.55 549.84 424.888 547.734 Q427.226 545.627 427.226 542.016 Q427.226 538.405 424.888 536.298 Q422.55 534.192 418.546 534.192 Q416.671 534.192 414.796 534.609 Q412.944 535.025 410.999 535.905 L410.999 518.544 Z" fill="#000000" fill-rule="nonzero" fill-opacity="1" /><path clip-path="url(#clip050)" d="M441.115 547.224 L445.999 547.224 L445.999 553.104 L441.115 553.104 L441.115 547.224 Z" fill="#000000" fill-rule="nonzero" fill-opacity="1" /><path clip-path="url(#clip050)" d="M466.184 521.623 Q462.573 521.623 460.744 525.187 Q458.939 528.729 458.939 535.859 Q458.939 542.965 460.744 546.53 Q462.573 550.071 466.184 550.071 Q469.819 550.071 471.624 546.53 Q473.453 542.965 473.453 535.859 Q473.453 528.729 471.624 525.187 Q469.819 521.623 466.184 521.623 M466.184 517.919 Q471.994 517.919 475.05 522.525 Q478.129 527.109 478.129 535.859 Q478.129 544.585 475.05 549.192 Q471.994 553.775 466.184 553.775 Q460.374 553.775 457.295 549.192 Q454.24 544.585 454.24 535.859 Q454.24 527.109 457.295 522.525 Q460.374 517.919 466.184 517.919 Z" fill="#000000" fill-rule="nonzero" fill-opacity="1" /><path clip-path="url(#clip050)" d="M578.586 518.544 L600.808 518.544 L600.808 520.535 L588.262 553.104 L583.377 553.104 L595.183 522.479 L578.586 522.479 L578.586 518.544 Z" fill="#000000" fill-rule="nonzero" fill-opacity="1" /><path clip-path="url(#clip050)" d="M609.928 547.224 L614.812 547.224 L614.812 553.104 L609.928 553.104 L609.928 547.224 Z" fill="#000000" fill-rule="nonzero" fill-opacity="1" /><path clip-path="url(#clip050)" d="M625.044 518.544 L643.4 518.544 L643.4 522.479 L629.326 522.479 L629.326 530.951 Q630.345 530.604 631.363 530.442 Q632.382 530.257 633.4 530.257 Q639.187 530.257 642.567 533.428 Q645.946 536.599 645.946 542.016 Q645.946 547.595 642.474 550.696 Q639.002 553.775 632.683 553.775 Q630.507 553.775 628.238 553.405 Q625.993 553.034 623.585 552.294 L623.585 547.595 Q625.669 548.729 627.891 549.284 Q630.113 549.84 632.59 549.84 Q636.595 549.84 638.933 547.734 Q641.27 545.627 641.27 542.016 Q641.27 538.405 638.933 536.298 Q636.595 534.192 632.59 534.192 Q630.715 534.192 628.84 534.609 Q626.988 535.025 625.044 535.905 L625.044 518.544 Z" fill="#000000" fill-rule="nonzero" fill-opacity="1" /><path clip-path="url(#clip050)" d="M732.769 549.169 L740.408 549.169 L740.408 522.803 L732.098 524.47 L732.098 520.211 L740.362 518.544 L745.038 518.544 L745.038 549.169 L752.676 549.169 L752.676 553.104 L732.769 553.104 L732.769 549.169 Z" fill="#000000" fill-rule="nonzero" fill-opacity="1" /><path clip-path="url(#clip050)" d="M772.121 521.623 Q768.51 521.623 766.681 525.187 Q764.875 528.729 764.875 535.859 Q764.875 542.965 766.681 546.53 Q768.51 550.071 772.121 550.071 Q775.755 550.071 777.561 546.53 Q779.389 542.965 779.389 535.859 Q779.389 528.729 777.561 525.187 Q775.755 521.623 772.121 521.623 M772.121 517.919 Q777.931 517.919 780.986 522.525 Q784.065 527.109 784.065 535.859 Q784.065 544.585 780.986 549.192 Q777.931 553.775 772.121 553.775 Q766.311 553.775 763.232 549.192 Q760.176 544.585 760.176 535.859 Q760.176 527.109 763.232 522.525 Q766.311 517.919 772.121 517.919 Z" fill="#000000" fill-rule="nonzero" fill-opacity="1" /><path clip-path="url(#clip050)" d="M792.283 547.224 L797.167 547.224 L797.167 553.104 L792.283 553.104 L792.283 547.224 Z" fill="#000000" fill-rule="nonzero" fill-opacity="1" /><path clip-path="url(#clip050)" d="M817.352 521.623 Q813.741 521.623 811.912 525.187 Q810.107 528.729 810.107 535.859 Q810.107 542.965 811.912 546.53 Q813.741 550.071 817.352 550.071 Q820.986 550.071 822.792 546.53 Q824.621 542.965 824.621 535.859 Q824.621 528.729 822.792 525.187 Q820.986 521.623 817.352 521.623 M817.352 517.919 Q823.162 517.919 826.218 522.525 Q829.296 527.109 829.296 535.859 Q829.296 544.585 826.218 549.192 Q823.162 553.775 817.352 553.775 Q811.542 553.775 808.463 549.192 Q805.408 544.585 805.408 535.859 Q805.408 527.109 808.463 522.525 Q811.542 517.919 817.352 517.919 Z" fill="#000000" fill-rule="nonzero" fill-opacity="1" /><polyline clip-path="url(#clip052)" style="stroke:#000000; stroke-linecap:round; stroke-linejoin:round; stroke-width:2; stroke-opacity:0.1; fill:none" points="152.112,483.249 937.675,483.249 "/>
<polyline clip-path="url(#clip052)" style="stroke:#000000; stroke-linecap:round; stroke-linejoin:round; stroke-width:2; stroke-opacity:0.1; fill:none" points="152.112,379.562 937.675,379.562 "/>
<polyline clip-path="url(#clip052)" style="stroke:#000000; stroke-linecap:round; stroke-linejoin:round; stroke-width:2; stroke-opacity:0.1; fill:none" points="152.112,275.875 937.675,275.875 "/>
<polyline clip-path="url(#clip052)" style="stroke:#000000; stroke-linecap:round; stroke-linejoin:round; stroke-width:2; stroke-opacity:0.1; fill:none" points="152.112,172.188 937.675,172.188 "/>
<polyline clip-path="url(#clip050)" style="stroke:#000000; stroke-linecap:round; stroke-linejoin:round; stroke-width:4; stroke-opacity:1; fill:none" points="152.112,493.904 152.112,117.424 "/>
<polyline clip-path="url(#clip050)" style="stroke:#000000; stroke-linecap:round; stroke-linejoin:round; stroke-width:4; stroke-opacity:1; fill:none" points="152.112,483.249 171.01,483.249 "/>
<polyline clip-path="url(#clip050)" style="stroke:#000000; stroke-linecap:round; stroke-linejoin:round; stroke-width:4; stroke-opacity:1; fill:none" points="152.112,379.562 171.01,379.562 "/>
<polyline clip-path="url(#clip050)" style="stroke:#000000; stroke-linecap:round; stroke-linejoin:round; stroke-width:4; stroke-opacity:1; fill:none" points="152.112,275.875 171.01,275.875 "/>
<polyline clip-path="url(#clip050)" style="stroke:#000000; stroke-linecap:round; stroke-linejoin:round; stroke-width:4; stroke-opacity:1; fill:none" points="152.112,172.188 171.01,172.188 "/>
<path clip-path="url(#clip050)" d="M64.9365 469.047 Q61.3254 469.047 59.4967 472.612 Q57.6912 476.154 57.6912 483.284 Q57.6912 490.39 59.4967 493.955 Q61.3254 497.496 64.9365 497.496 Q68.5707 497.496 70.3763 493.955 Q72.205 490.39 72.205 483.284 Q72.205 476.154 70.3763 472.612 Q68.5707 469.047 64.9365 469.047 M64.9365 465.344 Q70.7467 465.344 73.8022 469.95 Q76.8809 474.534 76.8809 483.284 Q76.8809 492.01 73.8022 496.617 Q70.7467 501.2 64.9365 501.2 Q59.1264 501.2 56.0477 496.617 Q52.9921 492.01 52.9921 483.284 Q52.9921 474.534 56.0477 469.95 Q59.1264 465.344 64.9365 465.344 Z" fill="#000000" fill-rule="nonzero" fill-opacity="1" /><path clip-path="url(#clip050)" d="M85.0984 494.649 L89.9827 494.649 L89.9827 500.529 L85.0984 500.529 L85.0984 494.649 Z" fill="#000000" fill-rule="nonzero" fill-opacity="1" /><path clip-path="url(#clip050)" d="M110.168 469.047 Q106.557 469.047 104.728 472.612 Q102.922 476.154 102.922 483.284 Q102.922 490.39 104.728 493.955 Q106.557 497.496 110.168 497.496 Q113.802 497.496 115.608 493.955 Q117.436 490.39 117.436 483.284 Q117.436 476.154 115.608 472.612 Q113.802 469.047 110.168 469.047 M110.168 465.344 Q115.978 465.344 119.033 469.95 Q122.112 474.534 122.112 483.284 Q122.112 492.01 119.033 496.617 Q115.978 501.2 110.168 501.2 Q104.358 501.2 101.279 496.617 Q98.2234 492.01 98.2234 483.284 Q98.2234 474.534 101.279 469.95 Q104.358 465.344 110.168 465.344 Z" fill="#000000" fill-rule="nonzero" fill-opacity="1" /><path clip-path="url(#clip050)" d="M65.9319 365.36 Q62.3208 365.36 60.4921 368.925 Q58.6865 372.467 58.6865 379.596 Q58.6865 386.703 60.4921 390.268 Q62.3208 393.809 65.9319 393.809 Q69.5661 393.809 71.3717 390.268 Q73.2004 386.703 73.2004 379.596 Q73.2004 372.467 71.3717 368.925 Q69.5661 365.36 65.9319 365.36 M65.9319 361.657 Q71.742 361.657 74.7976 366.263 Q77.8763 370.846 77.8763 379.596 Q77.8763 388.323 74.7976 392.93 Q71.742 397.513 65.9319 397.513 Q60.1217 397.513 57.043 392.93 Q53.9875 388.323 53.9875 379.596 Q53.9875 370.846 57.043 366.263 Q60.1217 361.657 65.9319 361.657 Z" fill="#000000" fill-rule="nonzero" fill-opacity="1" /><path clip-path="url(#clip050)" d="M86.0938 390.962 L90.978 390.962 L90.978 396.842 L86.0938 396.842 L86.0938 390.962 Z" fill="#000000" fill-rule="nonzero" fill-opacity="1" /><path clip-path="url(#clip050)" d="M101.209 362.282 L119.566 362.282 L119.566 366.217 L105.492 366.217 L105.492 374.689 Q106.51 374.342 107.529 374.18 Q108.547 373.995 109.566 373.995 Q115.353 373.995 118.733 377.166 Q122.112 380.337 122.112 385.754 Q122.112 391.332 118.64 394.434 Q115.168 397.513 108.848 397.513 Q106.672 397.513 104.404 397.143 Q102.159 396.772 99.7511 396.032 L99.7511 391.332 Q101.834 392.467 104.057 393.022 Q106.279 393.578 108.756 393.578 Q112.76 393.578 115.098 391.471 Q117.436 389.365 117.436 385.754 Q117.436 382.143 115.098 380.036 Q112.76 377.93 108.756 377.93 Q106.881 377.93 105.006 378.346 Q103.154 378.763 101.209 379.643 L101.209 362.282 Z" fill="#000000" fill-rule="nonzero" fill-opacity="1" /><path clip-path="url(#clip050)" d="M55.7467 289.219 L63.3856 289.219 L63.3856 262.854 L55.0754 264.52 L55.0754 260.261 L63.3393 258.595 L68.0152 258.595 L68.0152 289.219 L75.654 289.219 L75.654 293.155 L55.7467 293.155 L55.7467 289.219 Z" fill="#000000" fill-rule="nonzero" fill-opacity="1" /><path clip-path="url(#clip050)" d="M85.0984 287.275 L89.9827 287.275 L89.9827 293.155 L85.0984 293.155 L85.0984 287.275 Z" fill="#000000" fill-rule="nonzero" fill-opacity="1" /><path clip-path="url(#clip050)" d="M110.168 261.673 Q106.557 261.673 104.728 265.238 Q102.922 268.78 102.922 275.909 Q102.922 283.016 104.728 286.581 Q106.557 290.122 110.168 290.122 Q113.802 290.122 115.608 286.581 Q117.436 283.016 117.436 275.909 Q117.436 268.78 115.608 265.238 Q113.802 261.673 110.168 261.673 M110.168 257.97 Q115.978 257.97 119.033 262.576 Q122.112 267.159 122.112 275.909 Q122.112 284.636 119.033 289.243 Q115.978 293.826 110.168 293.826 Q104.358 293.826 101.279 289.243 Q98.2234 284.636 98.2234 275.909 Q98.2234 267.159 101.279 262.576 Q104.358 257.97 110.168 257.97 Z" fill="#000000" fill-rule="nonzero" fill-opacity="1" /><path clip-path="url(#clip050)" d="M56.7421 185.532 L64.381 185.532 L64.381 159.167 L56.0708 160.833 L56.0708 156.574 L64.3347 154.908 L69.0106 154.908 L69.0106 185.532 L76.6494 185.532 L76.6494 189.468 L56.7421 189.468 L56.7421 185.532 Z" fill="#000000" fill-rule="nonzero" fill-opacity="1" /><path clip-path="url(#clip050)" d="M86.0938 183.588 L90.978 183.588 L90.978 189.468 L86.0938 189.468 L86.0938 183.588 Z" fill="#000000" fill-rule="nonzero" fill-opacity="1" /><path clip-path="url(#clip050)" d="M101.209 154.908 L119.566 154.908 L119.566 158.843 L105.492 158.843 L105.492 167.315 Q106.51 166.968 107.529 166.806 Q108.547 166.62 109.566 166.62 Q115.353 166.62 118.733 169.792 Q122.112 172.963 122.112 178.38 Q122.112 183.958 118.64 187.06 Q115.168 190.139 108.848 190.139 Q106.672 190.139 104.404 189.768 Q102.159 189.398 99.7511 188.657 L99.7511 183.958 Q101.834 185.093 104.057 185.648 Q106.279 186.204 108.756 186.204 Q112.76 186.204 115.098 184.097 Q117.436 181.991 117.436 178.38 Q117.436 174.769 115.098 172.662 Q112.76 170.556 108.756 170.556 Q106.881 170.556 105.006 170.972 Q103.154 171.389 101.209 172.269 L101.209 154.908 Z" fill="#000000" fill-rule="nonzero" fill-opacity="1" /><path clip-path="url(#clip050)" d="M353.731 27.2059 L337.325 49.2833 L354.582 72.576 L345.792 72.576 L332.586 54.752 L319.38 72.576 L310.589 72.576 L328.211 48.8377 L312.088 27.2059 L320.879 27.2059 L332.91 43.369 L344.941 27.2059 L353.731 27.2059 Z" fill="#000000" fill-rule="nonzero" fill-opacity="1" /><path clip-path="url(#clip050)" d="M399.588 86.3491 L399.588 92.1419 L356.486 92.1419 L356.486 86.3491 L399.588 86.3491 Z" fill="#000000" fill-rule="nonzero" fill-opacity="1" /><path clip-path="url(#clip050)" d="M435.519 28.5427 L435.519 35.5912 Q432.359 33.9709 428.957 33.1607 Q425.554 32.3505 421.908 32.3505 Q416.358 32.3505 413.563 34.0519 Q410.809 35.7533 410.809 39.156 Q410.809 41.7486 412.794 43.2475 Q414.779 44.7058 420.774 46.0426 L423.326 46.6097 Q431.266 48.3111 434.587 51.4303 Q437.95 54.509 437.95 60.0587 Q437.95 66.3781 432.927 70.0644 Q427.944 73.7508 419.194 73.7508 Q415.548 73.7508 411.578 73.0216 Q407.649 72.3329 403.274 70.9151 L403.274 63.2184 Q407.406 65.3654 411.416 66.4591 Q415.427 67.5124 419.356 67.5124 Q424.622 67.5124 427.458 65.73 Q430.293 63.9071 430.293 60.6258 Q430.293 57.5877 428.228 55.9673 Q426.202 54.3469 419.275 52.8481 L416.682 52.2405 Q409.755 50.7821 406.677 47.7845 Q403.598 44.7463 403.598 39.4801 Q403.598 33.0797 408.135 29.5959 Q412.672 26.1121 421.017 26.1121 Q425.149 26.1121 428.795 26.7198 Q432.44 27.3274 435.519 28.5427 Z" fill="#000000" fill-rule="nonzero" fill-opacity="1" /><path clip-path="url(#clip050)" d="M457.191 14.324 L457.191 27.2059 L472.544 27.2059 L472.544 32.9987 L457.191 32.9987 L457.191 57.6282 Q457.191 63.1779 458.69 64.7578 Q460.23 66.3376 464.888 66.3376 L472.544 66.3376 L472.544 72.576 L464.888 72.576 Q456.26 72.576 452.979 69.3758 Q449.697 66.1351 449.697 57.6282 L449.697 32.9987 L444.229 32.9987 L444.229 27.2059 L449.697 27.2059 L449.697 14.324 L457.191 14.324 Z" fill="#000000" fill-rule="nonzero" fill-opacity="1" /><path clip-path="url(#clip050)" d="M499.929 32.4315 Q493.933 32.4315 490.449 37.1306 Q486.966 41.7891 486.966 49.9314 Q486.966 58.0738 490.409 62.7728 Q493.893 67.4314 499.929 67.4314 Q505.883 67.4314 509.367 62.7323 Q512.851 58.0333 512.851 49.9314 Q512.851 41.8701 509.367 37.1711 Q505.883 32.4315 499.929 32.4315 M499.929 26.1121 Q509.651 26.1121 515.2 32.4315 Q520.75 38.7509 520.75 49.9314 Q520.75 61.0714 515.2 67.4314 Q509.651 73.7508 499.929 73.7508 Q490.166 73.7508 484.616 67.4314 Q479.107 61.0714 479.107 49.9314 Q479.107 38.7509 484.616 32.4315 Q490.166 26.1121 499.929 26.1121 Z" fill="#000000" fill-rule="nonzero" fill-opacity="1" /><path clip-path="url(#clip050)" d="M565.756 28.9478 L565.756 35.9153 Q562.596 34.1734 559.396 33.3227 Q556.236 32.4315 552.995 32.4315 Q545.744 32.4315 541.734 37.0496 Q537.723 41.6271 537.723 49.9314 Q537.723 58.2358 541.734 62.8538 Q545.744 67.4314 552.995 67.4314 Q556.236 67.4314 559.396 66.5807 Q562.596 65.6895 565.756 63.9476 L565.756 70.8341 Q562.637 72.2924 559.274 73.0216 Q555.953 73.7508 552.185 73.7508 Q541.936 73.7508 535.901 67.3098 Q529.865 60.8689 529.865 49.9314 Q529.865 38.832 535.941 32.472 Q542.058 26.1121 552.671 26.1121 Q556.115 26.1121 559.396 26.8413 Q562.677 27.5299 565.756 28.9478 Z" fill="#000000" fill-rule="nonzero" fill-opacity="1" /><path clip-path="url(#clip050)" d="M578.435 9.54393 L585.929 9.54393 L585.929 46.7717 L608.169 27.2059 L617.688 27.2059 L593.626 48.4326 L618.701 72.576 L608.979 72.576 L585.929 50.4176 L585.929 72.576 L578.435 72.576 L578.435 9.54393 Z" fill="#000000" fill-rule="nonzero" fill-opacity="1" /><path clip-path="url(#clip050)" d="M627.816 62.2867 L636.363 62.2867 L636.363 72.576 L627.816 72.576 L627.816 62.2867 Z" fill="#000000" fill-rule="nonzero" fill-opacity="1" /><path clip-path="url(#clip050)" d="M670.715 32.4315 Q664.719 32.4315 661.236 37.1306 Q657.752 41.7891 657.752 49.9314 Q657.752 58.0738 661.195 62.7728 Q664.679 67.4314 670.715 67.4314 Q676.669 67.4314 680.153 62.7323 Q683.637 58.0333 683.637 49.9314 Q683.637 41.8701 680.153 37.1711 Q676.669 32.4315 670.715 32.4315 M670.715 26.1121 Q680.437 26.1121 685.987 32.4315 Q691.536 38.7509 691.536 49.9314 Q691.536 61.0714 685.987 67.4314 Q680.437 73.7508 670.715 73.7508 Q660.952 73.7508 655.402 67.4314 Q649.893 61.0714 649.893 49.9314 Q649.893 38.7509 655.402 32.4315 Q660.952 26.1121 670.715 26.1121 Z" fill="#000000" fill-rule="nonzero" fill-opacity="1" /><path clip-path="url(#clip050)" d="M703.122 54.671 L703.122 27.2059 L710.576 27.2059 L710.576 54.3874 Q710.576 60.8284 713.087 64.0691 Q715.599 67.2693 720.622 67.2693 Q726.658 67.2693 730.141 63.421 Q733.666 59.5726 733.666 52.9291 L733.666 27.2059 L741.119 27.2059 L741.119 72.576 L733.666 72.576 L733.666 65.6084 Q730.952 69.7404 727.346 71.7658 Q723.781 73.7508 719.042 73.7508 Q711.224 73.7508 707.173 68.8897 Q703.122 64.0286 703.122 54.671 M721.878 26.1121 L721.878 26.1121 Z" fill="#000000" fill-rule="nonzero" fill-opacity="1" /><path clip-path="url(#clip050)" d="M763.845 14.324 L763.845 27.2059 L779.198 27.2059 L779.198 32.9987 L763.845 32.9987 L763.845 57.6282 Q763.845 63.1779 765.344 64.7578 Q766.883 66.3376 771.542 66.3376 L779.198 66.3376 L779.198 72.576 L771.542 72.576 Q762.913 72.576 759.632 69.3758 Q756.351 66.1351 756.351 57.6282 L756.351 32.9987 L750.882 32.9987 L750.882 27.2059 L756.351 27.2059 L756.351 14.324 L763.845 14.324 Z" fill="#000000" fill-rule="nonzero" fill-opacity="1" /><path clip-path="url(#clip052)" d="M174.345 462.511 L241.717 441.774 L309.09 421.037 L376.462 400.299 L443.835 483.249 L511.207 483.249 L578.58 483.249 L645.952 483.249 L713.325 483.249 L780.697 483.249 L848.07 483.249 L915.442 483.249 L915.442 483.249 L848.07 403.75 L780.697 128.079 L713.325 154.008 L645.952 187.741 L578.58 218.847 L511.207 249.953 L443.835 286.243 L376.462 317.349 L309.09 358.824 L241.717 400.299 L174.345 441.774  Z" fill="#00467f" fill-rule="evenodd" fill-opacity="0.2"/>
<polyline clip-path="url(#clip052)" style="stroke:#00467f; stroke-linecap:round; stroke-linejoin:round; stroke-width:4; stroke-opacity:0; fill:none" points="174.345,452.143 241.717,421.037 309.09,389.93 376.462,358.824 443.835,384.746 511.207,366.601 578.58,351.048 645.952,335.495 713.325,318.629 780.697,305.664 848.07,443.5 915.442,483.249 "/>
<path clip-path="url(#clip052)" d="M174.345 462.511 L241.717 436.59 L309.09 410.668 L376.462 379.562 L443.835 451.744 L511.207 463.29 L578.58 469.478 L645.952 480.395 L713.325 482.478 L780.697 481.968 L848.07 483.249 L915.442 483.249 L915.442 483.249 L848.07 457.199 L780.697 177.443 L713.325 196.876 L645.952 223.852 L578.58 255.137 L511.207 281.059 L443.835 312.165 L376.462 343.271 L309.09 374.377 L241.717 410.668 L174.345 441.774  Z" fill="#00467f" fill-rule="evenodd" fill-opacity="0.2"/>
<polyline clip-path="url(#clip052)" style="stroke:#00467f; stroke-linecap:round; stroke-linejoin:round; stroke-width:4; stroke-opacity:0; fill:none" points="174.345,452.143 241.717,423.629 309.09,392.523 376.462,361.416 443.835,381.955 511.207,372.175 578.58,362.308 645.952,352.124 713.325,339.677 780.697,329.706 848.07,470.224 915.442,483.249 "/>
<path clip-path="url(#clip052)" d="M174.345 457.327 L241.717 431.405 L309.09 400.299 L376.462 369.193 L443.835 358.824 L511.207 444.952 L578.58 452.529 L645.952 469.636 L713.325 473.449 L780.697 476.86 L848.07 483.246 L915.442 483.249 L915.442 483.249 L848.07 469.806 L780.697 408.364 L713.325 303.513 L645.952 244.768 L578.58 270.69 L511.207 296.612 L443.835 322.534 L376.462 353.64 L309.09 384.746 L241.717 415.852 L174.345 446.958  Z" fill="#00467f" fill-rule="evenodd" fill-opacity="0.2"/>
<polyline clip-path="url(#clip052)" style="stroke:#00467f; stroke-linecap:round; stroke-linejoin:round; stroke-width:4; stroke-opacity:0; fill:none" points="174.345,452.143 241.717,423.629 309.09,392.523 376.462,361.416 443.835,340.679 511.207,370.782 578.58,361.609 645.952,357.202 713.325,388.481 780.697,442.612 848.07,476.526 915.442,483.249 "/>
<polyline clip-path="url(#clip052)" style="stroke:#00467f; stroke-linecap:round; stroke-linejoin:round; stroke-width:4; stroke-opacity:1; fill:none" points="174.345,452.143 241.717,421.037 309.09,395.115 376.462,358.824 443.835,338.087 511.207,317.349 578.58,396.994 645.952,446.52 713.325,458.973 780.697,460.621 848.07,478.079 915.442,483.249 "/>
<path clip-path="url(#clip050)" d="M1167.19 493.904 L1952.76 493.904 L1952.76 117.424 L1167.19 117.424  Z" fill="#ffffff" fill-rule="evenodd" fill-opacity="1"/>
<defs>
  <clipPath id="clip053">
    <rect x="1167" y="117" width="787" height="377"/>
  </clipPath>
</defs>
<polyline clip-path="url(#clip053)" style="stroke:#000000; stroke-linecap:round; stroke-linejoin:round; stroke-width:2; stroke-opacity:0.1; fill:none" points="1290.48,493.904 1290.48,117.424 "/>
<polyline clip-path="url(#clip053)" style="stroke:#000000; stroke-linecap:round; stroke-linejoin:round; stroke-width:2; stroke-opacity:0.1; fill:none" points="1458.92,493.904 1458.92,117.424 "/>
<polyline clip-path="url(#clip053)" style="stroke:#000000; stroke-linecap:round; stroke-linejoin:round; stroke-width:2; stroke-opacity:0.1; fill:none" points="1627.35,493.904 1627.35,117.424 "/>
<polyline clip-path="url(#clip053)" style="stroke:#000000; stroke-linecap:round; stroke-linejoin:round; stroke-width:2; stroke-opacity:0.1; fill:none" points="1795.78,493.904 1795.78,117.424 "/>
<polyline clip-path="url(#clip050)" style="stroke:#000000; stroke-linecap:round; stroke-linejoin:round; stroke-width:4; stroke-opacity:1; fill:none" points="1167.19,493.904 1952.76,493.904 "/>
<polyline clip-path="url(#clip050)" style="stroke:#000000; stroke-linecap:round; stroke-linejoin:round; stroke-width:4; stroke-opacity:1; fill:none" points="1290.48,493.904 1290.48,475.006 "/>
<polyline clip-path="url(#clip050)" style="stroke:#000000; stroke-linecap:round; stroke-linejoin:round; stroke-width:4; stroke-opacity:1; fill:none" points="1458.92,493.904 1458.92,475.006 "/>
<polyline clip-path="url(#clip050)" style="stroke:#000000; stroke-linecap:round; stroke-linejoin:round; stroke-width:4; stroke-opacity:1; fill:none" points="1627.35,493.904 1627.35,475.006 "/>
<polyline clip-path="url(#clip050)" style="stroke:#000000; stroke-linecap:round; stroke-linejoin:round; stroke-width:4; stroke-opacity:1; fill:none" points="1795.78,493.904 1795.78,475.006 "/>
<path clip-path="url(#clip050)" d="M1262.22 549.169 L1278.54 549.169 L1278.54 553.104 L1256.6 553.104 L1256.6 549.169 Q1259.26 546.414 1263.84 541.784 Q1268.45 537.132 1269.63 535.789 Q1271.87 533.266 1272.75 531.53 Q1273.66 529.771 1273.66 528.081 Q1273.66 525.326 1271.71 523.59 Q1269.79 521.854 1266.69 521.854 Q1264.49 521.854 1262.04 522.618 Q1259.61 523.382 1256.83 524.933 L1256.83 520.211 Q1259.65 519.076 1262.11 518.498 Q1264.56 517.919 1266.6 517.919 Q1271.97 517.919 1275.16 520.604 Q1278.36 523.289 1278.36 527.78 Q1278.36 529.91 1277.54 531.831 Q1276.76 533.729 1274.65 536.322 Q1274.07 536.993 1270.97 540.21 Q1267.87 543.405 1262.22 549.169 Z" fill="#000000" fill-rule="nonzero" fill-opacity="1" /><path clip-path="url(#clip050)" d="M1288.36 547.224 L1293.24 547.224 L1293.24 553.104 L1288.36 553.104 L1288.36 547.224 Z" fill="#000000" fill-rule="nonzero" fill-opacity="1" /><path clip-path="url(#clip050)" d="M1303.47 518.544 L1321.83 518.544 L1321.83 522.479 L1307.75 522.479 L1307.75 530.951 Q1308.77 530.604 1309.79 530.442 Q1310.81 530.257 1311.83 530.257 Q1317.61 530.257 1320.99 533.428 Q1324.37 536.599 1324.37 542.016 Q1324.37 547.595 1320.9 550.696 Q1317.43 553.775 1311.11 553.775 Q1308.93 553.775 1306.67 553.405 Q1304.42 553.034 1302.01 552.294 L1302.01 547.595 Q1304.1 548.729 1306.32 549.284 Q1308.54 549.84 1311.02 549.84 Q1315.02 549.84 1317.36 547.734 Q1319.7 545.627 1319.7 542.016 Q1319.7 538.405 1317.36 536.298 Q1315.02 534.192 1311.02 534.192 Q1309.14 534.192 1307.27 534.609 Q1305.42 535.025 1303.47 535.905 L1303.47 518.544 Z" fill="#000000" fill-rule="nonzero" fill-opacity="1" /><path clip-path="url(#clip050)" d="M1426.08 518.544 L1444.44 518.544 L1444.44 522.479 L1430.36 522.479 L1430.36 530.951 Q1431.38 530.604 1432.4 530.442 Q1433.42 530.257 1434.44 530.257 Q1440.22 530.257 1443.6 533.428 Q1446.98 536.599 1446.98 542.016 Q1446.98 547.595 1443.51 550.696 Q1440.04 553.775 1433.72 553.775 Q1431.54 553.775 1429.27 553.405 Q1427.03 553.034 1424.62 552.294 L1424.62 547.595 Q1426.71 548.729 1428.93 549.284 Q1431.15 549.84 1433.63 549.84 Q1437.63 549.84 1439.97 547.734 Q1442.31 545.627 1442.31 542.016 Q1442.31 538.405 1439.97 536.298 Q1437.63 534.192 1433.63 534.192 Q1431.75 534.192 1429.88 534.609 Q1428.02 535.025 1426.08 535.905 L1426.08 518.544 Z" fill="#000000" fill-rule="nonzero" fill-opacity="1" /><path clip-path="url(#clip050)" d="M1456.2 547.224 L1461.08 547.224 L1461.08 553.104 L1456.2 553.104 L1456.2 547.224 Z" fill="#000000" fill-rule="nonzero" fill-opacity="1" /><path clip-path="url(#clip050)" d="M1481.27 521.623 Q1477.65 521.623 1475.83 525.187 Q1474.02 528.729 1474.02 535.859 Q1474.02 542.965 1475.83 546.53 Q1477.65 550.071 1481.27 550.071 Q1484.9 550.071 1486.71 546.53 Q1488.53 542.965 1488.53 535.859 Q1488.53 528.729 1486.71 525.187 Q1484.9 521.623 1481.27 521.623 M1481.27 517.919 Q1487.08 517.919 1490.13 522.525 Q1493.21 527.109 1493.21 535.859 Q1493.21 544.585 1490.13 549.192 Q1487.08 553.775 1481.27 553.775 Q1475.46 553.775 1472.38 549.192 Q1469.32 544.585 1469.32 535.859 Q1469.32 527.109 1472.38 522.525 Q1475.46 517.919 1481.27 517.919 Z" fill="#000000" fill-rule="nonzero" fill-opacity="1" /><path clip-path="url(#clip050)" d="M1593.67 518.544 L1615.89 518.544 L1615.89 520.535 L1603.34 553.104 L1598.46 553.104 L1610.26 522.479 L1593.67 522.479 L1593.67 518.544 Z" fill="#000000" fill-rule="nonzero" fill-opacity="1" /><path clip-path="url(#clip050)" d="M1625.01 547.224 L1629.89 547.224 L1629.89 553.104 L1625.01 553.104 L1625.01 547.224 Z" fill="#000000" fill-rule="nonzero" fill-opacity="1" /><path clip-path="url(#clip050)" d="M1640.12 518.544 L1658.48 518.544 L1658.48 522.479 L1644.41 522.479 L1644.41 530.951 Q1645.43 530.604 1646.44 530.442 Q1647.46 530.257 1648.48 530.257 Q1654.27 530.257 1657.65 533.428 Q1661.03 536.599 1661.03 542.016 Q1661.03 547.595 1657.56 550.696 Q1654.08 553.775 1647.76 553.775 Q1645.59 553.775 1643.32 553.405 Q1641.07 553.034 1638.67 552.294 L1638.67 547.595 Q1640.75 548.729 1642.97 549.284 Q1645.19 549.84 1647.67 549.84 Q1651.68 549.84 1654.01 547.734 Q1656.35 545.627 1656.35 542.016 Q1656.35 538.405 1654.01 536.298 Q1651.68 534.192 1647.67 534.192 Q1645.8 534.192 1643.92 534.609 Q1642.07 535.025 1640.12 535.905 L1640.12 518.544 Z" fill="#000000" fill-rule="nonzero" fill-opacity="1" /><path clip-path="url(#clip050)" d="M1747.85 549.169 L1755.49 549.169 L1755.49 522.803 L1747.18 524.47 L1747.18 520.211 L1755.44 518.544 L1760.12 518.544 L1760.12 549.169 L1767.76 549.169 L1767.76 553.104 L1747.85 553.104 L1747.85 549.169 Z" fill="#000000" fill-rule="nonzero" fill-opacity="1" /><path clip-path="url(#clip050)" d="M1787.2 521.623 Q1783.59 521.623 1781.76 525.187 Q1779.96 528.729 1779.96 535.859 Q1779.96 542.965 1781.76 546.53 Q1783.59 550.071 1787.2 550.071 Q1790.84 550.071 1792.64 546.53 Q1794.47 542.965 1794.47 535.859 Q1794.47 528.729 1792.64 525.187 Q1790.84 521.623 1787.2 521.623 M1787.2 517.919 Q1793.01 517.919 1796.07 522.525 Q1799.15 527.109 1799.15 535.859 Q1799.15 544.585 1796.07 549.192 Q1793.01 553.775 1787.2 553.775 Q1781.39 553.775 1778.31 549.192 Q1775.26 544.585 1775.26 535.859 Q1775.26 527.109 1778.31 522.525 Q1781.39 517.919 1787.2 517.919 Z" fill="#000000" fill-rule="nonzero" fill-opacity="1" /><path clip-path="url(#clip050)" d="M1807.36 547.224 L1812.25 547.224 L1812.25 553.104 L1807.36 553.104 L1807.36 547.224 Z" fill="#000000" fill-rule="nonzero" fill-opacity="1" /><path clip-path="url(#clip050)" d="M1832.43 521.623 Q1828.82 521.623 1826.99 525.187 Q1825.19 528.729 1825.19 535.859 Q1825.19 542.965 1826.99 546.53 Q1828.82 550.071 1832.43 550.071 Q1836.07 550.071 1837.87 546.53 Q1839.7 542.965 1839.7 535.859 Q1839.7 528.729 1837.87 525.187 Q1836.07 521.623 1832.43 521.623 M1832.43 517.919 Q1838.24 517.919 1841.3 522.525 Q1844.38 527.109 1844.38 535.859 Q1844.38 544.585 1841.3 549.192 Q1838.24 553.775 1832.43 553.775 Q1826.62 553.775 1823.54 549.192 Q1820.49 544.585 1820.49 535.859 Q1820.49 527.109 1823.54 522.525 Q1826.62 517.919 1832.43 517.919 Z" fill="#000000" fill-rule="nonzero" fill-opacity="1" /><polyline clip-path="url(#clip053)" style="stroke:#000000; stroke-linecap:round; stroke-linejoin:round; stroke-width:2; stroke-opacity:0.1; fill:none" points="1167.19,483.249 1952.76,483.249 "/>
<polyline clip-path="url(#clip053)" style="stroke:#000000; stroke-linecap:round; stroke-linejoin:round; stroke-width:2; stroke-opacity:0.1; fill:none" points="1167.19,386.218 1952.76,386.218 "/>
<polyline clip-path="url(#clip053)" style="stroke:#000000; stroke-linecap:round; stroke-linejoin:round; stroke-width:2; stroke-opacity:0.1; fill:none" points="1167.19,289.188 1952.76,289.188 "/>
<polyline clip-path="url(#clip053)" style="stroke:#000000; stroke-linecap:round; stroke-linejoin:round; stroke-width:2; stroke-opacity:0.1; fill:none" points="1167.19,192.157 1952.76,192.157 "/>
<polyline clip-path="url(#clip050)" style="stroke:#000000; stroke-linecap:round; stroke-linejoin:round; stroke-width:4; stroke-opacity:1; fill:none" points="1167.19,493.904 1167.19,117.424 "/>
<polyline clip-path="url(#clip050)" style="stroke:#000000; stroke-linecap:round; stroke-linejoin:round; stroke-width:4; stroke-opacity:1; fill:none" points="1167.19,483.249 1186.09,483.249 "/>
<polyline clip-path="url(#clip050)" style="stroke:#000000; stroke-linecap:round; stroke-linejoin:round; stroke-width:4; stroke-opacity:1; fill:none" points="1167.19,386.218 1186.09,386.218 "/>
<polyline clip-path="url(#clip050)" style="stroke:#000000; stroke-linecap:round; stroke-linejoin:round; stroke-width:4; stroke-opacity:1; fill:none" points="1167.19,289.188 1186.09,289.188 "/>
<polyline clip-path="url(#clip050)" style="stroke:#000000; stroke-linecap:round; stroke-linejoin:round; stroke-width:4; stroke-opacity:1; fill:none" points="1167.19,192.157 1186.09,192.157 "/>
<path clip-path="url(#clip050)" d="M1080.02 469.047 Q1076.41 469.047 1074.58 472.612 Q1072.77 476.154 1072.77 483.283 Q1072.77 490.39 1074.58 493.955 Q1076.41 497.496 1080.02 497.496 Q1083.65 497.496 1085.46 493.955 Q1087.29 490.39 1087.29 483.283 Q1087.29 476.154 1085.46 472.612 Q1083.65 469.047 1080.02 469.047 M1080.02 465.344 Q1085.83 465.344 1088.88 469.95 Q1091.96 474.534 1091.96 483.283 Q1091.96 492.01 1088.88 496.617 Q1085.83 501.2 1080.02 501.2 Q1074.21 501.2 1071.13 496.617 Q1068.07 492.01 1068.07 483.283 Q1068.07 474.534 1071.13 469.95 Q1074.21 465.344 1080.02 465.344 Z" fill="#000000" fill-rule="nonzero" fill-opacity="1" /><path clip-path="url(#clip050)" d="M1100.18 494.649 L1105.06 494.649 L1105.06 500.529 L1100.18 500.529 L1100.18 494.649 Z" fill="#000000" fill-rule="nonzero" fill-opacity="1" /><path clip-path="url(#clip050)" d="M1125.25 469.047 Q1121.64 469.047 1119.81 472.612 Q1118 476.154 1118 483.283 Q1118 490.39 1119.81 493.955 Q1121.64 497.496 1125.25 497.496 Q1128.88 497.496 1130.69 493.955 Q1132.52 490.39 1132.52 483.283 Q1132.52 476.154 1130.69 472.612 Q1128.88 469.047 1125.25 469.047 M1125.25 465.344 Q1131.06 465.344 1134.11 469.95 Q1137.19 474.534 1137.19 483.283 Q1137.19 492.01 1134.11 496.617 Q1131.06 501.2 1125.25 501.2 Q1119.44 501.2 1116.36 496.617 Q1113.3 492.01 1113.3 483.283 Q1113.3 474.534 1116.36 469.95 Q1119.44 465.344 1125.25 465.344 Z" fill="#000000" fill-rule="nonzero" fill-opacity="1" /><path clip-path="url(#clip050)" d="M1081.01 372.017 Q1077.4 372.017 1075.57 375.582 Q1073.77 379.123 1073.77 386.253 Q1073.77 393.359 1075.57 396.924 Q1077.4 400.466 1081.01 400.466 Q1084.65 400.466 1086.45 396.924 Q1088.28 393.359 1088.28 386.253 Q1088.28 379.123 1086.45 375.582 Q1084.65 372.017 1081.01 372.017 M1081.01 368.313 Q1086.82 368.313 1089.88 372.92 Q1092.96 377.503 1092.96 386.253 Q1092.96 394.98 1089.88 399.586 Q1086.82 404.169 1081.01 404.169 Q1075.2 404.169 1072.12 399.586 Q1069.07 394.98 1069.07 386.253 Q1069.07 377.503 1072.12 372.92 Q1075.2 368.313 1081.01 368.313 Z" fill="#000000" fill-rule="nonzero" fill-opacity="1" /><path clip-path="url(#clip050)" d="M1101.17 397.619 L1106.06 397.619 L1106.06 403.498 L1101.17 403.498 L1101.17 397.619 Z" fill="#000000" fill-rule="nonzero" fill-opacity="1" /><path clip-path="url(#clip050)" d="M1116.29 368.938 L1134.65 368.938 L1134.65 372.873 L1120.57 372.873 L1120.57 381.346 Q1121.59 380.998 1122.61 380.836 Q1123.63 380.651 1124.65 380.651 Q1130.43 380.651 1133.81 383.822 Q1137.19 386.994 1137.19 392.41 Q1137.19 397.989 1133.72 401.091 Q1130.25 404.169 1123.93 404.169 Q1121.75 404.169 1119.48 403.799 Q1117.24 403.429 1114.83 402.688 L1114.83 397.989 Q1116.92 399.123 1119.14 399.679 Q1121.36 400.234 1123.84 400.234 Q1127.84 400.234 1130.18 398.128 Q1132.52 396.021 1132.52 392.41 Q1132.52 388.799 1130.18 386.693 Q1127.84 384.586 1123.84 384.586 Q1121.96 384.586 1120.09 385.003 Q1118.23 385.42 1116.29 386.299 L1116.29 368.938 Z" fill="#000000" fill-rule="nonzero" fill-opacity="1" /><path clip-path="url(#clip050)" d="M1070.83 302.532 L1078.47 302.532 L1078.47 276.167 L1070.16 277.834 L1070.16 273.574 L1078.42 271.908 L1083.1 271.908 L1083.1 302.532 L1090.73 302.532 L1090.73 306.468 L1070.83 306.468 L1070.83 302.532 Z" fill="#000000" fill-rule="nonzero" fill-opacity="1" /><path clip-path="url(#clip050)" d="M1100.18 300.588 L1105.06 300.588 L1105.06 306.468 L1100.18 306.468 L1100.18 300.588 Z" fill="#000000" fill-rule="nonzero" fill-opacity="1" /><path clip-path="url(#clip050)" d="M1125.25 274.986 Q1121.64 274.986 1119.81 278.551 Q1118 282.093 1118 289.222 Q1118 296.329 1119.81 299.894 Q1121.64 303.435 1125.25 303.435 Q1128.88 303.435 1130.69 299.894 Q1132.52 296.329 1132.52 289.222 Q1132.52 282.093 1130.69 278.551 Q1128.88 274.986 1125.25 274.986 M1125.25 271.283 Q1131.06 271.283 1134.11 275.889 Q1137.19 280.472 1137.19 289.222 Q1137.19 297.949 1134.11 302.556 Q1131.06 307.139 1125.25 307.139 Q1119.44 307.139 1116.36 302.556 Q1113.3 297.949 1113.3 289.222 Q1113.3 280.472 1116.36 275.889 Q1119.44 271.283 1125.25 271.283 Z" fill="#000000" fill-rule="nonzero" fill-opacity="1" /><path clip-path="url(#clip050)" d="M1071.82 205.502 L1079.46 205.502 L1079.46 179.136 L1071.15 180.803 L1071.15 176.544 L1079.42 174.877 L1084.09 174.877 L1084.09 205.502 L1091.73 205.502 L1091.73 209.437 L1071.82 209.437 L1071.82 205.502 Z" fill="#000000" fill-rule="nonzero" fill-opacity="1" /><path clip-path="url(#clip050)" d="M1101.17 203.557 L1106.06 203.557 L1106.06 209.437 L1101.17 209.437 L1101.17 203.557 Z" fill="#000000" fill-rule="nonzero" fill-opacity="1" /><path clip-path="url(#clip050)" d="M1116.29 174.877 L1134.65 174.877 L1134.65 178.812 L1120.57 178.812 L1120.57 187.284 Q1121.59 186.937 1122.61 186.775 Q1123.63 186.59 1124.65 186.59 Q1130.43 186.59 1133.81 189.761 Q1137.19 192.933 1137.19 198.349 Q1137.19 203.928 1133.72 207.03 Q1130.25 210.108 1123.93 210.108 Q1121.75 210.108 1119.48 209.738 Q1117.24 209.368 1114.83 208.627 L1114.83 203.928 Q1116.92 205.062 1119.14 205.618 Q1121.36 206.173 1123.84 206.173 Q1127.84 206.173 1130.18 204.067 Q1132.52 201.96 1132.52 198.349 Q1132.52 194.738 1130.18 192.632 Q1127.84 190.525 1123.84 190.525 Q1121.96 190.525 1120.09 190.942 Q1118.23 191.358 1116.29 192.238 L1116.29 174.877 Z" fill="#000000" fill-rule="nonzero" fill-opacity="1" /><path clip-path="url(#clip050)" d="M1270.4 54.671 L1270.4 27.2059 L1277.85 27.2059 L1277.85 54.3874 Q1277.85 60.8284 1280.36 64.0691 Q1282.87 67.2693 1287.9 67.2693 Q1293.93 67.2693 1297.42 63.421 Q1300.94 59.5726 1300.94 52.9291 L1300.94 27.2059 L1308.39 27.2059 L1308.39 72.576 L1300.94 72.576 L1300.94 65.6084 Q1298.23 69.7404 1294.62 71.7658 Q1291.06 73.7508 1286.32 73.7508 Q1278.5 73.7508 1274.45 68.8897 Q1270.4 64.0286 1270.4 54.671 M1289.15 26.1121 L1289.15 26.1121 Z" fill="#000000" fill-rule="nonzero" fill-opacity="1" /><path clip-path="url(#clip050)" d="M1358.22 86.3491 L1358.22 92.1419 L1315.12 92.1419 L1315.12 86.3491 L1358.22 86.3491 Z" fill="#000000" fill-rule="nonzero" fill-opacity="1" /><path clip-path="url(#clip050)" d="M1388.2 9.54393 L1388.2 15.7418 L1381.07 15.7418 Q1377.06 15.7418 1375.48 17.3622 Q1373.94 18.9825 1373.94 23.1955 L1373.94 27.2059 L1386.21 27.2059 L1386.21 32.9987 L1373.94 32.9987 L1373.94 72.576 L1366.44 72.576 L1366.44 32.9987 L1359.31 32.9987 L1359.31 27.2059 L1366.44 27.2059 L1366.44 24.0462 Q1366.44 16.471 1369.97 13.0277 Q1373.49 9.54393 1381.15 9.54393 L1388.2 9.54393 Z" fill="#000000" fill-rule="nonzero" fill-opacity="1" /><path clip-path="url(#clip050)" d="M1412.02 32.4315 Q1406.02 32.4315 1402.54 37.1306 Q1399.05 41.7891 1399.05 49.9314 Q1399.05 58.0738 1402.5 62.7728 Q1405.98 67.4314 1412.02 67.4314 Q1417.97 67.4314 1421.45 62.7323 Q1424.94 58.0333 1424.94 49.9314 Q1424.94 41.8701 1421.45 37.1711 Q1417.97 32.4315 1412.02 32.4315 M1412.02 26.1121 Q1421.74 26.1121 1427.29 32.4315 Q1432.84 38.7509 1432.84 49.9314 Q1432.84 61.0714 1427.29 67.4314 Q1421.74 73.7508 1412.02 73.7508 Q1402.25 73.7508 1396.7 67.4314 Q1391.19 61.0714 1391.19 49.9314 Q1391.19 38.7509 1396.7 32.4315 Q1402.25 26.1121 1412.02 26.1121 Z" fill="#000000" fill-rule="nonzero" fill-opacity="1" /><path clip-path="url(#clip050)" d="M1471.48 34.1734 Q1470.23 33.4443 1468.73 33.1202 Q1467.27 32.7556 1465.49 32.7556 Q1459.17 32.7556 1455.76 36.8875 Q1452.4 40.9789 1452.4 48.6757 L1452.4 72.576 L1444.91 72.576 L1444.91 27.2059 L1452.4 27.2059 L1452.4 34.2544 Q1454.75 30.1225 1458.52 28.1376 Q1462.29 26.1121 1467.67 26.1121 Q1468.44 26.1121 1469.38 26.2337 Q1470.31 26.3147 1471.44 26.5172 L1471.48 34.1734 Z" fill="#000000" fill-rule="nonzero" fill-opacity="1" /><path clip-path="url(#clip050)" d="M1474.97 27.2059 L1482.42 27.2059 L1491.74 62.6108 L1501.01 27.2059 L1509.8 27.2059 L1519.12 62.6108 L1528.4 27.2059 L1535.85 27.2059 L1523.98 72.576 L1515.19 72.576 L1505.43 35.3887 L1495.63 72.576 L1486.84 72.576 L1474.97 27.2059 Z" fill="#000000" fill-rule="nonzero" fill-opacity="1" /><path clip-path="url(#clip050)" d="M1567.77 49.7694 Q1558.74 49.7694 1555.26 51.8354 Q1551.77 53.9013 1551.77 58.8839 Q1551.77 62.8538 1554.36 65.2034 Q1557 67.5124 1561.49 67.5124 Q1567.69 67.5124 1571.42 63.1374 Q1575.19 58.7219 1575.19 51.4303 L1575.19 49.7694 L1567.77 49.7694 M1582.64 46.6907 L1582.64 72.576 L1575.19 72.576 L1575.19 65.6895 Q1572.63 69.8214 1568.83 71.8063 Q1565.02 73.7508 1559.51 73.7508 Q1552.54 73.7508 1548.41 69.8619 Q1544.32 65.9325 1544.32 59.3701 Q1544.32 51.7138 1549.42 47.825 Q1554.57 43.9361 1564.73 43.9361 L1575.19 43.9361 L1575.19 43.2069 Q1575.19 38.0623 1571.78 35.2672 Q1568.42 32.4315 1562.3 32.4315 Q1558.41 32.4315 1554.73 33.3632 Q1551.04 34.295 1547.64 36.1584 L1547.64 29.2718 Q1551.73 27.692 1555.58 26.9223 Q1559.43 26.1121 1563.07 26.1121 Q1572.92 26.1121 1577.78 31.2163 Q1582.64 36.3204 1582.64 46.6907 Z" fill="#000000" fill-rule="nonzero" fill-opacity="1" /><path clip-path="url(#clip050)" d="M1624.28 34.1734 Q1623.03 33.4443 1621.53 33.1202 Q1620.07 32.7556 1618.29 32.7556 Q1611.97 32.7556 1608.57 36.8875 Q1605.2 40.9789 1605.2 48.6757 L1605.2 72.576 L1597.71 72.576 L1597.71 27.2059 L1605.2 27.2059 L1605.2 34.2544 Q1607.55 30.1225 1611.32 28.1376 Q1615.09 26.1121 1620.47 26.1121 Q1621.24 26.1121 1622.18 26.2337 Q1623.11 26.3147 1624.24 26.5172 L1624.28 34.1734 Z" fill="#000000" fill-rule="nonzero" fill-opacity="1" /><path clip-path="url(#clip050)" d="M1660.5 34.0924 L1660.5 9.54393 L1667.95 9.54393 L1667.95 72.576 L1660.5 72.576 L1660.5 65.7705 Q1658.15 69.8214 1654.54 71.8063 Q1650.98 73.7508 1645.95 73.7508 Q1637.73 73.7508 1632.55 67.1883 Q1627.4 60.6258 1627.4 49.9314 Q1627.4 39.2371 1632.55 32.6746 Q1637.73 26.1121 1645.95 26.1121 Q1650.98 26.1121 1654.54 28.0971 Q1658.15 30.0415 1660.5 34.0924 M1635.1 49.9314 Q1635.1 58.1548 1638.46 62.8538 Q1641.86 67.5124 1647.78 67.5124 Q1653.69 67.5124 1657.09 62.8538 Q1660.5 58.1548 1660.5 49.9314 Q1660.5 41.7081 1657.09 37.0496 Q1653.69 32.3505 1647.78 32.3505 Q1641.86 32.3505 1638.46 37.0496 Q1635.1 41.7081 1635.1 49.9314 Z" fill="#000000" fill-rule="nonzero" fill-opacity="1" /><path clip-path="url(#clip050)" d="M1717.78 86.3491 L1717.78 92.1419 L1674.68 92.1419 L1674.68 86.3491 L1717.78 86.3491 Z" fill="#000000" fill-rule="nonzero" fill-opacity="1" /><path clip-path="url(#clip050)" d="M1753.71 28.5427 L1753.71 35.5912 Q1750.55 33.9709 1747.15 33.1607 Q1743.74 32.3505 1740.1 32.3505 Q1734.55 32.3505 1731.75 34.0519 Q1729 35.7533 1729 39.156 Q1729 41.7486 1730.98 43.2475 Q1732.97 44.7058 1738.96 46.0426 L1741.52 46.6097 Q1749.46 48.3111 1752.78 51.4303 Q1756.14 54.509 1756.14 60.0587 Q1756.14 66.3781 1751.12 70.0644 Q1746.13 73.7508 1737.38 73.7508 Q1733.74 73.7508 1729.77 73.0216 Q1725.84 72.3329 1721.46 70.9151 L1721.46 63.2184 Q1725.6 65.3654 1729.61 66.4591 Q1733.62 67.5124 1737.55 67.5124 Q1742.81 67.5124 1745.65 65.73 Q1748.48 63.9071 1748.48 60.6258 Q1748.48 57.5877 1746.42 55.9673 Q1744.39 54.3469 1737.46 52.8481 L1734.87 52.2405 Q1727.95 50.7821 1724.87 47.7845 Q1721.79 44.7463 1721.79 39.4801 Q1721.79 33.0797 1726.32 29.5959 Q1730.86 26.1121 1739.21 26.1121 Q1743.34 26.1121 1746.98 26.7198 Q1750.63 27.3274 1753.71 28.5427 Z" fill="#000000" fill-rule="nonzero" fill-opacity="1" /><path clip-path="url(#clip050)" d="M1806.82 48.0275 L1806.82 51.6733 L1772.55 51.6733 Q1773.03 59.3701 1777.16 63.421 Q1781.34 67.4314 1788.75 67.4314 Q1793.04 67.4314 1797.05 66.3781 Q1801.1 65.3249 1805.07 63.2184 L1805.07 70.267 Q1801.06 71.9684 1796.85 72.8596 Q1792.64 73.7508 1788.3 73.7508 Q1777.45 73.7508 1771.09 67.4314 Q1764.77 61.1119 1764.77 50.3365 Q1764.77 39.1965 1770.76 32.6746 Q1776.8 26.1121 1787.01 26.1121 Q1796.16 26.1121 1801.47 32.0264 Q1806.82 37.9003 1806.82 48.0275 M1799.36 45.84 Q1799.28 39.7232 1795.92 36.0774 Q1792.6 32.4315 1787.09 32.4315 Q1780.85 32.4315 1777.08 35.9558 Q1773.36 39.4801 1772.79 45.8805 L1799.36 45.84 Z" fill="#000000" fill-rule="nonzero" fill-opacity="1" /><path clip-path="url(#clip050)" d="M1819.05 9.54393 L1826.5 9.54393 L1826.5 72.576 L1819.05 72.576 L1819.05 9.54393 Z" fill="#000000" fill-rule="nonzero" fill-opacity="1" /><path clip-path="url(#clip050)" d="M1842.1 9.54393 L1849.55 9.54393 L1849.55 72.576 L1842.1 72.576 L1842.1 9.54393 Z" fill="#000000" fill-rule="nonzero" fill-opacity="1" /><path clip-path="url(#clip053)" d="M1189.43 483.249 L1256.8 483.249 L1324.17 483.249 L1391.54 483.249 L1458.92 483.249 L1526.29 483.249 L1593.66 483.249 L1661.03 463.718 L1728.41 483.249 L1795.78 483.249 L1863.15 483.249 L1930.52 483.249 L1930.52 483.249 L1863.15 483.249 L1795.78 483.249 L1728.41 483.249 L1661.03 389.448 L1593.66 128.079 L1526.29 174.848 L1458.92 211.178 L1391.54 261.376 L1324.17 294.982 L1256.8 307.927 L1189.43 354.333  Z" fill="#00467f" fill-rule="evenodd" fill-opacity="0.2"/>
<polyline clip-path="url(#clip053)" style="stroke:#00467f; stroke-linecap:round; stroke-linejoin:round; stroke-width:4; stroke-opacity:0; fill:none" points="1189.43,418.791 1256.8,395.588 1324.17,389.116 1391.54,372.313 1458.92,347.213 1526.29,329.048 1593.66,305.664 1661.03,426.583 1728.41,483.249 1795.78,483.249 1863.15,483.249 1930.52,483.249 "/>
<path clip-path="url(#clip053)" d="M1189.43 483.249 L1256.8 483.249 L1324.17 483.249 L1391.54 483.249 L1458.92 483.249 L1526.29 483.249 L1593.66 478.497 L1661.03 459.706 L1728.41 483.249 L1795.78 483.249 L1863.15 483.249 L1930.52 483.249 L1930.52 483.249 L1863.15 483.249 L1795.78 483.249 L1728.41 483.249 L1661.03 438.693 L1593.66 171.252 L1526.29 422.108 L1458.92 386.202 L1391.54 285.731 L1324.17 316.288 L1256.8 337.01 L1189.43 367.535  Z" fill="#00467f" fill-rule="evenodd" fill-opacity="0.2"/>
<polyline clip-path="url(#clip053)" style="stroke:#00467f; stroke-linecap:round; stroke-linejoin:round; stroke-width:4; stroke-opacity:0; fill:none" points="1189.43,425.392 1256.8,410.129 1324.17,399.769 1391.54,384.49 1458.92,434.725 1526.29,452.679 1593.66,324.875 1661.03,449.199 1728.41,483.249 1795.78,483.249 1863.15,483.249 1930.52,483.249 "/>
<path clip-path="url(#clip053)" d="M1189.43 483.249 L1256.8 483.249 L1324.17 483.249 L1391.54 483.249 L1458.92 483.249 L1526.29 483.249 L1593.66 460.294 L1661.03 459.583 L1728.41 483.249 L1795.78 483.249 L1863.15 483.249 L1930.52 483.249 L1930.52 483.249 L1863.15 483.249 L1795.78 483.249 L1728.41 483.249 L1661.03 449.741 L1593.66 393.52 L1526.29 446.853 L1458.92 445.912 L1391.54 436.425 L1324.17 445.733 L1256.8 451.979 L1189.43 483.249  Z" fill="#00467f" fill-rule="evenodd" fill-opacity="0.2"/>
<polyline clip-path="url(#clip053)" style="stroke:#00467f; stroke-linecap:round; stroke-linejoin:round; stroke-width:4; stroke-opacity:0; fill:none" points="1189.43,483.249 1256.8,467.614 1324.17,464.491 1391.54,459.837 1458.92,464.581 1526.29,465.051 1593.66,426.907 1661.03,454.662 1728.41,483.249 1795.78,483.249 1863.15,483.249 1930.52,483.249 "/>
<polyline clip-path="url(#clip053)" style="stroke:#00467f; stroke-linecap:round; stroke-linejoin:round; stroke-width:4; stroke-opacity:1; fill:none" points="1189.43,483.249 1256.8,483.249 1324.17,483.249 1391.54,455.781 1458.92,458.932 1526.29,460.901 1593.66,444.769 1661.03,459.475 1728.41,483.249 1795.78,483.249 1863.15,483.249 1930.52,483.249 "/>
<path clip-path="url(#clip050)" d="M152.112 1093.9 L937.675 1093.9 L937.675 717.424 L152.112 717.424  Z" fill="#ffffff" fill-rule="evenodd" fill-opacity="1"/>
<defs>
  <clipPath id="clip054">
    <rect x="152" y="717" width="787" height="377"/>
  </clipPath>
</defs>
<polyline clip-path="url(#clip054)" style="stroke:#000000; stroke-linecap:round; stroke-linejoin:round; stroke-width:2; stroke-opacity:0.1; fill:none" points="275.404,1093.9 275.404,717.424 "/>
<polyline clip-path="url(#clip054)" style="stroke:#000000; stroke-linecap:round; stroke-linejoin:round; stroke-width:2; stroke-opacity:0.1; fill:none" points="443.835,1093.9 443.835,717.424 "/>
<polyline clip-path="url(#clip054)" style="stroke:#000000; stroke-linecap:round; stroke-linejoin:round; stroke-width:2; stroke-opacity:0.1; fill:none" points="612.266,1093.9 612.266,717.424 "/>
<polyline clip-path="url(#clip054)" style="stroke:#000000; stroke-linecap:round; stroke-linejoin:round; stroke-width:2; stroke-opacity:0.1; fill:none" points="780.697,1093.9 780.697,717.424 "/>
<polyline clip-path="url(#clip050)" style="stroke:#000000; stroke-linecap:round; stroke-linejoin:round; stroke-width:4; stroke-opacity:1; fill:none" points="152.112,1093.9 937.675,1093.9 "/>
<polyline clip-path="url(#clip050)" style="stroke:#000000; stroke-linecap:round; stroke-linejoin:round; stroke-width:4; stroke-opacity:1; fill:none" points="275.404,1093.9 275.404,1075.01 "/>
<polyline clip-path="url(#clip050)" style="stroke:#000000; stroke-linecap:round; stroke-linejoin:round; stroke-width:4; stroke-opacity:1; fill:none" points="443.835,1093.9 443.835,1075.01 "/>
<polyline clip-path="url(#clip050)" style="stroke:#000000; stroke-linecap:round; stroke-linejoin:round; stroke-width:4; stroke-opacity:1; fill:none" points="612.266,1093.9 612.266,1075.01 "/>
<polyline clip-path="url(#clip050)" style="stroke:#000000; stroke-linecap:round; stroke-linejoin:round; stroke-width:4; stroke-opacity:1; fill:none" points="780.697,1093.9 780.697,1075.01 "/>
<path clip-path="url(#clip050)" d="M247.14 1149.17 L263.459 1149.17 L263.459 1153.1 L241.515 1153.1 L241.515 1149.17 Q244.177 1146.41 248.76 1141.78 Q253.367 1137.13 254.547 1135.79 Q256.793 1133.27 257.672 1131.53 Q258.575 1129.77 258.575 1128.08 Q258.575 1125.33 256.631 1123.59 Q254.709 1121.85 251.608 1121.85 Q249.408 1121.85 246.955 1122.62 Q244.524 1123.38 241.746 1124.93 L241.746 1120.21 Q244.571 1119.08 247.024 1118.5 Q249.478 1117.92 251.515 1117.92 Q256.885 1117.92 260.08 1120.6 Q263.274 1123.29 263.274 1127.78 Q263.274 1129.91 262.464 1131.83 Q261.677 1133.73 259.57 1136.32 Q258.992 1136.99 255.89 1140.21 Q252.788 1143.4 247.14 1149.17 Z" fill="#000000" fill-rule="nonzero" fill-opacity="1" /><path clip-path="url(#clip050)" d="M273.274 1147.22 L278.158 1147.22 L278.158 1153.1 L273.274 1153.1 L273.274 1147.22 Z" fill="#000000" fill-rule="nonzero" fill-opacity="1" /><path clip-path="url(#clip050)" d="M288.39 1118.54 L306.746 1118.54 L306.746 1122.48 L292.672 1122.48 L292.672 1130.95 Q293.691 1130.6 294.709 1130.44 Q295.728 1130.26 296.746 1130.26 Q302.533 1130.26 305.913 1133.43 Q309.292 1136.6 309.292 1142.02 Q309.292 1147.59 305.82 1150.7 Q302.348 1153.78 296.029 1153.78 Q293.853 1153.78 291.584 1153.4 Q289.339 1153.03 286.931 1152.29 L286.931 1147.59 Q289.015 1148.73 291.237 1149.28 Q293.459 1149.84 295.936 1149.84 Q299.941 1149.84 302.279 1147.73 Q304.617 1145.63 304.617 1142.02 Q304.617 1138.4 302.279 1136.3 Q299.941 1134.19 295.936 1134.19 Q294.061 1134.19 292.186 1134.61 Q290.334 1135.03 288.39 1135.9 L288.39 1118.54 Z" fill="#000000" fill-rule="nonzero" fill-opacity="1" /><path clip-path="url(#clip050)" d="M410.999 1118.54 L429.356 1118.54 L429.356 1122.48 L415.282 1122.48 L415.282 1130.95 Q416.3 1130.6 417.319 1130.44 Q418.337 1130.26 419.356 1130.26 Q425.143 1130.26 428.522 1133.43 Q431.902 1136.6 431.902 1142.02 Q431.902 1147.59 428.43 1150.7 Q424.958 1153.78 418.638 1153.78 Q416.462 1153.78 414.194 1153.4 Q411.948 1153.03 409.541 1152.29 L409.541 1147.59 Q411.624 1148.73 413.847 1149.28 Q416.069 1149.84 418.546 1149.84 Q422.55 1149.84 424.888 1147.73 Q427.226 1145.63 427.226 1142.02 Q427.226 1138.4 424.888 1136.3 Q422.55 1134.19 418.546 1134.19 Q416.671 1134.19 414.796 1134.61 Q412.944 1135.03 410.999 1135.9 L410.999 1118.54 Z" fill="#000000" fill-rule="nonzero" fill-opacity="1" /><path clip-path="url(#clip050)" d="M441.115 1147.22 L445.999 1147.22 L445.999 1153.1 L441.115 1153.1 L441.115 1147.22 Z" fill="#000000" fill-rule="nonzero" fill-opacity="1" /><path clip-path="url(#clip050)" d="M466.184 1121.62 Q462.573 1121.62 460.744 1125.19 Q458.939 1128.73 458.939 1135.86 Q458.939 1142.97 460.744 1146.53 Q462.573 1150.07 466.184 1150.07 Q469.819 1150.07 471.624 1146.53 Q473.453 1142.97 473.453 1135.86 Q473.453 1128.73 471.624 1125.19 Q469.819 1121.62 466.184 1121.62 M466.184 1117.92 Q471.994 1117.92 475.05 1122.53 Q478.129 1127.11 478.129 1135.86 Q478.129 1144.59 475.05 1149.19 Q471.994 1153.78 466.184 1153.78 Q460.374 1153.78 457.295 1149.19 Q454.24 1144.59 454.24 1135.86 Q454.24 1127.11 457.295 1122.53 Q460.374 1117.92 466.184 1117.92 Z" fill="#000000" fill-rule="nonzero" fill-opacity="1" /><path clip-path="url(#clip050)" d="M578.586 1118.54 L600.808 1118.54 L600.808 1120.53 L588.262 1153.1 L583.377 1153.1 L595.183 1122.48 L578.586 1122.48 L578.586 1118.54 Z" fill="#000000" fill-rule="nonzero" fill-opacity="1" /><path clip-path="url(#clip050)" d="M609.928 1147.22 L614.812 1147.22 L614.812 1153.1 L609.928 1153.1 L609.928 1147.22 Z" fill="#000000" fill-rule="nonzero" fill-opacity="1" /><path clip-path="url(#clip050)" d="M625.044 1118.54 L643.4 1118.54 L643.4 1122.48 L629.326 1122.48 L629.326 1130.95 Q630.345 1130.6 631.363 1130.44 Q632.382 1130.26 633.4 1130.26 Q639.187 1130.26 642.567 1133.43 Q645.946 1136.6 645.946 1142.02 Q645.946 1147.59 642.474 1150.7 Q639.002 1153.78 632.683 1153.78 Q630.507 1153.78 628.238 1153.4 Q625.993 1153.03 623.585 1152.29 L623.585 1147.59 Q625.669 1148.73 627.891 1149.28 Q630.113 1149.84 632.59 1149.84 Q636.595 1149.84 638.933 1147.73 Q641.27 1145.63 641.27 1142.02 Q641.27 1138.4 638.933 1136.3 Q636.595 1134.19 632.59 1134.19 Q630.715 1134.19 628.84 1134.61 Q626.988 1135.03 625.044 1135.9 L625.044 1118.54 Z" fill="#000000" fill-rule="nonzero" fill-opacity="1" /><path clip-path="url(#clip050)" d="M732.769 1149.17 L740.408 1149.17 L740.408 1122.8 L732.098 1124.47 L732.098 1120.21 L740.362 1118.54 L745.038 1118.54 L745.038 1149.17 L752.676 1149.17 L752.676 1153.1 L732.769 1153.1 L732.769 1149.17 Z" fill="#000000" fill-rule="nonzero" fill-opacity="1" /><path clip-path="url(#clip050)" d="M772.121 1121.62 Q768.51 1121.62 766.681 1125.19 Q764.875 1128.73 764.875 1135.86 Q764.875 1142.97 766.681 1146.53 Q768.51 1150.07 772.121 1150.07 Q775.755 1150.07 777.561 1146.53 Q779.389 1142.97 779.389 1135.86 Q779.389 1128.73 777.561 1125.19 Q775.755 1121.62 772.121 1121.62 M772.121 1117.92 Q777.931 1117.92 780.986 1122.53 Q784.065 1127.11 784.065 1135.86 Q784.065 1144.59 780.986 1149.19 Q777.931 1153.78 772.121 1153.78 Q766.311 1153.78 763.232 1149.19 Q760.176 1144.59 760.176 1135.86 Q760.176 1127.11 763.232 1122.53 Q766.311 1117.92 772.121 1117.92 Z" fill="#000000" fill-rule="nonzero" fill-opacity="1" /><path clip-path="url(#clip050)" d="M792.283 1147.22 L797.167 1147.22 L797.167 1153.1 L792.283 1153.1 L792.283 1147.22 Z" fill="#000000" fill-rule="nonzero" fill-opacity="1" /><path clip-path="url(#clip050)" d="M817.352 1121.62 Q813.741 1121.62 811.912 1125.19 Q810.107 1128.73 810.107 1135.86 Q810.107 1142.97 811.912 1146.53 Q813.741 1150.07 817.352 1150.07 Q820.986 1150.07 822.792 1146.53 Q824.621 1142.97 824.621 1135.86 Q824.621 1128.73 822.792 1125.19 Q820.986 1121.62 817.352 1121.62 M817.352 1117.92 Q823.162 1117.92 826.218 1122.53 Q829.296 1127.11 829.296 1135.86 Q829.296 1144.59 826.218 1149.19 Q823.162 1153.78 817.352 1153.78 Q811.542 1153.78 808.463 1149.19 Q805.408 1144.59 805.408 1135.86 Q805.408 1127.11 808.463 1122.53 Q811.542 1117.92 817.352 1117.92 Z" fill="#000000" fill-rule="nonzero" fill-opacity="1" /><polyline clip-path="url(#clip054)" style="stroke:#000000; stroke-linecap:round; stroke-linejoin:round; stroke-width:2; stroke-opacity:0.1; fill:none" points="152.112,1083.25 937.675,1083.25 "/>
<polyline clip-path="url(#clip054)" style="stroke:#000000; stroke-linecap:round; stroke-linejoin:round; stroke-width:2; stroke-opacity:0.1; fill:none" points="152.112,966.848 937.675,966.848 "/>
<polyline clip-path="url(#clip054)" style="stroke:#000000; stroke-linecap:round; stroke-linejoin:round; stroke-width:2; stroke-opacity:0.1; fill:none" points="152.112,850.446 937.675,850.446 "/>
<polyline clip-path="url(#clip054)" style="stroke:#000000; stroke-linecap:round; stroke-linejoin:round; stroke-width:2; stroke-opacity:0.1; fill:none" points="152.112,734.045 937.675,734.045 "/>
<polyline clip-path="url(#clip050)" style="stroke:#000000; stroke-linecap:round; stroke-linejoin:round; stroke-width:4; stroke-opacity:1; fill:none" points="152.112,1093.9 152.112,717.424 "/>
<polyline clip-path="url(#clip050)" style="stroke:#000000; stroke-linecap:round; stroke-linejoin:round; stroke-width:4; stroke-opacity:1; fill:none" points="152.112,1083.25 171.01,1083.25 "/>
<polyline clip-path="url(#clip050)" style="stroke:#000000; stroke-linecap:round; stroke-linejoin:round; stroke-width:4; stroke-opacity:1; fill:none" points="152.112,966.848 171.01,966.848 "/>
<polyline clip-path="url(#clip050)" style="stroke:#000000; stroke-linecap:round; stroke-linejoin:round; stroke-width:4; stroke-opacity:1; fill:none" points="152.112,850.446 171.01,850.446 "/>
<polyline clip-path="url(#clip050)" style="stroke:#000000; stroke-linecap:round; stroke-linejoin:round; stroke-width:4; stroke-opacity:1; fill:none" points="152.112,734.045 171.01,734.045 "/>
<path clip-path="url(#clip050)" d="M64.9365 1069.05 Q61.3254 1069.05 59.4967 1072.61 Q57.6912 1076.15 57.6912 1083.28 Q57.6912 1090.39 59.4967 1093.95 Q61.3254 1097.5 64.9365 1097.5 Q68.5707 1097.5 70.3763 1093.95 Q72.205 1090.39 72.205 1083.28 Q72.205 1076.15 70.3763 1072.61 Q68.5707 1069.05 64.9365 1069.05 M64.9365 1065.34 Q70.7467 1065.34 73.8022 1069.95 Q76.8809 1074.53 76.8809 1083.28 Q76.8809 1092.01 73.8022 1096.62 Q70.7467 1101.2 64.9365 1101.2 Q59.1264 1101.2 56.0477 1096.62 Q52.9921 1092.01 52.9921 1083.28 Q52.9921 1074.53 56.0477 1069.95 Q59.1264 1065.34 64.9365 1065.34 Z" fill="#000000" fill-rule="nonzero" fill-opacity="1" /><path clip-path="url(#clip050)" d="M85.0984 1094.65 L89.9827 1094.65 L89.9827 1100.53 L85.0984 1100.53 L85.0984 1094.65 Z" fill="#000000" fill-rule="nonzero" fill-opacity="1" /><path clip-path="url(#clip050)" d="M110.168 1069.05 Q106.557 1069.05 104.728 1072.61 Q102.922 1076.15 102.922 1083.28 Q102.922 1090.39 104.728 1093.95 Q106.557 1097.5 110.168 1097.5 Q113.802 1097.5 115.608 1093.95 Q117.436 1090.39 117.436 1083.28 Q117.436 1076.15 115.608 1072.61 Q113.802 1069.05 110.168 1069.05 M110.168 1065.34 Q115.978 1065.34 119.033 1069.95 Q122.112 1074.53 122.112 1083.28 Q122.112 1092.01 119.033 1096.62 Q115.978 1101.2 110.168 1101.2 Q104.358 1101.2 101.279 1096.62 Q98.2234 1092.01 98.2234 1083.28 Q98.2234 1074.53 101.279 1069.95 Q104.358 1065.34 110.168 1065.34 Z" fill="#000000" fill-rule="nonzero" fill-opacity="1" /><path clip-path="url(#clip050)" d="M66.1634 952.646 Q62.5523 952.646 60.7236 956.211 Q58.918 959.753 58.918 966.882 Q58.918 973.989 60.7236 977.554 Q62.5523 981.095 66.1634 981.095 Q69.7976 981.095 71.6031 977.554 Q73.4318 973.989 73.4318 966.882 Q73.4318 959.753 71.6031 956.211 Q69.7976 952.646 66.1634 952.646 M66.1634 948.943 Q71.9735 948.943 75.029 953.549 Q78.1077 958.132 78.1077 966.882 Q78.1077 975.609 75.029 980.216 Q71.9735 984.799 66.1634 984.799 Q60.3532 984.799 57.2745 980.216 Q54.219 975.609 54.219 966.882 Q54.219 958.132 57.2745 953.549 Q60.3532 948.943 66.1634 948.943 Z" fill="#000000" fill-rule="nonzero" fill-opacity="1" /><path clip-path="url(#clip050)" d="M86.3253 978.248 L91.2095 978.248 L91.2095 984.128 L86.3253 984.128 L86.3253 978.248 Z" fill="#000000" fill-rule="nonzero" fill-opacity="1" /><path clip-path="url(#clip050)" d="M102.205 980.192 L109.844 980.192 L109.844 953.827 L101.534 955.494 L101.534 951.234 L109.797 949.568 L114.473 949.568 L114.473 980.192 L122.112 980.192 L122.112 984.128 L102.205 984.128 L102.205 980.192 Z" fill="#000000" fill-rule="nonzero" fill-opacity="1" /><path clip-path="url(#clip050)" d="M66.5337 836.245 Q62.9226 836.245 61.0939 839.81 Q59.2884 843.352 59.2884 850.481 Q59.2884 857.588 61.0939 861.152 Q62.9226 864.694 66.5337 864.694 Q70.168 864.694 71.9735 861.152 Q73.8022 857.588 73.8022 850.481 Q73.8022 843.352 71.9735 839.81 Q70.168 836.245 66.5337 836.245 M66.5337 832.541 Q72.3439 832.541 75.3994 837.148 Q78.4781 841.731 78.4781 850.481 Q78.4781 859.208 75.3994 863.814 Q72.3439 868.398 66.5337 868.398 Q60.7236 868.398 57.6449 863.814 Q54.5893 859.208 54.5893 850.481 Q54.5893 841.731 57.6449 837.148 Q60.7236 832.541 66.5337 832.541 Z" fill="#000000" fill-rule="nonzero" fill-opacity="1" /><path clip-path="url(#clip050)" d="M86.6956 861.847 L91.5799 861.847 L91.5799 867.726 L86.6956 867.726 L86.6956 861.847 Z" fill="#000000" fill-rule="nonzero" fill-opacity="1" /><path clip-path="url(#clip050)" d="M105.793 863.791 L122.112 863.791 L122.112 867.726 L100.168 867.726 L100.168 863.791 Q102.83 861.037 107.413 856.407 Q112.02 851.754 113.2 850.412 Q115.445 847.889 116.325 846.152 Q117.228 844.393 117.228 842.703 Q117.228 839.949 115.283 838.213 Q113.362 836.477 110.26 836.477 Q108.061 836.477 105.608 837.24 Q103.177 838.004 100.399 839.555 L100.399 834.833 Q103.223 833.699 105.677 833.12 Q108.131 832.541 110.168 832.541 Q115.538 832.541 118.733 835.227 Q121.927 837.912 121.927 842.402 Q121.927 844.532 121.117 846.453 Q120.33 848.352 118.223 850.944 Q117.645 851.615 114.543 854.833 Q111.441 858.027 105.793 863.791 Z" fill="#000000" fill-rule="nonzero" fill-opacity="1" /><path clip-path="url(#clip050)" d="M65.5847 719.844 Q61.9736 719.844 60.1449 723.409 Q58.3393 726.95 58.3393 734.08 Q58.3393 741.186 60.1449 744.751 Q61.9736 748.293 65.5847 748.293 Q69.2189 748.293 71.0244 744.751 Q72.8531 741.186 72.8531 734.08 Q72.8531 726.95 71.0244 723.409 Q69.2189 719.844 65.5847 719.844 M65.5847 716.14 Q71.3948 716.14 74.4503 720.747 Q77.529 725.33 77.529 734.08 Q77.529 742.807 74.4503 747.413 Q71.3948 751.997 65.5847 751.997 Q59.7745 751.997 56.6958 747.413 Q53.6403 742.807 53.6403 734.08 Q53.6403 725.33 56.6958 720.747 Q59.7745 716.14 65.5847 716.14 Z" fill="#000000" fill-rule="nonzero" fill-opacity="1" /><path clip-path="url(#clip050)" d="M85.7466 745.446 L90.6308 745.446 L90.6308 751.325 L85.7466 751.325 L85.7466 745.446 Z" fill="#000000" fill-rule="nonzero" fill-opacity="1" /><path clip-path="url(#clip050)" d="M114.983 732.691 Q118.339 733.409 120.214 735.677 Q122.112 737.946 122.112 741.279 Q122.112 746.395 118.594 749.196 Q115.075 751.997 108.594 751.997 Q106.418 751.997 104.103 751.557 Q101.811 751.14 99.3576 750.284 L99.3576 745.77 Q101.302 746.904 103.617 747.483 Q105.932 748.061 108.455 748.061 Q112.853 748.061 115.145 746.325 Q117.459 744.589 117.459 741.279 Q117.459 738.223 115.307 736.511 Q113.177 734.774 109.358 734.774 L105.33 734.774 L105.33 730.932 L109.543 730.932 Q112.992 730.932 114.82 729.566 Q116.649 728.177 116.649 725.585 Q116.649 722.923 114.751 721.511 Q112.876 720.075 109.358 720.075 Q107.436 720.075 105.237 720.492 Q103.038 720.909 100.399 721.788 L100.399 717.622 Q103.061 716.881 105.376 716.511 Q107.714 716.14 109.774 716.14 Q115.098 716.14 118.2 718.571 Q121.302 720.978 121.302 725.099 Q121.302 727.969 119.658 729.96 Q118.015 731.927 114.983 732.691 Z" fill="#000000" fill-rule="nonzero" fill-opacity="1" /><path clip-path="url(#clip050)" d="M315.126 654.671 L315.126 627.206 L322.58 627.206 L322.58 654.387 Q322.58 660.828 325.091 664.069 Q327.603 667.269 332.626 667.269 Q338.662 667.269 342.146 663.421 Q345.67 659.573 345.67 652.929 L345.67 627.206 L353.124 627.206 L353.124 672.576 L345.67 672.576 L345.67 665.608 Q342.956 669.74 339.351 671.766 Q335.786 673.751 331.046 673.751 Q323.228 673.751 319.177 668.89 Q315.126 664.029 315.126 654.671 M333.882 626.112 L333.882 626.112 Z" fill="#000000" fill-rule="nonzero" fill-opacity="1" /><path clip-path="url(#clip050)" d="M402.95 686.349 L402.95 692.142 L359.848 692.142 L359.848 686.349 L402.95 686.349 Z" fill="#000000" fill-rule="nonzero" fill-opacity="1" /><path clip-path="url(#clip050)" d="M438.881 628.543 L438.881 635.591 Q435.722 633.971 432.319 633.161 Q428.916 632.351 425.27 632.351 Q419.721 632.351 416.925 634.052 Q414.171 635.753 414.171 639.156 Q414.171 641.749 416.156 643.247 Q418.141 644.706 424.136 646.043 L426.688 646.61 Q434.628 648.311 437.95 651.43 Q441.312 654.509 441.312 660.059 Q441.312 666.378 436.289 670.064 Q431.306 673.751 422.556 673.751 Q418.91 673.751 414.941 673.022 Q411.011 672.333 406.636 670.915 L406.636 663.218 Q410.768 665.365 414.779 666.459 Q418.789 667.512 422.718 667.512 Q427.984 667.512 430.82 665.73 Q433.656 663.907 433.656 660.626 Q433.656 657.588 431.59 655.967 Q429.564 654.347 422.637 652.848 L420.045 652.24 Q413.118 650.782 410.039 647.784 Q406.96 644.746 406.96 639.48 Q406.96 633.08 411.497 629.596 Q416.034 626.112 424.379 626.112 Q428.511 626.112 432.157 626.72 Q435.803 627.327 438.881 628.543 Z" fill="#000000" fill-rule="nonzero" fill-opacity="1" /><path clip-path="url(#clip050)" d="M460.392 665.77 L460.392 689.833 L452.898 689.833 L452.898 627.206 L460.392 627.206 L460.392 634.092 Q462.741 630.042 466.306 628.097 Q469.911 626.112 474.894 626.112 Q483.158 626.112 488.302 632.675 Q493.488 639.237 493.488 649.931 Q493.488 660.626 488.302 667.188 Q483.158 673.751 474.894 673.751 Q469.911 673.751 466.306 671.806 Q462.741 669.821 460.392 665.77 M485.75 649.931 Q485.75 641.708 482.348 637.05 Q478.985 632.351 473.071 632.351 Q467.157 632.351 463.754 637.05 Q460.392 641.708 460.392 649.931 Q460.392 658.155 463.754 662.854 Q467.157 667.512 473.071 667.512 Q478.985 667.512 482.348 662.854 Q485.75 658.155 485.75 649.931 Z" fill="#000000" fill-rule="nonzero" fill-opacity="1" /><path clip-path="url(#clip050)" d="M523.424 632.432 Q517.428 632.432 513.945 637.131 Q510.461 641.789 510.461 649.931 Q510.461 658.074 513.904 662.773 Q517.388 667.431 523.424 667.431 Q529.379 667.431 532.862 662.732 Q536.346 658.033 536.346 649.931 Q536.346 641.87 532.862 637.171 Q529.379 632.432 523.424 632.432 M523.424 626.112 Q533.146 626.112 538.696 632.432 Q544.245 638.751 544.245 649.931 Q544.245 661.071 538.696 667.431 Q533.146 673.751 523.424 673.751 Q513.661 673.751 508.111 667.431 Q502.602 661.071 502.602 649.931 Q502.602 638.751 508.111 632.432 Q513.661 626.112 523.424 626.112 Z" fill="#000000" fill-rule="nonzero" fill-opacity="1" /><path clip-path="url(#clip050)" d="M563.973 614.324 L563.973 627.206 L579.326 627.206 L579.326 632.999 L563.973 632.999 L563.973 657.628 Q563.973 663.178 565.472 664.758 Q567.011 666.338 571.67 666.338 L579.326 666.338 L579.326 672.576 L571.67 672.576 Q563.042 672.576 559.76 669.376 Q556.479 666.135 556.479 657.628 L556.479 632.999 L551.01 632.999 L551.01 627.206 L556.479 627.206 L556.479 614.324 L563.973 614.324 Z" fill="#000000" fill-rule="nonzero" fill-opacity="1" /><path clip-path="url(#clip050)" d="M623.603 686.349 L623.603 692.142 L580.501 692.142 L580.501 686.349 L623.603 686.349 Z" fill="#000000" fill-rule="nonzero" fill-opacity="1" /><path clip-path="url(#clip050)" d="M663.18 649.931 Q663.18 641.708 659.777 637.05 Q656.415 632.351 650.501 632.351 Q644.586 632.351 641.184 637.05 Q637.821 641.708 637.821 649.931 Q637.821 658.155 641.184 662.854 Q644.586 667.512 650.501 667.512 Q656.415 667.512 659.777 662.854 Q663.18 658.155 663.18 649.931 M637.821 634.092 Q640.171 630.042 643.736 628.097 Q647.341 626.112 652.324 626.112 Q660.587 626.112 665.732 632.675 Q670.917 639.237 670.917 649.931 Q670.917 660.626 665.732 667.188 Q660.587 673.751 652.324 673.751 Q647.341 673.751 643.736 671.806 Q640.171 669.821 637.821 665.77 L637.821 672.576 L630.327 672.576 L630.327 609.544 L637.821 609.544 L637.821 634.092 Z" fill="#000000" fill-rule="nonzero" fill-opacity="1" /><path clip-path="url(#clip050)" d="M682.503 654.671 L682.503 627.206 L689.956 627.206 L689.956 654.387 Q689.956 660.828 692.468 664.069 Q694.98 667.269 700.003 667.269 Q706.039 667.269 709.522 663.421 Q713.047 659.573 713.047 652.929 L713.047 627.206 L720.5 627.206 L720.5 672.576 L713.047 672.576 L713.047 665.608 Q710.332 669.74 706.727 671.766 Q703.162 673.751 698.423 673.751 Q690.605 673.751 686.554 668.89 Q682.503 664.029 682.503 654.671 M701.258 626.112 L701.258 626.112 Z" fill="#000000" fill-rule="nonzero" fill-opacity="1" /><path clip-path="url(#clip050)" d="M754.73 676.789 Q751.571 684.891 748.573 687.362 Q745.575 689.833 740.552 689.833 L734.597 689.833 L734.597 683.594 L738.972 683.594 Q742.051 683.594 743.752 682.136 Q745.454 680.678 747.52 675.25 L748.857 671.847 L730.506 627.206 L738.405 627.206 L752.583 662.692 L766.762 627.206 L774.661 627.206 L754.73 676.789 Z" fill="#000000" fill-rule="nonzero" fill-opacity="1" /><path clip-path="url(#clip054)" d="M174.345 1083.25 L241.717 1083.25 L309.09 1083.25 L376.462 1083.25 L443.835 1083.25 L511.207 1083.25 L578.58 1083.25 L645.952 1083.25 L713.325 1083.25 L780.697 1083.25 L848.07 1083.25 L915.442 1083.25 L915.442 1029.91 L848.07 995.834 L780.697 981.823 L713.325 981.366 L645.952 841.756 L578.58 918.34 L511.207 728.079 L443.835 1058.49 L376.462 1083.25 L309.09 1083.25 L241.717 1083.25 L174.345 1083.25  Z" fill="#00467f" fill-rule="evenodd" fill-opacity="0.2"/>
<polyline clip-path="url(#clip054)" style="stroke:#00467f; stroke-linecap:round; stroke-linejoin:round; stroke-width:4; stroke-opacity:0; fill:none" points="174.345,1083.25 241.717,1083.25 309.09,1083.25 376.462,1083.25 443.835,1070.87 511.207,905.664 578.58,1000.79 645.952,962.502 713.325,1032.31 780.697,1032.54 848.07,1039.54 915.442,1056.58 "/>
<path clip-path="url(#clip054)" d="M174.345 1083.25 L241.717 1083.25 L309.09 1083.25 L376.462 1083.25 L443.835 1083.25 L511.207 1083.25 L578.58 1083.25 L645.952 1083.25 L713.325 1083.25 L780.697 1083.25 L848.07 1083.25 L915.442 1083.25 L915.442 1060.18 L848.07 1075.45 L780.697 1071 L713.325 1063.98 L645.952 1035.14 L578.58 1083.25 L511.207 1083.25 L443.835 1083.25 L376.462 1083.25 L309.09 1083.25 L241.717 1083.25 L174.345 1083.25  Z" fill="#00467f" fill-rule="evenodd" fill-opacity="0.2"/>
<polyline clip-path="url(#clip054)" style="stroke:#00467f; stroke-linecap:round; stroke-linejoin:round; stroke-width:4; stroke-opacity:0; fill:none" points="174.345,1083.25 241.717,1083.25 309.09,1083.25 376.462,1083.25 443.835,1083.25 511.207,1083.25 578.58,1083.25 645.952,1059.19 713.325,1073.61 780.697,1077.12 848.07,1079.35 915.442,1071.71 "/>
<path clip-path="url(#clip054)" d="M174.345 1083.25 L241.717 1083.25 L309.09 1083.25 L376.462 1083.25 L443.835 1083.25 L511.207 1083.25 L578.58 1083.25 L645.952 1083.25 L713.325 1083.25 L780.697 1083.25 L848.07 1083.25 L915.442 1083.25 L915.442 1083.25 L848.07 1083.25 L780.697 1083.25 L713.325 1083.25 L645.952 1083.25 L578.58 1083.25 L511.207 1083.25 L443.835 1083.25 L376.462 1083.25 L309.09 1083.25 L241.717 1083.25 L174.345 1083.25  Z" fill="#00467f" fill-rule="evenodd" fill-opacity="0.2"/>
<polyline clip-path="url(#clip054)" style="stroke:#00467f; stroke-linecap:round; stroke-linejoin:round; stroke-width:4; stroke-opacity:0; fill:none" points="174.345,1083.25 241.717,1083.25 309.09,1083.25 376.462,1083.25 443.835,1083.25 511.207,1083.25 578.58,1083.25 645.952,1083.25 713.325,1083.25 780.697,1083.25 848.07,1083.25 915.442,1083.25 "/>
<polyline clip-path="url(#clip054)" style="stroke:#00467f; stroke-linecap:round; stroke-linejoin:round; stroke-width:4; stroke-opacity:1; fill:none" points="174.345,1083.25 241.717,1083.25 309.09,1083.25 376.462,1083.25 443.835,1083.25 511.207,1083.25 578.58,1083.25 645.952,1083.25 713.325,1083.25 780.697,1083.25 848.07,1083.25 915.442,1083.25 "/>
<path clip-path="url(#clip050)" d="M1167.19 1093.9 L1952.76 1093.9 L1952.76 717.424 L1167.19 717.424  Z" fill="#ffffff" fill-rule="evenodd" fill-opacity="1"/>
<defs>
  <clipPath id="clip055">
    <rect x="1167" y="717" width="787" height="377"/>
  </clipPath>
</defs>
<polyline clip-path="url(#clip055)" style="stroke:#000000; stroke-linecap:round; stroke-linejoin:round; stroke-width:2; stroke-opacity:0.1; fill:none" points="1290.48,1093.9 1290.48,717.424 "/>
<polyline clip-path="url(#clip055)" style="stroke:#000000; stroke-linecap:round; stroke-linejoin:round; stroke-width:2; stroke-opacity:0.1; fill:none" points="1458.92,1093.9 1458.92,717.424 "/>
<polyline clip-path="url(#clip055)" style="stroke:#000000; stroke-linecap:round; stroke-linejoin:round; stroke-width:2; stroke-opacity:0.1; fill:none" points="1627.35,1093.9 1627.35,717.424 "/>
<polyline clip-path="url(#clip055)" style="stroke:#000000; stroke-linecap:round; stroke-linejoin:round; stroke-width:2; stroke-opacity:0.1; fill:none" points="1795.78,1093.9 1795.78,717.424 "/>
<polyline clip-path="url(#clip050)" style="stroke:#000000; stroke-linecap:round; stroke-linejoin:round; stroke-width:4; stroke-opacity:1; fill:none" points="1167.19,1093.9 1952.76,1093.9 "/>
<polyline clip-path="url(#clip050)" style="stroke:#000000; stroke-linecap:round; stroke-linejoin:round; stroke-width:4; stroke-opacity:1; fill:none" points="1290.48,1093.9 1290.48,1075.01 "/>
<polyline clip-path="url(#clip050)" style="stroke:#000000; stroke-linecap:round; stroke-linejoin:round; stroke-width:4; stroke-opacity:1; fill:none" points="1458.92,1093.9 1458.92,1075.01 "/>
<polyline clip-path="url(#clip050)" style="stroke:#000000; stroke-linecap:round; stroke-linejoin:round; stroke-width:4; stroke-opacity:1; fill:none" points="1627.35,1093.9 1627.35,1075.01 "/>
<polyline clip-path="url(#clip050)" style="stroke:#000000; stroke-linecap:round; stroke-linejoin:round; stroke-width:4; stroke-opacity:1; fill:none" points="1795.78,1093.9 1795.78,1075.01 "/>
<path clip-path="url(#clip050)" d="M1262.22 1149.17 L1278.54 1149.17 L1278.54 1153.1 L1256.6 1153.1 L1256.6 1149.17 Q1259.26 1146.41 1263.84 1141.78 Q1268.45 1137.13 1269.63 1135.79 Q1271.87 1133.27 1272.75 1131.53 Q1273.66 1129.77 1273.66 1128.08 Q1273.66 1125.33 1271.71 1123.59 Q1269.79 1121.85 1266.69 1121.85 Q1264.49 1121.85 1262.04 1122.62 Q1259.61 1123.38 1256.83 1124.93 L1256.83 1120.21 Q1259.65 1119.08 1262.11 1118.5 Q1264.56 1117.92 1266.6 1117.92 Q1271.97 1117.92 1275.16 1120.6 Q1278.36 1123.29 1278.36 1127.78 Q1278.36 1129.91 1277.54 1131.83 Q1276.76 1133.73 1274.65 1136.32 Q1274.07 1136.99 1270.97 1140.21 Q1267.87 1143.4 1262.22 1149.17 Z" fill="#000000" fill-rule="nonzero" fill-opacity="1" /><path clip-path="url(#clip050)" d="M1288.36 1147.22 L1293.24 1147.22 L1293.24 1153.1 L1288.36 1153.1 L1288.36 1147.22 Z" fill="#000000" fill-rule="nonzero" fill-opacity="1" /><path clip-path="url(#clip050)" d="M1303.47 1118.54 L1321.83 1118.54 L1321.83 1122.48 L1307.75 1122.48 L1307.75 1130.95 Q1308.77 1130.6 1309.79 1130.44 Q1310.81 1130.26 1311.83 1130.26 Q1317.61 1130.26 1320.99 1133.43 Q1324.37 1136.6 1324.37 1142.02 Q1324.37 1147.59 1320.9 1150.7 Q1317.43 1153.78 1311.11 1153.78 Q1308.93 1153.78 1306.67 1153.4 Q1304.42 1153.03 1302.01 1152.29 L1302.01 1147.59 Q1304.1 1148.73 1306.32 1149.28 Q1308.54 1149.84 1311.02 1149.84 Q1315.02 1149.84 1317.36 1147.73 Q1319.7 1145.63 1319.7 1142.02 Q1319.7 1138.4 1317.36 1136.3 Q1315.02 1134.19 1311.02 1134.19 Q1309.14 1134.19 1307.27 1134.61 Q1305.42 1135.03 1303.47 1135.9 L1303.47 1118.54 Z" fill="#000000" fill-rule="nonzero" fill-opacity="1" /><path clip-path="url(#clip050)" d="M1426.08 1118.54 L1444.44 1118.54 L1444.44 1122.48 L1430.36 1122.48 L1430.36 1130.95 Q1431.38 1130.6 1432.4 1130.44 Q1433.42 1130.26 1434.44 1130.26 Q1440.22 1130.26 1443.6 1133.43 Q1446.98 1136.6 1446.98 1142.02 Q1446.98 1147.59 1443.51 1150.7 Q1440.04 1153.78 1433.72 1153.78 Q1431.54 1153.78 1429.27 1153.4 Q1427.03 1153.03 1424.62 1152.29 L1424.62 1147.59 Q1426.71 1148.73 1428.93 1149.28 Q1431.15 1149.84 1433.63 1149.84 Q1437.63 1149.84 1439.97 1147.73 Q1442.31 1145.63 1442.31 1142.02 Q1442.31 1138.4 1439.97 1136.3 Q1437.63 1134.19 1433.63 1134.19 Q1431.75 1134.19 1429.88 1134.61 Q1428.02 1135.03 1426.08 1135.9 L1426.08 1118.54 Z" fill="#000000" fill-rule="nonzero" fill-opacity="1" /><path clip-path="url(#clip050)" d="M1456.2 1147.22 L1461.08 1147.22 L1461.08 1153.1 L1456.2 1153.1 L1456.2 1147.22 Z" fill="#000000" fill-rule="nonzero" fill-opacity="1" /><path clip-path="url(#clip050)" d="M1481.27 1121.62 Q1477.65 1121.62 1475.83 1125.19 Q1474.02 1128.73 1474.02 1135.86 Q1474.02 1142.97 1475.83 1146.53 Q1477.65 1150.07 1481.27 1150.07 Q1484.9 1150.07 1486.71 1146.53 Q1488.53 1142.97 1488.53 1135.86 Q1488.53 1128.73 1486.71 1125.19 Q1484.9 1121.62 1481.27 1121.62 M1481.27 1117.92 Q1487.08 1117.92 1490.13 1122.53 Q1493.21 1127.11 1493.21 1135.86 Q1493.21 1144.59 1490.13 1149.19 Q1487.08 1153.78 1481.27 1153.78 Q1475.46 1153.78 1472.38 1149.19 Q1469.32 1144.59 1469.32 1135.86 Q1469.32 1127.11 1472.38 1122.53 Q1475.46 1117.92 1481.27 1117.92 Z" fill="#000000" fill-rule="nonzero" fill-opacity="1" /><path clip-path="url(#clip050)" d="M1593.67 1118.54 L1615.89 1118.54 L1615.89 1120.53 L1603.34 1153.1 L1598.46 1153.1 L1610.26 1122.48 L1593.67 1122.48 L1593.67 1118.54 Z" fill="#000000" fill-rule="nonzero" fill-opacity="1" /><path clip-path="url(#clip050)" d="M1625.01 1147.22 L1629.89 1147.22 L1629.89 1153.1 L1625.01 1153.1 L1625.01 1147.22 Z" fill="#000000" fill-rule="nonzero" fill-opacity="1" /><path clip-path="url(#clip050)" d="M1640.12 1118.54 L1658.48 1118.54 L1658.48 1122.48 L1644.41 1122.48 L1644.41 1130.95 Q1645.43 1130.6 1646.44 1130.44 Q1647.46 1130.26 1648.48 1130.26 Q1654.27 1130.26 1657.65 1133.43 Q1661.03 1136.6 1661.03 1142.02 Q1661.03 1147.59 1657.56 1150.7 Q1654.08 1153.78 1647.76 1153.78 Q1645.59 1153.78 1643.32 1153.4 Q1641.07 1153.03 1638.67 1152.29 L1638.67 1147.59 Q1640.75 1148.73 1642.97 1149.28 Q1645.19 1149.84 1647.67 1149.84 Q1651.68 1149.84 1654.01 1147.73 Q1656.35 1145.63 1656.35 1142.02 Q1656.35 1138.4 1654.01 1136.3 Q1651.68 1134.19 1647.67 1134.19 Q1645.8 1134.19 1643.92 1134.61 Q1642.07 1135.03 1640.12 1135.9 L1640.12 1118.54 Z" fill="#000000" fill-rule="nonzero" fill-opacity="1" /><path clip-path="url(#clip050)" d="M1747.85 1149.17 L1755.49 1149.17 L1755.49 1122.8 L1747.18 1124.47 L1747.18 1120.21 L1755.44 1118.54 L1760.12 1118.54 L1760.12 1149.17 L1767.76 1149.17 L1767.76 1153.1 L1747.85 1153.1 L1747.85 1149.17 Z" fill="#000000" fill-rule="nonzero" fill-opacity="1" /><path clip-path="url(#clip050)" d="M1787.2 1121.62 Q1783.59 1121.62 1781.76 1125.19 Q1779.96 1128.73 1779.96 1135.86 Q1779.96 1142.97 1781.76 1146.53 Q1783.59 1150.07 1787.2 1150.07 Q1790.84 1150.07 1792.64 1146.53 Q1794.47 1142.97 1794.47 1135.86 Q1794.47 1128.73 1792.64 1125.19 Q1790.84 1121.62 1787.2 1121.62 M1787.2 1117.92 Q1793.01 1117.92 1796.07 1122.53 Q1799.15 1127.11 1799.15 1135.86 Q1799.15 1144.59 1796.07 1149.19 Q1793.01 1153.78 1787.2 1153.78 Q1781.39 1153.78 1778.31 1149.19 Q1775.26 1144.59 1775.26 1135.86 Q1775.26 1127.11 1778.31 1122.53 Q1781.39 1117.92 1787.2 1117.92 Z" fill="#000000" fill-rule="nonzero" fill-opacity="1" /><path clip-path="url(#clip050)" d="M1807.36 1147.22 L1812.25 1147.22 L1812.25 1153.1 L1807.36 1153.1 L1807.36 1147.22 Z" fill="#000000" fill-rule="nonzero" fill-opacity="1" /><path clip-path="url(#clip050)" d="M1832.43 1121.62 Q1828.82 1121.62 1826.99 1125.19 Q1825.19 1128.73 1825.19 1135.86 Q1825.19 1142.97 1826.99 1146.53 Q1828.82 1150.07 1832.43 1150.07 Q1836.07 1150.07 1837.87 1146.53 Q1839.7 1142.97 1839.7 1135.86 Q1839.7 1128.73 1837.87 1125.19 Q1836.07 1121.62 1832.43 1121.62 M1832.43 1117.92 Q1838.24 1117.92 1841.3 1122.53 Q1844.38 1127.11 1844.38 1135.86 Q1844.38 1144.59 1841.3 1149.19 Q1838.24 1153.78 1832.43 1153.78 Q1826.62 1153.78 1823.54 1149.19 Q1820.49 1144.59 1820.49 1135.86 Q1820.49 1127.11 1823.54 1122.53 Q1826.62 1117.92 1832.43 1117.92 Z" fill="#000000" fill-rule="nonzero" fill-opacity="1" /><polyline clip-path="url(#clip055)" style="stroke:#000000; stroke-linecap:round; stroke-linejoin:round; stroke-width:2; stroke-opacity:0.1; fill:none" points="1167.19,1083.25 1952.76,1083.25 "/>
<polyline clip-path="url(#clip055)" style="stroke:#000000; stroke-linecap:round; stroke-linejoin:round; stroke-width:2; stroke-opacity:0.1; fill:none" points="1167.19,976.228 1952.76,976.228 "/>
<polyline clip-path="url(#clip055)" style="stroke:#000000; stroke-linecap:round; stroke-linejoin:round; stroke-width:2; stroke-opacity:0.1; fill:none" points="1167.19,869.207 1952.76,869.207 "/>
<polyline clip-path="url(#clip055)" style="stroke:#000000; stroke-linecap:round; stroke-linejoin:round; stroke-width:2; stroke-opacity:0.1; fill:none" points="1167.19,762.185 1952.76,762.185 "/>
<polyline clip-path="url(#clip050)" style="stroke:#000000; stroke-linecap:round; stroke-linejoin:round; stroke-width:4; stroke-opacity:1; fill:none" points="1167.19,1093.9 1167.19,717.424 "/>
<polyline clip-path="url(#clip050)" style="stroke:#000000; stroke-linecap:round; stroke-linejoin:round; stroke-width:4; stroke-opacity:1; fill:none" points="1167.19,1083.25 1186.09,1083.25 "/>
<polyline clip-path="url(#clip050)" style="stroke:#000000; stroke-linecap:round; stroke-linejoin:round; stroke-width:4; stroke-opacity:1; fill:none" points="1167.19,976.228 1186.09,976.228 "/>
<polyline clip-path="url(#clip050)" style="stroke:#000000; stroke-linecap:round; stroke-linejoin:round; stroke-width:4; stroke-opacity:1; fill:none" points="1167.19,869.207 1186.09,869.207 "/>
<polyline clip-path="url(#clip050)" style="stroke:#000000; stroke-linecap:round; stroke-linejoin:round; stroke-width:4; stroke-opacity:1; fill:none" points="1167.19,762.185 1186.09,762.185 "/>
<path clip-path="url(#clip050)" d="M1049.86 1069.05 Q1046.24 1069.05 1044.42 1072.61 Q1042.61 1076.15 1042.61 1083.28 Q1042.61 1090.39 1044.42 1093.95 Q1046.24 1097.5 1049.86 1097.5 Q1053.49 1097.5 1055.3 1093.95 Q1057.12 1090.39 1057.12 1083.28 Q1057.12 1076.15 1055.3 1072.61 Q1053.49 1069.05 1049.86 1069.05 M1049.86 1065.34 Q1055.67 1065.34 1058.72 1069.95 Q1061.8 1074.53 1061.8 1083.28 Q1061.8 1092.01 1058.72 1096.62 Q1055.67 1101.2 1049.86 1101.2 Q1044.05 1101.2 1040.97 1096.62 Q1037.91 1092.01 1037.91 1083.28 Q1037.91 1074.53 1040.97 1069.95 Q1044.05 1065.34 1049.86 1065.34 Z" fill="#000000" fill-rule="nonzero" fill-opacity="1" /><path clip-path="url(#clip050)" d="M1070.02 1094.65 L1074.9 1094.65 L1074.9 1100.53 L1070.02 1100.53 L1070.02 1094.65 Z" fill="#000000" fill-rule="nonzero" fill-opacity="1" /><path clip-path="url(#clip050)" d="M1095.09 1069.05 Q1091.48 1069.05 1089.65 1072.61 Q1087.84 1076.15 1087.84 1083.28 Q1087.84 1090.39 1089.65 1093.95 Q1091.48 1097.5 1095.09 1097.5 Q1098.72 1097.5 1100.53 1093.95 Q1102.36 1090.39 1102.36 1083.28 Q1102.36 1076.15 1100.53 1072.61 Q1098.72 1069.05 1095.09 1069.05 M1095.09 1065.34 Q1100.9 1065.34 1103.95 1069.95 Q1107.03 1074.53 1107.03 1083.28 Q1107.03 1092.01 1103.95 1096.62 Q1100.9 1101.2 1095.09 1101.2 Q1089.28 1101.2 1086.2 1096.62 Q1083.14 1092.01 1083.14 1083.28 Q1083.14 1074.53 1086.2 1069.95 Q1089.28 1065.34 1095.09 1065.34 Z" fill="#000000" fill-rule="nonzero" fill-opacity="1" /><path clip-path="url(#clip050)" d="M1125.25 1069.05 Q1121.64 1069.05 1119.81 1072.61 Q1118 1076.15 1118 1083.28 Q1118 1090.39 1119.81 1093.95 Q1121.64 1097.5 1125.25 1097.5 Q1128.88 1097.5 1130.69 1093.95 Q1132.52 1090.39 1132.52 1083.28 Q1132.52 1076.15 1130.69 1072.61 Q1128.88 1069.05 1125.25 1069.05 M1125.25 1065.34 Q1131.06 1065.34 1134.11 1069.95 Q1137.19 1074.53 1137.19 1083.28 Q1137.19 1092.01 1134.11 1096.62 Q1131.06 1101.2 1125.25 1101.2 Q1119.44 1101.2 1116.36 1096.62 Q1113.3 1092.01 1113.3 1083.28 Q1113.3 1074.53 1116.36 1069.95 Q1119.44 1065.34 1125.25 1065.34 Z" fill="#000000" fill-rule="nonzero" fill-opacity="1" /><path clip-path="url(#clip050)" d="M1050.85 962.026 Q1047.24 962.026 1045.41 965.591 Q1043.61 969.133 1043.61 976.262 Q1043.61 983.369 1045.41 986.934 Q1047.24 990.475 1050.85 990.475 Q1054.49 990.475 1056.29 986.934 Q1058.12 983.369 1058.12 976.262 Q1058.12 969.133 1056.29 965.591 Q1054.49 962.026 1050.85 962.026 M1050.85 958.323 Q1056.66 958.323 1059.72 962.929 Q1062.8 967.512 1062.8 976.262 Q1062.8 984.989 1059.72 989.596 Q1056.66 994.179 1050.85 994.179 Q1045.04 994.179 1041.96 989.596 Q1038.91 984.989 1038.91 976.262 Q1038.91 967.512 1041.96 962.929 Q1045.04 958.323 1050.85 958.323 Z" fill="#000000" fill-rule="nonzero" fill-opacity="1" /><path clip-path="url(#clip050)" d="M1071.01 987.628 L1075.9 987.628 L1075.9 993.508 L1071.01 993.508 L1071.01 987.628 Z" fill="#000000" fill-rule="nonzero" fill-opacity="1" /><path clip-path="url(#clip050)" d="M1096.08 962.026 Q1092.47 962.026 1090.64 965.591 Q1088.84 969.133 1088.84 976.262 Q1088.84 983.369 1090.64 986.934 Q1092.47 990.475 1096.08 990.475 Q1099.72 990.475 1101.52 986.934 Q1103.35 983.369 1103.35 976.262 Q1103.35 969.133 1101.52 965.591 Q1099.72 962.026 1096.08 962.026 M1096.08 958.323 Q1101.89 958.323 1104.95 962.929 Q1108.03 967.512 1108.03 976.262 Q1108.03 984.989 1104.95 989.596 Q1101.89 994.179 1096.08 994.179 Q1090.27 994.179 1087.19 989.596 Q1084.14 984.989 1084.14 976.262 Q1084.14 967.512 1087.19 962.929 Q1090.27 958.323 1096.08 958.323 Z" fill="#000000" fill-rule="nonzero" fill-opacity="1" /><path clip-path="url(#clip050)" d="M1116.29 958.948 L1134.65 958.948 L1134.65 962.883 L1120.57 962.883 L1120.57 971.355 Q1121.59 971.008 1122.61 970.846 Q1123.63 970.661 1124.65 970.661 Q1130.43 970.661 1133.81 973.832 Q1137.19 977.003 1137.19 982.42 Q1137.19 987.998 1133.72 991.1 Q1130.25 994.179 1123.93 994.179 Q1121.75 994.179 1119.48 993.809 Q1117.24 993.438 1114.83 992.697 L1114.83 987.998 Q1116.92 989.133 1119.14 989.688 Q1121.36 990.244 1123.84 990.244 Q1127.84 990.244 1130.18 988.137 Q1132.52 986.031 1132.52 982.42 Q1132.52 978.809 1130.18 976.702 Q1127.84 974.596 1123.84 974.596 Q1121.96 974.596 1120.09 975.012 Q1118.23 975.429 1116.29 976.309 L1116.29 958.948 Z" fill="#000000" fill-rule="nonzero" fill-opacity="1" /><path clip-path="url(#clip050)" d="M1049.86 855.005 Q1046.24 855.005 1044.42 858.57 Q1042.61 862.112 1042.61 869.241 Q1042.61 876.348 1044.42 879.913 Q1046.24 883.454 1049.86 883.454 Q1053.49 883.454 1055.3 879.913 Q1057.12 876.348 1057.12 869.241 Q1057.12 862.112 1055.3 858.57 Q1053.49 855.005 1049.86 855.005 M1049.86 851.302 Q1055.67 851.302 1058.72 855.908 Q1061.8 860.491 1061.8 869.241 Q1061.8 877.968 1058.72 882.575 Q1055.67 887.158 1049.86 887.158 Q1044.05 887.158 1040.97 882.575 Q1037.91 877.968 1037.91 869.241 Q1037.91 860.491 1040.97 855.908 Q1044.05 851.302 1049.86 851.302 Z" fill="#000000" fill-rule="nonzero" fill-opacity="1" /><path clip-path="url(#clip050)" d="M1070.02 880.607 L1074.9 880.607 L1074.9 886.487 L1070.02 886.487 L1070.02 880.607 Z" fill="#000000" fill-rule="nonzero" fill-opacity="1" /><path clip-path="url(#clip050)" d="M1085.9 882.551 L1093.54 882.551 L1093.54 856.186 L1085.23 857.852 L1085.23 853.593 L1093.49 851.927 L1098.17 851.927 L1098.17 882.551 L1105.8 882.551 L1105.8 886.487 L1085.9 886.487 L1085.9 882.551 Z" fill="#000000" fill-rule="nonzero" fill-opacity="1" /><path clip-path="url(#clip050)" d="M1125.25 855.005 Q1121.64 855.005 1119.81 858.57 Q1118 862.112 1118 869.241 Q1118 876.348 1119.81 879.913 Q1121.64 883.454 1125.25 883.454 Q1128.88 883.454 1130.69 879.913 Q1132.52 876.348 1132.52 869.241 Q1132.52 862.112 1130.69 858.57 Q1128.88 855.005 1125.25 855.005 M1125.25 851.302 Q1131.06 851.302 1134.11 855.908 Q1137.19 860.491 1137.19 869.241 Q1137.19 877.968 1134.11 882.575 Q1131.06 887.158 1125.25 887.158 Q1119.44 887.158 1116.36 882.575 Q1113.3 877.968 1113.3 869.241 Q1113.3 860.491 1116.36 855.908 Q1119.44 851.302 1125.25 851.302 Z" fill="#000000" fill-rule="nonzero" fill-opacity="1" /><path clip-path="url(#clip050)" d="M1050.85 747.984 Q1047.24 747.984 1045.41 751.549 Q1043.61 755.091 1043.61 762.22 Q1043.61 769.327 1045.41 772.891 Q1047.24 776.433 1050.85 776.433 Q1054.49 776.433 1056.29 772.891 Q1058.12 769.327 1058.12 762.22 Q1058.12 755.091 1056.29 751.549 Q1054.49 747.984 1050.85 747.984 M1050.85 744.28 Q1056.66 744.28 1059.72 748.887 Q1062.8 753.47 1062.8 762.22 Q1062.8 770.947 1059.72 775.553 Q1056.66 780.137 1050.85 780.137 Q1045.04 780.137 1041.96 775.553 Q1038.91 770.947 1038.91 762.22 Q1038.91 753.47 1041.96 748.887 Q1045.04 744.28 1050.85 744.28 Z" fill="#000000" fill-rule="nonzero" fill-opacity="1" /><path clip-path="url(#clip050)" d="M1071.01 773.586 L1075.9 773.586 L1075.9 779.465 L1071.01 779.465 L1071.01 773.586 Z" fill="#000000" fill-rule="nonzero" fill-opacity="1" /><path clip-path="url(#clip050)" d="M1086.89 775.53 L1094.53 775.53 L1094.53 749.165 L1086.22 750.831 L1086.22 746.572 L1094.48 744.905 L1099.16 744.905 L1099.16 775.53 L1106.8 775.53 L1106.8 779.465 L1086.89 779.465 L1086.89 775.53 Z" fill="#000000" fill-rule="nonzero" fill-opacity="1" /><path clip-path="url(#clip050)" d="M1116.29 744.905 L1134.65 744.905 L1134.65 748.841 L1120.57 748.841 L1120.57 757.313 Q1121.59 756.966 1122.61 756.804 Q1123.63 756.618 1124.65 756.618 Q1130.43 756.618 1133.81 759.79 Q1137.19 762.961 1137.19 768.378 Q1137.19 773.956 1133.72 777.058 Q1130.25 780.137 1123.93 780.137 Q1121.75 780.137 1119.48 779.766 Q1117.24 779.396 1114.83 778.655 L1114.83 773.956 Q1116.92 775.09 1119.14 775.646 Q1121.36 776.202 1123.84 776.202 Q1127.84 776.202 1130.18 774.095 Q1132.52 771.989 1132.52 768.378 Q1132.52 764.766 1130.18 762.66 Q1127.84 760.554 1123.84 760.554 Q1121.96 760.554 1120.09 760.97 Q1118.23 761.387 1116.29 762.266 L1116.29 744.905 Z" fill="#000000" fill-rule="nonzero" fill-opacity="1" /><path clip-path="url(#clip050)" d="M1339.85 654.671 L1339.85 627.206 L1347.3 627.206 L1347.3 654.387 Q1347.3 660.828 1349.81 664.069 Q1352.33 667.269 1357.35 667.269 Q1363.38 667.269 1366.87 663.421 Q1370.39 659.573 1370.39 652.929 L1370.39 627.206 L1377.85 627.206 L1377.85 672.576 L1370.39 672.576 L1370.39 665.608 Q1367.68 669.74 1364.07 671.766 Q1360.51 673.751 1355.77 673.751 Q1347.95 673.751 1343.9 668.89 Q1339.85 664.029 1339.85 654.671 M1358.6 626.112 L1358.6 626.112 Z" fill="#000000" fill-rule="nonzero" fill-opacity="1" /><path clip-path="url(#clip050)" d="M1427.67 686.349 L1427.67 692.142 L1384.57 692.142 L1384.57 686.349 L1427.67 686.349 Z" fill="#000000" fill-rule="nonzero" fill-opacity="1" /><path clip-path="url(#clip050)" d="M1463.6 628.543 L1463.6 635.591 Q1460.44 633.971 1457.04 633.161 Q1453.64 632.351 1449.99 632.351 Q1444.44 632.351 1441.65 634.052 Q1438.89 635.753 1438.89 639.156 Q1438.89 641.749 1440.88 643.247 Q1442.86 644.706 1448.86 646.043 L1451.41 646.61 Q1459.35 648.311 1462.67 651.43 Q1466.03 654.509 1466.03 660.059 Q1466.03 666.378 1461.01 670.064 Q1456.03 673.751 1447.28 673.751 Q1443.63 673.751 1439.66 673.022 Q1435.73 672.333 1431.36 670.915 L1431.36 663.218 Q1435.49 665.365 1439.5 666.459 Q1443.51 667.512 1447.44 667.512 Q1452.71 667.512 1455.54 665.73 Q1458.38 663.907 1458.38 660.626 Q1458.38 657.588 1456.31 655.967 Q1454.29 654.347 1447.36 652.848 L1444.77 652.24 Q1437.84 650.782 1434.76 647.784 Q1431.68 644.746 1431.68 639.48 Q1431.68 633.08 1436.22 629.596 Q1440.76 626.112 1449.1 626.112 Q1453.23 626.112 1456.88 626.72 Q1460.52 627.327 1463.6 628.543 Z" fill="#000000" fill-rule="nonzero" fill-opacity="1" /><path clip-path="url(#clip050)" d="M1485.11 665.77 L1485.11 689.833 L1477.62 689.833 L1477.62 627.206 L1485.11 627.206 L1485.11 634.092 Q1487.46 630.042 1491.03 628.097 Q1494.63 626.112 1499.62 626.112 Q1507.88 626.112 1513.02 632.675 Q1518.21 639.237 1518.21 649.931 Q1518.21 660.626 1513.02 667.188 Q1507.88 673.751 1499.62 673.751 Q1494.63 673.751 1491.03 671.806 Q1487.46 669.821 1485.11 665.77 M1510.47 649.931 Q1510.47 641.708 1507.07 637.05 Q1503.71 632.351 1497.79 632.351 Q1491.88 632.351 1488.48 637.05 Q1485.11 641.708 1485.11 649.931 Q1485.11 658.155 1488.48 662.854 Q1491.88 667.512 1497.79 667.512 Q1503.71 667.512 1507.07 662.854 Q1510.47 658.155 1510.47 649.931 Z" fill="#000000" fill-rule="nonzero" fill-opacity="1" /><path clip-path="url(#clip050)" d="M1548.15 632.432 Q1542.15 632.432 1538.67 637.131 Q1535.18 641.789 1535.18 649.931 Q1535.18 658.074 1538.63 662.773 Q1542.11 667.431 1548.15 667.431 Q1554.1 667.431 1557.58 662.732 Q1561.07 658.033 1561.07 649.931 Q1561.07 641.87 1557.58 637.171 Q1554.1 632.432 1548.15 632.432 M1548.15 626.112 Q1557.87 626.112 1563.42 632.432 Q1568.97 638.751 1568.97 649.931 Q1568.97 661.071 1563.42 667.431 Q1557.87 673.751 1548.15 673.751 Q1538.38 673.751 1532.83 667.431 Q1527.32 661.071 1527.32 649.931 Q1527.32 638.751 1532.83 632.432 Q1538.38 626.112 1548.15 626.112 Z" fill="#000000" fill-rule="nonzero" fill-opacity="1" /><path clip-path="url(#clip050)" d="M1588.7 614.324 L1588.7 627.206 L1604.05 627.206 L1604.05 632.999 L1588.7 632.999 L1588.7 657.628 Q1588.7 663.178 1590.19 664.758 Q1591.73 666.338 1596.39 666.338 L1604.05 666.338 L1604.05 672.576 L1596.39 672.576 Q1587.76 672.576 1584.48 669.376 Q1581.2 666.135 1581.2 657.628 L1581.2 632.999 L1575.73 632.999 L1575.73 627.206 L1581.2 627.206 L1581.2 614.324 L1588.7 614.324 Z" fill="#000000" fill-rule="nonzero" fill-opacity="1" /><path clip-path="url(#clip050)" d="M1648.32 686.349 L1648.32 692.142 L1605.22 692.142 L1605.22 686.349 L1648.32 686.349 Z" fill="#000000" fill-rule="nonzero" fill-opacity="1" /><path clip-path="url(#clip050)" d="M1684.26 628.543 L1684.26 635.591 Q1681.1 633.971 1677.69 633.161 Q1674.29 632.351 1670.65 632.351 Q1665.1 632.351 1662.3 634.052 Q1659.55 635.753 1659.55 639.156 Q1659.55 641.749 1661.53 643.247 Q1663.52 644.706 1669.51 646.043 L1672.06 646.61 Q1680 648.311 1683.32 651.43 Q1686.69 654.509 1686.69 660.059 Q1686.69 666.378 1681.66 670.064 Q1676.68 673.751 1667.93 673.751 Q1664.29 673.751 1660.32 673.022 Q1656.39 672.333 1652.01 670.915 L1652.01 663.218 Q1656.14 665.365 1660.15 666.459 Q1664.16 667.512 1668.09 667.512 Q1673.36 667.512 1676.19 665.73 Q1679.03 663.907 1679.03 660.626 Q1679.03 657.588 1676.96 655.967 Q1674.94 654.347 1668.01 652.848 L1665.42 652.24 Q1658.49 650.782 1655.41 647.784 Q1652.34 644.746 1652.34 639.48 Q1652.34 633.08 1656.87 629.596 Q1661.41 626.112 1669.75 626.112 Q1673.89 626.112 1677.53 626.72 Q1681.18 627.327 1684.26 628.543 Z" fill="#000000" fill-rule="nonzero" fill-opacity="1" /><path clip-path="url(#clip050)" d="M1737.36 648.028 L1737.36 651.673 L1703.09 651.673 Q1703.58 659.37 1707.71 663.421 Q1711.88 667.431 1719.3 667.431 Q1723.59 667.431 1727.6 666.378 Q1731.65 665.325 1735.62 663.218 L1735.62 670.267 Q1731.61 671.968 1727.4 672.86 Q1723.19 673.751 1718.85 673.751 Q1707.99 673.751 1701.63 667.431 Q1695.32 661.112 1695.32 650.337 Q1695.32 639.197 1701.31 632.675 Q1707.35 626.112 1717.55 626.112 Q1726.71 626.112 1732.02 632.026 Q1737.36 637.9 1737.36 648.028 M1729.91 645.84 Q1729.83 639.723 1726.47 636.077 Q1723.14 632.432 1717.64 632.432 Q1711.4 632.432 1707.63 635.956 Q1703.9 639.48 1703.34 645.881 L1729.91 645.84 Z" fill="#000000" fill-rule="nonzero" fill-opacity="1" /><path clip-path="url(#clip050)" d="M1749.6 609.544 L1757.05 609.544 L1757.05 672.576 L1749.6 672.576 L1749.6 609.544 Z" fill="#000000" fill-rule="nonzero" fill-opacity="1" /><path clip-path="url(#clip050)" d="M1772.65 609.544 L1780.1 609.544 L1780.1 672.576 L1772.65 672.576 L1772.65 609.544 Z" fill="#000000" fill-rule="nonzero" fill-opacity="1" /><path clip-path="url(#clip055)" d="M1189.43 1083.25 L1256.8 1083.25 L1324.17 1083.25 L1391.54 1083.25 L1458.92 1083.25 L1526.29 1083.25 L1593.66 1083.25 L1661.03 1083.25 L1728.41 1083.25 L1795.78 1083.25 L1863.15 1083.25 L1930.52 1083.25 L1930.52 728.079 L1863.15 805.287 L1795.78 791.322 L1728.41 873.087 L1661.03 1083.25 L1593.66 1083.25 L1526.29 1083.25 L1458.92 1083.25 L1391.54 1083.25 L1324.17 1083.25 L1256.8 1083.25 L1189.43 1083.25  Z" fill="#00467f" fill-rule="evenodd" fill-opacity="0.2"/>
<polyline clip-path="url(#clip055)" style="stroke:#00467f; stroke-linecap:round; stroke-linejoin:round; stroke-width:4; stroke-opacity:0; fill:none" points="1189.43,1083.25 1256.8,1083.25 1324.17,1083.25 1391.54,1083.25 1458.92,1083.25 1526.29,1083.25 1593.66,1083.25 1661.03,1083.25 1728.41,978.168 1795.78,937.285 1863.15,944.268 1930.52,905.664 "/>
<path clip-path="url(#clip055)" d="M1189.43 1083.25 L1256.8 1083.25 L1324.17 1083.25 L1391.54 1083.25 L1458.92 1083.25 L1526.29 1083.25 L1593.66 1083.25 L1661.03 1083.25 L1728.41 1083.25 L1795.78 1083.25 L1863.15 1083.25 L1930.52 1083.25 L1930.52 876.279 L1863.15 916.595 L1795.78 949.297 L1728.41 954.029 L1661.03 1083.25 L1593.66 1083.25 L1526.29 1083.25 L1458.92 1083.25 L1391.54 1083.25 L1324.17 1083.25 L1256.8 1083.25 L1189.43 1083.25  Z" fill="#00467f" fill-rule="evenodd" fill-opacity="0.2"/>
<polyline clip-path="url(#clip055)" style="stroke:#00467f; stroke-linecap:round; stroke-linejoin:round; stroke-width:4; stroke-opacity:0; fill:none" points="1189.43,1083.25 1256.8,1083.25 1324.17,1083.25 1391.54,1083.25 1458.92,1083.25 1526.29,1083.25 1593.66,1083.25 1661.03,1083.25 1728.41,1018.64 1795.78,1016.27 1863.15,999.922 1930.52,979.764 "/>
<path clip-path="url(#clip055)" d="M1189.43 1083.25 L1256.8 1083.25 L1324.17 1083.25 L1391.54 1083.25 L1458.92 1083.25 L1526.29 1083.25 L1593.66 1083.25 L1661.03 1083.25 L1728.41 1083.25 L1795.78 1083.25 L1863.15 1083.25 L1930.52 1076.7 L1930.52 922.717 L1863.15 969.225 L1795.78 993.551 L1728.41 1030.29 L1661.03 1083.25 L1593.66 1083.25 L1526.29 1083.25 L1458.92 1083.25 L1391.54 1083.25 L1324.17 1083.25 L1256.8 1083.25 L1189.43 1083.25  Z" fill="#00467f" fill-rule="evenodd" fill-opacity="0.2"/>
<polyline clip-path="url(#clip055)" style="stroke:#00467f; stroke-linecap:round; stroke-linejoin:round; stroke-width:4; stroke-opacity:0; fill:none" points="1189.43,1083.25 1256.8,1083.25 1324.17,1083.25 1391.54,1083.25 1458.92,1083.25 1526.29,1083.25 1593.66,1083.25 1661.03,1083.25 1728.41,1056.77 1795.78,1038.4 1863.15,1026.24 1930.52,999.707 "/>
<polyline clip-path="url(#clip055)" style="stroke:#00467f; stroke-linecap:round; stroke-linejoin:round; stroke-width:4; stroke-opacity:1; fill:none" points="1189.43,1083.25 1256.8,1083.25 1324.17,1083.25 1391.54,1083.25 1458.92,1083.25 1526.29,1083.25 1593.66,1083.25 1661.03,1083.25 1728.41,1083.25 1795.78,1074.42 1863.15,1047.93 1930.52,995.329 "/>
</svg>
