<?xml version="1.0" encoding="utf-8"?>
<svg xmlns="http://www.w3.org/2000/svg" xmlns:xlink="http://www.w3.org/1999/xlink" width="500" height="300" viewBox="0 0 2000 1200">
<defs>
  <clipPath id="clip650">
    <rect x="0" y="0" width="2000" height="1200"/>
  </clipPath>
</defs>
<path clip-path="url(#clip650)" d="M0 1200 L2000 1200 L2000 0 L0 0  Z" fill="#ffffff" fill-rule="evenodd" fill-opacity="1"/>
<defs>
  <clipPath id="clip651">
    <rect x="400" y="0" width="1401" height="1200"/>
  </clipPath>
</defs>
<path clip-path="url(#clip650)" d="M168.015 1035.39 L939.122 1035.39 L939.122 117.424 L168.015 117.424  Z" fill="#ffffff" fill-rule="evenodd" fill-opacity="1"/>
<defs>
  <clipPath id="clip652">
    <rect x="168" y="117" width="772" height="919"/>
  </clipPath>
</defs>
<polyline clip-path="url(#clip652)" style="stroke:#000000; stroke-linecap:round; stroke-linejoin:round; stroke-width:2; stroke-opacity:0.1; fill:none" points="174.992,1035.39 174.992,117.424 "/>
<polyline clip-path="url(#clip652)" style="stroke:#000000; stroke-linecap:round; stroke-linejoin:round; stroke-width:2; stroke-opacity:0.1; fill:none" points="323.454,1035.39 323.454,117.424 "/>
<polyline clip-path="url(#clip652)" style="stroke:#000000; stroke-linecap:round; stroke-linejoin:round; stroke-width:2; stroke-opacity:0.1; fill:none" points="471.915,1035.39 471.915,117.424 "/>
<polyline clip-path="url(#clip652)" style="stroke:#000000; stroke-linecap:round; stroke-linejoin:round; stroke-width:2; stroke-opacity:0.1; fill:none" points="620.376,1035.39 620.376,117.424 "/>
<polyline clip-path="url(#clip652)" style="stroke:#000000; stroke-linecap:round; stroke-linejoin:round; stroke-width:2; stroke-opacity:0.1; fill:none" points="768.837,1035.39 768.837,117.424 "/>
<polyline clip-path="url(#clip652)" style="stroke:#000000; stroke-linecap:round; stroke-linejoin:round; stroke-width:2; stroke-opacity:0.1; fill:none" points="917.298,1035.39 917.298,117.424 "/>
<polyline clip-path="url(#clip652)" style="stroke:#000000; stroke-linecap:round; stroke-linejoin:round; stroke-width:2; stroke-opacity:0.1; fill:none" points="168.015,1009.41 939.122,1009.41 "/>
<polyline clip-path="url(#clip652)" style="stroke:#000000; stroke-linecap:round; stroke-linejoin:round; stroke-width:2; stroke-opacity:0.1; fill:none" points="168.015,813.796 939.122,813.796 "/>
<polyline clip-path="url(#clip652)" style="stroke:#000000; stroke-linecap:round; stroke-linejoin:round; stroke-width:2; stroke-opacity:0.1; fill:none" points="168.015,618.183 939.122,618.183 "/>
<polyline clip-path="url(#clip652)" style="stroke:#000000; stroke-linecap:round; stroke-linejoin:round; stroke-width:2; stroke-opacity:0.1; fill:none" points="168.015,422.571 939.122,422.571 "/>
<polyline clip-path="url(#clip652)" style="stroke:#000000; stroke-linecap:round; stroke-linejoin:round; stroke-width:2; stroke-opacity:0.1; fill:none" points="168.015,226.959 939.122,226.959 "/>
<polyline clip-path="url(#clip650)" style="stroke:#000000; stroke-linecap:round; stroke-linejoin:round; stroke-width:4; stroke-opacity:1; fill:none" points="168.015,1035.39 939.122,1035.39 "/>
<polyline clip-path="url(#clip650)" style="stroke:#000000; stroke-linecap:round; stroke-linejoin:round; stroke-width:4; stroke-opacity:1; fill:none" points="174.992,1035.39 174.992,1016.49 "/>
<polyline clip-path="url(#clip650)" style="stroke:#000000; stroke-linecap:round; stroke-linejoin:round; stroke-width:4; stroke-opacity:1; fill:none" points="323.454,1035.39 323.454,1016.49 "/>
<polyline clip-path="url(#clip650)" style="stroke:#000000; stroke-linecap:round; stroke-linejoin:round; stroke-width:4; stroke-opacity:1; fill:none" points="471.915,1035.39 471.915,1016.49 "/>
<polyline clip-path="url(#clip650)" style="stroke:#000000; stroke-linecap:round; stroke-linejoin:round; stroke-width:4; stroke-opacity:1; fill:none" points="620.376,1035.39 620.376,1016.49 "/>
<polyline clip-path="url(#clip650)" style="stroke:#000000; stroke-linecap:round; stroke-linejoin:round; stroke-width:4; stroke-opacity:1; fill:none" points="768.837,1035.39 768.837,1016.49 "/>
<polyline clip-path="url(#clip650)" style="stroke:#000000; stroke-linecap:round; stroke-linejoin:round; stroke-width:4; stroke-opacity:1; fill:none" points="917.298,1035.39 917.298,1016.49 "/>
<path clip-path="url(#clip650)" d="M174.992 1063.11 Q171.381 1063.11 169.553 1066.67 Q167.747 1070.21 167.747 1077.34 Q167.747 1084.45 169.553 1088.01 Q171.381 1091.56 174.992 1091.56 Q178.627 1091.56 180.432 1088.01 Q182.261 1084.45 182.261 1077.34 Q182.261 1070.21 180.432 1066.67 Q178.627 1063.11 174.992 1063.11 M174.992 1059.4 Q180.803 1059.4 183.858 1064.01 Q186.937 1068.59 186.937 1077.34 Q186.937 1086.07 183.858 1090.68 Q180.803 1095.26 174.992 1095.26 Q169.182 1095.26 166.104 1090.68 Q163.048 1086.07 163.048 1077.34 Q163.048 1068.59 166.104 1064.01 Q169.182 1059.4 174.992 1059.4 Z" fill="#000000" fill-rule="nonzero" fill-opacity="1" /><path clip-path="url(#clip650)" d="M298.141 1090.65 L305.78 1090.65 L305.78 1064.29 L297.47 1065.95 L297.47 1061.69 L305.734 1060.03 L310.41 1060.03 L310.41 1090.65 L318.049 1090.65 L318.049 1094.59 L298.141 1094.59 L298.141 1090.65 Z" fill="#000000" fill-rule="nonzero" fill-opacity="1" /><path clip-path="url(#clip650)" d="M337.493 1063.11 Q333.882 1063.11 332.053 1066.67 Q330.248 1070.21 330.248 1077.34 Q330.248 1084.45 332.053 1088.01 Q333.882 1091.56 337.493 1091.56 Q341.127 1091.56 342.933 1088.01 Q344.761 1084.45 344.761 1077.34 Q344.761 1070.21 342.933 1066.67 Q341.127 1063.11 337.493 1063.11 M337.493 1059.4 Q343.303 1059.4 346.359 1064.01 Q349.437 1068.59 349.437 1077.34 Q349.437 1086.07 346.359 1090.68 Q343.303 1095.26 337.493 1095.26 Q331.683 1095.26 328.604 1090.68 Q325.548 1086.07 325.548 1077.34 Q325.548 1068.59 328.604 1064.01 Q331.683 1059.4 337.493 1059.4 Z" fill="#000000" fill-rule="nonzero" fill-opacity="1" /><path clip-path="url(#clip650)" d="M450.688 1090.65 L467.007 1090.65 L467.007 1094.59 L445.063 1094.59 L445.063 1090.65 Q447.725 1087.9 452.308 1083.27 Q456.915 1078.62 458.095 1077.27 Q460.341 1074.75 461.22 1073.01 Q462.123 1071.25 462.123 1069.56 Q462.123 1066.81 460.179 1065.07 Q458.257 1063.34 455.156 1063.34 Q452.956 1063.34 450.503 1064.1 Q448.072 1064.87 445.294 1066.42 L445.294 1061.69 Q448.119 1060.56 450.572 1059.98 Q453.026 1059.4 455.063 1059.4 Q460.433 1059.4 463.628 1062.09 Q466.822 1064.77 466.822 1069.26 Q466.822 1071.39 466.012 1073.31 Q465.225 1075.21 463.118 1077.81 Q462.54 1078.48 459.438 1081.69 Q456.336 1084.89 450.688 1090.65 Z" fill="#000000" fill-rule="nonzero" fill-opacity="1" /><path clip-path="url(#clip650)" d="M486.822 1063.11 Q483.211 1063.11 481.382 1066.67 Q479.577 1070.21 479.577 1077.34 Q479.577 1084.45 481.382 1088.01 Q483.211 1091.56 486.822 1091.56 Q490.456 1091.56 492.262 1088.01 Q494.09 1084.45 494.09 1077.34 Q494.09 1070.21 492.262 1066.67 Q490.456 1063.11 486.822 1063.11 M486.822 1059.4 Q492.632 1059.4 495.688 1064.01 Q498.766 1068.59 498.766 1077.34 Q498.766 1086.07 495.688 1090.68 Q492.632 1095.26 486.822 1095.26 Q481.012 1095.26 477.933 1090.68 Q474.878 1086.07 474.878 1077.34 Q474.878 1068.59 477.933 1064.01 Q481.012 1059.4 486.822 1059.4 Z" fill="#000000" fill-rule="nonzero" fill-opacity="1" /><path clip-path="url(#clip650)" d="M609.218 1075.95 Q612.575 1076.67 614.45 1078.94 Q616.348 1081.21 616.348 1084.54 Q616.348 1089.66 612.83 1092.46 Q609.311 1095.26 602.83 1095.26 Q600.654 1095.26 598.339 1094.82 Q596.047 1094.4 593.593 1093.55 L593.593 1089.03 Q595.538 1090.17 597.853 1090.75 Q600.168 1091.32 602.691 1091.32 Q607.089 1091.32 609.38 1089.59 Q611.695 1087.85 611.695 1084.54 Q611.695 1081.49 609.542 1079.77 Q607.413 1078.04 603.593 1078.04 L599.566 1078.04 L599.566 1074.19 L603.779 1074.19 Q607.228 1074.19 609.056 1072.83 Q610.885 1071.44 610.885 1068.85 Q610.885 1066.19 608.987 1064.77 Q607.112 1063.34 603.593 1063.34 Q601.672 1063.34 599.473 1063.75 Q597.274 1064.17 594.635 1065.05 L594.635 1060.88 Q597.297 1060.14 599.612 1059.77 Q601.95 1059.4 604.01 1059.4 Q609.334 1059.4 612.436 1061.83 Q615.538 1064.24 615.538 1068.36 Q615.538 1071.23 613.894 1073.22 Q612.251 1075.19 609.218 1075.95 Z" fill="#000000" fill-rule="nonzero" fill-opacity="1" /><path clip-path="url(#clip650)" d="M635.214 1063.11 Q631.603 1063.11 629.774 1066.67 Q627.968 1070.21 627.968 1077.34 Q627.968 1084.45 629.774 1088.01 Q631.603 1091.56 635.214 1091.56 Q638.848 1091.56 640.653 1088.01 Q642.482 1084.45 642.482 1077.34 Q642.482 1070.21 640.653 1066.67 Q638.848 1063.11 635.214 1063.11 M635.214 1059.4 Q641.024 1059.4 644.079 1064.01 Q647.158 1068.59 647.158 1077.34 Q647.158 1086.07 644.079 1090.68 Q641.024 1095.26 635.214 1095.26 Q629.403 1095.26 626.325 1090.68 Q623.269 1086.07 623.269 1077.34 Q623.269 1068.59 626.325 1064.01 Q629.403 1059.4 635.214 1059.4 Z" fill="#000000" fill-rule="nonzero" fill-opacity="1" /><path clip-path="url(#clip650)" d="M757.008 1064.1 L745.203 1082.55 L757.008 1082.55 L757.008 1064.1 M755.781 1060.03 L761.661 1060.03 L761.661 1082.55 L766.591 1082.55 L766.591 1086.44 L761.661 1086.44 L761.661 1094.59 L757.008 1094.59 L757.008 1086.44 L741.406 1086.44 L741.406 1081.93 L755.781 1060.03 Z" fill="#000000" fill-rule="nonzero" fill-opacity="1" /><path clip-path="url(#clip650)" d="M784.323 1063.11 Q780.712 1063.11 778.883 1066.67 Q777.078 1070.21 777.078 1077.34 Q777.078 1084.45 778.883 1088.01 Q780.712 1091.56 784.323 1091.56 Q787.957 1091.56 789.763 1088.01 Q791.591 1084.45 791.591 1077.34 Q791.591 1070.21 789.763 1066.67 Q787.957 1063.11 784.323 1063.11 M784.323 1059.4 Q790.133 1059.4 793.189 1064.01 Q796.267 1068.59 796.267 1077.34 Q796.267 1086.07 793.189 1090.68 Q790.133 1095.26 784.323 1095.26 Q778.513 1095.26 775.434 1090.68 Q772.378 1086.07 772.378 1077.34 Q772.378 1068.59 775.434 1064.01 Q778.513 1059.4 784.323 1059.4 Z" fill="#000000" fill-rule="nonzero" fill-opacity="1" /><path clip-path="url(#clip650)" d="M891.997 1060.03 L910.354 1060.03 L910.354 1063.96 L896.28 1063.96 L896.28 1072.44 Q897.298 1072.09 898.317 1071.93 Q899.335 1071.74 900.354 1071.74 Q906.141 1071.74 909.52 1074.91 Q912.9 1078.08 912.9 1083.5 Q912.9 1089.08 909.428 1092.18 Q905.955 1095.26 899.636 1095.26 Q897.46 1095.26 895.192 1094.89 Q892.946 1094.52 890.539 1093.78 L890.539 1089.08 Q892.622 1090.21 894.844 1090.77 Q897.067 1091.32 899.543 1091.32 Q903.548 1091.32 905.886 1089.22 Q908.224 1087.11 908.224 1083.5 Q908.224 1079.89 905.886 1077.78 Q903.548 1075.68 899.543 1075.68 Q897.668 1075.68 895.793 1076.09 Q893.942 1076.51 891.997 1077.39 L891.997 1060.03 Z" fill="#000000" fill-rule="nonzero" fill-opacity="1" /><path clip-path="url(#clip650)" d="M932.113 1063.11 Q928.502 1063.11 926.673 1066.67 Q924.867 1070.21 924.867 1077.34 Q924.867 1084.45 926.673 1088.01 Q928.502 1091.56 932.113 1091.56 Q935.747 1091.56 937.552 1088.01 Q939.381 1084.45 939.381 1077.34 Q939.381 1070.21 937.552 1066.67 Q935.747 1063.11 932.113 1063.11 M932.113 1059.4 Q937.923 1059.4 940.978 1064.01 Q944.057 1068.59 944.057 1077.34 Q944.057 1086.07 940.978 1090.68 Q937.923 1095.26 932.113 1095.26 Q926.303 1095.26 923.224 1090.68 Q920.168 1086.07 920.168 1077.34 Q920.168 1068.59 923.224 1064.01 Q926.303 1059.4 932.113 1059.4 Z" fill="#000000" fill-rule="nonzero" fill-opacity="1" /><path clip-path="url(#clip650)" d="M493.858 1128.29 L493.858 1134.56 Q490.198 1132.81 486.951 1131.95 Q483.705 1131.09 480.681 1131.09 Q475.429 1131.09 472.565 1133.13 Q469.732 1135.17 469.732 1138.92 Q469.732 1142.07 471.61 1143.7 Q473.52 1145.29 478.803 1146.27 L482.686 1147.07 Q489.879 1148.44 493.285 1151.91 Q496.723 1155.35 496.723 1161.14 Q496.723 1168.05 492.076 1171.61 Q487.46 1175.17 478.517 1175.17 Q475.143 1175.17 471.323 1174.41 Q467.536 1173.65 463.462 1172.15 L463.462 1165.53 Q467.377 1167.73 471.132 1168.84 Q474.888 1169.95 478.517 1169.95 Q484.023 1169.95 487.015 1167.79 Q490.007 1165.63 490.007 1161.62 Q490.007 1158.11 487.842 1156.14 Q485.71 1154.17 480.808 1153.18 L476.893 1152.42 Q469.7 1150.99 466.485 1147.93 Q463.271 1144.87 463.271 1139.43 Q463.271 1133.13 467.695 1129.5 Q472.151 1125.87 479.949 1125.87 Q483.291 1125.87 486.76 1126.48 Q490.229 1127.08 493.858 1128.29 Z" fill="#000000" fill-rule="nonzero" fill-opacity="1" /><path clip-path="url(#clip650)" d="M512.287 1128.48 L512.287 1138.6 L524.35 1138.6 L524.35 1143.16 L512.287 1143.16 L512.287 1162.51 Q512.287 1166.87 513.464 1168.11 Q514.674 1169.35 518.334 1169.35 L524.35 1169.35 L524.35 1174.25 L518.334 1174.25 Q511.555 1174.25 508.976 1171.74 Q506.398 1169.19 506.398 1162.51 L506.398 1143.16 L502.102 1143.16 L502.102 1138.6 L506.398 1138.6 L506.398 1128.48 L512.287 1128.48 Z" fill="#000000" fill-rule="nonzero" fill-opacity="1" /><path clip-path="url(#clip650)" d="M548.253 1156.33 Q541.155 1156.33 538.418 1157.96 Q535.681 1159.58 535.681 1163.49 Q535.681 1166.61 537.718 1168.46 Q539.787 1170.27 543.319 1170.27 Q548.189 1170.27 551.117 1166.84 Q554.078 1163.37 554.078 1157.64 L554.078 1156.33 L548.253 1156.33 M559.934 1153.91 L559.934 1174.25 L554.078 1174.25 L554.078 1168.84 Q552.072 1172.09 549.08 1173.65 Q546.089 1175.17 541.76 1175.17 Q536.285 1175.17 533.039 1172.12 Q529.824 1169.03 529.824 1163.88 Q529.824 1157.86 533.835 1154.8 Q537.877 1151.75 545.866 1151.75 L554.078 1151.75 L554.078 1151.18 Q554.078 1147.13 551.404 1144.94 Q548.762 1142.71 543.956 1142.71 Q540.901 1142.71 538.004 1143.44 Q535.108 1144.17 532.434 1145.64 L532.434 1140.23 Q535.649 1138.99 538.673 1138.38 Q541.696 1137.74 544.561 1137.74 Q552.295 1137.74 556.115 1141.75 Q559.934 1145.77 559.934 1153.91 Z" fill="#000000" fill-rule="nonzero" fill-opacity="1" /><path clip-path="url(#clip650)" d="M595.455 1156.01 Q595.455 1149.65 592.813 1146.15 Q590.203 1142.65 585.46 1142.65 Q580.75 1142.65 578.108 1146.15 Q575.498 1149.65 575.498 1156.01 Q575.498 1162.35 578.108 1165.85 Q580.75 1169.35 585.46 1169.35 Q590.203 1169.35 592.813 1165.85 Q595.455 1162.35 595.455 1156.01 M601.311 1169.83 Q601.311 1178.93 597.269 1183.35 Q593.227 1187.81 584.888 1187.81 Q581.8 1187.81 579.063 1187.33 Q576.326 1186.89 573.748 1185.93 L573.748 1180.24 Q576.326 1181.64 578.84 1182.3 Q581.355 1182.97 583.965 1182.97 Q589.725 1182.97 592.59 1179.95 Q595.455 1176.96 595.455 1170.88 L595.455 1167.98 Q593.64 1171.13 590.808 1172.69 Q587.975 1174.25 584.028 1174.25 Q577.471 1174.25 573.461 1169.25 Q569.451 1164.26 569.451 1156.01 Q569.451 1147.74 573.461 1142.74 Q577.471 1137.74 584.028 1137.74 Q587.975 1137.74 590.808 1139.3 Q593.64 1140.86 595.455 1144.01 L595.455 1138.6 L601.311 1138.6 L601.311 1169.83 Z" fill="#000000" fill-rule="nonzero" fill-opacity="1" /><path clip-path="url(#clip650)" d="M643.866 1154.96 L643.866 1157.83 L616.939 1157.83 Q617.321 1163.88 620.567 1167.06 Q623.846 1170.21 629.67 1170.21 Q633.044 1170.21 636.195 1169.38 Q639.378 1168.55 642.497 1166.9 L642.497 1172.44 Q639.346 1173.77 636.036 1174.47 Q632.726 1175.17 629.32 1175.17 Q620.79 1175.17 615.793 1170.21 Q610.828 1165.24 610.828 1156.78 Q610.828 1148.03 615.538 1142.9 Q620.281 1137.74 628.302 1137.74 Q635.495 1137.74 639.664 1142.39 Q643.866 1147.01 643.866 1154.96 M638.009 1153.25 Q637.946 1148.44 635.304 1145.57 Q632.694 1142.71 628.365 1142.71 Q623.464 1142.71 620.504 1145.48 Q617.575 1148.25 617.13 1153.28 L638.009 1153.25 Z" fill="#000000" fill-rule="nonzero" fill-opacity="1" /><polyline clip-path="url(#clip650)" style="stroke:#000000; stroke-linecap:round; stroke-linejoin:round; stroke-width:4; stroke-opacity:1; fill:none" points="168.015,1035.39 168.015,117.424 "/>
<polyline clip-path="url(#clip650)" style="stroke:#000000; stroke-linecap:round; stroke-linejoin:round; stroke-width:4; stroke-opacity:1; fill:none" points="168.015,1009.41 186.912,1009.41 "/>
<polyline clip-path="url(#clip650)" style="stroke:#000000; stroke-linecap:round; stroke-linejoin:round; stroke-width:4; stroke-opacity:1; fill:none" points="168.015,813.796 186.912,813.796 "/>
<polyline clip-path="url(#clip650)" style="stroke:#000000; stroke-linecap:round; stroke-linejoin:round; stroke-width:4; stroke-opacity:1; fill:none" points="168.015,618.183 186.912,618.183 "/>
<polyline clip-path="url(#clip650)" style="stroke:#000000; stroke-linecap:round; stroke-linejoin:round; stroke-width:4; stroke-opacity:1; fill:none" points="168.015,422.571 186.912,422.571 "/>
<polyline clip-path="url(#clip650)" style="stroke:#000000; stroke-linecap:round; stroke-linejoin:round; stroke-width:4; stroke-opacity:1; fill:none" points="168.015,226.959 186.912,226.959 "/>
<path clip-path="url(#clip650)" d="M126.07 995.206 Q122.459 995.206 120.631 998.771 Q118.825 1002.31 118.825 1009.44 Q118.825 1016.55 120.631 1020.11 Q122.459 1023.66 126.07 1023.66 Q129.705 1023.66 131.51 1020.11 Q133.339 1016.55 133.339 1009.44 Q133.339 1002.31 131.51 998.771 Q129.705 995.206 126.07 995.206 M126.07 991.503 Q131.881 991.503 134.936 996.109 Q138.015 1000.69 138.015 1009.44 Q138.015 1018.17 134.936 1022.78 Q131.881 1027.36 126.07 1027.36 Q120.26 1027.36 117.182 1022.78 Q114.126 1018.17 114.126 1009.44 Q114.126 1000.69 117.182 996.109 Q120.26 991.503 126.07 991.503 Z" fill="#000000" fill-rule="nonzero" fill-opacity="1" /><path clip-path="url(#clip650)" d="M59.7745 827.14 L76.0939 827.14 L76.0939 831.076 L54.1495 831.076 L54.1495 827.14 Q56.8115 824.386 61.3949 819.756 Q66.0013 815.103 67.1819 813.761 Q69.4272 811.238 70.3068 809.502 Q71.2096 807.742 71.2096 806.053 Q71.2096 803.298 69.2652 801.562 Q67.3439 799.826 64.2421 799.826 Q62.043 799.826 59.5893 800.59 Q57.1588 801.353 54.381 802.904 L54.381 798.182 Q57.2051 797.048 59.6588 796.469 Q62.1124 795.891 64.1495 795.891 Q69.5198 795.891 72.7142 798.576 Q75.9087 801.261 75.9087 805.752 Q75.9087 807.881 75.0985 809.802 Q74.3115 811.701 72.205 814.293 Q71.6263 814.965 68.5245 818.182 Q65.4226 821.377 59.7745 827.14 Z" fill="#000000" fill-rule="nonzero" fill-opacity="1" /><path clip-path="url(#clip650)" d="M95.9086 799.594 Q92.2975 799.594 90.4688 803.159 Q88.6632 806.701 88.6632 813.83 Q88.6632 820.937 90.4688 824.501 Q92.2975 828.043 95.9086 828.043 Q99.5428 828.043 101.348 824.501 Q103.177 820.937 103.177 813.83 Q103.177 806.701 101.348 803.159 Q99.5428 799.594 95.9086 799.594 M95.9086 795.891 Q101.719 795.891 104.774 800.497 Q107.853 805.08 107.853 813.83 Q107.853 822.557 104.774 827.164 Q101.719 831.747 95.9086 831.747 Q90.0984 831.747 87.0197 827.164 Q83.9642 822.557 83.9642 813.83 Q83.9642 805.08 87.0197 800.497 Q90.0984 795.891 95.9086 795.891 Z" fill="#000000" fill-rule="nonzero" fill-opacity="1" /><path clip-path="url(#clip650)" d="M126.07 799.594 Q122.459 799.594 120.631 803.159 Q118.825 806.701 118.825 813.83 Q118.825 820.937 120.631 824.501 Q122.459 828.043 126.07 828.043 Q129.705 828.043 131.51 824.501 Q133.339 820.937 133.339 813.83 Q133.339 806.701 131.51 803.159 Q129.705 799.594 126.07 799.594 M126.07 795.891 Q131.881 795.891 134.936 800.497 Q138.015 805.08 138.015 813.83 Q138.015 822.557 134.936 827.164 Q131.881 831.747 126.07 831.747 Q120.26 831.747 117.182 827.164 Q114.126 822.557 114.126 813.83 Q114.126 805.08 117.182 800.497 Q120.26 795.891 126.07 795.891 Z" fill="#000000" fill-rule="nonzero" fill-opacity="1" /><path clip-path="url(#clip650)" d="M68.5939 604.977 L56.7884 623.426 L68.5939 623.426 L68.5939 604.977 M67.367 600.903 L73.2466 600.903 L73.2466 623.426 L78.1772 623.426 L78.1772 627.315 L73.2466 627.315 L73.2466 635.463 L68.5939 635.463 L68.5939 627.315 L52.9921 627.315 L52.9921 622.801 L67.367 600.903 Z" fill="#000000" fill-rule="nonzero" fill-opacity="1" /><path clip-path="url(#clip650)" d="M95.9086 603.982 Q92.2975 603.982 90.4688 607.547 Q88.6632 611.088 88.6632 618.218 Q88.6632 625.324 90.4688 628.889 Q92.2975 632.431 95.9086 632.431 Q99.5428 632.431 101.348 628.889 Q103.177 625.324 103.177 618.218 Q103.177 611.088 101.348 607.547 Q99.5428 603.982 95.9086 603.982 M95.9086 600.278 Q101.719 600.278 104.774 604.885 Q107.853 609.468 107.853 618.218 Q107.853 626.945 104.774 631.551 Q101.719 636.135 95.9086 636.135 Q90.0984 636.135 87.0197 631.551 Q83.9642 626.945 83.9642 618.218 Q83.9642 609.468 87.0197 604.885 Q90.0984 600.278 95.9086 600.278 Z" fill="#000000" fill-rule="nonzero" fill-opacity="1" /><path clip-path="url(#clip650)" d="M126.07 603.982 Q122.459 603.982 120.631 607.547 Q118.825 611.088 118.825 618.218 Q118.825 625.324 120.631 628.889 Q122.459 632.431 126.07 632.431 Q129.705 632.431 131.51 628.889 Q133.339 625.324 133.339 618.218 Q133.339 611.088 131.51 607.547 Q129.705 603.982 126.07 603.982 M126.07 600.278 Q131.881 600.278 134.936 604.885 Q138.015 609.468 138.015 618.218 Q138.015 626.945 134.936 631.551 Q131.881 636.135 126.07 636.135 Q120.26 636.135 117.182 631.551 Q114.126 626.945 114.126 618.218 Q114.126 609.468 117.182 604.885 Q120.26 600.278 126.07 600.278 Z" fill="#000000" fill-rule="nonzero" fill-opacity="1" /><path clip-path="url(#clip650)" d="M66.3254 420.708 Q63.1773 420.708 61.3254 422.86 Q59.4967 425.013 59.4967 428.763 Q59.4967 432.49 61.3254 434.666 Q63.1773 436.819 66.3254 436.819 Q69.4735 436.819 71.3022 434.666 Q73.1541 432.49 73.1541 428.763 Q73.1541 425.013 71.3022 422.86 Q69.4735 420.708 66.3254 420.708 M75.6077 406.055 L75.6077 410.314 Q73.8485 409.481 72.0429 409.041 Q70.2606 408.601 68.5013 408.601 Q63.8717 408.601 61.418 411.726 Q58.9875 414.851 58.6402 421.171 Q60.006 419.157 62.0662 418.092 Q64.1263 417.004 66.6032 417.004 Q71.8115 417.004 74.8207 420.175 Q77.8531 423.323 77.8531 428.763 Q77.8531 434.087 74.705 437.305 Q71.5568 440.522 66.3254 440.522 Q60.33 440.522 57.1588 435.939 Q53.9875 431.333 53.9875 422.606 Q53.9875 414.411 57.8764 409.55 Q61.7652 404.666 68.3161 404.666 Q70.0754 404.666 71.8578 405.013 Q73.6633 405.361 75.6077 406.055 Z" fill="#000000" fill-rule="nonzero" fill-opacity="1" /><path clip-path="url(#clip650)" d="M95.9086 408.37 Q92.2975 408.37 90.4688 411.935 Q88.6632 415.476 88.6632 422.606 Q88.6632 429.712 90.4688 433.277 Q92.2975 436.819 95.9086 436.819 Q99.5428 436.819 101.348 433.277 Q103.177 429.712 103.177 422.606 Q103.177 415.476 101.348 411.935 Q99.5428 408.37 95.9086 408.37 M95.9086 404.666 Q101.719 404.666 104.774 409.273 Q107.853 413.856 107.853 422.606 Q107.853 431.333 104.774 435.939 Q101.719 440.522 95.9086 440.522 Q90.0984 440.522 87.0197 435.939 Q83.9642 431.333 83.9642 422.606 Q83.9642 413.856 87.0197 409.273 Q90.0984 404.666 95.9086 404.666 Z" fill="#000000" fill-rule="nonzero" fill-opacity="1" /><path clip-path="url(#clip650)" d="M126.07 408.37 Q122.459 408.37 120.631 411.935 Q118.825 415.476 118.825 422.606 Q118.825 429.712 120.631 433.277 Q122.459 436.819 126.07 436.819 Q129.705 436.819 131.51 433.277 Q133.339 429.712 133.339 422.606 Q133.339 415.476 131.51 411.935 Q129.705 408.37 126.07 408.37 M126.07 404.666 Q131.881 404.666 134.936 409.273 Q138.015 413.856 138.015 422.606 Q138.015 431.333 134.936 435.939 Q131.881 440.522 126.07 440.522 Q120.26 440.522 117.182 435.939 Q114.126 431.333 114.126 422.606 Q114.126 413.856 117.182 409.273 Q120.26 404.666 126.07 404.666 Z" fill="#000000" fill-rule="nonzero" fill-opacity="1" /><path clip-path="url(#clip650)" d="M65.7467 227.827 Q62.4134 227.827 60.4921 229.609 Q58.5939 231.392 58.5939 234.517 Q58.5939 237.642 60.4921 239.424 Q62.4134 241.207 65.7467 241.207 Q69.08 241.207 71.0013 239.424 Q72.9226 237.619 72.9226 234.517 Q72.9226 231.392 71.0013 229.609 Q69.1032 227.827 65.7467 227.827 M61.0708 225.836 Q58.0615 225.095 56.3717 223.035 Q54.7051 220.975 54.7051 218.012 Q54.7051 213.869 57.6449 211.461 Q60.6078 209.054 65.7467 209.054 Q70.9087 209.054 73.8485 211.461 Q76.7883 213.869 76.7883 218.012 Q76.7883 220.975 75.0985 223.035 Q73.4318 225.095 70.4457 225.836 Q73.8253 226.623 75.7003 228.915 Q77.5985 231.207 77.5985 234.517 Q77.5985 239.54 74.5198 242.225 Q71.4642 244.91 65.7467 244.91 Q60.0291 244.91 56.9504 242.225 Q53.8949 239.54 53.8949 234.517 Q53.8949 231.207 55.793 228.915 Q57.6912 226.623 61.0708 225.836 M59.3578 218.452 Q59.3578 221.137 61.0245 222.642 Q62.7143 224.146 65.7467 224.146 Q68.7559 224.146 70.4457 222.642 Q72.1587 221.137 72.1587 218.452 Q72.1587 215.767 70.4457 214.262 Q68.7559 212.758 65.7467 212.758 Q62.7143 212.758 61.0245 214.262 Q59.3578 215.767 59.3578 218.452 Z" fill="#000000" fill-rule="nonzero" fill-opacity="1" /><path clip-path="url(#clip650)" d="M95.9086 212.758 Q92.2975 212.758 90.4688 216.322 Q88.6632 219.864 88.6632 226.994 Q88.6632 234.1 90.4688 237.665 Q92.2975 241.207 95.9086 241.207 Q99.5428 241.207 101.348 237.665 Q103.177 234.1 103.177 226.994 Q103.177 219.864 101.348 216.322 Q99.5428 212.758 95.9086 212.758 M95.9086 209.054 Q101.719 209.054 104.774 213.66 Q107.853 218.244 107.853 226.994 Q107.853 235.72 104.774 240.327 Q101.719 244.91 95.9086 244.91 Q90.0984 244.91 87.0197 240.327 Q83.9642 235.72 83.9642 226.994 Q83.9642 218.244 87.0197 213.66 Q90.0984 209.054 95.9086 209.054 Z" fill="#000000" fill-rule="nonzero" fill-opacity="1" /><path clip-path="url(#clip650)" d="M126.07 212.758 Q122.459 212.758 120.631 216.322 Q118.825 219.864 118.825 226.994 Q118.825 234.1 120.631 237.665 Q122.459 241.207 126.07 241.207 Q129.705 241.207 131.51 237.665 Q133.339 234.1 133.339 226.994 Q133.339 219.864 131.51 216.322 Q129.705 212.758 126.07 212.758 M126.07 209.054 Q131.881 209.054 134.936 213.66 Q138.015 218.244 138.015 226.994 Q138.015 235.72 134.936 240.327 Q131.881 244.91 126.07 244.91 Q120.26 244.91 117.182 240.327 Q114.126 235.72 114.126 226.994 Q114.126 218.244 117.182 213.66 Q120.26 209.054 126.07 209.054 Z" fill="#000000" fill-rule="nonzero" fill-opacity="1" /><path clip-path="url(#clip650)" d="M280.983 27.2059 L264.577 49.2833 L281.834 72.576 L273.043 72.576 L259.837 54.752 L246.631 72.576 L237.841 72.576 L255.462 48.8377 L239.34 27.2059 L248.13 27.2059 L260.161 43.369 L272.192 27.2059 L280.983 27.2059 Z" fill="#000000" fill-rule="nonzero" fill-opacity="1" /><path clip-path="url(#clip650)" d="M326.839 86.3491 L326.839 92.1419 L283.738 92.1419 L283.738 86.3491 L326.839 86.3491 Z" fill="#000000" fill-rule="nonzero" fill-opacity="1" /><path clip-path="url(#clip650)" d="M333.847 27.2059 L341.301 27.2059 L341.301 72.576 L333.847 72.576 L333.847 27.2059 M333.847 9.54393 L341.301 9.54393 L341.301 18.9825 L333.847 18.9825 L333.847 9.54393 Z" fill="#000000" fill-rule="nonzero" fill-opacity="1" /><path clip-path="url(#clip650)" d="M394.611 45.1919 L394.611 72.576 L387.157 72.576 L387.157 45.4349 Q387.157 38.994 384.646 35.7938 Q382.134 32.5936 377.111 32.5936 Q371.075 32.5936 367.591 36.4419 Q364.107 40.2903 364.107 46.9338 L364.107 72.576 L356.613 72.576 L356.613 27.2059 L364.107 27.2059 L364.107 34.2544 Q366.781 30.163 370.386 28.1376 Q374.032 26.1121 378.772 26.1121 Q386.59 26.1121 390.6 30.9732 Q394.611 35.7938 394.611 45.1919 Z" fill="#000000" fill-rule="nonzero" fill-opacity="1" /><path clip-path="url(#clip650)" d="M404.13 27.2059 L412.03 27.2059 L426.208 65.2844 L440.386 27.2059 L448.285 27.2059 L431.271 72.576 L421.144 72.576 L404.13 27.2059 Z" fill="#000000" fill-rule="nonzero" fill-opacity="1" /><path clip-path="url(#clip650)" d="M497.382 48.0275 L497.382 51.6733 L463.112 51.6733 Q463.598 59.3701 467.73 63.421 Q471.902 67.4314 479.315 67.4314 Q483.609 67.4314 487.62 66.3781 Q491.67 65.3249 495.64 63.2184 L495.64 70.267 Q491.63 71.9684 487.417 72.8596 Q483.204 73.7508 478.87 73.7508 Q468.013 73.7508 461.653 67.4314 Q455.334 61.1119 455.334 50.3365 Q455.334 39.1965 461.329 32.6746 Q467.365 26.1121 477.573 26.1121 Q486.728 26.1121 492.035 32.0264 Q497.382 37.9003 497.382 48.0275 M489.929 45.84 Q489.848 39.7232 486.485 36.0774 Q483.164 32.4315 477.654 32.4315 Q471.416 32.4315 467.649 35.9558 Q463.922 39.4801 463.355 45.8805 L489.929 45.84 Z" fill="#000000" fill-rule="nonzero" fill-opacity="1" /><path clip-path="url(#clip650)" d="M547.33 45.1919 L547.33 72.576 L539.876 72.576 L539.876 45.4349 Q539.876 38.994 537.365 35.7938 Q534.853 32.5936 529.83 32.5936 Q523.794 32.5936 520.31 36.4419 Q516.827 40.2903 516.827 46.9338 L516.827 72.576 L509.332 72.576 L509.332 27.2059 L516.827 27.2059 L516.827 34.2544 Q519.5 30.163 523.105 28.1376 Q526.751 26.1121 531.491 26.1121 Q539.309 26.1121 543.319 30.9732 Q547.33 35.7938 547.33 45.1919 Z" fill="#000000" fill-rule="nonzero" fill-opacity="1" /><path clip-path="url(#clip650)" d="M569.569 14.324 L569.569 27.2059 L584.922 27.2059 L584.922 32.9987 L569.569 32.9987 L569.569 57.6282 Q569.569 63.1779 571.068 64.7578 Q572.608 66.3376 577.266 66.3376 L584.922 66.3376 L584.922 72.576 L577.266 72.576 Q568.638 72.576 565.356 69.3758 Q562.075 66.1351 562.075 57.6282 L562.075 32.9987 L556.606 32.9987 L556.606 27.2059 L562.075 27.2059 L562.075 14.324 L569.569 14.324 Z" fill="#000000" fill-rule="nonzero" fill-opacity="1" /><path clip-path="url(#clip650)" d="M612.306 32.4315 Q606.311 32.4315 602.827 37.1306 Q599.343 41.7891 599.343 49.9314 Q599.343 58.0738 602.787 62.7728 Q606.271 67.4314 612.306 67.4314 Q618.261 67.4314 621.745 62.7323 Q625.229 58.0333 625.229 49.9314 Q625.229 41.8701 621.745 37.1711 Q618.261 32.4315 612.306 32.4315 M612.306 26.1121 Q622.029 26.1121 627.578 32.4315 Q633.128 38.7509 633.128 49.9314 Q633.128 61.0714 627.578 67.4314 Q622.029 73.7508 612.306 73.7508 Q602.544 73.7508 596.994 67.4314 Q591.485 61.0714 591.485 49.9314 Q591.485 38.7509 596.994 32.4315 Q602.544 26.1121 612.306 26.1121 Z" fill="#000000" fill-rule="nonzero" fill-opacity="1" /><path clip-path="url(#clip650)" d="M671.774 34.1734 Q670.518 33.4443 669.019 33.1202 Q667.561 32.7556 665.778 32.7556 Q659.459 32.7556 656.056 36.8875 Q652.694 40.9789 652.694 48.6757 L652.694 72.576 L645.2 72.576 L645.2 27.2059 L652.694 27.2059 L652.694 34.2544 Q655.043 30.1225 658.811 28.1376 Q662.578 26.1121 667.966 26.1121 Q668.735 26.1121 669.667 26.2337 Q670.599 26.3147 671.733 26.5172 L671.774 34.1734 Z" fill="#000000" fill-rule="nonzero" fill-opacity="1" /><path clip-path="url(#clip650)" d="M698.469 76.7889 Q695.309 84.8907 692.312 87.3618 Q689.314 89.8329 684.291 89.8329 L678.336 89.8329 L678.336 83.5945 L682.711 83.5945 Q685.79 83.5945 687.491 82.1361 Q689.193 80.6778 691.259 75.2496 L692.595 71.8468 L674.245 27.2059 L682.144 27.2059 L696.322 62.6918 L710.5 27.2059 L718.4 27.2059 L698.469 76.7889 Z" fill="#000000" fill-rule="nonzero" fill-opacity="1" /><path clip-path="url(#clip650)" d="M717.913 62.2867 L726.461 62.2867 L726.461 72.576 L717.913 72.576 L717.913 62.2867 Z" fill="#000000" fill-rule="nonzero" fill-opacity="1" /><path clip-path="url(#clip650)" d="M760.813 32.4315 Q754.817 32.4315 751.333 37.1306 Q747.85 41.7891 747.85 49.9314 Q747.85 58.0738 751.293 62.7728 Q754.777 67.4314 760.813 67.4314 Q766.767 67.4314 770.251 62.7323 Q773.735 58.0333 773.735 49.9314 Q773.735 41.8701 770.251 37.1711 Q766.767 32.4315 760.813 32.4315 M760.813 26.1121 Q770.535 26.1121 776.084 32.4315 Q781.634 38.7509 781.634 49.9314 Q781.634 61.0714 776.084 67.4314 Q770.535 73.7508 760.813 73.7508 Q751.05 73.7508 745.5 67.4314 Q739.991 61.0714 739.991 49.9314 Q739.991 38.7509 745.5 32.4315 Q751.05 26.1121 760.813 26.1121 Z" fill="#000000" fill-rule="nonzero" fill-opacity="1" /><path clip-path="url(#clip650)" d="M793.22 54.671 L793.22 27.2059 L800.673 27.2059 L800.673 54.3874 Q800.673 60.8284 803.185 64.0691 Q805.697 67.2693 810.72 67.2693 Q816.756 67.2693 820.239 63.421 Q823.764 59.5726 823.764 52.9291 L823.764 27.2059 L831.217 27.2059 L831.217 72.576 L823.764 72.576 L823.764 65.6084 Q821.049 69.7404 817.444 71.7658 Q813.879 73.7508 809.14 73.7508 Q801.322 73.7508 797.271 68.8897 Q793.22 64.0286 793.22 54.671 M811.975 26.1121 L811.975 26.1121 Z" fill="#000000" fill-rule="nonzero" fill-opacity="1" /><path clip-path="url(#clip650)" d="M853.943 14.324 L853.943 27.2059 L869.296 27.2059 L869.296 32.9987 L853.943 32.9987 L853.943 57.6282 Q853.943 63.1779 855.442 64.7578 Q856.981 66.3376 861.64 66.3376 L869.296 66.3376 L869.296 72.576 L861.64 72.576 Q853.011 72.576 849.73 69.3758 Q846.449 66.1351 846.449 57.6282 L846.449 32.9987 L840.98 32.9987 L840.98 27.2059 L846.449 27.2059 L846.449 14.324 L853.943 14.324 Z" fill="#000000" fill-rule="nonzero" fill-opacity="1" /><path clip-path="url(#clip652)" d="M189.839 911.602 L204.685 1009.41 L219.531 1009.41 L234.377 1009.41 L249.223 1009.41 L264.069 1009.41 L278.915 1009.41 L293.761 1009.41 L308.607 1009.41 L323.454 1009.41 L338.3 1009.41 L353.146 1009.41 L367.992 1009.41 L382.838 1009.41 L397.684 1009.41 L412.53 1009.41 L427.376 1009.41 L442.222 1009.41 L457.069 1009.41 L471.915 1009.41 L486.761 1009.41 L501.607 1009.41 L516.453 1009.41 L531.299 1009.41 L546.145 1009.41 L560.991 1009.41 L575.837 1009.41 L590.684 1009.41 L605.53 1009.41 L620.376 1009.41 L635.222 1009.41 L650.068 1009.41 L664.914 1009.41 L679.76 1009.41 L694.606 1009.41 L709.452 1009.41 L724.299 1009.41 L739.145 1009.41 L753.991 1009.41 L768.837 1009.41 L783.683 1009.41 L798.529 1009.41 L813.375 1009.41 L828.221 1009.41 L843.067 1009.41 L857.914 1009.41 L872.76 1009.41 L887.606 1009.41 L902.452 1009.41 L917.298 1009.41 L917.298 281.397 L902.452 276.234 L887.606 276.234 L872.76 291.081 L857.914 291.081 L843.067 280.506 L828.221 280.506 L813.375 295.534 L798.529 295.534 L783.683 301.465 L768.837 301.465 L753.991 283.496 L739.145 283.496 L724.299 337.126 L709.452 337.126 L694.606 275.14 L679.76 275.14 L664.914 276.459 L650.068 276.459 L635.222 249.293 L620.376 249.293 L605.53 272.591 L590.684 272.591 L575.837 249.699 L560.991 249.699 L546.145 282.892 L531.299 282.892 L516.453 250.48 L501.607 250.48 L486.761 273.474 L471.915 273.474 L457.069 322.686 L442.222 322.686 L427.376 306.407 L412.53 306.407 L397.684 269.795 L382.838 269.795 L367.992 273.588 L353.146 273.588 L338.3 254.884 L323.454 254.884 L308.607 193.711 L293.761 193.711 L278.915 201.077 L264.069 201.077 L249.223 143.404 L234.377 143.404 L219.531 852.894 L204.685 852.894 L189.839 911.602  Z" fill="#00467f" fill-rule="evenodd" fill-opacity="0.2"/>
<polyline clip-path="url(#clip652)" style="stroke:#00467f; stroke-linecap:round; stroke-linejoin:round; stroke-width:4; stroke-opacity:0; fill:none" points="189.839,911.602 204.685,931.151 219.531,931.151 234.377,576.406 249.223,576.406 264.069,605.242 278.915,605.242 293.761,601.559 308.607,601.559 323.454,632.146 338.3,632.146 353.146,641.498 367.992,641.498 382.838,639.601 397.684,639.601 412.53,657.907 427.376,657.907 442.222,666.047 457.069,666.047 471.915,641.441 486.761,641.441 501.607,629.944 516.453,629.944 531.299,646.15 546.145,646.15 560.991,629.554 575.837,629.554 590.684,640.999 605.53,640.999 620.376,629.35 635.222,629.35 650.068,642.933 664.914,642.933 679.76,642.274 694.606,642.274 709.452,673.267 724.299,673.267 739.145,646.452 753.991,646.452 768.837,655.436 783.683,655.436 798.529,652.471 813.375,652.471 828.221,644.957 843.067,644.957 857.914,650.244 872.76,650.244 887.606,642.821 902.452,642.821 917.298,645.403 "/>
<path clip-path="url(#clip652)" d="M189.839 911.602 L204.685 1009.41 L219.531 1009.41 L234.377 1009.41 L249.223 1009.41 L264.069 1009.41 L278.915 1009.41 L293.761 1009.41 L308.607 1009.41 L323.454 1009.41 L338.3 1009.41 L353.146 1009.41 L367.992 1009.41 L382.838 1009.41 L397.684 1009.41 L412.53 1009.41 L427.376 1009.41 L442.222 1009.41 L457.069 1009.41 L471.915 1009.41 L486.761 1009.41 L501.607 1009.41 L516.453 1009.41 L531.299 1009.41 L546.145 1009.41 L560.991 1009.41 L575.837 1009.41 L590.684 1009.41 L605.53 1009.41 L620.376 1009.41 L635.222 1009.41 L650.068 1009.41 L664.914 1009.41 L679.76 1009.41 L694.606 1009.41 L709.452 1009.41 L724.299 1009.41 L739.145 1009.41 L753.991 1009.41 L768.837 1009.41 L783.683 1009.41 L798.529 1009.41 L813.375 1009.41 L828.221 1009.41 L843.067 1009.41 L857.914 1009.41 L872.76 1009.41 L887.606 1009.41 L902.452 1009.41 L917.298 1009.41 L917.298 421.886 L902.452 449.071 L887.606 449.071 L872.76 407.968 L857.914 407.968 L843.067 419.9 L828.221 419.9 L813.375 433.845 L798.529 433.845 L783.683 412.635 L768.837 412.635 L753.991 429.332 L739.145 429.332 L724.299 466.916 L709.452 466.916 L694.606 413.093 L679.76 413.093 L664.914 428.337 L650.068 428.337 L635.222 411.083 L620.376 411.083 L605.53 413.912 L590.684 413.912 L575.837 400.989 L560.991 400.989 L546.145 401.529 L531.299 401.529 L516.453 408.355 L501.607 408.355 L486.761 408.032 L471.915 408.032 L457.069 417.127 L442.222 417.127 L427.376 429.526 L412.53 429.526 L397.684 428.18 L382.838 428.18 L367.992 417.126 L353.146 417.126 L338.3 409.399 L323.454 409.399 L308.607 401.946 L293.761 401.946 L278.915 411.015 L264.069 411.015 L249.223 283.636 L234.377 283.636 L219.531 852.894 L204.685 852.894 L189.839 911.602  Z" fill="#00467f" fill-rule="evenodd" fill-opacity="0.2"/>
<polyline clip-path="url(#clip652)" style="stroke:#00467f; stroke-linecap:round; stroke-linejoin:round; stroke-width:4; stroke-opacity:0; fill:none" points="189.839,911.602 204.685,931.151 219.531,931.151 234.377,646.522 249.223,646.522 264.069,710.211 278.915,710.211 293.761,705.677 308.607,705.677 323.454,709.403 338.3,709.403 353.146,713.267 367.992,713.267 382.838,718.794 397.684,718.794 412.53,719.467 427.376,719.467 442.222,713.267 457.069,713.267 471.915,708.72 486.761,708.72 501.607,708.881 516.453,708.881 531.299,705.468 546.145,705.468 560.991,705.199 575.837,705.199 590.684,711.66 605.53,711.66 620.376,710.245 635.222,710.245 650.068,718.872 664.914,718.872 679.76,711.25 694.606,711.25 709.452,738.162 724.299,738.162 739.145,719.37 753.991,719.37 768.837,711.022 783.683,711.022 798.529,721.627 813.375,721.627 828.221,714.654 843.067,714.654 857.914,708.688 872.76,708.688 887.606,729.239 902.452,729.239 917.298,715.647 "/>
<path clip-path="url(#clip652)" d="M189.839 911.602 L204.685 1009.41 L219.531 1009.41 L234.377 1009.41 L249.223 1009.41 L264.069 1009.41 L278.915 1009.41 L293.761 1009.41 L308.607 1009.41 L323.454 1009.41 L338.3 1009.41 L353.146 1009.41 L367.992 1009.41 L382.838 1009.41 L397.684 1009.41 L412.53 1009.41 L427.376 1009.41 L442.222 1009.41 L457.069 1009.41 L471.915 1009.41 L486.761 1009.41 L501.607 1009.41 L516.453 1009.41 L531.299 1009.41 L546.145 1009.41 L560.991 1009.41 L575.837 1009.41 L590.684 1009.41 L605.53 1009.41 L620.376 1009.41 L635.222 1009.41 L650.068 1009.41 L664.914 1009.41 L679.76 1009.41 L694.606 1009.41 L709.452 1009.41 L724.299 1009.41 L739.145 1009.41 L753.991 1009.41 L768.837 1009.41 L783.683 1009.41 L798.529 1009.41 L813.375 1009.41 L828.221 1009.41 L843.067 1009.41 L857.914 1009.41 L872.76 1009.41 L887.606 1009.41 L902.452 1009.41 L917.298 1009.41 L917.298 502.368 L902.452 502.034 L887.606 502.034 L872.76 485.932 L857.914 485.932 L843.067 517.492 L828.221 517.492 L813.375 506.52 L798.529 506.52 L783.683 499.494 L768.837 499.494 L753.991 508.29 L739.145 508.29 L724.299 519.157 L709.452 519.157 L694.606 497.124 L679.76 497.124 L664.914 497.317 L650.068 497.317 L635.222 499.085 L620.376 499.085 L605.53 509.34 L590.684 509.34 L575.837 501.34 L560.991 501.34 L546.145 494.798 L531.299 494.798 L516.453 501.115 L501.607 501.115 L486.761 491.246 L471.915 491.246 L457.069 512.073 L442.222 512.073 L427.376 513.165 L412.53 513.165 L397.684 512.204 L382.838 512.204 L367.992 507.682 L353.146 507.682 L338.3 510.229 L323.454 510.229 L308.607 503.596 L293.761 503.596 L278.915 498.181 L264.069 498.181 L249.223 492.91 L234.377 492.91 L219.531 852.894 L204.685 852.894 L189.839 911.602  Z" fill="#00467f" fill-rule="evenodd" fill-opacity="0.2"/>
<polyline clip-path="url(#clip652)" style="stroke:#00467f; stroke-linecap:round; stroke-linejoin:round; stroke-width:4; stroke-opacity:0; fill:none" points="189.839,911.602 204.685,931.151 219.531,931.151 234.377,751.159 249.223,751.159 264.069,753.795 278.915,753.795 293.761,756.502 308.607,756.502 323.454,759.818 338.3,759.818 353.146,758.545 367.992,758.545 382.838,760.806 397.684,760.806 412.53,761.286 427.376,761.286 442.222,760.74 457.069,760.74 471.915,750.327 486.761,750.327 501.607,755.261 516.453,755.261 531.299,752.103 546.145,752.103 560.991,755.374 575.837,755.374 590.684,759.374 605.53,759.374 620.376,754.246 635.222,754.246 650.068,753.362 664.914,753.362 679.76,753.266 694.606,753.266 709.452,764.282 724.299,764.282 739.145,758.849 753.991,758.849 768.837,754.451 783.683,754.451 798.529,757.964 813.375,757.964 828.221,763.45 843.067,763.45 857.914,747.67 872.76,747.67 887.606,755.721 902.452,755.721 917.298,755.888 "/>
<polyline clip-path="url(#clip652)" style="stroke:#00467f; stroke-linecap:round; stroke-linejoin:round; stroke-width:4; stroke-opacity:1; fill:none" points="189.839,911.602 204.685,1009.41 219.531,1009.41 234.377,837.57 249.223,837.57 264.069,761.312 278.915,761.312 293.761,699.255 308.607,699.255 323.454,929.238 338.3,929.238 353.146,876.923 367.992,876.923 382.838,898.368 397.684,898.368 412.53,947.666 427.376,947.666 442.222,781.076 457.069,781.076 471.915,971.684 486.761,971.684 501.607,855.395 516.453,855.395 531.299,960.861 546.145,960.861 560.991,660.436 575.837,660.436 590.684,853.682 605.53,853.682 620.376,643.695 635.222,643.695 650.068,683.025 664.914,683.025 679.76,651.543 694.606,651.543 709.452,884.151 724.299,884.151 739.145,670.607 753.991,670.607 768.837,657.131 783.683,657.131 798.529,884.097 813.375,884.097 828.221,935.264 843.067,935.264 857.914,687.061 872.76,687.061 887.606,672.437 902.452,672.437 917.298,693.636 "/>
<path clip-path="url(#clip650)" d="M1181.65 1035.39 L1952.76 1035.39 L1952.76 117.424 L1181.65 117.424  Z" fill="#ffffff" fill-rule="evenodd" fill-opacity="1"/>
<defs>
  <clipPath id="clip653">
    <rect x="1181" y="117" width="772" height="919"/>
  </clipPath>
</defs>
<polyline clip-path="url(#clip653)" style="stroke:#000000; stroke-linecap:round; stroke-linejoin:round; stroke-width:2; stroke-opacity:0.1; fill:none" points="1188.63,1035.39 1188.63,117.424 "/>
<polyline clip-path="url(#clip653)" style="stroke:#000000; stroke-linecap:round; stroke-linejoin:round; stroke-width:2; stroke-opacity:0.1; fill:none" points="1337.09,1035.39 1337.09,117.424 "/>
<polyline clip-path="url(#clip653)" style="stroke:#000000; stroke-linecap:round; stroke-linejoin:round; stroke-width:2; stroke-opacity:0.1; fill:none" points="1485.55,1035.39 1485.55,117.424 "/>
<polyline clip-path="url(#clip653)" style="stroke:#000000; stroke-linecap:round; stroke-linejoin:round; stroke-width:2; stroke-opacity:0.1; fill:none" points="1634.01,1035.39 1634.01,117.424 "/>
<polyline clip-path="url(#clip653)" style="stroke:#000000; stroke-linecap:round; stroke-linejoin:round; stroke-width:2; stroke-opacity:0.1; fill:none" points="1782.47,1035.39 1782.47,117.424 "/>
<polyline clip-path="url(#clip653)" style="stroke:#000000; stroke-linecap:round; stroke-linejoin:round; stroke-width:2; stroke-opacity:0.1; fill:none" points="1930.93,1035.39 1930.93,117.424 "/>
<polyline clip-path="url(#clip653)" style="stroke:#000000; stroke-linecap:round; stroke-linejoin:round; stroke-width:2; stroke-opacity:0.1; fill:none" points="1181.65,1009.41 1952.76,1009.41 "/>
<polyline clip-path="url(#clip653)" style="stroke:#000000; stroke-linecap:round; stroke-linejoin:round; stroke-width:2; stroke-opacity:0.1; fill:none" points="1181.65,828.291 1952.76,828.291 "/>
<polyline clip-path="url(#clip653)" style="stroke:#000000; stroke-linecap:round; stroke-linejoin:round; stroke-width:2; stroke-opacity:0.1; fill:none" points="1181.65,647.174 1952.76,647.174 "/>
<polyline clip-path="url(#clip653)" style="stroke:#000000; stroke-linecap:round; stroke-linejoin:round; stroke-width:2; stroke-opacity:0.1; fill:none" points="1181.65,466.057 1952.76,466.057 "/>
<polyline clip-path="url(#clip653)" style="stroke:#000000; stroke-linecap:round; stroke-linejoin:round; stroke-width:2; stroke-opacity:0.1; fill:none" points="1181.65,284.94 1952.76,284.94 "/>
<polyline clip-path="url(#clip650)" style="stroke:#000000; stroke-linecap:round; stroke-linejoin:round; stroke-width:4; stroke-opacity:1; fill:none" points="1181.65,1035.39 1952.76,1035.39 "/>
<polyline clip-path="url(#clip650)" style="stroke:#000000; stroke-linecap:round; stroke-linejoin:round; stroke-width:4; stroke-opacity:1; fill:none" points="1188.63,1035.39 1188.63,1016.49 "/>
<polyline clip-path="url(#clip650)" style="stroke:#000000; stroke-linecap:round; stroke-linejoin:round; stroke-width:4; stroke-opacity:1; fill:none" points="1337.09,1035.39 1337.09,1016.49 "/>
<polyline clip-path="url(#clip650)" style="stroke:#000000; stroke-linecap:round; stroke-linejoin:round; stroke-width:4; stroke-opacity:1; fill:none" points="1485.55,1035.39 1485.55,1016.49 "/>
<polyline clip-path="url(#clip650)" style="stroke:#000000; stroke-linecap:round; stroke-linejoin:round; stroke-width:4; stroke-opacity:1; fill:none" points="1634.01,1035.39 1634.01,1016.49 "/>
<polyline clip-path="url(#clip650)" style="stroke:#000000; stroke-linecap:round; stroke-linejoin:round; stroke-width:4; stroke-opacity:1; fill:none" points="1782.47,1035.39 1782.47,1016.49 "/>
<polyline clip-path="url(#clip650)" style="stroke:#000000; stroke-linecap:round; stroke-linejoin:round; stroke-width:4; stroke-opacity:1; fill:none" points="1930.93,1035.39 1930.93,1016.49 "/>
<path clip-path="url(#clip650)" d="M1188.63 1063.11 Q1185.02 1063.11 1183.19 1066.67 Q1181.38 1070.21 1181.38 1077.34 Q1181.38 1084.45 1183.19 1088.01 Q1185.02 1091.56 1188.63 1091.56 Q1192.26 1091.56 1194.07 1088.01 Q1195.9 1084.45 1195.9 1077.34 Q1195.9 1070.21 1194.07 1066.67 Q1192.26 1063.11 1188.63 1063.11 M1188.63 1059.4 Q1194.44 1059.4 1197.49 1064.01 Q1200.57 1068.59 1200.57 1077.34 Q1200.57 1086.07 1197.49 1090.68 Q1194.44 1095.26 1188.63 1095.26 Q1182.82 1095.26 1179.74 1090.68 Q1176.68 1086.07 1176.68 1077.34 Q1176.68 1068.59 1179.74 1064.01 Q1182.82 1059.4 1188.63 1059.4 Z" fill="#000000" fill-rule="nonzero" fill-opacity="1" /><path clip-path="url(#clip650)" d="M1311.78 1090.65 L1319.41 1090.65 L1319.41 1064.29 L1311.1 1065.95 L1311.1 1061.69 L1319.37 1060.03 L1324.04 1060.03 L1324.04 1090.65 L1331.68 1090.65 L1331.68 1094.59 L1311.78 1094.59 L1311.78 1090.65 Z" fill="#000000" fill-rule="nonzero" fill-opacity="1" /><path clip-path="url(#clip650)" d="M1351.13 1063.11 Q1347.52 1063.11 1345.69 1066.67 Q1343.88 1070.21 1343.88 1077.34 Q1343.88 1084.45 1345.69 1088.01 Q1347.52 1091.56 1351.13 1091.56 Q1354.76 1091.56 1356.57 1088.01 Q1358.4 1084.45 1358.4 1077.34 Q1358.4 1070.21 1356.57 1066.67 Q1354.76 1063.11 1351.13 1063.11 M1351.13 1059.4 Q1356.94 1059.4 1359.99 1064.01 Q1363.07 1068.59 1363.07 1077.34 Q1363.07 1086.07 1359.99 1090.68 Q1356.94 1095.26 1351.13 1095.26 Q1345.32 1095.26 1342.24 1090.68 Q1339.18 1086.07 1339.18 1077.34 Q1339.18 1068.59 1342.24 1064.01 Q1345.32 1059.4 1351.13 1059.4 Z" fill="#000000" fill-rule="nonzero" fill-opacity="1" /><path clip-path="url(#clip650)" d="M1464.32 1090.65 L1480.64 1090.65 L1480.64 1094.59 L1458.7 1094.59 L1458.7 1090.65 Q1461.36 1087.9 1465.94 1083.27 Q1470.55 1078.62 1471.73 1077.27 Q1473.97 1074.75 1474.85 1073.01 Q1475.76 1071.25 1475.76 1069.56 Q1475.76 1066.81 1473.81 1065.07 Q1471.89 1063.34 1468.79 1063.34 Q1466.59 1063.34 1464.14 1064.1 Q1461.71 1064.87 1458.93 1066.42 L1458.93 1061.69 Q1461.75 1060.56 1464.21 1059.98 Q1466.66 1059.4 1468.7 1059.4 Q1474.07 1059.4 1477.26 1062.09 Q1480.46 1064.77 1480.46 1069.26 Q1480.46 1071.39 1479.65 1073.31 Q1478.86 1075.21 1476.75 1077.81 Q1476.17 1078.48 1473.07 1081.69 Q1469.97 1084.89 1464.32 1090.65 Z" fill="#000000" fill-rule="nonzero" fill-opacity="1" /><path clip-path="url(#clip650)" d="M1500.46 1063.11 Q1496.85 1063.11 1495.02 1066.67 Q1493.21 1070.21 1493.21 1077.34 Q1493.21 1084.45 1495.02 1088.01 Q1496.85 1091.56 1500.46 1091.56 Q1504.09 1091.56 1505.9 1088.01 Q1507.72 1084.45 1507.72 1077.34 Q1507.72 1070.21 1505.9 1066.67 Q1504.09 1063.11 1500.46 1063.11 M1500.46 1059.4 Q1506.27 1059.4 1509.32 1064.01 Q1512.4 1068.59 1512.4 1077.34 Q1512.4 1086.07 1509.32 1090.68 Q1506.27 1095.26 1500.46 1095.26 Q1494.65 1095.26 1491.57 1090.68 Q1488.51 1086.07 1488.51 1077.34 Q1488.51 1068.59 1491.57 1064.01 Q1494.65 1059.4 1500.46 1059.4 Z" fill="#000000" fill-rule="nonzero" fill-opacity="1" /><path clip-path="url(#clip650)" d="M1622.85 1075.95 Q1626.21 1076.67 1628.08 1078.94 Q1629.98 1081.21 1629.98 1084.54 Q1629.98 1089.66 1626.46 1092.46 Q1622.95 1095.26 1616.46 1095.26 Q1614.29 1095.26 1611.97 1094.82 Q1609.68 1094.4 1607.23 1093.55 L1607.23 1089.03 Q1609.17 1090.17 1611.49 1090.75 Q1613.8 1091.32 1616.32 1091.32 Q1620.72 1091.32 1623.01 1089.59 Q1625.33 1087.85 1625.33 1084.54 Q1625.33 1081.49 1623.18 1079.77 Q1621.05 1078.04 1617.23 1078.04 L1613.2 1078.04 L1613.2 1074.19 L1617.41 1074.19 Q1620.86 1074.19 1622.69 1072.83 Q1624.52 1071.44 1624.52 1068.85 Q1624.52 1066.19 1622.62 1064.77 Q1620.75 1063.34 1617.23 1063.34 Q1615.31 1063.34 1613.11 1063.75 Q1610.91 1064.17 1608.27 1065.05 L1608.27 1060.88 Q1610.93 1060.14 1613.25 1059.77 Q1615.58 1059.4 1617.64 1059.4 Q1622.97 1059.4 1626.07 1061.83 Q1629.17 1064.24 1629.17 1068.36 Q1629.17 1071.23 1627.53 1073.22 Q1625.88 1075.19 1622.85 1075.95 Z" fill="#000000" fill-rule="nonzero" fill-opacity="1" /><path clip-path="url(#clip650)" d="M1648.85 1063.11 Q1645.24 1063.11 1643.41 1066.67 Q1641.6 1070.21 1641.6 1077.34 Q1641.6 1084.45 1643.41 1088.01 Q1645.24 1091.56 1648.85 1091.56 Q1652.48 1091.56 1654.29 1088.01 Q1656.12 1084.45 1656.12 1077.34 Q1656.12 1070.21 1654.29 1066.67 Q1652.48 1063.11 1648.85 1063.11 M1648.85 1059.4 Q1654.66 1059.4 1657.71 1064.01 Q1660.79 1068.59 1660.79 1077.34 Q1660.79 1086.07 1657.71 1090.68 Q1654.66 1095.26 1648.85 1095.26 Q1643.04 1095.26 1639.96 1090.68 Q1636.9 1086.07 1636.9 1077.34 Q1636.9 1068.59 1639.96 1064.01 Q1643.04 1059.4 1648.85 1059.4 Z" fill="#000000" fill-rule="nonzero" fill-opacity="1" /><path clip-path="url(#clip650)" d="M1770.64 1064.1 L1758.84 1082.55 L1770.64 1082.55 L1770.64 1064.1 M1769.42 1060.03 L1775.3 1060.03 L1775.3 1082.55 L1780.23 1082.55 L1780.23 1086.44 L1775.3 1086.44 L1775.3 1094.59 L1770.64 1094.59 L1770.64 1086.44 L1755.04 1086.44 L1755.04 1081.93 L1769.42 1060.03 Z" fill="#000000" fill-rule="nonzero" fill-opacity="1" /><path clip-path="url(#clip650)" d="M1797.96 1063.11 Q1794.35 1063.11 1792.52 1066.67 Q1790.71 1070.21 1790.71 1077.34 Q1790.71 1084.45 1792.52 1088.01 Q1794.35 1091.56 1797.96 1091.56 Q1801.59 1091.56 1803.4 1088.01 Q1805.23 1084.45 1805.23 1077.34 Q1805.23 1070.21 1803.4 1066.67 Q1801.59 1063.11 1797.96 1063.11 M1797.96 1059.4 Q1803.77 1059.4 1806.82 1064.01 Q1809.9 1068.59 1809.9 1077.34 Q1809.9 1086.07 1806.82 1090.68 Q1803.77 1095.26 1797.96 1095.26 Q1792.15 1095.26 1789.07 1090.68 Q1786.01 1086.07 1786.01 1077.34 Q1786.01 1068.59 1789.07 1064.01 Q1792.15 1059.4 1797.96 1059.4 Z" fill="#000000" fill-rule="nonzero" fill-opacity="1" /><path clip-path="url(#clip650)" d="M1905.63 1060.03 L1923.99 1060.03 L1923.99 1063.96 L1909.91 1063.96 L1909.91 1072.44 Q1910.93 1072.09 1911.95 1071.93 Q1912.97 1071.74 1913.99 1071.74 Q1919.77 1071.74 1923.15 1074.91 Q1926.53 1078.08 1926.53 1083.5 Q1926.53 1089.08 1923.06 1092.18 Q1919.59 1095.26 1913.27 1095.26 Q1911.09 1095.26 1908.83 1094.89 Q1906.58 1094.52 1904.17 1093.78 L1904.17 1089.08 Q1906.26 1090.21 1908.48 1090.77 Q1910.7 1091.32 1913.18 1091.32 Q1917.18 1091.32 1919.52 1089.22 Q1921.86 1087.11 1921.86 1083.5 Q1921.86 1079.89 1919.52 1077.78 Q1917.18 1075.68 1913.18 1075.68 Q1911.3 1075.68 1909.43 1076.09 Q1907.58 1076.51 1905.63 1077.39 L1905.63 1060.03 Z" fill="#000000" fill-rule="nonzero" fill-opacity="1" /><path clip-path="url(#clip650)" d="M1945.75 1063.11 Q1942.14 1063.11 1940.31 1066.67 Q1938.5 1070.21 1938.5 1077.34 Q1938.5 1084.45 1940.31 1088.01 Q1942.14 1091.56 1945.75 1091.56 Q1949.38 1091.56 1951.19 1088.01 Q1953.02 1084.45 1953.02 1077.34 Q1953.02 1070.21 1951.19 1066.67 Q1949.38 1063.11 1945.75 1063.11 M1945.75 1059.4 Q1951.56 1059.4 1954.61 1064.01 Q1957.69 1068.59 1957.69 1077.34 Q1957.69 1086.07 1954.61 1090.68 Q1951.56 1095.26 1945.75 1095.26 Q1939.94 1095.26 1936.86 1090.68 Q1933.8 1086.07 1933.8 1077.34 Q1933.8 1068.59 1936.86 1064.01 Q1939.94 1059.4 1945.75 1059.4 Z" fill="#000000" fill-rule="nonzero" fill-opacity="1" /><path clip-path="url(#clip650)" d="M1507.49 1128.29 L1507.49 1134.56 Q1503.83 1132.81 1500.59 1131.95 Q1497.34 1131.09 1494.32 1131.09 Q1489.06 1131.09 1486.2 1133.13 Q1483.37 1135.17 1483.37 1138.92 Q1483.37 1142.07 1485.24 1143.7 Q1487.15 1145.29 1492.44 1146.27 L1496.32 1147.07 Q1503.51 1148.44 1506.92 1151.91 Q1510.36 1155.35 1510.36 1161.14 Q1510.36 1168.05 1505.71 1171.61 Q1501.09 1175.17 1492.15 1175.17 Q1488.78 1175.17 1484.96 1174.41 Q1481.17 1173.65 1477.1 1172.15 L1477.1 1165.53 Q1481.01 1167.73 1484.77 1168.84 Q1488.52 1169.95 1492.15 1169.95 Q1497.66 1169.95 1500.65 1167.79 Q1503.64 1165.63 1503.64 1161.62 Q1503.64 1158.11 1501.48 1156.14 Q1499.34 1154.17 1494.44 1153.18 L1490.53 1152.42 Q1483.33 1150.99 1480.12 1147.93 Q1476.9 1144.87 1476.9 1139.43 Q1476.9 1133.13 1481.33 1129.5 Q1485.79 1125.87 1493.58 1125.87 Q1496.93 1125.87 1500.39 1126.48 Q1503.86 1127.08 1507.49 1128.29 Z" fill="#000000" fill-rule="nonzero" fill-opacity="1" /><path clip-path="url(#clip650)" d="M1525.92 1128.48 L1525.92 1138.6 L1537.98 1138.6 L1537.98 1143.16 L1525.92 1143.16 L1525.92 1162.51 Q1525.92 1166.87 1527.1 1168.11 Q1528.31 1169.35 1531.97 1169.35 L1537.98 1169.35 L1537.98 1174.25 L1531.97 1174.25 Q1525.19 1174.25 1522.61 1171.74 Q1520.03 1169.19 1520.03 1162.51 L1520.03 1143.16 L1515.74 1143.16 L1515.74 1138.6 L1520.03 1138.6 L1520.03 1128.48 L1525.92 1128.48 Z" fill="#000000" fill-rule="nonzero" fill-opacity="1" /><path clip-path="url(#clip650)" d="M1561.89 1156.33 Q1554.79 1156.33 1552.05 1157.96 Q1549.31 1159.58 1549.31 1163.49 Q1549.31 1166.61 1551.35 1168.46 Q1553.42 1170.27 1556.95 1170.27 Q1561.82 1170.27 1564.75 1166.84 Q1567.71 1163.37 1567.71 1157.64 L1567.71 1156.33 L1561.89 1156.33 M1573.57 1153.91 L1573.57 1174.25 L1567.71 1174.25 L1567.71 1168.84 Q1565.71 1172.09 1562.71 1173.65 Q1559.72 1175.17 1555.39 1175.17 Q1549.92 1175.17 1546.67 1172.12 Q1543.46 1169.03 1543.46 1163.88 Q1543.46 1157.86 1547.47 1154.8 Q1551.51 1151.75 1559.5 1151.75 L1567.71 1151.75 L1567.71 1151.18 Q1567.71 1147.13 1565.04 1144.94 Q1562.4 1142.71 1557.59 1142.71 Q1554.53 1142.71 1551.64 1143.44 Q1548.74 1144.17 1546.07 1145.64 L1546.07 1140.23 Q1549.28 1138.99 1552.31 1138.38 Q1555.33 1137.74 1558.19 1137.74 Q1565.93 1137.74 1569.75 1141.75 Q1573.57 1145.77 1573.57 1153.91 Z" fill="#000000" fill-rule="nonzero" fill-opacity="1" /><path clip-path="url(#clip650)" d="M1609.09 1156.01 Q1609.09 1149.65 1606.45 1146.15 Q1603.84 1142.65 1599.09 1142.65 Q1594.38 1142.65 1591.74 1146.15 Q1589.13 1149.65 1589.13 1156.01 Q1589.13 1162.35 1591.74 1165.85 Q1594.38 1169.35 1599.09 1169.35 Q1603.84 1169.35 1606.45 1165.85 Q1609.09 1162.35 1609.09 1156.01 M1614.95 1169.83 Q1614.95 1178.93 1610.9 1183.35 Q1606.86 1187.81 1598.52 1187.81 Q1595.43 1187.81 1592.7 1187.33 Q1589.96 1186.89 1587.38 1185.93 L1587.38 1180.24 Q1589.96 1181.64 1592.47 1182.3 Q1594.99 1182.97 1597.6 1182.97 Q1603.36 1182.97 1606.22 1179.95 Q1609.09 1176.96 1609.09 1170.88 L1609.09 1167.98 Q1607.27 1171.13 1604.44 1172.69 Q1601.61 1174.25 1597.66 1174.25 Q1591.11 1174.25 1587.1 1169.25 Q1583.08 1164.26 1583.08 1156.01 Q1583.08 1147.74 1587.1 1142.74 Q1591.11 1137.74 1597.66 1137.74 Q1601.61 1137.74 1604.44 1139.3 Q1607.27 1140.86 1609.09 1144.01 L1609.09 1138.6 L1614.95 1138.6 L1614.95 1169.83 Z" fill="#000000" fill-rule="nonzero" fill-opacity="1" /><path clip-path="url(#clip650)" d="M1657.5 1154.96 L1657.5 1157.83 L1630.57 1157.83 Q1630.96 1163.88 1634.2 1167.06 Q1637.48 1170.21 1643.3 1170.21 Q1646.68 1170.21 1649.83 1169.38 Q1653.01 1168.55 1656.13 1166.9 L1656.13 1172.44 Q1652.98 1173.77 1649.67 1174.47 Q1646.36 1175.17 1642.95 1175.17 Q1634.42 1175.17 1629.43 1170.21 Q1624.46 1165.24 1624.46 1156.78 Q1624.46 1148.03 1629.17 1142.9 Q1633.92 1137.74 1641.94 1137.74 Q1649.13 1137.74 1653.3 1142.39 Q1657.5 1147.01 1657.5 1154.96 M1651.64 1153.25 Q1651.58 1148.44 1648.94 1145.57 Q1646.33 1142.71 1642 1142.71 Q1637.1 1142.71 1634.14 1145.48 Q1631.21 1148.25 1630.76 1153.28 L1651.64 1153.25 Z" fill="#000000" fill-rule="nonzero" fill-opacity="1" /><polyline clip-path="url(#clip650)" style="stroke:#000000; stroke-linecap:round; stroke-linejoin:round; stroke-width:4; stroke-opacity:1; fill:none" points="1181.65,1035.39 1181.65,117.424 "/>
<polyline clip-path="url(#clip650)" style="stroke:#000000; stroke-linecap:round; stroke-linejoin:round; stroke-width:4; stroke-opacity:1; fill:none" points="1181.65,1009.41 1200.55,1009.41 "/>
<polyline clip-path="url(#clip650)" style="stroke:#000000; stroke-linecap:round; stroke-linejoin:round; stroke-width:4; stroke-opacity:1; fill:none" points="1181.65,828.291 1200.55,828.291 "/>
<polyline clip-path="url(#clip650)" style="stroke:#000000; stroke-linecap:round; stroke-linejoin:round; stroke-width:4; stroke-opacity:1; fill:none" points="1181.65,647.174 1200.55,647.174 "/>
<polyline clip-path="url(#clip650)" style="stroke:#000000; stroke-linecap:round; stroke-linejoin:round; stroke-width:4; stroke-opacity:1; fill:none" points="1181.65,466.057 1200.55,466.057 "/>
<polyline clip-path="url(#clip650)" style="stroke:#000000; stroke-linecap:round; stroke-linejoin:round; stroke-width:4; stroke-opacity:1; fill:none" points="1181.65,284.94 1200.55,284.94 "/>
<path clip-path="url(#clip650)" d="M1139.7 995.206 Q1136.09 995.206 1134.26 998.771 Q1132.46 1002.31 1132.46 1009.44 Q1132.46 1016.55 1134.26 1020.11 Q1136.09 1023.66 1139.7 1023.66 Q1143.34 1023.66 1145.14 1020.11 Q1146.97 1016.55 1146.97 1009.44 Q1146.97 1002.31 1145.14 998.771 Q1143.34 995.206 1139.7 995.206 M1139.7 991.503 Q1145.51 991.503 1148.57 996.109 Q1151.65 1000.69 1151.65 1009.44 Q1151.65 1018.17 1148.57 1022.78 Q1145.51 1027.36 1139.7 1027.36 Q1133.89 1027.36 1130.82 1022.78 Q1127.76 1018.17 1127.76 1009.44 Q1127.76 1000.69 1130.82 996.109 Q1133.89 991.503 1139.7 991.503 Z" fill="#000000" fill-rule="nonzero" fill-opacity="1" /><path clip-path="url(#clip650)" d="M1073.41 841.636 L1089.73 841.636 L1089.73 845.571 L1067.78 845.571 L1067.78 841.636 Q1070.45 838.881 1075.03 834.251 Q1079.64 829.599 1080.82 828.256 Q1083.06 825.733 1083.94 823.997 Q1084.84 822.237 1084.84 820.548 Q1084.84 817.793 1082.9 816.057 Q1080.98 814.321 1077.88 814.321 Q1075.68 814.321 1073.22 815.085 Q1070.79 815.849 1068.02 817.4 L1068.02 812.677 Q1070.84 811.543 1073.29 810.964 Q1075.75 810.386 1077.78 810.386 Q1083.15 810.386 1086.35 813.071 Q1089.54 815.756 1089.54 820.247 Q1089.54 822.376 1088.73 824.298 Q1087.95 826.196 1085.84 828.788 Q1085.26 829.46 1082.16 832.677 Q1079.06 835.872 1073.41 841.636 Z" fill="#000000" fill-rule="nonzero" fill-opacity="1" /><path clip-path="url(#clip650)" d="M1099.59 811.011 L1117.95 811.011 L1117.95 814.946 L1103.87 814.946 L1103.87 823.418 Q1104.89 823.071 1105.91 822.909 Q1106.93 822.724 1107.95 822.724 Q1113.73 822.724 1117.11 825.895 Q1120.49 829.066 1120.49 834.483 Q1120.49 840.061 1117.02 843.163 Q1113.55 846.242 1107.23 846.242 Q1105.05 846.242 1102.78 845.872 Q1100.54 845.501 1098.13 844.761 L1098.13 840.061 Q1100.21 841.196 1102.44 841.751 Q1104.66 842.307 1107.14 842.307 Q1111.14 842.307 1113.48 840.2 Q1115.82 838.094 1115.82 834.483 Q1115.82 830.872 1113.48 828.765 Q1111.14 826.659 1107.14 826.659 Q1105.26 826.659 1103.39 827.075 Q1101.53 827.492 1099.59 828.372 L1099.59 811.011 Z" fill="#000000" fill-rule="nonzero" fill-opacity="1" /><path clip-path="url(#clip650)" d="M1139.7 814.089 Q1136.09 814.089 1134.26 817.654 Q1132.46 821.196 1132.46 828.325 Q1132.46 835.432 1134.26 838.997 Q1136.09 842.538 1139.7 842.538 Q1143.34 842.538 1145.14 838.997 Q1146.97 835.432 1146.97 828.325 Q1146.97 821.196 1145.14 817.654 Q1143.34 814.089 1139.7 814.089 M1139.7 810.386 Q1145.51 810.386 1148.57 814.992 Q1151.65 819.575 1151.65 828.325 Q1151.65 837.052 1148.57 841.659 Q1145.51 846.242 1139.7 846.242 Q1133.89 846.242 1130.82 841.659 Q1127.76 837.052 1127.76 828.325 Q1127.76 819.575 1130.82 814.992 Q1133.89 810.386 1139.7 810.386 Z" fill="#000000" fill-rule="nonzero" fill-opacity="1" /><path clip-path="url(#clip650)" d="M1069.43 629.894 L1087.78 629.894 L1087.78 633.829 L1073.71 633.829 L1073.71 642.301 Q1074.73 641.954 1075.75 641.792 Q1076.77 641.607 1077.78 641.607 Q1083.57 641.607 1086.95 644.778 Q1090.33 647.949 1090.33 653.366 Q1090.33 658.944 1086.86 662.046 Q1083.39 665.125 1077.07 665.125 Q1074.89 665.125 1072.62 664.755 Q1070.38 664.384 1067.97 663.643 L1067.97 658.944 Q1070.05 660.079 1072.27 660.634 Q1074.5 661.19 1076.97 661.19 Q1080.98 661.19 1083.32 659.083 Q1085.65 656.977 1085.65 653.366 Q1085.65 649.755 1083.32 647.648 Q1080.98 645.542 1076.97 645.542 Q1075.1 645.542 1073.22 645.958 Q1071.37 646.375 1069.43 647.255 L1069.43 629.894 Z" fill="#000000" fill-rule="nonzero" fill-opacity="1" /><path clip-path="url(#clip650)" d="M1109.54 632.972 Q1105.93 632.972 1104.1 636.537 Q1102.3 640.079 1102.3 647.208 Q1102.3 654.315 1104.1 657.88 Q1105.93 661.421 1109.54 661.421 Q1113.18 661.421 1114.98 657.88 Q1116.81 654.315 1116.81 647.208 Q1116.81 640.079 1114.98 636.537 Q1113.18 632.972 1109.54 632.972 M1109.54 629.269 Q1115.35 629.269 1118.41 633.875 Q1121.49 638.458 1121.49 647.208 Q1121.49 655.935 1118.41 660.542 Q1115.35 665.125 1109.54 665.125 Q1103.73 665.125 1100.65 660.542 Q1097.6 655.935 1097.6 647.208 Q1097.6 638.458 1100.65 633.875 Q1103.73 629.269 1109.54 629.269 Z" fill="#000000" fill-rule="nonzero" fill-opacity="1" /><path clip-path="url(#clip650)" d="M1139.7 632.972 Q1136.09 632.972 1134.26 636.537 Q1132.46 640.079 1132.46 647.208 Q1132.46 654.315 1134.26 657.88 Q1136.09 661.421 1139.7 661.421 Q1143.34 661.421 1145.14 657.88 Q1146.97 654.315 1146.97 647.208 Q1146.97 640.079 1145.14 636.537 Q1143.34 632.972 1139.7 632.972 M1139.7 629.269 Q1145.51 629.269 1148.57 633.875 Q1151.65 638.458 1151.65 647.208 Q1151.65 655.935 1148.57 660.542 Q1145.51 665.125 1139.7 665.125 Q1133.89 665.125 1130.82 660.542 Q1127.76 655.935 1127.76 647.208 Q1127.76 638.458 1130.82 633.875 Q1133.89 629.269 1139.7 629.269 Z" fill="#000000" fill-rule="nonzero" fill-opacity="1" /><path clip-path="url(#clip650)" d="M1068.2 448.777 L1090.42 448.777 L1090.42 450.767 L1077.88 483.337 L1072.99 483.337 L1084.8 452.712 L1068.2 452.712 L1068.2 448.777 Z" fill="#000000" fill-rule="nonzero" fill-opacity="1" /><path clip-path="url(#clip650)" d="M1099.59 448.777 L1117.95 448.777 L1117.95 452.712 L1103.87 452.712 L1103.87 461.184 Q1104.89 460.837 1105.91 460.675 Q1106.93 460.49 1107.95 460.49 Q1113.73 460.49 1117.11 463.661 Q1120.49 466.832 1120.49 472.249 Q1120.49 477.827 1117.02 480.929 Q1113.55 484.008 1107.23 484.008 Q1105.05 484.008 1102.78 483.638 Q1100.54 483.267 1098.13 482.526 L1098.13 477.827 Q1100.21 478.962 1102.44 479.517 Q1104.66 480.073 1107.14 480.073 Q1111.14 480.073 1113.48 477.966 Q1115.82 475.86 1115.82 472.249 Q1115.82 468.638 1113.48 466.531 Q1111.14 464.425 1107.14 464.425 Q1105.26 464.425 1103.39 464.841 Q1101.53 465.258 1099.59 466.138 L1099.59 448.777 Z" fill="#000000" fill-rule="nonzero" fill-opacity="1" /><path clip-path="url(#clip650)" d="M1139.7 451.855 Q1136.09 451.855 1134.26 455.42 Q1132.46 458.962 1132.46 466.091 Q1132.46 473.198 1134.26 476.763 Q1136.09 480.304 1139.7 480.304 Q1143.34 480.304 1145.14 476.763 Q1146.97 473.198 1146.97 466.091 Q1146.97 458.962 1145.14 455.42 Q1143.34 451.855 1139.7 451.855 M1139.7 448.152 Q1145.51 448.152 1148.57 452.758 Q1151.65 457.341 1151.65 466.091 Q1151.65 474.818 1148.57 479.425 Q1145.51 484.008 1139.7 484.008 Q1133.89 484.008 1130.82 479.425 Q1127.76 474.818 1127.76 466.091 Q1127.76 457.341 1130.82 452.758 Q1133.89 448.152 1139.7 448.152 Z" fill="#000000" fill-rule="nonzero" fill-opacity="1" /><path clip-path="url(#clip650)" d="M1040.03 298.284 L1047.67 298.284 L1047.67 271.919 L1039.36 273.585 L1039.36 269.326 L1047.62 267.66 L1052.3 267.66 L1052.3 298.284 L1059.94 298.284 L1059.94 302.22 L1040.03 302.22 L1040.03 298.284 Z" fill="#000000" fill-rule="nonzero" fill-opacity="1" /><path clip-path="url(#clip650)" d="M1079.38 270.738 Q1075.77 270.738 1073.94 274.303 Q1072.14 277.845 1072.14 284.974 Q1072.14 292.081 1073.94 295.646 Q1075.77 299.187 1079.38 299.187 Q1083.02 299.187 1084.82 295.646 Q1086.65 292.081 1086.65 284.974 Q1086.65 277.845 1084.82 274.303 Q1083.02 270.738 1079.38 270.738 M1079.38 267.035 Q1085.19 267.035 1088.25 271.641 Q1091.33 276.224 1091.33 284.974 Q1091.33 293.701 1088.25 298.308 Q1085.19 302.891 1079.38 302.891 Q1073.57 302.891 1070.49 298.308 Q1067.44 293.701 1067.44 284.974 Q1067.44 276.224 1070.49 271.641 Q1073.57 267.035 1079.38 267.035 Z" fill="#000000" fill-rule="nonzero" fill-opacity="1" /><path clip-path="url(#clip650)" d="M1109.54 270.738 Q1105.93 270.738 1104.1 274.303 Q1102.3 277.845 1102.3 284.974 Q1102.3 292.081 1104.1 295.646 Q1105.93 299.187 1109.54 299.187 Q1113.18 299.187 1114.98 295.646 Q1116.81 292.081 1116.81 284.974 Q1116.81 277.845 1114.98 274.303 Q1113.18 270.738 1109.54 270.738 M1109.54 267.035 Q1115.35 267.035 1118.41 271.641 Q1121.49 276.224 1121.49 284.974 Q1121.49 293.701 1118.41 298.308 Q1115.35 302.891 1109.54 302.891 Q1103.73 302.891 1100.65 298.308 Q1097.6 293.701 1097.6 284.974 Q1097.6 276.224 1100.65 271.641 Q1103.73 267.035 1109.54 267.035 Z" fill="#000000" fill-rule="nonzero" fill-opacity="1" /><path clip-path="url(#clip650)" d="M1139.7 270.738 Q1136.09 270.738 1134.26 274.303 Q1132.46 277.845 1132.46 284.974 Q1132.46 292.081 1134.26 295.646 Q1136.09 299.187 1139.7 299.187 Q1143.34 299.187 1145.14 295.646 Q1146.97 292.081 1146.97 284.974 Q1146.97 277.845 1145.14 274.303 Q1143.34 270.738 1139.7 270.738 M1139.7 267.035 Q1145.51 267.035 1148.57 271.641 Q1151.65 276.224 1151.65 284.974 Q1151.65 293.701 1148.57 298.308 Q1145.51 302.891 1139.7 302.891 Q1133.89 302.891 1130.82 298.308 Q1127.76 293.701 1127.76 284.974 Q1127.76 276.224 1130.82 271.641 Q1133.89 267.035 1139.7 267.035 Z" fill="#000000" fill-rule="nonzero" fill-opacity="1" /><path clip-path="url(#clip650)" d="M1372.31 54.671 L1372.31 27.2059 L1379.77 27.2059 L1379.77 54.3874 Q1379.77 60.8284 1382.28 64.0691 Q1384.79 67.2693 1389.81 67.2693 Q1395.85 67.2693 1399.33 63.421 Q1402.86 59.5726 1402.86 52.9291 L1402.86 27.2059 L1410.31 27.2059 L1410.31 72.576 L1402.86 72.576 L1402.86 65.6084 Q1400.14 69.7404 1396.54 71.7658 Q1392.97 73.7508 1388.23 73.7508 Q1380.42 73.7508 1376.36 68.8897 Q1372.31 64.0286 1372.31 54.671 M1391.07 26.1121 L1391.07 26.1121 Z" fill="#000000" fill-rule="nonzero" fill-opacity="1" /><path clip-path="url(#clip650)" d="M1460.14 86.3491 L1460.14 92.1419 L1417.04 92.1419 L1417.04 86.3491 L1460.14 86.3491 Z" fill="#000000" fill-rule="nonzero" fill-opacity="1" /><path clip-path="url(#clip650)" d="M1499.71 49.9314 Q1499.71 41.7081 1496.31 37.0496 Q1492.95 32.3505 1487.04 32.3505 Q1481.12 32.3505 1477.72 37.0496 Q1474.36 41.7081 1474.36 49.9314 Q1474.36 58.1548 1477.72 62.8538 Q1481.12 67.5124 1487.04 67.5124 Q1492.95 67.5124 1496.31 62.8538 Q1499.71 58.1548 1499.71 49.9314 M1474.36 34.0924 Q1476.71 30.0415 1480.27 28.0971 Q1483.88 26.1121 1488.86 26.1121 Q1497.12 26.1121 1502.27 32.6746 Q1507.45 39.2371 1507.45 49.9314 Q1507.45 60.6258 1502.27 67.1883 Q1497.12 73.7508 1488.86 73.7508 Q1483.88 73.7508 1480.27 71.8063 Q1476.71 69.8214 1474.36 65.7705 L1474.36 72.576 L1466.86 72.576 L1466.86 9.54393 L1474.36 9.54393 L1474.36 34.0924 Z" fill="#000000" fill-rule="nonzero" fill-opacity="1" /><path clip-path="url(#clip650)" d="M1519.04 54.671 L1519.04 27.2059 L1526.49 27.2059 L1526.49 54.3874 Q1526.49 60.8284 1529 64.0691 Q1531.51 67.2693 1536.54 67.2693 Q1542.57 67.2693 1546.06 63.421 Q1549.58 59.5726 1549.58 52.9291 L1549.58 27.2059 L1557.03 27.2059 L1557.03 72.576 L1549.58 72.576 L1549.58 65.6084 Q1546.87 69.7404 1543.26 71.7658 Q1539.7 73.7508 1534.96 73.7508 Q1527.14 73.7508 1523.09 68.8897 Q1519.04 64.0286 1519.04 54.671 M1537.79 26.1121 L1537.79 26.1121 Z" fill="#000000" fill-rule="nonzero" fill-opacity="1" /><path clip-path="url(#clip650)" d="M1591.26 76.7889 Q1588.11 84.8907 1585.11 87.3618 Q1582.11 89.8329 1577.09 89.8329 L1571.13 89.8329 L1571.13 83.5945 L1575.51 83.5945 Q1578.59 83.5945 1580.29 82.1361 Q1581.99 80.6778 1584.05 75.2496 L1585.39 71.8468 L1567.04 27.2059 L1574.94 27.2059 L1589.12 62.6918 L1603.3 27.2059 L1611.2 27.2059 L1591.26 76.7889 Z" fill="#000000" fill-rule="nonzero" fill-opacity="1" /><path clip-path="url(#clip650)" d="M1610.71 62.2867 L1619.26 62.2867 L1619.26 72.576 L1610.71 72.576 L1610.71 62.2867 Z" fill="#000000" fill-rule="nonzero" fill-opacity="1" /><path clip-path="url(#clip650)" d="M1653.61 32.4315 Q1647.61 32.4315 1644.13 37.1306 Q1640.65 41.7891 1640.65 49.9314 Q1640.65 58.0738 1644.09 62.7728 Q1647.57 67.4314 1653.61 67.4314 Q1659.56 67.4314 1663.05 62.7323 Q1666.53 58.0333 1666.53 49.9314 Q1666.53 41.8701 1663.05 37.1711 Q1659.56 32.4315 1653.61 32.4315 M1653.61 26.1121 Q1663.33 26.1121 1668.88 32.4315 Q1674.43 38.7509 1674.43 49.9314 Q1674.43 61.0714 1668.88 67.4314 Q1663.33 73.7508 1653.61 73.7508 Q1643.85 73.7508 1638.3 67.4314 Q1632.79 61.0714 1632.79 49.9314 Q1632.79 38.7509 1638.3 32.4315 Q1643.85 26.1121 1653.61 26.1121 Z" fill="#000000" fill-rule="nonzero" fill-opacity="1" /><path clip-path="url(#clip650)" d="M1686.02 54.671 L1686.02 27.2059 L1693.47 27.2059 L1693.47 54.3874 Q1693.47 60.8284 1695.98 64.0691 Q1698.49 67.2693 1703.52 67.2693 Q1709.55 67.2693 1713.04 63.421 Q1716.56 59.5726 1716.56 52.9291 L1716.56 27.2059 L1724.01 27.2059 L1724.01 72.576 L1716.56 72.576 L1716.56 65.6084 Q1713.85 69.7404 1710.24 71.7658 Q1706.68 73.7508 1701.94 73.7508 Q1694.12 73.7508 1690.07 68.8897 Q1686.02 64.0286 1686.02 54.671 M1704.77 26.1121 L1704.77 26.1121 Z" fill="#000000" fill-rule="nonzero" fill-opacity="1" /><path clip-path="url(#clip650)" d="M1746.74 14.324 L1746.74 27.2059 L1762.09 27.2059 L1762.09 32.9987 L1746.74 32.9987 L1746.74 57.6282 Q1746.74 63.1779 1748.24 64.7578 Q1749.78 66.3376 1754.44 66.3376 L1762.09 66.3376 L1762.09 72.576 L1754.44 72.576 Q1745.81 72.576 1742.53 69.3758 Q1739.24 66.1351 1739.24 57.6282 L1739.24 32.9987 L1733.78 32.9987 L1733.78 27.2059 L1739.24 27.2059 L1739.24 14.324 L1746.74 14.324 Z" fill="#000000" fill-rule="nonzero" fill-opacity="1" /><path clip-path="url(#clip653)" d="M1203.47 965.922 L1218.32 1009.41 L1233.17 998.057 L1248.01 1009.41 L1262.86 1009.41 L1277.7 1009.41 L1292.55 1009.41 L1307.4 1009.41 L1322.24 1009.41 L1337.09 1009.41 L1351.93 1009.41 L1366.78 1009.41 L1381.63 1009.41 L1396.47 1009.41 L1411.32 1009.41 L1426.16 1009.41 L1441.01 1009.41 L1455.86 1009.41 L1470.7 1009.41 L1485.55 1009.41 L1500.39 1009.41 L1515.24 1009.41 L1530.09 1009.41 L1544.93 1009.41 L1559.78 1009.41 L1574.63 1009.41 L1589.47 1009.41 L1604.32 1009.41 L1619.16 1009.41 L1634.01 1009.41 L1648.86 1009.41 L1663.7 1009.41 L1678.55 1009.41 L1693.39 1009.41 L1708.24 1009.41 L1723.09 1009.41 L1737.93 1009.41 L1752.78 1009.41 L1767.62 1009.41 L1782.47 1009.41 L1797.32 1009.41 L1812.16 1009.41 L1827.01 1009.41 L1841.86 1009.41 L1856.7 1009.41 L1871.55 1009.41 L1886.39 1009.41 L1901.24 1009.41 L1916.09 1009.41 L1930.93 1009.41 L1930.93 1009.41 L1916.09 309.93 L1901.24 1009.41 L1886.39 320.613 L1871.55 1009.41 L1856.7 310.134 L1841.86 1009.41 L1827.01 310.041 L1812.16 1009.41 L1797.32 310.263 L1782.47 1009.41 L1767.62 323.429 L1752.78 1009.41 L1737.93 309.913 L1723.09 1009.41 L1708.24 332.249 L1693.39 1009.41 L1678.55 348.141 L1663.7 1009.41 L1648.86 327.123 L1634.01 1009.41 L1619.16 312.211 L1604.32 1009.41 L1589.47 310.64 L1574.63 1009.41 L1559.78 311.117 L1544.93 1009.41 L1530.09 312.753 L1515.24 1009.41 L1500.39 312.513 L1485.55 1009.41 L1470.7 313.747 L1455.86 1009.41 L1441.01 313.037 L1426.16 1009.41 L1411.32 309.97 L1396.47 1009.41 L1381.63 311.162 L1366.78 1009.41 L1351.93 309.872 L1337.09 1009.41 L1322.24 222.443 L1307.4 1009.41 L1292.55 186.259 L1277.7 1009.41 L1262.86 151.033 L1248.01 1009.41 L1233.17 143.404 L1218.32 1009.41 L1203.47 965.922  Z" fill="#00467f" fill-rule="evenodd" fill-opacity="0.2"/>
<polyline clip-path="url(#clip653)" style="stroke:#00467f; stroke-linecap:round; stroke-linejoin:round; stroke-width:4; stroke-opacity:0; fill:none" points="1203.47,965.922 1218.32,1009.41 1233.17,570.731 1248.01,1009.41 1262.86,580.22 1277.7,1009.41 1292.55,597.834 1307.4,1009.41 1322.24,615.925 1337.09,1009.41 1351.93,659.64 1366.78,1009.41 1381.63,660.285 1396.47,1009.41 1411.32,659.689 1426.16,1009.41 1441.01,661.222 1455.86,1009.41 1470.7,661.577 1485.55,1009.41 1500.39,660.961 1515.24,1009.41 1530.09,661.08 1544.93,1009.41 1559.78,660.262 1574.63,1009.41 1589.47,660.024 1604.32,1009.41 1619.16,660.809 1634.01,1009.41 1648.86,668.266 1663.7,1009.41 1678.55,678.774 1693.39,1009.41 1708.24,670.828 1723.09,1009.41 1737.93,659.66 1752.78,1009.41 1767.62,666.419 1782.47,1009.41 1797.32,659.836 1812.16,1009.41 1827.01,659.724 1841.86,1009.41 1856.7,659.771 1871.55,1009.41 1886.39,665.01 1901.24,1009.41 1916.09,659.669 1930.93,1009.41 "/>
<path clip-path="url(#clip653)" d="M1203.47 965.922 L1218.32 1009.41 L1233.17 998.057 L1248.01 1009.41 L1262.86 1009.41 L1277.7 1009.41 L1292.55 998.453 L1307.4 1009.41 L1322.24 1001.96 L1337.09 1009.41 L1351.93 997.97 L1366.78 1009.41 L1381.63 997.952 L1396.47 1009.41 L1411.32 997.926 L1426.16 1009.41 L1441.01 997.926 L1455.86 1009.41 L1470.7 997.928 L1485.55 1009.41 L1500.39 998.456 L1515.24 1009.41 L1530.09 998.271 L1544.93 1009.41 L1559.78 1002.2 L1574.63 1009.41 L1589.47 1002.51 L1604.32 1009.41 L1619.16 997.96 L1634.01 1009.41 L1648.86 997.964 L1663.7 1009.41 L1678.55 997.926 L1693.39 1009.41 L1708.24 997.962 L1723.09 1009.41 L1737.93 990.807 L1752.78 1009.41 L1767.62 997.926 L1782.47 1009.41 L1797.32 997.961 L1812.16 1009.41 L1827.01 997.926 L1841.86 1009.41 L1856.7 997.927 L1871.55 1009.41 L1886.39 998.493 L1901.24 1009.41 L1916.09 978.17 L1930.93 1009.41 L1930.93 1009.41 L1916.09 394.992 L1901.24 1009.41 L1886.39 389 L1871.55 1009.41 L1856.7 380.832 L1841.86 1009.41 L1827.01 386.013 L1812.16 1009.41 L1797.32 395.801 L1782.47 1009.41 L1767.62 392.244 L1752.78 1009.41 L1737.93 385.477 L1723.09 1009.41 L1708.24 396.953 L1693.39 1009.41 L1678.55 395.057 L1663.7 1009.41 L1648.86 397.244 L1634.01 1009.41 L1619.16 392.441 L1604.32 1009.41 L1589.47 381.562 L1574.63 1009.41 L1559.78 379.38 L1544.93 1009.41 L1530.09 376.96 L1515.24 1009.41 L1500.39 387.475 L1485.55 1009.41 L1470.7 379.384 L1455.86 1009.41 L1441.01 376.108 L1426.16 1009.41 L1411.32 375.527 L1396.47 1009.41 L1381.63 393.56 L1366.78 1009.41 L1351.93 377.138 L1337.09 1009.41 L1322.24 370.886 L1307.4 1009.41 L1292.55 354.674 L1277.7 1009.41 L1262.86 338.752 L1248.01 1009.41 L1233.17 143.404 L1218.32 1009.41 L1203.47 965.922  Z" fill="#00467f" fill-rule="evenodd" fill-opacity="0.2"/>
<polyline clip-path="url(#clip653)" style="stroke:#00467f; stroke-linecap:round; stroke-linejoin:round; stroke-width:4; stroke-opacity:0; fill:none" points="1203.47,965.922 1218.32,1009.41 1233.17,570.731 1248.01,1009.41 1262.86,674.08 1277.7,1009.41 1292.55,676.564 1307.4,1009.41 1322.24,686.422 1337.09,1009.41 1351.93,687.554 1366.78,1009.41 1381.63,695.756 1396.47,1009.41 1411.32,686.726 1426.16,1009.41 1441.01,687.017 1455.86,1009.41 1470.7,688.656 1485.55,1009.41 1500.39,692.965 1515.24,1009.41 1530.09,687.615 1544.93,1009.41 1559.78,690.789 1574.63,1009.41 1589.47,692.035 1604.32,1009.41 1619.16,695.201 1634.01,1009.41 1648.86,697.604 1663.7,1009.41 1678.55,696.491 1693.39,1009.41 1708.24,697.458 1723.09,1009.41 1737.93,688.142 1752.78,1009.41 1767.62,695.085 1782.47,1009.41 1797.32,696.881 1812.16,1009.41 1827.01,691.97 1841.86,1009.41 1856.7,689.379 1871.55,1009.41 1886.39,693.747 1901.24,1009.41 1916.09,686.581 1930.93,1009.41 "/>
<path clip-path="url(#clip653)" d="M1203.47 965.922 L1218.32 1009.41 L1233.17 903.259 L1248.01 1009.41 L1262.86 997.798 L1277.7 1009.41 L1292.55 961.011 L1307.4 1009.41 L1322.24 945.624 L1337.09 1009.41 L1351.93 941.206 L1366.78 1009.41 L1381.63 942.072 L1396.47 1009.41 L1411.32 941.565 L1426.16 1009.41 L1441.01 937.956 L1455.86 1009.41 L1470.7 940.035 L1485.55 1009.41 L1500.39 950.576 L1515.24 1009.41 L1530.09 945.031 L1544.93 1009.41 L1559.78 951.122 L1574.63 1009.41 L1589.47 947.741 L1604.32 1009.41 L1619.16 940.911 L1634.01 1009.41 L1648.86 947.062 L1663.7 1009.41 L1678.55 947.153 L1693.39 1009.41 L1708.24 950.678 L1723.09 1009.41 L1737.93 934.5 L1752.78 1009.41 L1767.62 943.693 L1782.47 1009.41 L1797.32 950.949 L1812.16 1009.41 L1827.01 942.218 L1841.86 1009.41 L1856.7 939.121 L1871.55 1009.41 L1886.39 953.633 L1901.24 1009.41 L1916.09 944.375 L1930.93 1009.41 L1930.93 1009.41 L1916.09 483.913 L1901.24 1009.41 L1886.39 480.37 L1871.55 1009.41 L1856.7 450.267 L1841.86 1009.41 L1827.01 511.238 L1812.16 1009.41 L1797.32 517.866 L1782.47 1009.41 L1767.62 501.585 L1752.78 1009.41 L1737.93 485.98 L1723.09 1009.41 L1708.24 509.106 L1693.39 1009.41 L1678.55 500.638 L1663.7 1009.41 L1648.86 540.777 L1634.01 1009.41 L1619.16 519.502 L1604.32 1009.41 L1589.47 528.176 L1574.63 1009.41 L1559.78 510.666 L1544.93 1009.41 L1530.09 457.291 L1515.24 1009.41 L1500.39 506.187 L1485.55 1009.41 L1470.7 460.659 L1455.86 1009.41 L1441.01 482.826 L1426.16 1009.41 L1411.32 466.219 L1396.47 1009.41 L1381.63 491.949 L1366.78 1009.41 L1351.93 461.48 L1337.09 1009.41 L1322.24 522.146 L1307.4 1009.41 L1292.55 522.486 L1277.7 1009.41 L1262.86 563.626 L1248.01 1009.41 L1233.17 227.803 L1218.32 1009.41 L1203.47 965.922  Z" fill="#00467f" fill-rule="evenodd" fill-opacity="0.2"/>
<polyline clip-path="url(#clip653)" style="stroke:#00467f; stroke-linecap:round; stroke-linejoin:round; stroke-width:4; stroke-opacity:0; fill:none" points="1203.47,965.922 1218.32,1009.41 1233.17,565.531 1248.01,1009.41 1262.86,780.712 1277.7,1009.41 1292.55,741.748 1307.4,1009.41 1322.24,733.885 1337.09,1009.41 1351.93,701.343 1366.78,1009.41 1381.63,717.011 1396.47,1009.41 1411.32,703.892 1426.16,1009.41 1441.01,710.391 1455.86,1009.41 1470.7,700.347 1485.55,1009.41 1500.39,728.382 1515.24,1009.41 1530.09,701.161 1544.93,1009.41 1559.78,730.894 1574.63,1009.41 1589.47,737.959 1604.32,1009.41 1619.16,730.206 1634.01,1009.41 1648.86,743.919 1663.7,1009.41 1678.55,723.895 1693.39,1009.41 1708.24,729.892 1723.09,1009.41 1737.93,710.24 1752.78,1009.41 1767.62,722.639 1782.47,1009.41 1797.32,734.407 1812.16,1009.41 1827.01,726.728 1841.86,1009.41 1856.7,694.694 1871.55,1009.41 1886.39,717.001 1901.24,1009.41 1916.09,714.144 1930.93,1009.41 "/>
<polyline clip-path="url(#clip653)" style="stroke:#00467f; stroke-linecap:round; stroke-linejoin:round; stroke-width:4; stroke-opacity:1; fill:none" points="1203.47,965.922 1218.32,1009.41 1233.17,427.394 1248.01,1009.41 1262.86,805.595 1277.7,1009.41 1292.55,801.173 1307.4,1009.41 1322.24,830.511 1337.09,1009.41 1351.93,696.887 1366.78,1009.41 1381.63,727.361 1396.47,1009.41 1411.32,714.869 1426.16,1009.41 1441.01,686.153 1455.86,1009.41 1470.7,783.008 1485.55,1009.41 1500.39,672.128 1515.24,1009.41 1530.09,739.901 1544.93,1009.41 1559.78,678.458 1574.63,1009.41 1589.47,852.996 1604.32,1009.41 1619.16,740.899 1634.01,1009.41 1648.86,862.677 1663.7,1009.41 1678.55,839.912 1693.39,1009.41 1708.24,858.147 1723.09,1009.41 1737.93,723.151 1752.78,1009.41 1767.62,847.104 1782.47,1009.41 1797.32,854.91 1812.16,1009.41 1827.01,723.182 1841.86,1009.41 1856.7,693.377 1871.55,1009.41 1886.39,837.574 1901.24,1009.41 1916.09,846.044 1930.93,1009.41 "/>
</svg>
