<?xml version="1.0" encoding="utf-8"?>
<svg xmlns="http://www.w3.org/2000/svg" xmlns:xlink="http://www.w3.org/1999/xlink" width="500" height="300" viewBox="0 0 2000 1200">
<defs>
  <clipPath id="clip570">
    <rect x="0" y="0" width="2000" height="1200"/>
  </clipPath>
</defs>
<path clip-path="url(#clip570)" d="M0 1200 L2000 1200 L2000 0 L0 0  Z" fill="#ffffff" fill-rule="evenodd" fill-opacity="1"/>
<defs>
  <clipPath id="clip571">
    <rect x="400" y="0" width="1401" height="1200"/>
  </clipPath>
</defs>
<path clip-path="url(#clip570)" d="M168.015 1035.39 L952.756 1035.39 L952.756 117.424 L168.015 117.424  Z" fill="#ffffff" fill-rule="evenodd" fill-opacity="1"/>
<defs>
  <clipPath id="clip572">
    <rect x="168" y="117" width="786" height="919"/>
  </clipPath>
</defs>
<polyline clip-path="url(#clip572)" style="stroke:#000000; stroke-linecap:round; stroke-linejoin:round; stroke-width:2; stroke-opacity:0.1; fill:none" points="175.116,1035.39 175.116,117.424 "/>
<polyline clip-path="url(#clip572)" style="stroke:#000000; stroke-linecap:round; stroke-linejoin:round; stroke-width:2; stroke-opacity:0.1; fill:none" points="326.202,1035.39 326.202,117.424 "/>
<polyline clip-path="url(#clip572)" style="stroke:#000000; stroke-linecap:round; stroke-linejoin:round; stroke-width:2; stroke-opacity:0.1; fill:none" points="477.288,1035.39 477.288,117.424 "/>
<polyline clip-path="url(#clip572)" style="stroke:#000000; stroke-linecap:round; stroke-linejoin:round; stroke-width:2; stroke-opacity:0.1; fill:none" points="628.374,1035.39 628.374,117.424 "/>
<polyline clip-path="url(#clip572)" style="stroke:#000000; stroke-linecap:round; stroke-linejoin:round; stroke-width:2; stroke-opacity:0.1; fill:none" points="779.46,1035.39 779.46,117.424 "/>
<polyline clip-path="url(#clip572)" style="stroke:#000000; stroke-linecap:round; stroke-linejoin:round; stroke-width:2; stroke-opacity:0.1; fill:none" points="930.546,1035.39 930.546,117.424 "/>
<polyline clip-path="url(#clip572)" style="stroke:#000000; stroke-linecap:round; stroke-linejoin:round; stroke-width:2; stroke-opacity:0.1; fill:none" points="168.015,1009.41 952.756,1009.41 "/>
<polyline clip-path="url(#clip572)" style="stroke:#000000; stroke-linecap:round; stroke-linejoin:round; stroke-width:2; stroke-opacity:0.1; fill:none" points="168.015,876.22 952.756,876.22 "/>
<polyline clip-path="url(#clip572)" style="stroke:#000000; stroke-linecap:round; stroke-linejoin:round; stroke-width:2; stroke-opacity:0.1; fill:none" points="168.015,743.033 952.756,743.033 "/>
<polyline clip-path="url(#clip572)" style="stroke:#000000; stroke-linecap:round; stroke-linejoin:round; stroke-width:2; stroke-opacity:0.1; fill:none" points="168.015,609.845 952.756,609.845 "/>
<polyline clip-path="url(#clip572)" style="stroke:#000000; stroke-linecap:round; stroke-linejoin:round; stroke-width:2; stroke-opacity:0.1; fill:none" points="168.015,476.658 952.756,476.658 "/>
<polyline clip-path="url(#clip572)" style="stroke:#000000; stroke-linecap:round; stroke-linejoin:round; stroke-width:2; stroke-opacity:0.1; fill:none" points="168.015,343.47 952.756,343.47 "/>
<polyline clip-path="url(#clip572)" style="stroke:#000000; stroke-linecap:round; stroke-linejoin:round; stroke-width:2; stroke-opacity:0.1; fill:none" points="168.015,210.283 952.756,210.283 "/>
<polyline clip-path="url(#clip570)" style="stroke:#000000; stroke-linecap:round; stroke-linejoin:round; stroke-width:4; stroke-opacity:1; fill:none" points="168.015,1035.39 952.756,1035.39 "/>
<polyline clip-path="url(#clip570)" style="stroke:#000000; stroke-linecap:round; stroke-linejoin:round; stroke-width:4; stroke-opacity:1; fill:none" points="175.116,1035.39 175.116,1016.49 "/>
<polyline clip-path="url(#clip570)" style="stroke:#000000; stroke-linecap:round; stroke-linejoin:round; stroke-width:4; stroke-opacity:1; fill:none" points="326.202,1035.39 326.202,1016.49 "/>
<polyline clip-path="url(#clip570)" style="stroke:#000000; stroke-linecap:round; stroke-linejoin:round; stroke-width:4; stroke-opacity:1; fill:none" points="477.288,1035.39 477.288,1016.49 "/>
<polyline clip-path="url(#clip570)" style="stroke:#000000; stroke-linecap:round; stroke-linejoin:round; stroke-width:4; stroke-opacity:1; fill:none" points="628.374,1035.39 628.374,1016.49 "/>
<polyline clip-path="url(#clip570)" style="stroke:#000000; stroke-linecap:round; stroke-linejoin:round; stroke-width:4; stroke-opacity:1; fill:none" points="779.46,1035.39 779.46,1016.49 "/>
<polyline clip-path="url(#clip570)" style="stroke:#000000; stroke-linecap:round; stroke-linejoin:round; stroke-width:4; stroke-opacity:1; fill:none" points="930.546,1035.39 930.546,1016.49 "/>
<path clip-path="url(#clip570)" d="M175.116 1063.11 Q171.505 1063.11 169.676 1066.67 Q167.871 1070.21 167.871 1077.34 Q167.871 1084.45 169.676 1088.01 Q171.505 1091.56 175.116 1091.56 Q178.75 1091.56 180.556 1088.01 Q182.384 1084.45 182.384 1077.34 Q182.384 1070.21 180.556 1066.67 Q178.75 1063.11 175.116 1063.11 M175.116 1059.4 Q180.926 1059.4 183.982 1064.01 Q187.06 1068.59 187.06 1077.34 Q187.06 1086.07 183.982 1090.68 Q180.926 1095.26 175.116 1095.26 Q169.306 1095.26 166.227 1090.68 Q163.171 1086.07 163.171 1077.34 Q163.171 1068.59 166.227 1064.01 Q169.306 1059.4 175.116 1059.4 Z" fill="#000000" fill-rule="nonzero" fill-opacity="1" /><path clip-path="url(#clip570)" d="M300.89 1090.65 L308.528 1090.65 L308.528 1064.29 L300.218 1065.95 L300.218 1061.69 L308.482 1060.03 L313.158 1060.03 L313.158 1090.65 L320.797 1090.65 L320.797 1094.59 L300.89 1094.59 L300.89 1090.65 Z" fill="#000000" fill-rule="nonzero" fill-opacity="1" /><path clip-path="url(#clip570)" d="M340.241 1063.11 Q336.63 1063.11 334.801 1066.67 Q332.996 1070.21 332.996 1077.34 Q332.996 1084.45 334.801 1088.01 Q336.63 1091.56 340.241 1091.56 Q343.875 1091.56 345.681 1088.01 Q347.51 1084.45 347.51 1077.34 Q347.51 1070.21 345.681 1066.67 Q343.875 1063.11 340.241 1063.11 M340.241 1059.4 Q346.051 1059.4 349.107 1064.01 Q352.186 1068.59 352.186 1077.34 Q352.186 1086.07 349.107 1090.68 Q346.051 1095.26 340.241 1095.26 Q334.431 1095.26 331.352 1090.68 Q328.297 1086.07 328.297 1077.34 Q328.297 1068.59 331.352 1064.01 Q334.431 1059.4 340.241 1059.4 Z" fill="#000000" fill-rule="nonzero" fill-opacity="1" /><path clip-path="url(#clip570)" d="M456.061 1090.65 L472.381 1090.65 L472.381 1094.59 L450.436 1094.59 L450.436 1090.65 Q453.098 1087.9 457.682 1083.27 Q462.288 1078.62 463.469 1077.27 Q465.714 1074.75 466.594 1073.01 Q467.496 1071.25 467.496 1069.56 Q467.496 1066.81 465.552 1065.07 Q463.631 1063.34 460.529 1063.34 Q458.33 1063.34 455.876 1064.1 Q453.446 1064.87 450.668 1066.42 L450.668 1061.69 Q453.492 1060.56 455.946 1059.98 Q458.399 1059.4 460.436 1059.4 Q465.807 1059.4 469.001 1062.09 Q472.195 1064.77 472.195 1069.26 Q472.195 1071.39 471.385 1073.31 Q470.598 1075.21 468.492 1077.81 Q467.913 1078.48 464.811 1081.69 Q461.709 1084.89 456.061 1090.65 Z" fill="#000000" fill-rule="nonzero" fill-opacity="1" /><path clip-path="url(#clip570)" d="M492.195 1063.11 Q488.584 1063.11 486.756 1066.67 Q484.95 1070.21 484.95 1077.34 Q484.95 1084.45 486.756 1088.01 Q488.584 1091.56 492.195 1091.56 Q495.83 1091.56 497.635 1088.01 Q499.464 1084.45 499.464 1077.34 Q499.464 1070.21 497.635 1066.67 Q495.83 1063.11 492.195 1063.11 M492.195 1059.4 Q498.006 1059.4 501.061 1064.01 Q504.14 1068.59 504.14 1077.34 Q504.14 1086.07 501.061 1090.68 Q498.006 1095.26 492.195 1095.26 Q486.385 1095.26 483.307 1090.68 Q480.251 1086.07 480.251 1077.34 Q480.251 1068.59 483.307 1064.01 Q486.385 1059.4 492.195 1059.4 Z" fill="#000000" fill-rule="nonzero" fill-opacity="1" /><path clip-path="url(#clip570)" d="M617.217 1075.95 Q620.573 1076.67 622.448 1078.94 Q624.346 1081.21 624.346 1084.54 Q624.346 1089.66 620.828 1092.46 Q617.309 1095.26 610.828 1095.26 Q608.652 1095.26 606.337 1094.82 Q604.046 1094.4 601.592 1093.55 L601.592 1089.03 Q603.536 1090.17 605.851 1090.75 Q608.166 1091.32 610.689 1091.32 Q615.087 1091.32 617.379 1089.59 Q619.694 1087.85 619.694 1084.54 Q619.694 1081.49 617.541 1079.77 Q615.411 1078.04 611.592 1078.04 L607.564 1078.04 L607.564 1074.19 L611.777 1074.19 Q615.226 1074.19 617.055 1072.83 Q618.883 1071.44 618.883 1068.85 Q618.883 1066.19 616.985 1064.77 Q615.11 1063.34 611.592 1063.34 Q609.67 1063.34 607.471 1063.75 Q605.272 1064.17 602.633 1065.05 L602.633 1060.88 Q605.296 1060.14 607.61 1059.77 Q609.948 1059.4 612.008 1059.4 Q617.332 1059.4 620.434 1061.83 Q623.536 1064.24 623.536 1068.36 Q623.536 1071.23 621.893 1073.22 Q620.249 1075.19 617.217 1075.95 Z" fill="#000000" fill-rule="nonzero" fill-opacity="1" /><path clip-path="url(#clip570)" d="M643.212 1063.11 Q639.601 1063.11 637.772 1066.67 Q635.967 1070.21 635.967 1077.34 Q635.967 1084.45 637.772 1088.01 Q639.601 1091.56 643.212 1091.56 Q646.846 1091.56 648.652 1088.01 Q650.48 1084.45 650.48 1077.34 Q650.48 1070.21 648.652 1066.67 Q646.846 1063.11 643.212 1063.11 M643.212 1059.4 Q649.022 1059.4 652.078 1064.01 Q655.156 1068.59 655.156 1077.34 Q655.156 1086.07 652.078 1090.68 Q649.022 1095.26 643.212 1095.26 Q637.402 1095.26 634.323 1090.68 Q631.268 1086.07 631.268 1077.34 Q631.268 1068.59 634.323 1064.01 Q637.402 1059.4 643.212 1059.4 Z" fill="#000000" fill-rule="nonzero" fill-opacity="1" /><path clip-path="url(#clip570)" d="M767.632 1064.1 L755.826 1082.55 L767.632 1082.55 L767.632 1064.1 M766.405 1060.03 L772.284 1060.03 L772.284 1082.55 L777.215 1082.55 L777.215 1086.44 L772.284 1086.44 L772.284 1094.59 L767.632 1094.59 L767.632 1086.44 L752.03 1086.44 L752.03 1081.93 L766.405 1060.03 Z" fill="#000000" fill-rule="nonzero" fill-opacity="1" /><path clip-path="url(#clip570)" d="M794.946 1063.11 Q791.335 1063.11 789.506 1066.67 Q787.701 1070.21 787.701 1077.34 Q787.701 1084.45 789.506 1088.01 Q791.335 1091.56 794.946 1091.56 Q798.58 1091.56 800.386 1088.01 Q802.215 1084.45 802.215 1077.34 Q802.215 1070.21 800.386 1066.67 Q798.58 1063.11 794.946 1063.11 M794.946 1059.4 Q800.756 1059.4 803.812 1064.01 Q806.891 1068.59 806.891 1077.34 Q806.891 1086.07 803.812 1090.68 Q800.756 1095.26 794.946 1095.26 Q789.136 1095.26 786.057 1090.68 Q783.002 1086.07 783.002 1077.34 Q783.002 1068.59 786.057 1064.01 Q789.136 1059.4 794.946 1059.4 Z" fill="#000000" fill-rule="nonzero" fill-opacity="1" /><path clip-path="url(#clip570)" d="M905.245 1060.03 L923.602 1060.03 L923.602 1063.96 L909.528 1063.96 L909.528 1072.44 Q910.546 1072.09 911.565 1071.93 Q912.583 1071.74 913.602 1071.74 Q919.389 1071.74 922.769 1074.91 Q926.148 1078.08 926.148 1083.5 Q926.148 1089.08 922.676 1092.18 Q919.204 1095.26 912.884 1095.26 Q910.708 1095.26 908.44 1094.89 Q906.195 1094.52 903.787 1093.78 L903.787 1089.08 Q905.87 1090.21 908.093 1090.77 Q910.315 1091.32 912.792 1091.32 Q916.796 1091.32 919.134 1089.22 Q921.472 1087.11 921.472 1083.5 Q921.472 1079.89 919.134 1077.78 Q916.796 1075.68 912.792 1075.68 Q910.917 1075.68 909.042 1076.09 Q907.19 1076.51 905.245 1077.39 L905.245 1060.03 Z" fill="#000000" fill-rule="nonzero" fill-opacity="1" /><path clip-path="url(#clip570)" d="M945.361 1063.11 Q941.75 1063.11 939.921 1066.67 Q938.116 1070.21 938.116 1077.34 Q938.116 1084.45 939.921 1088.01 Q941.75 1091.56 945.361 1091.56 Q948.995 1091.56 950.801 1088.01 Q952.629 1084.45 952.629 1077.34 Q952.629 1070.21 950.801 1066.67 Q948.995 1063.11 945.361 1063.11 M945.361 1059.4 Q951.171 1059.4 954.227 1064.01 Q957.305 1068.59 957.305 1077.34 Q957.305 1086.07 954.227 1090.68 Q951.171 1095.26 945.361 1095.26 Q939.551 1095.26 936.472 1090.68 Q933.417 1086.07 933.417 1077.34 Q933.417 1068.59 936.472 1064.01 Q939.551 1059.4 945.361 1059.4 Z" fill="#000000" fill-rule="nonzero" fill-opacity="1" /><path clip-path="url(#clip570)" d="M500.675 1128.29 L500.675 1134.56 Q497.015 1132.81 493.768 1131.95 Q490.522 1131.09 487.498 1131.09 Q482.246 1131.09 479.382 1133.13 Q476.549 1135.17 476.549 1138.92 Q476.549 1142.07 478.427 1143.7 Q480.337 1145.29 485.62 1146.27 L489.503 1147.07 Q496.696 1148.44 500.102 1151.91 Q503.54 1155.35 503.54 1161.14 Q503.54 1168.05 498.893 1171.61 Q494.277 1175.17 485.334 1175.17 Q481.96 1175.17 478.14 1174.41 Q474.353 1173.65 470.279 1172.15 L470.279 1165.53 Q474.194 1167.73 477.949 1168.84 Q481.705 1169.95 485.334 1169.95 Q490.84 1169.95 493.832 1167.79 Q496.824 1165.63 496.824 1161.62 Q496.824 1158.11 494.659 1156.14 Q492.527 1154.17 487.625 1153.18 L483.71 1152.42 Q476.517 1150.99 473.302 1147.93 Q470.088 1144.87 470.088 1139.43 Q470.088 1133.13 474.512 1129.5 Q478.968 1125.87 486.766 1125.87 Q490.108 1125.87 493.577 1126.48 Q497.047 1127.08 500.675 1128.29 Z" fill="#000000" fill-rule="nonzero" fill-opacity="1" /><path clip-path="url(#clip570)" d="M519.104 1128.48 L519.104 1138.6 L531.167 1138.6 L531.167 1143.16 L519.104 1143.16 L519.104 1162.51 Q519.104 1166.87 520.281 1168.11 Q521.491 1169.35 525.151 1169.35 L531.167 1169.35 L531.167 1174.25 L525.151 1174.25 Q518.372 1174.25 515.794 1171.74 Q513.215 1169.19 513.215 1162.51 L513.215 1143.16 L508.919 1143.16 L508.919 1138.6 L513.215 1138.6 L513.215 1128.48 L519.104 1128.48 Z" fill="#000000" fill-rule="nonzero" fill-opacity="1" /><path clip-path="url(#clip570)" d="M555.07 1156.33 Q547.972 1156.33 545.235 1157.96 Q542.498 1159.58 542.498 1163.49 Q542.498 1166.61 544.535 1168.46 Q546.604 1170.27 550.137 1170.27 Q555.006 1170.27 557.935 1166.84 Q560.895 1163.37 560.895 1157.64 L560.895 1156.33 L555.07 1156.33 M566.751 1153.91 L566.751 1174.25 L560.895 1174.25 L560.895 1168.84 Q558.889 1172.09 555.898 1173.65 Q552.906 1175.17 548.577 1175.17 Q543.102 1175.17 539.856 1172.12 Q536.641 1169.03 536.641 1163.88 Q536.641 1157.86 540.652 1154.8 Q544.694 1151.75 552.683 1151.75 L560.895 1151.75 L560.895 1151.18 Q560.895 1147.13 558.221 1144.94 Q555.579 1142.71 550.773 1142.71 Q547.718 1142.71 544.821 1143.44 Q541.925 1144.17 539.251 1145.64 L539.251 1140.23 Q542.466 1138.99 545.49 1138.38 Q548.513 1137.74 551.378 1137.74 Q559.112 1137.74 562.932 1141.75 Q566.751 1145.77 566.751 1153.91 Z" fill="#000000" fill-rule="nonzero" fill-opacity="1" /><path clip-path="url(#clip570)" d="M602.272 1156.01 Q602.272 1149.65 599.63 1146.15 Q597.02 1142.65 592.278 1142.65 Q587.567 1142.65 584.925 1146.15 Q582.315 1149.65 582.315 1156.01 Q582.315 1162.35 584.925 1165.85 Q587.567 1169.35 592.278 1169.35 Q597.02 1169.35 599.63 1165.85 Q602.272 1162.35 602.272 1156.01 M608.128 1169.83 Q608.128 1178.93 604.086 1183.35 Q600.044 1187.81 591.705 1187.81 Q588.617 1187.81 585.88 1187.33 Q583.143 1186.89 580.565 1185.93 L580.565 1180.24 Q583.143 1181.64 585.657 1182.3 Q588.172 1182.97 590.782 1182.97 Q596.543 1182.97 599.407 1179.95 Q602.272 1176.96 602.272 1170.88 L602.272 1167.98 Q600.457 1171.13 597.625 1172.69 Q594.792 1174.25 590.845 1174.25 Q584.289 1174.25 580.278 1169.25 Q576.268 1164.26 576.268 1156.01 Q576.268 1147.74 580.278 1142.74 Q584.289 1137.74 590.845 1137.74 Q594.792 1137.74 597.625 1139.3 Q600.457 1140.86 602.272 1144.01 L602.272 1138.6 L608.128 1138.6 L608.128 1169.83 Z" fill="#000000" fill-rule="nonzero" fill-opacity="1" /><path clip-path="url(#clip570)" d="M650.683 1154.96 L650.683 1157.83 L623.756 1157.83 Q624.138 1163.88 627.384 1167.06 Q630.663 1170.21 636.487 1170.21 Q639.861 1170.21 643.012 1169.38 Q646.195 1168.55 649.314 1166.9 L649.314 1172.44 Q646.163 1173.77 642.853 1174.47 Q639.543 1175.17 636.137 1175.17 Q627.607 1175.17 622.61 1170.21 Q617.645 1165.24 617.645 1156.78 Q617.645 1148.03 622.356 1142.9 Q627.098 1137.74 635.119 1137.74 Q642.312 1137.74 646.482 1142.39 Q650.683 1147.01 650.683 1154.96 M644.826 1153.25 Q644.763 1148.44 642.121 1145.57 Q639.511 1142.71 635.182 1142.71 Q630.281 1142.71 627.321 1145.48 Q624.393 1148.25 623.947 1153.28 L644.826 1153.25 Z" fill="#000000" fill-rule="nonzero" fill-opacity="1" /><polyline clip-path="url(#clip570)" style="stroke:#000000; stroke-linecap:round; stroke-linejoin:round; stroke-width:4; stroke-opacity:1; fill:none" points="168.015,1035.39 168.015,117.424 "/>
<polyline clip-path="url(#clip570)" style="stroke:#000000; stroke-linecap:round; stroke-linejoin:round; stroke-width:4; stroke-opacity:1; fill:none" points="168.015,1009.41 186.912,1009.41 "/>
<polyline clip-path="url(#clip570)" style="stroke:#000000; stroke-linecap:round; stroke-linejoin:round; stroke-width:4; stroke-opacity:1; fill:none" points="168.015,876.22 186.912,876.22 "/>
<polyline clip-path="url(#clip570)" style="stroke:#000000; stroke-linecap:round; stroke-linejoin:round; stroke-width:4; stroke-opacity:1; fill:none" points="168.015,743.033 186.912,743.033 "/>
<polyline clip-path="url(#clip570)" style="stroke:#000000; stroke-linecap:round; stroke-linejoin:round; stroke-width:4; stroke-opacity:1; fill:none" points="168.015,609.845 186.912,609.845 "/>
<polyline clip-path="url(#clip570)" style="stroke:#000000; stroke-linecap:round; stroke-linejoin:round; stroke-width:4; stroke-opacity:1; fill:none" points="168.015,476.658 186.912,476.658 "/>
<polyline clip-path="url(#clip570)" style="stroke:#000000; stroke-linecap:round; stroke-linejoin:round; stroke-width:4; stroke-opacity:1; fill:none" points="168.015,343.47 186.912,343.47 "/>
<polyline clip-path="url(#clip570)" style="stroke:#000000; stroke-linecap:round; stroke-linejoin:round; stroke-width:4; stroke-opacity:1; fill:none" points="168.015,210.283 186.912,210.283 "/>
<path clip-path="url(#clip570)" d="M126.07 995.206 Q122.459 995.206 120.631 998.771 Q118.825 1002.31 118.825 1009.44 Q118.825 1016.55 120.631 1020.11 Q122.459 1023.66 126.07 1023.66 Q129.705 1023.66 131.51 1020.11 Q133.339 1016.55 133.339 1009.44 Q133.339 1002.31 131.51 998.771 Q129.705 995.206 126.07 995.206 M126.07 991.503 Q131.881 991.503 134.936 996.109 Q138.015 1000.69 138.015 1009.44 Q138.015 1018.17 134.936 1022.78 Q131.881 1027.36 126.07 1027.36 Q120.26 1027.36 117.182 1022.78 Q114.126 1018.17 114.126 1009.44 Q114.126 1000.69 117.182 996.109 Q120.26 991.503 126.07 991.503 Z" fill="#000000" fill-rule="nonzero" fill-opacity="1" /><path clip-path="url(#clip570)" d="M56.5569 889.565 L64.1958 889.565 L64.1958 863.199 L55.8856 864.866 L55.8856 860.607 L64.1495 858.94 L68.8254 858.94 L68.8254 889.565 L76.4642 889.565 L76.4642 893.5 L56.5569 893.5 L56.5569 889.565 Z" fill="#000000" fill-rule="nonzero" fill-opacity="1" /><path clip-path="url(#clip570)" d="M95.9086 862.019 Q92.2975 862.019 90.4688 865.584 Q88.6632 869.125 88.6632 876.255 Q88.6632 883.361 90.4688 886.926 Q92.2975 890.468 95.9086 890.468 Q99.5428 890.468 101.348 886.926 Q103.177 883.361 103.177 876.255 Q103.177 869.125 101.348 865.584 Q99.5428 862.019 95.9086 862.019 M95.9086 858.315 Q101.719 858.315 104.774 862.922 Q107.853 867.505 107.853 876.255 Q107.853 884.982 104.774 889.588 Q101.719 894.172 95.9086 894.172 Q90.0984 894.172 87.0197 889.588 Q83.9642 884.982 83.9642 876.255 Q83.9642 867.505 87.0197 862.922 Q90.0984 858.315 95.9086 858.315 Z" fill="#000000" fill-rule="nonzero" fill-opacity="1" /><path clip-path="url(#clip570)" d="M126.07 862.019 Q122.459 862.019 120.631 865.584 Q118.825 869.125 118.825 876.255 Q118.825 883.361 120.631 886.926 Q122.459 890.468 126.07 890.468 Q129.705 890.468 131.51 886.926 Q133.339 883.361 133.339 876.255 Q133.339 869.125 131.51 865.584 Q129.705 862.019 126.07 862.019 M126.07 858.315 Q131.881 858.315 134.936 862.922 Q138.015 867.505 138.015 876.255 Q138.015 884.982 134.936 889.588 Q131.881 894.172 126.07 894.172 Q120.26 894.172 117.182 889.588 Q114.126 884.982 114.126 876.255 Q114.126 867.505 117.182 862.922 Q120.26 858.315 126.07 858.315 Z" fill="#000000" fill-rule="nonzero" fill-opacity="1" /><path clip-path="url(#clip570)" d="M59.7745 756.378 L76.0939 756.378 L76.0939 760.313 L54.1495 760.313 L54.1495 756.378 Q56.8115 753.623 61.3949 748.993 Q66.0013 744.341 67.1819 742.998 Q69.4272 740.475 70.3068 738.739 Q71.2096 736.979 71.2096 735.29 Q71.2096 732.535 69.2652 730.799 Q67.3439 729.063 64.2421 729.063 Q62.043 729.063 59.5893 729.827 Q57.1588 730.591 54.381 732.142 L54.381 727.419 Q57.2051 726.285 59.6588 725.706 Q62.1124 725.128 64.1495 725.128 Q69.5198 725.128 72.7142 727.813 Q75.9087 730.498 75.9087 734.989 Q75.9087 737.118 75.0985 739.04 Q74.3115 740.938 72.205 743.53 Q71.6263 744.202 68.5245 747.419 Q65.4226 750.614 59.7745 756.378 Z" fill="#000000" fill-rule="nonzero" fill-opacity="1" /><path clip-path="url(#clip570)" d="M95.9086 728.831 Q92.2975 728.831 90.4688 732.396 Q88.6632 735.938 88.6632 743.067 Q88.6632 750.174 90.4688 753.739 Q92.2975 757.28 95.9086 757.28 Q99.5428 757.28 101.348 753.739 Q103.177 750.174 103.177 743.067 Q103.177 735.938 101.348 732.396 Q99.5428 728.831 95.9086 728.831 M95.9086 725.128 Q101.719 725.128 104.774 729.734 Q107.853 734.317 107.853 743.067 Q107.853 751.794 104.774 756.401 Q101.719 760.984 95.9086 760.984 Q90.0984 760.984 87.0197 756.401 Q83.9642 751.794 83.9642 743.067 Q83.9642 734.317 87.0197 729.734 Q90.0984 725.128 95.9086 725.128 Z" fill="#000000" fill-rule="nonzero" fill-opacity="1" /><path clip-path="url(#clip570)" d="M126.07 728.831 Q122.459 728.831 120.631 732.396 Q118.825 735.938 118.825 743.067 Q118.825 750.174 120.631 753.739 Q122.459 757.28 126.07 757.28 Q129.705 757.28 131.51 753.739 Q133.339 750.174 133.339 743.067 Q133.339 735.938 131.51 732.396 Q129.705 728.831 126.07 728.831 M126.07 725.128 Q131.881 725.128 134.936 729.734 Q138.015 734.317 138.015 743.067 Q138.015 751.794 134.936 756.401 Q131.881 760.984 126.07 760.984 Q120.26 760.984 117.182 756.401 Q114.126 751.794 114.126 743.067 Q114.126 734.317 117.182 729.734 Q120.26 725.128 126.07 725.128 Z" fill="#000000" fill-rule="nonzero" fill-opacity="1" /><path clip-path="url(#clip570)" d="M69.9133 608.491 Q73.2698 609.209 75.1448 611.477 Q77.0429 613.746 77.0429 617.079 Q77.0429 622.195 73.5244 624.996 Q70.0059 627.796 63.5245 627.796 Q61.3486 627.796 59.0338 627.357 Q56.7421 626.94 54.2884 626.084 L54.2884 621.57 Q56.2328 622.704 58.5477 623.283 Q60.8625 623.861 63.3856 623.861 Q67.7837 623.861 70.0754 622.125 Q72.3902 620.389 72.3902 617.079 Q72.3902 614.023 70.2374 612.31 Q68.1078 610.574 64.2884 610.574 L60.2606 610.574 L60.2606 606.732 L64.4735 606.732 Q67.9226 606.732 69.7513 605.366 Q71.58 603.977 71.58 601.385 Q71.58 598.723 69.6819 597.311 Q67.8069 595.875 64.2884 595.875 Q62.3671 595.875 60.168 596.292 Q57.969 596.709 55.3301 597.588 L55.3301 593.422 Q57.9921 592.681 60.3069 592.311 Q62.6449 591.94 64.705 591.94 Q70.0291 591.94 73.1309 594.371 Q76.2327 596.778 76.2327 600.898 Q76.2327 603.769 74.5892 605.76 Q72.9457 607.727 69.9133 608.491 Z" fill="#000000" fill-rule="nonzero" fill-opacity="1" /><path clip-path="url(#clip570)" d="M95.9086 595.644 Q92.2975 595.644 90.4688 599.209 Q88.6632 602.75 88.6632 609.88 Q88.6632 616.986 90.4688 620.551 Q92.2975 624.093 95.9086 624.093 Q99.5428 624.093 101.348 620.551 Q103.177 616.986 103.177 609.88 Q103.177 602.75 101.348 599.209 Q99.5428 595.644 95.9086 595.644 M95.9086 591.94 Q101.719 591.94 104.774 596.547 Q107.853 601.13 107.853 609.88 Q107.853 618.607 104.774 623.213 Q101.719 627.796 95.9086 627.796 Q90.0984 627.796 87.0197 623.213 Q83.9642 618.607 83.9642 609.88 Q83.9642 601.13 87.0197 596.547 Q90.0984 591.94 95.9086 591.94 Z" fill="#000000" fill-rule="nonzero" fill-opacity="1" /><path clip-path="url(#clip570)" d="M126.07 595.644 Q122.459 595.644 120.631 599.209 Q118.825 602.75 118.825 609.88 Q118.825 616.986 120.631 620.551 Q122.459 624.093 126.07 624.093 Q129.705 624.093 131.51 620.551 Q133.339 616.986 133.339 609.88 Q133.339 602.75 131.51 599.209 Q129.705 595.644 126.07 595.644 M126.07 591.94 Q131.881 591.94 134.936 596.547 Q138.015 601.13 138.015 609.88 Q138.015 618.607 134.936 623.213 Q131.881 627.796 126.07 627.796 Q120.26 627.796 117.182 623.213 Q114.126 618.607 114.126 609.88 Q114.126 601.13 117.182 596.547 Q120.26 591.94 126.07 591.94 Z" fill="#000000" fill-rule="nonzero" fill-opacity="1" /><path clip-path="url(#clip570)" d="M68.5939 463.452 L56.7884 481.901 L68.5939 481.901 L68.5939 463.452 M67.367 459.378 L73.2466 459.378 L73.2466 481.901 L78.1772 481.901 L78.1772 485.79 L73.2466 485.79 L73.2466 493.938 L68.5939 493.938 L68.5939 485.79 L52.9921 485.79 L52.9921 481.276 L67.367 459.378 Z" fill="#000000" fill-rule="nonzero" fill-opacity="1" /><path clip-path="url(#clip570)" d="M95.9086 462.456 Q92.2975 462.456 90.4688 466.021 Q88.6632 469.563 88.6632 476.692 Q88.6632 483.799 90.4688 487.364 Q92.2975 490.905 95.9086 490.905 Q99.5428 490.905 101.348 487.364 Q103.177 483.799 103.177 476.692 Q103.177 469.563 101.348 466.021 Q99.5428 462.456 95.9086 462.456 M95.9086 458.753 Q101.719 458.753 104.774 463.359 Q107.853 467.942 107.853 476.692 Q107.853 485.419 104.774 490.026 Q101.719 494.609 95.9086 494.609 Q90.0984 494.609 87.0197 490.026 Q83.9642 485.419 83.9642 476.692 Q83.9642 467.942 87.0197 463.359 Q90.0984 458.753 95.9086 458.753 Z" fill="#000000" fill-rule="nonzero" fill-opacity="1" /><path clip-path="url(#clip570)" d="M126.07 462.456 Q122.459 462.456 120.631 466.021 Q118.825 469.563 118.825 476.692 Q118.825 483.799 120.631 487.364 Q122.459 490.905 126.07 490.905 Q129.705 490.905 131.51 487.364 Q133.339 483.799 133.339 476.692 Q133.339 469.563 131.51 466.021 Q129.705 462.456 126.07 462.456 M126.07 458.753 Q131.881 458.753 134.936 463.359 Q138.015 467.942 138.015 476.692 Q138.015 485.419 134.936 490.026 Q131.881 494.609 126.07 494.609 Q120.26 494.609 117.182 490.026 Q114.126 485.419 114.126 476.692 Q114.126 467.942 117.182 463.359 Q120.26 458.753 126.07 458.753 Z" fill="#000000" fill-rule="nonzero" fill-opacity="1" /><path clip-path="url(#clip570)" d="M55.793 326.19 L74.1494 326.19 L74.1494 330.125 L60.0754 330.125 L60.0754 338.597 Q61.0939 338.25 62.1124 338.088 Q63.131 337.903 64.1495 337.903 Q69.9365 337.903 73.3161 341.074 Q76.6957 344.246 76.6957 349.662 Q76.6957 355.241 73.2235 358.343 Q69.7513 361.421 63.4319 361.421 Q61.256 361.421 58.9875 361.051 Q56.7421 360.681 54.3347 359.94 L54.3347 355.241 Q56.418 356.375 58.6402 356.931 Q60.8625 357.486 63.3393 357.486 Q67.3439 357.486 69.6819 355.38 Q72.0198 353.273 72.0198 349.662 Q72.0198 346.051 69.6819 343.945 Q67.3439 341.838 63.3393 341.838 Q61.4643 341.838 59.5893 342.255 Q57.7375 342.672 55.793 343.551 L55.793 326.19 Z" fill="#000000" fill-rule="nonzero" fill-opacity="1" /><path clip-path="url(#clip570)" d="M95.9086 329.269 Q92.2975 329.269 90.4688 332.834 Q88.6632 336.375 88.6632 343.505 Q88.6632 350.611 90.4688 354.176 Q92.2975 357.718 95.9086 357.718 Q99.5428 357.718 101.348 354.176 Q103.177 350.611 103.177 343.505 Q103.177 336.375 101.348 332.834 Q99.5428 329.269 95.9086 329.269 M95.9086 325.565 Q101.719 325.565 104.774 330.172 Q107.853 334.755 107.853 343.505 Q107.853 352.232 104.774 356.838 Q101.719 361.421 95.9086 361.421 Q90.0984 361.421 87.0197 356.838 Q83.9642 352.232 83.9642 343.505 Q83.9642 334.755 87.0197 330.172 Q90.0984 325.565 95.9086 325.565 Z" fill="#000000" fill-rule="nonzero" fill-opacity="1" /><path clip-path="url(#clip570)" d="M126.07 329.269 Q122.459 329.269 120.631 332.834 Q118.825 336.375 118.825 343.505 Q118.825 350.611 120.631 354.176 Q122.459 357.718 126.07 357.718 Q129.705 357.718 131.51 354.176 Q133.339 350.611 133.339 343.505 Q133.339 336.375 131.51 332.834 Q129.705 329.269 126.07 329.269 M126.07 325.565 Q131.881 325.565 134.936 330.172 Q138.015 334.755 138.015 343.505 Q138.015 352.232 134.936 356.838 Q131.881 361.421 126.07 361.421 Q120.26 361.421 117.182 356.838 Q114.126 352.232 114.126 343.505 Q114.126 334.755 117.182 330.172 Q120.26 325.565 126.07 325.565 Z" fill="#000000" fill-rule="nonzero" fill-opacity="1" /><path clip-path="url(#clip570)" d="M66.3254 208.419 Q63.1773 208.419 61.3254 210.572 Q59.4967 212.725 59.4967 216.475 Q59.4967 220.202 61.3254 222.377 Q63.1773 224.53 66.3254 224.53 Q69.4735 224.53 71.3022 222.377 Q73.1541 220.202 73.1541 216.475 Q73.1541 212.725 71.3022 210.572 Q69.4735 208.419 66.3254 208.419 M75.6077 193.767 L75.6077 198.026 Q73.8485 197.192 72.0429 196.753 Q70.2606 196.313 68.5013 196.313 Q63.8717 196.313 61.418 199.438 Q58.9875 202.563 58.6402 208.882 Q60.006 206.868 62.0662 205.803 Q64.1263 204.716 66.6032 204.716 Q71.8115 204.716 74.8207 207.887 Q77.8531 211.035 77.8531 216.475 Q77.8531 221.799 74.705 225.016 Q71.5568 228.234 66.3254 228.234 Q60.33 228.234 57.1588 223.651 Q53.9875 219.044 53.9875 210.317 Q53.9875 202.123 57.8764 197.262 Q61.7652 192.378 68.3161 192.378 Q70.0754 192.378 71.8578 192.725 Q73.6633 193.072 75.6077 193.767 Z" fill="#000000" fill-rule="nonzero" fill-opacity="1" /><path clip-path="url(#clip570)" d="M95.9086 196.081 Q92.2975 196.081 90.4688 199.646 Q88.6632 203.188 88.6632 210.317 Q88.6632 217.424 90.4688 220.989 Q92.2975 224.53 95.9086 224.53 Q99.5428 224.53 101.348 220.989 Q103.177 217.424 103.177 210.317 Q103.177 203.188 101.348 199.646 Q99.5428 196.081 95.9086 196.081 M95.9086 192.378 Q101.719 192.378 104.774 196.984 Q107.853 201.567 107.853 210.317 Q107.853 219.044 104.774 223.651 Q101.719 228.234 95.9086 228.234 Q90.0984 228.234 87.0197 223.651 Q83.9642 219.044 83.9642 210.317 Q83.9642 201.567 87.0197 196.984 Q90.0984 192.378 95.9086 192.378 Z" fill="#000000" fill-rule="nonzero" fill-opacity="1" /><path clip-path="url(#clip570)" d="M126.07 196.081 Q122.459 196.081 120.631 199.646 Q118.825 203.188 118.825 210.317 Q118.825 217.424 120.631 220.989 Q122.459 224.53 126.07 224.53 Q129.705 224.53 131.51 220.989 Q133.339 217.424 133.339 210.317 Q133.339 203.188 131.51 199.646 Q129.705 196.081 126.07 196.081 M126.07 192.378 Q131.881 192.378 134.936 196.984 Q138.015 201.567 138.015 210.317 Q138.015 219.044 134.936 223.651 Q131.881 228.234 126.07 228.234 Q120.26 228.234 117.182 223.651 Q114.126 219.044 114.126 210.317 Q114.126 201.567 117.182 196.984 Q120.26 192.378 126.07 192.378 Z" fill="#000000" fill-rule="nonzero" fill-opacity="1" /><path clip-path="url(#clip570)" d="M287.8 27.2059 L271.394 49.2833 L288.651 72.576 L279.86 72.576 L266.654 54.752 L253.448 72.576 L244.658 72.576 L262.279 48.8377 L246.157 27.2059 L254.947 27.2059 L266.978 43.369 L279.01 27.2059 L287.8 27.2059 Z" fill="#000000" fill-rule="nonzero" fill-opacity="1" /><path clip-path="url(#clip570)" d="M333.656 86.3491 L333.656 92.1419 L290.555 92.1419 L290.555 86.3491 L333.656 86.3491 Z" fill="#000000" fill-rule="nonzero" fill-opacity="1" /><path clip-path="url(#clip570)" d="M340.664 27.2059 L348.118 27.2059 L348.118 72.576 L340.664 72.576 L340.664 27.2059 M340.664 9.54393 L348.118 9.54393 L348.118 18.9825 L340.664 18.9825 L340.664 9.54393 Z" fill="#000000" fill-rule="nonzero" fill-opacity="1" /><path clip-path="url(#clip570)" d="M401.428 45.1919 L401.428 72.576 L393.974 72.576 L393.974 45.4349 Q393.974 38.994 391.463 35.7938 Q388.951 32.5936 383.928 32.5936 Q377.892 32.5936 374.408 36.4419 Q370.925 40.2903 370.925 46.9338 L370.925 72.576 L363.43 72.576 L363.43 27.2059 L370.925 27.2059 L370.925 34.2544 Q373.598 30.163 377.203 28.1376 Q380.849 26.1121 385.589 26.1121 Q393.407 26.1121 397.417 30.9732 Q401.428 35.7938 401.428 45.1919 Z" fill="#000000" fill-rule="nonzero" fill-opacity="1" /><path clip-path="url(#clip570)" d="M410.948 27.2059 L418.847 27.2059 L433.025 65.2844 L447.203 27.2059 L455.102 27.2059 L438.089 72.576 L427.961 72.576 L410.948 27.2059 Z" fill="#000000" fill-rule="nonzero" fill-opacity="1" /><path clip-path="url(#clip570)" d="M504.199 48.0275 L504.199 51.6733 L469.929 51.6733 Q470.415 59.3701 474.547 63.421 Q478.719 67.4314 486.132 67.4314 Q490.426 67.4314 494.437 66.3781 Q498.488 65.3249 502.457 63.2184 L502.457 70.267 Q498.447 71.9684 494.234 72.8596 Q490.021 73.7508 485.687 73.7508 Q474.83 73.7508 468.47 67.4314 Q462.151 61.1119 462.151 50.3365 Q462.151 39.1965 468.146 32.6746 Q474.182 26.1121 484.39 26.1121 Q493.545 26.1121 498.852 32.0264 Q504.199 37.9003 504.199 48.0275 M496.746 45.84 Q496.665 39.7232 493.302 36.0774 Q489.981 32.4315 484.471 32.4315 Q478.233 32.4315 474.466 35.9558 Q470.739 39.4801 470.172 45.8805 L496.746 45.84 Z" fill="#000000" fill-rule="nonzero" fill-opacity="1" /><path clip-path="url(#clip570)" d="M554.147 45.1919 L554.147 72.576 L546.693 72.576 L546.693 45.4349 Q546.693 38.994 544.182 35.7938 Q541.67 32.5936 536.647 32.5936 Q530.611 32.5936 527.127 36.4419 Q523.644 40.2903 523.644 46.9338 L523.644 72.576 L516.149 72.576 L516.149 27.2059 L523.644 27.2059 L523.644 34.2544 Q526.317 30.163 529.923 28.1376 Q533.568 26.1121 538.308 26.1121 Q546.126 26.1121 550.137 30.9732 Q554.147 35.7938 554.147 45.1919 Z" fill="#000000" fill-rule="nonzero" fill-opacity="1" /><path clip-path="url(#clip570)" d="M576.386 14.324 L576.386 27.2059 L591.739 27.2059 L591.739 32.9987 L576.386 32.9987 L576.386 57.6282 Q576.386 63.1779 577.885 64.7578 Q579.425 66.3376 584.083 66.3376 L591.739 66.3376 L591.739 72.576 L584.083 72.576 Q575.455 72.576 572.173 69.3758 Q568.892 66.1351 568.892 57.6282 L568.892 32.9987 L563.424 32.9987 L563.424 27.2059 L568.892 27.2059 L568.892 14.324 L576.386 14.324 Z" fill="#000000" fill-rule="nonzero" fill-opacity="1" /><path clip-path="url(#clip570)" d="M619.123 32.4315 Q613.128 32.4315 609.644 37.1306 Q606.161 41.7891 606.161 49.9314 Q606.161 58.0738 609.604 62.7728 Q613.088 67.4314 619.123 67.4314 Q625.078 67.4314 628.562 62.7323 Q632.046 58.0333 632.046 49.9314 Q632.046 41.8701 628.562 37.1711 Q625.078 32.4315 619.123 32.4315 M619.123 26.1121 Q628.846 26.1121 634.395 32.4315 Q639.945 38.7509 639.945 49.9314 Q639.945 61.0714 634.395 67.4314 Q628.846 73.7508 619.123 73.7508 Q609.361 73.7508 603.811 67.4314 Q598.302 61.0714 598.302 49.9314 Q598.302 38.7509 603.811 32.4315 Q609.361 26.1121 619.123 26.1121 Z" fill="#000000" fill-rule="nonzero" fill-opacity="1" /><path clip-path="url(#clip570)" d="M678.591 34.1734 Q677.335 33.4443 675.836 33.1202 Q674.378 32.7556 672.595 32.7556 Q666.276 32.7556 662.873 36.8875 Q659.511 40.9789 659.511 48.6757 L659.511 72.576 L652.017 72.576 L652.017 27.2059 L659.511 27.2059 L659.511 34.2544 Q661.861 30.1225 665.628 28.1376 Q669.395 26.1121 674.783 26.1121 Q675.553 26.1121 676.484 26.2337 Q677.416 26.3147 678.55 26.5172 L678.591 34.1734 Z" fill="#000000" fill-rule="nonzero" fill-opacity="1" /><path clip-path="url(#clip570)" d="M705.286 76.7889 Q702.127 84.8907 699.129 87.3618 Q696.131 89.8329 691.108 89.8329 L685.153 89.8329 L685.153 83.5945 L689.528 83.5945 Q692.607 83.5945 694.308 82.1361 Q696.01 80.6778 698.076 75.2496 L699.412 71.8468 L681.062 27.2059 L688.961 27.2059 L703.139 62.6918 L717.317 27.2059 L725.217 27.2059 L705.286 76.7889 Z" fill="#000000" fill-rule="nonzero" fill-opacity="1" /><path clip-path="url(#clip570)" d="M724.731 62.2867 L733.278 62.2867 L733.278 72.576 L724.731 72.576 L724.731 62.2867 Z" fill="#000000" fill-rule="nonzero" fill-opacity="1" /><path clip-path="url(#clip570)" d="M767.63 32.4315 Q761.634 32.4315 758.151 37.1306 Q754.667 41.7891 754.667 49.9314 Q754.667 58.0738 758.11 62.7728 Q761.594 67.4314 767.63 67.4314 Q773.584 67.4314 777.068 62.7323 Q780.552 58.0333 780.552 49.9314 Q780.552 41.8701 777.068 37.1711 Q773.584 32.4315 767.63 32.4315 M767.63 26.1121 Q777.352 26.1121 782.902 32.4315 Q788.451 38.7509 788.451 49.9314 Q788.451 61.0714 782.902 67.4314 Q777.352 73.7508 767.63 73.7508 Q757.867 73.7508 752.317 67.4314 Q746.808 61.0714 746.808 49.9314 Q746.808 38.7509 752.317 32.4315 Q757.867 26.1121 767.63 26.1121 Z" fill="#000000" fill-rule="nonzero" fill-opacity="1" /><path clip-path="url(#clip570)" d="M800.037 54.671 L800.037 27.2059 L807.491 27.2059 L807.491 54.3874 Q807.491 60.8284 810.002 64.0691 Q812.514 67.2693 817.537 67.2693 Q823.573 67.2693 827.056 63.421 Q830.581 59.5726 830.581 52.9291 L830.581 27.2059 L838.034 27.2059 L838.034 72.576 L830.581 72.576 L830.581 65.6084 Q827.867 69.7404 824.261 71.7658 Q820.696 73.7508 815.957 73.7508 Q808.139 73.7508 804.088 68.8897 Q800.037 64.0286 800.037 54.671 M818.793 26.1121 L818.793 26.1121 Z" fill="#000000" fill-rule="nonzero" fill-opacity="1" /><path clip-path="url(#clip570)" d="M860.76 14.324 L860.76 27.2059 L876.113 27.2059 L876.113 32.9987 L860.76 32.9987 L860.76 57.6282 Q860.76 63.1779 862.259 64.7578 Q863.798 66.3376 868.457 66.3376 L876.113 66.3376 L876.113 72.576 L868.457 72.576 Q859.828 72.576 856.547 69.3758 Q853.266 66.1351 853.266 57.6282 L853.266 32.9987 L847.797 32.9987 L847.797 27.2059 L853.266 27.2059 L853.266 14.324 L860.76 14.324 Z" fill="#000000" fill-rule="nonzero" fill-opacity="1" /><path clip-path="url(#clip572)" d="M190.224 876.22 L205.333 1009.41 L220.442 1009.41 L235.55 1009.41 L250.659 1009.41 L265.768 1009.41 L280.876 1009.41 L295.985 1009.41 L311.093 1009.41 L326.202 1009.41 L341.311 1009.41 L356.419 1009.41 L371.528 1009.41 L386.636 1009.41 L401.745 1009.41 L416.854 1009.41 L431.962 1009.41 L447.071 1009.41 L462.179 1009.41 L477.288 1009.41 L492.397 1009.41 L507.505 1009.41 L522.614 1009.41 L537.722 1009.41 L552.831 1009.41 L567.94 1009.41 L583.048 1009.41 L598.157 1009.41 L613.265 1009.41 L628.374 1009.41 L643.483 1009.41 L658.591 1009.41 L673.7 1009.41 L688.809 1009.41 L703.917 1009.41 L719.026 1009.41 L734.134 1009.41 L749.243 1009.41 L764.352 1009.41 L779.46 1009.41 L794.569 1009.41 L809.677 1009.41 L824.786 1009.41 L839.895 1009.41 L855.003 1009.41 L870.112 1009.41 L885.22 1009.41 L900.329 1009.41 L915.438 1009.41 L930.546 1009.41 L930.546 153.055 L915.438 148.462 L900.329 148.462 L885.22 148.462 L870.112 148.462 L855.003 148.676 L839.895 148.676 L824.786 148.462 L809.677 148.462 L794.569 158.732 L779.46 158.732 L764.352 148.462 L749.243 148.462 L734.134 149.5 L719.026 149.5 L703.917 148.462 L688.809 148.462 L673.7 148.462 L658.591 148.462 L643.483 148.462 L628.374 148.462 L613.265 158.732 L598.157 158.732 L583.048 148.462 L567.94 148.462 L552.831 155.32 L537.722 155.32 L522.614 148.462 L507.505 148.462 L492.397 148.462 L477.288 148.462 L462.179 148.676 L447.071 148.676 L431.962 148.462 L416.854 148.462 L401.745 148.462 L386.636 148.462 L371.528 148.462 L356.419 148.462 L341.311 155.32 L326.202 155.32 L311.093 148.462 L295.985 148.462 L280.876 145.389 L265.768 145.389 L250.659 143.404 L235.55 143.404 L220.442 288.799 L205.333 288.799 L190.224 876.22  Z" fill="#00467f" fill-rule="evenodd" fill-opacity="0.2"/>
<polyline clip-path="url(#clip572)" style="stroke:#00467f; stroke-linecap:round; stroke-linejoin:round; stroke-width:4; stroke-opacity:0; fill:none" points="190.224,876.22 205.333,649.103 220.442,649.103 235.55,576.406 250.659,576.406 265.768,577.398 280.876,577.398 295.985,578.935 311.093,578.935 326.202,582.364 341.311,582.364 356.419,578.935 371.528,578.935 386.636,578.935 401.745,578.935 416.854,578.935 431.962,578.935 447.071,579.042 462.179,579.042 477.288,578.935 492.397,578.935 507.505,578.935 522.614,578.935 537.722,582.364 552.831,582.364 567.94,578.935 583.048,578.935 598.157,584.07 613.265,584.07 628.374,578.935 643.483,578.935 658.591,578.935 673.7,578.935 688.809,578.935 703.917,578.935 719.026,579.454 734.134,579.454 749.243,578.935 764.352,578.935 779.46,584.07 794.569,584.07 809.677,578.935 824.786,578.935 839.895,579.042 855.003,579.042 870.112,578.935 885.22,578.935 900.329,578.935 915.438,578.935 930.546,581.231 "/>
<path clip-path="url(#clip572)" d="M190.224 876.22 L205.333 1009.41 L220.442 1009.41 L235.55 1009.41 L250.659 1009.41 L265.768 1009.41 L280.876 1009.41 L295.985 1009.41 L311.093 1009.41 L326.202 1009.41 L341.311 1009.41 L356.419 1009.41 L371.528 1009.41 L386.636 1009.41 L401.745 1009.41 L416.854 1009.41 L431.962 1009.41 L447.071 1009.41 L462.179 1009.41 L477.288 1009.41 L492.397 1009.41 L507.505 1009.41 L522.614 1009.41 L537.722 1009.41 L552.831 1009.41 L567.94 1009.41 L583.048 1009.41 L598.157 1009.41 L613.265 1009.41 L628.374 1009.41 L643.483 1009.41 L658.591 1009.41 L673.7 1009.41 L688.809 1009.41 L703.917 1009.41 L719.026 1009.41 L734.134 1009.41 L749.243 1009.41 L764.352 1009.41 L779.46 1009.41 L794.569 1009.41 L809.677 1009.41 L824.786 1009.41 L839.895 1009.41 L855.003 1009.41 L870.112 1009.41 L885.22 1009.41 L900.329 1009.41 L915.438 1009.41 L930.546 1009.41 L930.546 198.211 L915.438 346.208 L900.329 346.208 L885.22 198.211 L870.112 198.211 L855.003 198.211 L839.895 198.211 L824.786 337.562 L809.677 337.562 L794.569 347.283 L779.46 347.283 L764.352 323.418 L749.243 323.418 L734.134 198.211 L719.026 198.211 L703.917 355.92 L688.809 355.92 L673.7 329.326 L658.591 329.326 L643.483 347.022 L628.374 347.022 L613.265 338.29 L598.157 338.29 L583.048 198.211 L567.94 198.211 L552.831 347.161 L537.722 347.161 L522.614 198.211 L507.505 198.211 L492.397 363.28 L477.288 363.28 L462.179 198.211 L447.071 198.211 L431.962 198.211 L416.854 198.211 L401.745 323.418 L386.636 323.418 L371.528 378.021 L356.419 378.021 L341.311 198.211 L326.202 198.211 L311.093 198.211 L295.985 198.211 L280.876 376.473 L265.768 376.473 L250.659 198.211 L235.55 198.211 L220.442 406.01 L205.333 406.01 L190.224 876.22  Z" fill="#00467f" fill-rule="evenodd" fill-opacity="0.2"/>
<polyline clip-path="url(#clip572)" style="stroke:#00467f; stroke-linecap:round; stroke-linejoin:round; stroke-width:4; stroke-opacity:0; fill:none" points="190.224,876.22 205.333,707.709 220.442,707.709 235.55,603.809 250.659,603.809 265.768,692.94 280.876,692.94 295.985,603.809 311.093,603.809 326.202,603.809 341.311,603.809 356.419,693.714 371.528,693.714 386.636,666.413 401.745,666.413 416.854,603.809 431.962,603.809 447.071,603.809 462.179,603.809 477.288,686.344 492.397,686.344 507.505,603.809 522.614,603.809 537.722,678.284 552.831,678.284 567.94,603.809 583.048,603.809 598.157,673.849 613.265,673.849 628.374,678.215 643.483,678.215 658.591,669.367 673.7,669.367 688.809,682.664 703.917,682.664 719.026,603.809 734.134,603.809 749.243,666.413 764.352,666.413 779.46,678.346 794.569,678.346 809.677,673.485 824.786,673.485 839.895,603.809 855.003,603.809 870.112,603.809 885.22,603.809 900.329,677.808 915.438,677.808 930.546,603.809 "/>
<path clip-path="url(#clip572)" d="M190.224 876.22 L205.333 1009.41 L220.442 1009.41 L235.55 1009.41 L250.659 1009.41 L265.768 1009.41 L280.876 1009.41 L295.985 1009.41 L311.093 1009.41 L326.202 1009.41 L341.311 1009.41 L356.419 1009.41 L371.528 1009.41 L386.636 1009.41 L401.745 1009.41 L416.854 1009.41 L431.962 1009.41 L447.071 1009.41 L462.179 1009.41 L477.288 1009.41 L492.397 1009.41 L507.505 1009.41 L522.614 1009.41 L537.722 1009.41 L552.831 1009.41 L567.94 1009.41 L583.048 1009.41 L598.157 1009.41 L613.265 1009.41 L628.374 1009.41 L643.483 1009.41 L658.591 1009.41 L673.7 1009.41 L688.809 1009.41 L703.917 1009.41 L719.026 1009.41 L734.134 1009.41 L749.243 1009.41 L764.352 1009.41 L779.46 1009.41 L794.569 1009.41 L809.677 1009.41 L824.786 1009.41 L839.895 1009.41 L855.003 1009.41 L870.112 1009.41 L885.22 1009.41 L900.329 1009.41 L915.438 1009.41 L930.546 1009.41 L930.546 639.514 L915.438 601.408 L900.329 601.408 L885.22 621.074 L870.112 621.074 L855.003 648.872 L839.895 648.872 L824.786 648.853 L809.677 648.853 L794.569 648.872 L779.46 648.872 L764.352 648.872 L749.243 648.872 L734.134 648.872 L719.026 648.872 L703.917 648.872 L688.809 648.872 L673.7 640.409 L658.591 640.409 L643.483 648.872 L628.374 648.872 L613.265 620.31 L598.157 620.31 L583.048 618.157 L567.94 618.157 L552.831 641.055 L537.722 641.055 L522.614 647.094 L507.505 647.094 L492.397 648.872 L477.288 648.872 L462.179 646.791 L447.071 646.791 L431.962 647.641 L416.854 647.641 L401.745 850.55 L386.636 850.55 L371.528 852.966 L356.419 852.966 L341.311 647.637 L326.202 647.637 L311.093 647.98 L295.985 647.98 L280.876 648.872 L265.768 648.872 L250.659 648.872 L235.55 648.872 L220.442 845.496 L205.333 845.496 L190.224 876.22  Z" fill="#00467f" fill-rule="evenodd" fill-opacity="0.2"/>
<polyline clip-path="url(#clip572)" style="stroke:#00467f; stroke-linecap:round; stroke-linejoin:round; stroke-width:4; stroke-opacity:0; fill:none" points="190.224,876.22 205.333,927.452 220.442,927.452 235.55,829.14 250.659,829.14 265.768,829.14 280.876,829.14 295.985,828.694 311.093,828.694 326.202,828.522 341.311,828.522 356.419,931.187 371.528,931.187 386.636,929.979 401.745,929.979 416.854,828.524 431.962,828.524 447.071,828.099 462.179,828.099 477.288,829.14 492.397,829.14 507.505,828.251 522.614,828.251 537.722,825.231 552.831,825.231 567.94,813.782 583.048,813.782 598.157,814.859 613.265,814.859 628.374,829.14 643.483,829.14 658.591,824.908 673.7,824.908 688.809,829.14 703.917,829.14 719.026,829.14 734.134,829.14 749.243,829.14 764.352,829.14 779.46,829.14 794.569,829.14 809.677,829.131 824.786,829.131 839.895,829.14 855.003,829.14 870.112,815.241 885.22,815.241 900.329,805.408 915.438,805.408 930.546,824.461 "/>
<polyline clip-path="url(#clip572)" style="stroke:#00467f; stroke-linecap:round; stroke-linejoin:round; stroke-width:4; stroke-opacity:1; fill:none" points="190.224,876.22 205.333,991.579 220.442,991.579 235.55,891.164 250.659,891.164 265.768,891.164 280.876,891.164 295.985,891.164 311.093,891.164 326.202,891.164 341.311,891.164 356.419,970.518 371.528,970.518 386.636,970.518 401.745,970.518 416.854,923.536 431.962,923.536 447.071,891.164 462.179,891.164 477.288,891.164 492.397,891.164 507.505,922.9 522.614,922.9 537.722,891.164 552.831,891.164 567.94,941.955 583.048,941.955 598.157,891.164 613.265,891.164 628.374,969.625 643.483,969.625 658.591,891.164 673.7,891.164 688.809,933.287 703.917,933.287 719.026,891.164 734.134,891.164 749.243,891.164 764.352,891.164 779.46,967.898 794.569,967.898 809.677,925.154 824.786,925.154 839.895,941.955 855.003,941.955 870.112,890.718 885.22,890.718 900.329,891.164 915.438,891.164 930.546,932.73 "/>
<path clip-path="url(#clip570)" d="M1168.01 1035.39 L1952.76 1035.39 L1952.76 117.424 L1168.01 117.424  Z" fill="#ffffff" fill-rule="evenodd" fill-opacity="1"/>
<defs>
  <clipPath id="clip573">
    <rect x="1168" y="117" width="786" height="919"/>
  </clipPath>
</defs>
<polyline clip-path="url(#clip573)" style="stroke:#000000; stroke-linecap:round; stroke-linejoin:round; stroke-width:2; stroke-opacity:0.1; fill:none" points="1175.12,1035.39 1175.12,117.424 "/>
<polyline clip-path="url(#clip573)" style="stroke:#000000; stroke-linecap:round; stroke-linejoin:round; stroke-width:2; stroke-opacity:0.1; fill:none" points="1326.2,1035.39 1326.2,117.424 "/>
<polyline clip-path="url(#clip573)" style="stroke:#000000; stroke-linecap:round; stroke-linejoin:round; stroke-width:2; stroke-opacity:0.1; fill:none" points="1477.29,1035.39 1477.29,117.424 "/>
<polyline clip-path="url(#clip573)" style="stroke:#000000; stroke-linecap:round; stroke-linejoin:round; stroke-width:2; stroke-opacity:0.1; fill:none" points="1628.37,1035.39 1628.37,117.424 "/>
<polyline clip-path="url(#clip573)" style="stroke:#000000; stroke-linecap:round; stroke-linejoin:round; stroke-width:2; stroke-opacity:0.1; fill:none" points="1779.46,1035.39 1779.46,117.424 "/>
<polyline clip-path="url(#clip573)" style="stroke:#000000; stroke-linecap:round; stroke-linejoin:round; stroke-width:2; stroke-opacity:0.1; fill:none" points="1930.55,1035.39 1930.55,117.424 "/>
<polyline clip-path="url(#clip573)" style="stroke:#000000; stroke-linecap:round; stroke-linejoin:round; stroke-width:2; stroke-opacity:0.1; fill:none" points="1168.01,1009.41 1952.76,1009.41 "/>
<polyline clip-path="url(#clip573)" style="stroke:#000000; stroke-linecap:round; stroke-linejoin:round; stroke-width:2; stroke-opacity:0.1; fill:none" points="1168.01,806.675 1952.76,806.675 "/>
<polyline clip-path="url(#clip573)" style="stroke:#000000; stroke-linecap:round; stroke-linejoin:round; stroke-width:2; stroke-opacity:0.1; fill:none" points="1168.01,603.942 1952.76,603.942 "/>
<polyline clip-path="url(#clip573)" style="stroke:#000000; stroke-linecap:round; stroke-linejoin:round; stroke-width:2; stroke-opacity:0.1; fill:none" points="1168.01,401.208 1952.76,401.208 "/>
<polyline clip-path="url(#clip573)" style="stroke:#000000; stroke-linecap:round; stroke-linejoin:round; stroke-width:2; stroke-opacity:0.1; fill:none" points="1168.01,198.475 1952.76,198.475 "/>
<polyline clip-path="url(#clip570)" style="stroke:#000000; stroke-linecap:round; stroke-linejoin:round; stroke-width:4; stroke-opacity:1; fill:none" points="1168.01,1035.39 1952.76,1035.39 "/>
<polyline clip-path="url(#clip570)" style="stroke:#000000; stroke-linecap:round; stroke-linejoin:round; stroke-width:4; stroke-opacity:1; fill:none" points="1175.12,1035.39 1175.12,1016.49 "/>
<polyline clip-path="url(#clip570)" style="stroke:#000000; stroke-linecap:round; stroke-linejoin:round; stroke-width:4; stroke-opacity:1; fill:none" points="1326.2,1035.39 1326.2,1016.49 "/>
<polyline clip-path="url(#clip570)" style="stroke:#000000; stroke-linecap:round; stroke-linejoin:round; stroke-width:4; stroke-opacity:1; fill:none" points="1477.29,1035.39 1477.29,1016.49 "/>
<polyline clip-path="url(#clip570)" style="stroke:#000000; stroke-linecap:round; stroke-linejoin:round; stroke-width:4; stroke-opacity:1; fill:none" points="1628.37,1035.39 1628.37,1016.49 "/>
<polyline clip-path="url(#clip570)" style="stroke:#000000; stroke-linecap:round; stroke-linejoin:round; stroke-width:4; stroke-opacity:1; fill:none" points="1779.46,1035.39 1779.46,1016.49 "/>
<polyline clip-path="url(#clip570)" style="stroke:#000000; stroke-linecap:round; stroke-linejoin:round; stroke-width:4; stroke-opacity:1; fill:none" points="1930.55,1035.39 1930.55,1016.49 "/>
<path clip-path="url(#clip570)" d="M1175.12 1063.11 Q1171.5 1063.11 1169.68 1066.67 Q1167.87 1070.21 1167.87 1077.34 Q1167.87 1084.45 1169.68 1088.01 Q1171.5 1091.56 1175.12 1091.56 Q1178.75 1091.56 1180.56 1088.01 Q1182.38 1084.45 1182.38 1077.34 Q1182.38 1070.21 1180.56 1066.67 Q1178.75 1063.11 1175.12 1063.11 M1175.12 1059.4 Q1180.93 1059.4 1183.98 1064.01 Q1187.06 1068.59 1187.06 1077.34 Q1187.06 1086.07 1183.98 1090.68 Q1180.93 1095.26 1175.12 1095.26 Q1169.31 1095.26 1166.23 1090.68 Q1163.17 1086.07 1163.17 1077.34 Q1163.17 1068.59 1166.23 1064.01 Q1169.31 1059.4 1175.12 1059.4 Z" fill="#000000" fill-rule="nonzero" fill-opacity="1" /><path clip-path="url(#clip570)" d="M1300.89 1090.65 L1308.53 1090.65 L1308.53 1064.29 L1300.22 1065.95 L1300.22 1061.69 L1308.48 1060.03 L1313.16 1060.03 L1313.16 1090.65 L1320.8 1090.65 L1320.8 1094.59 L1300.89 1094.59 L1300.89 1090.65 Z" fill="#000000" fill-rule="nonzero" fill-opacity="1" /><path clip-path="url(#clip570)" d="M1340.24 1063.11 Q1336.63 1063.11 1334.8 1066.67 Q1333 1070.21 1333 1077.34 Q1333 1084.45 1334.8 1088.01 Q1336.63 1091.56 1340.24 1091.56 Q1343.88 1091.56 1345.68 1088.01 Q1347.51 1084.45 1347.51 1077.34 Q1347.51 1070.21 1345.68 1066.67 Q1343.88 1063.11 1340.24 1063.11 M1340.24 1059.4 Q1346.05 1059.4 1349.11 1064.01 Q1352.19 1068.59 1352.19 1077.34 Q1352.19 1086.07 1349.11 1090.68 Q1346.05 1095.26 1340.24 1095.26 Q1334.43 1095.26 1331.35 1090.68 Q1328.3 1086.07 1328.3 1077.34 Q1328.3 1068.59 1331.35 1064.01 Q1334.43 1059.4 1340.24 1059.4 Z" fill="#000000" fill-rule="nonzero" fill-opacity="1" /><path clip-path="url(#clip570)" d="M1456.06 1090.65 L1472.38 1090.65 L1472.38 1094.59 L1450.44 1094.59 L1450.44 1090.65 Q1453.1 1087.9 1457.68 1083.27 Q1462.29 1078.62 1463.47 1077.27 Q1465.71 1074.75 1466.59 1073.01 Q1467.5 1071.25 1467.5 1069.56 Q1467.5 1066.81 1465.55 1065.07 Q1463.63 1063.34 1460.53 1063.34 Q1458.33 1063.34 1455.88 1064.1 Q1453.45 1064.87 1450.67 1066.42 L1450.67 1061.69 Q1453.49 1060.56 1455.95 1059.98 Q1458.4 1059.4 1460.44 1059.4 Q1465.81 1059.4 1469 1062.09 Q1472.2 1064.77 1472.2 1069.26 Q1472.2 1071.39 1471.39 1073.31 Q1470.6 1075.21 1468.49 1077.81 Q1467.91 1078.48 1464.81 1081.69 Q1461.71 1084.89 1456.06 1090.65 Z" fill="#000000" fill-rule="nonzero" fill-opacity="1" /><path clip-path="url(#clip570)" d="M1492.2 1063.11 Q1488.58 1063.11 1486.76 1066.67 Q1484.95 1070.21 1484.95 1077.34 Q1484.95 1084.45 1486.76 1088.01 Q1488.58 1091.56 1492.2 1091.56 Q1495.83 1091.56 1497.64 1088.01 Q1499.46 1084.45 1499.46 1077.34 Q1499.46 1070.21 1497.64 1066.67 Q1495.83 1063.11 1492.2 1063.11 M1492.2 1059.4 Q1498.01 1059.4 1501.06 1064.01 Q1504.14 1068.59 1504.14 1077.34 Q1504.14 1086.07 1501.06 1090.68 Q1498.01 1095.26 1492.2 1095.26 Q1486.39 1095.26 1483.31 1090.68 Q1480.25 1086.07 1480.25 1077.34 Q1480.25 1068.59 1483.31 1064.01 Q1486.39 1059.4 1492.2 1059.4 Z" fill="#000000" fill-rule="nonzero" fill-opacity="1" /><path clip-path="url(#clip570)" d="M1617.22 1075.95 Q1620.57 1076.67 1622.45 1078.94 Q1624.35 1081.21 1624.35 1084.54 Q1624.35 1089.66 1620.83 1092.46 Q1617.31 1095.26 1610.83 1095.26 Q1608.65 1095.26 1606.34 1094.82 Q1604.05 1094.4 1601.59 1093.55 L1601.59 1089.03 Q1603.54 1090.17 1605.85 1090.75 Q1608.17 1091.32 1610.69 1091.32 Q1615.09 1091.32 1617.38 1089.59 Q1619.69 1087.85 1619.69 1084.54 Q1619.69 1081.49 1617.54 1079.77 Q1615.41 1078.04 1611.59 1078.04 L1607.56 1078.04 L1607.56 1074.19 L1611.78 1074.19 Q1615.23 1074.19 1617.05 1072.83 Q1618.88 1071.44 1618.88 1068.85 Q1618.88 1066.19 1616.99 1064.77 Q1615.11 1063.34 1611.59 1063.34 Q1609.67 1063.34 1607.47 1063.75 Q1605.27 1064.17 1602.63 1065.05 L1602.63 1060.88 Q1605.3 1060.14 1607.61 1059.77 Q1609.95 1059.4 1612.01 1059.4 Q1617.33 1059.4 1620.43 1061.83 Q1623.54 1064.24 1623.54 1068.36 Q1623.54 1071.23 1621.89 1073.22 Q1620.25 1075.19 1617.22 1075.95 Z" fill="#000000" fill-rule="nonzero" fill-opacity="1" /><path clip-path="url(#clip570)" d="M1643.21 1063.11 Q1639.6 1063.11 1637.77 1066.67 Q1635.97 1070.21 1635.97 1077.34 Q1635.97 1084.45 1637.77 1088.01 Q1639.6 1091.56 1643.21 1091.56 Q1646.85 1091.56 1648.65 1088.01 Q1650.48 1084.45 1650.48 1077.34 Q1650.48 1070.21 1648.65 1066.67 Q1646.85 1063.11 1643.21 1063.11 M1643.21 1059.4 Q1649.02 1059.4 1652.08 1064.01 Q1655.16 1068.59 1655.16 1077.34 Q1655.16 1086.07 1652.08 1090.68 Q1649.02 1095.26 1643.21 1095.26 Q1637.4 1095.26 1634.32 1090.68 Q1631.27 1086.07 1631.27 1077.34 Q1631.27 1068.59 1634.32 1064.01 Q1637.4 1059.4 1643.21 1059.4 Z" fill="#000000" fill-rule="nonzero" fill-opacity="1" /><path clip-path="url(#clip570)" d="M1767.63 1064.1 L1755.83 1082.55 L1767.63 1082.55 L1767.63 1064.1 M1766.4 1060.03 L1772.28 1060.03 L1772.28 1082.55 L1777.21 1082.55 L1777.21 1086.44 L1772.28 1086.44 L1772.28 1094.59 L1767.63 1094.59 L1767.63 1086.44 L1752.03 1086.44 L1752.03 1081.93 L1766.4 1060.03 Z" fill="#000000" fill-rule="nonzero" fill-opacity="1" /><path clip-path="url(#clip570)" d="M1794.95 1063.11 Q1791.34 1063.11 1789.51 1066.67 Q1787.7 1070.21 1787.7 1077.34 Q1787.7 1084.45 1789.51 1088.01 Q1791.34 1091.56 1794.95 1091.56 Q1798.58 1091.56 1800.39 1088.01 Q1802.21 1084.45 1802.21 1077.34 Q1802.21 1070.21 1800.39 1066.67 Q1798.58 1063.11 1794.95 1063.11 M1794.95 1059.4 Q1800.76 1059.4 1803.81 1064.01 Q1806.89 1068.59 1806.89 1077.34 Q1806.89 1086.07 1803.81 1090.68 Q1800.76 1095.26 1794.95 1095.26 Q1789.14 1095.26 1786.06 1090.68 Q1783 1086.07 1783 1077.34 Q1783 1068.59 1786.06 1064.01 Q1789.14 1059.4 1794.95 1059.4 Z" fill="#000000" fill-rule="nonzero" fill-opacity="1" /><path clip-path="url(#clip570)" d="M1905.25 1060.03 L1923.6 1060.03 L1923.6 1063.96 L1909.53 1063.96 L1909.53 1072.44 Q1910.55 1072.09 1911.56 1071.93 Q1912.58 1071.74 1913.6 1071.74 Q1919.39 1071.74 1922.77 1074.91 Q1926.15 1078.08 1926.15 1083.5 Q1926.15 1089.08 1922.68 1092.18 Q1919.2 1095.26 1912.88 1095.26 Q1910.71 1095.26 1908.44 1094.89 Q1906.19 1094.52 1903.79 1093.78 L1903.79 1089.08 Q1905.87 1090.21 1908.09 1090.77 Q1910.31 1091.32 1912.79 1091.32 Q1916.8 1091.32 1919.13 1089.22 Q1921.47 1087.11 1921.47 1083.5 Q1921.47 1079.89 1919.13 1077.78 Q1916.8 1075.68 1912.79 1075.68 Q1910.92 1075.68 1909.04 1076.09 Q1907.19 1076.51 1905.25 1077.39 L1905.25 1060.03 Z" fill="#000000" fill-rule="nonzero" fill-opacity="1" /><path clip-path="url(#clip570)" d="M1945.36 1063.11 Q1941.75 1063.11 1939.92 1066.67 Q1938.12 1070.21 1938.12 1077.34 Q1938.12 1084.45 1939.92 1088.01 Q1941.75 1091.56 1945.36 1091.56 Q1949 1091.56 1950.8 1088.01 Q1952.63 1084.45 1952.63 1077.34 Q1952.63 1070.21 1950.8 1066.67 Q1949 1063.11 1945.36 1063.11 M1945.36 1059.4 Q1951.17 1059.4 1954.23 1064.01 Q1957.31 1068.59 1957.31 1077.34 Q1957.31 1086.07 1954.23 1090.68 Q1951.17 1095.26 1945.36 1095.26 Q1939.55 1095.26 1936.47 1090.68 Q1933.42 1086.07 1933.42 1077.34 Q1933.42 1068.59 1936.47 1064.01 Q1939.55 1059.4 1945.36 1059.4 Z" fill="#000000" fill-rule="nonzero" fill-opacity="1" /><path clip-path="url(#clip570)" d="M1500.68 1128.29 L1500.68 1134.56 Q1497.01 1132.81 1493.77 1131.95 Q1490.52 1131.09 1487.5 1131.09 Q1482.25 1131.09 1479.38 1133.13 Q1476.55 1135.17 1476.55 1138.92 Q1476.55 1142.07 1478.43 1143.7 Q1480.34 1145.29 1485.62 1146.27 L1489.5 1147.07 Q1496.7 1148.44 1500.1 1151.91 Q1503.54 1155.35 1503.54 1161.14 Q1503.54 1168.05 1498.89 1171.61 Q1494.28 1175.17 1485.33 1175.17 Q1481.96 1175.17 1478.14 1174.41 Q1474.35 1173.65 1470.28 1172.15 L1470.28 1165.53 Q1474.19 1167.73 1477.95 1168.84 Q1481.71 1169.95 1485.33 1169.95 Q1490.84 1169.95 1493.83 1167.79 Q1496.82 1165.63 1496.82 1161.62 Q1496.82 1158.11 1494.66 1156.14 Q1492.53 1154.17 1487.63 1153.18 L1483.71 1152.42 Q1476.52 1150.99 1473.3 1147.93 Q1470.09 1144.87 1470.09 1139.43 Q1470.09 1133.13 1474.51 1129.5 Q1478.97 1125.87 1486.77 1125.87 Q1490.11 1125.87 1493.58 1126.48 Q1497.05 1127.08 1500.68 1128.29 Z" fill="#000000" fill-rule="nonzero" fill-opacity="1" /><path clip-path="url(#clip570)" d="M1519.1 1128.48 L1519.1 1138.6 L1531.17 1138.6 L1531.17 1143.16 L1519.1 1143.16 L1519.1 1162.51 Q1519.1 1166.87 1520.28 1168.11 Q1521.49 1169.35 1525.15 1169.35 L1531.17 1169.35 L1531.17 1174.25 L1525.15 1174.25 Q1518.37 1174.25 1515.79 1171.74 Q1513.22 1169.19 1513.22 1162.51 L1513.22 1143.16 L1508.92 1143.16 L1508.92 1138.6 L1513.22 1138.6 L1513.22 1128.48 L1519.1 1128.48 Z" fill="#000000" fill-rule="nonzero" fill-opacity="1" /><path clip-path="url(#clip570)" d="M1555.07 1156.33 Q1547.97 1156.33 1545.23 1157.96 Q1542.5 1159.58 1542.5 1163.49 Q1542.5 1166.61 1544.53 1168.46 Q1546.6 1170.27 1550.14 1170.27 Q1555.01 1170.27 1557.93 1166.84 Q1560.89 1163.37 1560.89 1157.64 L1560.89 1156.33 L1555.07 1156.33 M1566.75 1153.91 L1566.75 1174.25 L1560.89 1174.25 L1560.89 1168.84 Q1558.89 1172.09 1555.9 1173.65 Q1552.91 1175.17 1548.58 1175.17 Q1543.1 1175.17 1539.86 1172.12 Q1536.64 1169.03 1536.64 1163.88 Q1536.64 1157.86 1540.65 1154.8 Q1544.69 1151.75 1552.68 1151.75 L1560.89 1151.75 L1560.89 1151.18 Q1560.89 1147.13 1558.22 1144.94 Q1555.58 1142.71 1550.77 1142.71 Q1547.72 1142.71 1544.82 1143.44 Q1541.92 1144.17 1539.25 1145.64 L1539.25 1140.23 Q1542.47 1138.99 1545.49 1138.38 Q1548.51 1137.74 1551.38 1137.74 Q1559.11 1137.74 1562.93 1141.75 Q1566.75 1145.77 1566.75 1153.91 Z" fill="#000000" fill-rule="nonzero" fill-opacity="1" /><path clip-path="url(#clip570)" d="M1602.27 1156.01 Q1602.27 1149.65 1599.63 1146.15 Q1597.02 1142.65 1592.28 1142.65 Q1587.57 1142.65 1584.93 1146.15 Q1582.32 1149.65 1582.32 1156.01 Q1582.32 1162.35 1584.93 1165.85 Q1587.57 1169.35 1592.28 1169.35 Q1597.02 1169.35 1599.63 1165.85 Q1602.27 1162.35 1602.27 1156.01 M1608.13 1169.83 Q1608.13 1178.93 1604.09 1183.35 Q1600.04 1187.81 1591.7 1187.81 Q1588.62 1187.81 1585.88 1187.33 Q1583.14 1186.89 1580.56 1185.93 L1580.56 1180.24 Q1583.14 1181.64 1585.66 1182.3 Q1588.17 1182.97 1590.78 1182.97 Q1596.54 1182.97 1599.41 1179.95 Q1602.27 1176.96 1602.27 1170.88 L1602.27 1167.98 Q1600.46 1171.13 1597.62 1172.69 Q1594.79 1174.25 1590.85 1174.25 Q1584.29 1174.25 1580.28 1169.25 Q1576.27 1164.26 1576.27 1156.01 Q1576.27 1147.74 1580.28 1142.74 Q1584.29 1137.74 1590.85 1137.74 Q1594.79 1137.74 1597.62 1139.3 Q1600.46 1140.86 1602.27 1144.01 L1602.27 1138.6 L1608.13 1138.6 L1608.13 1169.83 Z" fill="#000000" fill-rule="nonzero" fill-opacity="1" /><path clip-path="url(#clip570)" d="M1650.68 1154.96 L1650.68 1157.83 L1623.76 1157.83 Q1624.14 1163.88 1627.38 1167.06 Q1630.66 1170.21 1636.49 1170.21 Q1639.86 1170.21 1643.01 1169.38 Q1646.2 1168.55 1649.31 1166.9 L1649.31 1172.44 Q1646.16 1173.77 1642.85 1174.47 Q1639.54 1175.17 1636.14 1175.17 Q1627.61 1175.17 1622.61 1170.21 Q1617.64 1165.24 1617.64 1156.78 Q1617.64 1148.03 1622.36 1142.9 Q1627.1 1137.74 1635.12 1137.74 Q1642.31 1137.74 1646.48 1142.39 Q1650.68 1147.01 1650.68 1154.96 M1644.83 1153.25 Q1644.76 1148.44 1642.12 1145.57 Q1639.51 1142.71 1635.18 1142.71 Q1630.28 1142.71 1627.32 1145.48 Q1624.39 1148.25 1623.95 1153.28 L1644.83 1153.25 Z" fill="#000000" fill-rule="nonzero" fill-opacity="1" /><polyline clip-path="url(#clip570)" style="stroke:#000000; stroke-linecap:round; stroke-linejoin:round; stroke-width:4; stroke-opacity:1; fill:none" points="1168.01,1035.39 1168.01,117.424 "/>
<polyline clip-path="url(#clip570)" style="stroke:#000000; stroke-linecap:round; stroke-linejoin:round; stroke-width:4; stroke-opacity:1; fill:none" points="1168.01,1009.41 1186.91,1009.41 "/>
<polyline clip-path="url(#clip570)" style="stroke:#000000; stroke-linecap:round; stroke-linejoin:round; stroke-width:4; stroke-opacity:1; fill:none" points="1168.01,806.675 1186.91,806.675 "/>
<polyline clip-path="url(#clip570)" style="stroke:#000000; stroke-linecap:round; stroke-linejoin:round; stroke-width:4; stroke-opacity:1; fill:none" points="1168.01,603.942 1186.91,603.942 "/>
<polyline clip-path="url(#clip570)" style="stroke:#000000; stroke-linecap:round; stroke-linejoin:round; stroke-width:4; stroke-opacity:1; fill:none" points="1168.01,401.208 1186.91,401.208 "/>
<polyline clip-path="url(#clip570)" style="stroke:#000000; stroke-linecap:round; stroke-linejoin:round; stroke-width:4; stroke-opacity:1; fill:none" points="1168.01,198.475 1186.91,198.475 "/>
<path clip-path="url(#clip570)" d="M1126.07 995.206 Q1122.46 995.206 1120.63 998.771 Q1118.83 1002.31 1118.83 1009.44 Q1118.83 1016.55 1120.63 1020.11 Q1122.46 1023.66 1126.07 1023.66 Q1129.7 1023.66 1131.51 1020.11 Q1133.34 1016.55 1133.34 1009.44 Q1133.34 1002.31 1131.51 998.771 Q1129.7 995.206 1126.07 995.206 M1126.07 991.503 Q1131.88 991.503 1134.94 996.109 Q1138.01 1000.69 1138.01 1009.44 Q1138.01 1018.17 1134.94 1022.78 Q1131.88 1027.36 1126.07 1027.36 Q1120.26 1027.36 1117.18 1022.78 Q1114.13 1018.17 1114.13 1009.44 Q1114.13 1000.69 1117.18 996.109 Q1120.26 991.503 1126.07 991.503 Z" fill="#000000" fill-rule="nonzero" fill-opacity="1" /><path clip-path="url(#clip570)" d="M1059.77 820.019 L1076.09 820.019 L1076.09 823.955 L1054.15 823.955 L1054.15 820.019 Q1056.81 817.265 1061.39 812.635 Q1066 807.983 1067.18 806.64 Q1069.43 804.117 1070.31 802.381 Q1071.21 800.621 1071.21 798.932 Q1071.21 796.177 1069.27 794.441 Q1067.34 792.705 1064.24 792.705 Q1062.04 792.705 1059.59 793.469 Q1057.16 794.233 1054.38 795.783 L1054.38 791.061 Q1057.21 789.927 1059.66 789.348 Q1062.11 788.77 1064.15 788.77 Q1069.52 788.77 1072.71 791.455 Q1075.91 794.14 1075.91 798.631 Q1075.91 800.76 1075.1 802.682 Q1074.31 804.58 1072.2 807.172 Q1071.63 807.844 1068.52 811.061 Q1065.42 814.256 1059.77 820.019 Z" fill="#000000" fill-rule="nonzero" fill-opacity="1" /><path clip-path="url(#clip570)" d="M1095.91 792.473 Q1092.3 792.473 1090.47 796.038 Q1088.66 799.58 1088.66 806.709 Q1088.66 813.816 1090.47 817.381 Q1092.3 820.922 1095.91 820.922 Q1099.54 820.922 1101.35 817.381 Q1103.18 813.816 1103.18 806.709 Q1103.18 799.58 1101.35 796.038 Q1099.54 792.473 1095.91 792.473 M1095.91 788.77 Q1101.72 788.77 1104.77 793.376 Q1107.85 797.959 1107.85 806.709 Q1107.85 815.436 1104.77 820.043 Q1101.72 824.626 1095.91 824.626 Q1090.1 824.626 1087.02 820.043 Q1083.96 815.436 1083.96 806.709 Q1083.96 797.959 1087.02 793.376 Q1090.1 788.77 1095.91 788.77 Z" fill="#000000" fill-rule="nonzero" fill-opacity="1" /><path clip-path="url(#clip570)" d="M1126.07 792.473 Q1122.46 792.473 1120.63 796.038 Q1118.83 799.58 1118.83 806.709 Q1118.83 813.816 1120.63 817.381 Q1122.46 820.922 1126.07 820.922 Q1129.7 820.922 1131.51 817.381 Q1133.34 813.816 1133.34 806.709 Q1133.34 799.58 1131.51 796.038 Q1129.7 792.473 1126.07 792.473 M1126.07 788.77 Q1131.88 788.77 1134.94 793.376 Q1138.01 797.959 1138.01 806.709 Q1138.01 815.436 1134.94 820.043 Q1131.88 824.626 1126.07 824.626 Q1120.26 824.626 1117.18 820.043 Q1114.13 815.436 1114.13 806.709 Q1114.13 797.959 1117.18 793.376 Q1120.26 788.77 1126.07 788.77 Z" fill="#000000" fill-rule="nonzero" fill-opacity="1" /><path clip-path="url(#clip570)" d="M1068.59 590.736 L1056.79 609.185 L1068.59 609.185 L1068.59 590.736 M1067.37 586.662 L1073.25 586.662 L1073.25 609.185 L1078.18 609.185 L1078.18 613.073 L1073.25 613.073 L1073.25 621.222 L1068.59 621.222 L1068.59 613.073 L1052.99 613.073 L1052.99 608.56 L1067.37 586.662 Z" fill="#000000" fill-rule="nonzero" fill-opacity="1" /><path clip-path="url(#clip570)" d="M1095.91 589.74 Q1092.3 589.74 1090.47 593.305 Q1088.66 596.847 1088.66 603.976 Q1088.66 611.083 1090.47 614.648 Q1092.3 618.189 1095.91 618.189 Q1099.54 618.189 1101.35 614.648 Q1103.18 611.083 1103.18 603.976 Q1103.18 596.847 1101.35 593.305 Q1099.54 589.74 1095.91 589.74 M1095.91 586.037 Q1101.72 586.037 1104.77 590.643 Q1107.85 595.226 1107.85 603.976 Q1107.85 612.703 1104.77 617.31 Q1101.72 621.893 1095.91 621.893 Q1090.1 621.893 1087.02 617.31 Q1083.96 612.703 1083.96 603.976 Q1083.96 595.226 1087.02 590.643 Q1090.1 586.037 1095.91 586.037 Z" fill="#000000" fill-rule="nonzero" fill-opacity="1" /><path clip-path="url(#clip570)" d="M1126.07 589.74 Q1122.46 589.74 1120.63 593.305 Q1118.83 596.847 1118.83 603.976 Q1118.83 611.083 1120.63 614.648 Q1122.46 618.189 1126.07 618.189 Q1129.7 618.189 1131.51 614.648 Q1133.34 611.083 1133.34 603.976 Q1133.34 596.847 1131.51 593.305 Q1129.7 589.74 1126.07 589.74 M1126.07 586.037 Q1131.88 586.037 1134.94 590.643 Q1138.01 595.226 1138.01 603.976 Q1138.01 612.703 1134.94 617.31 Q1131.88 621.893 1126.07 621.893 Q1120.26 621.893 1117.18 617.31 Q1114.13 612.703 1114.13 603.976 Q1114.13 595.226 1117.18 590.643 Q1120.26 586.037 1126.07 586.037 Z" fill="#000000" fill-rule="nonzero" fill-opacity="1" /><path clip-path="url(#clip570)" d="M1066.33 399.345 Q1063.18 399.345 1061.33 401.498 Q1059.5 403.651 1059.5 407.401 Q1059.5 411.127 1061.33 413.303 Q1063.18 415.456 1066.33 415.456 Q1069.47 415.456 1071.3 413.303 Q1073.15 411.127 1073.15 407.401 Q1073.15 403.651 1071.3 401.498 Q1069.47 399.345 1066.33 399.345 M1075.61 384.692 L1075.61 388.952 Q1073.85 388.118 1072.04 387.678 Q1070.26 387.239 1068.5 387.239 Q1063.87 387.239 1061.42 390.364 Q1058.99 393.489 1058.64 399.808 Q1060.01 397.794 1062.07 396.729 Q1064.13 395.641 1066.6 395.641 Q1071.81 395.641 1074.82 398.813 Q1077.85 401.961 1077.85 407.401 Q1077.85 412.725 1074.7 415.942 Q1071.56 419.16 1066.33 419.16 Q1060.33 419.16 1057.16 414.576 Q1053.99 409.97 1053.99 401.243 Q1053.99 393.049 1057.88 388.188 Q1061.77 383.303 1068.32 383.303 Q1070.08 383.303 1071.86 383.651 Q1073.66 383.998 1075.61 384.692 Z" fill="#000000" fill-rule="nonzero" fill-opacity="1" /><path clip-path="url(#clip570)" d="M1095.91 387.007 Q1092.3 387.007 1090.47 390.572 Q1088.66 394.114 1088.66 401.243 Q1088.66 408.35 1090.47 411.914 Q1092.3 415.456 1095.91 415.456 Q1099.54 415.456 1101.35 411.914 Q1103.18 408.35 1103.18 401.243 Q1103.18 394.114 1101.35 390.572 Q1099.54 387.007 1095.91 387.007 M1095.91 383.303 Q1101.72 383.303 1104.77 387.91 Q1107.85 392.493 1107.85 401.243 Q1107.85 409.97 1104.77 414.576 Q1101.72 419.16 1095.91 419.16 Q1090.1 419.16 1087.02 414.576 Q1083.96 409.97 1083.96 401.243 Q1083.96 392.493 1087.02 387.91 Q1090.1 383.303 1095.91 383.303 Z" fill="#000000" fill-rule="nonzero" fill-opacity="1" /><path clip-path="url(#clip570)" d="M1126.07 387.007 Q1122.46 387.007 1120.63 390.572 Q1118.83 394.114 1118.83 401.243 Q1118.83 408.35 1120.63 411.914 Q1122.46 415.456 1126.07 415.456 Q1129.7 415.456 1131.51 411.914 Q1133.34 408.35 1133.34 401.243 Q1133.34 394.114 1131.51 390.572 Q1129.7 387.007 1126.07 387.007 M1126.07 383.303 Q1131.88 383.303 1134.94 387.91 Q1138.01 392.493 1138.01 401.243 Q1138.01 409.97 1134.94 414.576 Q1131.88 419.16 1126.07 419.16 Q1120.26 419.16 1117.18 414.576 Q1114.13 409.97 1114.13 401.243 Q1114.13 392.493 1117.18 387.91 Q1120.26 383.303 1126.07 383.303 Z" fill="#000000" fill-rule="nonzero" fill-opacity="1" /><path clip-path="url(#clip570)" d="M1065.75 199.343 Q1062.41 199.343 1060.49 201.126 Q1058.59 202.908 1058.59 206.033 Q1058.59 209.158 1060.49 210.941 Q1062.41 212.723 1065.75 212.723 Q1069.08 212.723 1071 210.941 Q1072.92 209.135 1072.92 206.033 Q1072.92 202.908 1071 201.126 Q1069.1 199.343 1065.75 199.343 M1061.07 197.353 Q1058.06 196.612 1056.37 194.552 Q1054.71 192.492 1054.71 189.529 Q1054.71 185.385 1057.64 182.978 Q1060.61 180.57 1065.75 180.57 Q1070.91 180.57 1073.85 182.978 Q1076.79 185.385 1076.79 189.529 Q1076.79 192.492 1075.1 194.552 Q1073.43 196.612 1070.45 197.353 Q1073.83 198.14 1075.7 200.431 Q1077.6 202.723 1077.6 206.033 Q1077.6 211.056 1074.52 213.741 Q1071.46 216.427 1065.75 216.427 Q1060.03 216.427 1056.95 213.741 Q1053.89 211.056 1053.89 206.033 Q1053.89 202.723 1055.79 200.431 Q1057.69 198.14 1061.07 197.353 M1059.36 189.968 Q1059.36 192.654 1061.02 194.158 Q1062.71 195.663 1065.75 195.663 Q1068.76 195.663 1070.45 194.158 Q1072.16 192.654 1072.16 189.968 Q1072.16 187.283 1070.45 185.779 Q1068.76 184.274 1065.75 184.274 Q1062.71 184.274 1061.02 185.779 Q1059.36 187.283 1059.36 189.968 Z" fill="#000000" fill-rule="nonzero" fill-opacity="1" /><path clip-path="url(#clip570)" d="M1095.91 184.274 Q1092.3 184.274 1090.47 187.839 Q1088.66 191.38 1088.66 198.51 Q1088.66 205.617 1090.47 209.181 Q1092.3 212.723 1095.91 212.723 Q1099.54 212.723 1101.35 209.181 Q1103.18 205.617 1103.18 198.51 Q1103.18 191.38 1101.35 187.839 Q1099.54 184.274 1095.91 184.274 M1095.91 180.57 Q1101.72 180.57 1104.77 185.177 Q1107.85 189.76 1107.85 198.51 Q1107.85 207.237 1104.77 211.843 Q1101.72 216.427 1095.91 216.427 Q1090.1 216.427 1087.02 211.843 Q1083.96 207.237 1083.96 198.51 Q1083.96 189.76 1087.02 185.177 Q1090.1 180.57 1095.91 180.57 Z" fill="#000000" fill-rule="nonzero" fill-opacity="1" /><path clip-path="url(#clip570)" d="M1126.07 184.274 Q1122.46 184.274 1120.63 187.839 Q1118.83 191.38 1118.83 198.51 Q1118.83 205.617 1120.63 209.181 Q1122.46 212.723 1126.07 212.723 Q1129.7 212.723 1131.51 209.181 Q1133.34 205.617 1133.34 198.51 Q1133.34 191.38 1131.51 187.839 Q1129.7 184.274 1126.07 184.274 M1126.07 180.57 Q1131.88 180.57 1134.94 185.177 Q1138.01 189.76 1138.01 198.51 Q1138.01 207.237 1134.94 211.843 Q1131.88 216.427 1126.07 216.427 Q1120.26 216.427 1117.18 211.843 Q1114.13 207.237 1114.13 198.51 Q1114.13 189.76 1117.18 185.177 Q1120.26 180.57 1126.07 180.57 Z" fill="#000000" fill-rule="nonzero" fill-opacity="1" /><path clip-path="url(#clip570)" d="M1365.5 54.671 L1365.5 27.2059 L1372.95 27.2059 L1372.95 54.3874 Q1372.95 60.8284 1375.46 64.0691 Q1377.97 67.2693 1383 67.2693 Q1389.03 67.2693 1392.52 63.421 Q1396.04 59.5726 1396.04 52.9291 L1396.04 27.2059 L1403.49 27.2059 L1403.49 72.576 L1396.04 72.576 L1396.04 65.6084 Q1393.33 69.7404 1389.72 71.7658 Q1386.16 73.7508 1381.42 73.7508 Q1373.6 73.7508 1369.55 68.8897 Q1365.5 64.0286 1365.5 54.671 M1384.25 26.1121 L1384.25 26.1121 Z" fill="#000000" fill-rule="nonzero" fill-opacity="1" /><path clip-path="url(#clip570)" d="M1453.32 86.3491 L1453.32 92.1419 L1410.22 92.1419 L1410.22 86.3491 L1453.32 86.3491 Z" fill="#000000" fill-rule="nonzero" fill-opacity="1" /><path clip-path="url(#clip570)" d="M1492.9 49.9314 Q1492.9 41.7081 1489.49 37.0496 Q1486.13 32.3505 1480.22 32.3505 Q1474.3 32.3505 1470.9 37.0496 Q1467.54 41.7081 1467.54 49.9314 Q1467.54 58.1548 1470.9 62.8538 Q1474.3 67.5124 1480.22 67.5124 Q1486.13 67.5124 1489.49 62.8538 Q1492.9 58.1548 1492.9 49.9314 M1467.54 34.0924 Q1469.89 30.0415 1473.45 28.0971 Q1477.06 26.1121 1482.04 26.1121 Q1490.3 26.1121 1495.45 32.6746 Q1500.63 39.2371 1500.63 49.9314 Q1500.63 60.6258 1495.45 67.1883 Q1490.3 73.7508 1482.04 73.7508 Q1477.06 73.7508 1473.45 71.8063 Q1469.89 69.8214 1467.54 65.7705 L1467.54 72.576 L1460.04 72.576 L1460.04 9.54393 L1467.54 9.54393 L1467.54 34.0924 Z" fill="#000000" fill-rule="nonzero" fill-opacity="1" /><path clip-path="url(#clip570)" d="M1512.22 54.671 L1512.22 27.2059 L1519.67 27.2059 L1519.67 54.3874 Q1519.67 60.8284 1522.19 64.0691 Q1524.7 67.2693 1529.72 67.2693 Q1535.76 67.2693 1539.24 63.421 Q1542.76 59.5726 1542.76 52.9291 L1542.76 27.2059 L1550.22 27.2059 L1550.22 72.576 L1542.76 72.576 L1542.76 65.6084 Q1540.05 69.7404 1536.44 71.7658 Q1532.88 73.7508 1528.14 73.7508 Q1520.32 73.7508 1516.27 68.8897 Q1512.22 64.0286 1512.22 54.671 M1530.98 26.1121 L1530.98 26.1121 Z" fill="#000000" fill-rule="nonzero" fill-opacity="1" /><path clip-path="url(#clip570)" d="M1584.45 76.7889 Q1581.29 84.8907 1578.29 87.3618 Q1575.29 89.8329 1570.27 89.8329 L1564.31 89.8329 L1564.31 83.5945 L1568.69 83.5945 Q1571.77 83.5945 1573.47 82.1361 Q1575.17 80.6778 1577.24 75.2496 L1578.57 71.8468 L1560.22 27.2059 L1568.12 27.2059 L1582.3 62.6918 L1596.48 27.2059 L1604.38 27.2059 L1584.45 76.7889 Z" fill="#000000" fill-rule="nonzero" fill-opacity="1" /><path clip-path="url(#clip570)" d="M1603.89 62.2867 L1612.44 62.2867 L1612.44 72.576 L1603.89 72.576 L1603.89 62.2867 Z" fill="#000000" fill-rule="nonzero" fill-opacity="1" /><path clip-path="url(#clip570)" d="M1646.79 32.4315 Q1640.8 32.4315 1637.31 37.1306 Q1633.83 41.7891 1633.83 49.9314 Q1633.83 58.0738 1637.27 62.7728 Q1640.76 67.4314 1646.79 67.4314 Q1652.75 67.4314 1656.23 62.7323 Q1659.71 58.0333 1659.71 49.9314 Q1659.71 41.8701 1656.23 37.1711 Q1652.75 32.4315 1646.79 32.4315 M1646.79 26.1121 Q1656.51 26.1121 1662.06 32.4315 Q1667.61 38.7509 1667.61 49.9314 Q1667.61 61.0714 1662.06 67.4314 Q1656.51 73.7508 1646.79 73.7508 Q1637.03 73.7508 1631.48 67.4314 Q1625.97 61.0714 1625.97 49.9314 Q1625.97 38.7509 1631.48 32.4315 Q1637.03 26.1121 1646.79 26.1121 Z" fill="#000000" fill-rule="nonzero" fill-opacity="1" /><path clip-path="url(#clip570)" d="M1679.2 54.671 L1679.2 27.2059 L1686.65 27.2059 L1686.65 54.3874 Q1686.65 60.8284 1689.16 64.0691 Q1691.68 67.2693 1696.7 67.2693 Q1702.73 67.2693 1706.22 63.421 Q1709.74 59.5726 1709.74 52.9291 L1709.74 27.2059 L1717.2 27.2059 L1717.2 72.576 L1709.74 72.576 L1709.74 65.6084 Q1707.03 69.7404 1703.42 71.7658 Q1699.86 73.7508 1695.12 73.7508 Q1687.3 73.7508 1683.25 68.8897 Q1679.2 64.0286 1679.2 54.671 M1697.95 26.1121 L1697.95 26.1121 Z" fill="#000000" fill-rule="nonzero" fill-opacity="1" /><path clip-path="url(#clip570)" d="M1739.92 14.324 L1739.92 27.2059 L1755.27 27.2059 L1755.27 32.9987 L1739.92 32.9987 L1739.92 57.6282 Q1739.92 63.1779 1741.42 64.7578 Q1742.96 66.3376 1747.62 66.3376 L1755.27 66.3376 L1755.27 72.576 L1747.62 72.576 Q1738.99 72.576 1735.71 69.3758 Q1732.43 66.1351 1732.43 57.6282 L1732.43 32.9987 L1726.96 32.9987 L1726.96 27.2059 L1732.43 27.2059 L1732.43 14.324 L1739.92 14.324 Z" fill="#000000" fill-rule="nonzero" fill-opacity="1" /><path clip-path="url(#clip573)" d="M1190.22 562.332 L1205.33 1009.41 L1220.44 965.181 L1235.55 1009.41 L1250.66 1009.41 L1265.77 1009.41 L1280.88 1008.88 L1295.98 1009.41 L1311.09 1006.66 L1326.2 1009.41 L1341.31 1001.72 L1356.42 1009.41 L1371.53 1006.66 L1386.64 1009.41 L1401.74 1006.66 L1416.85 1009.41 L1431.96 1006.66 L1447.07 1009.41 L1462.18 1006.51 L1477.29 1009.41 L1492.4 1006.66 L1507.51 1009.41 L1522.61 1006.66 L1537.72 1009.41 L1552.83 1001.72 L1567.94 1009.41 L1583.05 1006.66 L1598.16 1009.41 L1613.27 999.256 L1628.37 1009.41 L1643.48 1006.66 L1658.59 1009.41 L1673.7 1006.66 L1688.81 1009.41 L1703.92 1006.66 L1719.03 1009.41 L1734.13 1005.91 L1749.24 1009.41 L1764.35 1006.66 L1779.46 1009.41 L1794.57 999.256 L1809.68 1009.41 L1824.79 1006.66 L1839.89 1009.41 L1855 1006.51 L1870.11 1009.41 L1885.22 1006.66 L1900.33 1009.41 L1915.44 1006.66 L1930.55 1009.41 L1930.55 1009.41 L1915.44 163.118 L1900.33 1009.41 L1885.22 163.118 L1870.11 1009.41 L1855 163.118 L1839.89 1009.41 L1824.79 163.118 L1809.68 1009.41 L1794.57 163.118 L1779.46 1009.41 L1764.35 163.118 L1749.24 1009.41 L1734.13 163.118 L1719.03 1009.41 L1703.92 163.118 L1688.81 1009.41 L1673.7 163.118 L1658.59 1009.41 L1643.48 163.118 L1628.37 1009.41 L1613.27 163.118 L1598.16 1009.41 L1583.05 163.118 L1567.94 1009.41 L1552.83 163.118 L1537.72 1009.41 L1522.61 163.118 L1507.51 1009.41 L1492.4 163.118 L1477.29 1009.41 L1462.18 163.118 L1447.07 1009.41 L1431.96 163.118 L1416.85 1009.41 L1401.74 163.118 L1386.64 1009.41 L1371.53 163.118 L1356.42 1009.41 L1341.31 163.118 L1326.2 1009.41 L1311.09 163.118 L1295.98 1009.41 L1280.88 163.118 L1265.77 1009.41 L1250.66 151.141 L1235.55 1009.41 L1220.44 143.404 L1205.33 1009.41 L1190.22 562.332  Z" fill="#00467f" fill-rule="evenodd" fill-opacity="0.2"/>
<polyline clip-path="url(#clip573)" style="stroke:#00467f; stroke-linecap:round; stroke-linejoin:round; stroke-width:4; stroke-opacity:0; fill:none" points="1190.22,562.332 1205.33,1009.41 1220.44,554.293 1235.55,1009.41 1250.66,580.274 1265.77,1009.41 1280.88,585.997 1295.98,1009.41 1311.09,584.89 1326.2,1009.41 1341.31,582.417 1356.42,1009.41 1371.53,584.89 1386.64,1009.41 1401.74,584.89 1416.85,1009.41 1431.96,584.89 1447.07,1009.41 1462.18,584.812 1477.29,1009.41 1492.4,584.89 1507.51,1009.41 1522.61,584.89 1537.72,1009.41 1552.83,582.417 1567.94,1009.41 1583.05,584.89 1598.16,1009.41 1613.27,581.187 1628.37,1009.41 1643.48,584.89 1658.59,1009.41 1673.7,584.89 1688.81,1009.41 1703.92,584.89 1719.03,1009.41 1734.13,584.515 1749.24,1009.41 1764.35,584.89 1779.46,1009.41 1794.57,581.187 1809.68,1009.41 1824.79,584.89 1839.89,1009.41 1855,584.812 1870.11,1009.41 1885.22,584.89 1900.33,1009.41 1915.44,584.89 1930.55,1009.41 "/>
<path clip-path="url(#clip573)" d="M1190.22 562.332 L1205.33 1009.41 L1220.44 816.274 L1235.55 1009.41 L1250.66 970.793 L1265.77 1009.41 L1280.88 838.754 L1295.98 1009.41 L1311.09 970.793 L1326.2 1009.41 L1341.31 970.793 L1356.42 1009.41 L1371.53 837.576 L1386.64 1009.41 L1401.74 878.77 L1416.85 1009.41 L1431.96 970.793 L1447.07 1009.41 L1462.18 970.793 L1477.29 1009.41 L1492.4 848.795 L1507.51 1009.41 L1522.61 970.793 L1537.72 1009.41 L1552.83 861.063 L1567.94 1009.41 L1583.05 970.793 L1598.16 1009.41 L1613.27 867.814 L1628.37 1009.41 L1643.48 861.169 L1658.59 1009.41 L1673.7 874.273 L1688.81 1009.41 L1703.92 854.397 L1719.03 1009.41 L1734.13 970.793 L1749.24 1009.41 L1764.35 878.77 L1779.46 1009.41 L1794.57 860.97 L1809.68 1009.41 L1824.79 868.368 L1839.89 1009.41 L1855 970.793 L1870.11 1009.41 L1885.22 970.793 L1900.33 1009.41 L1915.44 861.788 L1930.55 1009.41 L1930.55 1009.41 L1915.44 202.687 L1900.33 1009.41 L1885.22 203.153 L1870.11 1009.41 L1855 189.853 L1839.89 1009.41 L1824.79 203.988 L1809.68 1009.41 L1794.57 203.153 L1779.46 1009.41 L1764.35 229.862 L1749.24 1009.41 L1734.13 199.231 L1719.03 1009.41 L1703.92 202.794 L1688.81 1009.41 L1673.7 198.487 L1658.59 1009.41 L1643.48 197.451 L1628.37 1009.41 L1613.27 203.153 L1598.16 1009.41 L1583.05 196.609 L1567.94 1009.41 L1552.83 203.153 L1537.72 1009.41 L1522.61 197.448 L1507.51 1009.41 L1492.4 203.153 L1477.29 1009.41 L1462.18 203.153 L1447.07 1009.41 L1431.96 203.153 L1416.85 1009.41 L1401.74 163.953 L1386.64 1009.41 L1371.53 203.153 L1356.42 1009.41 L1341.31 203.153 L1326.2 1009.41 L1311.09 203.153 L1295.98 1009.41 L1280.88 203.153 L1265.77 1009.41 L1250.66 203.153 L1235.55 1009.41 L1220.44 143.404 L1205.33 1009.41 L1190.22 562.332  Z" fill="#00467f" fill-rule="evenodd" fill-opacity="0.2"/>
<polyline clip-path="url(#clip573)" style="stroke:#00467f; stroke-linecap:round; stroke-linejoin:round; stroke-width:4; stroke-opacity:0; fill:none" points="1190.22,562.332 1205.33,1009.41 1220.44,479.839 1235.55,1009.41 1250.66,586.973 1265.77,1009.41 1280.88,520.954 1295.98,1009.41 1311.09,586.973 1326.2,1009.41 1341.31,586.973 1356.42,1009.41 1371.53,520.365 1386.64,1009.41 1401.74,521.362 1416.85,1009.41 1431.96,586.973 1447.07,1009.41 1462.18,586.973 1477.29,1009.41 1492.4,525.974 1507.51,1009.41 1522.61,584.121 1537.72,1009.41 1552.83,532.108 1567.94,1009.41 1583.05,583.701 1598.16,1009.41 1613.27,535.484 1628.37,1009.41 1643.48,529.31 1658.59,1009.41 1673.7,536.38 1688.81,1009.41 1703.92,528.595 1719.03,1009.41 1734.13,585.012 1749.24,1009.41 1764.35,554.316 1779.46,1009.41 1794.57,532.062 1809.68,1009.41 1824.79,536.178 1839.89,1009.41 1855,580.323 1870.11,1009.41 1885.22,586.973 1900.33,1009.41 1915.44,532.237 1930.55,1009.41 "/>
<path clip-path="url(#clip573)" d="M1190.22 562.332 L1205.33 1009.41 L1220.44 481.789 L1235.55 1009.41 L1250.66 631.437 L1265.77 1009.41 L1280.88 631.437 L1295.98 1009.41 L1311.09 632.116 L1326.2 1009.41 L1341.31 632.377 L1356.42 1009.41 L1371.53 476.104 L1386.64 1009.41 L1401.74 477.943 L1416.85 1009.41 L1431.96 632.373 L1447.07 1009.41 L1462.18 633.02 L1477.29 1009.41 L1492.4 631.437 L1507.51 1009.41 L1522.61 632.79 L1537.72 1009.41 L1552.83 637.386 L1567.94 1009.41 L1583.05 654.813 L1598.16 1009.41 L1613.27 653.175 L1628.37 1009.41 L1643.48 631.437 L1658.59 1009.41 L1673.7 637.877 L1688.81 1009.41 L1703.92 631.437 L1719.03 1009.41 L1734.13 631.437 L1749.24 1009.41 L1764.35 631.437 L1779.46 1009.41 L1794.57 631.437 L1809.68 1009.41 L1824.79 631.451 L1839.89 1009.41 L1855 631.437 L1870.11 1009.41 L1885.22 652.593 L1900.33 1009.41 L1915.44 667.561 L1930.55 1009.41 L1930.55 1009.41 L1915.44 241.348 L1900.33 1009.41 L1885.22 283.756 L1870.11 1009.41 L1855 240.721 L1839.89 1009.41 L1824.79 245.066 L1809.68 1009.41 L1794.57 240.721 L1779.46 1009.41 L1764.35 338.136 L1749.24 1009.41 L1734.13 241.348 L1719.03 1009.41 L1703.92 241.797 L1688.81 1009.41 L1673.7 247.724 L1658.59 1009.41 L1643.48 241.568 L1628.37 1009.41 L1613.27 240.721 L1598.16 1009.41 L1583.05 240.721 L1567.94 1009.41 L1552.83 244.817 L1537.72 1009.41 L1522.61 240.721 L1507.51 1009.41 L1492.4 246.273 L1477.29 1009.41 L1462.18 279.435 L1447.07 1009.41 L1431.96 282.992 L1416.85 1009.41 L1401.74 235.582 L1386.64 1009.41 L1371.53 241.348 L1356.42 1009.41 L1341.31 262.33 L1326.2 1009.41 L1311.09 262.467 L1295.98 1009.41 L1280.88 240.721 L1265.77 1009.41 L1250.66 317.075 L1235.55 1009.41 L1220.44 221.007 L1205.33 1009.41 L1190.22 562.332  Z" fill="#00467f" fill-rule="evenodd" fill-opacity="0.2"/>
<polyline clip-path="url(#clip573)" style="stroke:#00467f; stroke-linecap:round; stroke-linejoin:round; stroke-width:4; stroke-opacity:0; fill:none" points="1190.22,562.332 1205.33,1009.41 1220.44,351.398 1235.55,1009.41 1250.66,474.256 1265.77,1009.41 1280.88,436.079 1295.98,1009.41 1311.09,447.291 1326.2,1009.41 1341.31,447.353 1356.42,1009.41 1371.53,358.726 1386.64,1009.41 1401.74,356.762 1416.85,1009.41 1431.96,457.682 1447.07,1009.41 1462.18,456.227 1477.29,1009.41 1492.4,438.855 1507.51,1009.41 1522.61,436.756 1537.72,1009.41 1552.83,441.101 1567.94,1009.41 1583.05,447.767 1598.16,1009.41 1613.27,446.948 1628.37,1009.41 1643.48,436.502 1658.59,1009.41 1673.7,442.801 1688.81,1009.41 1703.92,436.617 1719.03,1009.41 1734.13,436.392 1749.24,1009.41 1764.35,484.786 1779.46,1009.41 1794.57,436.079 1809.68,1009.41 1824.79,438.258 1839.89,1009.41 1855,436.079 1870.11,1009.41 1885.22,468.174 1900.33,1009.41 1915.44,454.454 1930.55,1009.41 "/>
<polyline clip-path="url(#clip573)" style="stroke:#00467f; stroke-linecap:round; stroke-linejoin:round; stroke-width:4; stroke-opacity:1; fill:none" points="1190.22,562.332 1205.33,1009.41 1220.44,370.608 1235.55,1009.41 1250.66,447.032 1265.77,1009.41 1280.88,447.032 1295.98,1009.41 1311.09,447.032 1326.2,1009.41 1341.31,447.032 1356.42,1009.41 1371.53,386.638 1386.64,1009.41 1401.74,386.638 1416.85,1009.41 1431.96,422.395 1447.07,1009.41 1462.18,447.032 1477.29,1009.41 1492.4,447.032 1507.51,1009.41 1522.61,422.879 1537.72,1009.41 1552.83,447.032 1567.94,1009.41 1583.05,408.376 1598.16,1009.41 1613.27,447.032 1628.37,1009.41 1643.48,387.317 1658.59,1009.41 1673.7,447.032 1688.81,1009.41 1703.92,414.973 1719.03,1009.41 1734.13,447.032 1749.24,1009.41 1764.35,447.032 1779.46,1009.41 1794.57,388.632 1809.68,1009.41 1824.79,421.163 1839.89,1009.41 1855,408.376 1870.11,1009.41 1885.22,447.372 1900.33,1009.41 1915.44,447.032 1930.55,1009.41 "/>
</svg>
