<?xml version="1.0" encoding="utf-8"?>
<svg xmlns="http://www.w3.org/2000/svg" xmlns:xlink="http://www.w3.org/1999/xlink" width="500" height="300" viewBox="0 0 2000 1200">
<defs>
  <clipPath id="clip250">
    <rect x="0" y="0" width="2000" height="1200"/>
  </clipPath>
</defs>
<path clip-path="url(#clip250)" d="M0 1200 L2000 1200 L2000 0 L0 0  Z" fill="#ffffff" fill-rule="evenodd" fill-opacity="1"/>
<defs>
  <clipPath id="clip251">
    <rect x="400" y="0" width="1401" height="1200"/>
  </clipPath>
</defs>
<path clip-path="url(#clip250)" d="M224.957 1035.39 L1952.76 1035.39 L1952.76 117.424 L224.957 117.424  Z" fill="#ffffff" fill-rule="evenodd" fill-opacity="1"/>
<defs>
  <clipPath id="clip252">
    <rect x="224" y="117" width="1729" height="919"/>
  </clipPath>
</defs>
<polyline clip-path="url(#clip252)" style="stroke:#000000; stroke-linecap:round; stroke-linejoin:round; stroke-width:2; stroke-opacity:0.1; fill:none" points="240.591,1035.39 240.591,117.424 "/>
<polyline clip-path="url(#clip252)" style="stroke:#000000; stroke-linecap:round; stroke-linejoin:round; stroke-width:2; stroke-opacity:0.1; fill:none" points="573.244,1035.39 573.244,117.424 "/>
<polyline clip-path="url(#clip252)" style="stroke:#000000; stroke-linecap:round; stroke-linejoin:round; stroke-width:2; stroke-opacity:0.1; fill:none" points="905.897,1035.39 905.897,117.424 "/>
<polyline clip-path="url(#clip252)" style="stroke:#000000; stroke-linecap:round; stroke-linejoin:round; stroke-width:2; stroke-opacity:0.1; fill:none" points="1238.55,1035.39 1238.55,117.424 "/>
<polyline clip-path="url(#clip252)" style="stroke:#000000; stroke-linecap:round; stroke-linejoin:round; stroke-width:2; stroke-opacity:0.1; fill:none" points="1571.2,1035.39 1571.2,117.424 "/>
<polyline clip-path="url(#clip252)" style="stroke:#000000; stroke-linecap:round; stroke-linejoin:round; stroke-width:2; stroke-opacity:0.1; fill:none" points="1903.86,1035.39 1903.86,117.424 "/>
<polyline clip-path="url(#clip252)" style="stroke:#000000; stroke-linecap:round; stroke-linejoin:round; stroke-width:2; stroke-opacity:0.1; fill:none" points="224.957,975.392 1952.76,975.392 "/>
<polyline clip-path="url(#clip252)" style="stroke:#000000; stroke-linecap:round; stroke-linejoin:round; stroke-width:2; stroke-opacity:0.1; fill:none" points="224.957,707.009 1952.76,707.009 "/>
<polyline clip-path="url(#clip252)" style="stroke:#000000; stroke-linecap:round; stroke-linejoin:round; stroke-width:2; stroke-opacity:0.1; fill:none" points="224.957,438.626 1952.76,438.626 "/>
<polyline clip-path="url(#clip252)" style="stroke:#000000; stroke-linecap:round; stroke-linejoin:round; stroke-width:2; stroke-opacity:0.1; fill:none" points="224.957,170.243 1952.76,170.243 "/>
<polyline clip-path="url(#clip250)" style="stroke:#000000; stroke-linecap:round; stroke-linejoin:round; stroke-width:4; stroke-opacity:1; fill:none" points="224.957,1035.39 1952.76,1035.39 "/>
<polyline clip-path="url(#clip250)" style="stroke:#000000; stroke-linecap:round; stroke-linejoin:round; stroke-width:4; stroke-opacity:1; fill:none" points="240.591,1035.39 240.591,1016.49 "/>
<polyline clip-path="url(#clip250)" style="stroke:#000000; stroke-linecap:round; stroke-linejoin:round; stroke-width:4; stroke-opacity:1; fill:none" points="573.244,1035.39 573.244,1016.49 "/>
<polyline clip-path="url(#clip250)" style="stroke:#000000; stroke-linecap:round; stroke-linejoin:round; stroke-width:4; stroke-opacity:1; fill:none" points="905.897,1035.39 905.897,1016.49 "/>
<polyline clip-path="url(#clip250)" style="stroke:#000000; stroke-linecap:round; stroke-linejoin:round; stroke-width:4; stroke-opacity:1; fill:none" points="1238.55,1035.39 1238.55,1016.49 "/>
<polyline clip-path="url(#clip250)" style="stroke:#000000; stroke-linecap:round; stroke-linejoin:round; stroke-width:4; stroke-opacity:1; fill:none" points="1571.2,1035.39 1571.2,1016.49 "/>
<polyline clip-path="url(#clip250)" style="stroke:#000000; stroke-linecap:round; stroke-linejoin:round; stroke-width:4; stroke-opacity:1; fill:none" points="1903.86,1035.39 1903.86,1016.49 "/>
<path clip-path="url(#clip250)" d="M240.591 1063.11 Q236.98 1063.11 235.152 1066.67 Q233.346 1070.21 233.346 1077.34 Q233.346 1084.45 235.152 1088.01 Q236.98 1091.56 240.591 1091.56 Q244.226 1091.56 246.031 1088.01 Q247.86 1084.45 247.86 1077.34 Q247.86 1070.21 246.031 1066.67 Q244.226 1063.11 240.591 1063.11 M240.591 1059.4 Q246.402 1059.4 249.457 1064.01 Q252.536 1068.59 252.536 1077.34 Q252.536 1086.07 249.457 1090.68 Q246.402 1095.26 240.591 1095.26 Q234.781 1095.26 231.703 1090.68 Q228.647 1086.07 228.647 1077.34 Q228.647 1068.59 231.703 1064.01 Q234.781 1059.4 240.591 1059.4 Z" fill="#000000" fill-rule="nonzero" fill-opacity="1" /><path clip-path="url(#clip250)" d="M547.932 1090.65 L555.571 1090.65 L555.571 1064.29 L547.261 1065.95 L547.261 1061.69 L555.525 1060.03 L560.2 1060.03 L560.2 1090.65 L567.839 1090.65 L567.839 1094.59 L547.932 1094.59 L547.932 1090.65 Z" fill="#000000" fill-rule="nonzero" fill-opacity="1" /><path clip-path="url(#clip250)" d="M587.284 1063.11 Q583.673 1063.11 581.844 1066.67 Q580.038 1070.21 580.038 1077.34 Q580.038 1084.45 581.844 1088.01 Q583.673 1091.56 587.284 1091.56 Q590.918 1091.56 592.723 1088.01 Q594.552 1084.45 594.552 1077.34 Q594.552 1070.21 592.723 1066.67 Q590.918 1063.11 587.284 1063.11 M587.284 1059.4 Q593.094 1059.4 596.149 1064.01 Q599.228 1068.59 599.228 1077.34 Q599.228 1086.07 596.149 1090.68 Q593.094 1095.26 587.284 1095.26 Q581.473 1095.26 578.395 1090.68 Q575.339 1086.07 575.339 1077.34 Q575.339 1068.59 578.395 1064.01 Q581.473 1059.4 587.284 1059.4 Z" fill="#000000" fill-rule="nonzero" fill-opacity="1" /><path clip-path="url(#clip250)" d="M884.671 1090.65 L900.99 1090.65 L900.99 1094.59 L879.046 1094.59 L879.046 1090.65 Q881.708 1087.9 886.291 1083.27 Q890.897 1078.62 892.078 1077.27 Q894.323 1074.75 895.203 1073.01 Q896.106 1071.25 896.106 1069.56 Q896.106 1066.81 894.161 1065.07 Q892.24 1063.34 889.138 1063.34 Q886.939 1063.34 884.485 1064.1 Q882.055 1064.87 879.277 1066.42 L879.277 1061.69 Q882.101 1060.56 884.555 1059.98 Q887.008 1059.4 889.045 1059.4 Q894.416 1059.4 897.61 1062.09 Q900.805 1064.77 900.805 1069.26 Q900.805 1071.39 899.995 1073.31 Q899.207 1075.21 897.101 1077.81 Q896.522 1078.48 893.42 1081.69 Q890.319 1084.89 884.671 1090.65 Z" fill="#000000" fill-rule="nonzero" fill-opacity="1" /><path clip-path="url(#clip250)" d="M920.805 1063.11 Q917.193 1063.11 915.365 1066.67 Q913.559 1070.21 913.559 1077.34 Q913.559 1084.45 915.365 1088.01 Q917.193 1091.56 920.805 1091.56 Q924.439 1091.56 926.244 1088.01 Q928.073 1084.45 928.073 1077.34 Q928.073 1070.21 926.244 1066.67 Q924.439 1063.11 920.805 1063.11 M920.805 1059.4 Q926.615 1059.4 929.67 1064.01 Q932.749 1068.59 932.749 1077.34 Q932.749 1086.07 929.67 1090.68 Q926.615 1095.26 920.805 1095.26 Q914.994 1095.26 911.916 1090.68 Q908.86 1086.07 908.86 1077.34 Q908.86 1068.59 911.916 1064.01 Q914.994 1059.4 920.805 1059.4 Z" fill="#000000" fill-rule="nonzero" fill-opacity="1" /><path clip-path="url(#clip250)" d="M1227.39 1075.95 Q1230.75 1076.67 1232.62 1078.94 Q1234.52 1081.21 1234.52 1084.54 Q1234.52 1089.66 1231 1092.46 Q1227.49 1095.26 1221 1095.26 Q1218.83 1095.26 1216.51 1094.82 Q1214.22 1094.4 1211.77 1093.55 L1211.77 1089.03 Q1213.71 1090.17 1216.03 1090.75 Q1218.34 1091.32 1220.87 1091.32 Q1225.26 1091.32 1227.55 1089.59 Q1229.87 1087.85 1229.87 1084.54 Q1229.87 1081.49 1227.72 1079.77 Q1225.59 1078.04 1221.77 1078.04 L1217.74 1078.04 L1217.74 1074.19 L1221.95 1074.19 Q1225.4 1074.19 1227.23 1072.83 Q1229.06 1071.44 1229.06 1068.85 Q1229.06 1066.19 1227.16 1064.77 Q1225.29 1063.34 1221.77 1063.34 Q1219.85 1063.34 1217.65 1063.75 Q1215.45 1064.17 1212.81 1065.05 L1212.81 1060.88 Q1215.47 1060.14 1217.79 1059.77 Q1220.12 1059.4 1222.18 1059.4 Q1227.51 1059.4 1230.61 1061.83 Q1233.71 1064.24 1233.71 1068.36 Q1233.71 1071.23 1232.07 1073.22 Q1230.43 1075.19 1227.39 1075.95 Z" fill="#000000" fill-rule="nonzero" fill-opacity="1" /><path clip-path="url(#clip250)" d="M1253.39 1063.11 Q1249.78 1063.11 1247.95 1066.67 Q1246.14 1070.21 1246.14 1077.34 Q1246.14 1084.45 1247.95 1088.01 Q1249.78 1091.56 1253.39 1091.56 Q1257.02 1091.56 1258.83 1088.01 Q1260.66 1084.45 1260.66 1077.34 Q1260.66 1070.21 1258.83 1066.67 Q1257.02 1063.11 1253.39 1063.11 M1253.39 1059.4 Q1259.2 1059.4 1262.25 1064.01 Q1265.33 1068.59 1265.33 1077.34 Q1265.33 1086.07 1262.25 1090.68 Q1259.2 1095.26 1253.39 1095.26 Q1247.58 1095.26 1244.5 1090.68 Q1241.44 1086.07 1241.44 1077.34 Q1241.44 1068.59 1244.5 1064.01 Q1247.58 1059.4 1253.39 1059.4 Z" fill="#000000" fill-rule="nonzero" fill-opacity="1" /><path clip-path="url(#clip250)" d="M1559.37 1064.1 L1547.57 1082.55 L1559.37 1082.55 L1559.37 1064.1 M1558.15 1060.03 L1564.03 1060.03 L1564.03 1082.55 L1568.96 1082.55 L1568.96 1086.44 L1564.03 1086.44 L1564.03 1094.59 L1559.37 1094.59 L1559.37 1086.44 L1543.77 1086.44 L1543.77 1081.93 L1558.15 1060.03 Z" fill="#000000" fill-rule="nonzero" fill-opacity="1" /><path clip-path="url(#clip250)" d="M1586.69 1063.11 Q1583.08 1063.11 1581.25 1066.67 Q1579.44 1070.21 1579.44 1077.34 Q1579.44 1084.45 1581.25 1088.01 Q1583.08 1091.56 1586.69 1091.56 Q1590.32 1091.56 1592.13 1088.01 Q1593.96 1084.45 1593.96 1077.34 Q1593.96 1070.21 1592.13 1066.67 Q1590.32 1063.11 1586.69 1063.11 M1586.69 1059.4 Q1592.5 1059.4 1595.55 1064.01 Q1598.63 1068.59 1598.63 1077.34 Q1598.63 1086.07 1595.55 1090.68 Q1592.5 1095.26 1586.69 1095.26 Q1580.88 1095.26 1577.8 1090.68 Q1574.74 1086.07 1574.74 1077.34 Q1574.74 1068.59 1577.8 1064.01 Q1580.88 1059.4 1586.69 1059.4 Z" fill="#000000" fill-rule="nonzero" fill-opacity="1" /><path clip-path="url(#clip250)" d="M1878.56 1060.03 L1896.91 1060.03 L1896.91 1063.96 L1882.84 1063.96 L1882.84 1072.44 Q1883.86 1072.09 1884.87 1071.93 Q1885.89 1071.74 1886.91 1071.74 Q1892.7 1071.74 1896.08 1074.91 Q1899.46 1078.08 1899.46 1083.5 Q1899.46 1089.08 1895.99 1092.18 Q1892.51 1095.26 1886.19 1095.26 Q1884.02 1095.26 1881.75 1094.89 Q1879.5 1094.52 1877.1 1093.78 L1877.1 1089.08 Q1879.18 1090.21 1881.4 1090.77 Q1883.62 1091.32 1886.1 1091.32 Q1890.11 1091.32 1892.44 1089.22 Q1894.78 1087.11 1894.78 1083.5 Q1894.78 1079.89 1892.44 1077.78 Q1890.11 1075.68 1886.1 1075.68 Q1884.23 1075.68 1882.35 1076.09 Q1880.5 1076.51 1878.56 1077.39 L1878.56 1060.03 Z" fill="#000000" fill-rule="nonzero" fill-opacity="1" /><path clip-path="url(#clip250)" d="M1918.67 1063.11 Q1915.06 1063.11 1913.23 1066.67 Q1911.43 1070.21 1911.43 1077.34 Q1911.43 1084.45 1913.23 1088.01 Q1915.06 1091.56 1918.67 1091.56 Q1922.3 1091.56 1924.11 1088.01 Q1925.94 1084.45 1925.94 1077.34 Q1925.94 1070.21 1924.11 1066.67 Q1922.3 1063.11 1918.67 1063.11 M1918.67 1059.4 Q1924.48 1059.4 1927.54 1064.01 Q1930.62 1068.59 1930.62 1077.34 Q1930.62 1086.07 1927.54 1090.68 Q1924.48 1095.26 1918.67 1095.26 Q1912.86 1095.26 1909.78 1090.68 Q1906.73 1086.07 1906.73 1077.34 Q1906.73 1068.59 1909.78 1064.01 Q1912.86 1059.4 1918.67 1059.4 Z" fill="#000000" fill-rule="nonzero" fill-opacity="1" /><path clip-path="url(#clip250)" d="M1029.15 1128.29 L1029.15 1134.56 Q1025.49 1132.81 1022.24 1131.95 Q1018.99 1131.09 1015.97 1131.09 Q1010.72 1131.09 1007.85 1133.13 Q1005.02 1135.17 1005.02 1138.92 Q1005.02 1142.07 1006.9 1143.7 Q1008.81 1145.29 1014.09 1146.27 L1017.97 1147.07 Q1025.17 1148.44 1028.57 1151.91 Q1032.01 1155.35 1032.01 1161.14 Q1032.01 1168.05 1027.36 1171.61 Q1022.75 1175.17 1013.8 1175.17 Q1010.43 1175.17 1006.61 1174.41 Q1002.82 1173.65 998.75 1172.15 L998.75 1165.53 Q1002.66 1167.73 1006.42 1168.84 Q1010.18 1169.95 1013.8 1169.95 Q1019.31 1169.95 1022.3 1167.79 Q1025.29 1165.63 1025.29 1161.62 Q1025.29 1158.11 1023.13 1156.14 Q1021 1154.17 1016.1 1153.18 L1012.18 1152.42 Q1004.99 1150.99 1001.77 1147.93 Q998.559 1144.87 998.559 1139.43 Q998.559 1133.13 1002.98 1129.5 Q1007.44 1125.87 1015.24 1125.87 Q1018.58 1125.87 1022.05 1126.48 Q1025.52 1127.08 1029.15 1128.29 Z" fill="#000000" fill-rule="nonzero" fill-opacity="1" /><path clip-path="url(#clip250)" d="M1047.57 1128.48 L1047.57 1138.6 L1059.64 1138.6 L1059.64 1143.16 L1047.57 1143.16 L1047.57 1162.51 Q1047.57 1166.87 1048.75 1168.11 Q1049.96 1169.35 1053.62 1169.35 L1059.64 1169.35 L1059.64 1174.25 L1053.62 1174.25 Q1046.84 1174.25 1044.26 1171.74 Q1041.69 1169.19 1041.69 1162.51 L1041.69 1143.16 L1037.39 1143.16 L1037.39 1138.6 L1041.69 1138.6 L1041.69 1128.48 L1047.57 1128.48 Z" fill="#000000" fill-rule="nonzero" fill-opacity="1" /><path clip-path="url(#clip250)" d="M1083.54 1156.33 Q1076.44 1156.33 1073.71 1157.96 Q1070.97 1159.58 1070.97 1163.49 Q1070.97 1166.61 1073.01 1168.46 Q1075.07 1170.27 1078.61 1170.27 Q1083.48 1170.27 1086.41 1166.84 Q1089.37 1163.37 1089.37 1157.64 L1089.37 1156.33 L1083.54 1156.33 M1095.22 1153.91 L1095.22 1174.25 L1089.37 1174.25 L1089.37 1168.84 Q1087.36 1172.09 1084.37 1173.65 Q1081.38 1175.17 1077.05 1175.17 Q1071.57 1175.17 1068.33 1172.12 Q1065.11 1169.03 1065.11 1163.88 Q1065.11 1157.86 1069.12 1154.8 Q1073.16 1151.75 1081.15 1151.75 L1089.37 1151.75 L1089.37 1151.18 Q1089.37 1147.13 1086.69 1144.94 Q1084.05 1142.71 1079.24 1142.71 Q1076.19 1142.71 1073.29 1143.44 Q1070.4 1144.17 1067.72 1145.64 L1067.72 1140.23 Q1070.94 1138.99 1073.96 1138.38 Q1076.98 1137.74 1079.85 1137.74 Q1087.58 1137.74 1091.4 1141.75 Q1095.22 1145.77 1095.22 1153.91 Z" fill="#000000" fill-rule="nonzero" fill-opacity="1" /><path clip-path="url(#clip250)" d="M1130.74 1156.01 Q1130.74 1149.65 1128.1 1146.15 Q1125.49 1142.65 1120.75 1142.65 Q1116.04 1142.65 1113.4 1146.15 Q1110.79 1149.65 1110.79 1156.01 Q1110.79 1162.35 1113.4 1165.85 Q1116.04 1169.35 1120.75 1169.35 Q1125.49 1169.35 1128.1 1165.85 Q1130.74 1162.35 1130.74 1156.01 M1136.6 1169.83 Q1136.6 1178.93 1132.56 1183.35 Q1128.51 1187.81 1120.18 1187.81 Q1117.09 1187.81 1114.35 1187.33 Q1111.61 1186.89 1109.04 1185.93 L1109.04 1180.24 Q1111.61 1181.64 1114.13 1182.3 Q1116.64 1182.97 1119.25 1182.97 Q1125.01 1182.97 1127.88 1179.95 Q1130.74 1176.96 1130.74 1170.88 L1130.74 1167.98 Q1128.93 1171.13 1126.1 1172.69 Q1123.26 1174.25 1119.32 1174.25 Q1112.76 1174.25 1108.75 1169.25 Q1104.74 1164.26 1104.74 1156.01 Q1104.74 1147.74 1108.75 1142.74 Q1112.76 1137.74 1119.32 1137.74 Q1123.26 1137.74 1126.1 1139.3 Q1128.93 1140.86 1130.74 1144.01 L1130.74 1138.6 L1136.6 1138.6 L1136.6 1169.83 Z" fill="#000000" fill-rule="nonzero" fill-opacity="1" /><path clip-path="url(#clip250)" d="M1179.15 1154.96 L1179.15 1157.83 L1152.23 1157.83 Q1152.61 1163.88 1155.86 1167.06 Q1159.13 1170.21 1164.96 1170.21 Q1168.33 1170.21 1171.48 1169.38 Q1174.67 1168.55 1177.79 1166.9 L1177.79 1172.44 Q1174.63 1173.77 1171.32 1174.47 Q1168.01 1175.17 1164.61 1175.17 Q1156.08 1175.17 1151.08 1170.21 Q1146.12 1165.24 1146.12 1156.78 Q1146.12 1148.03 1150.83 1142.9 Q1155.57 1137.74 1163.59 1137.74 Q1170.78 1137.74 1174.95 1142.39 Q1179.15 1147.01 1179.15 1154.96 M1173.3 1153.25 Q1173.23 1148.44 1170.59 1145.57 Q1167.98 1142.71 1163.65 1142.71 Q1158.75 1142.71 1155.79 1145.48 Q1152.86 1148.25 1152.42 1153.28 L1173.3 1153.25 Z" fill="#000000" fill-rule="nonzero" fill-opacity="1" /><polyline clip-path="url(#clip250)" style="stroke:#000000; stroke-linecap:round; stroke-linejoin:round; stroke-width:4; stroke-opacity:1; fill:none" points="224.957,1035.39 224.957,117.424 "/>
<polyline clip-path="url(#clip250)" style="stroke:#000000; stroke-linecap:round; stroke-linejoin:round; stroke-width:4; stroke-opacity:1; fill:none" points="224.957,975.392 243.854,975.392 "/>
<polyline clip-path="url(#clip250)" style="stroke:#000000; stroke-linecap:round; stroke-linejoin:round; stroke-width:4; stroke-opacity:1; fill:none" points="224.957,707.009 243.854,707.009 "/>
<polyline clip-path="url(#clip250)" style="stroke:#000000; stroke-linecap:round; stroke-linejoin:round; stroke-width:4; stroke-opacity:1; fill:none" points="224.957,438.626 243.854,438.626 "/>
<polyline clip-path="url(#clip250)" style="stroke:#000000; stroke-linecap:round; stroke-linejoin:round; stroke-width:4; stroke-opacity:1; fill:none" points="224.957,170.243 243.854,170.243 "/>
<path clip-path="url(#clip250)" d="M111.508 958.112 L133.73 958.112 L133.73 960.103 L121.184 992.672 L116.3 992.672 L128.105 962.047 L111.508 962.047 L111.508 958.112 Z" fill="#000000" fill-rule="nonzero" fill-opacity="1" /><path clip-path="url(#clip250)" d="M143.661 988.737 L151.3 988.737 L151.3 962.371 L142.989 964.038 L142.989 959.778 L151.253 958.112 L155.929 958.112 L155.929 988.737 L163.568 988.737 L163.568 992.672 L143.661 992.672 L143.661 988.737 Z" fill="#000000" fill-rule="nonzero" fill-opacity="1" /><path clip-path="url(#clip250)" d="M183.012 961.19 Q179.401 961.19 177.573 964.755 Q175.767 968.297 175.767 975.427 Q175.767 982.533 177.573 986.098 Q179.401 989.639 183.012 989.639 Q186.647 989.639 188.452 986.098 Q190.281 982.533 190.281 975.427 Q190.281 968.297 188.452 964.755 Q186.647 961.19 183.012 961.19 M183.012 957.487 Q188.823 957.487 191.878 962.093 Q194.957 966.677 194.957 975.427 Q194.957 984.153 191.878 988.76 Q188.823 993.343 183.012 993.343 Q177.202 993.343 174.124 988.76 Q171.068 984.153 171.068 975.427 Q171.068 966.677 174.124 962.093 Q177.202 957.487 183.012 957.487 Z" fill="#000000" fill-rule="nonzero" fill-opacity="1" /><path clip-path="url(#clip250)" d="M111.508 689.729 L133.73 689.729 L133.73 691.719 L121.184 724.289 L116.3 724.289 L128.105 693.664 L111.508 693.664 L111.508 689.729 Z" fill="#000000" fill-rule="nonzero" fill-opacity="1" /><path clip-path="url(#clip250)" d="M146.878 720.354 L163.198 720.354 L163.198 724.289 L141.253 724.289 L141.253 720.354 Q143.915 717.599 148.499 712.969 Q153.105 708.317 154.286 706.974 Q156.531 704.451 157.411 702.715 Q158.313 700.956 158.313 699.266 Q158.313 696.511 156.369 694.775 Q154.448 693.039 151.346 693.039 Q149.147 693.039 146.693 693.803 Q144.263 694.567 141.485 696.118 L141.485 691.395 Q144.309 690.261 146.763 689.682 Q149.216 689.104 151.253 689.104 Q156.624 689.104 159.818 691.789 Q163.013 694.474 163.013 698.965 Q163.013 701.094 162.202 703.016 Q161.415 704.914 159.309 707.506 Q158.73 708.178 155.628 711.395 Q152.526 714.59 146.878 720.354 Z" fill="#000000" fill-rule="nonzero" fill-opacity="1" /><path clip-path="url(#clip250)" d="M183.012 692.807 Q179.401 692.807 177.573 696.372 Q175.767 699.914 175.767 707.043 Q175.767 714.15 177.573 717.715 Q179.401 721.256 183.012 721.256 Q186.647 721.256 188.452 717.715 Q190.281 714.15 190.281 707.043 Q190.281 699.914 188.452 696.372 Q186.647 692.807 183.012 692.807 M183.012 689.104 Q188.823 689.104 191.878 693.71 Q194.957 698.293 194.957 707.043 Q194.957 715.77 191.878 720.377 Q188.823 724.96 183.012 724.96 Q177.202 724.96 174.124 720.377 Q171.068 715.77 171.068 707.043 Q171.068 698.293 174.124 693.71 Q177.202 689.104 183.012 689.104 Z" fill="#000000" fill-rule="nonzero" fill-opacity="1" /><path clip-path="url(#clip250)" d="M111.508 421.346 L133.73 421.346 L133.73 423.336 L121.184 455.906 L116.3 455.906 L128.105 425.281 L111.508 425.281 L111.508 421.346 Z" fill="#000000" fill-rule="nonzero" fill-opacity="1" /><path clip-path="url(#clip250)" d="M157.017 437.271 Q160.374 437.989 162.249 440.258 Q164.147 442.526 164.147 445.859 Q164.147 450.975 160.628 453.776 Q157.11 456.577 150.628 456.577 Q148.452 456.577 146.138 456.137 Q143.846 455.72 141.392 454.864 L141.392 450.35 Q143.337 451.484 145.651 452.063 Q147.966 452.642 150.489 452.642 Q154.888 452.642 157.179 450.906 Q159.494 449.17 159.494 445.859 Q159.494 442.804 157.341 441.091 Q155.212 439.355 151.392 439.355 L147.364 439.355 L147.364 435.512 L151.577 435.512 Q155.026 435.512 156.855 434.146 Q158.684 432.758 158.684 430.165 Q158.684 427.503 156.786 426.091 Q154.911 424.656 151.392 424.656 Q149.471 424.656 147.272 425.072 Q145.073 425.489 142.434 426.369 L142.434 422.202 Q145.096 421.461 147.411 421.091 Q149.749 420.721 151.809 420.721 Q157.133 420.721 160.235 423.151 Q163.337 425.559 163.337 429.679 Q163.337 432.549 161.693 434.54 Q160.05 436.508 157.017 437.271 Z" fill="#000000" fill-rule="nonzero" fill-opacity="1" /><path clip-path="url(#clip250)" d="M183.012 424.424 Q179.401 424.424 177.573 427.989 Q175.767 431.531 175.767 438.66 Q175.767 445.767 177.573 449.332 Q179.401 452.873 183.012 452.873 Q186.647 452.873 188.452 449.332 Q190.281 445.767 190.281 438.66 Q190.281 431.531 188.452 427.989 Q186.647 424.424 183.012 424.424 M183.012 420.721 Q188.823 420.721 191.878 425.327 Q194.957 429.91 194.957 438.66 Q194.957 447.387 191.878 451.994 Q188.823 456.577 183.012 456.577 Q177.202 456.577 174.124 451.994 Q171.068 447.387 171.068 438.66 Q171.068 429.91 174.124 425.327 Q177.202 420.721 183.012 420.721 Z" fill="#000000" fill-rule="nonzero" fill-opacity="1" /><path clip-path="url(#clip250)" d="M111.508 152.963 L133.73 152.963 L133.73 154.953 L121.184 187.523 L116.3 187.523 L128.105 156.898 L111.508 156.898 L111.508 152.963 Z" fill="#000000" fill-rule="nonzero" fill-opacity="1" /><path clip-path="url(#clip250)" d="M155.698 157.037 L143.892 175.486 L155.698 175.486 L155.698 157.037 M154.471 152.963 L160.35 152.963 L160.35 175.486 L165.281 175.486 L165.281 179.374 L160.35 179.374 L160.35 187.523 L155.698 187.523 L155.698 179.374 L140.096 179.374 L140.096 174.861 L154.471 152.963 Z" fill="#000000" fill-rule="nonzero" fill-opacity="1" /><path clip-path="url(#clip250)" d="M183.012 156.041 Q179.401 156.041 177.573 159.606 Q175.767 163.148 175.767 170.277 Q175.767 177.384 177.573 180.949 Q179.401 184.49 183.012 184.49 Q186.647 184.49 188.452 180.949 Q190.281 177.384 190.281 170.277 Q190.281 163.148 188.452 159.606 Q186.647 156.041 183.012 156.041 M183.012 152.338 Q188.823 152.338 191.878 156.944 Q194.957 161.527 194.957 170.277 Q194.957 179.004 191.878 183.611 Q188.823 188.194 183.012 188.194 Q177.202 188.194 174.124 183.611 Q171.068 179.004 171.068 170.277 Q171.068 161.527 174.124 156.944 Q177.202 152.338 183.012 152.338 Z" fill="#000000" fill-rule="nonzero" fill-opacity="1" /><path clip-path="url(#clip250)" d="M24.0927 692.421 Q24.0927 699.423 29.3125 703.561 Q34.5324 707.667 43.5399 707.667 Q52.5155 707.667 57.7354 703.561 Q62.9553 699.423 62.9553 692.421 Q62.9553 685.419 57.7354 681.345 Q52.5155 677.239 43.5399 677.239 Q34.5324 677.239 29.3125 681.345 Q24.0927 685.419 24.0927 692.421 M66.3928 683.414 L75.6549 674.947 L75.6549 682.713 L68.0479 689.747 Q68.1115 690.798 68.1434 691.371 Q68.1752 691.912 68.1752 692.421 Q68.1752 702.447 61.4912 708.463 Q54.7754 714.446 43.5399 714.446 Q32.2726 714.446 25.5886 708.463 Q18.8728 702.447 18.8728 692.421 Q18.8728 682.427 25.5886 676.443 Q32.2726 670.459 43.5399 670.459 Q51.8153 670.459 57.7036 673.801 Q63.5919 677.111 66.3928 683.414 Z" fill="#000000" fill-rule="nonzero" fill-opacity="1" /><path clip-path="url(#clip250)" d="M53.1839 661.261 L31.6042 661.261 L31.6042 655.404 L52.9611 655.404 Q58.0219 655.404 60.5682 653.431 Q63.0826 651.458 63.0826 647.511 Q63.0826 642.768 60.0589 640.031 Q57.0352 637.262 51.8153 637.262 L31.6042 637.262 L31.6042 631.406 L67.2522 631.406 L67.2522 637.262 L61.7776 637.262 Q65.0242 639.395 66.6156 642.227 Q68.1752 645.028 68.1752 648.752 Q68.1752 654.895 64.3558 658.078 Q60.5363 661.261 53.1839 661.261 M30.7448 646.524 L30.7448 646.524 Z" fill="#000000" fill-rule="nonzero" fill-opacity="1" /><path clip-path="url(#clip250)" d="M49.3327 603.142 Q49.3327 610.24 50.9559 612.977 Q52.5792 615.714 56.4941 615.714 Q59.6133 615.714 61.4594 613.677 Q63.2736 611.608 63.2736 608.075 Q63.2736 603.206 59.8361 600.277 Q56.3668 597.317 50.6377 597.317 L49.3327 597.317 L49.3327 603.142 M46.9137 591.461 L67.2522 591.461 L67.2522 597.317 L61.8413 597.317 Q65.0878 599.323 66.6474 602.314 Q68.1752 605.306 68.1752 609.635 Q68.1752 615.109 65.1196 618.356 Q62.0323 621.571 56.8761 621.571 Q50.8605 621.571 47.8049 617.56 Q44.7494 613.518 44.7494 605.529 L44.7494 597.317 L44.1765 597.317 Q40.1342 597.317 37.9381 599.991 Q35.7101 602.633 35.7101 607.439 Q35.7101 610.494 36.4421 613.391 Q37.1742 616.287 38.6383 618.961 L33.2275 618.961 Q31.9861 615.746 31.3814 612.722 Q30.7448 609.699 30.7448 606.834 Q30.7448 599.1 34.7552 595.28 Q38.7656 591.461 46.9137 591.461 Z" fill="#000000" fill-rule="nonzero" fill-opacity="1" /><path clip-path="url(#clip250)" d="M45.7361 549.766 L67.2522 549.766 L67.2522 555.622 L45.927 555.622 Q40.8663 555.622 38.3518 557.595 Q35.8374 559.569 35.8374 563.515 Q35.8374 568.258 38.8611 570.995 Q41.8848 573.732 47.1047 573.732 L67.2522 573.732 L67.2522 579.621 L31.6042 579.621 L31.6042 573.732 L37.1424 573.732 Q33.9277 571.632 32.3363 568.799 Q30.7448 565.934 30.7448 562.21 Q30.7448 556.068 34.5643 552.917 Q38.3518 549.766 45.7361 549.766 Z" fill="#000000" fill-rule="nonzero" fill-opacity="1" /><path clip-path="url(#clip250)" d="M21.4827 532.292 L31.6042 532.292 L31.6042 520.229 L36.1557 520.229 L36.1557 532.292 L55.5074 532.292 Q59.8679 532.292 61.1093 531.114 Q62.3506 529.904 62.3506 526.244 L62.3506 520.229 L67.2522 520.229 L67.2522 526.244 Q67.2522 533.024 64.7377 535.602 Q62.1914 538.18 55.5074 538.18 L36.1557 538.18 L36.1557 542.477 L31.6042 542.477 L31.6042 538.18 L21.4827 538.18 L21.4827 532.292 Z" fill="#000000" fill-rule="nonzero" fill-opacity="1" /><path clip-path="url(#clip250)" d="M31.6042 512.526 L31.6042 506.67 L67.2522 506.67 L67.2522 512.526 L31.6042 512.526 M17.727 512.526 L17.727 506.67 L25.143 506.67 L25.143 512.526 L17.727 512.526 Z" fill="#000000" fill-rule="nonzero" fill-opacity="1" /><path clip-path="url(#clip250)" d="M21.4827 488.623 L31.6042 488.623 L31.6042 476.56 L36.1557 476.56 L36.1557 488.623 L55.5074 488.623 Q59.8679 488.623 61.1093 487.445 Q62.3506 486.236 62.3506 482.575 L62.3506 476.56 L67.2522 476.56 L67.2522 482.575 Q67.2522 489.355 64.7377 491.933 Q62.1914 494.511 55.5074 494.511 L36.1557 494.511 L36.1557 498.808 L31.6042 498.808 L31.6042 494.511 L21.4827 494.511 L21.4827 488.623 Z" fill="#000000" fill-rule="nonzero" fill-opacity="1" /><path clip-path="url(#clip250)" d="M70.5623 454.025 Q76.928 456.508 78.8696 458.863 Q80.8111 461.219 80.8111 465.165 L80.8111 469.844 L75.9095 469.844 L75.9095 466.407 Q75.9095 463.988 74.7637 462.651 Q73.6179 461.314 69.3528 459.691 L66.6792 458.64 L31.6042 473.059 L31.6042 466.852 L59.486 455.712 L31.6042 444.572 L31.6042 438.366 L70.5623 454.025 Z" fill="#000000" fill-rule="nonzero" fill-opacity="1" /><path clip-path="url(#clip250)" d="M555.737 27.2059 L539.331 49.2833 L556.588 72.576 L547.797 72.576 L534.591 54.752 L521.385 72.576 L512.595 72.576 L530.216 48.8377 L514.094 27.2059 L522.884 27.2059 L534.915 43.369 L546.947 27.2059 L555.737 27.2059 Z" fill="#000000" fill-rule="nonzero" fill-opacity="1" /><path clip-path="url(#clip250)" d="M601.593 86.3491 L601.593 92.1419 L558.492 92.1419 L558.492 86.3491 L601.593 86.3491 Z" fill="#000000" fill-rule="nonzero" fill-opacity="1" /><path clip-path="url(#clip250)" d="M608.601 27.2059 L616.055 27.2059 L616.055 72.576 L608.601 72.576 L608.601 27.2059 M608.601 9.54393 L616.055 9.54393 L616.055 18.9825 L608.601 18.9825 L608.601 9.54393 Z" fill="#000000" fill-rule="nonzero" fill-opacity="1" /><path clip-path="url(#clip250)" d="M669.365 45.1919 L669.365 72.576 L661.911 72.576 L661.911 45.4349 Q661.911 38.994 659.4 35.7938 Q656.888 32.5936 651.865 32.5936 Q645.829 32.5936 642.345 36.4419 Q638.862 40.2903 638.862 46.9338 L638.862 72.576 L631.367 72.576 L631.367 27.2059 L638.862 27.2059 L638.862 34.2544 Q641.535 30.163 645.141 28.1376 Q648.786 26.1121 653.526 26.1121 Q661.344 26.1121 665.355 30.9732 Q669.365 35.7938 669.365 45.1919 Z" fill="#000000" fill-rule="nonzero" fill-opacity="1" /><path clip-path="url(#clip250)" d="M678.885 27.2059 L686.784 27.2059 L700.962 65.2844 L715.14 27.2059 L723.039 27.2059 L706.026 72.576 L695.898 72.576 L678.885 27.2059 Z" fill="#000000" fill-rule="nonzero" fill-opacity="1" /><path clip-path="url(#clip250)" d="M772.136 48.0275 L772.136 51.6733 L737.866 51.6733 Q738.352 59.3701 742.484 63.421 Q746.656 67.4314 754.069 67.4314 Q758.363 67.4314 762.374 66.3781 Q766.425 65.3249 770.395 63.2184 L770.395 70.267 Q766.384 71.9684 762.171 72.8596 Q757.958 73.7508 753.624 73.7508 Q742.767 73.7508 736.407 67.4314 Q730.088 61.1119 730.088 50.3365 Q730.088 39.1965 736.083 32.6746 Q742.119 26.1121 752.327 26.1121 Q761.483 26.1121 766.789 32.0264 Q772.136 37.9003 772.136 48.0275 M764.683 45.84 Q764.602 39.7232 761.239 36.0774 Q757.918 32.4315 752.408 32.4315 Q746.17 32.4315 742.403 35.9558 Q738.676 39.4801 738.109 45.8805 L764.683 45.84 Z" fill="#000000" fill-rule="nonzero" fill-opacity="1" /><path clip-path="url(#clip250)" d="M822.084 45.1919 L822.084 72.576 L814.63 72.576 L814.63 45.4349 Q814.63 38.994 812.119 35.7938 Q809.607 32.5936 804.584 32.5936 Q798.548 32.5936 795.065 36.4419 Q791.581 40.2903 791.581 46.9338 L791.581 72.576 L784.087 72.576 L784.087 27.2059 L791.581 27.2059 L791.581 34.2544 Q794.254 30.163 797.86 28.1376 Q801.505 26.1121 806.245 26.1121 Q814.063 26.1121 818.074 30.9732 Q822.084 35.7938 822.084 45.1919 Z" fill="#000000" fill-rule="nonzero" fill-opacity="1" /><path clip-path="url(#clip250)" d="M844.324 14.324 L844.324 27.2059 L859.676 27.2059 L859.676 32.9987 L844.324 32.9987 L844.324 57.6282 Q844.324 63.1779 845.822 64.7578 Q847.362 66.3376 852.02 66.3376 L859.676 66.3376 L859.676 72.576 L852.02 72.576 Q843.392 72.576 840.111 69.3758 Q836.829 66.1351 836.829 57.6282 L836.829 32.9987 L831.361 32.9987 L831.361 27.2059 L836.829 27.2059 L836.829 14.324 L844.324 14.324 Z" fill="#000000" fill-rule="nonzero" fill-opacity="1" /><path clip-path="url(#clip250)" d="M887.061 32.4315 Q881.065 32.4315 877.581 37.1306 Q874.098 41.7891 874.098 49.9314 Q874.098 58.0738 877.541 62.7728 Q881.025 67.4314 887.061 67.4314 Q893.015 67.4314 896.499 62.7323 Q899.983 58.0333 899.983 49.9314 Q899.983 41.8701 896.499 37.1711 Q893.015 32.4315 887.061 32.4315 M887.061 26.1121 Q896.783 26.1121 902.332 32.4315 Q907.882 38.7509 907.882 49.9314 Q907.882 61.0714 902.332 67.4314 Q896.783 73.7508 887.061 73.7508 Q877.298 73.7508 871.748 67.4314 Q866.239 61.0714 866.239 49.9314 Q866.239 38.7509 871.748 32.4315 Q877.298 26.1121 887.061 26.1121 Z" fill="#000000" fill-rule="nonzero" fill-opacity="1" /><path clip-path="url(#clip250)" d="M946.528 34.1734 Q945.272 33.4443 943.773 33.1202 Q942.315 32.7556 940.532 32.7556 Q934.213 32.7556 930.81 36.8875 Q927.448 40.9789 927.448 48.6757 L927.448 72.576 L919.954 72.576 L919.954 27.2059 L927.448 27.2059 L927.448 34.2544 Q929.798 30.1225 933.565 28.1376 Q937.332 26.1121 942.72 26.1121 Q943.49 26.1121 944.421 26.2337 Q945.353 26.3147 946.487 26.5172 L946.528 34.1734 Z" fill="#000000" fill-rule="nonzero" fill-opacity="1" /><path clip-path="url(#clip250)" d="M973.223 76.7889 Q970.064 84.8907 967.066 87.3618 Q964.068 89.8329 959.045 89.8329 L953.09 89.8329 L953.09 83.5945 L957.465 83.5945 Q960.544 83.5945 962.245 82.1361 Q963.947 80.6778 966.013 75.2496 L967.349 71.8468 L948.999 27.2059 L956.898 27.2059 L971.076 62.6918 L985.254 27.2059 L993.154 27.2059 L973.223 76.7889 Z" fill="#000000" fill-rule="nonzero" fill-opacity="1" /><path clip-path="url(#clip250)" d="M992.668 62.2867 L1001.22 62.2867 L1001.22 72.576 L992.668 72.576 L992.668 62.2867 Z" fill="#000000" fill-rule="nonzero" fill-opacity="1" /><path clip-path="url(#clip250)" d="M1035.57 32.4315 Q1029.57 32.4315 1026.09 37.1306 Q1022.6 41.7891 1022.6 49.9314 Q1022.6 58.0738 1026.05 62.7728 Q1029.53 67.4314 1035.57 67.4314 Q1041.52 67.4314 1045.01 62.7323 Q1048.49 58.0333 1048.49 49.9314 Q1048.49 41.8701 1045.01 37.1711 Q1041.52 32.4315 1035.57 32.4315 M1035.57 26.1121 Q1045.29 26.1121 1050.84 32.4315 Q1056.39 38.7509 1056.39 49.9314 Q1056.39 61.0714 1050.84 67.4314 Q1045.29 73.7508 1035.57 73.7508 Q1025.8 73.7508 1020.25 67.4314 Q1014.75 61.0714 1014.75 49.9314 Q1014.75 38.7509 1020.25 32.4315 Q1025.8 26.1121 1035.57 26.1121 Z" fill="#000000" fill-rule="nonzero" fill-opacity="1" /><path clip-path="url(#clip250)" d="M1067.97 54.671 L1067.97 27.2059 L1075.43 27.2059 L1075.43 54.3874 Q1075.43 60.8284 1077.94 64.0691 Q1080.45 67.2693 1085.47 67.2693 Q1091.51 67.2693 1094.99 63.421 Q1098.52 59.5726 1098.52 52.9291 L1098.52 27.2059 L1105.97 27.2059 L1105.97 72.576 L1098.52 72.576 L1098.52 65.6084 Q1095.8 69.7404 1092.2 71.7658 Q1088.63 73.7508 1083.89 73.7508 Q1076.08 73.7508 1072.02 68.8897 Q1067.97 64.0286 1067.97 54.671 M1086.73 26.1121 L1086.73 26.1121 Z" fill="#000000" fill-rule="nonzero" fill-opacity="1" /><path clip-path="url(#clip250)" d="M1128.7 14.324 L1128.7 27.2059 L1144.05 27.2059 L1144.05 32.9987 L1128.7 32.9987 L1128.7 57.6282 Q1128.7 63.1779 1130.2 64.7578 Q1131.74 66.3376 1136.39 66.3376 L1144.05 66.3376 L1144.05 72.576 L1136.39 72.576 Q1127.77 72.576 1124.48 69.3758 Q1121.2 66.1351 1121.2 57.6282 L1121.2 32.9987 L1115.73 32.9987 L1115.73 27.2059 L1121.2 27.2059 L1121.2 14.324 L1128.7 14.324 Z" fill="#000000" fill-rule="nonzero" fill-opacity="1" /><path clip-path="url(#clip250)" d="M1210.57 20.5624 L1210.57 43.1259 L1233.13 43.1259 L1233.13 50.0125 L1210.57 50.0125 L1210.57 72.576 L1203.76 72.576 L1203.76 50.0125 L1181.2 50.0125 L1181.2 43.1259 L1203.76 43.1259 L1203.76 20.5624 L1210.57 20.5624 Z" fill="#000000" fill-rule="nonzero" fill-opacity="1" /><path clip-path="url(#clip250)" d="M1275.34 54.671 L1275.34 27.2059 L1282.79 27.2059 L1282.79 54.3874 Q1282.79 60.8284 1285.3 64.0691 Q1287.82 67.2693 1292.84 67.2693 Q1298.88 67.2693 1302.36 63.421 Q1305.88 59.5726 1305.88 52.9291 L1305.88 27.2059 L1313.34 27.2059 L1313.34 72.576 L1305.88 72.576 L1305.88 65.6084 Q1303.17 69.7404 1299.56 71.7658 Q1296 73.7508 1291.26 73.7508 Q1283.44 73.7508 1279.39 68.8897 Q1275.34 64.0286 1275.34 54.671 M1294.1 26.1121 L1294.1 26.1121 Z" fill="#000000" fill-rule="nonzero" fill-opacity="1" /><path clip-path="url(#clip250)" d="M1363.16 86.3491 L1363.16 92.1419 L1320.06 92.1419 L1320.06 86.3491 L1363.16 86.3491 Z" fill="#000000" fill-rule="nonzero" fill-opacity="1" /><path clip-path="url(#clip250)" d="M1402.74 49.9314 Q1402.74 41.7081 1399.34 37.0496 Q1395.98 32.3505 1390.06 32.3505 Q1384.15 32.3505 1380.74 37.0496 Q1377.38 41.7081 1377.38 49.9314 Q1377.38 58.1548 1380.74 62.8538 Q1384.15 67.5124 1390.06 67.5124 Q1395.98 67.5124 1399.34 62.8538 Q1402.74 58.1548 1402.74 49.9314 M1377.38 34.0924 Q1379.73 30.0415 1383.3 28.0971 Q1386.9 26.1121 1391.88 26.1121 Q1400.15 26.1121 1405.29 32.6746 Q1410.48 39.2371 1410.48 49.9314 Q1410.48 60.6258 1405.29 67.1883 Q1400.15 73.7508 1391.88 73.7508 Q1386.9 73.7508 1383.3 71.8063 Q1379.73 69.8214 1377.38 65.7705 L1377.38 72.576 L1369.89 72.576 L1369.89 9.54393 L1377.38 9.54393 L1377.38 34.0924 Z" fill="#000000" fill-rule="nonzero" fill-opacity="1" /><path clip-path="url(#clip250)" d="M1422.06 54.671 L1422.06 27.2059 L1429.52 27.2059 L1429.52 54.3874 Q1429.52 60.8284 1432.03 64.0691 Q1434.54 67.2693 1439.56 67.2693 Q1445.6 67.2693 1449.08 63.421 Q1452.61 59.5726 1452.61 52.9291 L1452.61 27.2059 L1460.06 27.2059 L1460.06 72.576 L1452.61 72.576 L1452.61 65.6084 Q1449.89 69.7404 1446.29 71.7658 Q1442.72 73.7508 1437.98 73.7508 Q1430.17 73.7508 1426.11 68.8897 Q1422.06 64.0286 1422.06 54.671 M1440.82 26.1121 L1440.82 26.1121 Z" fill="#000000" fill-rule="nonzero" fill-opacity="1" /><path clip-path="url(#clip250)" d="M1494.29 76.7889 Q1491.13 84.8907 1488.13 87.3618 Q1485.14 89.8329 1480.11 89.8329 L1474.16 89.8329 L1474.16 83.5945 L1478.53 83.5945 Q1481.61 83.5945 1483.31 82.1361 Q1485.01 80.6778 1487.08 75.2496 L1488.42 71.8468 L1470.07 27.2059 L1477.97 27.2059 L1492.14 62.6918 L1506.32 27.2059 L1514.22 27.2059 L1494.29 76.7889 Z" fill="#000000" fill-rule="nonzero" fill-opacity="1" /><path clip-path="url(#clip250)" d="M1513.74 62.2867 L1522.28 62.2867 L1522.28 72.576 L1513.74 72.576 L1513.74 62.2867 Z" fill="#000000" fill-rule="nonzero" fill-opacity="1" /><path clip-path="url(#clip250)" d="M1556.63 32.4315 Q1550.64 32.4315 1547.16 37.1306 Q1543.67 41.7891 1543.67 49.9314 Q1543.67 58.0738 1547.11 62.7728 Q1550.6 67.4314 1556.63 67.4314 Q1562.59 67.4314 1566.07 62.7323 Q1569.56 58.0333 1569.56 49.9314 Q1569.56 41.8701 1566.07 37.1711 Q1562.59 32.4315 1556.63 32.4315 M1556.63 26.1121 Q1566.36 26.1121 1571.91 32.4315 Q1577.46 38.7509 1577.46 49.9314 Q1577.46 61.0714 1571.91 67.4314 Q1566.36 73.7508 1556.63 73.7508 Q1546.87 73.7508 1541.32 67.4314 Q1535.81 61.0714 1535.81 49.9314 Q1535.81 38.7509 1541.32 32.4315 Q1546.87 26.1121 1556.63 26.1121 Z" fill="#000000" fill-rule="nonzero" fill-opacity="1" /><path clip-path="url(#clip250)" d="M1589.04 54.671 L1589.04 27.2059 L1596.5 27.2059 L1596.5 54.3874 Q1596.5 60.8284 1599.01 64.0691 Q1601.52 67.2693 1606.54 67.2693 Q1612.58 67.2693 1616.06 63.421 Q1619.59 59.5726 1619.59 52.9291 L1619.59 27.2059 L1627.04 27.2059 L1627.04 72.576 L1619.59 72.576 L1619.59 65.6084 Q1616.87 69.7404 1613.27 71.7658 Q1609.7 73.7508 1604.96 73.7508 Q1597.14 73.7508 1593.09 68.8897 Q1589.04 64.0286 1589.04 54.671 M1607.8 26.1121 L1607.8 26.1121 Z" fill="#000000" fill-rule="nonzero" fill-opacity="1" /><path clip-path="url(#clip250)" d="M1649.76 14.324 L1649.76 27.2059 L1665.12 27.2059 L1665.12 32.9987 L1649.76 32.9987 L1649.76 57.6282 Q1649.76 63.1779 1651.26 64.7578 Q1652.8 66.3376 1657.46 66.3376 L1665.12 66.3376 L1665.12 72.576 L1657.46 72.576 Q1648.83 72.576 1645.55 69.3758 Q1642.27 66.1351 1642.27 57.6282 L1642.27 32.9987 L1636.8 32.9987 L1636.8 27.2059 L1642.27 27.2059 L1642.27 14.324 L1649.76 14.324 Z" fill="#000000" fill-rule="nonzero" fill-opacity="1" /><path clip-path="url(#clip252)" d="M273.857 417.7 L307.122 1009.41 L340.387 1009.41 L373.653 1009.41 L406.918 1009.41 L440.183 1009.41 L473.448 1009.41 L506.714 1009.41 L539.979 1009.41 L573.244 1009.41 L606.51 1009.41 L639.775 1009.41 L673.04 1009.41 L706.306 1009.41 L739.571 1009.41 L772.836 1009.41 L806.101 1009.41 L839.367 1009.41 L872.632 1009.41 L905.897 1009.41 L939.163 1009.41 L972.428 1009.41 L1005.69 1009.41 L1038.96 1009.41 L1072.22 1009.41 L1105.49 1009.41 L1138.75 1009.41 L1172.02 1009.41 L1205.28 1009.41 L1238.55 1009.41 L1271.82 1009.41 L1305.08 1009.41 L1338.35 1009.41 L1371.61 1009.41 L1404.88 1009.41 L1438.14 1009.41 L1471.41 1009.41 L1504.67 1009.41 L1537.94 1009.41 L1571.2 1009.41 L1604.47 1009.41 L1637.73 1009.41 L1671 1009.41 L1704.26 1009.41 L1737.53 1009.41 L1770.79 1009.41 L1804.06 1009.41 L1837.33 1009.41 L1870.59 1009.41 L1903.86 1009.41 L1903.86 417.7 L1870.59 417.7 L1837.33 417.7 L1804.06 417.7 L1770.79 417.7 L1737.53 417.7 L1704.26 417.7 L1671 417.7 L1637.73 417.7 L1604.47 417.7 L1571.2 417.7 L1537.94 417.7 L1504.67 417.7 L1471.41 417.7 L1438.14 417.7 L1404.88 417.7 L1371.61 417.7 L1338.35 417.7 L1305.08 417.7 L1271.82 417.7 L1238.55 417.7 L1205.28 417.7 L1172.02 417.7 L1138.75 417.7 L1105.49 417.7 L1072.22 417.7 L1038.96 417.7 L1005.69 417.7 L972.428 417.7 L939.163 417.7 L905.897 417.7 L872.632 417.7 L839.367 417.7 L806.101 417.7 L772.836 417.7 L739.571 417.7 L706.306 417.7 L673.04 417.7 L639.775 417.7 L606.51 417.7 L573.244 417.7 L539.979 417.7 L506.714 417.7 L473.448 417.7 L440.183 417.7 L406.918 417.7 L373.653 417.7 L340.387 417.7 L307.122 1005.95 L273.857 417.7  Z" fill="#00467f" fill-rule="evenodd" fill-opacity="0.2"/>
<polyline clip-path="url(#clip252)" style="stroke:#00467f; stroke-linecap:round; stroke-linejoin:round; stroke-width:4; stroke-opacity:0; fill:none" points="273.857,417.7 307.122,1007.68 340.387,713.554 373.653,713.554 406.918,713.554 440.183,713.554 473.448,713.554 506.714,713.554 539.979,713.554 573.244,713.554 606.51,713.554 639.775,713.554 673.04,713.554 706.306,713.554 739.571,713.554 772.836,713.554 806.101,713.554 839.367,713.554 872.632,713.554 905.897,713.554 939.163,713.554 972.428,713.554 1005.69,713.554 1038.96,713.554 1072.22,713.554 1105.49,713.554 1138.75,713.554 1172.02,713.554 1205.28,713.554 1238.55,713.554 1271.82,713.554 1305.08,713.554 1338.35,713.554 1371.61,713.554 1404.88,713.554 1438.14,713.554 1471.41,713.554 1504.67,713.554 1537.94,713.554 1571.2,713.554 1604.47,713.554 1637.73,713.554 1671,713.554 1704.26,713.554 1737.53,713.554 1770.79,713.554 1804.06,713.554 1837.33,713.554 1870.59,713.554 1903.86,713.554 "/>
<path clip-path="url(#clip252)" d="M273.857 417.7 L307.122 1009.41 L340.387 1009.41 L373.653 1009.41 L406.918 1009.41 L440.183 1009.41 L473.448 1009.41 L506.714 1009.41 L539.979 1009.41 L573.244 1009.41 L606.51 1009.41 L639.775 1009.41 L673.04 1009.41 L706.306 1009.41 L739.571 1009.41 L772.836 1009.41 L806.101 1009.41 L839.367 1009.41 L872.632 1009.41 L905.897 1009.41 L939.163 1009.41 L972.428 1009.41 L1005.69 1009.41 L1038.96 1009.41 L1072.22 1009.41 L1105.49 1009.41 L1138.75 1009.41 L1172.02 1009.41 L1205.28 1009.41 L1238.55 1009.41 L1271.82 1009.41 L1305.08 1009.41 L1338.35 1009.41 L1371.61 1009.41 L1404.88 1009.41 L1438.14 1009.41 L1471.41 1009.41 L1504.67 1009.41 L1537.94 1009.41 L1571.2 1009.41 L1604.47 1009.41 L1637.73 1009.41 L1671 1009.41 L1704.26 1009.41 L1737.53 1009.41 L1770.79 1009.41 L1804.06 1009.41 L1837.33 1009.41 L1870.59 1009.41 L1903.86 1009.41 L1903.86 1009.41 L1870.59 417.7 L1837.33 417.7 L1804.06 1009.41 L1770.79 950.237 L1737.53 417.7 L1704.26 1009.41 L1671 417.7 L1637.73 1009.41 L1604.47 417.7 L1571.2 417.7 L1537.94 1009.41 L1504.67 1009.41 L1471.41 417.7 L1438.14 1009.41 L1404.88 417.7 L1371.61 417.7 L1338.35 1009.41 L1305.08 1009.41 L1271.82 1009.41 L1238.55 1009.41 L1205.28 417.7 L1172.02 950.237 L1138.75 417.7 L1105.49 1009.41 L1072.22 417.7 L1038.96 417.7 L1005.69 950.237 L972.428 1009.41 L939.163 1009.41 L905.897 1009.41 L872.632 1009.41 L839.367 1009.41 L806.101 1009.41 L772.836 417.7 L739.571 417.7 L706.306 417.7 L673.04 417.7 L639.775 417.7 L606.51 1009.41 L573.244 417.7 L539.979 417.7 L506.714 1009.41 L473.448 1009.41 L440.183 1009.41 L406.918 1009.41 L373.653 417.7 L340.387 1009.41 L307.122 1005.95 L273.857 417.7  Z" fill="#00467f" fill-rule="evenodd" fill-opacity="0.2"/>
<polyline clip-path="url(#clip252)" style="stroke:#00467f; stroke-linecap:round; stroke-linejoin:round; stroke-width:4; stroke-opacity:0; fill:none" points="273.857,417.7 307.122,1007.68 340.387,1009.41 373.653,713.554 406.918,1009.41 440.183,1009.41 473.448,1009.41 506.714,1009.41 539.979,713.554 573.244,713.554 606.51,1009.41 639.775,713.554 673.04,713.554 706.306,713.554 739.571,713.554 772.836,713.554 806.101,1009.41 839.367,1009.41 872.632,1009.41 905.897,1009.41 939.163,1009.41 972.428,1009.41 1005.69,979.822 1038.96,713.554 1072.22,713.554 1105.49,1009.41 1138.75,713.554 1172.02,979.822 1205.28,713.554 1238.55,1009.41 1271.82,1009.41 1305.08,1009.41 1338.35,1009.41 1371.61,713.554 1404.88,713.554 1438.14,1009.41 1471.41,713.554 1504.67,1009.41 1537.94,1009.41 1571.2,713.554 1604.47,713.554 1637.73,1009.41 1671,713.554 1704.26,1009.41 1737.53,713.554 1770.79,979.822 1804.06,1009.41 1837.33,713.554 1870.59,713.554 1903.86,1009.41 "/>
<path clip-path="url(#clip252)" d="M273.857 417.7 L307.122 1009.41 L340.387 1009.41 L373.653 1009.41 L406.918 1009.41 L440.183 1009.41 L473.448 1009.41 L506.714 1009.41 L539.979 1009.41 L573.244 1009.41 L606.51 1009.41 L639.775 1009.41 L673.04 1009.41 L706.306 1009.41 L739.571 1009.41 L772.836 1009.41 L806.101 1009.41 L839.367 1009.41 L872.632 1009.41 L905.897 1009.41 L939.163 1009.41 L972.428 1009.41 L1005.69 1009.41 L1038.96 1009.41 L1072.22 1009.41 L1105.49 1009.41 L1138.75 1009.41 L1172.02 1009.41 L1205.28 1009.41 L1238.55 1009.41 L1271.82 1009.41 L1305.08 1009.41 L1338.35 1009.41 L1371.61 1009.41 L1404.88 1009.41 L1438.14 1009.41 L1471.41 1009.41 L1504.67 1009.41 L1537.94 1009.41 L1571.2 1009.41 L1604.47 1009.41 L1637.73 1009.41 L1671 1009.41 L1704.26 1009.41 L1737.53 1009.41 L1770.79 1009.41 L1804.06 1009.41 L1837.33 1009.41 L1870.59 1009.41 L1903.86 1009.41 L1903.86 1009.41 L1870.59 1009.41 L1837.33 1009.41 L1804.06 1009.41 L1770.79 1009.41 L1737.53 1009.41 L1704.26 1009.41 L1671 1009.41 L1637.73 1009.41 L1604.47 1009.41 L1571.2 1009.41 L1537.94 1009.41 L1504.67 1009.41 L1471.41 1009.41 L1438.14 1009.41 L1404.88 1009.41 L1371.61 1009.41 L1338.35 1009.41 L1305.08 1009.41 L1271.82 1009.41 L1238.55 1009.41 L1205.28 1009.41 L1172.02 1009.41 L1138.75 1009.41 L1105.49 1009.41 L1072.22 1009.41 L1038.96 1009.41 L1005.69 1009.41 L972.428 1009.41 L939.163 1009.41 L905.897 1009.41 L872.632 1009.41 L839.367 1009.41 L806.101 1009.41 L772.836 1009.41 L739.571 1009.41 L706.306 1009.41 L673.04 1009.41 L639.775 1009.41 L606.51 1009.41 L573.244 1009.41 L539.979 1009.41 L506.714 1009.41 L473.448 1009.41 L440.183 1009.41 L406.918 1009.41 L373.653 1009.41 L340.387 1009.41 L307.122 1009.41 L273.857 417.7  Z" fill="#00467f" fill-rule="evenodd" fill-opacity="0.2"/>
<polyline clip-path="url(#clip252)" style="stroke:#00467f; stroke-linecap:round; stroke-linejoin:round; stroke-width:4; stroke-opacity:0; fill:none" points="273.857,417.7 307.122,1009.41 340.387,1009.41 373.653,1009.41 406.918,1009.41 440.183,1009.41 473.448,1009.41 506.714,1009.41 539.979,1009.41 573.244,1009.41 606.51,1009.41 639.775,1009.41 673.04,1009.41 706.306,1009.41 739.571,1009.41 772.836,1009.41 806.101,1009.41 839.367,1009.41 872.632,1009.41 905.897,1009.41 939.163,1009.41 972.428,1009.41 1005.69,1009.41 1038.96,1009.41 1072.22,1009.41 1105.49,1009.41 1138.75,1009.41 1172.02,1009.41 1205.28,1009.41 1238.55,1009.41 1271.82,1009.41 1305.08,1009.41 1338.35,1009.41 1371.61,1009.41 1404.88,1009.41 1438.14,1009.41 1471.41,1009.41 1504.67,1009.41 1537.94,1009.41 1571.2,1009.41 1604.47,1009.41 1637.73,1009.41 1671,1009.41 1704.26,1009.41 1737.53,1009.41 1770.79,1009.41 1804.06,1009.41 1837.33,1009.41 1870.59,1009.41 1903.86,1009.41 "/>
<polyline clip-path="url(#clip252)" style="stroke:#00467f; stroke-linecap:round; stroke-linejoin:round; stroke-width:4; stroke-opacity:1; fill:none" points="273.857,417.7 307.122,1009.41 340.387,1009.41 373.653,1009.41 406.918,1009.41 440.183,1009.41 473.448,1009.41 506.714,1009.41 539.979,1009.41 573.244,1009.41 606.51,1009.41 639.775,1009.41 673.04,1009.41 706.306,1009.41 739.571,1009.41 772.836,1009.41 806.101,1009.41 839.367,1009.41 872.632,1009.41 905.897,1009.41 939.163,1009.41 972.428,1009.41 1005.69,1009.41 1038.96,1009.41 1072.22,1009.41 1105.49,1009.41 1138.75,1009.41 1172.02,1009.41 1205.28,1009.41 1238.55,1009.41 1271.82,1009.41 1305.08,1009.41 1338.35,1009.41 1371.61,1009.41 1404.88,1009.41 1438.14,1009.41 1471.41,1009.41 1504.67,1009.41 1537.94,1009.41 1571.2,1009.41 1604.47,1009.41 1637.73,1009.41 1671,1009.41 1704.26,1009.41 1737.53,1009.41 1770.79,1009.41 1804.06,1009.41 1837.33,1009.41 1870.59,1009.41 1903.86,1009.41 "/>
<polyline clip-path="url(#clip252)" style="stroke:#ac8d18; stroke-linecap:round; stroke-linejoin:round; stroke-width:4; stroke-opacity:1; fill:none" points="-1502.84,143.404 3680.56,143.404 "/>
<path clip-path="url(#clip250)" d="M1333.4 251.703 L1895.16 251.703 L1895.16 148.023 L1333.4 148.023  Z" fill="#ffffff" fill-rule="evenodd" fill-opacity="1"/>
<polyline clip-path="url(#clip250)" style="stroke:#000000; stroke-linecap:round; stroke-linejoin:round; stroke-width:4; stroke-opacity:1; fill:none" points="1333.4,251.703 1895.16,251.703 1895.16,148.023 1333.4,148.023 1333.4,251.703 "/>
<polyline clip-path="url(#clip250)" style="stroke:#ac8d18; stroke-linecap:round; stroke-linejoin:round; stroke-width:4; stroke-opacity:1; fill:none" points="1352.6,199.863 1467.79,199.863 "/>
<path clip-path="url(#clip250)" d="M1502.82 187.189 L1496.48 204.388 L1509.18 204.388 L1502.82 187.189 M1500.18 182.583 L1505.48 182.583 L1518.65 217.143 L1513.79 217.143 L1510.64 208.277 L1495.06 208.277 L1491.92 217.143 L1486.99 217.143 L1500.18 182.583 Z" fill="#000000" fill-rule="nonzero" fill-opacity="1" /><path clip-path="url(#clip250)" d="M1545.06 201.495 L1545.06 217.143 L1540.8 217.143 L1540.8 201.634 Q1540.8 197.953 1539.37 196.125 Q1537.93 194.296 1535.06 194.296 Q1531.61 194.296 1529.62 196.495 Q1527.63 198.694 1527.63 202.49 L1527.63 217.143 L1523.35 217.143 L1523.35 191.217 L1527.63 191.217 L1527.63 195.245 Q1529.16 192.907 1531.22 191.75 Q1533.3 190.592 1536.01 190.592 Q1540.48 190.592 1542.77 193.37 Q1545.06 196.125 1545.06 201.495 Z" fill="#000000" fill-rule="nonzero" fill-opacity="1" /><path clip-path="url(#clip250)" d="M1565.34 204.111 Q1560.18 204.111 1558.19 205.291 Q1556.2 206.472 1556.2 209.319 Q1556.2 211.587 1557.68 212.93 Q1559.18 214.249 1561.75 214.249 Q1565.3 214.249 1567.42 211.749 Q1569.58 209.226 1569.58 205.06 L1569.58 204.111 L1565.34 204.111 M1573.84 202.351 L1573.84 217.143 L1569.58 217.143 L1569.58 213.208 Q1568.12 215.569 1565.94 216.703 Q1563.77 217.814 1560.62 217.814 Q1556.64 217.814 1554.28 215.592 Q1551.94 213.347 1551.94 209.597 Q1551.94 205.222 1554.86 202.999 Q1557.8 200.777 1563.61 200.777 L1569.58 200.777 L1569.58 200.361 Q1569.58 197.421 1567.63 195.824 Q1565.71 194.203 1562.22 194.203 Q1559.99 194.203 1557.89 194.736 Q1555.78 195.268 1553.84 196.333 L1553.84 192.398 Q1556.17 191.495 1558.37 191.055 Q1560.57 190.592 1562.66 190.592 Q1568.28 190.592 1571.06 193.509 Q1573.84 196.425 1573.84 202.351 Z" fill="#000000" fill-rule="nonzero" fill-opacity="1" /><path clip-path="url(#clip250)" d="M1582.61 181.125 L1586.87 181.125 L1586.87 217.143 L1582.61 217.143 L1582.61 181.125 Z" fill="#000000" fill-rule="nonzero" fill-opacity="1" /><path clip-path="url(#clip250)" d="M1606.57 219.55 Q1604.76 224.18 1603.05 225.592 Q1601.34 227.004 1598.47 227.004 L1595.06 227.004 L1595.06 223.439 L1597.56 223.439 Q1599.32 223.439 1600.3 222.606 Q1601.27 221.773 1602.45 218.671 L1603.21 216.726 L1592.73 191.217 L1597.24 191.217 L1605.34 211.495 L1613.44 191.217 L1617.96 191.217 L1606.57 219.55 Z" fill="#000000" fill-rule="nonzero" fill-opacity="1" /><path clip-path="url(#clip250)" d="M1628.05 183.856 L1628.05 191.217 L1636.82 191.217 L1636.82 194.527 L1628.05 194.527 L1628.05 208.601 Q1628.05 211.773 1628.91 212.675 Q1629.79 213.578 1632.45 213.578 L1636.82 213.578 L1636.82 217.143 L1632.45 217.143 Q1627.52 217.143 1625.64 215.314 Q1623.77 213.462 1623.77 208.601 L1623.77 194.527 L1620.64 194.527 L1620.64 191.217 L1623.77 191.217 L1623.77 183.856 L1628.05 183.856 Z" fill="#000000" fill-rule="nonzero" fill-opacity="1" /><path clip-path="url(#clip250)" d="M1642.42 191.217 L1646.68 191.217 L1646.68 217.143 L1642.42 217.143 L1642.42 191.217 M1642.42 181.125 L1646.68 181.125 L1646.68 186.518 L1642.42 186.518 L1642.42 181.125 Z" fill="#000000" fill-rule="nonzero" fill-opacity="1" /><path clip-path="url(#clip250)" d="M1674.25 192.212 L1674.25 196.194 Q1672.45 195.199 1670.62 194.712 Q1668.81 194.203 1666.96 194.203 Q1662.82 194.203 1660.53 196.842 Q1658.23 199.458 1658.23 204.203 Q1658.23 208.949 1660.53 211.587 Q1662.82 214.203 1666.96 214.203 Q1668.81 214.203 1670.62 213.717 Q1672.45 213.208 1674.25 212.212 L1674.25 216.148 Q1672.47 216.981 1670.55 217.398 Q1668.65 217.814 1666.5 217.814 Q1660.64 217.814 1657.19 214.134 Q1653.74 210.453 1653.74 204.203 Q1653.74 197.861 1657.22 194.226 Q1660.71 190.592 1666.78 190.592 Q1668.74 190.592 1670.62 191.009 Q1672.49 191.402 1674.25 192.212 Z" fill="#000000" fill-rule="nonzero" fill-opacity="1" /><path clip-path="url(#clip250)" d="M1713.26 191.981 L1713.26 196.009 Q1711.45 195.083 1709.51 194.62 Q1707.56 194.157 1705.48 194.157 Q1702.31 194.157 1700.71 195.129 Q1699.14 196.101 1699.14 198.046 Q1699.14 199.527 1700.27 200.384 Q1701.41 201.217 1704.83 201.981 L1706.29 202.305 Q1710.83 203.277 1712.72 205.06 Q1714.65 206.819 1714.65 209.99 Q1714.65 213.601 1711.78 215.708 Q1708.93 217.814 1703.93 217.814 Q1701.85 217.814 1699.58 217.398 Q1697.33 217.004 1694.83 216.194 L1694.83 211.796 Q1697.19 213.023 1699.48 213.648 Q1701.78 214.249 1704.02 214.249 Q1707.03 214.249 1708.65 213.231 Q1710.27 212.189 1710.27 210.314 Q1710.27 208.578 1709.09 207.652 Q1707.93 206.726 1703.98 205.87 L1702.49 205.523 Q1698.54 204.689 1696.78 202.976 Q1695.02 201.24 1695.02 198.231 Q1695.02 194.574 1697.61 192.583 Q1700.2 190.592 1704.97 190.592 Q1707.33 190.592 1709.41 190.939 Q1711.5 191.287 1713.26 191.981 Z" fill="#000000" fill-rule="nonzero" fill-opacity="1" /><path clip-path="url(#clip250)" d="M1731.47 194.203 Q1728.05 194.203 1726.06 196.888 Q1724.07 199.55 1724.07 204.203 Q1724.07 208.856 1726.04 211.541 Q1728.03 214.203 1731.47 214.203 Q1734.88 214.203 1736.87 211.518 Q1738.86 208.833 1738.86 204.203 Q1738.86 199.597 1736.87 196.912 Q1734.88 194.203 1731.47 194.203 M1731.47 190.592 Q1737.03 190.592 1740.2 194.203 Q1743.37 197.814 1743.37 204.203 Q1743.37 210.569 1740.2 214.203 Q1737.03 217.814 1731.47 217.814 Q1725.9 217.814 1722.72 214.203 Q1719.58 210.569 1719.58 204.203 Q1719.58 197.814 1722.72 194.203 Q1725.9 190.592 1731.47 190.592 Z" fill="#000000" fill-rule="nonzero" fill-opacity="1" /><path clip-path="url(#clip250)" d="M1750.43 181.125 L1754.69 181.125 L1754.69 217.143 L1750.43 217.143 L1750.43 181.125 Z" fill="#000000" fill-rule="nonzero" fill-opacity="1" /><path clip-path="url(#clip250)" d="M1763.16 206.911 L1763.16 191.217 L1767.42 191.217 L1767.42 206.749 Q1767.42 210.43 1768.86 212.282 Q1770.29 214.111 1773.16 214.111 Q1776.61 214.111 1778.6 211.911 Q1780.62 209.712 1780.62 205.916 L1780.62 191.217 L1784.88 191.217 L1784.88 217.143 L1780.62 217.143 L1780.62 213.161 Q1779.07 215.523 1777.01 216.68 Q1774.97 217.814 1772.26 217.814 Q1767.79 217.814 1765.48 215.036 Q1763.16 212.259 1763.16 206.911 M1773.88 190.592 L1773.88 190.592 Z" fill="#000000" fill-rule="nonzero" fill-opacity="1" /><path clip-path="url(#clip250)" d="M1797.86 183.856 L1797.86 191.217 L1806.64 191.217 L1806.64 194.527 L1797.86 194.527 L1797.86 208.601 Q1797.86 211.773 1798.72 212.675 Q1799.6 213.578 1802.26 213.578 L1806.64 213.578 L1806.64 217.143 L1802.26 217.143 Q1797.33 217.143 1795.46 215.314 Q1793.58 213.462 1793.58 208.601 L1793.58 194.527 L1790.46 194.527 L1790.46 191.217 L1793.58 191.217 L1793.58 183.856 L1797.86 183.856 Z" fill="#000000" fill-rule="nonzero" fill-opacity="1" /><path clip-path="url(#clip250)" d="M1812.24 191.217 L1816.5 191.217 L1816.5 217.143 L1812.24 217.143 L1812.24 191.217 M1812.24 181.125 L1816.5 181.125 L1816.5 186.518 L1812.24 186.518 L1812.24 181.125 Z" fill="#000000" fill-rule="nonzero" fill-opacity="1" /><path clip-path="url(#clip250)" d="M1835.46 194.203 Q1832.03 194.203 1830.04 196.888 Q1828.05 199.55 1828.05 204.203 Q1828.05 208.856 1830.02 211.541 Q1832.01 214.203 1835.46 214.203 Q1838.86 214.203 1840.85 211.518 Q1842.84 208.833 1842.84 204.203 Q1842.84 199.597 1840.85 196.912 Q1838.86 194.203 1835.46 194.203 M1835.46 190.592 Q1841.01 190.592 1844.18 194.203 Q1847.35 197.814 1847.35 204.203 Q1847.35 210.569 1844.18 214.203 Q1841.01 217.814 1835.46 217.814 Q1829.88 217.814 1826.71 214.203 Q1823.56 210.569 1823.56 204.203 Q1823.56 197.814 1826.71 194.203 Q1829.88 190.592 1835.46 190.592 Z" fill="#000000" fill-rule="nonzero" fill-opacity="1" /><path clip-path="url(#clip250)" d="M1875.96 201.495 L1875.96 217.143 L1871.71 217.143 L1871.71 201.634 Q1871.71 197.953 1870.27 196.125 Q1868.84 194.296 1865.96 194.296 Q1862.52 194.296 1860.53 196.495 Q1858.53 198.694 1858.53 202.49 L1858.53 217.143 L1854.25 217.143 L1854.25 191.217 L1858.53 191.217 L1858.53 195.245 Q1860.06 192.907 1862.12 191.75 Q1864.21 190.592 1866.91 190.592 Q1871.38 190.592 1873.67 193.37 Q1875.96 196.125 1875.96 201.495 Z" fill="#000000" fill-rule="nonzero" fill-opacity="1" /></svg>
