<?xml version="1.0" encoding="utf-8"?>
<svg xmlns="http://www.w3.org/2000/svg" xmlns:xlink="http://www.w3.org/1999/xlink" width="500" height="300" viewBox="0 0 2000 1200">
<defs>
  <clipPath id="clip590">
    <rect x="0" y="0" width="2000" height="1200"/>
  </clipPath>
</defs>
<path clip-path="url(#clip590)" d="M0 1200 L2000 1200 L2000 0 L0 0  Z" fill="#ffffff" fill-rule="evenodd" fill-opacity="1"/>
<defs>
  <clipPath id="clip591">
    <rect x="400" y="0" width="1401" height="1200"/>
  </clipPath>
</defs>
<path clip-path="url(#clip590)" d="M168.015 1035.39 L952.756 1035.39 L952.756 117.424 L168.015 117.424  Z" fill="#ffffff" fill-rule="evenodd" fill-opacity="1"/>
<defs>
  <clipPath id="clip592">
    <rect x="168" y="117" width="786" height="919"/>
  </clipPath>
</defs>
<polyline clip-path="url(#clip592)" style="stroke:#000000; stroke-linecap:round; stroke-linejoin:round; stroke-width:2; stroke-opacity:0.1; fill:none" points="264.257,1035.39 264.257,117.424 "/>
<polyline clip-path="url(#clip592)" style="stroke:#000000; stroke-linecap:round; stroke-linejoin:round; stroke-width:2; stroke-opacity:0.1; fill:none" points="412.321,1035.39 412.321,117.424 "/>
<polyline clip-path="url(#clip592)" style="stroke:#000000; stroke-linecap:round; stroke-linejoin:round; stroke-width:2; stroke-opacity:0.1; fill:none" points="560.385,1035.39 560.385,117.424 "/>
<polyline clip-path="url(#clip592)" style="stroke:#000000; stroke-linecap:round; stroke-linejoin:round; stroke-width:2; stroke-opacity:0.1; fill:none" points="708.45,1035.39 708.45,117.424 "/>
<polyline clip-path="url(#clip592)" style="stroke:#000000; stroke-linecap:round; stroke-linejoin:round; stroke-width:2; stroke-opacity:0.1; fill:none" points="856.514,1035.39 856.514,117.424 "/>
<polyline clip-path="url(#clip592)" style="stroke:#000000; stroke-linecap:round; stroke-linejoin:round; stroke-width:2; stroke-opacity:0.1; fill:none" points="168.015,1009.41 952.756,1009.41 "/>
<polyline clip-path="url(#clip592)" style="stroke:#000000; stroke-linecap:round; stroke-linejoin:round; stroke-width:2; stroke-opacity:0.1; fill:none" points="168.015,783.095 952.756,783.095 "/>
<polyline clip-path="url(#clip592)" style="stroke:#000000; stroke-linecap:round; stroke-linejoin:round; stroke-width:2; stroke-opacity:0.1; fill:none" points="168.015,556.782 952.756,556.782 "/>
<polyline clip-path="url(#clip592)" style="stroke:#000000; stroke-linecap:round; stroke-linejoin:round; stroke-width:2; stroke-opacity:0.1; fill:none" points="168.015,330.47 952.756,330.47 "/>
<polyline clip-path="url(#clip590)" style="stroke:#000000; stroke-linecap:round; stroke-linejoin:round; stroke-width:4; stroke-opacity:1; fill:none" points="168.015,1035.39 952.756,1035.39 "/>
<polyline clip-path="url(#clip590)" style="stroke:#000000; stroke-linecap:round; stroke-linejoin:round; stroke-width:4; stroke-opacity:1; fill:none" points="264.257,1035.39 264.257,1016.49 "/>
<polyline clip-path="url(#clip590)" style="stroke:#000000; stroke-linecap:round; stroke-linejoin:round; stroke-width:4; stroke-opacity:1; fill:none" points="412.321,1035.39 412.321,1016.49 "/>
<polyline clip-path="url(#clip590)" style="stroke:#000000; stroke-linecap:round; stroke-linejoin:round; stroke-width:4; stroke-opacity:1; fill:none" points="560.385,1035.39 560.385,1016.49 "/>
<polyline clip-path="url(#clip590)" style="stroke:#000000; stroke-linecap:round; stroke-linejoin:round; stroke-width:4; stroke-opacity:1; fill:none" points="708.45,1035.39 708.45,1016.49 "/>
<polyline clip-path="url(#clip590)" style="stroke:#000000; stroke-linecap:round; stroke-linejoin:round; stroke-width:4; stroke-opacity:1; fill:none" points="856.514,1035.39 856.514,1016.49 "/>
<path clip-path="url(#clip590)" d="M258.909 1090.65 L275.229 1090.65 L275.229 1094.59 L253.284 1094.59 L253.284 1090.65 Q255.947 1087.9 260.53 1083.27 Q265.136 1078.62 266.317 1077.27 Q268.562 1074.75 269.442 1073.01 Q270.345 1071.25 270.345 1069.56 Q270.345 1066.81 268.4 1065.07 Q266.479 1063.34 263.377 1063.34 Q261.178 1063.34 258.724 1064.1 Q256.294 1064.87 253.516 1066.42 L253.516 1061.69 Q256.34 1060.56 258.794 1059.98 Q261.247 1059.4 263.284 1059.4 Q268.655 1059.4 271.849 1062.09 Q275.044 1064.77 275.044 1069.26 Q275.044 1071.39 274.233 1073.31 Q273.446 1075.21 271.34 1077.81 Q270.761 1078.48 267.659 1081.69 Q264.558 1084.89 258.909 1090.65 Z" fill="#000000" fill-rule="nonzero" fill-opacity="1" /><path clip-path="url(#clip590)" d="M415.33 1064.1 L403.525 1082.55 L415.33 1082.55 L415.33 1064.1 M414.103 1060.03 L419.983 1060.03 L419.983 1082.55 L424.914 1082.55 L424.914 1086.44 L419.983 1086.44 L419.983 1094.59 L415.33 1094.59 L415.33 1086.44 L399.728 1086.44 L399.728 1081.93 L414.103 1060.03 Z" fill="#000000" fill-rule="nonzero" fill-opacity="1" /><path clip-path="url(#clip590)" d="M560.79 1075.44 Q557.642 1075.44 555.79 1077.6 Q553.962 1079.75 553.962 1083.5 Q553.962 1087.23 555.79 1089.4 Q557.642 1091.56 560.79 1091.56 Q563.939 1091.56 565.767 1089.4 Q567.619 1087.23 567.619 1083.5 Q567.619 1079.75 565.767 1077.6 Q563.939 1075.44 560.79 1075.44 M570.073 1060.79 L570.073 1065.05 Q568.314 1064.22 566.508 1063.78 Q564.726 1063.34 562.966 1063.34 Q558.337 1063.34 555.883 1066.46 Q553.453 1069.59 553.105 1075.91 Q554.471 1073.89 556.531 1072.83 Q558.591 1071.74 561.068 1071.74 Q566.277 1071.74 569.286 1074.91 Q572.318 1078.06 572.318 1083.5 Q572.318 1088.82 569.17 1092.04 Q566.022 1095.26 560.79 1095.26 Q554.795 1095.26 551.624 1090.68 Q548.453 1086.07 548.453 1077.34 Q548.453 1069.15 552.341 1064.29 Q556.23 1059.4 562.781 1059.4 Q564.54 1059.4 566.323 1059.75 Q568.128 1060.1 570.073 1060.79 Z" fill="#000000" fill-rule="nonzero" fill-opacity="1" /><path clip-path="url(#clip590)" d="M708.45 1078.18 Q705.116 1078.18 703.195 1079.96 Q701.297 1081.74 701.297 1084.87 Q701.297 1087.99 703.195 1089.77 Q705.116 1091.56 708.45 1091.56 Q711.783 1091.56 713.704 1089.77 Q715.626 1087.97 715.626 1084.87 Q715.626 1081.74 713.704 1079.96 Q711.806 1078.18 708.45 1078.18 M703.774 1076.19 Q700.765 1075.44 699.075 1073.38 Q697.408 1071.32 697.408 1068.36 Q697.408 1064.22 700.348 1061.81 Q703.311 1059.4 708.45 1059.4 Q713.612 1059.4 716.552 1061.81 Q719.491 1064.22 719.491 1068.36 Q719.491 1071.32 717.802 1073.38 Q716.135 1075.44 713.149 1076.19 Q716.528 1076.97 718.403 1079.26 Q720.302 1081.56 720.302 1084.87 Q720.302 1089.89 717.223 1092.57 Q714.167 1095.26 708.45 1095.26 Q702.732 1095.26 699.653 1092.57 Q696.598 1089.89 696.598 1084.87 Q696.598 1081.56 698.496 1079.26 Q700.394 1076.97 703.774 1076.19 M702.061 1068.8 Q702.061 1071.49 703.728 1072.99 Q705.417 1074.5 708.45 1074.5 Q711.459 1074.5 713.149 1072.99 Q714.862 1071.49 714.862 1068.8 Q714.862 1066.12 713.149 1064.61 Q711.459 1063.11 708.45 1063.11 Q705.417 1063.11 703.728 1064.61 Q702.061 1066.12 702.061 1068.8 Z" fill="#000000" fill-rule="nonzero" fill-opacity="1" /><path clip-path="url(#clip590)" d="M831.202 1090.65 L838.841 1090.65 L838.841 1064.29 L830.53 1065.95 L830.53 1061.69 L838.794 1060.03 L843.47 1060.03 L843.47 1090.65 L851.109 1090.65 L851.109 1094.59 L831.202 1094.59 L831.202 1090.65 Z" fill="#000000" fill-rule="nonzero" fill-opacity="1" /><path clip-path="url(#clip590)" d="M870.553 1063.11 Q866.942 1063.11 865.114 1066.67 Q863.308 1070.21 863.308 1077.34 Q863.308 1084.45 865.114 1088.01 Q866.942 1091.56 870.553 1091.56 Q874.188 1091.56 875.993 1088.01 Q877.822 1084.45 877.822 1077.34 Q877.822 1070.21 875.993 1066.67 Q874.188 1063.11 870.553 1063.11 M870.553 1059.4 Q876.364 1059.4 879.419 1064.01 Q882.498 1068.59 882.498 1077.34 Q882.498 1086.07 879.419 1090.68 Q876.364 1095.26 870.553 1095.26 Q864.743 1095.26 861.665 1090.68 Q858.609 1086.07 858.609 1077.34 Q858.609 1068.59 861.665 1064.01 Q864.743 1059.4 870.553 1059.4 Z" fill="#000000" fill-rule="nonzero" fill-opacity="1" /><path clip-path="url(#clip590)" d="M500.675 1128.29 L500.675 1134.56 Q497.015 1132.81 493.768 1131.95 Q490.522 1131.09 487.498 1131.09 Q482.246 1131.09 479.382 1133.13 Q476.549 1135.17 476.549 1138.92 Q476.549 1142.07 478.427 1143.7 Q480.337 1145.29 485.62 1146.27 L489.503 1147.07 Q496.696 1148.44 500.102 1151.91 Q503.54 1155.35 503.54 1161.14 Q503.54 1168.05 498.893 1171.61 Q494.277 1175.17 485.334 1175.17 Q481.96 1175.17 478.14 1174.41 Q474.353 1173.65 470.279 1172.15 L470.279 1165.53 Q474.194 1167.73 477.949 1168.84 Q481.705 1169.95 485.334 1169.95 Q490.84 1169.95 493.832 1167.79 Q496.824 1165.63 496.824 1161.62 Q496.824 1158.11 494.659 1156.14 Q492.527 1154.17 487.625 1153.18 L483.71 1152.42 Q476.517 1150.99 473.302 1147.93 Q470.088 1144.87 470.088 1139.43 Q470.088 1133.13 474.512 1129.5 Q478.968 1125.87 486.766 1125.87 Q490.108 1125.87 493.577 1126.48 Q497.047 1127.08 500.675 1128.29 Z" fill="#000000" fill-rule="nonzero" fill-opacity="1" /><path clip-path="url(#clip590)" d="M519.104 1128.48 L519.104 1138.6 L531.167 1138.6 L531.167 1143.16 L519.104 1143.16 L519.104 1162.51 Q519.104 1166.87 520.281 1168.11 Q521.491 1169.35 525.151 1169.35 L531.167 1169.35 L531.167 1174.25 L525.151 1174.25 Q518.372 1174.25 515.794 1171.74 Q513.215 1169.19 513.215 1162.51 L513.215 1143.16 L508.919 1143.16 L508.919 1138.6 L513.215 1138.6 L513.215 1128.48 L519.104 1128.48 Z" fill="#000000" fill-rule="nonzero" fill-opacity="1" /><path clip-path="url(#clip590)" d="M555.07 1156.33 Q547.972 1156.33 545.235 1157.96 Q542.498 1159.58 542.498 1163.49 Q542.498 1166.61 544.535 1168.46 Q546.604 1170.27 550.137 1170.27 Q555.006 1170.27 557.935 1166.84 Q560.895 1163.37 560.895 1157.64 L560.895 1156.33 L555.07 1156.33 M566.751 1153.91 L566.751 1174.25 L560.895 1174.25 L560.895 1168.84 Q558.889 1172.09 555.898 1173.65 Q552.906 1175.17 548.577 1175.17 Q543.102 1175.17 539.856 1172.12 Q536.641 1169.03 536.641 1163.88 Q536.641 1157.86 540.652 1154.8 Q544.694 1151.75 552.683 1151.75 L560.895 1151.75 L560.895 1151.18 Q560.895 1147.13 558.221 1144.94 Q555.579 1142.71 550.773 1142.71 Q547.718 1142.71 544.821 1143.44 Q541.925 1144.17 539.251 1145.64 L539.251 1140.23 Q542.466 1138.99 545.49 1138.38 Q548.513 1137.74 551.378 1137.74 Q559.112 1137.74 562.932 1141.75 Q566.751 1145.77 566.751 1153.91 Z" fill="#000000" fill-rule="nonzero" fill-opacity="1" /><path clip-path="url(#clip590)" d="M602.272 1156.01 Q602.272 1149.65 599.63 1146.15 Q597.02 1142.65 592.278 1142.65 Q587.567 1142.65 584.925 1146.15 Q582.315 1149.65 582.315 1156.01 Q582.315 1162.35 584.925 1165.85 Q587.567 1169.35 592.278 1169.35 Q597.02 1169.35 599.63 1165.85 Q602.272 1162.35 602.272 1156.01 M608.128 1169.83 Q608.128 1178.93 604.086 1183.35 Q600.044 1187.81 591.705 1187.81 Q588.617 1187.81 585.88 1187.33 Q583.143 1186.89 580.565 1185.93 L580.565 1180.24 Q583.143 1181.64 585.657 1182.3 Q588.172 1182.97 590.782 1182.97 Q596.543 1182.97 599.407 1179.95 Q602.272 1176.96 602.272 1170.88 L602.272 1167.98 Q600.457 1171.13 597.625 1172.69 Q594.792 1174.25 590.845 1174.25 Q584.289 1174.25 580.278 1169.25 Q576.268 1164.26 576.268 1156.01 Q576.268 1147.74 580.278 1142.74 Q584.289 1137.74 590.845 1137.74 Q594.792 1137.74 597.625 1139.3 Q600.457 1140.86 602.272 1144.01 L602.272 1138.6 L608.128 1138.6 L608.128 1169.83 Z" fill="#000000" fill-rule="nonzero" fill-opacity="1" /><path clip-path="url(#clip590)" d="M650.683 1154.96 L650.683 1157.83 L623.756 1157.83 Q624.138 1163.88 627.384 1167.06 Q630.663 1170.21 636.487 1170.21 Q639.861 1170.21 643.012 1169.38 Q646.195 1168.55 649.314 1166.9 L649.314 1172.44 Q646.163 1173.77 642.853 1174.47 Q639.543 1175.17 636.137 1175.17 Q627.607 1175.17 622.61 1170.21 Q617.645 1165.24 617.645 1156.78 Q617.645 1148.03 622.356 1142.9 Q627.098 1137.74 635.119 1137.74 Q642.312 1137.74 646.482 1142.39 Q650.683 1147.01 650.683 1154.96 M644.826 1153.25 Q644.763 1148.44 642.121 1145.57 Q639.511 1142.71 635.182 1142.71 Q630.281 1142.71 627.321 1145.48 Q624.393 1148.25 623.947 1153.28 L644.826 1153.25 Z" fill="#000000" fill-rule="nonzero" fill-opacity="1" /><polyline clip-path="url(#clip590)" style="stroke:#000000; stroke-linecap:round; stroke-linejoin:round; stroke-width:4; stroke-opacity:1; fill:none" points="168.015,1035.39 168.015,117.424 "/>
<polyline clip-path="url(#clip590)" style="stroke:#000000; stroke-linecap:round; stroke-linejoin:round; stroke-width:4; stroke-opacity:1; fill:none" points="168.015,1009.41 186.912,1009.41 "/>
<polyline clip-path="url(#clip590)" style="stroke:#000000; stroke-linecap:round; stroke-linejoin:round; stroke-width:4; stroke-opacity:1; fill:none" points="168.015,783.095 186.912,783.095 "/>
<polyline clip-path="url(#clip590)" style="stroke:#000000; stroke-linecap:round; stroke-linejoin:round; stroke-width:4; stroke-opacity:1; fill:none" points="168.015,556.782 186.912,556.782 "/>
<polyline clip-path="url(#clip590)" style="stroke:#000000; stroke-linecap:round; stroke-linejoin:round; stroke-width:4; stroke-opacity:1; fill:none" points="168.015,330.47 186.912,330.47 "/>
<path clip-path="url(#clip590)" d="M126.07 995.206 Q122.459 995.206 120.631 998.771 Q118.825 1002.31 118.825 1009.44 Q118.825 1016.55 120.631 1020.11 Q122.459 1023.66 126.07 1023.66 Q129.705 1023.66 131.51 1020.11 Q133.339 1016.55 133.339 1009.44 Q133.339 1002.31 131.51 998.771 Q129.705 995.206 126.07 995.206 M126.07 991.503 Q131.881 991.503 134.936 996.109 Q138.015 1000.69 138.015 1009.44 Q138.015 1018.17 134.936 1022.78 Q131.881 1027.36 126.07 1027.36 Q120.26 1027.36 117.182 1022.78 Q114.126 1018.17 114.126 1009.44 Q114.126 1000.69 117.182 996.109 Q120.26 991.503 126.07 991.503 Z" fill="#000000" fill-rule="nonzero" fill-opacity="1" /><path clip-path="url(#clip590)" d="M59.7745 796.44 L76.0939 796.44 L76.0939 800.375 L54.1495 800.375 L54.1495 796.44 Q56.8115 793.685 61.3949 789.056 Q66.0013 784.403 67.1819 783.06 Q69.4272 780.537 70.3068 778.801 Q71.2096 777.042 71.2096 775.352 Q71.2096 772.597 69.2652 770.861 Q67.3439 769.125 64.2421 769.125 Q62.043 769.125 59.5893 769.889 Q57.1588 770.653 54.381 772.204 L54.381 767.482 Q57.2051 766.347 59.6588 765.769 Q62.1124 765.19 64.1495 765.19 Q69.5198 765.19 72.7142 767.875 Q75.9087 770.56 75.9087 775.051 Q75.9087 777.181 75.0985 779.102 Q74.3115 781 72.205 783.593 Q71.6263 784.264 68.5245 787.482 Q65.4226 790.676 59.7745 796.44 Z" fill="#000000" fill-rule="nonzero" fill-opacity="1" /><path clip-path="url(#clip590)" d="M95.9086 768.894 Q92.2975 768.894 90.4688 772.459 Q88.6632 776 88.6632 783.13 Q88.6632 790.236 90.4688 793.801 Q92.2975 797.343 95.9086 797.343 Q99.5428 797.343 101.348 793.801 Q103.177 790.236 103.177 783.13 Q103.177 776 101.348 772.459 Q99.5428 768.894 95.9086 768.894 M95.9086 765.19 Q101.719 765.19 104.774 769.797 Q107.853 774.38 107.853 783.13 Q107.853 791.857 104.774 796.463 Q101.719 801.046 95.9086 801.046 Q90.0984 801.046 87.0197 796.463 Q83.9642 791.857 83.9642 783.13 Q83.9642 774.38 87.0197 769.797 Q90.0984 765.19 95.9086 765.19 Z" fill="#000000" fill-rule="nonzero" fill-opacity="1" /><path clip-path="url(#clip590)" d="M126.07 768.894 Q122.459 768.894 120.631 772.459 Q118.825 776 118.825 783.13 Q118.825 790.236 120.631 793.801 Q122.459 797.343 126.07 797.343 Q129.705 797.343 131.51 793.801 Q133.339 790.236 133.339 783.13 Q133.339 776 131.51 772.459 Q129.705 768.894 126.07 768.894 M126.07 765.19 Q131.881 765.19 134.936 769.797 Q138.015 774.38 138.015 783.13 Q138.015 791.857 134.936 796.463 Q131.881 801.046 126.07 801.046 Q120.26 801.046 117.182 796.463 Q114.126 791.857 114.126 783.13 Q114.126 774.38 117.182 769.797 Q120.26 765.19 126.07 765.19 Z" fill="#000000" fill-rule="nonzero" fill-opacity="1" /><path clip-path="url(#clip590)" d="M68.5939 543.576 L56.7884 562.025 L68.5939 562.025 L68.5939 543.576 M67.367 539.502 L73.2466 539.502 L73.2466 562.025 L78.1772 562.025 L78.1772 565.914 L73.2466 565.914 L73.2466 574.062 L68.5939 574.062 L68.5939 565.914 L52.9921 565.914 L52.9921 561.4 L67.367 539.502 Z" fill="#000000" fill-rule="nonzero" fill-opacity="1" /><path clip-path="url(#clip590)" d="M95.9086 542.581 Q92.2975 542.581 90.4688 546.146 Q88.6632 549.688 88.6632 556.817 Q88.6632 563.924 90.4688 567.488 Q92.2975 571.03 95.9086 571.03 Q99.5428 571.03 101.348 567.488 Q103.177 563.924 103.177 556.817 Q103.177 549.688 101.348 546.146 Q99.5428 542.581 95.9086 542.581 M95.9086 538.877 Q101.719 538.877 104.774 543.484 Q107.853 548.067 107.853 556.817 Q107.853 565.544 104.774 570.15 Q101.719 574.734 95.9086 574.734 Q90.0984 574.734 87.0197 570.15 Q83.9642 565.544 83.9642 556.817 Q83.9642 548.067 87.0197 543.484 Q90.0984 538.877 95.9086 538.877 Z" fill="#000000" fill-rule="nonzero" fill-opacity="1" /><path clip-path="url(#clip590)" d="M126.07 542.581 Q122.459 542.581 120.631 546.146 Q118.825 549.688 118.825 556.817 Q118.825 563.924 120.631 567.488 Q122.459 571.03 126.07 571.03 Q129.705 571.03 131.51 567.488 Q133.339 563.924 133.339 556.817 Q133.339 549.688 131.51 546.146 Q129.705 542.581 126.07 542.581 M126.07 538.877 Q131.881 538.877 134.936 543.484 Q138.015 548.067 138.015 556.817 Q138.015 565.544 134.936 570.15 Q131.881 574.734 126.07 574.734 Q120.26 574.734 117.182 570.15 Q114.126 565.544 114.126 556.817 Q114.126 548.067 117.182 543.484 Q120.26 538.877 126.07 538.877 Z" fill="#000000" fill-rule="nonzero" fill-opacity="1" /><path clip-path="url(#clip590)" d="M66.3254 328.606 Q63.1773 328.606 61.3254 330.759 Q59.4967 332.912 59.4967 336.662 Q59.4967 340.389 61.3254 342.565 Q63.1773 344.717 66.3254 344.717 Q69.4735 344.717 71.3022 342.565 Q73.1541 340.389 73.1541 336.662 Q73.1541 332.912 71.3022 330.759 Q69.4735 328.606 66.3254 328.606 M75.6077 313.954 L75.6077 318.213 Q73.8485 317.38 72.0429 316.94 Q70.2606 316.5 68.5013 316.5 Q63.8717 316.5 61.418 319.625 Q58.9875 322.75 58.6402 329.069 Q60.006 327.055 62.0662 325.991 Q64.1263 324.903 66.6032 324.903 Q71.8115 324.903 74.8207 328.074 Q77.8531 331.222 77.8531 336.662 Q77.8531 341.986 74.705 345.203 Q71.5568 348.421 66.3254 348.421 Q60.33 348.421 57.1588 343.838 Q53.9875 339.231 53.9875 330.504 Q53.9875 322.31 57.8764 317.449 Q61.7652 312.565 68.3161 312.565 Q70.0754 312.565 71.8578 312.912 Q73.6633 313.259 75.6077 313.954 Z" fill="#000000" fill-rule="nonzero" fill-opacity="1" /><path clip-path="url(#clip590)" d="M95.9086 316.268 Q92.2975 316.268 90.4688 319.833 Q88.6632 323.375 88.6632 330.504 Q88.6632 337.611 90.4688 341.176 Q92.2975 344.717 95.9086 344.717 Q99.5428 344.717 101.348 341.176 Q103.177 337.611 103.177 330.504 Q103.177 323.375 101.348 319.833 Q99.5428 316.268 95.9086 316.268 M95.9086 312.565 Q101.719 312.565 104.774 317.171 Q107.853 321.755 107.853 330.504 Q107.853 339.231 104.774 343.838 Q101.719 348.421 95.9086 348.421 Q90.0984 348.421 87.0197 343.838 Q83.9642 339.231 83.9642 330.504 Q83.9642 321.755 87.0197 317.171 Q90.0984 312.565 95.9086 312.565 Z" fill="#000000" fill-rule="nonzero" fill-opacity="1" /><path clip-path="url(#clip590)" d="M126.07 316.268 Q122.459 316.268 120.631 319.833 Q118.825 323.375 118.825 330.504 Q118.825 337.611 120.631 341.176 Q122.459 344.717 126.07 344.717 Q129.705 344.717 131.51 341.176 Q133.339 337.611 133.339 330.504 Q133.339 323.375 131.51 319.833 Q129.705 316.268 126.07 316.268 M126.07 312.565 Q131.881 312.565 134.936 317.171 Q138.015 321.755 138.015 330.504 Q138.015 339.231 134.936 343.838 Q131.881 348.421 126.07 348.421 Q120.26 348.421 117.182 343.838 Q114.126 339.231 114.126 330.504 Q114.126 321.755 117.182 317.171 Q120.26 312.565 126.07 312.565 Z" fill="#000000" fill-rule="nonzero" fill-opacity="1" /><path clip-path="url(#clip590)" d="M287.8 27.2059 L271.394 49.2833 L288.651 72.576 L279.86 72.576 L266.654 54.752 L253.448 72.576 L244.658 72.576 L262.279 48.8377 L246.157 27.2059 L254.947 27.2059 L266.978 43.369 L279.01 27.2059 L287.8 27.2059 Z" fill="#000000" fill-rule="nonzero" fill-opacity="1" /><path clip-path="url(#clip590)" d="M333.656 86.3491 L333.656 92.1419 L290.555 92.1419 L290.555 86.3491 L333.656 86.3491 Z" fill="#000000" fill-rule="nonzero" fill-opacity="1" /><path clip-path="url(#clip590)" d="M340.664 27.2059 L348.118 27.2059 L348.118 72.576 L340.664 72.576 L340.664 27.2059 M340.664 9.54393 L348.118 9.54393 L348.118 18.9825 L340.664 18.9825 L340.664 9.54393 Z" fill="#000000" fill-rule="nonzero" fill-opacity="1" /><path clip-path="url(#clip590)" d="M401.428 45.1919 L401.428 72.576 L393.974 72.576 L393.974 45.4349 Q393.974 38.994 391.463 35.7938 Q388.951 32.5936 383.928 32.5936 Q377.892 32.5936 374.408 36.4419 Q370.925 40.2903 370.925 46.9338 L370.925 72.576 L363.43 72.576 L363.43 27.2059 L370.925 27.2059 L370.925 34.2544 Q373.598 30.163 377.203 28.1376 Q380.849 26.1121 385.589 26.1121 Q393.407 26.1121 397.417 30.9732 Q401.428 35.7938 401.428 45.1919 Z" fill="#000000" fill-rule="nonzero" fill-opacity="1" /><path clip-path="url(#clip590)" d="M410.948 27.2059 L418.847 27.2059 L433.025 65.2844 L447.203 27.2059 L455.102 27.2059 L438.089 72.576 L427.961 72.576 L410.948 27.2059 Z" fill="#000000" fill-rule="nonzero" fill-opacity="1" /><path clip-path="url(#clip590)" d="M504.199 48.0275 L504.199 51.6733 L469.929 51.6733 Q470.415 59.3701 474.547 63.421 Q478.719 67.4314 486.132 67.4314 Q490.426 67.4314 494.437 66.3781 Q498.488 65.3249 502.457 63.2184 L502.457 70.267 Q498.447 71.9684 494.234 72.8596 Q490.021 73.7508 485.687 73.7508 Q474.83 73.7508 468.47 67.4314 Q462.151 61.1119 462.151 50.3365 Q462.151 39.1965 468.146 32.6746 Q474.182 26.1121 484.39 26.1121 Q493.545 26.1121 498.852 32.0264 Q504.199 37.9003 504.199 48.0275 M496.746 45.84 Q496.665 39.7232 493.302 36.0774 Q489.981 32.4315 484.471 32.4315 Q478.233 32.4315 474.466 35.9558 Q470.739 39.4801 470.172 45.8805 L496.746 45.84 Z" fill="#000000" fill-rule="nonzero" fill-opacity="1" /><path clip-path="url(#clip590)" d="M554.147 45.1919 L554.147 72.576 L546.693 72.576 L546.693 45.4349 Q546.693 38.994 544.182 35.7938 Q541.67 32.5936 536.647 32.5936 Q530.611 32.5936 527.127 36.4419 Q523.644 40.2903 523.644 46.9338 L523.644 72.576 L516.149 72.576 L516.149 27.2059 L523.644 27.2059 L523.644 34.2544 Q526.317 30.163 529.923 28.1376 Q533.568 26.1121 538.308 26.1121 Q546.126 26.1121 550.137 30.9732 Q554.147 35.7938 554.147 45.1919 Z" fill="#000000" fill-rule="nonzero" fill-opacity="1" /><path clip-path="url(#clip590)" d="M576.386 14.324 L576.386 27.2059 L591.739 27.2059 L591.739 32.9987 L576.386 32.9987 L576.386 57.6282 Q576.386 63.1779 577.885 64.7578 Q579.425 66.3376 584.083 66.3376 L591.739 66.3376 L591.739 72.576 L584.083 72.576 Q575.455 72.576 572.173 69.3758 Q568.892 66.1351 568.892 57.6282 L568.892 32.9987 L563.424 32.9987 L563.424 27.2059 L568.892 27.2059 L568.892 14.324 L576.386 14.324 Z" fill="#000000" fill-rule="nonzero" fill-opacity="1" /><path clip-path="url(#clip590)" d="M619.123 32.4315 Q613.128 32.4315 609.644 37.1306 Q606.161 41.7891 606.161 49.9314 Q606.161 58.0738 609.604 62.7728 Q613.088 67.4314 619.123 67.4314 Q625.078 67.4314 628.562 62.7323 Q632.046 58.0333 632.046 49.9314 Q632.046 41.8701 628.562 37.1711 Q625.078 32.4315 619.123 32.4315 M619.123 26.1121 Q628.846 26.1121 634.395 32.4315 Q639.945 38.7509 639.945 49.9314 Q639.945 61.0714 634.395 67.4314 Q628.846 73.7508 619.123 73.7508 Q609.361 73.7508 603.811 67.4314 Q598.302 61.0714 598.302 49.9314 Q598.302 38.7509 603.811 32.4315 Q609.361 26.1121 619.123 26.1121 Z" fill="#000000" fill-rule="nonzero" fill-opacity="1" /><path clip-path="url(#clip590)" d="M678.591 34.1734 Q677.335 33.4443 675.836 33.1202 Q674.378 32.7556 672.595 32.7556 Q666.276 32.7556 662.873 36.8875 Q659.511 40.9789 659.511 48.6757 L659.511 72.576 L652.017 72.576 L652.017 27.2059 L659.511 27.2059 L659.511 34.2544 Q661.861 30.1225 665.628 28.1376 Q669.395 26.1121 674.783 26.1121 Q675.553 26.1121 676.484 26.2337 Q677.416 26.3147 678.55 26.5172 L678.591 34.1734 Z" fill="#000000" fill-rule="nonzero" fill-opacity="1" /><path clip-path="url(#clip590)" d="M705.286 76.7889 Q702.127 84.8907 699.129 87.3618 Q696.131 89.8329 691.108 89.8329 L685.153 89.8329 L685.153 83.5945 L689.528 83.5945 Q692.607 83.5945 694.308 82.1361 Q696.01 80.6778 698.076 75.2496 L699.412 71.8468 L681.062 27.2059 L688.961 27.2059 L703.139 62.6918 L717.317 27.2059 L725.217 27.2059 L705.286 76.7889 Z" fill="#000000" fill-rule="nonzero" fill-opacity="1" /><path clip-path="url(#clip590)" d="M724.731 62.2867 L733.278 62.2867 L733.278 72.576 L724.731 72.576 L724.731 62.2867 Z" fill="#000000" fill-rule="nonzero" fill-opacity="1" /><path clip-path="url(#clip590)" d="M767.63 32.4315 Q761.634 32.4315 758.151 37.1306 Q754.667 41.7891 754.667 49.9314 Q754.667 58.0738 758.11 62.7728 Q761.594 67.4314 767.63 67.4314 Q773.584 67.4314 777.068 62.7323 Q780.552 58.0333 780.552 49.9314 Q780.552 41.8701 777.068 37.1711 Q773.584 32.4315 767.63 32.4315 M767.63 26.1121 Q777.352 26.1121 782.902 32.4315 Q788.451 38.7509 788.451 49.9314 Q788.451 61.0714 782.902 67.4314 Q777.352 73.7508 767.63 73.7508 Q757.867 73.7508 752.317 67.4314 Q746.808 61.0714 746.808 49.9314 Q746.808 38.7509 752.317 32.4315 Q757.867 26.1121 767.63 26.1121 Z" fill="#000000" fill-rule="nonzero" fill-opacity="1" /><path clip-path="url(#clip590)" d="M800.037 54.671 L800.037 27.2059 L807.491 27.2059 L807.491 54.3874 Q807.491 60.8284 810.002 64.0691 Q812.514 67.2693 817.537 67.2693 Q823.573 67.2693 827.056 63.421 Q830.581 59.5726 830.581 52.9291 L830.581 27.2059 L838.034 27.2059 L838.034 72.576 L830.581 72.576 L830.581 65.6084 Q827.867 69.7404 824.261 71.7658 Q820.696 73.7508 815.957 73.7508 Q808.139 73.7508 804.088 68.8897 Q800.037 64.0286 800.037 54.671 M818.793 26.1121 L818.793 26.1121 Z" fill="#000000" fill-rule="nonzero" fill-opacity="1" /><path clip-path="url(#clip590)" d="M860.76 14.324 L860.76 27.2059 L876.113 27.2059 L876.113 32.9987 L860.76 32.9987 L860.76 57.6282 Q860.76 63.1779 862.259 64.7578 Q863.798 66.3376 868.457 66.3376 L876.113 66.3376 L876.113 72.576 L868.457 72.576 Q859.828 72.576 856.547 69.3758 Q853.266 66.1351 853.266 57.6282 L853.266 32.9987 L847.797 32.9987 L847.797 27.2059 L853.266 27.2059 L853.266 14.324 L860.76 14.324 Z" fill="#000000" fill-rule="nonzero" fill-opacity="1" /><path clip-path="url(#clip592)" d="M190.224 896.251 L264.257 1009.41 L338.289 1009.41 L412.321 1009.41 L486.353 1009.41 L560.385 1009.41 L634.418 1009.41 L708.45 1009.41 L782.482 1009.41 L856.514 1009.41 L930.546 1009.41 L930.546 516.629 L856.514 406.24 L782.482 232.867 L708.45 154.005 L634.418 143.404 L560.385 143.404 L486.353 143.404 L412.321 143.404 L338.289 143.404 L264.257 143.404 L190.224 896.251  Z" fill="#00467f" fill-rule="evenodd" fill-opacity="0.2"/>
<polyline clip-path="url(#clip592)" style="stroke:#00467f; stroke-linecap:round; stroke-linejoin:round; stroke-width:4; stroke-opacity:0; fill:none" points="190.224,896.251 264.257,576.406 338.289,576.406 412.321,576.406 486.353,576.406 560.385,576.406 634.418,576.406 708.45,581.706 782.482,621.138 856.514,707.824 930.546,763.018 "/>
<path clip-path="url(#clip592)" d="M190.224 896.251 L264.257 983.825 L338.289 983.825 L412.321 1009.41 L486.353 1009.41 L560.385 983.825 L634.418 986.384 L708.45 1009.41 L782.482 1009.41 L856.514 1009.41 L930.546 1009.41 L930.546 1009.41 L856.514 875.083 L782.482 492.57 L708.45 297.519 L634.418 218.657 L560.385 143.404 L486.353 218.657 L412.321 218.657 L338.289 218.657 L264.257 218.657 L190.224 896.251  Z" fill="#00467f" fill-rule="evenodd" fill-opacity="0.2"/>
<polyline clip-path="url(#clip592)" style="stroke:#00467f; stroke-linecap:round; stroke-linejoin:round; stroke-width:4; stroke-opacity:0; fill:none" points="190.224,896.251 264.257,601.241 338.289,601.241 412.321,614.032 486.353,614.032 560.385,563.615 634.418,602.52 708.45,653.464 782.482,750.989 856.514,942.246 930.546,1009.41 "/>
<path clip-path="url(#clip592)" d="M190.224 896.251 L264.257 930.545 L338.289 930.545 L412.321 930.545 L486.353 930.545 L560.385 930.545 L634.418 930.545 L708.45 994.426 L782.482 1009.41 L856.514 1009.41 L930.546 1009.41 L930.546 1009.41 L856.514 1009.41 L782.482 776.963 L708.45 309.787 L634.418 230.924 L560.385 230.924 L486.353 230.924 L412.321 230.924 L338.289 230.924 L264.257 294.421 L190.224 896.251  Z" fill="#00467f" fill-rule="evenodd" fill-opacity="0.2"/>
<polyline clip-path="url(#clip592)" style="stroke:#00467f; stroke-linecap:round; stroke-linejoin:round; stroke-width:4; stroke-opacity:0; fill:none" points="190.224,896.251 264.257,612.483 338.289,580.735 412.321,580.735 486.353,580.735 560.385,580.735 634.418,580.735 708.45,652.106 782.482,893.185 856.514,1009.41 930.546,1009.41 "/>
<polyline clip-path="url(#clip592)" style="stroke:#00467f; stroke-linecap:round; stroke-linejoin:round; stroke-width:4; stroke-opacity:1; fill:none" points="190.224,896.251 264.257,744.784 338.289,744.784 412.321,375.849 486.353,744.784 560.385,744.784 634.418,375.849 708.45,823.646 782.482,1009.41 856.514,1009.41 930.546,1009.41 "/>
<path clip-path="url(#clip590)" d="M1168.01 1035.39 L1952.76 1035.39 L1952.76 117.424 L1168.01 117.424  Z" fill="#ffffff" fill-rule="evenodd" fill-opacity="1"/>
<defs>
  <clipPath id="clip593">
    <rect x="1168" y="117" width="786" height="919"/>
  </clipPath>
</defs>
<polyline clip-path="url(#clip593)" style="stroke:#000000; stroke-linecap:round; stroke-linejoin:round; stroke-width:2; stroke-opacity:0.1; fill:none" points="1264.26,1035.39 1264.26,117.424 "/>
<polyline clip-path="url(#clip593)" style="stroke:#000000; stroke-linecap:round; stroke-linejoin:round; stroke-width:2; stroke-opacity:0.1; fill:none" points="1412.32,1035.39 1412.32,117.424 "/>
<polyline clip-path="url(#clip593)" style="stroke:#000000; stroke-linecap:round; stroke-linejoin:round; stroke-width:2; stroke-opacity:0.1; fill:none" points="1560.39,1035.39 1560.39,117.424 "/>
<polyline clip-path="url(#clip593)" style="stroke:#000000; stroke-linecap:round; stroke-linejoin:round; stroke-width:2; stroke-opacity:0.1; fill:none" points="1708.45,1035.39 1708.45,117.424 "/>
<polyline clip-path="url(#clip593)" style="stroke:#000000; stroke-linecap:round; stroke-linejoin:round; stroke-width:2; stroke-opacity:0.1; fill:none" points="1856.51,1035.39 1856.51,117.424 "/>
<polyline clip-path="url(#clip593)" style="stroke:#000000; stroke-linecap:round; stroke-linejoin:round; stroke-width:2; stroke-opacity:0.1; fill:none" points="1168.01,1009.41 1952.76,1009.41 "/>
<polyline clip-path="url(#clip593)" style="stroke:#000000; stroke-linecap:round; stroke-linejoin:round; stroke-width:2; stroke-opacity:0.1; fill:none" points="1168.01,785.832 1952.76,785.832 "/>
<polyline clip-path="url(#clip593)" style="stroke:#000000; stroke-linecap:round; stroke-linejoin:round; stroke-width:2; stroke-opacity:0.1; fill:none" points="1168.01,562.256 1952.76,562.256 "/>
<polyline clip-path="url(#clip593)" style="stroke:#000000; stroke-linecap:round; stroke-linejoin:round; stroke-width:2; stroke-opacity:0.1; fill:none" points="1168.01,338.68 1952.76,338.68 "/>
<polyline clip-path="url(#clip590)" style="stroke:#000000; stroke-linecap:round; stroke-linejoin:round; stroke-width:4; stroke-opacity:1; fill:none" points="1168.01,1035.39 1952.76,1035.39 "/>
<polyline clip-path="url(#clip590)" style="stroke:#000000; stroke-linecap:round; stroke-linejoin:round; stroke-width:4; stroke-opacity:1; fill:none" points="1264.26,1035.39 1264.26,1016.49 "/>
<polyline clip-path="url(#clip590)" style="stroke:#000000; stroke-linecap:round; stroke-linejoin:round; stroke-width:4; stroke-opacity:1; fill:none" points="1412.32,1035.39 1412.32,1016.49 "/>
<polyline clip-path="url(#clip590)" style="stroke:#000000; stroke-linecap:round; stroke-linejoin:round; stroke-width:4; stroke-opacity:1; fill:none" points="1560.39,1035.39 1560.39,1016.49 "/>
<polyline clip-path="url(#clip590)" style="stroke:#000000; stroke-linecap:round; stroke-linejoin:round; stroke-width:4; stroke-opacity:1; fill:none" points="1708.45,1035.39 1708.45,1016.49 "/>
<polyline clip-path="url(#clip590)" style="stroke:#000000; stroke-linecap:round; stroke-linejoin:round; stroke-width:4; stroke-opacity:1; fill:none" points="1856.51,1035.39 1856.51,1016.49 "/>
<path clip-path="url(#clip590)" d="M1258.91 1090.65 L1275.23 1090.65 L1275.23 1094.59 L1253.28 1094.59 L1253.28 1090.65 Q1255.95 1087.9 1260.53 1083.27 Q1265.14 1078.62 1266.32 1077.27 Q1268.56 1074.75 1269.44 1073.01 Q1270.34 1071.25 1270.34 1069.56 Q1270.34 1066.81 1268.4 1065.07 Q1266.48 1063.34 1263.38 1063.34 Q1261.18 1063.34 1258.72 1064.1 Q1256.29 1064.87 1253.52 1066.42 L1253.52 1061.69 Q1256.34 1060.56 1258.79 1059.98 Q1261.25 1059.4 1263.28 1059.4 Q1268.65 1059.4 1271.85 1062.09 Q1275.04 1064.77 1275.04 1069.26 Q1275.04 1071.39 1274.23 1073.31 Q1273.45 1075.21 1271.34 1077.81 Q1270.76 1078.48 1267.66 1081.69 Q1264.56 1084.89 1258.91 1090.65 Z" fill="#000000" fill-rule="nonzero" fill-opacity="1" /><path clip-path="url(#clip590)" d="M1415.33 1064.1 L1403.52 1082.55 L1415.33 1082.55 L1415.33 1064.1 M1414.1 1060.03 L1419.98 1060.03 L1419.98 1082.55 L1424.91 1082.55 L1424.91 1086.44 L1419.98 1086.44 L1419.98 1094.59 L1415.33 1094.59 L1415.33 1086.44 L1399.73 1086.44 L1399.73 1081.93 L1414.1 1060.03 Z" fill="#000000" fill-rule="nonzero" fill-opacity="1" /><path clip-path="url(#clip590)" d="M1560.79 1075.44 Q1557.64 1075.44 1555.79 1077.6 Q1553.96 1079.75 1553.96 1083.5 Q1553.96 1087.23 1555.79 1089.4 Q1557.64 1091.56 1560.79 1091.56 Q1563.94 1091.56 1565.77 1089.4 Q1567.62 1087.23 1567.62 1083.5 Q1567.62 1079.75 1565.77 1077.6 Q1563.94 1075.44 1560.79 1075.44 M1570.07 1060.79 L1570.07 1065.05 Q1568.31 1064.22 1566.51 1063.78 Q1564.73 1063.34 1562.97 1063.34 Q1558.34 1063.34 1555.88 1066.46 Q1553.45 1069.59 1553.11 1075.91 Q1554.47 1073.89 1556.53 1072.83 Q1558.59 1071.74 1561.07 1071.74 Q1566.28 1071.74 1569.29 1074.91 Q1572.32 1078.06 1572.32 1083.5 Q1572.32 1088.82 1569.17 1092.04 Q1566.02 1095.26 1560.79 1095.26 Q1554.8 1095.26 1551.62 1090.68 Q1548.45 1086.07 1548.45 1077.34 Q1548.45 1069.15 1552.34 1064.29 Q1556.23 1059.4 1562.78 1059.4 Q1564.54 1059.4 1566.32 1059.75 Q1568.13 1060.1 1570.07 1060.79 Z" fill="#000000" fill-rule="nonzero" fill-opacity="1" /><path clip-path="url(#clip590)" d="M1708.45 1078.18 Q1705.12 1078.18 1703.2 1079.96 Q1701.3 1081.74 1701.3 1084.87 Q1701.3 1087.99 1703.2 1089.77 Q1705.12 1091.56 1708.45 1091.56 Q1711.78 1091.56 1713.7 1089.77 Q1715.63 1087.97 1715.63 1084.87 Q1715.63 1081.74 1713.7 1079.96 Q1711.81 1078.18 1708.45 1078.18 M1703.77 1076.19 Q1700.76 1075.44 1699.07 1073.38 Q1697.41 1071.32 1697.41 1068.36 Q1697.41 1064.22 1700.35 1061.81 Q1703.31 1059.4 1708.45 1059.4 Q1713.61 1059.4 1716.55 1061.81 Q1719.49 1064.22 1719.49 1068.36 Q1719.49 1071.32 1717.8 1073.38 Q1716.13 1075.44 1713.15 1076.19 Q1716.53 1076.97 1718.4 1079.26 Q1720.3 1081.56 1720.3 1084.87 Q1720.3 1089.89 1717.22 1092.57 Q1714.17 1095.26 1708.45 1095.26 Q1702.73 1095.26 1699.65 1092.57 Q1696.6 1089.89 1696.6 1084.87 Q1696.6 1081.56 1698.5 1079.26 Q1700.39 1076.97 1703.77 1076.19 M1702.06 1068.8 Q1702.06 1071.49 1703.73 1072.99 Q1705.42 1074.5 1708.45 1074.5 Q1711.46 1074.5 1713.15 1072.99 Q1714.86 1071.49 1714.86 1068.8 Q1714.86 1066.12 1713.15 1064.61 Q1711.46 1063.11 1708.45 1063.11 Q1705.42 1063.11 1703.73 1064.61 Q1702.06 1066.12 1702.06 1068.8 Z" fill="#000000" fill-rule="nonzero" fill-opacity="1" /><path clip-path="url(#clip590)" d="M1831.2 1090.65 L1838.84 1090.65 L1838.84 1064.29 L1830.53 1065.95 L1830.53 1061.69 L1838.79 1060.03 L1843.47 1060.03 L1843.47 1090.65 L1851.11 1090.65 L1851.11 1094.59 L1831.2 1094.59 L1831.2 1090.65 Z" fill="#000000" fill-rule="nonzero" fill-opacity="1" /><path clip-path="url(#clip590)" d="M1870.55 1063.11 Q1866.94 1063.11 1865.11 1066.67 Q1863.31 1070.21 1863.31 1077.34 Q1863.31 1084.45 1865.11 1088.01 Q1866.94 1091.56 1870.55 1091.56 Q1874.19 1091.56 1875.99 1088.01 Q1877.82 1084.45 1877.82 1077.34 Q1877.82 1070.21 1875.99 1066.67 Q1874.19 1063.11 1870.55 1063.11 M1870.55 1059.4 Q1876.36 1059.4 1879.42 1064.01 Q1882.5 1068.59 1882.5 1077.34 Q1882.5 1086.07 1879.42 1090.68 Q1876.36 1095.26 1870.55 1095.26 Q1864.74 1095.26 1861.66 1090.68 Q1858.61 1086.07 1858.61 1077.34 Q1858.61 1068.59 1861.66 1064.01 Q1864.74 1059.4 1870.55 1059.4 Z" fill="#000000" fill-rule="nonzero" fill-opacity="1" /><path clip-path="url(#clip590)" d="M1500.68 1128.29 L1500.68 1134.56 Q1497.01 1132.81 1493.77 1131.95 Q1490.52 1131.09 1487.5 1131.09 Q1482.25 1131.09 1479.38 1133.13 Q1476.55 1135.17 1476.55 1138.92 Q1476.55 1142.07 1478.43 1143.7 Q1480.34 1145.29 1485.62 1146.27 L1489.5 1147.07 Q1496.7 1148.44 1500.1 1151.91 Q1503.54 1155.35 1503.54 1161.14 Q1503.54 1168.05 1498.89 1171.61 Q1494.28 1175.17 1485.33 1175.17 Q1481.96 1175.17 1478.14 1174.41 Q1474.35 1173.65 1470.28 1172.15 L1470.28 1165.53 Q1474.19 1167.73 1477.95 1168.84 Q1481.71 1169.95 1485.33 1169.95 Q1490.84 1169.95 1493.83 1167.79 Q1496.82 1165.63 1496.82 1161.62 Q1496.82 1158.11 1494.66 1156.14 Q1492.53 1154.17 1487.63 1153.18 L1483.71 1152.42 Q1476.52 1150.99 1473.3 1147.93 Q1470.09 1144.87 1470.09 1139.43 Q1470.09 1133.13 1474.51 1129.5 Q1478.97 1125.87 1486.77 1125.87 Q1490.11 1125.87 1493.58 1126.48 Q1497.05 1127.08 1500.68 1128.29 Z" fill="#000000" fill-rule="nonzero" fill-opacity="1" /><path clip-path="url(#clip590)" d="M1519.1 1128.48 L1519.1 1138.6 L1531.17 1138.6 L1531.17 1143.16 L1519.1 1143.16 L1519.1 1162.51 Q1519.1 1166.87 1520.28 1168.11 Q1521.49 1169.35 1525.15 1169.35 L1531.17 1169.35 L1531.17 1174.25 L1525.15 1174.25 Q1518.37 1174.25 1515.79 1171.74 Q1513.22 1169.19 1513.22 1162.51 L1513.22 1143.16 L1508.92 1143.16 L1508.92 1138.6 L1513.22 1138.6 L1513.22 1128.48 L1519.1 1128.48 Z" fill="#000000" fill-rule="nonzero" fill-opacity="1" /><path clip-path="url(#clip590)" d="M1555.07 1156.33 Q1547.97 1156.33 1545.23 1157.96 Q1542.5 1159.58 1542.5 1163.49 Q1542.5 1166.61 1544.53 1168.46 Q1546.6 1170.27 1550.14 1170.27 Q1555.01 1170.27 1557.93 1166.84 Q1560.89 1163.37 1560.89 1157.64 L1560.89 1156.33 L1555.07 1156.33 M1566.75 1153.91 L1566.75 1174.25 L1560.89 1174.25 L1560.89 1168.84 Q1558.89 1172.09 1555.9 1173.65 Q1552.91 1175.17 1548.58 1175.17 Q1543.1 1175.17 1539.86 1172.12 Q1536.64 1169.03 1536.64 1163.88 Q1536.64 1157.86 1540.65 1154.8 Q1544.69 1151.75 1552.68 1151.75 L1560.89 1151.75 L1560.89 1151.18 Q1560.89 1147.13 1558.22 1144.94 Q1555.58 1142.71 1550.77 1142.71 Q1547.72 1142.71 1544.82 1143.44 Q1541.92 1144.17 1539.25 1145.64 L1539.25 1140.23 Q1542.47 1138.99 1545.49 1138.38 Q1548.51 1137.74 1551.38 1137.74 Q1559.11 1137.74 1562.93 1141.75 Q1566.75 1145.77 1566.75 1153.91 Z" fill="#000000" fill-rule="nonzero" fill-opacity="1" /><path clip-path="url(#clip590)" d="M1602.27 1156.01 Q1602.27 1149.65 1599.63 1146.15 Q1597.02 1142.65 1592.28 1142.65 Q1587.57 1142.65 1584.93 1146.15 Q1582.32 1149.65 1582.32 1156.01 Q1582.32 1162.35 1584.93 1165.85 Q1587.57 1169.35 1592.28 1169.35 Q1597.02 1169.35 1599.63 1165.85 Q1602.27 1162.35 1602.27 1156.01 M1608.13 1169.83 Q1608.13 1178.93 1604.09 1183.35 Q1600.04 1187.81 1591.7 1187.81 Q1588.62 1187.81 1585.88 1187.33 Q1583.14 1186.89 1580.56 1185.93 L1580.56 1180.24 Q1583.14 1181.64 1585.66 1182.3 Q1588.17 1182.97 1590.78 1182.97 Q1596.54 1182.97 1599.41 1179.95 Q1602.27 1176.96 1602.27 1170.88 L1602.27 1167.98 Q1600.46 1171.13 1597.62 1172.69 Q1594.79 1174.25 1590.85 1174.25 Q1584.29 1174.25 1580.28 1169.25 Q1576.27 1164.26 1576.27 1156.01 Q1576.27 1147.74 1580.28 1142.74 Q1584.29 1137.74 1590.85 1137.74 Q1594.79 1137.74 1597.62 1139.3 Q1600.46 1140.86 1602.27 1144.01 L1602.27 1138.6 L1608.13 1138.6 L1608.13 1169.83 Z" fill="#000000" fill-rule="nonzero" fill-opacity="1" /><path clip-path="url(#clip590)" d="M1650.68 1154.96 L1650.68 1157.83 L1623.76 1157.83 Q1624.14 1163.88 1627.38 1167.06 Q1630.66 1170.21 1636.49 1170.21 Q1639.86 1170.21 1643.01 1169.38 Q1646.2 1168.55 1649.31 1166.9 L1649.31 1172.44 Q1646.16 1173.77 1642.85 1174.47 Q1639.54 1175.17 1636.14 1175.17 Q1627.61 1175.17 1622.61 1170.21 Q1617.64 1165.24 1617.64 1156.78 Q1617.64 1148.03 1622.36 1142.9 Q1627.1 1137.74 1635.12 1137.74 Q1642.31 1137.74 1646.48 1142.39 Q1650.68 1147.01 1650.68 1154.96 M1644.83 1153.25 Q1644.76 1148.44 1642.12 1145.57 Q1639.51 1142.71 1635.18 1142.71 Q1630.28 1142.71 1627.32 1145.48 Q1624.39 1148.25 1623.95 1153.28 L1644.83 1153.25 Z" fill="#000000" fill-rule="nonzero" fill-opacity="1" /><polyline clip-path="url(#clip590)" style="stroke:#000000; stroke-linecap:round; stroke-linejoin:round; stroke-width:4; stroke-opacity:1; fill:none" points="1168.01,1035.39 1168.01,117.424 "/>
<polyline clip-path="url(#clip590)" style="stroke:#000000; stroke-linecap:round; stroke-linejoin:round; stroke-width:4; stroke-opacity:1; fill:none" points="1168.01,1009.41 1186.91,1009.41 "/>
<polyline clip-path="url(#clip590)" style="stroke:#000000; stroke-linecap:round; stroke-linejoin:round; stroke-width:4; stroke-opacity:1; fill:none" points="1168.01,785.832 1186.91,785.832 "/>
<polyline clip-path="url(#clip590)" style="stroke:#000000; stroke-linecap:round; stroke-linejoin:round; stroke-width:4; stroke-opacity:1; fill:none" points="1168.01,562.256 1186.91,562.256 "/>
<polyline clip-path="url(#clip590)" style="stroke:#000000; stroke-linecap:round; stroke-linejoin:round; stroke-width:4; stroke-opacity:1; fill:none" points="1168.01,338.68 1186.91,338.68 "/>
<path clip-path="url(#clip590)" d="M1126.07 995.206 Q1122.46 995.206 1120.63 998.771 Q1118.83 1002.31 1118.83 1009.44 Q1118.83 1016.55 1120.63 1020.11 Q1122.46 1023.66 1126.07 1023.66 Q1129.7 1023.66 1131.51 1020.11 Q1133.34 1016.55 1133.34 1009.44 Q1133.34 1002.31 1131.51 998.771 Q1129.7 995.206 1126.07 995.206 M1126.07 991.503 Q1131.88 991.503 1134.94 996.109 Q1138.01 1000.69 1138.01 1009.44 Q1138.01 1018.17 1134.94 1022.78 Q1131.88 1027.36 1126.07 1027.36 Q1120.26 1027.36 1117.18 1022.78 Q1114.13 1018.17 1114.13 1009.44 Q1114.13 1000.69 1117.18 996.109 Q1120.26 991.503 1126.07 991.503 Z" fill="#000000" fill-rule="nonzero" fill-opacity="1" /><path clip-path="url(#clip590)" d="M1059.77 799.177 L1076.09 799.177 L1076.09 803.112 L1054.15 803.112 L1054.15 799.177 Q1056.81 796.422 1061.39 791.792 Q1066 787.14 1067.18 785.797 Q1069.43 783.274 1070.31 781.538 Q1071.21 779.779 1071.21 778.089 Q1071.21 775.334 1069.27 773.598 Q1067.34 771.862 1064.24 771.862 Q1062.04 771.862 1059.59 772.626 Q1057.16 773.39 1054.38 774.941 L1054.38 770.218 Q1057.21 769.084 1059.66 768.505 Q1062.11 767.927 1064.15 767.927 Q1069.52 767.927 1072.71 770.612 Q1075.91 773.297 1075.91 777.788 Q1075.91 779.917 1075.1 781.839 Q1074.31 783.737 1072.2 786.329 Q1071.63 787.001 1068.52 790.218 Q1065.42 793.413 1059.77 799.177 Z" fill="#000000" fill-rule="nonzero" fill-opacity="1" /><path clip-path="url(#clip590)" d="M1095.91 771.63 Q1092.3 771.63 1090.47 775.195 Q1088.66 778.737 1088.66 785.866 Q1088.66 792.973 1090.47 796.538 Q1092.3 800.079 1095.91 800.079 Q1099.54 800.079 1101.35 796.538 Q1103.18 792.973 1103.18 785.866 Q1103.18 778.737 1101.35 775.195 Q1099.54 771.63 1095.91 771.63 M1095.91 767.927 Q1101.72 767.927 1104.77 772.533 Q1107.85 777.117 1107.85 785.866 Q1107.85 794.593 1104.77 799.2 Q1101.72 803.783 1095.91 803.783 Q1090.1 803.783 1087.02 799.2 Q1083.96 794.593 1083.96 785.866 Q1083.96 777.117 1087.02 772.533 Q1090.1 767.927 1095.91 767.927 Z" fill="#000000" fill-rule="nonzero" fill-opacity="1" /><path clip-path="url(#clip590)" d="M1126.07 771.63 Q1122.46 771.63 1120.63 775.195 Q1118.83 778.737 1118.83 785.866 Q1118.83 792.973 1120.63 796.538 Q1122.46 800.079 1126.07 800.079 Q1129.7 800.079 1131.51 796.538 Q1133.34 792.973 1133.34 785.866 Q1133.34 778.737 1131.51 775.195 Q1129.7 771.63 1126.07 771.63 M1126.07 767.927 Q1131.88 767.927 1134.94 772.533 Q1138.01 777.117 1138.01 785.866 Q1138.01 794.593 1134.94 799.2 Q1131.88 803.783 1126.07 803.783 Q1120.26 803.783 1117.18 799.2 Q1114.13 794.593 1114.13 785.866 Q1114.13 777.117 1117.18 772.533 Q1120.26 767.927 1126.07 767.927 Z" fill="#000000" fill-rule="nonzero" fill-opacity="1" /><path clip-path="url(#clip590)" d="M1068.59 549.05 L1056.79 567.499 L1068.59 567.499 L1068.59 549.05 M1067.37 544.976 L1073.25 544.976 L1073.25 567.499 L1078.18 567.499 L1078.18 571.388 L1073.25 571.388 L1073.25 579.536 L1068.59 579.536 L1068.59 571.388 L1052.99 571.388 L1052.99 566.874 L1067.37 544.976 Z" fill="#000000" fill-rule="nonzero" fill-opacity="1" /><path clip-path="url(#clip590)" d="M1095.91 548.054 Q1092.3 548.054 1090.47 551.619 Q1088.66 555.161 1088.66 562.29 Q1088.66 569.397 1090.47 572.962 Q1092.3 576.503 1095.91 576.503 Q1099.54 576.503 1101.35 572.962 Q1103.18 569.397 1103.18 562.29 Q1103.18 555.161 1101.35 551.619 Q1099.54 548.054 1095.91 548.054 M1095.91 544.351 Q1101.72 544.351 1104.77 548.957 Q1107.85 553.541 1107.85 562.29 Q1107.85 571.017 1104.77 575.624 Q1101.72 580.207 1095.91 580.207 Q1090.1 580.207 1087.02 575.624 Q1083.96 571.017 1083.96 562.29 Q1083.96 553.541 1087.02 548.957 Q1090.1 544.351 1095.91 544.351 Z" fill="#000000" fill-rule="nonzero" fill-opacity="1" /><path clip-path="url(#clip590)" d="M1126.07 548.054 Q1122.46 548.054 1120.63 551.619 Q1118.83 555.161 1118.83 562.29 Q1118.83 569.397 1120.63 572.962 Q1122.46 576.503 1126.07 576.503 Q1129.7 576.503 1131.51 572.962 Q1133.34 569.397 1133.34 562.29 Q1133.34 555.161 1131.51 551.619 Q1129.7 548.054 1126.07 548.054 M1126.07 544.351 Q1131.88 544.351 1134.94 548.957 Q1138.01 553.541 1138.01 562.29 Q1138.01 571.017 1134.94 575.624 Q1131.88 580.207 1126.07 580.207 Q1120.26 580.207 1117.18 575.624 Q1114.13 571.017 1114.13 562.29 Q1114.13 553.541 1117.18 548.957 Q1120.26 544.351 1126.07 544.351 Z" fill="#000000" fill-rule="nonzero" fill-opacity="1" /><path clip-path="url(#clip590)" d="M1066.33 336.816 Q1063.18 336.816 1061.33 338.969 Q1059.5 341.122 1059.5 344.872 Q1059.5 348.599 1061.33 350.775 Q1063.18 352.927 1066.33 352.927 Q1069.47 352.927 1071.3 350.775 Q1073.15 348.599 1073.15 344.872 Q1073.15 341.122 1071.3 338.969 Q1069.47 336.816 1066.33 336.816 M1075.61 322.164 L1075.61 326.423 Q1073.85 325.59 1072.04 325.15 Q1070.26 324.71 1068.5 324.71 Q1063.87 324.71 1061.42 327.835 Q1058.99 330.96 1058.64 337.279 Q1060.01 335.265 1062.07 334.201 Q1064.13 333.113 1066.6 333.113 Q1071.81 333.113 1074.82 336.284 Q1077.85 339.432 1077.85 344.872 Q1077.85 350.196 1074.7 353.414 Q1071.56 356.631 1066.33 356.631 Q1060.33 356.631 1057.16 352.048 Q1053.99 347.441 1053.99 338.715 Q1053.99 330.52 1057.88 325.659 Q1061.77 320.775 1068.32 320.775 Q1070.08 320.775 1071.86 321.122 Q1073.66 321.469 1075.61 322.164 Z" fill="#000000" fill-rule="nonzero" fill-opacity="1" /><path clip-path="url(#clip590)" d="M1095.91 324.478 Q1092.3 324.478 1090.47 328.043 Q1088.66 331.585 1088.66 338.715 Q1088.66 345.821 1090.47 349.386 Q1092.3 352.927 1095.91 352.927 Q1099.54 352.927 1101.35 349.386 Q1103.18 345.821 1103.18 338.715 Q1103.18 331.585 1101.35 328.043 Q1099.54 324.478 1095.91 324.478 M1095.91 320.775 Q1101.72 320.775 1104.77 325.381 Q1107.85 329.965 1107.85 338.715 Q1107.85 347.441 1104.77 352.048 Q1101.72 356.631 1095.91 356.631 Q1090.1 356.631 1087.02 352.048 Q1083.96 347.441 1083.96 338.715 Q1083.96 329.965 1087.02 325.381 Q1090.1 320.775 1095.91 320.775 Z" fill="#000000" fill-rule="nonzero" fill-opacity="1" /><path clip-path="url(#clip590)" d="M1126.07 324.478 Q1122.46 324.478 1120.63 328.043 Q1118.83 331.585 1118.83 338.715 Q1118.83 345.821 1120.63 349.386 Q1122.46 352.927 1126.07 352.927 Q1129.7 352.927 1131.51 349.386 Q1133.34 345.821 1133.34 338.715 Q1133.34 331.585 1131.51 328.043 Q1129.7 324.478 1126.07 324.478 M1126.07 320.775 Q1131.88 320.775 1134.94 325.381 Q1138.01 329.965 1138.01 338.715 Q1138.01 347.441 1134.94 352.048 Q1131.88 356.631 1126.07 356.631 Q1120.26 356.631 1117.18 352.048 Q1114.13 347.441 1114.13 338.715 Q1114.13 329.965 1117.18 325.381 Q1120.26 320.775 1126.07 320.775 Z" fill="#000000" fill-rule="nonzero" fill-opacity="1" /><path clip-path="url(#clip590)" d="M1365.5 54.671 L1365.5 27.2059 L1372.95 27.2059 L1372.95 54.3874 Q1372.95 60.8284 1375.46 64.0691 Q1377.97 67.2693 1383 67.2693 Q1389.03 67.2693 1392.52 63.421 Q1396.04 59.5726 1396.04 52.9291 L1396.04 27.2059 L1403.49 27.2059 L1403.49 72.576 L1396.04 72.576 L1396.04 65.6084 Q1393.33 69.7404 1389.72 71.7658 Q1386.16 73.7508 1381.42 73.7508 Q1373.6 73.7508 1369.55 68.8897 Q1365.5 64.0286 1365.5 54.671 M1384.25 26.1121 L1384.25 26.1121 Z" fill="#000000" fill-rule="nonzero" fill-opacity="1" /><path clip-path="url(#clip590)" d="M1453.32 86.3491 L1453.32 92.1419 L1410.22 92.1419 L1410.22 86.3491 L1453.32 86.3491 Z" fill="#000000" fill-rule="nonzero" fill-opacity="1" /><path clip-path="url(#clip590)" d="M1492.9 49.9314 Q1492.9 41.7081 1489.49 37.0496 Q1486.13 32.3505 1480.22 32.3505 Q1474.3 32.3505 1470.9 37.0496 Q1467.54 41.7081 1467.54 49.9314 Q1467.54 58.1548 1470.9 62.8538 Q1474.3 67.5124 1480.22 67.5124 Q1486.13 67.5124 1489.49 62.8538 Q1492.9 58.1548 1492.9 49.9314 M1467.54 34.0924 Q1469.89 30.0415 1473.45 28.0971 Q1477.06 26.1121 1482.04 26.1121 Q1490.3 26.1121 1495.45 32.6746 Q1500.63 39.2371 1500.63 49.9314 Q1500.63 60.6258 1495.45 67.1883 Q1490.3 73.7508 1482.04 73.7508 Q1477.06 73.7508 1473.45 71.8063 Q1469.89 69.8214 1467.54 65.7705 L1467.54 72.576 L1460.04 72.576 L1460.04 9.54393 L1467.54 9.54393 L1467.54 34.0924 Z" fill="#000000" fill-rule="nonzero" fill-opacity="1" /><path clip-path="url(#clip590)" d="M1512.22 54.671 L1512.22 27.2059 L1519.67 27.2059 L1519.67 54.3874 Q1519.67 60.8284 1522.19 64.0691 Q1524.7 67.2693 1529.72 67.2693 Q1535.76 67.2693 1539.24 63.421 Q1542.76 59.5726 1542.76 52.9291 L1542.76 27.2059 L1550.22 27.2059 L1550.22 72.576 L1542.76 72.576 L1542.76 65.6084 Q1540.05 69.7404 1536.44 71.7658 Q1532.88 73.7508 1528.14 73.7508 Q1520.32 73.7508 1516.27 68.8897 Q1512.22 64.0286 1512.22 54.671 M1530.98 26.1121 L1530.98 26.1121 Z" fill="#000000" fill-rule="nonzero" fill-opacity="1" /><path clip-path="url(#clip590)" d="M1584.45 76.7889 Q1581.29 84.8907 1578.29 87.3618 Q1575.29 89.8329 1570.27 89.8329 L1564.31 89.8329 L1564.31 83.5945 L1568.69 83.5945 Q1571.77 83.5945 1573.47 82.1361 Q1575.17 80.6778 1577.24 75.2496 L1578.57 71.8468 L1560.22 27.2059 L1568.12 27.2059 L1582.3 62.6918 L1596.48 27.2059 L1604.38 27.2059 L1584.45 76.7889 Z" fill="#000000" fill-rule="nonzero" fill-opacity="1" /><path clip-path="url(#clip590)" d="M1603.89 62.2867 L1612.44 62.2867 L1612.44 72.576 L1603.89 72.576 L1603.89 62.2867 Z" fill="#000000" fill-rule="nonzero" fill-opacity="1" /><path clip-path="url(#clip590)" d="M1646.79 32.4315 Q1640.8 32.4315 1637.31 37.1306 Q1633.83 41.7891 1633.83 49.9314 Q1633.83 58.0738 1637.27 62.7728 Q1640.76 67.4314 1646.79 67.4314 Q1652.75 67.4314 1656.23 62.7323 Q1659.71 58.0333 1659.71 49.9314 Q1659.71 41.8701 1656.23 37.1711 Q1652.75 32.4315 1646.79 32.4315 M1646.79 26.1121 Q1656.51 26.1121 1662.06 32.4315 Q1667.61 38.7509 1667.61 49.9314 Q1667.61 61.0714 1662.06 67.4314 Q1656.51 73.7508 1646.79 73.7508 Q1637.03 73.7508 1631.48 67.4314 Q1625.97 61.0714 1625.97 49.9314 Q1625.97 38.7509 1631.48 32.4315 Q1637.03 26.1121 1646.79 26.1121 Z" fill="#000000" fill-rule="nonzero" fill-opacity="1" /><path clip-path="url(#clip590)" d="M1679.2 54.671 L1679.2 27.2059 L1686.65 27.2059 L1686.65 54.3874 Q1686.65 60.8284 1689.16 64.0691 Q1691.68 67.2693 1696.7 67.2693 Q1702.73 67.2693 1706.22 63.421 Q1709.74 59.5726 1709.74 52.9291 L1709.74 27.2059 L1717.2 27.2059 L1717.2 72.576 L1709.74 72.576 L1709.74 65.6084 Q1707.03 69.7404 1703.42 71.7658 Q1699.86 73.7508 1695.12 73.7508 Q1687.3 73.7508 1683.25 68.8897 Q1679.2 64.0286 1679.2 54.671 M1697.95 26.1121 L1697.95 26.1121 Z" fill="#000000" fill-rule="nonzero" fill-opacity="1" /><path clip-path="url(#clip590)" d="M1739.92 14.324 L1739.92 27.2059 L1755.27 27.2059 L1755.27 32.9987 L1739.92 32.9987 L1739.92 57.6282 Q1739.92 63.1779 1741.42 64.7578 Q1742.96 66.3376 1747.62 66.3376 L1755.27 66.3376 L1755.27 72.576 L1747.62 72.576 Q1738.99 72.576 1735.71 69.3758 Q1732.43 66.1351 1732.43 57.6282 L1732.43 32.9987 L1726.96 32.9987 L1726.96 27.2059 L1732.43 27.2059 L1732.43 14.324 L1739.92 14.324 Z" fill="#000000" fill-rule="nonzero" fill-opacity="1" /><path clip-path="url(#clip593)" d="M1190.22 255.192 L1264.26 998.936 L1338.29 998.936 L1412.32 998.936 L1486.35 998.936 L1560.39 998.936 L1634.42 1009.41 L1708.45 1009.41 L1782.48 1009.41 L1856.51 1009.41 L1930.55 1009.41 L1930.55 1009.41 L1856.51 1009.41 L1782.48 1009.41 L1708.45 691.392 L1634.42 221.313 L1560.39 143.404 L1486.35 143.404 L1412.32 143.404 L1338.29 143.404 L1264.26 143.404 L1190.22 255.192  Z" fill="#00467f" fill-rule="evenodd" fill-opacity="0.2"/>
<polyline clip-path="url(#clip593)" style="stroke:#00467f; stroke-linecap:round; stroke-linejoin:round; stroke-width:4; stroke-opacity:0; fill:none" points="1190.22,255.192 1264.26,571.17 1338.29,571.17 1412.32,571.17 1486.35,571.17 1560.39,571.17 1634.42,615.361 1708.45,850.4 1782.48,1009.41 1856.51,1009.41 1930.55,1009.41 "/>
<path clip-path="url(#clip593)" d="M1190.22 255.192 L1264.26 924.593 L1338.29 924.593 L1412.32 924.593 L1486.35 924.593 L1560.39 998.936 L1634.42 1002.5 L1708.45 1009.41 L1782.48 1009.41 L1856.51 1009.41 L1930.55 1009.41 L1930.55 1009.41 L1856.51 1009.41 L1782.48 1009.41 L1708.45 714.138 L1634.42 244.059 L1560.39 168.677 L1486.35 143.404 L1412.32 143.404 L1338.29 168.677 L1264.26 168.677 L1190.22 255.192  Z" fill="#00467f" fill-rule="evenodd" fill-opacity="0.2"/>
<polyline clip-path="url(#clip593)" style="stroke:#00467f; stroke-linecap:round; stroke-linejoin:round; stroke-width:4; stroke-opacity:0; fill:none" points="1190.22,255.192 1264.26,546.635 1338.29,546.635 1412.32,533.999 1486.35,533.999 1560.39,583.806 1634.42,623.281 1708.45,861.773 1782.48,1009.41 1856.51,1009.41 1930.55,1009.41 "/>
<path clip-path="url(#clip593)" d="M1190.22 255.192 L1264.26 849.745 L1338.29 912.474 L1412.32 912.474 L1486.35 912.474 L1560.39 912.474 L1634.42 990.383 L1708.45 1009.41 L1782.48 1009.41 L1856.51 1009.41 L1930.55 1009.41 L1930.55 1009.41 L1856.51 1009.41 L1782.48 1009.41 L1708.45 784.102 L1634.42 299.222 L1560.39 221.313 L1486.35 221.313 L1412.32 221.313 L1338.29 221.313 L1264.26 221.313 L1190.22 255.192  Z" fill="#00467f" fill-rule="evenodd" fill-opacity="0.2"/>
<polyline clip-path="url(#clip593)" style="stroke:#00467f; stroke-linecap:round; stroke-linejoin:round; stroke-width:4; stroke-opacity:0; fill:none" points="1190.22,255.192 1264.26,535.529 1338.29,566.894 1412.32,566.894 1486.35,566.894 1560.39,566.894 1634.42,644.803 1708.45,896.755 1782.48,1009.41 1856.51,1009.41 1930.55,1009.41 "/>
<polyline clip-path="url(#clip593)" style="stroke:#00467f; stroke-linecap:round; stroke-linejoin:round; stroke-width:4; stroke-opacity:1; fill:none" points="1190.22,255.192 1264.26,404.828 1338.29,404.828 1412.32,769.301 1486.35,404.828 1560.39,404.828 1634.42,847.211 1708.45,952.817 1782.48,1009.41 1856.51,1009.41 1930.55,1009.41 "/>
</svg>
