<?xml version="1.0" encoding="utf-8"?>
<svg xmlns="http://www.w3.org/2000/svg" xmlns:xlink="http://www.w3.org/1999/xlink" width="500" height="300" viewBox="0 0 2000 1200">
<defs>
  <clipPath id="clip830">
    <rect x="0" y="0" width="2000" height="1200"/>
  </clipPath>
</defs>
<path clip-path="url(#clip830)" d="M0 1200 L2000 1200 L2000 0 L0 0  Z" fill="#ffffff" fill-rule="evenodd" fill-opacity="1"/>
<defs>
  <clipPath id="clip831">
    <rect x="400" y="0" width="1401" height="1200"/>
  </clipPath>
</defs>
<path clip-path="url(#clip830)" d="M168.015 1035.39 L952.756 1035.39 L952.756 117.424 L168.015 117.424  Z" fill="#ffffff" fill-rule="evenodd" fill-opacity="1"/>
<defs>
  <clipPath id="clip832">
    <rect x="168" y="117" width="786" height="919"/>
  </clipPath>
</defs>
<polyline clip-path="url(#clip832)" style="stroke:#000000; stroke-linecap:round; stroke-linejoin:round; stroke-width:2; stroke-opacity:0.1; fill:none" points="264.257,1035.39 264.257,117.424 "/>
<polyline clip-path="url(#clip832)" style="stroke:#000000; stroke-linecap:round; stroke-linejoin:round; stroke-width:2; stroke-opacity:0.1; fill:none" points="412.321,1035.39 412.321,117.424 "/>
<polyline clip-path="url(#clip832)" style="stroke:#000000; stroke-linecap:round; stroke-linejoin:round; stroke-width:2; stroke-opacity:0.1; fill:none" points="560.385,1035.39 560.385,117.424 "/>
<polyline clip-path="url(#clip832)" style="stroke:#000000; stroke-linecap:round; stroke-linejoin:round; stroke-width:2; stroke-opacity:0.1; fill:none" points="708.45,1035.39 708.45,117.424 "/>
<polyline clip-path="url(#clip832)" style="stroke:#000000; stroke-linecap:round; stroke-linejoin:round; stroke-width:2; stroke-opacity:0.1; fill:none" points="856.514,1035.39 856.514,117.424 "/>
<polyline clip-path="url(#clip832)" style="stroke:#000000; stroke-linecap:round; stroke-linejoin:round; stroke-width:2; stroke-opacity:0.1; fill:none" points="168.015,1009.41 952.756,1009.41 "/>
<polyline clip-path="url(#clip832)" style="stroke:#000000; stroke-linecap:round; stroke-linejoin:round; stroke-width:2; stroke-opacity:0.1; fill:none" points="168.015,855.328 952.756,855.328 "/>
<polyline clip-path="url(#clip832)" style="stroke:#000000; stroke-linecap:round; stroke-linejoin:round; stroke-width:2; stroke-opacity:0.1; fill:none" points="168.015,701.248 952.756,701.248 "/>
<polyline clip-path="url(#clip832)" style="stroke:#000000; stroke-linecap:round; stroke-linejoin:round; stroke-width:2; stroke-opacity:0.1; fill:none" points="168.015,547.169 952.756,547.169 "/>
<polyline clip-path="url(#clip832)" style="stroke:#000000; stroke-linecap:round; stroke-linejoin:round; stroke-width:2; stroke-opacity:0.1; fill:none" points="168.015,393.089 952.756,393.089 "/>
<polyline clip-path="url(#clip832)" style="stroke:#000000; stroke-linecap:round; stroke-linejoin:round; stroke-width:2; stroke-opacity:0.1; fill:none" points="168.015,239.01 952.756,239.01 "/>
<polyline clip-path="url(#clip830)" style="stroke:#000000; stroke-linecap:round; stroke-linejoin:round; stroke-width:4; stroke-opacity:1; fill:none" points="168.015,1035.39 952.756,1035.39 "/>
<polyline clip-path="url(#clip830)" style="stroke:#000000; stroke-linecap:round; stroke-linejoin:round; stroke-width:4; stroke-opacity:1; fill:none" points="264.257,1035.39 264.257,1016.49 "/>
<polyline clip-path="url(#clip830)" style="stroke:#000000; stroke-linecap:round; stroke-linejoin:round; stroke-width:4; stroke-opacity:1; fill:none" points="412.321,1035.39 412.321,1016.49 "/>
<polyline clip-path="url(#clip830)" style="stroke:#000000; stroke-linecap:round; stroke-linejoin:round; stroke-width:4; stroke-opacity:1; fill:none" points="560.385,1035.39 560.385,1016.49 "/>
<polyline clip-path="url(#clip830)" style="stroke:#000000; stroke-linecap:round; stroke-linejoin:round; stroke-width:4; stroke-opacity:1; fill:none" points="708.45,1035.39 708.45,1016.49 "/>
<polyline clip-path="url(#clip830)" style="stroke:#000000; stroke-linecap:round; stroke-linejoin:round; stroke-width:4; stroke-opacity:1; fill:none" points="856.514,1035.39 856.514,1016.49 "/>
<path clip-path="url(#clip830)" d="M258.909 1090.65 L275.229 1090.65 L275.229 1094.59 L253.284 1094.59 L253.284 1090.65 Q255.947 1087.9 260.53 1083.27 Q265.136 1078.62 266.317 1077.27 Q268.562 1074.75 269.442 1073.01 Q270.345 1071.25 270.345 1069.56 Q270.345 1066.81 268.4 1065.07 Q266.479 1063.34 263.377 1063.34 Q261.178 1063.34 258.724 1064.1 Q256.294 1064.87 253.516 1066.42 L253.516 1061.69 Q256.34 1060.56 258.794 1059.98 Q261.247 1059.4 263.284 1059.4 Q268.655 1059.4 271.849 1062.09 Q275.044 1064.77 275.044 1069.26 Q275.044 1071.39 274.233 1073.31 Q273.446 1075.21 271.34 1077.81 Q270.761 1078.48 267.659 1081.69 Q264.558 1084.89 258.909 1090.65 Z" fill="#000000" fill-rule="nonzero" fill-opacity="1" /><path clip-path="url(#clip830)" d="M415.33 1064.1 L403.525 1082.55 L415.33 1082.55 L415.33 1064.1 M414.103 1060.03 L419.983 1060.03 L419.983 1082.55 L424.914 1082.55 L424.914 1086.44 L419.983 1086.44 L419.983 1094.59 L415.33 1094.59 L415.33 1086.44 L399.728 1086.44 L399.728 1081.93 L414.103 1060.03 Z" fill="#000000" fill-rule="nonzero" fill-opacity="1" /><path clip-path="url(#clip830)" d="M560.79 1075.44 Q557.642 1075.44 555.79 1077.6 Q553.962 1079.75 553.962 1083.5 Q553.962 1087.23 555.79 1089.4 Q557.642 1091.56 560.79 1091.56 Q563.939 1091.56 565.767 1089.4 Q567.619 1087.23 567.619 1083.5 Q567.619 1079.75 565.767 1077.6 Q563.939 1075.44 560.79 1075.44 M570.073 1060.79 L570.073 1065.05 Q568.314 1064.22 566.508 1063.78 Q564.726 1063.34 562.966 1063.34 Q558.337 1063.34 555.883 1066.46 Q553.453 1069.59 553.105 1075.91 Q554.471 1073.89 556.531 1072.83 Q558.591 1071.74 561.068 1071.74 Q566.277 1071.74 569.286 1074.91 Q572.318 1078.06 572.318 1083.5 Q572.318 1088.82 569.17 1092.04 Q566.022 1095.26 560.79 1095.26 Q554.795 1095.26 551.624 1090.68 Q548.453 1086.07 548.453 1077.34 Q548.453 1069.15 552.341 1064.29 Q556.23 1059.4 562.781 1059.4 Q564.54 1059.4 566.323 1059.75 Q568.128 1060.1 570.073 1060.79 Z" fill="#000000" fill-rule="nonzero" fill-opacity="1" /><path clip-path="url(#clip830)" d="M708.45 1078.18 Q705.116 1078.18 703.195 1079.96 Q701.297 1081.74 701.297 1084.87 Q701.297 1087.99 703.195 1089.77 Q705.116 1091.56 708.45 1091.56 Q711.783 1091.56 713.704 1089.77 Q715.626 1087.97 715.626 1084.87 Q715.626 1081.74 713.704 1079.96 Q711.806 1078.18 708.45 1078.18 M703.774 1076.19 Q700.765 1075.44 699.075 1073.38 Q697.408 1071.32 697.408 1068.36 Q697.408 1064.22 700.348 1061.81 Q703.311 1059.4 708.45 1059.4 Q713.612 1059.4 716.552 1061.81 Q719.491 1064.22 719.491 1068.36 Q719.491 1071.32 717.802 1073.38 Q716.135 1075.44 713.149 1076.19 Q716.528 1076.97 718.403 1079.26 Q720.302 1081.56 720.302 1084.87 Q720.302 1089.89 717.223 1092.57 Q714.167 1095.26 708.45 1095.26 Q702.732 1095.26 699.653 1092.57 Q696.598 1089.89 696.598 1084.87 Q696.598 1081.56 698.496 1079.26 Q700.394 1076.97 703.774 1076.19 M702.061 1068.8 Q702.061 1071.49 703.728 1072.99 Q705.417 1074.5 708.45 1074.5 Q711.459 1074.5 713.149 1072.99 Q714.862 1071.49 714.862 1068.8 Q714.862 1066.12 713.149 1064.61 Q711.459 1063.11 708.45 1063.11 Q705.417 1063.11 703.728 1064.61 Q702.061 1066.12 702.061 1068.8 Z" fill="#000000" fill-rule="nonzero" fill-opacity="1" /><path clip-path="url(#clip830)" d="M831.202 1090.65 L838.841 1090.65 L838.841 1064.29 L830.53 1065.95 L830.53 1061.69 L838.794 1060.03 L843.47 1060.03 L843.47 1090.65 L851.109 1090.65 L851.109 1094.59 L831.202 1094.59 L831.202 1090.65 Z" fill="#000000" fill-rule="nonzero" fill-opacity="1" /><path clip-path="url(#clip830)" d="M870.553 1063.11 Q866.942 1063.11 865.114 1066.67 Q863.308 1070.21 863.308 1077.34 Q863.308 1084.45 865.114 1088.01 Q866.942 1091.56 870.553 1091.56 Q874.188 1091.56 875.993 1088.01 Q877.822 1084.45 877.822 1077.34 Q877.822 1070.21 875.993 1066.67 Q874.188 1063.11 870.553 1063.11 M870.553 1059.4 Q876.364 1059.4 879.419 1064.01 Q882.498 1068.59 882.498 1077.34 Q882.498 1086.07 879.419 1090.68 Q876.364 1095.26 870.553 1095.26 Q864.743 1095.26 861.665 1090.68 Q858.609 1086.07 858.609 1077.34 Q858.609 1068.59 861.665 1064.01 Q864.743 1059.4 870.553 1059.4 Z" fill="#000000" fill-rule="nonzero" fill-opacity="1" /><path clip-path="url(#clip830)" d="M500.675 1128.29 L500.675 1134.56 Q497.015 1132.81 493.768 1131.95 Q490.522 1131.09 487.498 1131.09 Q482.246 1131.09 479.382 1133.13 Q476.549 1135.17 476.549 1138.92 Q476.549 1142.07 478.427 1143.7 Q480.337 1145.29 485.62 1146.27 L489.503 1147.07 Q496.696 1148.44 500.102 1151.91 Q503.54 1155.35 503.54 1161.14 Q503.54 1168.05 498.893 1171.61 Q494.277 1175.17 485.334 1175.17 Q481.96 1175.17 478.14 1174.41 Q474.353 1173.65 470.279 1172.15 L470.279 1165.53 Q474.194 1167.73 477.949 1168.84 Q481.705 1169.95 485.334 1169.95 Q490.84 1169.95 493.832 1167.79 Q496.824 1165.63 496.824 1161.62 Q496.824 1158.11 494.659 1156.14 Q492.527 1154.17 487.625 1153.18 L483.71 1152.42 Q476.517 1150.99 473.302 1147.93 Q470.088 1144.87 470.088 1139.43 Q470.088 1133.13 474.512 1129.5 Q478.968 1125.87 486.766 1125.87 Q490.108 1125.87 493.577 1126.48 Q497.047 1127.08 500.675 1128.29 Z" fill="#000000" fill-rule="nonzero" fill-opacity="1" /><path clip-path="url(#clip830)" d="M519.104 1128.48 L519.104 1138.6 L531.167 1138.6 L531.167 1143.16 L519.104 1143.16 L519.104 1162.51 Q519.104 1166.87 520.281 1168.11 Q521.491 1169.35 525.151 1169.35 L531.167 1169.35 L531.167 1174.25 L525.151 1174.25 Q518.372 1174.25 515.794 1171.74 Q513.215 1169.19 513.215 1162.51 L513.215 1143.16 L508.919 1143.16 L508.919 1138.6 L513.215 1138.6 L513.215 1128.48 L519.104 1128.48 Z" fill="#000000" fill-rule="nonzero" fill-opacity="1" /><path clip-path="url(#clip830)" d="M555.07 1156.33 Q547.972 1156.33 545.235 1157.96 Q542.498 1159.58 542.498 1163.49 Q542.498 1166.61 544.535 1168.46 Q546.604 1170.27 550.137 1170.27 Q555.006 1170.27 557.935 1166.84 Q560.895 1163.37 560.895 1157.64 L560.895 1156.33 L555.07 1156.33 M566.751 1153.91 L566.751 1174.25 L560.895 1174.25 L560.895 1168.84 Q558.889 1172.09 555.898 1173.65 Q552.906 1175.17 548.577 1175.17 Q543.102 1175.17 539.856 1172.12 Q536.641 1169.03 536.641 1163.88 Q536.641 1157.86 540.652 1154.8 Q544.694 1151.75 552.683 1151.75 L560.895 1151.75 L560.895 1151.18 Q560.895 1147.13 558.221 1144.94 Q555.579 1142.71 550.773 1142.71 Q547.718 1142.71 544.821 1143.44 Q541.925 1144.17 539.251 1145.64 L539.251 1140.23 Q542.466 1138.99 545.49 1138.38 Q548.513 1137.74 551.378 1137.74 Q559.112 1137.74 562.932 1141.75 Q566.751 1145.77 566.751 1153.91 Z" fill="#000000" fill-rule="nonzero" fill-opacity="1" /><path clip-path="url(#clip830)" d="M602.272 1156.01 Q602.272 1149.65 599.63 1146.15 Q597.02 1142.65 592.278 1142.65 Q587.567 1142.65 584.925 1146.15 Q582.315 1149.65 582.315 1156.01 Q582.315 1162.35 584.925 1165.85 Q587.567 1169.35 592.278 1169.35 Q597.02 1169.35 599.63 1165.85 Q602.272 1162.35 602.272 1156.01 M608.128 1169.83 Q608.128 1178.93 604.086 1183.35 Q600.044 1187.81 591.705 1187.81 Q588.617 1187.81 585.88 1187.33 Q583.143 1186.89 580.565 1185.93 L580.565 1180.24 Q583.143 1181.64 585.657 1182.3 Q588.172 1182.97 590.782 1182.97 Q596.543 1182.97 599.407 1179.95 Q602.272 1176.96 602.272 1170.88 L602.272 1167.98 Q600.457 1171.13 597.625 1172.69 Q594.792 1174.25 590.845 1174.25 Q584.289 1174.25 580.278 1169.25 Q576.268 1164.26 576.268 1156.01 Q576.268 1147.74 580.278 1142.74 Q584.289 1137.74 590.845 1137.74 Q594.792 1137.74 597.625 1139.3 Q600.457 1140.86 602.272 1144.01 L602.272 1138.6 L608.128 1138.6 L608.128 1169.83 Z" fill="#000000" fill-rule="nonzero" fill-opacity="1" /><path clip-path="url(#clip830)" d="M650.683 1154.96 L650.683 1157.83 L623.756 1157.83 Q624.138 1163.88 627.384 1167.06 Q630.663 1170.21 636.487 1170.21 Q639.861 1170.21 643.012 1169.38 Q646.195 1168.55 649.314 1166.9 L649.314 1172.44 Q646.163 1173.77 642.853 1174.47 Q639.543 1175.17 636.137 1175.17 Q627.607 1175.17 622.61 1170.21 Q617.645 1165.24 617.645 1156.78 Q617.645 1148.03 622.356 1142.9 Q627.098 1137.74 635.119 1137.74 Q642.312 1137.74 646.482 1142.39 Q650.683 1147.01 650.683 1154.96 M644.826 1153.25 Q644.763 1148.44 642.121 1145.57 Q639.511 1142.71 635.182 1142.71 Q630.281 1142.71 627.321 1145.48 Q624.393 1148.25 623.947 1153.28 L644.826 1153.25 Z" fill="#000000" fill-rule="nonzero" fill-opacity="1" /><polyline clip-path="url(#clip830)" style="stroke:#000000; stroke-linecap:round; stroke-linejoin:round; stroke-width:4; stroke-opacity:1; fill:none" points="168.015,1035.39 168.015,117.424 "/>
<polyline clip-path="url(#clip830)" style="stroke:#000000; stroke-linecap:round; stroke-linejoin:round; stroke-width:4; stroke-opacity:1; fill:none" points="168.015,1009.41 186.912,1009.41 "/>
<polyline clip-path="url(#clip830)" style="stroke:#000000; stroke-linecap:round; stroke-linejoin:round; stroke-width:4; stroke-opacity:1; fill:none" points="168.015,855.328 186.912,855.328 "/>
<polyline clip-path="url(#clip830)" style="stroke:#000000; stroke-linecap:round; stroke-linejoin:round; stroke-width:4; stroke-opacity:1; fill:none" points="168.015,701.248 186.912,701.248 "/>
<polyline clip-path="url(#clip830)" style="stroke:#000000; stroke-linecap:round; stroke-linejoin:round; stroke-width:4; stroke-opacity:1; fill:none" points="168.015,547.169 186.912,547.169 "/>
<polyline clip-path="url(#clip830)" style="stroke:#000000; stroke-linecap:round; stroke-linejoin:round; stroke-width:4; stroke-opacity:1; fill:none" points="168.015,393.089 186.912,393.089 "/>
<polyline clip-path="url(#clip830)" style="stroke:#000000; stroke-linecap:round; stroke-linejoin:round; stroke-width:4; stroke-opacity:1; fill:none" points="168.015,239.01 186.912,239.01 "/>
<path clip-path="url(#clip830)" d="M126.07 995.206 Q122.459 995.206 120.631 998.771 Q118.825 1002.31 118.825 1009.44 Q118.825 1016.55 120.631 1020.11 Q122.459 1023.66 126.07 1023.66 Q129.705 1023.66 131.51 1020.11 Q133.339 1016.55 133.339 1009.44 Q133.339 1002.31 131.51 998.771 Q129.705 995.206 126.07 995.206 M126.07 991.503 Q131.881 991.503 134.936 996.109 Q138.015 1000.69 138.015 1009.44 Q138.015 1018.17 134.936 1022.78 Q131.881 1027.36 126.07 1027.36 Q120.26 1027.36 117.182 1022.78 Q114.126 1018.17 114.126 1009.44 Q114.126 1000.69 117.182 996.109 Q120.26 991.503 126.07 991.503 Z" fill="#000000" fill-rule="nonzero" fill-opacity="1" /><path clip-path="url(#clip830)" d="M56.5569 868.673 L64.1958 868.673 L64.1958 842.307 L55.8856 843.974 L55.8856 839.715 L64.1495 838.048 L68.8254 838.048 L68.8254 868.673 L76.4642 868.673 L76.4642 872.608 L56.5569 872.608 L56.5569 868.673 Z" fill="#000000" fill-rule="nonzero" fill-opacity="1" /><path clip-path="url(#clip830)" d="M95.9086 841.127 Q92.2975 841.127 90.4688 844.692 Q88.6632 848.233 88.6632 855.363 Q88.6632 862.469 90.4688 866.034 Q92.2975 869.576 95.9086 869.576 Q99.5428 869.576 101.348 866.034 Q103.177 862.469 103.177 855.363 Q103.177 848.233 101.348 844.692 Q99.5428 841.127 95.9086 841.127 M95.9086 837.423 Q101.719 837.423 104.774 842.03 Q107.853 846.613 107.853 855.363 Q107.853 864.09 104.774 868.696 Q101.719 873.279 95.9086 873.279 Q90.0984 873.279 87.0197 868.696 Q83.9642 864.09 83.9642 855.363 Q83.9642 846.613 87.0197 842.03 Q90.0984 837.423 95.9086 837.423 Z" fill="#000000" fill-rule="nonzero" fill-opacity="1" /><path clip-path="url(#clip830)" d="M126.07 841.127 Q122.459 841.127 120.631 844.692 Q118.825 848.233 118.825 855.363 Q118.825 862.469 120.631 866.034 Q122.459 869.576 126.07 869.576 Q129.705 869.576 131.51 866.034 Q133.339 862.469 133.339 855.363 Q133.339 848.233 131.51 844.692 Q129.705 841.127 126.07 841.127 M126.07 837.423 Q131.881 837.423 134.936 842.03 Q138.015 846.613 138.015 855.363 Q138.015 864.09 134.936 868.696 Q131.881 873.279 126.07 873.279 Q120.26 873.279 117.182 868.696 Q114.126 864.09 114.126 855.363 Q114.126 846.613 117.182 842.03 Q120.26 837.423 126.07 837.423 Z" fill="#000000" fill-rule="nonzero" fill-opacity="1" /><path clip-path="url(#clip830)" d="M59.7745 714.593 L76.0939 714.593 L76.0939 718.528 L54.1495 718.528 L54.1495 714.593 Q56.8115 711.839 61.3949 707.209 Q66.0013 702.556 67.1819 701.214 Q69.4272 698.691 70.3068 696.955 Q71.2096 695.195 71.2096 693.505 Q71.2096 690.751 69.2652 689.015 Q67.3439 687.279 64.2421 687.279 Q62.043 687.279 59.5893 688.043 Q57.1588 688.806 54.381 690.357 L54.381 685.635 Q57.2051 684.501 59.6588 683.922 Q62.1124 683.343 64.1495 683.343 Q69.5198 683.343 72.7142 686.029 Q75.9087 688.714 75.9087 693.205 Q75.9087 695.334 75.0985 697.255 Q74.3115 699.154 72.205 701.746 Q71.6263 702.417 68.5245 705.635 Q65.4226 708.829 59.7745 714.593 Z" fill="#000000" fill-rule="nonzero" fill-opacity="1" /><path clip-path="url(#clip830)" d="M95.9086 687.047 Q92.2975 687.047 90.4688 690.612 Q88.6632 694.154 88.6632 701.283 Q88.6632 708.39 90.4688 711.954 Q92.2975 715.496 95.9086 715.496 Q99.5428 715.496 101.348 711.954 Q103.177 708.39 103.177 701.283 Q103.177 694.154 101.348 690.612 Q99.5428 687.047 95.9086 687.047 M95.9086 683.343 Q101.719 683.343 104.774 687.95 Q107.853 692.533 107.853 701.283 Q107.853 710.01 104.774 714.616 Q101.719 719.2 95.9086 719.2 Q90.0984 719.2 87.0197 714.616 Q83.9642 710.01 83.9642 701.283 Q83.9642 692.533 87.0197 687.95 Q90.0984 683.343 95.9086 683.343 Z" fill="#000000" fill-rule="nonzero" fill-opacity="1" /><path clip-path="url(#clip830)" d="M126.07 687.047 Q122.459 687.047 120.631 690.612 Q118.825 694.154 118.825 701.283 Q118.825 708.39 120.631 711.954 Q122.459 715.496 126.07 715.496 Q129.705 715.496 131.51 711.954 Q133.339 708.39 133.339 701.283 Q133.339 694.154 131.51 690.612 Q129.705 687.047 126.07 687.047 M126.07 683.343 Q131.881 683.343 134.936 687.95 Q138.015 692.533 138.015 701.283 Q138.015 710.01 134.936 714.616 Q131.881 719.2 126.07 719.2 Q120.26 719.2 117.182 714.616 Q114.126 710.01 114.126 701.283 Q114.126 692.533 117.182 687.95 Q120.26 683.343 126.07 683.343 Z" fill="#000000" fill-rule="nonzero" fill-opacity="1" /><path clip-path="url(#clip830)" d="M69.9133 545.815 Q73.2698 546.532 75.1448 548.801 Q77.0429 551.069 77.0429 554.403 Q77.0429 559.518 73.5244 562.319 Q70.0059 565.12 63.5245 565.12 Q61.3486 565.12 59.0338 564.68 Q56.7421 564.264 54.2884 563.407 L54.2884 558.893 Q56.2328 560.028 58.5477 560.606 Q60.8625 561.185 63.3856 561.185 Q67.7837 561.185 70.0754 559.449 Q72.3902 557.713 72.3902 554.403 Q72.3902 551.347 70.2374 549.634 Q68.1078 547.898 64.2884 547.898 L60.2606 547.898 L60.2606 544.055 L64.4735 544.055 Q67.9226 544.055 69.7513 542.69 Q71.58 541.301 71.58 538.708 Q71.58 536.046 69.6819 534.634 Q67.8069 533.199 64.2884 533.199 Q62.3671 533.199 60.168 533.616 Q57.969 534.032 55.3301 534.912 L55.3301 530.745 Q57.9921 530.005 60.3069 529.634 Q62.6449 529.264 64.705 529.264 Q70.0291 529.264 73.1309 531.694 Q76.2327 534.102 76.2327 538.222 Q76.2327 541.092 74.5892 543.083 Q72.9457 545.051 69.9133 545.815 Z" fill="#000000" fill-rule="nonzero" fill-opacity="1" /><path clip-path="url(#clip830)" d="M95.9086 532.968 Q92.2975 532.968 90.4688 536.532 Q88.6632 540.074 88.6632 547.204 Q88.6632 554.31 90.4688 557.875 Q92.2975 561.416 95.9086 561.416 Q99.5428 561.416 101.348 557.875 Q103.177 554.31 103.177 547.204 Q103.177 540.074 101.348 536.532 Q99.5428 532.968 95.9086 532.968 M95.9086 529.264 Q101.719 529.264 104.774 533.87 Q107.853 538.454 107.853 547.204 Q107.853 555.93 104.774 560.537 Q101.719 565.12 95.9086 565.12 Q90.0984 565.12 87.0197 560.537 Q83.9642 555.93 83.9642 547.204 Q83.9642 538.454 87.0197 533.87 Q90.0984 529.264 95.9086 529.264 Z" fill="#000000" fill-rule="nonzero" fill-opacity="1" /><path clip-path="url(#clip830)" d="M126.07 532.968 Q122.459 532.968 120.631 536.532 Q118.825 540.074 118.825 547.204 Q118.825 554.31 120.631 557.875 Q122.459 561.416 126.07 561.416 Q129.705 561.416 131.51 557.875 Q133.339 554.31 133.339 547.204 Q133.339 540.074 131.51 536.532 Q129.705 532.968 126.07 532.968 M126.07 529.264 Q131.881 529.264 134.936 533.87 Q138.015 538.454 138.015 547.204 Q138.015 555.93 134.936 560.537 Q131.881 565.12 126.07 565.12 Q120.26 565.12 117.182 560.537 Q114.126 555.93 114.126 547.204 Q114.126 538.454 117.182 533.87 Q120.26 529.264 126.07 529.264 Z" fill="#000000" fill-rule="nonzero" fill-opacity="1" /><path clip-path="url(#clip830)" d="M68.5939 379.883 L56.7884 398.332 L68.5939 398.332 L68.5939 379.883 M67.367 375.809 L73.2466 375.809 L73.2466 398.332 L78.1772 398.332 L78.1772 402.221 L73.2466 402.221 L73.2466 410.369 L68.5939 410.369 L68.5939 402.221 L52.9921 402.221 L52.9921 397.707 L67.367 375.809 Z" fill="#000000" fill-rule="nonzero" fill-opacity="1" /><path clip-path="url(#clip830)" d="M95.9086 378.888 Q92.2975 378.888 90.4688 382.453 Q88.6632 385.994 88.6632 393.124 Q88.6632 400.23 90.4688 403.795 Q92.2975 407.337 95.9086 407.337 Q99.5428 407.337 101.348 403.795 Q103.177 400.23 103.177 393.124 Q103.177 385.994 101.348 382.453 Q99.5428 378.888 95.9086 378.888 M95.9086 375.184 Q101.719 375.184 104.774 379.791 Q107.853 384.374 107.853 393.124 Q107.853 401.851 104.774 406.457 Q101.719 411.04 95.9086 411.04 Q90.0984 411.04 87.0197 406.457 Q83.9642 401.851 83.9642 393.124 Q83.9642 384.374 87.0197 379.791 Q90.0984 375.184 95.9086 375.184 Z" fill="#000000" fill-rule="nonzero" fill-opacity="1" /><path clip-path="url(#clip830)" d="M126.07 378.888 Q122.459 378.888 120.631 382.453 Q118.825 385.994 118.825 393.124 Q118.825 400.23 120.631 403.795 Q122.459 407.337 126.07 407.337 Q129.705 407.337 131.51 403.795 Q133.339 400.23 133.339 393.124 Q133.339 385.994 131.51 382.453 Q129.705 378.888 126.07 378.888 M126.07 375.184 Q131.881 375.184 134.936 379.791 Q138.015 384.374 138.015 393.124 Q138.015 401.851 134.936 406.457 Q131.881 411.04 126.07 411.04 Q120.26 411.04 117.182 406.457 Q114.126 401.851 114.126 393.124 Q114.126 384.374 117.182 379.791 Q120.26 375.184 126.07 375.184 Z" fill="#000000" fill-rule="nonzero" fill-opacity="1" /><path clip-path="url(#clip830)" d="M55.793 221.73 L74.1494 221.73 L74.1494 225.665 L60.0754 225.665 L60.0754 234.137 Q61.0939 233.79 62.1124 233.628 Q63.131 233.442 64.1495 233.442 Q69.9365 233.442 73.3161 236.614 Q76.6957 239.785 76.6957 245.202 Q76.6957 250.78 73.2235 253.882 Q69.7513 256.961 63.4319 256.961 Q61.256 256.961 58.9875 256.59 Q56.7421 256.22 54.3347 255.479 L54.3347 250.78 Q56.418 251.915 58.6402 252.47 Q60.8625 253.026 63.3393 253.026 Q67.3439 253.026 69.6819 250.919 Q72.0198 248.813 72.0198 245.202 Q72.0198 241.591 69.6819 239.484 Q67.3439 237.378 63.3393 237.378 Q61.4643 237.378 59.5893 237.794 Q57.7375 238.211 55.793 239.091 L55.793 221.73 Z" fill="#000000" fill-rule="nonzero" fill-opacity="1" /><path clip-path="url(#clip830)" d="M95.9086 224.808 Q92.2975 224.808 90.4688 228.373 Q88.6632 231.915 88.6632 239.044 Q88.6632 246.151 90.4688 249.716 Q92.2975 253.257 95.9086 253.257 Q99.5428 253.257 101.348 249.716 Q103.177 246.151 103.177 239.044 Q103.177 231.915 101.348 228.373 Q99.5428 224.808 95.9086 224.808 M95.9086 221.105 Q101.719 221.105 104.774 225.711 Q107.853 230.294 107.853 239.044 Q107.853 247.771 104.774 252.378 Q101.719 256.961 95.9086 256.961 Q90.0984 256.961 87.0197 252.378 Q83.9642 247.771 83.9642 239.044 Q83.9642 230.294 87.0197 225.711 Q90.0984 221.105 95.9086 221.105 Z" fill="#000000" fill-rule="nonzero" fill-opacity="1" /><path clip-path="url(#clip830)" d="M126.07 224.808 Q122.459 224.808 120.631 228.373 Q118.825 231.915 118.825 239.044 Q118.825 246.151 120.631 249.716 Q122.459 253.257 126.07 253.257 Q129.705 253.257 131.51 249.716 Q133.339 246.151 133.339 239.044 Q133.339 231.915 131.51 228.373 Q129.705 224.808 126.07 224.808 M126.07 221.105 Q131.881 221.105 134.936 225.711 Q138.015 230.294 138.015 239.044 Q138.015 247.771 134.936 252.378 Q131.881 256.961 126.07 256.961 Q120.26 256.961 117.182 252.378 Q114.126 247.771 114.126 239.044 Q114.126 230.294 117.182 225.711 Q120.26 221.105 126.07 221.105 Z" fill="#000000" fill-rule="nonzero" fill-opacity="1" /><path clip-path="url(#clip830)" d="M287.8 27.2059 L271.394 49.2833 L288.651 72.576 L279.86 72.576 L266.654 54.752 L253.448 72.576 L244.658 72.576 L262.279 48.8377 L246.157 27.2059 L254.947 27.2059 L266.978 43.369 L279.01 27.2059 L287.8 27.2059 Z" fill="#000000" fill-rule="nonzero" fill-opacity="1" /><path clip-path="url(#clip830)" d="M333.656 86.3491 L333.656 92.1419 L290.555 92.1419 L290.555 86.3491 L333.656 86.3491 Z" fill="#000000" fill-rule="nonzero" fill-opacity="1" /><path clip-path="url(#clip830)" d="M340.664 27.2059 L348.118 27.2059 L348.118 72.576 L340.664 72.576 L340.664 27.2059 M340.664 9.54393 L348.118 9.54393 L348.118 18.9825 L340.664 18.9825 L340.664 9.54393 Z" fill="#000000" fill-rule="nonzero" fill-opacity="1" /><path clip-path="url(#clip830)" d="M401.428 45.1919 L401.428 72.576 L393.974 72.576 L393.974 45.4349 Q393.974 38.994 391.463 35.7938 Q388.951 32.5936 383.928 32.5936 Q377.892 32.5936 374.408 36.4419 Q370.925 40.2903 370.925 46.9338 L370.925 72.576 L363.43 72.576 L363.43 27.2059 L370.925 27.2059 L370.925 34.2544 Q373.598 30.163 377.203 28.1376 Q380.849 26.1121 385.589 26.1121 Q393.407 26.1121 397.417 30.9732 Q401.428 35.7938 401.428 45.1919 Z" fill="#000000" fill-rule="nonzero" fill-opacity="1" /><path clip-path="url(#clip830)" d="M410.948 27.2059 L418.847 27.2059 L433.025 65.2844 L447.203 27.2059 L455.102 27.2059 L438.089 72.576 L427.961 72.576 L410.948 27.2059 Z" fill="#000000" fill-rule="nonzero" fill-opacity="1" /><path clip-path="url(#clip830)" d="M504.199 48.0275 L504.199 51.6733 L469.929 51.6733 Q470.415 59.3701 474.547 63.421 Q478.719 67.4314 486.132 67.4314 Q490.426 67.4314 494.437 66.3781 Q498.488 65.3249 502.457 63.2184 L502.457 70.267 Q498.447 71.9684 494.234 72.8596 Q490.021 73.7508 485.687 73.7508 Q474.83 73.7508 468.47 67.4314 Q462.151 61.1119 462.151 50.3365 Q462.151 39.1965 468.146 32.6746 Q474.182 26.1121 484.39 26.1121 Q493.545 26.1121 498.852 32.0264 Q504.199 37.9003 504.199 48.0275 M496.746 45.84 Q496.665 39.7232 493.302 36.0774 Q489.981 32.4315 484.471 32.4315 Q478.233 32.4315 474.466 35.9558 Q470.739 39.4801 470.172 45.8805 L496.746 45.84 Z" fill="#000000" fill-rule="nonzero" fill-opacity="1" /><path clip-path="url(#clip830)" d="M554.147 45.1919 L554.147 72.576 L546.693 72.576 L546.693 45.4349 Q546.693 38.994 544.182 35.7938 Q541.67 32.5936 536.647 32.5936 Q530.611 32.5936 527.127 36.4419 Q523.644 40.2903 523.644 46.9338 L523.644 72.576 L516.149 72.576 L516.149 27.2059 L523.644 27.2059 L523.644 34.2544 Q526.317 30.163 529.923 28.1376 Q533.568 26.1121 538.308 26.1121 Q546.126 26.1121 550.137 30.9732 Q554.147 35.7938 554.147 45.1919 Z" fill="#000000" fill-rule="nonzero" fill-opacity="1" /><path clip-path="url(#clip830)" d="M576.386 14.324 L576.386 27.2059 L591.739 27.2059 L591.739 32.9987 L576.386 32.9987 L576.386 57.6282 Q576.386 63.1779 577.885 64.7578 Q579.425 66.3376 584.083 66.3376 L591.739 66.3376 L591.739 72.576 L584.083 72.576 Q575.455 72.576 572.173 69.3758 Q568.892 66.1351 568.892 57.6282 L568.892 32.9987 L563.424 32.9987 L563.424 27.2059 L568.892 27.2059 L568.892 14.324 L576.386 14.324 Z" fill="#000000" fill-rule="nonzero" fill-opacity="1" /><path clip-path="url(#clip830)" d="M619.123 32.4315 Q613.128 32.4315 609.644 37.1306 Q606.161 41.7891 606.161 49.9314 Q606.161 58.0738 609.604 62.7728 Q613.088 67.4314 619.123 67.4314 Q625.078 67.4314 628.562 62.7323 Q632.046 58.0333 632.046 49.9314 Q632.046 41.8701 628.562 37.1711 Q625.078 32.4315 619.123 32.4315 M619.123 26.1121 Q628.846 26.1121 634.395 32.4315 Q639.945 38.7509 639.945 49.9314 Q639.945 61.0714 634.395 67.4314 Q628.846 73.7508 619.123 73.7508 Q609.361 73.7508 603.811 67.4314 Q598.302 61.0714 598.302 49.9314 Q598.302 38.7509 603.811 32.4315 Q609.361 26.1121 619.123 26.1121 Z" fill="#000000" fill-rule="nonzero" fill-opacity="1" /><path clip-path="url(#clip830)" d="M678.591 34.1734 Q677.335 33.4443 675.836 33.1202 Q674.378 32.7556 672.595 32.7556 Q666.276 32.7556 662.873 36.8875 Q659.511 40.9789 659.511 48.6757 L659.511 72.576 L652.017 72.576 L652.017 27.2059 L659.511 27.2059 L659.511 34.2544 Q661.861 30.1225 665.628 28.1376 Q669.395 26.1121 674.783 26.1121 Q675.553 26.1121 676.484 26.2337 Q677.416 26.3147 678.55 26.5172 L678.591 34.1734 Z" fill="#000000" fill-rule="nonzero" fill-opacity="1" /><path clip-path="url(#clip830)" d="M705.286 76.7889 Q702.127 84.8907 699.129 87.3618 Q696.131 89.8329 691.108 89.8329 L685.153 89.8329 L685.153 83.5945 L689.528 83.5945 Q692.607 83.5945 694.308 82.1361 Q696.01 80.6778 698.076 75.2496 L699.412 71.8468 L681.062 27.2059 L688.961 27.2059 L703.139 62.6918 L717.317 27.2059 L725.217 27.2059 L705.286 76.7889 Z" fill="#000000" fill-rule="nonzero" fill-opacity="1" /><path clip-path="url(#clip830)" d="M724.731 62.2867 L733.278 62.2867 L733.278 72.576 L724.731 72.576 L724.731 62.2867 Z" fill="#000000" fill-rule="nonzero" fill-opacity="1" /><path clip-path="url(#clip830)" d="M767.63 32.4315 Q761.634 32.4315 758.151 37.1306 Q754.667 41.7891 754.667 49.9314 Q754.667 58.0738 758.11 62.7728 Q761.594 67.4314 767.63 67.4314 Q773.584 67.4314 777.068 62.7323 Q780.552 58.0333 780.552 49.9314 Q780.552 41.8701 777.068 37.1711 Q773.584 32.4315 767.63 32.4315 M767.63 26.1121 Q777.352 26.1121 782.902 32.4315 Q788.451 38.7509 788.451 49.9314 Q788.451 61.0714 782.902 67.4314 Q777.352 73.7508 767.63 73.7508 Q757.867 73.7508 752.317 67.4314 Q746.808 61.0714 746.808 49.9314 Q746.808 38.7509 752.317 32.4315 Q757.867 26.1121 767.63 26.1121 Z" fill="#000000" fill-rule="nonzero" fill-opacity="1" /><path clip-path="url(#clip830)" d="M800.037 54.671 L800.037 27.2059 L807.491 27.2059 L807.491 54.3874 Q807.491 60.8284 810.002 64.0691 Q812.514 67.2693 817.537 67.2693 Q823.573 67.2693 827.056 63.421 Q830.581 59.5726 830.581 52.9291 L830.581 27.2059 L838.034 27.2059 L838.034 72.576 L830.581 72.576 L830.581 65.6084 Q827.867 69.7404 824.261 71.7658 Q820.696 73.7508 815.957 73.7508 Q808.139 73.7508 804.088 68.8897 Q800.037 64.0286 800.037 54.671 M818.793 26.1121 L818.793 26.1121 Z" fill="#000000" fill-rule="nonzero" fill-opacity="1" /><path clip-path="url(#clip830)" d="M860.76 14.324 L860.76 27.2059 L876.113 27.2059 L876.113 32.9987 L860.76 32.9987 L860.76 57.6282 Q860.76 63.1779 862.259 64.7578 Q863.798 66.3376 868.457 66.3376 L876.113 66.3376 L876.113 72.576 L868.457 72.576 Q859.828 72.576 856.547 69.3758 Q853.266 66.1351 853.266 57.6282 L853.266 32.9987 L847.797 32.9987 L847.797 27.2059 L853.266 27.2059 L853.266 14.324 L860.76 14.324 Z" fill="#000000" fill-rule="nonzero" fill-opacity="1" /><path clip-path="url(#clip832)" d="M190.224 855.328 L264.257 1009.41 L338.289 1009.41 L412.321 1009.41 L486.353 1009.41 L560.385 1009.41 L634.418 1009.41 L708.45 1009.41 L782.482 1009.41 L856.514 1009.41 L930.546 1009.41 L930.546 672.918 L856.514 407.638 L782.482 193.705 L708.45 168.555 L634.418 143.404 L560.385 143.404 L486.353 143.404 L412.321 143.404 L338.289 143.404 L264.257 143.404 L190.224 855.328  Z" fill="#00467f" fill-rule="evenodd" fill-opacity="0.2"/>
<polyline clip-path="url(#clip832)" style="stroke:#00467f; stroke-linecap:round; stroke-linejoin:round; stroke-width:4; stroke-opacity:0; fill:none" points="190.224,855.328 264.257,576.406 338.289,576.406 412.321,576.406 486.353,576.406 560.385,576.406 634.418,576.406 708.45,588.981 782.482,601.557 856.514,708.523 930.546,841.163 "/>
<path clip-path="url(#clip832)" d="M190.224 855.328 L264.257 950.921 L338.289 944.423 L412.321 1009.41 L486.353 944.423 L560.385 944.423 L634.418 1009.41 L708.45 1009.41 L782.482 1009.41 L856.514 1009.41 L930.546 1009.41 L930.546 1009.41 L856.514 824.055 L782.482 595.999 L708.45 367.698 L634.418 331.368 L560.385 331.368 L486.353 143.404 L412.321 331.368 L338.289 331.368 L264.257 331.368 L190.224 855.328  Z" fill="#00467f" fill-rule="evenodd" fill-opacity="0.2"/>
<polyline clip-path="url(#clip832)" style="stroke:#00467f; stroke-linecap:round; stroke-linejoin:round; stroke-width:4; stroke-opacity:0; fill:none" points="190.224,855.328 264.257,641.145 338.289,637.895 412.321,670.388 486.353,543.914 560.385,637.895 634.418,670.388 708.45,688.553 782.482,802.703 856.514,916.731 930.546,1009.41 "/>
<path clip-path="url(#clip832)" d="M190.224 855.328 L264.257 913.537 L338.289 913.537 L412.321 913.537 L486.353 913.537 L560.385 913.537 L634.418 913.537 L708.45 978.522 L782.482 1009.41 L856.514 1009.41 L930.546 1009.41 L930.546 1009.41 L856.514 1009.41 L782.482 783.963 L708.45 397.171 L634.418 332.187 L560.385 332.187 L486.353 332.187 L412.321 343.699 L338.289 332.187 L264.257 332.187 L190.224 855.328  Z" fill="#00467f" fill-rule="evenodd" fill-opacity="0.2"/>
<polyline clip-path="url(#clip832)" style="stroke:#00467f; stroke-linecap:round; stroke-linejoin:round; stroke-width:4; stroke-opacity:0; fill:none" points="190.224,855.328 264.257,622.862 338.289,622.862 412.321,628.618 486.353,622.862 560.385,622.862 634.418,622.862 708.45,687.847 782.482,896.685 856.514,1009.41 930.546,1009.41 "/>
<polyline clip-path="url(#clip832)" style="stroke:#00467f; stroke-linecap:round; stroke-linejoin:round; stroke-width:4; stroke-opacity:1; fill:none" points="190.224,855.328 264.257,549.978 338.289,692.671 412.321,692.671 486.353,549.978 560.385,549.978 634.418,692.671 708.45,686.309 782.482,1002.57 856.514,1009.41 930.546,1009.41 "/>
<path clip-path="url(#clip830)" d="M1168.01 1035.39 L1952.76 1035.39 L1952.76 117.424 L1168.01 117.424  Z" fill="#ffffff" fill-rule="evenodd" fill-opacity="1"/>
<defs>
  <clipPath id="clip833">
    <rect x="1168" y="117" width="786" height="919"/>
  </clipPath>
</defs>
<polyline clip-path="url(#clip833)" style="stroke:#000000; stroke-linecap:round; stroke-linejoin:round; stroke-width:2; stroke-opacity:0.1; fill:none" points="1264.26,1035.39 1264.26,117.424 "/>
<polyline clip-path="url(#clip833)" style="stroke:#000000; stroke-linecap:round; stroke-linejoin:round; stroke-width:2; stroke-opacity:0.1; fill:none" points="1412.32,1035.39 1412.32,117.424 "/>
<polyline clip-path="url(#clip833)" style="stroke:#000000; stroke-linecap:round; stroke-linejoin:round; stroke-width:2; stroke-opacity:0.1; fill:none" points="1560.39,1035.39 1560.39,117.424 "/>
<polyline clip-path="url(#clip833)" style="stroke:#000000; stroke-linecap:round; stroke-linejoin:round; stroke-width:2; stroke-opacity:0.1; fill:none" points="1708.45,1035.39 1708.45,117.424 "/>
<polyline clip-path="url(#clip833)" style="stroke:#000000; stroke-linecap:round; stroke-linejoin:round; stroke-width:2; stroke-opacity:0.1; fill:none" points="1856.51,1035.39 1856.51,117.424 "/>
<polyline clip-path="url(#clip833)" style="stroke:#000000; stroke-linecap:round; stroke-linejoin:round; stroke-width:2; stroke-opacity:0.1; fill:none" points="1168.01,1009.41 1952.76,1009.41 "/>
<polyline clip-path="url(#clip833)" style="stroke:#000000; stroke-linecap:round; stroke-linejoin:round; stroke-width:2; stroke-opacity:0.1; fill:none" points="1168.01,859.677 1952.76,859.677 "/>
<polyline clip-path="url(#clip833)" style="stroke:#000000; stroke-linecap:round; stroke-linejoin:round; stroke-width:2; stroke-opacity:0.1; fill:none" points="1168.01,709.945 1952.76,709.945 "/>
<polyline clip-path="url(#clip833)" style="stroke:#000000; stroke-linecap:round; stroke-linejoin:round; stroke-width:2; stroke-opacity:0.1; fill:none" points="1168.01,560.214 1952.76,560.214 "/>
<polyline clip-path="url(#clip833)" style="stroke:#000000; stroke-linecap:round; stroke-linejoin:round; stroke-width:2; stroke-opacity:0.1; fill:none" points="1168.01,410.483 1952.76,410.483 "/>
<polyline clip-path="url(#clip833)" style="stroke:#000000; stroke-linecap:round; stroke-linejoin:round; stroke-width:2; stroke-opacity:0.1; fill:none" points="1168.01,260.752 1952.76,260.752 "/>
<polyline clip-path="url(#clip830)" style="stroke:#000000; stroke-linecap:round; stroke-linejoin:round; stroke-width:4; stroke-opacity:1; fill:none" points="1168.01,1035.39 1952.76,1035.39 "/>
<polyline clip-path="url(#clip830)" style="stroke:#000000; stroke-linecap:round; stroke-linejoin:round; stroke-width:4; stroke-opacity:1; fill:none" points="1264.26,1035.39 1264.26,1016.49 "/>
<polyline clip-path="url(#clip830)" style="stroke:#000000; stroke-linecap:round; stroke-linejoin:round; stroke-width:4; stroke-opacity:1; fill:none" points="1412.32,1035.39 1412.32,1016.49 "/>
<polyline clip-path="url(#clip830)" style="stroke:#000000; stroke-linecap:round; stroke-linejoin:round; stroke-width:4; stroke-opacity:1; fill:none" points="1560.39,1035.39 1560.39,1016.49 "/>
<polyline clip-path="url(#clip830)" style="stroke:#000000; stroke-linecap:round; stroke-linejoin:round; stroke-width:4; stroke-opacity:1; fill:none" points="1708.45,1035.39 1708.45,1016.49 "/>
<polyline clip-path="url(#clip830)" style="stroke:#000000; stroke-linecap:round; stroke-linejoin:round; stroke-width:4; stroke-opacity:1; fill:none" points="1856.51,1035.39 1856.51,1016.49 "/>
<path clip-path="url(#clip830)" d="M1258.91 1090.65 L1275.23 1090.65 L1275.23 1094.59 L1253.28 1094.59 L1253.28 1090.65 Q1255.95 1087.9 1260.53 1083.27 Q1265.14 1078.62 1266.32 1077.27 Q1268.56 1074.75 1269.44 1073.01 Q1270.34 1071.25 1270.34 1069.56 Q1270.34 1066.81 1268.4 1065.07 Q1266.48 1063.34 1263.38 1063.34 Q1261.18 1063.34 1258.72 1064.1 Q1256.29 1064.87 1253.52 1066.42 L1253.52 1061.69 Q1256.34 1060.56 1258.79 1059.98 Q1261.25 1059.4 1263.28 1059.4 Q1268.65 1059.4 1271.85 1062.09 Q1275.04 1064.77 1275.04 1069.26 Q1275.04 1071.39 1274.23 1073.31 Q1273.45 1075.21 1271.34 1077.81 Q1270.76 1078.48 1267.66 1081.69 Q1264.56 1084.89 1258.91 1090.65 Z" fill="#000000" fill-rule="nonzero" fill-opacity="1" /><path clip-path="url(#clip830)" d="M1415.33 1064.1 L1403.52 1082.55 L1415.33 1082.55 L1415.33 1064.1 M1414.1 1060.03 L1419.98 1060.03 L1419.98 1082.55 L1424.91 1082.55 L1424.91 1086.44 L1419.98 1086.44 L1419.98 1094.59 L1415.33 1094.59 L1415.33 1086.44 L1399.73 1086.44 L1399.73 1081.93 L1414.1 1060.03 Z" fill="#000000" fill-rule="nonzero" fill-opacity="1" /><path clip-path="url(#clip830)" d="M1560.79 1075.44 Q1557.64 1075.44 1555.79 1077.6 Q1553.96 1079.75 1553.96 1083.5 Q1553.96 1087.23 1555.79 1089.4 Q1557.64 1091.56 1560.79 1091.56 Q1563.94 1091.56 1565.77 1089.4 Q1567.62 1087.23 1567.62 1083.5 Q1567.62 1079.75 1565.77 1077.6 Q1563.94 1075.44 1560.79 1075.44 M1570.07 1060.79 L1570.07 1065.05 Q1568.31 1064.22 1566.51 1063.78 Q1564.73 1063.34 1562.97 1063.34 Q1558.34 1063.34 1555.88 1066.46 Q1553.45 1069.59 1553.11 1075.91 Q1554.47 1073.89 1556.53 1072.83 Q1558.59 1071.74 1561.07 1071.74 Q1566.28 1071.74 1569.29 1074.91 Q1572.32 1078.06 1572.32 1083.5 Q1572.32 1088.82 1569.17 1092.04 Q1566.02 1095.26 1560.79 1095.26 Q1554.8 1095.26 1551.62 1090.68 Q1548.45 1086.07 1548.45 1077.34 Q1548.45 1069.15 1552.34 1064.29 Q1556.23 1059.4 1562.78 1059.4 Q1564.54 1059.4 1566.32 1059.75 Q1568.13 1060.1 1570.07 1060.79 Z" fill="#000000" fill-rule="nonzero" fill-opacity="1" /><path clip-path="url(#clip830)" d="M1708.45 1078.18 Q1705.12 1078.18 1703.2 1079.96 Q1701.3 1081.74 1701.3 1084.87 Q1701.3 1087.99 1703.2 1089.77 Q1705.12 1091.56 1708.45 1091.56 Q1711.78 1091.56 1713.7 1089.77 Q1715.63 1087.97 1715.63 1084.87 Q1715.63 1081.74 1713.7 1079.96 Q1711.81 1078.18 1708.45 1078.18 M1703.77 1076.19 Q1700.76 1075.44 1699.07 1073.38 Q1697.41 1071.32 1697.41 1068.36 Q1697.41 1064.22 1700.35 1061.81 Q1703.31 1059.4 1708.45 1059.4 Q1713.61 1059.4 1716.55 1061.81 Q1719.49 1064.22 1719.49 1068.36 Q1719.49 1071.32 1717.8 1073.38 Q1716.13 1075.44 1713.15 1076.19 Q1716.53 1076.97 1718.4 1079.26 Q1720.3 1081.56 1720.3 1084.87 Q1720.3 1089.89 1717.22 1092.57 Q1714.17 1095.26 1708.45 1095.26 Q1702.73 1095.26 1699.65 1092.57 Q1696.6 1089.89 1696.6 1084.87 Q1696.6 1081.56 1698.5 1079.26 Q1700.39 1076.97 1703.77 1076.19 M1702.06 1068.8 Q1702.06 1071.49 1703.73 1072.99 Q1705.42 1074.5 1708.45 1074.5 Q1711.46 1074.5 1713.15 1072.99 Q1714.86 1071.49 1714.86 1068.8 Q1714.86 1066.12 1713.15 1064.61 Q1711.46 1063.11 1708.45 1063.11 Q1705.42 1063.11 1703.73 1064.61 Q1702.06 1066.12 1702.06 1068.8 Z" fill="#000000" fill-rule="nonzero" fill-opacity="1" /><path clip-path="url(#clip830)" d="M1831.2 1090.65 L1838.84 1090.65 L1838.84 1064.29 L1830.53 1065.95 L1830.53 1061.69 L1838.79 1060.03 L1843.47 1060.03 L1843.47 1090.65 L1851.11 1090.65 L1851.11 1094.59 L1831.2 1094.59 L1831.2 1090.65 Z" fill="#000000" fill-rule="nonzero" fill-opacity="1" /><path clip-path="url(#clip830)" d="M1870.55 1063.11 Q1866.94 1063.11 1865.11 1066.67 Q1863.31 1070.21 1863.31 1077.34 Q1863.31 1084.45 1865.11 1088.01 Q1866.94 1091.56 1870.55 1091.56 Q1874.19 1091.56 1875.99 1088.01 Q1877.82 1084.45 1877.82 1077.34 Q1877.82 1070.21 1875.99 1066.67 Q1874.19 1063.11 1870.55 1063.11 M1870.55 1059.4 Q1876.36 1059.4 1879.42 1064.01 Q1882.5 1068.59 1882.5 1077.34 Q1882.5 1086.07 1879.42 1090.68 Q1876.36 1095.26 1870.55 1095.26 Q1864.74 1095.26 1861.66 1090.68 Q1858.61 1086.07 1858.61 1077.34 Q1858.61 1068.59 1861.66 1064.01 Q1864.74 1059.4 1870.55 1059.4 Z" fill="#000000" fill-rule="nonzero" fill-opacity="1" /><path clip-path="url(#clip830)" d="M1500.68 1128.29 L1500.68 1134.56 Q1497.01 1132.81 1493.77 1131.95 Q1490.52 1131.09 1487.5 1131.09 Q1482.25 1131.09 1479.38 1133.13 Q1476.55 1135.17 1476.55 1138.92 Q1476.55 1142.07 1478.43 1143.7 Q1480.34 1145.29 1485.62 1146.27 L1489.5 1147.07 Q1496.7 1148.44 1500.1 1151.91 Q1503.54 1155.35 1503.54 1161.14 Q1503.54 1168.05 1498.89 1171.61 Q1494.28 1175.17 1485.33 1175.17 Q1481.96 1175.17 1478.14 1174.41 Q1474.35 1173.65 1470.28 1172.15 L1470.28 1165.53 Q1474.19 1167.73 1477.95 1168.84 Q1481.71 1169.95 1485.33 1169.95 Q1490.84 1169.95 1493.83 1167.79 Q1496.82 1165.63 1496.82 1161.62 Q1496.82 1158.11 1494.66 1156.14 Q1492.53 1154.17 1487.63 1153.18 L1483.71 1152.42 Q1476.52 1150.99 1473.3 1147.93 Q1470.09 1144.87 1470.09 1139.43 Q1470.09 1133.13 1474.51 1129.5 Q1478.97 1125.87 1486.77 1125.87 Q1490.11 1125.87 1493.58 1126.48 Q1497.05 1127.08 1500.68 1128.29 Z" fill="#000000" fill-rule="nonzero" fill-opacity="1" /><path clip-path="url(#clip830)" d="M1519.1 1128.48 L1519.1 1138.6 L1531.17 1138.6 L1531.17 1143.16 L1519.1 1143.16 L1519.1 1162.51 Q1519.1 1166.87 1520.28 1168.11 Q1521.49 1169.35 1525.15 1169.35 L1531.17 1169.35 L1531.17 1174.25 L1525.15 1174.25 Q1518.37 1174.25 1515.79 1171.74 Q1513.22 1169.19 1513.22 1162.51 L1513.22 1143.16 L1508.92 1143.16 L1508.92 1138.6 L1513.22 1138.6 L1513.22 1128.48 L1519.1 1128.48 Z" fill="#000000" fill-rule="nonzero" fill-opacity="1" /><path clip-path="url(#clip830)" d="M1555.07 1156.33 Q1547.97 1156.33 1545.23 1157.96 Q1542.5 1159.58 1542.5 1163.49 Q1542.5 1166.61 1544.53 1168.46 Q1546.6 1170.27 1550.14 1170.27 Q1555.01 1170.27 1557.93 1166.84 Q1560.89 1163.37 1560.89 1157.64 L1560.89 1156.33 L1555.07 1156.33 M1566.75 1153.91 L1566.75 1174.25 L1560.89 1174.25 L1560.89 1168.84 Q1558.89 1172.09 1555.9 1173.65 Q1552.91 1175.17 1548.58 1175.17 Q1543.1 1175.17 1539.86 1172.12 Q1536.64 1169.03 1536.64 1163.88 Q1536.64 1157.86 1540.65 1154.8 Q1544.69 1151.75 1552.68 1151.75 L1560.89 1151.75 L1560.89 1151.18 Q1560.89 1147.13 1558.22 1144.94 Q1555.58 1142.71 1550.77 1142.71 Q1547.72 1142.71 1544.82 1143.44 Q1541.92 1144.17 1539.25 1145.64 L1539.25 1140.23 Q1542.47 1138.99 1545.49 1138.38 Q1548.51 1137.74 1551.38 1137.74 Q1559.11 1137.74 1562.93 1141.75 Q1566.75 1145.77 1566.75 1153.91 Z" fill="#000000" fill-rule="nonzero" fill-opacity="1" /><path clip-path="url(#clip830)" d="M1602.27 1156.01 Q1602.27 1149.65 1599.63 1146.15 Q1597.02 1142.65 1592.28 1142.65 Q1587.57 1142.65 1584.93 1146.15 Q1582.32 1149.65 1582.32 1156.01 Q1582.32 1162.35 1584.93 1165.85 Q1587.57 1169.35 1592.28 1169.35 Q1597.02 1169.35 1599.63 1165.85 Q1602.27 1162.35 1602.27 1156.01 M1608.13 1169.83 Q1608.13 1178.93 1604.09 1183.35 Q1600.04 1187.81 1591.7 1187.81 Q1588.62 1187.81 1585.88 1187.33 Q1583.14 1186.89 1580.56 1185.93 L1580.56 1180.24 Q1583.14 1181.64 1585.66 1182.3 Q1588.17 1182.97 1590.78 1182.97 Q1596.54 1182.97 1599.41 1179.95 Q1602.27 1176.96 1602.27 1170.88 L1602.27 1167.98 Q1600.46 1171.13 1597.62 1172.69 Q1594.79 1174.25 1590.85 1174.25 Q1584.29 1174.25 1580.28 1169.25 Q1576.27 1164.26 1576.27 1156.01 Q1576.27 1147.74 1580.28 1142.74 Q1584.29 1137.74 1590.85 1137.74 Q1594.79 1137.74 1597.62 1139.3 Q1600.46 1140.86 1602.27 1144.01 L1602.27 1138.6 L1608.13 1138.6 L1608.13 1169.83 Z" fill="#000000" fill-rule="nonzero" fill-opacity="1" /><path clip-path="url(#clip830)" d="M1650.68 1154.96 L1650.68 1157.83 L1623.76 1157.83 Q1624.14 1163.88 1627.38 1167.06 Q1630.66 1170.21 1636.49 1170.21 Q1639.86 1170.21 1643.01 1169.38 Q1646.2 1168.55 1649.31 1166.9 L1649.31 1172.44 Q1646.16 1173.77 1642.85 1174.47 Q1639.54 1175.17 1636.14 1175.17 Q1627.61 1175.17 1622.61 1170.21 Q1617.64 1165.24 1617.64 1156.78 Q1617.64 1148.03 1622.36 1142.9 Q1627.1 1137.74 1635.12 1137.74 Q1642.31 1137.74 1646.48 1142.39 Q1650.68 1147.01 1650.68 1154.96 M1644.83 1153.25 Q1644.76 1148.44 1642.12 1145.57 Q1639.51 1142.71 1635.18 1142.71 Q1630.28 1142.71 1627.32 1145.48 Q1624.39 1148.25 1623.95 1153.28 L1644.83 1153.25 Z" fill="#000000" fill-rule="nonzero" fill-opacity="1" /><polyline clip-path="url(#clip830)" style="stroke:#000000; stroke-linecap:round; stroke-linejoin:round; stroke-width:4; stroke-opacity:1; fill:none" points="1168.01,1035.39 1168.01,117.424 "/>
<polyline clip-path="url(#clip830)" style="stroke:#000000; stroke-linecap:round; stroke-linejoin:round; stroke-width:4; stroke-opacity:1; fill:none" points="1168.01,1009.41 1186.91,1009.41 "/>
<polyline clip-path="url(#clip830)" style="stroke:#000000; stroke-linecap:round; stroke-linejoin:round; stroke-width:4; stroke-opacity:1; fill:none" points="1168.01,859.677 1186.91,859.677 "/>
<polyline clip-path="url(#clip830)" style="stroke:#000000; stroke-linecap:round; stroke-linejoin:round; stroke-width:4; stroke-opacity:1; fill:none" points="1168.01,709.945 1186.91,709.945 "/>
<polyline clip-path="url(#clip830)" style="stroke:#000000; stroke-linecap:round; stroke-linejoin:round; stroke-width:4; stroke-opacity:1; fill:none" points="1168.01,560.214 1186.91,560.214 "/>
<polyline clip-path="url(#clip830)" style="stroke:#000000; stroke-linecap:round; stroke-linejoin:round; stroke-width:4; stroke-opacity:1; fill:none" points="1168.01,410.483 1186.91,410.483 "/>
<polyline clip-path="url(#clip830)" style="stroke:#000000; stroke-linecap:round; stroke-linejoin:round; stroke-width:4; stroke-opacity:1; fill:none" points="1168.01,260.752 1186.91,260.752 "/>
<path clip-path="url(#clip830)" d="M1126.07 995.206 Q1122.46 995.206 1120.63 998.771 Q1118.83 1002.31 1118.83 1009.44 Q1118.83 1016.55 1120.63 1020.11 Q1122.46 1023.66 1126.07 1023.66 Q1129.7 1023.66 1131.51 1020.11 Q1133.34 1016.55 1133.34 1009.44 Q1133.34 1002.31 1131.51 998.771 Q1129.7 995.206 1126.07 995.206 M1126.07 991.503 Q1131.88 991.503 1134.94 996.109 Q1138.01 1000.69 1138.01 1009.44 Q1138.01 1018.17 1134.94 1022.78 Q1131.88 1027.36 1126.07 1027.36 Q1120.26 1027.36 1117.18 1022.78 Q1114.13 1018.17 1114.13 1009.44 Q1114.13 1000.69 1117.18 996.109 Q1120.26 991.503 1126.07 991.503 Z" fill="#000000" fill-rule="nonzero" fill-opacity="1" /><path clip-path="url(#clip830)" d="M1056.56 873.021 L1064.2 873.021 L1064.2 846.656 L1055.89 848.323 L1055.89 844.063 L1064.15 842.397 L1068.83 842.397 L1068.83 873.021 L1076.46 873.021 L1076.46 876.957 L1056.56 876.957 L1056.56 873.021 Z" fill="#000000" fill-rule="nonzero" fill-opacity="1" /><path clip-path="url(#clip830)" d="M1095.91 845.475 Q1092.3 845.475 1090.47 849.04 Q1088.66 852.582 1088.66 859.711 Q1088.66 866.818 1090.47 870.383 Q1092.3 873.924 1095.91 873.924 Q1099.54 873.924 1101.35 870.383 Q1103.18 866.818 1103.18 859.711 Q1103.18 852.582 1101.35 849.04 Q1099.54 845.475 1095.91 845.475 M1095.91 841.772 Q1101.72 841.772 1104.77 846.378 Q1107.85 850.961 1107.85 859.711 Q1107.85 868.438 1104.77 873.045 Q1101.72 877.628 1095.91 877.628 Q1090.1 877.628 1087.02 873.045 Q1083.96 868.438 1083.96 859.711 Q1083.96 850.961 1087.02 846.378 Q1090.1 841.772 1095.91 841.772 Z" fill="#000000" fill-rule="nonzero" fill-opacity="1" /><path clip-path="url(#clip830)" d="M1126.07 845.475 Q1122.46 845.475 1120.63 849.04 Q1118.83 852.582 1118.83 859.711 Q1118.83 866.818 1120.63 870.383 Q1122.46 873.924 1126.07 873.924 Q1129.7 873.924 1131.51 870.383 Q1133.34 866.818 1133.34 859.711 Q1133.34 852.582 1131.51 849.04 Q1129.7 845.475 1126.07 845.475 M1126.07 841.772 Q1131.88 841.772 1134.94 846.378 Q1138.01 850.961 1138.01 859.711 Q1138.01 868.438 1134.94 873.045 Q1131.88 877.628 1126.07 877.628 Q1120.26 877.628 1117.18 873.045 Q1114.13 868.438 1114.13 859.711 Q1114.13 850.961 1117.18 846.378 Q1120.26 841.772 1126.07 841.772 Z" fill="#000000" fill-rule="nonzero" fill-opacity="1" /><path clip-path="url(#clip830)" d="M1059.77 723.29 L1076.09 723.29 L1076.09 727.225 L1054.15 727.225 L1054.15 723.29 Q1056.81 720.536 1061.39 715.906 Q1066 711.253 1067.18 709.911 Q1069.43 707.388 1070.31 705.652 Q1071.21 703.892 1071.21 702.202 Q1071.21 699.448 1069.27 697.712 Q1067.34 695.976 1064.24 695.976 Q1062.04 695.976 1059.59 696.74 Q1057.16 697.503 1054.38 699.054 L1054.38 694.332 Q1057.21 693.198 1059.66 692.619 Q1062.11 692.04 1064.15 692.04 Q1069.52 692.04 1072.71 694.726 Q1075.91 697.411 1075.91 701.902 Q1075.91 704.031 1075.1 705.952 Q1074.31 707.851 1072.2 710.443 Q1071.63 711.114 1068.52 714.332 Q1065.42 717.526 1059.77 723.29 Z" fill="#000000" fill-rule="nonzero" fill-opacity="1" /><path clip-path="url(#clip830)" d="M1095.91 695.744 Q1092.3 695.744 1090.47 699.309 Q1088.66 702.851 1088.66 709.98 Q1088.66 717.087 1090.47 720.651 Q1092.3 724.193 1095.91 724.193 Q1099.54 724.193 1101.35 720.651 Q1103.18 717.087 1103.18 709.98 Q1103.18 702.851 1101.35 699.309 Q1099.54 695.744 1095.91 695.744 M1095.91 692.04 Q1101.72 692.04 1104.77 696.647 Q1107.85 701.23 1107.85 709.98 Q1107.85 718.707 1104.77 723.313 Q1101.72 727.897 1095.91 727.897 Q1090.1 727.897 1087.02 723.313 Q1083.96 718.707 1083.96 709.98 Q1083.96 701.23 1087.02 696.647 Q1090.1 692.04 1095.91 692.04 Z" fill="#000000" fill-rule="nonzero" fill-opacity="1" /><path clip-path="url(#clip830)" d="M1126.07 695.744 Q1122.46 695.744 1120.63 699.309 Q1118.83 702.851 1118.83 709.98 Q1118.83 717.087 1120.63 720.651 Q1122.46 724.193 1126.07 724.193 Q1129.7 724.193 1131.51 720.651 Q1133.34 717.087 1133.34 709.98 Q1133.34 702.851 1131.51 699.309 Q1129.7 695.744 1126.07 695.744 M1126.07 692.04 Q1131.88 692.04 1134.94 696.647 Q1138.01 701.23 1138.01 709.98 Q1138.01 718.707 1134.94 723.313 Q1131.88 727.897 1126.07 727.897 Q1120.26 727.897 1117.18 723.313 Q1114.13 718.707 1114.13 709.98 Q1114.13 701.23 1117.18 696.647 Q1120.26 692.04 1126.07 692.04 Z" fill="#000000" fill-rule="nonzero" fill-opacity="1" /><path clip-path="url(#clip830)" d="M1069.91 558.86 Q1073.27 559.578 1075.14 561.846 Q1077.04 564.115 1077.04 567.448 Q1077.04 572.564 1073.52 575.365 Q1070.01 578.166 1063.52 578.166 Q1061.35 578.166 1059.03 577.726 Q1056.74 577.309 1054.29 576.453 L1054.29 571.939 Q1056.23 573.073 1058.55 573.652 Q1060.86 574.23 1063.39 574.23 Q1067.78 574.23 1070.08 572.494 Q1072.39 570.758 1072.39 567.448 Q1072.39 564.393 1070.24 562.68 Q1068.11 560.944 1064.29 560.944 L1060.26 560.944 L1060.26 557.101 L1064.47 557.101 Q1067.92 557.101 1069.75 555.735 Q1071.58 554.346 1071.58 551.754 Q1071.58 549.092 1069.68 547.68 Q1067.81 546.245 1064.29 546.245 Q1062.37 546.245 1060.17 546.661 Q1057.97 547.078 1055.33 547.957 L1055.33 543.791 Q1057.99 543.05 1060.31 542.68 Q1062.64 542.309 1064.71 542.309 Q1070.03 542.309 1073.13 544.74 Q1076.23 547.147 1076.23 551.268 Q1076.23 554.138 1074.59 556.129 Q1072.95 558.096 1069.91 558.86 Z" fill="#000000" fill-rule="nonzero" fill-opacity="1" /><path clip-path="url(#clip830)" d="M1095.91 546.013 Q1092.3 546.013 1090.47 549.578 Q1088.66 553.119 1088.66 560.249 Q1088.66 567.356 1090.47 570.92 Q1092.3 574.462 1095.91 574.462 Q1099.54 574.462 1101.35 570.92 Q1103.18 567.356 1103.18 560.249 Q1103.18 553.119 1101.35 549.578 Q1099.54 546.013 1095.91 546.013 M1095.91 542.309 Q1101.72 542.309 1104.77 546.916 Q1107.85 551.499 1107.85 560.249 Q1107.85 568.976 1104.77 573.582 Q1101.72 578.166 1095.91 578.166 Q1090.1 578.166 1087.02 573.582 Q1083.96 568.976 1083.96 560.249 Q1083.96 551.499 1087.02 546.916 Q1090.1 542.309 1095.91 542.309 Z" fill="#000000" fill-rule="nonzero" fill-opacity="1" /><path clip-path="url(#clip830)" d="M1126.07 546.013 Q1122.46 546.013 1120.63 549.578 Q1118.83 553.119 1118.83 560.249 Q1118.83 567.356 1120.63 570.92 Q1122.46 574.462 1126.07 574.462 Q1129.7 574.462 1131.51 570.92 Q1133.34 567.356 1133.34 560.249 Q1133.34 553.119 1131.51 549.578 Q1129.7 546.013 1126.07 546.013 M1126.07 542.309 Q1131.88 542.309 1134.94 546.916 Q1138.01 551.499 1138.01 560.249 Q1138.01 568.976 1134.94 573.582 Q1131.88 578.166 1126.07 578.166 Q1120.26 578.166 1117.18 573.582 Q1114.13 568.976 1114.13 560.249 Q1114.13 551.499 1117.18 546.916 Q1120.26 542.309 1126.07 542.309 Z" fill="#000000" fill-rule="nonzero" fill-opacity="1" /><path clip-path="url(#clip830)" d="M1068.59 397.277 L1056.79 415.726 L1068.59 415.726 L1068.59 397.277 M1067.37 393.203 L1073.25 393.203 L1073.25 415.726 L1078.18 415.726 L1078.18 419.615 L1073.25 419.615 L1073.25 427.763 L1068.59 427.763 L1068.59 419.615 L1052.99 419.615 L1052.99 415.101 L1067.37 393.203 Z" fill="#000000" fill-rule="nonzero" fill-opacity="1" /><path clip-path="url(#clip830)" d="M1095.91 396.282 Q1092.3 396.282 1090.47 399.847 Q1088.66 403.388 1088.66 410.518 Q1088.66 417.624 1090.47 421.189 Q1092.3 424.731 1095.91 424.731 Q1099.54 424.731 1101.35 421.189 Q1103.18 417.624 1103.18 410.518 Q1103.18 403.388 1101.35 399.847 Q1099.54 396.282 1095.91 396.282 M1095.91 392.578 Q1101.72 392.578 1104.77 397.185 Q1107.85 401.768 1107.85 410.518 Q1107.85 419.245 1104.77 423.851 Q1101.72 428.435 1095.91 428.435 Q1090.1 428.435 1087.02 423.851 Q1083.96 419.245 1083.96 410.518 Q1083.96 401.768 1087.02 397.185 Q1090.1 392.578 1095.91 392.578 Z" fill="#000000" fill-rule="nonzero" fill-opacity="1" /><path clip-path="url(#clip830)" d="M1126.07 396.282 Q1122.46 396.282 1120.63 399.847 Q1118.83 403.388 1118.83 410.518 Q1118.83 417.624 1120.63 421.189 Q1122.46 424.731 1126.07 424.731 Q1129.7 424.731 1131.51 421.189 Q1133.34 417.624 1133.34 410.518 Q1133.34 403.388 1131.51 399.847 Q1129.7 396.282 1126.07 396.282 M1126.07 392.578 Q1131.88 392.578 1134.94 397.185 Q1138.01 401.768 1138.01 410.518 Q1138.01 419.245 1134.94 423.851 Q1131.88 428.435 1126.07 428.435 Q1120.26 428.435 1117.18 423.851 Q1114.13 419.245 1114.13 410.518 Q1114.13 401.768 1117.18 397.185 Q1120.26 392.578 1126.07 392.578 Z" fill="#000000" fill-rule="nonzero" fill-opacity="1" /><path clip-path="url(#clip830)" d="M1055.79 243.472 L1074.15 243.472 L1074.15 247.407 L1060.08 247.407 L1060.08 255.879 Q1061.09 255.532 1062.11 255.37 Q1063.13 255.185 1064.15 255.185 Q1069.94 255.185 1073.32 258.356 Q1076.7 261.528 1076.7 266.944 Q1076.7 272.523 1073.22 275.625 Q1069.75 278.703 1063.43 278.703 Q1061.26 278.703 1058.99 278.333 Q1056.74 277.963 1054.33 277.222 L1054.33 272.523 Q1056.42 273.657 1058.64 274.213 Q1060.86 274.768 1063.34 274.768 Q1067.34 274.768 1069.68 272.662 Q1072.02 270.555 1072.02 266.944 Q1072.02 263.333 1069.68 261.227 Q1067.34 259.12 1063.34 259.12 Q1061.46 259.12 1059.59 259.537 Q1057.74 259.954 1055.79 260.833 L1055.79 243.472 Z" fill="#000000" fill-rule="nonzero" fill-opacity="1" /><path clip-path="url(#clip830)" d="M1095.91 246.551 Q1092.3 246.551 1090.47 250.116 Q1088.66 253.657 1088.66 260.787 Q1088.66 267.893 1090.47 271.458 Q1092.3 275 1095.91 275 Q1099.54 275 1101.35 271.458 Q1103.18 267.893 1103.18 260.787 Q1103.18 253.657 1101.35 250.116 Q1099.54 246.551 1095.91 246.551 M1095.91 242.847 Q1101.72 242.847 1104.77 247.454 Q1107.85 252.037 1107.85 260.787 Q1107.85 269.514 1104.77 274.12 Q1101.72 278.703 1095.91 278.703 Q1090.1 278.703 1087.02 274.12 Q1083.96 269.514 1083.96 260.787 Q1083.96 252.037 1087.02 247.454 Q1090.1 242.847 1095.91 242.847 Z" fill="#000000" fill-rule="nonzero" fill-opacity="1" /><path clip-path="url(#clip830)" d="M1126.07 246.551 Q1122.46 246.551 1120.63 250.116 Q1118.83 253.657 1118.83 260.787 Q1118.83 267.893 1120.63 271.458 Q1122.46 275 1126.07 275 Q1129.7 275 1131.51 271.458 Q1133.34 267.893 1133.34 260.787 Q1133.34 253.657 1131.51 250.116 Q1129.7 246.551 1126.07 246.551 M1126.07 242.847 Q1131.88 242.847 1134.94 247.454 Q1138.01 252.037 1138.01 260.787 Q1138.01 269.514 1134.94 274.12 Q1131.88 278.703 1126.07 278.703 Q1120.26 278.703 1117.18 274.12 Q1114.13 269.514 1114.13 260.787 Q1114.13 252.037 1117.18 247.454 Q1120.26 242.847 1126.07 242.847 Z" fill="#000000" fill-rule="nonzero" fill-opacity="1" /><path clip-path="url(#clip830)" d="M1365.5 54.671 L1365.5 27.2059 L1372.95 27.2059 L1372.95 54.3874 Q1372.95 60.8284 1375.46 64.0691 Q1377.97 67.2693 1383 67.2693 Q1389.03 67.2693 1392.52 63.421 Q1396.04 59.5726 1396.04 52.9291 L1396.04 27.2059 L1403.49 27.2059 L1403.49 72.576 L1396.04 72.576 L1396.04 65.6084 Q1393.33 69.7404 1389.72 71.7658 Q1386.16 73.7508 1381.42 73.7508 Q1373.6 73.7508 1369.55 68.8897 Q1365.5 64.0286 1365.5 54.671 M1384.25 26.1121 L1384.25 26.1121 Z" fill="#000000" fill-rule="nonzero" fill-opacity="1" /><path clip-path="url(#clip830)" d="M1453.32 86.3491 L1453.32 92.1419 L1410.22 92.1419 L1410.22 86.3491 L1453.32 86.3491 Z" fill="#000000" fill-rule="nonzero" fill-opacity="1" /><path clip-path="url(#clip830)" d="M1492.9 49.9314 Q1492.9 41.7081 1489.49 37.0496 Q1486.13 32.3505 1480.22 32.3505 Q1474.3 32.3505 1470.9 37.0496 Q1467.54 41.7081 1467.54 49.9314 Q1467.54 58.1548 1470.9 62.8538 Q1474.3 67.5124 1480.22 67.5124 Q1486.13 67.5124 1489.49 62.8538 Q1492.9 58.1548 1492.9 49.9314 M1467.54 34.0924 Q1469.89 30.0415 1473.45 28.0971 Q1477.06 26.1121 1482.04 26.1121 Q1490.3 26.1121 1495.45 32.6746 Q1500.63 39.2371 1500.63 49.9314 Q1500.63 60.6258 1495.45 67.1883 Q1490.3 73.7508 1482.04 73.7508 Q1477.06 73.7508 1473.45 71.8063 Q1469.89 69.8214 1467.54 65.7705 L1467.54 72.576 L1460.04 72.576 L1460.04 9.54393 L1467.54 9.54393 L1467.54 34.0924 Z" fill="#000000" fill-rule="nonzero" fill-opacity="1" /><path clip-path="url(#clip830)" d="M1512.22 54.671 L1512.22 27.2059 L1519.67 27.2059 L1519.67 54.3874 Q1519.67 60.8284 1522.19 64.0691 Q1524.7 67.2693 1529.72 67.2693 Q1535.76 67.2693 1539.24 63.421 Q1542.76 59.5726 1542.76 52.9291 L1542.76 27.2059 L1550.22 27.2059 L1550.22 72.576 L1542.76 72.576 L1542.76 65.6084 Q1540.05 69.7404 1536.44 71.7658 Q1532.88 73.7508 1528.14 73.7508 Q1520.32 73.7508 1516.27 68.8897 Q1512.22 64.0286 1512.22 54.671 M1530.98 26.1121 L1530.98 26.1121 Z" fill="#000000" fill-rule="nonzero" fill-opacity="1" /><path clip-path="url(#clip830)" d="M1584.45 76.7889 Q1581.29 84.8907 1578.29 87.3618 Q1575.29 89.8329 1570.27 89.8329 L1564.31 89.8329 L1564.31 83.5945 L1568.69 83.5945 Q1571.77 83.5945 1573.47 82.1361 Q1575.17 80.6778 1577.24 75.2496 L1578.57 71.8468 L1560.22 27.2059 L1568.12 27.2059 L1582.3 62.6918 L1596.48 27.2059 L1604.38 27.2059 L1584.45 76.7889 Z" fill="#000000" fill-rule="nonzero" fill-opacity="1" /><path clip-path="url(#clip830)" d="M1603.89 62.2867 L1612.44 62.2867 L1612.44 72.576 L1603.89 72.576 L1603.89 62.2867 Z" fill="#000000" fill-rule="nonzero" fill-opacity="1" /><path clip-path="url(#clip830)" d="M1646.79 32.4315 Q1640.8 32.4315 1637.31 37.1306 Q1633.83 41.7891 1633.83 49.9314 Q1633.83 58.0738 1637.27 62.7728 Q1640.76 67.4314 1646.79 67.4314 Q1652.75 67.4314 1656.23 62.7323 Q1659.71 58.0333 1659.71 49.9314 Q1659.71 41.8701 1656.23 37.1711 Q1652.75 32.4315 1646.79 32.4315 M1646.79 26.1121 Q1656.51 26.1121 1662.06 32.4315 Q1667.61 38.7509 1667.61 49.9314 Q1667.61 61.0714 1662.06 67.4314 Q1656.51 73.7508 1646.79 73.7508 Q1637.03 73.7508 1631.48 67.4314 Q1625.97 61.0714 1625.97 49.9314 Q1625.97 38.7509 1631.48 32.4315 Q1637.03 26.1121 1646.79 26.1121 Z" fill="#000000" fill-rule="nonzero" fill-opacity="1" /><path clip-path="url(#clip830)" d="M1679.2 54.671 L1679.2 27.2059 L1686.65 27.2059 L1686.65 54.3874 Q1686.65 60.8284 1689.16 64.0691 Q1691.68 67.2693 1696.7 67.2693 Q1702.73 67.2693 1706.22 63.421 Q1709.74 59.5726 1709.74 52.9291 L1709.74 27.2059 L1717.2 27.2059 L1717.2 72.576 L1709.74 72.576 L1709.74 65.6084 Q1707.03 69.7404 1703.42 71.7658 Q1699.86 73.7508 1695.12 73.7508 Q1687.3 73.7508 1683.25 68.8897 Q1679.2 64.0286 1679.2 54.671 M1697.95 26.1121 L1697.95 26.1121 Z" fill="#000000" fill-rule="nonzero" fill-opacity="1" /><path clip-path="url(#clip830)" d="M1739.92 14.324 L1739.92 27.2059 L1755.27 27.2059 L1755.27 32.9987 L1739.92 32.9987 L1739.92 57.6282 Q1739.92 63.1779 1741.42 64.7578 Q1742.96 66.3376 1747.62 66.3376 L1755.27 66.3376 L1755.27 72.576 L1747.62 72.576 Q1738.99 72.576 1735.71 69.3758 Q1732.43 66.1351 1732.43 57.6282 L1732.43 32.9987 L1726.96 32.9987 L1726.96 27.2059 L1732.43 27.2059 L1732.43 14.324 L1739.92 14.324 Z" fill="#000000" fill-rule="nonzero" fill-opacity="1" /><path clip-path="url(#clip833)" d="M1190.22 293.135 L1264.26 984.967 L1338.29 984.967 L1412.32 984.967 L1486.35 984.967 L1560.39 984.967 L1634.42 1009.41 L1708.45 1009.41 L1782.48 1009.41 L1856.51 1009.41 L1930.55 1009.41 L1930.55 1009.41 L1856.51 1009.41 L1782.48 1009.41 L1708.45 520.075 L1634.42 206.555 L1560.39 143.404 L1486.35 143.404 L1412.32 143.404 L1338.29 143.404 L1264.26 143.404 L1190.22 293.135  Z" fill="#00467f" fill-rule="evenodd" fill-opacity="0.2"/>
<polyline clip-path="url(#clip833)" style="stroke:#00467f; stroke-linecap:round; stroke-linejoin:round; stroke-width:4; stroke-opacity:0; fill:none" points="1190.22,293.135 1264.26,564.186 1338.29,564.186 1412.32,564.186 1486.35,564.186 1560.39,564.186 1634.42,607.981 1708.45,764.741 1782.48,1009.41 1856.51,1009.41 1930.55,1009.41 "/>
<path clip-path="url(#clip833)" d="M1190.22 293.135 L1264.26 802.308 L1338.29 802.308 L1412.32 802.308 L1486.35 984.967 L1560.39 802.308 L1634.42 865.459 L1708.45 1009.41 L1782.48 1009.41 L1856.51 1009.41 L1930.55 1009.41 L1930.55 1009.41 L1856.51 1009.41 L1782.48 1009.41 L1708.45 580.782 L1634.42 206.555 L1560.39 206.555 L1486.35 206.555 L1412.32 143.404 L1338.29 206.555 L1264.26 200.24 L1190.22 293.135  Z" fill="#00467f" fill-rule="evenodd" fill-opacity="0.2"/>
<polyline clip-path="url(#clip833)" style="stroke:#00467f; stroke-linecap:round; stroke-linejoin:round; stroke-width:4; stroke-opacity:0; fill:none" points="1190.22,293.135 1264.26,501.274 1338.29,504.432 1412.32,472.856 1486.35,595.761 1560.39,504.432 1634.42,536.007 1708.45,795.095 1782.48,1009.41 1856.51,1009.41 1930.55,1009.41 "/>
<path clip-path="url(#clip833)" d="M1190.22 293.135 L1264.26 801.513 L1338.29 801.513 L1412.32 790.325 L1486.35 801.513 L1560.39 801.513 L1634.42 864.663 L1708.45 1009.41 L1782.48 1009.41 L1856.51 1009.41 L1930.55 1009.41 L1930.55 1009.41 L1856.51 1009.41 L1782.48 1009.41 L1708.45 613.24 L1634.42 299.72 L1560.39 236.569 L1486.35 236.569 L1412.32 236.569 L1338.29 236.569 L1264.26 236.569 L1190.22 293.135  Z" fill="#00467f" fill-rule="evenodd" fill-opacity="0.2"/>
<polyline clip-path="url(#clip833)" style="stroke:#00467f; stroke-linecap:round; stroke-linejoin:round; stroke-width:4; stroke-opacity:0; fill:none" points="1190.22,293.135 1264.26,519.041 1338.29,519.041 1412.32,513.447 1486.35,519.041 1560.39,519.041 1634.42,582.192 1708.45,811.324 1782.48,1009.41 1856.51,1009.41 1930.55,1009.41 "/>
<polyline clip-path="url(#clip833)" style="stroke:#00467f; stroke-linecap:round; stroke-linejoin:round; stroke-width:4; stroke-opacity:1; fill:none" points="1190.22,293.135 1264.26,589.868 1338.29,451.202 1412.32,451.202 1486.35,589.868 1560.39,589.868 1634.42,514.353 1708.45,897.206 1782.48,1009.41 1856.51,1009.41 1930.55,1009.41 "/>
</svg>
