<?xml version="1.0" encoding="utf-8"?>
<svg xmlns="http://www.w3.org/2000/svg" xmlns:xlink="http://www.w3.org/1999/xlink" width="500" height="300" viewBox="0 0 2000 1200">
<defs>
  <clipPath id="clip860">
    <rect x="0" y="0" width="2000" height="1200"/>
  </clipPath>
</defs>
<path clip-path="url(#clip860)" d="M0 1200 L2000 1200 L2000 0 L0 0  Z" fill="#ffffff" fill-rule="evenodd" fill-opacity="1"/>
<defs>
  <clipPath id="clip861">
    <rect x="400" y="0" width="1401" height="1200"/>
  </clipPath>
</defs>
<path clip-path="url(#clip860)" d="M293.706 1035.39 L1952.76 1035.39 L1952.76 117.424 L293.706 117.424  Z" fill="#ffffff" fill-rule="evenodd" fill-opacity="1"/>
<defs>
  <clipPath id="clip862">
    <rect x="293" y="117" width="1660" height="919"/>
  </clipPath>
</defs>
<polyline clip-path="url(#clip862)" style="stroke:#000000; stroke-linecap:round; stroke-linejoin:round; stroke-width:2; stroke-opacity:0.1; fill:none" points="497.175,1035.39 497.175,117.424 "/>
<polyline clip-path="url(#clip862)" style="stroke:#000000; stroke-linecap:round; stroke-linejoin:round; stroke-width:2; stroke-opacity:0.1; fill:none" points="810.203,1035.39 810.203,117.424 "/>
<polyline clip-path="url(#clip862)" style="stroke:#000000; stroke-linecap:round; stroke-linejoin:round; stroke-width:2; stroke-opacity:0.1; fill:none" points="1123.23,1035.39 1123.23,117.424 "/>
<polyline clip-path="url(#clip862)" style="stroke:#000000; stroke-linecap:round; stroke-linejoin:round; stroke-width:2; stroke-opacity:0.1; fill:none" points="1436.26,1035.39 1436.26,117.424 "/>
<polyline clip-path="url(#clip862)" style="stroke:#000000; stroke-linecap:round; stroke-linejoin:round; stroke-width:2; stroke-opacity:0.1; fill:none" points="1749.29,1035.39 1749.29,117.424 "/>
<polyline clip-path="url(#clip862)" style="stroke:#000000; stroke-linecap:round; stroke-linejoin:round; stroke-width:2; stroke-opacity:0.1; fill:none" points="293.706,1030.87 1952.76,1030.87 "/>
<polyline clip-path="url(#clip862)" style="stroke:#000000; stroke-linecap:round; stroke-linejoin:round; stroke-width:2; stroke-opacity:0.1; fill:none" points="293.706,885.382 1952.76,885.382 "/>
<polyline clip-path="url(#clip862)" style="stroke:#000000; stroke-linecap:round; stroke-linejoin:round; stroke-width:2; stroke-opacity:0.1; fill:none" points="293.706,739.896 1952.76,739.896 "/>
<polyline clip-path="url(#clip862)" style="stroke:#000000; stroke-linecap:round; stroke-linejoin:round; stroke-width:2; stroke-opacity:0.1; fill:none" points="293.706,594.41 1952.76,594.41 "/>
<polyline clip-path="url(#clip862)" style="stroke:#000000; stroke-linecap:round; stroke-linejoin:round; stroke-width:2; stroke-opacity:0.1; fill:none" points="293.706,448.924 1952.76,448.924 "/>
<polyline clip-path="url(#clip862)" style="stroke:#000000; stroke-linecap:round; stroke-linejoin:round; stroke-width:2; stroke-opacity:0.1; fill:none" points="293.706,303.439 1952.76,303.439 "/>
<polyline clip-path="url(#clip862)" style="stroke:#000000; stroke-linecap:round; stroke-linejoin:round; stroke-width:2; stroke-opacity:0.1; fill:none" points="293.706,157.953 1952.76,157.953 "/>
<polyline clip-path="url(#clip860)" style="stroke:#000000; stroke-linecap:round; stroke-linejoin:round; stroke-width:4; stroke-opacity:1; fill:none" points="293.706,1035.39 1952.76,1035.39 "/>
<polyline clip-path="url(#clip860)" style="stroke:#000000; stroke-linecap:round; stroke-linejoin:round; stroke-width:4; stroke-opacity:1; fill:none" points="497.175,1035.39 497.175,1016.49 "/>
<polyline clip-path="url(#clip860)" style="stroke:#000000; stroke-linecap:round; stroke-linejoin:round; stroke-width:4; stroke-opacity:1; fill:none" points="810.203,1035.39 810.203,1016.49 "/>
<polyline clip-path="url(#clip860)" style="stroke:#000000; stroke-linecap:round; stroke-linejoin:round; stroke-width:4; stroke-opacity:1; fill:none" points="1123.23,1035.39 1123.23,1016.49 "/>
<polyline clip-path="url(#clip860)" style="stroke:#000000; stroke-linecap:round; stroke-linejoin:round; stroke-width:4; stroke-opacity:1; fill:none" points="1436.26,1035.39 1436.26,1016.49 "/>
<polyline clip-path="url(#clip860)" style="stroke:#000000; stroke-linecap:round; stroke-linejoin:round; stroke-width:4; stroke-opacity:1; fill:none" points="1749.29,1035.39 1749.29,1016.49 "/>
<path clip-path="url(#clip860)" d="M491.828 1090.65 L508.147 1090.65 L508.147 1094.59 L486.203 1094.59 L486.203 1090.65 Q488.865 1087.9 493.448 1083.27 Q498.054 1078.62 499.235 1077.27 Q501.48 1074.75 502.36 1073.01 Q503.263 1071.25 503.263 1069.56 Q503.263 1066.81 501.318 1065.07 Q499.397 1063.34 496.295 1063.34 Q494.096 1063.34 491.642 1064.1 Q489.212 1064.87 486.434 1066.42 L486.434 1061.69 Q489.258 1060.56 491.712 1059.98 Q494.166 1059.4 496.203 1059.4 Q501.573 1059.4 504.767 1062.09 Q507.962 1064.77 507.962 1069.26 Q507.962 1071.39 507.152 1073.31 Q506.365 1075.21 504.258 1077.81 Q503.679 1078.48 500.578 1081.69 Q497.476 1084.89 491.828 1090.65 Z" fill="#000000" fill-rule="nonzero" fill-opacity="1" /><path clip-path="url(#clip860)" d="M813.212 1064.1 L801.407 1082.55 L813.212 1082.55 L813.212 1064.1 M811.985 1060.03 L817.865 1060.03 L817.865 1082.55 L822.795 1082.55 L822.795 1086.44 L817.865 1086.44 L817.865 1094.59 L813.212 1094.59 L813.212 1086.44 L797.61 1086.44 L797.61 1081.93 L811.985 1060.03 Z" fill="#000000" fill-rule="nonzero" fill-opacity="1" /><path clip-path="url(#clip860)" d="M1123.64 1075.44 Q1120.49 1075.44 1118.64 1077.6 Q1116.81 1079.75 1116.81 1083.5 Q1116.81 1087.23 1118.64 1089.4 Q1120.49 1091.56 1123.64 1091.56 Q1126.78 1091.56 1128.61 1089.4 Q1130.46 1087.23 1130.46 1083.5 Q1130.46 1079.75 1128.61 1077.6 Q1126.78 1075.44 1123.64 1075.44 M1132.92 1060.79 L1132.92 1065.05 Q1131.16 1064.22 1129.35 1063.78 Q1127.57 1063.34 1125.81 1063.34 Q1121.18 1063.34 1118.73 1066.46 Q1116.3 1069.59 1115.95 1075.91 Q1117.32 1073.89 1119.38 1072.83 Q1121.44 1071.74 1123.91 1071.74 Q1129.12 1071.74 1132.13 1074.91 Q1135.16 1078.06 1135.16 1083.5 Q1135.16 1088.82 1132.02 1092.04 Q1128.87 1095.26 1123.64 1095.26 Q1117.64 1095.26 1114.47 1090.68 Q1111.3 1086.07 1111.3 1077.34 Q1111.3 1069.15 1115.19 1064.29 Q1119.08 1059.4 1125.63 1059.4 Q1127.39 1059.4 1129.17 1059.75 Q1130.97 1060.1 1132.92 1060.79 Z" fill="#000000" fill-rule="nonzero" fill-opacity="1" /><path clip-path="url(#clip860)" d="M1436.26 1078.18 Q1432.93 1078.18 1431 1079.96 Q1429.11 1081.74 1429.11 1084.87 Q1429.11 1087.99 1431 1089.77 Q1432.93 1091.56 1436.26 1091.56 Q1439.59 1091.56 1441.51 1089.77 Q1443.44 1087.97 1443.44 1084.87 Q1443.44 1081.74 1441.51 1079.96 Q1439.62 1078.18 1436.26 1078.18 M1431.58 1076.19 Q1428.57 1075.44 1426.88 1073.38 Q1425.22 1071.32 1425.22 1068.36 Q1425.22 1064.22 1428.16 1061.81 Q1431.12 1059.4 1436.26 1059.4 Q1441.42 1059.4 1444.36 1061.81 Q1447.3 1064.22 1447.3 1068.36 Q1447.3 1071.32 1445.61 1073.38 Q1443.94 1075.44 1440.96 1076.19 Q1444.34 1076.97 1446.21 1079.26 Q1448.11 1081.56 1448.11 1084.87 Q1448.11 1089.89 1445.03 1092.57 Q1441.98 1095.26 1436.26 1095.26 Q1430.54 1095.26 1427.46 1092.57 Q1424.41 1089.89 1424.41 1084.87 Q1424.41 1081.56 1426.31 1079.26 Q1428.2 1076.97 1431.58 1076.19 M1429.87 1068.8 Q1429.87 1071.49 1431.54 1072.99 Q1433.23 1074.5 1436.26 1074.5 Q1439.27 1074.5 1440.96 1072.99 Q1442.67 1071.49 1442.67 1068.8 Q1442.67 1066.12 1440.96 1064.61 Q1439.27 1063.11 1436.26 1063.11 Q1433.23 1063.11 1431.54 1064.61 Q1429.87 1066.12 1429.87 1068.8 Z" fill="#000000" fill-rule="nonzero" fill-opacity="1" /><path clip-path="url(#clip860)" d="M1723.98 1090.65 L1731.61 1090.65 L1731.61 1064.29 L1723.3 1065.95 L1723.3 1061.69 L1731.57 1060.03 L1736.24 1060.03 L1736.24 1090.65 L1743.88 1090.65 L1743.88 1094.59 L1723.98 1094.59 L1723.98 1090.65 Z" fill="#000000" fill-rule="nonzero" fill-opacity="1" /><path clip-path="url(#clip860)" d="M1763.33 1063.11 Q1759.72 1063.11 1757.89 1066.67 Q1756.08 1070.21 1756.08 1077.34 Q1756.08 1084.45 1757.89 1088.01 Q1759.72 1091.56 1763.33 1091.56 Q1766.96 1091.56 1768.77 1088.01 Q1770.6 1084.45 1770.6 1077.34 Q1770.6 1070.21 1768.77 1066.67 Q1766.96 1063.11 1763.33 1063.11 M1763.33 1059.4 Q1769.14 1059.4 1772.19 1064.01 Q1775.27 1068.59 1775.27 1077.34 Q1775.27 1086.07 1772.19 1090.68 Q1769.14 1095.26 1763.33 1095.26 Q1757.52 1095.26 1754.44 1090.68 Q1751.38 1086.07 1751.38 1077.34 Q1751.38 1068.59 1754.44 1064.01 Q1757.52 1059.4 1763.33 1059.4 Z" fill="#000000" fill-rule="nonzero" fill-opacity="1" /><path clip-path="url(#clip860)" d="M1063.52 1128.29 L1063.52 1134.56 Q1059.86 1132.81 1056.61 1131.95 Q1053.37 1131.09 1050.34 1131.09 Q1045.09 1131.09 1042.23 1133.13 Q1039.39 1135.17 1039.39 1138.92 Q1039.39 1142.07 1041.27 1143.7 Q1043.18 1145.29 1048.47 1146.27 L1052.35 1147.07 Q1059.54 1148.44 1062.95 1151.91 Q1066.39 1155.35 1066.39 1161.14 Q1066.39 1168.05 1061.74 1171.61 Q1057.12 1175.17 1048.18 1175.17 Q1044.81 1175.17 1040.99 1174.41 Q1037.2 1173.65 1033.12 1172.15 L1033.12 1165.53 Q1037.04 1167.73 1040.8 1168.84 Q1044.55 1169.95 1048.18 1169.95 Q1053.69 1169.95 1056.68 1167.79 Q1059.67 1165.63 1059.67 1161.62 Q1059.67 1158.11 1057.51 1156.14 Q1055.37 1154.17 1050.47 1153.18 L1046.56 1152.42 Q1039.36 1150.99 1036.15 1147.93 Q1032.93 1144.87 1032.93 1139.43 Q1032.93 1133.13 1037.36 1129.5 Q1041.81 1125.87 1049.61 1125.87 Q1052.95 1125.87 1056.42 1126.48 Q1059.89 1127.08 1063.52 1128.29 Z" fill="#000000" fill-rule="nonzero" fill-opacity="1" /><path clip-path="url(#clip860)" d="M1081.95 1128.48 L1081.95 1138.6 L1094.01 1138.6 L1094.01 1143.16 L1081.95 1143.16 L1081.95 1162.51 Q1081.95 1166.87 1083.13 1168.11 Q1084.34 1169.35 1088 1169.35 L1094.01 1169.35 L1094.01 1174.25 L1088 1174.25 Q1081.22 1174.25 1078.64 1171.74 Q1076.06 1169.19 1076.06 1162.51 L1076.06 1143.16 L1071.76 1143.16 L1071.76 1138.6 L1076.06 1138.6 L1076.06 1128.48 L1081.95 1128.48 Z" fill="#000000" fill-rule="nonzero" fill-opacity="1" /><path clip-path="url(#clip860)" d="M1117.92 1156.33 Q1110.82 1156.33 1108.08 1157.96 Q1105.34 1159.58 1105.34 1163.49 Q1105.34 1166.61 1107.38 1168.46 Q1109.45 1170.27 1112.98 1170.27 Q1117.85 1170.27 1120.78 1166.84 Q1123.74 1163.37 1123.74 1157.64 L1123.74 1156.33 L1117.92 1156.33 M1129.6 1153.91 L1129.6 1174.25 L1123.74 1174.25 L1123.74 1168.84 Q1121.74 1172.09 1118.74 1173.65 Q1115.75 1175.17 1111.42 1175.17 Q1105.95 1175.17 1102.7 1172.12 Q1099.49 1169.03 1099.49 1163.88 Q1099.49 1157.86 1103.5 1154.8 Q1107.54 1151.75 1115.53 1151.75 L1123.74 1151.75 L1123.74 1151.18 Q1123.74 1147.13 1121.07 1144.94 Q1118.43 1142.71 1113.62 1142.71 Q1110.56 1142.71 1107.67 1143.44 Q1104.77 1144.17 1102.1 1145.64 L1102.1 1140.23 Q1105.31 1138.99 1108.34 1138.38 Q1111.36 1137.74 1114.22 1137.74 Q1121.96 1137.74 1125.78 1141.75 Q1129.6 1145.77 1129.6 1153.91 Z" fill="#000000" fill-rule="nonzero" fill-opacity="1" /><path clip-path="url(#clip860)" d="M1165.12 1156.01 Q1165.12 1149.65 1162.48 1146.15 Q1159.87 1142.65 1155.12 1142.65 Q1150.41 1142.65 1147.77 1146.15 Q1145.16 1149.65 1145.16 1156.01 Q1145.16 1162.35 1147.77 1165.85 Q1150.41 1169.35 1155.12 1169.35 Q1159.87 1169.35 1162.48 1165.85 Q1165.12 1162.35 1165.12 1156.01 M1170.97 1169.83 Q1170.97 1178.93 1166.93 1183.35 Q1162.89 1187.81 1154.55 1187.81 Q1151.46 1187.81 1148.73 1187.33 Q1145.99 1186.89 1143.41 1185.93 L1143.41 1180.24 Q1145.99 1181.64 1148.5 1182.3 Q1151.02 1182.97 1153.63 1182.97 Q1159.39 1182.97 1162.25 1179.95 Q1165.12 1176.96 1165.12 1170.88 L1165.12 1167.98 Q1163.3 1171.13 1160.47 1172.69 Q1157.64 1174.25 1153.69 1174.25 Q1147.13 1174.25 1143.12 1169.25 Q1139.11 1164.26 1139.11 1156.01 Q1139.11 1147.74 1143.12 1142.74 Q1147.13 1137.74 1153.69 1137.74 Q1157.64 1137.74 1160.47 1139.3 Q1163.3 1140.86 1165.12 1144.01 L1165.12 1138.6 L1170.97 1138.6 L1170.97 1169.83 Z" fill="#000000" fill-rule="nonzero" fill-opacity="1" /><path clip-path="url(#clip860)" d="M1213.53 1154.96 L1213.53 1157.83 L1186.6 1157.83 Q1186.98 1163.88 1190.23 1167.06 Q1193.51 1170.21 1199.33 1170.21 Q1202.71 1170.21 1205.86 1169.38 Q1209.04 1168.55 1212.16 1166.9 L1212.16 1172.44 Q1209.01 1173.77 1205.7 1174.47 Q1202.39 1175.17 1198.98 1175.17 Q1190.45 1175.17 1185.46 1170.21 Q1180.49 1165.24 1180.49 1156.78 Q1180.49 1148.03 1185.2 1142.9 Q1189.94 1137.74 1197.96 1137.74 Q1205.16 1137.74 1209.33 1142.39 Q1213.53 1147.01 1213.53 1154.96 M1207.67 1153.25 Q1207.61 1148.44 1204.97 1145.57 Q1202.36 1142.71 1198.03 1142.71 Q1193.13 1142.71 1190.17 1145.48 Q1187.24 1148.25 1186.79 1153.28 L1207.67 1153.25 Z" fill="#000000" fill-rule="nonzero" fill-opacity="1" /><polyline clip-path="url(#clip860)" style="stroke:#000000; stroke-linecap:round; stroke-linejoin:round; stroke-width:4; stroke-opacity:1; fill:none" points="293.706,1035.39 293.706,117.424 "/>
<polyline clip-path="url(#clip860)" style="stroke:#000000; stroke-linecap:round; stroke-linejoin:round; stroke-width:4; stroke-opacity:1; fill:none" points="293.706,1030.87 312.604,1030.87 "/>
<polyline clip-path="url(#clip860)" style="stroke:#000000; stroke-linecap:round; stroke-linejoin:round; stroke-width:4; stroke-opacity:1; fill:none" points="293.706,885.382 312.604,885.382 "/>
<polyline clip-path="url(#clip860)" style="stroke:#000000; stroke-linecap:round; stroke-linejoin:round; stroke-width:4; stroke-opacity:1; fill:none" points="293.706,739.896 312.604,739.896 "/>
<polyline clip-path="url(#clip860)" style="stroke:#000000; stroke-linecap:round; stroke-linejoin:round; stroke-width:4; stroke-opacity:1; fill:none" points="293.706,594.41 312.604,594.41 "/>
<polyline clip-path="url(#clip860)" style="stroke:#000000; stroke-linecap:round; stroke-linejoin:round; stroke-width:4; stroke-opacity:1; fill:none" points="293.706,448.924 312.604,448.924 "/>
<polyline clip-path="url(#clip860)" style="stroke:#000000; stroke-linecap:round; stroke-linejoin:round; stroke-width:4; stroke-opacity:1; fill:none" points="293.706,303.439 312.604,303.439 "/>
<polyline clip-path="url(#clip860)" style="stroke:#000000; stroke-linecap:round; stroke-linejoin:round; stroke-width:4; stroke-opacity:1; fill:none" points="293.706,157.953 312.604,157.953 "/>
<path clip-path="url(#clip860)" d="M111.508 1031.32 L141.184 1031.32 L141.184 1035.25 L111.508 1035.25 L111.508 1031.32 Z" fill="#000000" fill-rule="nonzero" fill-opacity="1" /><path clip-path="url(#clip860)" d="M161.855 1029 Q158.707 1029 156.855 1031.16 Q155.026 1033.31 155.026 1037.06 Q155.026 1040.79 156.855 1042.96 Q158.707 1045.12 161.855 1045.12 Q165.003 1045.12 166.832 1042.96 Q168.684 1040.79 168.684 1037.06 Q168.684 1033.31 166.832 1031.16 Q165.003 1029 161.855 1029 M171.137 1014.35 L171.137 1018.61 Q169.378 1017.78 167.573 1017.34 Q165.79 1016.9 164.031 1016.9 Q159.401 1016.9 156.948 1020.02 Q154.517 1023.15 154.17 1029.47 Q155.536 1027.45 157.596 1026.39 Q159.656 1025.3 162.133 1025.3 Q167.341 1025.3 170.35 1028.47 Q173.383 1031.62 173.383 1037.06 Q173.383 1042.38 170.235 1045.6 Q167.087 1048.82 161.855 1048.82 Q155.86 1048.82 152.688 1044.24 Q149.517 1039.63 149.517 1030.9 Q149.517 1022.71 153.406 1017.85 Q157.295 1012.96 163.846 1012.96 Q165.605 1012.96 167.387 1013.31 Q169.193 1013.66 171.137 1014.35 Z" fill="#000000" fill-rule="nonzero" fill-opacity="1" /><path clip-path="url(#clip860)" d="M191.438 1016.67 Q187.827 1016.67 185.998 1020.23 Q184.193 1023.77 184.193 1030.9 Q184.193 1038.01 185.998 1041.57 Q187.827 1045.12 191.438 1045.12 Q195.073 1045.12 196.878 1041.57 Q198.707 1038.01 198.707 1030.9 Q198.707 1023.77 196.878 1020.23 Q195.073 1016.67 191.438 1016.67 M191.438 1012.96 Q197.248 1012.96 200.304 1017.57 Q203.383 1022.15 203.383 1030.9 Q203.383 1039.63 200.304 1044.24 Q197.248 1048.82 191.438 1048.82 Q185.628 1048.82 182.549 1044.24 Q179.494 1039.63 179.494 1030.9 Q179.494 1022.15 182.549 1017.57 Q185.628 1012.96 191.438 1012.96 Z" fill="#000000" fill-rule="nonzero" fill-opacity="1" /><path clip-path="url(#clip860)" d="M221.6 1016.67 Q217.989 1016.67 216.16 1020.23 Q214.355 1023.77 214.355 1030.9 Q214.355 1038.01 216.16 1041.57 Q217.989 1045.12 221.6 1045.12 Q225.234 1045.12 227.04 1041.57 Q228.869 1038.01 228.869 1030.9 Q228.869 1023.77 227.04 1020.23 Q225.234 1016.67 221.6 1016.67 M221.6 1012.96 Q227.41 1012.96 230.466 1017.57 Q233.545 1022.15 233.545 1030.9 Q233.545 1039.63 230.466 1044.24 Q227.41 1048.82 221.6 1048.82 Q215.79 1048.82 212.711 1044.24 Q209.656 1039.63 209.656 1030.9 Q209.656 1022.15 212.711 1017.57 Q215.79 1012.96 221.6 1012.96 Z" fill="#000000" fill-rule="nonzero" fill-opacity="1" /><path clip-path="url(#clip860)" d="M251.762 1016.67 Q248.151 1016.67 246.322 1020.23 Q244.517 1023.77 244.517 1030.9 Q244.517 1038.01 246.322 1041.57 Q248.151 1045.12 251.762 1045.12 Q255.396 1045.12 257.202 1041.57 Q259.031 1038.01 259.031 1030.9 Q259.031 1023.77 257.202 1020.23 Q255.396 1016.67 251.762 1016.67 M251.762 1012.96 Q257.572 1012.96 260.628 1017.57 Q263.706 1022.15 263.706 1030.9 Q263.706 1039.63 260.628 1044.24 Q257.572 1048.82 251.762 1048.82 Q245.952 1048.82 242.873 1044.24 Q239.818 1039.63 239.818 1030.9 Q239.818 1022.15 242.873 1017.57 Q245.952 1012.96 251.762 1012.96 Z" fill="#000000" fill-rule="nonzero" fill-opacity="1" /><path clip-path="url(#clip860)" d="M111.508 885.833 L141.184 885.833 L141.184 889.768 L111.508 889.768 L111.508 885.833 Z" fill="#000000" fill-rule="nonzero" fill-opacity="1" /><path clip-path="url(#clip860)" d="M151.323 868.102 L169.679 868.102 L169.679 872.037 L155.605 872.037 L155.605 880.509 Q156.624 880.162 157.642 880 Q158.661 879.815 159.679 879.815 Q165.466 879.815 168.846 882.986 Q172.225 886.157 172.225 891.574 Q172.225 897.153 168.753 900.254 Q165.281 903.333 158.962 903.333 Q156.786 903.333 154.517 902.963 Q152.272 902.592 149.864 901.852 L149.864 897.153 Q151.948 898.287 154.17 898.842 Q156.392 899.398 158.869 899.398 Q162.874 899.398 165.212 897.291 Q167.55 895.185 167.55 891.574 Q167.55 887.963 165.212 885.856 Q162.874 883.75 158.869 883.75 Q156.994 883.75 155.119 884.166 Q153.267 884.583 151.323 885.463 L151.323 868.102 Z" fill="#000000" fill-rule="nonzero" fill-opacity="1" /><path clip-path="url(#clip860)" d="M191.438 871.18 Q187.827 871.18 185.998 874.745 Q184.193 878.287 184.193 885.416 Q184.193 892.523 185.998 896.088 Q187.827 899.629 191.438 899.629 Q195.073 899.629 196.878 896.088 Q198.707 892.523 198.707 885.416 Q198.707 878.287 196.878 874.745 Q195.073 871.18 191.438 871.18 M191.438 867.477 Q197.248 867.477 200.304 872.083 Q203.383 876.667 203.383 885.416 Q203.383 894.143 200.304 898.75 Q197.248 903.333 191.438 903.333 Q185.628 903.333 182.549 898.75 Q179.494 894.143 179.494 885.416 Q179.494 876.667 182.549 872.083 Q185.628 867.477 191.438 867.477 Z" fill="#000000" fill-rule="nonzero" fill-opacity="1" /><path clip-path="url(#clip860)" d="M221.6 871.18 Q217.989 871.18 216.16 874.745 Q214.355 878.287 214.355 885.416 Q214.355 892.523 216.16 896.088 Q217.989 899.629 221.6 899.629 Q225.234 899.629 227.04 896.088 Q228.869 892.523 228.869 885.416 Q228.869 878.287 227.04 874.745 Q225.234 871.18 221.6 871.18 M221.6 867.477 Q227.41 867.477 230.466 872.083 Q233.545 876.667 233.545 885.416 Q233.545 894.143 230.466 898.75 Q227.41 903.333 221.6 903.333 Q215.79 903.333 212.711 898.75 Q209.656 894.143 209.656 885.416 Q209.656 876.667 212.711 872.083 Q215.79 867.477 221.6 867.477 Z" fill="#000000" fill-rule="nonzero" fill-opacity="1" /><path clip-path="url(#clip860)" d="M251.762 871.18 Q248.151 871.18 246.322 874.745 Q244.517 878.287 244.517 885.416 Q244.517 892.523 246.322 896.088 Q248.151 899.629 251.762 899.629 Q255.396 899.629 257.202 896.088 Q259.031 892.523 259.031 885.416 Q259.031 878.287 257.202 874.745 Q255.396 871.18 251.762 871.18 M251.762 867.477 Q257.572 867.477 260.628 872.083 Q263.706 876.667 263.706 885.416 Q263.706 894.143 260.628 898.75 Q257.572 903.333 251.762 903.333 Q245.952 903.333 242.873 898.75 Q239.818 894.143 239.818 885.416 Q239.818 876.667 242.873 872.083 Q245.952 867.477 251.762 867.477 Z" fill="#000000" fill-rule="nonzero" fill-opacity="1" /><path clip-path="url(#clip860)" d="M111.508 740.347 L141.184 740.347 L141.184 744.283 L111.508 744.283 L111.508 740.347 Z" fill="#000000" fill-rule="nonzero" fill-opacity="1" /><path clip-path="url(#clip860)" d="M164.124 726.69 L152.318 745.139 L164.124 745.139 L164.124 726.69 M162.897 722.616 L168.776 722.616 L168.776 745.139 L173.707 745.139 L173.707 749.028 L168.776 749.028 L168.776 757.176 L164.124 757.176 L164.124 749.028 L148.522 749.028 L148.522 744.514 L162.897 722.616 Z" fill="#000000" fill-rule="nonzero" fill-opacity="1" /><path clip-path="url(#clip860)" d="M191.438 725.695 Q187.827 725.695 185.998 729.259 Q184.193 732.801 184.193 739.931 Q184.193 747.037 185.998 750.602 Q187.827 754.144 191.438 754.144 Q195.073 754.144 196.878 750.602 Q198.707 747.037 198.707 739.931 Q198.707 732.801 196.878 729.259 Q195.073 725.695 191.438 725.695 M191.438 721.991 Q197.248 721.991 200.304 726.597 Q203.383 731.181 203.383 739.931 Q203.383 748.657 200.304 753.264 Q197.248 757.847 191.438 757.847 Q185.628 757.847 182.549 753.264 Q179.494 748.657 179.494 739.931 Q179.494 731.181 182.549 726.597 Q185.628 721.991 191.438 721.991 Z" fill="#000000" fill-rule="nonzero" fill-opacity="1" /><path clip-path="url(#clip860)" d="M221.6 725.695 Q217.989 725.695 216.16 729.259 Q214.355 732.801 214.355 739.931 Q214.355 747.037 216.16 750.602 Q217.989 754.144 221.6 754.144 Q225.234 754.144 227.04 750.602 Q228.869 747.037 228.869 739.931 Q228.869 732.801 227.04 729.259 Q225.234 725.695 221.6 725.695 M221.6 721.991 Q227.41 721.991 230.466 726.597 Q233.545 731.181 233.545 739.931 Q233.545 748.657 230.466 753.264 Q227.41 757.847 221.6 757.847 Q215.79 757.847 212.711 753.264 Q209.656 748.657 209.656 739.931 Q209.656 731.181 212.711 726.597 Q215.79 721.991 221.6 721.991 Z" fill="#000000" fill-rule="nonzero" fill-opacity="1" /><path clip-path="url(#clip860)" d="M251.762 725.695 Q248.151 725.695 246.322 729.259 Q244.517 732.801 244.517 739.931 Q244.517 747.037 246.322 750.602 Q248.151 754.144 251.762 754.144 Q255.396 754.144 257.202 750.602 Q259.031 747.037 259.031 739.931 Q259.031 732.801 257.202 729.259 Q255.396 725.695 251.762 725.695 M251.762 721.991 Q257.572 721.991 260.628 726.597 Q263.706 731.181 263.706 739.931 Q263.706 748.657 260.628 753.264 Q257.572 757.847 251.762 757.847 Q245.952 757.847 242.873 753.264 Q239.818 748.657 239.818 739.931 Q239.818 731.181 242.873 726.597 Q245.952 721.991 251.762 721.991 Z" fill="#000000" fill-rule="nonzero" fill-opacity="1" /><path clip-path="url(#clip860)" d="M111.508 594.862 L141.184 594.862 L141.184 598.797 L111.508 598.797 L111.508 594.862 Z" fill="#000000" fill-rule="nonzero" fill-opacity="1" /><path clip-path="url(#clip860)" d="M165.443 593.056 Q168.8 593.774 170.675 596.042 Q172.573 598.311 172.573 601.644 Q172.573 606.76 169.054 609.561 Q165.536 612.361 159.054 612.361 Q156.878 612.361 154.563 611.922 Q152.272 611.505 149.818 610.649 L149.818 606.135 Q151.763 607.269 154.077 607.848 Q156.392 608.426 158.915 608.426 Q163.313 608.426 165.605 606.69 Q167.92 604.954 167.92 601.644 Q167.92 598.588 165.767 596.875 Q163.638 595.139 159.818 595.139 L155.79 595.139 L155.79 591.297 L160.003 591.297 Q163.452 591.297 165.281 589.931 Q167.11 588.542 167.11 585.95 Q167.11 583.288 165.212 581.876 Q163.337 580.44 159.818 580.44 Q157.897 580.44 155.698 580.857 Q153.499 581.274 150.86 582.153 L150.86 577.987 Q153.522 577.246 155.837 576.876 Q158.175 576.505 160.235 576.505 Q165.559 576.505 168.661 578.936 Q171.762 581.343 171.762 585.463 Q171.762 588.334 170.119 590.325 Q168.475 592.292 165.443 593.056 Z" fill="#000000" fill-rule="nonzero" fill-opacity="1" /><path clip-path="url(#clip860)" d="M191.438 580.209 Q187.827 580.209 185.998 583.774 Q184.193 587.315 184.193 594.445 Q184.193 601.551 185.998 605.116 Q187.827 608.658 191.438 608.658 Q195.073 608.658 196.878 605.116 Q198.707 601.551 198.707 594.445 Q198.707 587.315 196.878 583.774 Q195.073 580.209 191.438 580.209 M191.438 576.505 Q197.248 576.505 200.304 581.112 Q203.383 585.695 203.383 594.445 Q203.383 603.172 200.304 607.778 Q197.248 612.361 191.438 612.361 Q185.628 612.361 182.549 607.778 Q179.494 603.172 179.494 594.445 Q179.494 585.695 182.549 581.112 Q185.628 576.505 191.438 576.505 Z" fill="#000000" fill-rule="nonzero" fill-opacity="1" /><path clip-path="url(#clip860)" d="M221.6 580.209 Q217.989 580.209 216.16 583.774 Q214.355 587.315 214.355 594.445 Q214.355 601.551 216.16 605.116 Q217.989 608.658 221.6 608.658 Q225.234 608.658 227.04 605.116 Q228.869 601.551 228.869 594.445 Q228.869 587.315 227.04 583.774 Q225.234 580.209 221.6 580.209 M221.6 576.505 Q227.41 576.505 230.466 581.112 Q233.545 585.695 233.545 594.445 Q233.545 603.172 230.466 607.778 Q227.41 612.361 221.6 612.361 Q215.79 612.361 212.711 607.778 Q209.656 603.172 209.656 594.445 Q209.656 585.695 212.711 581.112 Q215.79 576.505 221.6 576.505 Z" fill="#000000" fill-rule="nonzero" fill-opacity="1" /><path clip-path="url(#clip860)" d="M251.762 580.209 Q248.151 580.209 246.322 583.774 Q244.517 587.315 244.517 594.445 Q244.517 601.551 246.322 605.116 Q248.151 608.658 251.762 608.658 Q255.396 608.658 257.202 605.116 Q259.031 601.551 259.031 594.445 Q259.031 587.315 257.202 583.774 Q255.396 580.209 251.762 580.209 M251.762 576.505 Q257.572 576.505 260.628 581.112 Q263.706 585.695 263.706 594.445 Q263.706 603.172 260.628 607.778 Q257.572 612.361 251.762 612.361 Q245.952 612.361 242.873 607.778 Q239.818 603.172 239.818 594.445 Q239.818 585.695 242.873 581.112 Q245.952 576.505 251.762 576.505 Z" fill="#000000" fill-rule="nonzero" fill-opacity="1" /><path clip-path="url(#clip860)" d="M111.508 449.376 L141.184 449.376 L141.184 453.311 L111.508 453.311 L111.508 449.376 Z" fill="#000000" fill-rule="nonzero" fill-opacity="1" /><path clip-path="url(#clip860)" d="M155.304 462.269 L171.624 462.269 L171.624 466.204 L149.679 466.204 L149.679 462.269 Q152.341 459.515 156.925 454.885 Q161.531 450.232 162.712 448.89 Q164.957 446.367 165.837 444.63 Q166.739 442.871 166.739 441.181 Q166.739 438.427 164.795 436.691 Q162.874 434.955 159.772 434.955 Q157.573 434.955 155.119 435.718 Q152.688 436.482 149.911 438.033 L149.911 433.311 Q152.735 432.177 155.188 431.598 Q157.642 431.019 159.679 431.019 Q165.05 431.019 168.244 433.705 Q171.438 436.39 171.438 440.88 Q171.438 443.01 170.628 444.931 Q169.841 446.829 167.735 449.422 Q167.156 450.093 164.054 453.311 Q160.952 456.505 155.304 462.269 Z" fill="#000000" fill-rule="nonzero" fill-opacity="1" /><path clip-path="url(#clip860)" d="M191.438 434.723 Q187.827 434.723 185.998 438.288 Q184.193 441.83 184.193 448.959 Q184.193 456.066 185.998 459.63 Q187.827 463.172 191.438 463.172 Q195.073 463.172 196.878 459.63 Q198.707 456.066 198.707 448.959 Q198.707 441.83 196.878 438.288 Q195.073 434.723 191.438 434.723 M191.438 431.019 Q197.248 431.019 200.304 435.626 Q203.383 440.209 203.383 448.959 Q203.383 457.686 200.304 462.292 Q197.248 466.876 191.438 466.876 Q185.628 466.876 182.549 462.292 Q179.494 457.686 179.494 448.959 Q179.494 440.209 182.549 435.626 Q185.628 431.019 191.438 431.019 Z" fill="#000000" fill-rule="nonzero" fill-opacity="1" /><path clip-path="url(#clip860)" d="M221.6 434.723 Q217.989 434.723 216.16 438.288 Q214.355 441.83 214.355 448.959 Q214.355 456.066 216.16 459.63 Q217.989 463.172 221.6 463.172 Q225.234 463.172 227.04 459.63 Q228.869 456.066 228.869 448.959 Q228.869 441.83 227.04 438.288 Q225.234 434.723 221.6 434.723 M221.6 431.019 Q227.41 431.019 230.466 435.626 Q233.545 440.209 233.545 448.959 Q233.545 457.686 230.466 462.292 Q227.41 466.876 221.6 466.876 Q215.79 466.876 212.711 462.292 Q209.656 457.686 209.656 448.959 Q209.656 440.209 212.711 435.626 Q215.79 431.019 221.6 431.019 Z" fill="#000000" fill-rule="nonzero" fill-opacity="1" /><path clip-path="url(#clip860)" d="M251.762 434.723 Q248.151 434.723 246.322 438.288 Q244.517 441.83 244.517 448.959 Q244.517 456.066 246.322 459.63 Q248.151 463.172 251.762 463.172 Q255.396 463.172 257.202 459.63 Q259.031 456.066 259.031 448.959 Q259.031 441.83 257.202 438.288 Q255.396 434.723 251.762 434.723 M251.762 431.019 Q257.572 431.019 260.628 435.626 Q263.706 440.209 263.706 448.959 Q263.706 457.686 260.628 462.292 Q257.572 466.876 251.762 466.876 Q245.952 466.876 242.873 462.292 Q239.818 457.686 239.818 448.959 Q239.818 440.209 242.873 435.626 Q245.952 431.019 251.762 431.019 Z" fill="#000000" fill-rule="nonzero" fill-opacity="1" /><path clip-path="url(#clip860)" d="M111.508 303.89 L141.184 303.89 L141.184 307.825 L111.508 307.825 L111.508 303.89 Z" fill="#000000" fill-rule="nonzero" fill-opacity="1" /><path clip-path="url(#clip860)" d="M152.087 316.783 L159.725 316.783 L159.725 290.418 L151.415 292.084 L151.415 287.825 L159.679 286.159 L164.355 286.159 L164.355 316.783 L171.994 316.783 L171.994 320.719 L152.087 320.719 L152.087 316.783 Z" fill="#000000" fill-rule="nonzero" fill-opacity="1" /><path clip-path="url(#clip860)" d="M191.438 289.237 Q187.827 289.237 185.998 292.802 Q184.193 296.344 184.193 303.473 Q184.193 310.58 185.998 314.145 Q187.827 317.686 191.438 317.686 Q195.073 317.686 196.878 314.145 Q198.707 310.58 198.707 303.473 Q198.707 296.344 196.878 292.802 Q195.073 289.237 191.438 289.237 M191.438 285.534 Q197.248 285.534 200.304 290.14 Q203.383 294.723 203.383 303.473 Q203.383 312.2 200.304 316.807 Q197.248 321.39 191.438 321.39 Q185.628 321.39 182.549 316.807 Q179.494 312.2 179.494 303.473 Q179.494 294.723 182.549 290.14 Q185.628 285.534 191.438 285.534 Z" fill="#000000" fill-rule="nonzero" fill-opacity="1" /><path clip-path="url(#clip860)" d="M221.6 289.237 Q217.989 289.237 216.16 292.802 Q214.355 296.344 214.355 303.473 Q214.355 310.58 216.16 314.145 Q217.989 317.686 221.6 317.686 Q225.234 317.686 227.04 314.145 Q228.869 310.58 228.869 303.473 Q228.869 296.344 227.04 292.802 Q225.234 289.237 221.6 289.237 M221.6 285.534 Q227.41 285.534 230.466 290.14 Q233.545 294.723 233.545 303.473 Q233.545 312.2 230.466 316.807 Q227.41 321.39 221.6 321.39 Q215.79 321.39 212.711 316.807 Q209.656 312.2 209.656 303.473 Q209.656 294.723 212.711 290.14 Q215.79 285.534 221.6 285.534 Z" fill="#000000" fill-rule="nonzero" fill-opacity="1" /><path clip-path="url(#clip860)" d="M251.762 289.237 Q248.151 289.237 246.322 292.802 Q244.517 296.344 244.517 303.473 Q244.517 310.58 246.322 314.145 Q248.151 317.686 251.762 317.686 Q255.396 317.686 257.202 314.145 Q259.031 310.58 259.031 303.473 Q259.031 296.344 257.202 292.802 Q255.396 289.237 251.762 289.237 M251.762 285.534 Q257.572 285.534 260.628 290.14 Q263.706 294.723 263.706 303.473 Q263.706 312.2 260.628 316.807 Q257.572 321.39 251.762 321.39 Q245.952 321.39 242.873 316.807 Q239.818 312.2 239.818 303.473 Q239.818 294.723 242.873 290.14 Q245.952 285.534 251.762 285.534 Z" fill="#000000" fill-rule="nonzero" fill-opacity="1" /><path clip-path="url(#clip860)" d="M251.762 143.751 Q248.151 143.751 246.322 147.316 Q244.517 150.858 244.517 157.988 Q244.517 165.094 246.322 168.659 Q248.151 172.2 251.762 172.2 Q255.396 172.2 257.202 168.659 Q259.031 165.094 259.031 157.988 Q259.031 150.858 257.202 147.316 Q255.396 143.751 251.762 143.751 M251.762 140.048 Q257.572 140.048 260.628 144.654 Q263.706 149.238 263.706 157.988 Q263.706 166.714 260.628 171.321 Q257.572 175.904 251.762 175.904 Q245.952 175.904 242.873 171.321 Q239.818 166.714 239.818 157.988 Q239.818 149.238 242.873 144.654 Q245.952 140.048 251.762 140.048 Z" fill="#000000" fill-rule="nonzero" fill-opacity="1" /><path clip-path="url(#clip860)" d="M19.7322 813.688 L19.7322 807.258 L67.2522 807.258 L67.2522 813.688 L19.7322 813.688 Z" fill="#000000" fill-rule="nonzero" fill-opacity="1" /><path clip-path="url(#clip860)" d="M45.7361 765.086 L67.2522 765.086 L67.2522 770.942 L45.927 770.942 Q40.8663 770.942 38.3518 772.915 Q35.8374 774.889 35.8374 778.835 Q35.8374 783.578 38.8611 786.315 Q41.8848 789.052 47.1047 789.052 L67.2522 789.052 L67.2522 794.941 L31.6042 794.941 L31.6042 789.052 L37.1424 789.052 Q33.9277 786.952 32.3363 784.119 Q30.7448 781.254 30.7448 777.53 Q30.7448 771.388 34.5643 768.237 Q38.3518 765.086 45.7361 765.086 Z" fill="#000000" fill-rule="nonzero" fill-opacity="1" /><path clip-path="url(#clip860)" d="M31.6042 757.606 L31.6042 751.399 L61.523 740.259 L31.6042 729.119 L31.6042 722.913 L67.2522 736.281 L67.2522 744.238 L31.6042 757.606 Z" fill="#000000" fill-rule="nonzero" fill-opacity="1" /><path clip-path="url(#clip860)" d="M47.9641 684.337 L50.8286 684.337 L50.8286 711.263 Q56.8761 710.882 60.0589 707.635 Q63.2099 704.357 63.2099 698.532 Q63.2099 695.158 62.3824 692.007 Q61.5549 688.824 59.8998 685.705 L65.4379 685.705 Q66.7747 688.856 67.475 692.166 Q68.1752 695.477 68.1752 698.882 Q68.1752 707.412 63.2099 712.409 Q58.2447 717.375 49.7783 717.375 Q41.0254 717.375 35.9011 712.664 Q30.7448 707.921 30.7448 699.901 Q30.7448 692.707 35.3918 688.538 Q40.0069 684.337 47.9641 684.337 M46.2453 690.193 Q41.4392 690.257 38.5746 692.898 Q35.7101 695.508 35.7101 699.837 Q35.7101 704.739 38.4792 707.699 Q41.2482 710.627 46.2772 711.073 L46.2453 690.193 Z" fill="#000000" fill-rule="nonzero" fill-opacity="1" /><path clip-path="url(#clip860)" d="M45.7361 645.092 L67.2522 645.092 L67.2522 650.948 L45.927 650.948 Q40.8663 650.948 38.3518 652.922 Q35.8374 654.895 35.8374 658.842 Q35.8374 663.584 38.8611 666.322 Q41.8848 669.059 47.1047 669.059 L67.2522 669.059 L67.2522 674.947 L31.6042 674.947 L31.6042 669.059 L37.1424 669.059 Q33.9277 666.958 32.3363 664.125 Q30.7448 661.261 30.7448 657.537 Q30.7448 651.394 34.5643 648.243 Q38.3518 645.092 45.7361 645.092 Z" fill="#000000" fill-rule="nonzero" fill-opacity="1" /><path clip-path="url(#clip860)" d="M21.4827 627.618 L31.6042 627.618 L31.6042 615.555 L36.1557 615.555 L36.1557 627.618 L55.5074 627.618 Q59.8679 627.618 61.1093 626.44 Q62.3506 625.231 62.3506 621.571 L62.3506 615.555 L67.2522 615.555 L67.2522 621.571 Q67.2522 628.35 64.7377 630.928 Q62.1914 633.506 55.5074 633.506 L36.1557 633.506 L36.1557 637.803 L31.6042 637.803 L31.6042 633.506 L21.4827 633.506 L21.4827 627.618 Z" fill="#000000" fill-rule="nonzero" fill-opacity="1" /><path clip-path="url(#clip860)" d="M35.7101 594.039 Q35.7101 598.75 39.4022 601.487 Q43.0625 604.224 49.46 604.224 Q55.8575 604.224 59.5497 601.519 Q63.2099 598.781 63.2099 594.039 Q63.2099 589.36 59.5178 586.623 Q55.8257 583.886 49.46 583.886 Q43.1261 583.886 39.434 586.623 Q35.7101 589.36 35.7101 594.039 M30.7448 594.039 Q30.7448 586.4 35.7101 582.04 Q40.6753 577.679 49.46 577.679 Q58.2129 577.679 63.2099 582.04 Q68.1752 586.4 68.1752 594.039 Q68.1752 601.71 63.2099 606.07 Q58.2129 610.399 49.46 610.399 Q40.6753 610.399 35.7101 606.07 Q30.7448 601.71 30.7448 594.039 Z" fill="#000000" fill-rule="nonzero" fill-opacity="1" /><path clip-path="url(#clip860)" d="M37.0787 547.315 Q36.5058 548.301 36.2512 549.479 Q35.9647 550.625 35.9647 552.025 Q35.9647 556.991 39.2112 559.664 Q42.4259 562.306 48.4733 562.306 L67.2522 562.306 L67.2522 568.194 L31.6042 568.194 L31.6042 562.306 L37.1424 562.306 Q33.8959 560.46 32.3363 557.5 Q30.7448 554.54 30.7448 550.307 Q30.7448 549.702 30.8403 548.97 Q30.904 548.238 31.0631 547.347 L37.0787 547.315 Z" fill="#000000" fill-rule="nonzero" fill-opacity="1" /><path clip-path="url(#clip860)" d="M70.5623 526.34 Q76.928 528.822 78.8696 531.178 Q80.8111 533.533 80.8111 537.48 L80.8111 542.158 L75.9095 542.158 L75.9095 538.721 Q75.9095 536.302 74.7637 534.965 Q73.6179 533.628 69.3528 532.005 L66.6792 530.955 L31.6042 545.373 L31.6042 539.167 L59.486 528.027 L31.6042 516.887 L31.6042 510.68 L70.5623 526.34 Z" fill="#000000" fill-rule="nonzero" fill-opacity="1" /><path clip-path="url(#clip860)" d="M17.727 481.875 L17.727 476.019 L67.2522 476.019 L67.2522 481.875 L17.727 481.875 Z" fill="#000000" fill-rule="nonzero" fill-opacity="1" /><path clip-path="url(#clip860)" d="M47.9641 433.273 L50.8286 433.273 L50.8286 460.2 Q56.8761 459.818 60.0589 456.572 Q63.2099 453.293 63.2099 447.469 Q63.2099 444.095 62.3824 440.944 Q61.5549 437.761 59.8998 434.642 L65.4379 434.642 Q66.7747 437.793 67.475 441.103 Q68.1752 444.413 68.1752 447.819 Q68.1752 456.349 63.2099 461.346 Q58.2447 466.311 49.7783 466.311 Q41.0254 466.311 35.9011 461.6 Q30.7448 456.858 30.7448 448.837 Q30.7448 441.644 35.3918 437.474 Q40.0069 433.273 47.9641 433.273 M46.2453 439.13 Q41.4392 439.193 38.5746 441.835 Q35.7101 444.445 35.7101 448.774 Q35.7101 453.675 38.4792 456.635 Q41.2482 459.563 46.2772 460.009 L46.2453 439.13 Z" fill="#000000" fill-rule="nonzero" fill-opacity="1" /><path clip-path="url(#clip860)" d="M31.6042 427.862 L31.6042 421.656 L61.523 410.516 L31.6042 399.376 L31.6042 393.169 L67.2522 406.537 L67.2522 414.494 L31.6042 427.862 Z" fill="#000000" fill-rule="nonzero" fill-opacity="1" /><path clip-path="url(#clip860)" d="M47.9641 354.593 L50.8286 354.593 L50.8286 381.52 Q56.8761 381.138 60.0589 377.891 Q63.2099 374.613 63.2099 368.788 Q63.2099 365.415 62.3824 362.264 Q61.5549 359.081 59.8998 355.962 L65.4379 355.962 Q66.7747 359.113 67.475 362.423 Q68.1752 365.733 68.1752 369.139 Q68.1752 377.669 63.2099 382.666 Q58.2447 387.631 49.7783 387.631 Q41.0254 387.631 35.9011 382.92 Q30.7448 378.178 30.7448 370.157 Q30.7448 362.964 35.3918 358.794 Q40.0069 354.593 47.9641 354.593 M46.2453 360.449 Q41.4392 360.513 38.5746 363.155 Q35.7101 365.765 35.7101 370.093 Q35.7101 374.995 38.4792 377.955 Q41.2482 380.883 46.2772 381.329 L46.2453 360.449 Z" fill="#000000" fill-rule="nonzero" fill-opacity="1" /><path clip-path="url(#clip860)" d="M17.727 344.981 L17.727 339.124 L67.2522 339.124 L67.2522 344.981 L17.727 344.981 Z" fill="#000000" fill-rule="nonzero" fill-opacity="1" /><path clip-path="url(#clip860)" d="M821.236 12.096 L829.419 12.096 L829.419 72.576 L821.236 72.576 L821.236 12.096 Z" fill="#000000" fill-rule="nonzero" fill-opacity="1" /><path clip-path="url(#clip860)" d="M883.094 45.1919 L883.094 72.576 L875.64 72.576 L875.64 45.4349 Q875.64 38.994 873.128 35.7938 Q870.617 32.5936 865.594 32.5936 Q859.558 32.5936 856.074 36.4419 Q852.59 40.2903 852.59 46.9338 L852.59 72.576 L845.096 72.576 L845.096 27.2059 L852.59 27.2059 L852.59 34.2544 Q855.264 30.163 858.869 28.1376 Q862.515 26.1121 867.255 26.1121 Q875.073 26.1121 879.083 30.9732 Q883.094 35.7938 883.094 45.1919 Z" fill="#000000" fill-rule="nonzero" fill-opacity="1" /><path clip-path="url(#clip860)" d="M892.613 27.2059 L900.512 27.2059 L914.691 65.2844 L928.869 27.2059 L936.768 27.2059 L919.754 72.576 L909.627 72.576 L892.613 27.2059 Z" fill="#000000" fill-rule="nonzero" fill-opacity="1" /><path clip-path="url(#clip860)" d="M985.865 48.0275 L985.865 51.6733 L951.594 51.6733 Q952.08 59.3701 956.212 63.421 Q960.385 67.4314 967.798 67.4314 Q972.092 67.4314 976.102 66.3781 Q980.153 65.3249 984.123 63.2184 L984.123 70.267 Q980.113 71.9684 975.9 72.8596 Q971.687 73.7508 967.352 73.7508 Q956.496 73.7508 950.136 67.4314 Q943.817 61.1119 943.817 50.3365 Q943.817 39.1965 949.812 32.6746 Q955.848 26.1121 966.056 26.1121 Q975.211 26.1121 980.518 32.0264 Q985.865 37.9003 985.865 48.0275 M978.411 45.84 Q978.33 39.7232 974.968 36.0774 Q971.646 32.4315 966.137 32.4315 Q959.899 32.4315 956.131 35.9558 Q952.405 39.4801 951.837 45.8805 L978.411 45.84 Z" fill="#000000" fill-rule="nonzero" fill-opacity="1" /><path clip-path="url(#clip860)" d="M1035.81 45.1919 L1035.81 72.576 L1028.36 72.576 L1028.36 45.4349 Q1028.36 38.994 1025.85 35.7938 Q1023.34 32.5936 1018.31 32.5936 Q1012.28 32.5936 1008.79 36.4419 Q1005.31 40.2903 1005.31 46.9338 L1005.31 72.576 L997.815 72.576 L997.815 27.2059 L1005.31 27.2059 L1005.31 34.2544 Q1007.98 30.163 1011.59 28.1376 Q1015.23 26.1121 1019.97 26.1121 Q1027.79 26.1121 1031.8 30.9732 Q1035.81 35.7938 1035.81 45.1919 Z" fill="#000000" fill-rule="nonzero" fill-opacity="1" /><path clip-path="url(#clip860)" d="M1058.05 14.324 L1058.05 27.2059 L1073.41 27.2059 L1073.41 32.9987 L1058.05 32.9987 L1058.05 57.6282 Q1058.05 63.1779 1059.55 64.7578 Q1061.09 66.3376 1065.75 66.3376 L1073.41 66.3376 L1073.41 72.576 L1065.75 72.576 Q1057.12 72.576 1053.84 69.3758 Q1050.56 66.1351 1050.56 57.6282 L1050.56 32.9987 L1045.09 32.9987 L1045.09 27.2059 L1050.56 27.2059 L1050.56 14.324 L1058.05 14.324 Z" fill="#000000" fill-rule="nonzero" fill-opacity="1" /><path clip-path="url(#clip860)" d="M1100.79 32.4315 Q1094.79 32.4315 1091.31 37.1306 Q1087.83 41.7891 1087.83 49.9314 Q1087.83 58.0738 1091.27 62.7728 Q1094.75 67.4314 1100.79 67.4314 Q1106.74 67.4314 1110.23 62.7323 Q1113.71 58.0333 1113.71 49.9314 Q1113.71 41.8701 1110.23 37.1711 Q1106.74 32.4315 1100.79 32.4315 M1100.79 26.1121 Q1110.51 26.1121 1116.06 32.4315 Q1121.61 38.7509 1121.61 49.9314 Q1121.61 61.0714 1116.06 67.4314 Q1110.51 73.7508 1100.79 73.7508 Q1091.03 73.7508 1085.48 67.4314 Q1079.97 61.0714 1079.97 49.9314 Q1079.97 38.7509 1085.48 32.4315 Q1091.03 26.1121 1100.79 26.1121 Z" fill="#000000" fill-rule="nonzero" fill-opacity="1" /><path clip-path="url(#clip860)" d="M1160.26 34.1734 Q1159 33.4443 1157.5 33.1202 Q1156.04 32.7556 1154.26 32.7556 Q1147.94 32.7556 1144.54 36.8875 Q1141.18 40.9789 1141.18 48.6757 L1141.18 72.576 L1133.68 72.576 L1133.68 27.2059 L1141.18 27.2059 L1141.18 34.2544 Q1143.53 30.1225 1147.29 28.1376 Q1151.06 26.1121 1156.45 26.1121 Q1157.22 26.1121 1158.15 26.2337 Q1159.08 26.3147 1160.22 26.5172 L1160.26 34.1734 Z" fill="#000000" fill-rule="nonzero" fill-opacity="1" /><path clip-path="url(#clip860)" d="M1186.95 76.7889 Q1183.79 84.8907 1180.79 87.3618 Q1177.8 89.8329 1172.77 89.8329 L1166.82 89.8329 L1166.82 83.5945 L1171.19 83.5945 Q1174.27 83.5945 1175.97 82.1361 Q1177.68 80.6778 1179.74 75.2496 L1181.08 71.8468 L1162.73 27.2059 L1170.63 27.2059 L1184.8 62.6918 L1198.98 27.2059 L1206.88 27.2059 L1186.95 76.7889 Z" fill="#000000" fill-rule="nonzero" fill-opacity="1" /><path clip-path="url(#clip860)" d="M1243.54 9.54393 L1251 9.54393 L1251 72.576 L1243.54 72.576 L1243.54 9.54393 Z" fill="#000000" fill-rule="nonzero" fill-opacity="1" /><path clip-path="url(#clip860)" d="M1305.4 48.0275 L1305.4 51.6733 L1271.13 51.6733 Q1271.62 59.3701 1275.75 63.421 Q1279.92 67.4314 1287.33 67.4314 Q1291.63 67.4314 1295.64 66.3781 Q1299.69 65.3249 1303.66 63.2184 L1303.66 70.267 Q1299.65 71.9684 1295.44 72.8596 Q1291.22 73.7508 1286.89 73.7508 Q1276.03 73.7508 1269.67 67.4314 Q1263.35 61.1119 1263.35 50.3365 Q1263.35 39.1965 1269.35 32.6746 Q1275.38 26.1121 1285.59 26.1121 Q1294.75 26.1121 1300.05 32.0264 Q1305.4 37.9003 1305.4 48.0275 M1297.95 45.84 Q1297.87 39.7232 1294.5 36.0774 Q1291.18 32.4315 1285.67 32.4315 Q1279.43 32.4315 1275.67 35.9558 Q1271.94 39.4801 1271.37 45.8805 L1297.95 45.84 Z" fill="#000000" fill-rule="nonzero" fill-opacity="1" /><path clip-path="url(#clip860)" d="M1312.29 27.2059 L1320.19 27.2059 L1334.36 65.2844 L1348.54 27.2059 L1356.44 27.2059 L1339.43 72.576 L1329.3 72.576 L1312.29 27.2059 Z" fill="#000000" fill-rule="nonzero" fill-opacity="1" /><path clip-path="url(#clip860)" d="M1405.54 48.0275 L1405.54 51.6733 L1371.27 51.6733 Q1371.75 59.3701 1375.89 63.421 Q1380.06 67.4314 1387.47 67.4314 Q1391.77 67.4314 1395.78 66.3781 Q1399.83 65.3249 1403.8 63.2184 L1403.8 70.267 Q1399.79 71.9684 1395.57 72.8596 Q1391.36 73.7508 1387.03 73.7508 Q1376.17 73.7508 1369.81 67.4314 Q1363.49 61.1119 1363.49 50.3365 Q1363.49 39.1965 1369.49 32.6746 Q1375.52 26.1121 1385.73 26.1121 Q1394.88 26.1121 1400.19 32.0264 Q1405.54 37.9003 1405.54 48.0275 M1398.09 45.84 Q1398 39.7232 1394.64 36.0774 Q1391.32 32.4315 1385.81 32.4315 Q1379.57 32.4315 1375.81 35.9558 Q1372.08 39.4801 1371.51 45.8805 L1398.09 45.84 Z" fill="#000000" fill-rule="nonzero" fill-opacity="1" /><path clip-path="url(#clip860)" d="M1417.77 9.54393 L1425.23 9.54393 L1425.23 72.576 L1417.77 72.576 L1417.77 9.54393 Z" fill="#000000" fill-rule="nonzero" fill-opacity="1" /><path clip-path="url(#clip862)" d="M340.661 143.404 L497.175 143.404 L653.689 257.412 L810.203 371.421 L966.717 474.525 L1123.23 557.909 L1279.75 633.41 L1436.26 747.418 L1592.77 850.522 L1749.29 926.023 L1905.8 1009.41 L1905.8 552.539 L1749.29 470.303 L1592.77 428.197 L1436.26 370.157 L1279.75 316.484 L1123.23 263.871 L966.717 226.27 L810.203 199.001 L653.689 170.673 L497.175 143.404 L340.661 143.404  Z" fill="#00467f" fill-rule="evenodd" fill-opacity="0.2"/>
<polyline clip-path="url(#clip862)" style="stroke:#00467f; stroke-linecap:round; stroke-linejoin:round; stroke-width:4; stroke-opacity:0; fill:none" points="340.661,143.404 497.175,143.404 653.689,214.042 810.203,285.211 966.717,350.397 1123.23,410.89 1279.75,474.947 1436.26,558.787 1592.77,639.36 1749.29,698.163 1905.8,780.973 "/>
<path clip-path="url(#clip862)" d="M340.661 143.404 L497.175 143.404 L653.689 257.412 L810.203 329.015 L966.717 397.789 L1123.23 473.19 L1279.75 543.662 L1436.26 615.543 L1592.77 694.698 L1749.29 776.562 L1905.8 842.844 L1905.8 628.731 L1749.29 568.012 L1592.77 508.664 L1436.26 439.576 L1279.75 384.886 L1123.23 329.336 L966.717 275.556 L810.203 224.346 L653.689 171.733 L497.175 143.404 L340.661 143.404  Z" fill="#00467f" fill-rule="evenodd" fill-opacity="0.2"/>
<polyline clip-path="url(#clip862)" style="stroke:#00467f; stroke-linecap:round; stroke-linejoin:round; stroke-width:4; stroke-opacity:0; fill:none" points="340.661,143.404 497.175,143.404 653.689,214.573 810.203,276.68 966.717,336.672 1123.23,401.263 1279.75,464.274 1436.26,527.56 1592.77,601.681 1749.29,672.287 1905.8,735.788 "/>
<path clip-path="url(#clip862)" d="M340.661 143.404 L497.175 143.404 L653.689 226.789 L810.203 294.407 L966.717 373.232 L1123.23 440.799 L1279.75 513.426 L1436.26 577.884 L1592.77 646.718 L1749.29 711.244 L1905.8 800.382 L1905.8 670.213 L1749.29 608.713 L1592.77 546.163 L1436.26 481.957 L1279.75 415.531 L1123.23 354.18 L966.717 299.956 L810.203 243.238 L653.689 175.839 L497.175 143.404 L340.661 143.404  Z" fill="#00467f" fill-rule="evenodd" fill-opacity="0.2"/>
<polyline clip-path="url(#clip862)" style="stroke:#00467f; stroke-linecap:round; stroke-linejoin:round; stroke-width:4; stroke-opacity:0; fill:none" points="340.661,143.404 497.175,143.404 653.689,201.314 810.203,268.822 966.717,336.594 1123.23,397.49 1279.75,464.479 1436.26,529.92 1592.77,596.44 1749.29,659.979 1905.8,735.298 "/>
<polyline clip-path="url(#clip862)" style="stroke:#00467f; stroke-linecap:round; stroke-linejoin:round; stroke-width:4; stroke-opacity:1; fill:none" points="340.661,143.404 497.175,143.404 653.689,214.909 810.203,269.52 966.717,334.143 1123.23,400.924 1279.75,471.645 1436.26,533.351 1592.77,592.427 1749.29,659.481 1905.8,728.883 "/>
</svg>
