<?xml version="1.0" encoding="utf-8"?>
<svg xmlns="http://www.w3.org/2000/svg" xmlns:xlink="http://www.w3.org/1999/xlink" width="500" height="300" viewBox="0 0 2000 1200">
<defs>
  <clipPath id="clip890">
    <rect x="0" y="0" width="2000" height="1200"/>
  </clipPath>
</defs>
<path clip-path="url(#clip890)" d="M0 1200 L2000 1200 L2000 0 L0 0  Z" fill="#ffffff" fill-rule="evenodd" fill-opacity="1"/>
<defs>
  <clipPath id="clip891">
    <rect x="400" y="0" width="1401" height="1200"/>
  </clipPath>
</defs>
<path clip-path="url(#clip890)" d="M168.015 1035.39 L952.756 1035.39 L952.756 117.424 L168.015 117.424  Z" fill="#ffffff" fill-rule="evenodd" fill-opacity="1"/>
<defs>
  <clipPath id="clip892">
    <rect x="168" y="117" width="786" height="919"/>
  </clipPath>
</defs>
<polyline clip-path="url(#clip892)" style="stroke:#000000; stroke-linecap:round; stroke-linejoin:round; stroke-width:2; stroke-opacity:0.1; fill:none" points="175.116,1035.39 175.116,117.424 "/>
<polyline clip-path="url(#clip892)" style="stroke:#000000; stroke-linecap:round; stroke-linejoin:round; stroke-width:2; stroke-opacity:0.1; fill:none" points="326.202,1035.39 326.202,117.424 "/>
<polyline clip-path="url(#clip892)" style="stroke:#000000; stroke-linecap:round; stroke-linejoin:round; stroke-width:2; stroke-opacity:0.1; fill:none" points="477.288,1035.39 477.288,117.424 "/>
<polyline clip-path="url(#clip892)" style="stroke:#000000; stroke-linecap:round; stroke-linejoin:round; stroke-width:2; stroke-opacity:0.1; fill:none" points="628.374,1035.39 628.374,117.424 "/>
<polyline clip-path="url(#clip892)" style="stroke:#000000; stroke-linecap:round; stroke-linejoin:round; stroke-width:2; stroke-opacity:0.1; fill:none" points="779.46,1035.39 779.46,117.424 "/>
<polyline clip-path="url(#clip892)" style="stroke:#000000; stroke-linecap:round; stroke-linejoin:round; stroke-width:2; stroke-opacity:0.1; fill:none" points="930.546,1035.39 930.546,117.424 "/>
<polyline clip-path="url(#clip892)" style="stroke:#000000; stroke-linecap:round; stroke-linejoin:round; stroke-width:2; stroke-opacity:0.1; fill:none" points="168.015,1009.41 952.756,1009.41 "/>
<polyline clip-path="url(#clip892)" style="stroke:#000000; stroke-linecap:round; stroke-linejoin:round; stroke-width:2; stroke-opacity:0.1; fill:none" points="168.015,880.881 952.756,880.881 "/>
<polyline clip-path="url(#clip892)" style="stroke:#000000; stroke-linecap:round; stroke-linejoin:round; stroke-width:2; stroke-opacity:0.1; fill:none" points="168.015,752.354 952.756,752.354 "/>
<polyline clip-path="url(#clip892)" style="stroke:#000000; stroke-linecap:round; stroke-linejoin:round; stroke-width:2; stroke-opacity:0.1; fill:none" points="168.015,623.827 952.756,623.827 "/>
<polyline clip-path="url(#clip892)" style="stroke:#000000; stroke-linecap:round; stroke-linejoin:round; stroke-width:2; stroke-opacity:0.1; fill:none" points="168.015,495.3 952.756,495.3 "/>
<polyline clip-path="url(#clip892)" style="stroke:#000000; stroke-linecap:round; stroke-linejoin:round; stroke-width:2; stroke-opacity:0.1; fill:none" points="168.015,366.774 952.756,366.774 "/>
<polyline clip-path="url(#clip892)" style="stroke:#000000; stroke-linecap:round; stroke-linejoin:round; stroke-width:2; stroke-opacity:0.1; fill:none" points="168.015,238.247 952.756,238.247 "/>
<polyline clip-path="url(#clip890)" style="stroke:#000000; stroke-linecap:round; stroke-linejoin:round; stroke-width:4; stroke-opacity:1; fill:none" points="168.015,1035.39 952.756,1035.39 "/>
<polyline clip-path="url(#clip890)" style="stroke:#000000; stroke-linecap:round; stroke-linejoin:round; stroke-width:4; stroke-opacity:1; fill:none" points="175.116,1035.39 175.116,1016.49 "/>
<polyline clip-path="url(#clip890)" style="stroke:#000000; stroke-linecap:round; stroke-linejoin:round; stroke-width:4; stroke-opacity:1; fill:none" points="326.202,1035.39 326.202,1016.49 "/>
<polyline clip-path="url(#clip890)" style="stroke:#000000; stroke-linecap:round; stroke-linejoin:round; stroke-width:4; stroke-opacity:1; fill:none" points="477.288,1035.39 477.288,1016.49 "/>
<polyline clip-path="url(#clip890)" style="stroke:#000000; stroke-linecap:round; stroke-linejoin:round; stroke-width:4; stroke-opacity:1; fill:none" points="628.374,1035.39 628.374,1016.49 "/>
<polyline clip-path="url(#clip890)" style="stroke:#000000; stroke-linecap:round; stroke-linejoin:round; stroke-width:4; stroke-opacity:1; fill:none" points="779.46,1035.39 779.46,1016.49 "/>
<polyline clip-path="url(#clip890)" style="stroke:#000000; stroke-linecap:round; stroke-linejoin:round; stroke-width:4; stroke-opacity:1; fill:none" points="930.546,1035.39 930.546,1016.49 "/>
<path clip-path="url(#clip890)" d="M175.116 1063.11 Q171.505 1063.11 169.676 1066.67 Q167.871 1070.21 167.871 1077.34 Q167.871 1084.45 169.676 1088.01 Q171.505 1091.56 175.116 1091.56 Q178.75 1091.56 180.556 1088.01 Q182.384 1084.45 182.384 1077.34 Q182.384 1070.21 180.556 1066.67 Q178.75 1063.11 175.116 1063.11 M175.116 1059.4 Q180.926 1059.4 183.982 1064.01 Q187.06 1068.59 187.06 1077.34 Q187.06 1086.07 183.982 1090.68 Q180.926 1095.26 175.116 1095.26 Q169.306 1095.26 166.227 1090.68 Q163.171 1086.07 163.171 1077.34 Q163.171 1068.59 166.227 1064.01 Q169.306 1059.4 175.116 1059.4 Z" fill="#000000" fill-rule="nonzero" fill-opacity="1" /><path clip-path="url(#clip890)" d="M300.89 1090.65 L308.528 1090.65 L308.528 1064.29 L300.218 1065.95 L300.218 1061.69 L308.482 1060.03 L313.158 1060.03 L313.158 1090.65 L320.797 1090.65 L320.797 1094.59 L300.89 1094.59 L300.89 1090.65 Z" fill="#000000" fill-rule="nonzero" fill-opacity="1" /><path clip-path="url(#clip890)" d="M340.241 1063.11 Q336.63 1063.11 334.801 1066.67 Q332.996 1070.21 332.996 1077.34 Q332.996 1084.45 334.801 1088.01 Q336.63 1091.56 340.241 1091.56 Q343.875 1091.56 345.681 1088.01 Q347.51 1084.45 347.51 1077.34 Q347.51 1070.21 345.681 1066.67 Q343.875 1063.11 340.241 1063.11 M340.241 1059.4 Q346.051 1059.4 349.107 1064.01 Q352.186 1068.59 352.186 1077.34 Q352.186 1086.07 349.107 1090.68 Q346.051 1095.26 340.241 1095.26 Q334.431 1095.26 331.352 1090.68 Q328.297 1086.07 328.297 1077.34 Q328.297 1068.59 331.352 1064.01 Q334.431 1059.4 340.241 1059.4 Z" fill="#000000" fill-rule="nonzero" fill-opacity="1" /><path clip-path="url(#clip890)" d="M456.061 1090.65 L472.381 1090.65 L472.381 1094.59 L450.436 1094.59 L450.436 1090.65 Q453.098 1087.9 457.682 1083.27 Q462.288 1078.62 463.469 1077.27 Q465.714 1074.75 466.594 1073.01 Q467.496 1071.25 467.496 1069.56 Q467.496 1066.81 465.552 1065.07 Q463.631 1063.34 460.529 1063.34 Q458.33 1063.34 455.876 1064.1 Q453.446 1064.87 450.668 1066.42 L450.668 1061.69 Q453.492 1060.56 455.946 1059.98 Q458.399 1059.4 460.436 1059.4 Q465.807 1059.4 469.001 1062.09 Q472.195 1064.77 472.195 1069.26 Q472.195 1071.39 471.385 1073.31 Q470.598 1075.21 468.492 1077.81 Q467.913 1078.48 464.811 1081.69 Q461.709 1084.89 456.061 1090.65 Z" fill="#000000" fill-rule="nonzero" fill-opacity="1" /><path clip-path="url(#clip890)" d="M492.195 1063.11 Q488.584 1063.11 486.756 1066.67 Q484.95 1070.21 484.95 1077.34 Q484.95 1084.45 486.756 1088.01 Q488.584 1091.56 492.195 1091.56 Q495.83 1091.56 497.635 1088.01 Q499.464 1084.45 499.464 1077.34 Q499.464 1070.21 497.635 1066.67 Q495.83 1063.11 492.195 1063.11 M492.195 1059.4 Q498.006 1059.4 501.061 1064.01 Q504.14 1068.59 504.14 1077.34 Q504.14 1086.07 501.061 1090.68 Q498.006 1095.26 492.195 1095.26 Q486.385 1095.26 483.307 1090.68 Q480.251 1086.07 480.251 1077.34 Q480.251 1068.59 483.307 1064.01 Q486.385 1059.4 492.195 1059.4 Z" fill="#000000" fill-rule="nonzero" fill-opacity="1" /><path clip-path="url(#clip890)" d="M617.217 1075.95 Q620.573 1076.67 622.448 1078.94 Q624.346 1081.21 624.346 1084.54 Q624.346 1089.66 620.828 1092.46 Q617.309 1095.26 610.828 1095.26 Q608.652 1095.26 606.337 1094.82 Q604.046 1094.4 601.592 1093.55 L601.592 1089.03 Q603.536 1090.17 605.851 1090.75 Q608.166 1091.32 610.689 1091.32 Q615.087 1091.32 617.379 1089.59 Q619.694 1087.85 619.694 1084.54 Q619.694 1081.49 617.541 1079.77 Q615.411 1078.04 611.592 1078.04 L607.564 1078.04 L607.564 1074.19 L611.777 1074.19 Q615.226 1074.19 617.055 1072.83 Q618.883 1071.44 618.883 1068.85 Q618.883 1066.19 616.985 1064.77 Q615.11 1063.34 611.592 1063.34 Q609.67 1063.34 607.471 1063.75 Q605.272 1064.17 602.633 1065.05 L602.633 1060.88 Q605.296 1060.14 607.61 1059.77 Q609.948 1059.4 612.008 1059.4 Q617.332 1059.4 620.434 1061.83 Q623.536 1064.24 623.536 1068.36 Q623.536 1071.23 621.893 1073.22 Q620.249 1075.19 617.217 1075.95 Z" fill="#000000" fill-rule="nonzero" fill-opacity="1" /><path clip-path="url(#clip890)" d="M643.212 1063.11 Q639.601 1063.11 637.772 1066.67 Q635.967 1070.21 635.967 1077.34 Q635.967 1084.45 637.772 1088.01 Q639.601 1091.56 643.212 1091.56 Q646.846 1091.56 648.652 1088.01 Q650.48 1084.45 650.48 1077.34 Q650.48 1070.21 648.652 1066.67 Q646.846 1063.11 643.212 1063.11 M643.212 1059.4 Q649.022 1059.4 652.078 1064.01 Q655.156 1068.59 655.156 1077.34 Q655.156 1086.07 652.078 1090.68 Q649.022 1095.26 643.212 1095.26 Q637.402 1095.26 634.323 1090.68 Q631.268 1086.07 631.268 1077.34 Q631.268 1068.59 634.323 1064.01 Q637.402 1059.4 643.212 1059.4 Z" fill="#000000" fill-rule="nonzero" fill-opacity="1" /><path clip-path="url(#clip890)" d="M767.632 1064.1 L755.826 1082.55 L767.632 1082.55 L767.632 1064.1 M766.405 1060.03 L772.284 1060.03 L772.284 1082.55 L777.215 1082.55 L777.215 1086.44 L772.284 1086.44 L772.284 1094.59 L767.632 1094.59 L767.632 1086.44 L752.03 1086.44 L752.03 1081.93 L766.405 1060.03 Z" fill="#000000" fill-rule="nonzero" fill-opacity="1" /><path clip-path="url(#clip890)" d="M794.946 1063.11 Q791.335 1063.11 789.506 1066.67 Q787.701 1070.21 787.701 1077.34 Q787.701 1084.45 789.506 1088.01 Q791.335 1091.56 794.946 1091.56 Q798.58 1091.56 800.386 1088.01 Q802.215 1084.45 802.215 1077.34 Q802.215 1070.21 800.386 1066.67 Q798.58 1063.11 794.946 1063.11 M794.946 1059.4 Q800.756 1059.4 803.812 1064.01 Q806.891 1068.59 806.891 1077.34 Q806.891 1086.07 803.812 1090.68 Q800.756 1095.26 794.946 1095.26 Q789.136 1095.26 786.057 1090.68 Q783.002 1086.07 783.002 1077.34 Q783.002 1068.59 786.057 1064.01 Q789.136 1059.4 794.946 1059.4 Z" fill="#000000" fill-rule="nonzero" fill-opacity="1" /><path clip-path="url(#clip890)" d="M905.245 1060.03 L923.602 1060.03 L923.602 1063.96 L909.528 1063.96 L909.528 1072.44 Q910.546 1072.09 911.565 1071.93 Q912.583 1071.74 913.602 1071.74 Q919.389 1071.74 922.769 1074.91 Q926.148 1078.08 926.148 1083.5 Q926.148 1089.08 922.676 1092.18 Q919.204 1095.26 912.884 1095.26 Q910.708 1095.26 908.44 1094.89 Q906.195 1094.52 903.787 1093.78 L903.787 1089.08 Q905.87 1090.21 908.093 1090.77 Q910.315 1091.32 912.792 1091.32 Q916.796 1091.32 919.134 1089.22 Q921.472 1087.11 921.472 1083.5 Q921.472 1079.89 919.134 1077.78 Q916.796 1075.68 912.792 1075.68 Q910.917 1075.68 909.042 1076.09 Q907.19 1076.51 905.245 1077.39 L905.245 1060.03 Z" fill="#000000" fill-rule="nonzero" fill-opacity="1" /><path clip-path="url(#clip890)" d="M945.361 1063.11 Q941.75 1063.11 939.921 1066.67 Q938.116 1070.21 938.116 1077.34 Q938.116 1084.45 939.921 1088.01 Q941.75 1091.56 945.361 1091.56 Q948.995 1091.56 950.801 1088.01 Q952.629 1084.45 952.629 1077.34 Q952.629 1070.21 950.801 1066.67 Q948.995 1063.11 945.361 1063.11 M945.361 1059.4 Q951.171 1059.4 954.227 1064.01 Q957.305 1068.59 957.305 1077.34 Q957.305 1086.07 954.227 1090.68 Q951.171 1095.26 945.361 1095.26 Q939.551 1095.26 936.472 1090.68 Q933.417 1086.07 933.417 1077.34 Q933.417 1068.59 936.472 1064.01 Q939.551 1059.4 945.361 1059.4 Z" fill="#000000" fill-rule="nonzero" fill-opacity="1" /><path clip-path="url(#clip890)" d="M500.675 1128.29 L500.675 1134.56 Q497.015 1132.81 493.768 1131.95 Q490.522 1131.09 487.498 1131.09 Q482.246 1131.09 479.382 1133.13 Q476.549 1135.17 476.549 1138.92 Q476.549 1142.07 478.427 1143.7 Q480.337 1145.29 485.62 1146.27 L489.503 1147.07 Q496.696 1148.44 500.102 1151.91 Q503.54 1155.35 503.54 1161.14 Q503.54 1168.05 498.893 1171.61 Q494.277 1175.17 485.334 1175.17 Q481.96 1175.17 478.14 1174.41 Q474.353 1173.65 470.279 1172.15 L470.279 1165.53 Q474.194 1167.73 477.949 1168.84 Q481.705 1169.95 485.334 1169.95 Q490.84 1169.95 493.832 1167.79 Q496.824 1165.63 496.824 1161.62 Q496.824 1158.11 494.659 1156.14 Q492.527 1154.17 487.625 1153.18 L483.71 1152.42 Q476.517 1150.99 473.302 1147.93 Q470.088 1144.87 470.088 1139.43 Q470.088 1133.13 474.512 1129.5 Q478.968 1125.87 486.766 1125.87 Q490.108 1125.87 493.577 1126.48 Q497.047 1127.08 500.675 1128.29 Z" fill="#000000" fill-rule="nonzero" fill-opacity="1" /><path clip-path="url(#clip890)" d="M519.104 1128.48 L519.104 1138.6 L531.167 1138.6 L531.167 1143.16 L519.104 1143.16 L519.104 1162.51 Q519.104 1166.87 520.281 1168.11 Q521.491 1169.35 525.151 1169.35 L531.167 1169.35 L531.167 1174.25 L525.151 1174.25 Q518.372 1174.25 515.794 1171.74 Q513.215 1169.19 513.215 1162.51 L513.215 1143.16 L508.919 1143.16 L508.919 1138.6 L513.215 1138.6 L513.215 1128.48 L519.104 1128.48 Z" fill="#000000" fill-rule="nonzero" fill-opacity="1" /><path clip-path="url(#clip890)" d="M555.07 1156.33 Q547.972 1156.33 545.235 1157.96 Q542.498 1159.58 542.498 1163.49 Q542.498 1166.61 544.535 1168.46 Q546.604 1170.27 550.137 1170.27 Q555.006 1170.27 557.935 1166.84 Q560.895 1163.37 560.895 1157.64 L560.895 1156.33 L555.07 1156.33 M566.751 1153.91 L566.751 1174.25 L560.895 1174.25 L560.895 1168.84 Q558.889 1172.09 555.898 1173.65 Q552.906 1175.17 548.577 1175.17 Q543.102 1175.17 539.856 1172.12 Q536.641 1169.03 536.641 1163.88 Q536.641 1157.86 540.652 1154.8 Q544.694 1151.75 552.683 1151.75 L560.895 1151.75 L560.895 1151.18 Q560.895 1147.13 558.221 1144.94 Q555.579 1142.71 550.773 1142.71 Q547.718 1142.71 544.821 1143.44 Q541.925 1144.17 539.251 1145.64 L539.251 1140.23 Q542.466 1138.99 545.49 1138.38 Q548.513 1137.74 551.378 1137.74 Q559.112 1137.74 562.932 1141.75 Q566.751 1145.77 566.751 1153.91 Z" fill="#000000" fill-rule="nonzero" fill-opacity="1" /><path clip-path="url(#clip890)" d="M602.272 1156.01 Q602.272 1149.65 599.63 1146.15 Q597.02 1142.65 592.278 1142.65 Q587.567 1142.65 584.925 1146.15 Q582.315 1149.65 582.315 1156.01 Q582.315 1162.35 584.925 1165.85 Q587.567 1169.35 592.278 1169.35 Q597.02 1169.35 599.63 1165.85 Q602.272 1162.35 602.272 1156.01 M608.128 1169.83 Q608.128 1178.93 604.086 1183.35 Q600.044 1187.81 591.705 1187.81 Q588.617 1187.81 585.88 1187.33 Q583.143 1186.89 580.565 1185.93 L580.565 1180.24 Q583.143 1181.64 585.657 1182.3 Q588.172 1182.97 590.782 1182.97 Q596.543 1182.97 599.407 1179.95 Q602.272 1176.96 602.272 1170.88 L602.272 1167.98 Q600.457 1171.13 597.625 1172.69 Q594.792 1174.25 590.845 1174.25 Q584.289 1174.25 580.278 1169.25 Q576.268 1164.26 576.268 1156.01 Q576.268 1147.74 580.278 1142.74 Q584.289 1137.74 590.845 1137.74 Q594.792 1137.74 597.625 1139.3 Q600.457 1140.86 602.272 1144.01 L602.272 1138.6 L608.128 1138.6 L608.128 1169.83 Z" fill="#000000" fill-rule="nonzero" fill-opacity="1" /><path clip-path="url(#clip890)" d="M650.683 1154.96 L650.683 1157.83 L623.756 1157.83 Q624.138 1163.88 627.384 1167.06 Q630.663 1170.21 636.487 1170.21 Q639.861 1170.21 643.012 1169.38 Q646.195 1168.55 649.314 1166.9 L649.314 1172.44 Q646.163 1173.77 642.853 1174.47 Q639.543 1175.17 636.137 1175.17 Q627.607 1175.17 622.61 1170.21 Q617.645 1165.24 617.645 1156.78 Q617.645 1148.03 622.356 1142.9 Q627.098 1137.74 635.119 1137.74 Q642.312 1137.74 646.482 1142.39 Q650.683 1147.01 650.683 1154.96 M644.826 1153.25 Q644.763 1148.44 642.121 1145.57 Q639.511 1142.71 635.182 1142.71 Q630.281 1142.71 627.321 1145.48 Q624.393 1148.25 623.947 1153.28 L644.826 1153.25 Z" fill="#000000" fill-rule="nonzero" fill-opacity="1" /><polyline clip-path="url(#clip890)" style="stroke:#000000; stroke-linecap:round; stroke-linejoin:round; stroke-width:4; stroke-opacity:1; fill:none" points="168.015,1035.39 168.015,117.424 "/>
<polyline clip-path="url(#clip890)" style="stroke:#000000; stroke-linecap:round; stroke-linejoin:round; stroke-width:4; stroke-opacity:1; fill:none" points="168.015,1009.41 186.912,1009.41 "/>
<polyline clip-path="url(#clip890)" style="stroke:#000000; stroke-linecap:round; stroke-linejoin:round; stroke-width:4; stroke-opacity:1; fill:none" points="168.015,880.881 186.912,880.881 "/>
<polyline clip-path="url(#clip890)" style="stroke:#000000; stroke-linecap:round; stroke-linejoin:round; stroke-width:4; stroke-opacity:1; fill:none" points="168.015,752.354 186.912,752.354 "/>
<polyline clip-path="url(#clip890)" style="stroke:#000000; stroke-linecap:round; stroke-linejoin:round; stroke-width:4; stroke-opacity:1; fill:none" points="168.015,623.827 186.912,623.827 "/>
<polyline clip-path="url(#clip890)" style="stroke:#000000; stroke-linecap:round; stroke-linejoin:round; stroke-width:4; stroke-opacity:1; fill:none" points="168.015,495.3 186.912,495.3 "/>
<polyline clip-path="url(#clip890)" style="stroke:#000000; stroke-linecap:round; stroke-linejoin:round; stroke-width:4; stroke-opacity:1; fill:none" points="168.015,366.774 186.912,366.774 "/>
<polyline clip-path="url(#clip890)" style="stroke:#000000; stroke-linecap:round; stroke-linejoin:round; stroke-width:4; stroke-opacity:1; fill:none" points="168.015,238.247 186.912,238.247 "/>
<path clip-path="url(#clip890)" d="M56.5569 1022.75 L64.1958 1022.75 L64.1958 996.387 L55.8856 998.054 L55.8856 993.794 L64.1495 992.128 L68.8254 992.128 L68.8254 1022.75 L76.4642 1022.75 L76.4642 1026.69 L56.5569 1026.69 L56.5569 1022.75 Z" fill="#000000" fill-rule="nonzero" fill-opacity="1" /><path clip-path="url(#clip890)" d="M95.9086 995.206 Q92.2975 995.206 90.4688 998.771 Q88.6632 1002.31 88.6632 1009.44 Q88.6632 1016.55 90.4688 1020.11 Q92.2975 1023.66 95.9086 1023.66 Q99.5428 1023.66 101.348 1020.11 Q103.177 1016.55 103.177 1009.44 Q103.177 1002.31 101.348 998.771 Q99.5428 995.206 95.9086 995.206 M95.9086 991.503 Q101.719 991.503 104.774 996.109 Q107.853 1000.69 107.853 1009.44 Q107.853 1018.17 104.774 1022.78 Q101.719 1027.36 95.9086 1027.36 Q90.0984 1027.36 87.0197 1022.78 Q83.9642 1018.17 83.9642 1009.44 Q83.9642 1000.69 87.0197 996.109 Q90.0984 991.503 95.9086 991.503 Z" fill="#000000" fill-rule="nonzero" fill-opacity="1" /><path clip-path="url(#clip890)" d="M126.07 995.206 Q122.459 995.206 120.631 998.771 Q118.825 1002.31 118.825 1009.44 Q118.825 1016.55 120.631 1020.11 Q122.459 1023.66 126.07 1023.66 Q129.705 1023.66 131.51 1020.11 Q133.339 1016.55 133.339 1009.44 Q133.339 1002.31 131.51 998.771 Q129.705 995.206 126.07 995.206 M126.07 991.503 Q131.881 991.503 134.936 996.109 Q138.015 1000.69 138.015 1009.44 Q138.015 1018.17 134.936 1022.78 Q131.881 1027.36 126.07 1027.36 Q120.26 1027.36 117.182 1022.78 Q114.126 1018.17 114.126 1009.44 Q114.126 1000.69 117.182 996.109 Q120.26 991.503 126.07 991.503 Z" fill="#000000" fill-rule="nonzero" fill-opacity="1" /><path clip-path="url(#clip890)" d="M59.7745 894.226 L76.0939 894.226 L76.0939 898.161 L54.1495 898.161 L54.1495 894.226 Q56.8115 891.471 61.3949 886.842 Q66.0013 882.189 67.1819 880.846 Q69.4272 878.323 70.3068 876.587 Q71.2096 874.828 71.2096 873.138 Q71.2096 870.383 69.2652 868.647 Q67.3439 866.911 64.2421 866.911 Q62.043 866.911 59.5893 867.675 Q57.1588 868.439 54.381 869.99 L54.381 865.268 Q57.2051 864.133 59.6588 863.555 Q62.1124 862.976 64.1495 862.976 Q69.5198 862.976 72.7142 865.661 Q75.9087 868.346 75.9087 872.837 Q75.9087 874.967 75.0985 876.888 Q74.3115 878.786 72.205 881.379 Q71.6263 882.05 68.5245 885.267 Q65.4226 888.462 59.7745 894.226 Z" fill="#000000" fill-rule="nonzero" fill-opacity="1" /><path clip-path="url(#clip890)" d="M95.9086 866.68 Q92.2975 866.68 90.4688 870.244 Q88.6632 873.786 88.6632 880.916 Q88.6632 888.022 90.4688 891.587 Q92.2975 895.129 95.9086 895.129 Q99.5428 895.129 101.348 891.587 Q103.177 888.022 103.177 880.916 Q103.177 873.786 101.348 870.244 Q99.5428 866.68 95.9086 866.68 M95.9086 862.976 Q101.719 862.976 104.774 867.582 Q107.853 872.166 107.853 880.916 Q107.853 889.642 104.774 894.249 Q101.719 898.832 95.9086 898.832 Q90.0984 898.832 87.0197 894.249 Q83.9642 889.642 83.9642 880.916 Q83.9642 872.166 87.0197 867.582 Q90.0984 862.976 95.9086 862.976 Z" fill="#000000" fill-rule="nonzero" fill-opacity="1" /><path clip-path="url(#clip890)" d="M126.07 866.68 Q122.459 866.68 120.631 870.244 Q118.825 873.786 118.825 880.916 Q118.825 888.022 120.631 891.587 Q122.459 895.129 126.07 895.129 Q129.705 895.129 131.51 891.587 Q133.339 888.022 133.339 880.916 Q133.339 873.786 131.51 870.244 Q129.705 866.68 126.07 866.68 M126.07 862.976 Q131.881 862.976 134.936 867.582 Q138.015 872.166 138.015 880.916 Q138.015 889.642 134.936 894.249 Q131.881 898.832 126.07 898.832 Q120.26 898.832 117.182 894.249 Q114.126 889.642 114.126 880.916 Q114.126 872.166 117.182 867.582 Q120.26 862.976 126.07 862.976 Z" fill="#000000" fill-rule="nonzero" fill-opacity="1" /><path clip-path="url(#clip890)" d="M69.9133 751 Q73.2698 751.717 75.1448 753.986 Q77.0429 756.254 77.0429 759.588 Q77.0429 764.704 73.5244 767.504 Q70.0059 770.305 63.5245 770.305 Q61.3486 770.305 59.0338 769.866 Q56.7421 769.449 54.2884 768.592 L54.2884 764.079 Q56.2328 765.213 58.5477 765.791 Q60.8625 766.37 63.3856 766.37 Q67.7837 766.37 70.0754 764.634 Q72.3902 762.898 72.3902 759.588 Q72.3902 756.532 70.2374 754.819 Q68.1078 753.083 64.2884 753.083 L60.2606 753.083 L60.2606 749.241 L64.4735 749.241 Q67.9226 749.241 69.7513 747.875 Q71.58 746.486 71.58 743.893 Q71.58 741.231 69.6819 739.819 Q67.8069 738.384 64.2884 738.384 Q62.3671 738.384 60.168 738.801 Q57.969 739.218 55.3301 740.097 L55.3301 735.931 Q57.9921 735.19 60.3069 734.819 Q62.6449 734.449 64.705 734.449 Q70.0291 734.449 73.1309 736.88 Q76.2327 739.287 76.2327 743.407 Q76.2327 746.278 74.5892 748.268 Q72.9457 750.236 69.9133 751 Z" fill="#000000" fill-rule="nonzero" fill-opacity="1" /><path clip-path="url(#clip890)" d="M95.9086 738.153 Q92.2975 738.153 90.4688 741.718 Q88.6632 745.259 88.6632 752.389 Q88.6632 759.495 90.4688 763.06 Q92.2975 766.602 95.9086 766.602 Q99.5428 766.602 101.348 763.06 Q103.177 759.495 103.177 752.389 Q103.177 745.259 101.348 741.718 Q99.5428 738.153 95.9086 738.153 M95.9086 734.449 Q101.719 734.449 104.774 739.056 Q107.853 743.639 107.853 752.389 Q107.853 761.116 104.774 765.722 Q101.719 770.305 95.9086 770.305 Q90.0984 770.305 87.0197 765.722 Q83.9642 761.116 83.9642 752.389 Q83.9642 743.639 87.0197 739.056 Q90.0984 734.449 95.9086 734.449 Z" fill="#000000" fill-rule="nonzero" fill-opacity="1" /><path clip-path="url(#clip890)" d="M126.07 738.153 Q122.459 738.153 120.631 741.718 Q118.825 745.259 118.825 752.389 Q118.825 759.495 120.631 763.06 Q122.459 766.602 126.07 766.602 Q129.705 766.602 131.51 763.06 Q133.339 759.495 133.339 752.389 Q133.339 745.259 131.51 741.718 Q129.705 738.153 126.07 738.153 M126.07 734.449 Q131.881 734.449 134.936 739.056 Q138.015 743.639 138.015 752.389 Q138.015 761.116 134.936 765.722 Q131.881 770.305 126.07 770.305 Q120.26 770.305 117.182 765.722 Q114.126 761.116 114.126 752.389 Q114.126 743.639 117.182 739.056 Q120.26 734.449 126.07 734.449 Z" fill="#000000" fill-rule="nonzero" fill-opacity="1" /><path clip-path="url(#clip890)" d="M68.5939 610.621 L56.7884 629.07 L68.5939 629.07 L68.5939 610.621 M67.367 606.547 L73.2466 606.547 L73.2466 629.07 L78.1772 629.07 L78.1772 632.959 L73.2466 632.959 L73.2466 641.107 L68.5939 641.107 L68.5939 632.959 L52.9921 632.959 L52.9921 628.445 L67.367 606.547 Z" fill="#000000" fill-rule="nonzero" fill-opacity="1" /><path clip-path="url(#clip890)" d="M95.9086 609.626 Q92.2975 609.626 90.4688 613.191 Q88.6632 616.732 88.6632 623.862 Q88.6632 630.968 90.4688 634.533 Q92.2975 638.075 95.9086 638.075 Q99.5428 638.075 101.348 634.533 Q103.177 630.968 103.177 623.862 Q103.177 616.732 101.348 613.191 Q99.5428 609.626 95.9086 609.626 M95.9086 605.922 Q101.719 605.922 104.774 610.529 Q107.853 615.112 107.853 623.862 Q107.853 632.589 104.774 637.195 Q101.719 641.778 95.9086 641.778 Q90.0984 641.778 87.0197 637.195 Q83.9642 632.589 83.9642 623.862 Q83.9642 615.112 87.0197 610.529 Q90.0984 605.922 95.9086 605.922 Z" fill="#000000" fill-rule="nonzero" fill-opacity="1" /><path clip-path="url(#clip890)" d="M126.07 609.626 Q122.459 609.626 120.631 613.191 Q118.825 616.732 118.825 623.862 Q118.825 630.968 120.631 634.533 Q122.459 638.075 126.07 638.075 Q129.705 638.075 131.51 634.533 Q133.339 630.968 133.339 623.862 Q133.339 616.732 131.51 613.191 Q129.705 609.626 126.07 609.626 M126.07 605.922 Q131.881 605.922 134.936 610.529 Q138.015 615.112 138.015 623.862 Q138.015 632.589 134.936 637.195 Q131.881 641.778 126.07 641.778 Q120.26 641.778 117.182 637.195 Q114.126 632.589 114.126 623.862 Q114.126 615.112 117.182 610.529 Q120.26 605.922 126.07 605.922 Z" fill="#000000" fill-rule="nonzero" fill-opacity="1" /><path clip-path="url(#clip890)" d="M55.793 478.02 L74.1494 478.02 L74.1494 481.956 L60.0754 481.956 L60.0754 490.428 Q61.0939 490.08 62.1124 489.918 Q63.131 489.733 64.1495 489.733 Q69.9365 489.733 73.3161 492.905 Q76.6957 496.076 76.6957 501.492 Q76.6957 507.071 73.2235 510.173 Q69.7513 513.252 63.4319 513.252 Q61.256 513.252 58.9875 512.881 Q56.7421 512.511 54.3347 511.77 L54.3347 507.071 Q56.418 508.205 58.6402 508.761 Q60.8625 509.316 63.3393 509.316 Q67.3439 509.316 69.6819 507.21 Q72.0198 505.104 72.0198 501.492 Q72.0198 497.881 69.6819 495.775 Q67.3439 493.668 63.3393 493.668 Q61.4643 493.668 59.5893 494.085 Q57.7375 494.502 55.793 495.381 L55.793 478.02 Z" fill="#000000" fill-rule="nonzero" fill-opacity="1" /><path clip-path="url(#clip890)" d="M95.9086 481.099 Q92.2975 481.099 90.4688 484.664 Q88.6632 488.205 88.6632 495.335 Q88.6632 502.442 90.4688 506.006 Q92.2975 509.548 95.9086 509.548 Q99.5428 509.548 101.348 506.006 Q103.177 502.442 103.177 495.335 Q103.177 488.205 101.348 484.664 Q99.5428 481.099 95.9086 481.099 M95.9086 477.395 Q101.719 477.395 104.774 482.002 Q107.853 486.585 107.853 495.335 Q107.853 504.062 104.774 508.668 Q101.719 513.252 95.9086 513.252 Q90.0984 513.252 87.0197 508.668 Q83.9642 504.062 83.9642 495.335 Q83.9642 486.585 87.0197 482.002 Q90.0984 477.395 95.9086 477.395 Z" fill="#000000" fill-rule="nonzero" fill-opacity="1" /><path clip-path="url(#clip890)" d="M126.07 481.099 Q122.459 481.099 120.631 484.664 Q118.825 488.205 118.825 495.335 Q118.825 502.442 120.631 506.006 Q122.459 509.548 126.07 509.548 Q129.705 509.548 131.51 506.006 Q133.339 502.442 133.339 495.335 Q133.339 488.205 131.51 484.664 Q129.705 481.099 126.07 481.099 M126.07 477.395 Q131.881 477.395 134.936 482.002 Q138.015 486.585 138.015 495.335 Q138.015 504.062 134.936 508.668 Q131.881 513.252 126.07 513.252 Q120.26 513.252 117.182 508.668 Q114.126 504.062 114.126 495.335 Q114.126 486.585 117.182 482.002 Q120.26 477.395 126.07 477.395 Z" fill="#000000" fill-rule="nonzero" fill-opacity="1" /><path clip-path="url(#clip890)" d="M66.3254 364.91 Q63.1773 364.91 61.3254 367.063 Q59.4967 369.216 59.4967 372.966 Q59.4967 376.692 61.3254 378.868 Q63.1773 381.021 66.3254 381.021 Q69.4735 381.021 71.3022 378.868 Q73.1541 376.692 73.1541 372.966 Q73.1541 369.216 71.3022 367.063 Q69.4735 364.91 66.3254 364.91 M75.6077 350.257 L75.6077 354.517 Q73.8485 353.683 72.0429 353.243 Q70.2606 352.804 68.5013 352.804 Q63.8717 352.804 61.418 355.929 Q58.9875 359.054 58.6402 365.373 Q60.006 363.359 62.0662 362.294 Q64.1263 361.206 66.6032 361.206 Q71.8115 361.206 74.8207 364.378 Q77.8531 367.526 77.8531 372.966 Q77.8531 378.29 74.705 381.507 Q71.5568 384.725 66.3254 384.725 Q60.33 384.725 57.1588 380.141 Q53.9875 375.535 53.9875 366.808 Q53.9875 358.614 57.8764 353.753 Q61.7652 348.869 68.3161 348.869 Q70.0754 348.869 71.8578 349.216 Q73.6633 349.563 75.6077 350.257 Z" fill="#000000" fill-rule="nonzero" fill-opacity="1" /><path clip-path="url(#clip890)" d="M95.9086 352.572 Q92.2975 352.572 90.4688 356.137 Q88.6632 359.679 88.6632 366.808 Q88.6632 373.915 90.4688 377.479 Q92.2975 381.021 95.9086 381.021 Q99.5428 381.021 101.348 377.479 Q103.177 373.915 103.177 366.808 Q103.177 359.679 101.348 356.137 Q99.5428 352.572 95.9086 352.572 M95.9086 348.869 Q101.719 348.869 104.774 353.475 Q107.853 358.058 107.853 366.808 Q107.853 375.535 104.774 380.141 Q101.719 384.725 95.9086 384.725 Q90.0984 384.725 87.0197 380.141 Q83.9642 375.535 83.9642 366.808 Q83.9642 358.058 87.0197 353.475 Q90.0984 348.869 95.9086 348.869 Z" fill="#000000" fill-rule="nonzero" fill-opacity="1" /><path clip-path="url(#clip890)" d="M126.07 352.572 Q122.459 352.572 120.631 356.137 Q118.825 359.679 118.825 366.808 Q118.825 373.915 120.631 377.479 Q122.459 381.021 126.07 381.021 Q129.705 381.021 131.51 377.479 Q133.339 373.915 133.339 366.808 Q133.339 359.679 131.51 356.137 Q129.705 352.572 126.07 352.572 M126.07 348.869 Q131.881 348.869 134.936 353.475 Q138.015 358.058 138.015 366.808 Q138.015 375.535 134.936 380.141 Q131.881 384.725 126.07 384.725 Q120.26 384.725 117.182 380.141 Q114.126 375.535 114.126 366.808 Q114.126 358.058 117.182 353.475 Q120.26 348.869 126.07 348.869 Z" fill="#000000" fill-rule="nonzero" fill-opacity="1" /><path clip-path="url(#clip890)" d="M54.5662 220.967 L76.7883 220.967 L76.7883 222.957 L64.2421 255.527 L59.3578 255.527 L71.1633 224.902 L54.5662 224.902 L54.5662 220.967 Z" fill="#000000" fill-rule="nonzero" fill-opacity="1" /><path clip-path="url(#clip890)" d="M95.9086 224.045 Q92.2975 224.045 90.4688 227.61 Q88.6632 231.152 88.6632 238.281 Q88.6632 245.388 90.4688 248.953 Q92.2975 252.494 95.9086 252.494 Q99.5428 252.494 101.348 248.953 Q103.177 245.388 103.177 238.281 Q103.177 231.152 101.348 227.61 Q99.5428 224.045 95.9086 224.045 M95.9086 220.342 Q101.719 220.342 104.774 224.948 Q107.853 229.531 107.853 238.281 Q107.853 247.008 104.774 251.615 Q101.719 256.198 95.9086 256.198 Q90.0984 256.198 87.0197 251.615 Q83.9642 247.008 83.9642 238.281 Q83.9642 229.531 87.0197 224.948 Q90.0984 220.342 95.9086 220.342 Z" fill="#000000" fill-rule="nonzero" fill-opacity="1" /><path clip-path="url(#clip890)" d="M126.07 224.045 Q122.459 224.045 120.631 227.61 Q118.825 231.152 118.825 238.281 Q118.825 245.388 120.631 248.953 Q122.459 252.494 126.07 252.494 Q129.705 252.494 131.51 248.953 Q133.339 245.388 133.339 238.281 Q133.339 231.152 131.51 227.61 Q129.705 224.045 126.07 224.045 M126.07 220.342 Q131.881 220.342 134.936 224.948 Q138.015 229.531 138.015 238.281 Q138.015 247.008 134.936 251.615 Q131.881 256.198 126.07 256.198 Q120.26 256.198 117.182 251.615 Q114.126 247.008 114.126 238.281 Q114.126 229.531 117.182 224.948 Q120.26 220.342 126.07 220.342 Z" fill="#000000" fill-rule="nonzero" fill-opacity="1" /><path clip-path="url(#clip890)" d="M287.8 27.2059 L271.394 49.2833 L288.651 72.576 L279.86 72.576 L266.654 54.752 L253.448 72.576 L244.658 72.576 L262.279 48.8377 L246.157 27.2059 L254.947 27.2059 L266.978 43.369 L279.01 27.2059 L287.8 27.2059 Z" fill="#000000" fill-rule="nonzero" fill-opacity="1" /><path clip-path="url(#clip890)" d="M333.656 86.3491 L333.656 92.1419 L290.555 92.1419 L290.555 86.3491 L333.656 86.3491 Z" fill="#000000" fill-rule="nonzero" fill-opacity="1" /><path clip-path="url(#clip890)" d="M340.664 27.2059 L348.118 27.2059 L348.118 72.576 L340.664 72.576 L340.664 27.2059 M340.664 9.54393 L348.118 9.54393 L348.118 18.9825 L340.664 18.9825 L340.664 9.54393 Z" fill="#000000" fill-rule="nonzero" fill-opacity="1" /><path clip-path="url(#clip890)" d="M401.428 45.1919 L401.428 72.576 L393.974 72.576 L393.974 45.4349 Q393.974 38.994 391.463 35.7938 Q388.951 32.5936 383.928 32.5936 Q377.892 32.5936 374.408 36.4419 Q370.925 40.2903 370.925 46.9338 L370.925 72.576 L363.43 72.576 L363.43 27.2059 L370.925 27.2059 L370.925 34.2544 Q373.598 30.163 377.203 28.1376 Q380.849 26.1121 385.589 26.1121 Q393.407 26.1121 397.417 30.9732 Q401.428 35.7938 401.428 45.1919 Z" fill="#000000" fill-rule="nonzero" fill-opacity="1" /><path clip-path="url(#clip890)" d="M410.948 27.2059 L418.847 27.2059 L433.025 65.2844 L447.203 27.2059 L455.102 27.2059 L438.089 72.576 L427.961 72.576 L410.948 27.2059 Z" fill="#000000" fill-rule="nonzero" fill-opacity="1" /><path clip-path="url(#clip890)" d="M504.199 48.0275 L504.199 51.6733 L469.929 51.6733 Q470.415 59.3701 474.547 63.421 Q478.719 67.4314 486.132 67.4314 Q490.426 67.4314 494.437 66.3781 Q498.488 65.3249 502.457 63.2184 L502.457 70.267 Q498.447 71.9684 494.234 72.8596 Q490.021 73.7508 485.687 73.7508 Q474.83 73.7508 468.47 67.4314 Q462.151 61.1119 462.151 50.3365 Q462.151 39.1965 468.146 32.6746 Q474.182 26.1121 484.39 26.1121 Q493.545 26.1121 498.852 32.0264 Q504.199 37.9003 504.199 48.0275 M496.746 45.84 Q496.665 39.7232 493.302 36.0774 Q489.981 32.4315 484.471 32.4315 Q478.233 32.4315 474.466 35.9558 Q470.739 39.4801 470.172 45.8805 L496.746 45.84 Z" fill="#000000" fill-rule="nonzero" fill-opacity="1" /><path clip-path="url(#clip890)" d="M554.147 45.1919 L554.147 72.576 L546.693 72.576 L546.693 45.4349 Q546.693 38.994 544.182 35.7938 Q541.67 32.5936 536.647 32.5936 Q530.611 32.5936 527.127 36.4419 Q523.644 40.2903 523.644 46.9338 L523.644 72.576 L516.149 72.576 L516.149 27.2059 L523.644 27.2059 L523.644 34.2544 Q526.317 30.163 529.923 28.1376 Q533.568 26.1121 538.308 26.1121 Q546.126 26.1121 550.137 30.9732 Q554.147 35.7938 554.147 45.1919 Z" fill="#000000" fill-rule="nonzero" fill-opacity="1" /><path clip-path="url(#clip890)" d="M576.386 14.324 L576.386 27.2059 L591.739 27.2059 L591.739 32.9987 L576.386 32.9987 L576.386 57.6282 Q576.386 63.1779 577.885 64.7578 Q579.425 66.3376 584.083 66.3376 L591.739 66.3376 L591.739 72.576 L584.083 72.576 Q575.455 72.576 572.173 69.3758 Q568.892 66.1351 568.892 57.6282 L568.892 32.9987 L563.424 32.9987 L563.424 27.2059 L568.892 27.2059 L568.892 14.324 L576.386 14.324 Z" fill="#000000" fill-rule="nonzero" fill-opacity="1" /><path clip-path="url(#clip890)" d="M619.123 32.4315 Q613.128 32.4315 609.644 37.1306 Q606.161 41.7891 606.161 49.9314 Q606.161 58.0738 609.604 62.7728 Q613.088 67.4314 619.123 67.4314 Q625.078 67.4314 628.562 62.7323 Q632.046 58.0333 632.046 49.9314 Q632.046 41.8701 628.562 37.1711 Q625.078 32.4315 619.123 32.4315 M619.123 26.1121 Q628.846 26.1121 634.395 32.4315 Q639.945 38.7509 639.945 49.9314 Q639.945 61.0714 634.395 67.4314 Q628.846 73.7508 619.123 73.7508 Q609.361 73.7508 603.811 67.4314 Q598.302 61.0714 598.302 49.9314 Q598.302 38.7509 603.811 32.4315 Q609.361 26.1121 619.123 26.1121 Z" fill="#000000" fill-rule="nonzero" fill-opacity="1" /><path clip-path="url(#clip890)" d="M678.591 34.1734 Q677.335 33.4443 675.836 33.1202 Q674.378 32.7556 672.595 32.7556 Q666.276 32.7556 662.873 36.8875 Q659.511 40.9789 659.511 48.6757 L659.511 72.576 L652.017 72.576 L652.017 27.2059 L659.511 27.2059 L659.511 34.2544 Q661.861 30.1225 665.628 28.1376 Q669.395 26.1121 674.783 26.1121 Q675.553 26.1121 676.484 26.2337 Q677.416 26.3147 678.55 26.5172 L678.591 34.1734 Z" fill="#000000" fill-rule="nonzero" fill-opacity="1" /><path clip-path="url(#clip890)" d="M705.286 76.7889 Q702.127 84.8907 699.129 87.3618 Q696.131 89.8329 691.108 89.8329 L685.153 89.8329 L685.153 83.5945 L689.528 83.5945 Q692.607 83.5945 694.308 82.1361 Q696.01 80.6778 698.076 75.2496 L699.412 71.8468 L681.062 27.2059 L688.961 27.2059 L703.139 62.6918 L717.317 27.2059 L725.217 27.2059 L705.286 76.7889 Z" fill="#000000" fill-rule="nonzero" fill-opacity="1" /><path clip-path="url(#clip890)" d="M724.731 62.2867 L733.278 62.2867 L733.278 72.576 L724.731 72.576 L724.731 62.2867 Z" fill="#000000" fill-rule="nonzero" fill-opacity="1" /><path clip-path="url(#clip890)" d="M767.63 32.4315 Q761.634 32.4315 758.151 37.1306 Q754.667 41.7891 754.667 49.9314 Q754.667 58.0738 758.11 62.7728 Q761.594 67.4314 767.63 67.4314 Q773.584 67.4314 777.068 62.7323 Q780.552 58.0333 780.552 49.9314 Q780.552 41.8701 777.068 37.1711 Q773.584 32.4315 767.63 32.4315 M767.63 26.1121 Q777.352 26.1121 782.902 32.4315 Q788.451 38.7509 788.451 49.9314 Q788.451 61.0714 782.902 67.4314 Q777.352 73.7508 767.63 73.7508 Q757.867 73.7508 752.317 67.4314 Q746.808 61.0714 746.808 49.9314 Q746.808 38.7509 752.317 32.4315 Q757.867 26.1121 767.63 26.1121 Z" fill="#000000" fill-rule="nonzero" fill-opacity="1" /><path clip-path="url(#clip890)" d="M800.037 54.671 L800.037 27.2059 L807.491 27.2059 L807.491 54.3874 Q807.491 60.8284 810.002 64.0691 Q812.514 67.2693 817.537 67.2693 Q823.573 67.2693 827.056 63.421 Q830.581 59.5726 830.581 52.9291 L830.581 27.2059 L838.034 27.2059 L838.034 72.576 L830.581 72.576 L830.581 65.6084 Q827.867 69.7404 824.261 71.7658 Q820.696 73.7508 815.957 73.7508 Q808.139 73.7508 804.088 68.8897 Q800.037 64.0286 800.037 54.671 M818.793 26.1121 L818.793 26.1121 Z" fill="#000000" fill-rule="nonzero" fill-opacity="1" /><path clip-path="url(#clip890)" d="M860.76 14.324 L860.76 27.2059 L876.113 27.2059 L876.113 32.9987 L860.76 32.9987 L860.76 57.6282 Q860.76 63.1779 862.259 64.7578 Q863.798 66.3376 868.457 66.3376 L876.113 66.3376 L876.113 72.576 L868.457 72.576 Q859.828 72.576 856.547 69.3758 Q853.266 66.1351 853.266 57.6282 L853.266 32.9987 L847.797 32.9987 L847.797 27.2059 L853.266 27.2059 L853.266 14.324 L860.76 14.324 Z" fill="#000000" fill-rule="nonzero" fill-opacity="1" /><path clip-path="url(#clip892)" d="M190.224 1009.41 L205.333 865.788 L220.442 865.788 L235.55 865.788 L250.659 865.788 L265.768 865.788 L280.876 865.788 L295.985 865.788 L311.093 865.788 L326.202 865.788 L341.311 865.788 L356.419 865.788 L371.528 865.788 L386.636 865.788 L401.745 865.788 L416.854 865.788 L431.962 865.788 L447.071 865.788 L462.179 865.788 L477.288 865.788 L492.397 865.788 L507.505 865.788 L522.614 865.788 L537.722 865.788 L552.831 865.788 L567.94 865.788 L583.048 865.788 L598.157 865.788 L613.265 865.788 L628.374 865.788 L643.483 865.788 L658.591 865.788 L673.7 865.788 L688.809 865.788 L703.917 865.788 L719.026 865.788 L734.134 865.788 L749.243 865.788 L764.352 865.788 L779.46 865.788 L794.569 865.788 L809.677 865.788 L824.786 865.788 L839.895 865.788 L855.003 865.788 L870.112 865.788 L885.22 865.788 L900.329 865.788 L915.438 865.788 L930.546 865.788 L930.546 143.404 L915.438 143.404 L900.329 143.404 L885.22 143.404 L870.112 143.404 L855.003 143.404 L839.895 143.404 L824.786 143.404 L809.677 143.404 L794.569 143.404 L779.46 143.404 L764.352 143.404 L749.243 143.404 L734.134 143.404 L719.026 143.404 L703.917 143.404 L688.809 143.404 L673.7 143.404 L658.591 143.404 L643.483 143.404 L628.374 143.404 L613.265 143.404 L598.157 143.404 L583.048 143.404 L567.94 143.404 L552.831 143.404 L537.722 143.404 L522.614 143.404 L507.505 143.404 L492.397 143.404 L477.288 143.404 L462.179 143.404 L447.071 143.404 L431.962 143.404 L416.854 143.404 L401.745 143.404 L386.636 143.404 L371.528 143.404 L356.419 143.404 L341.311 143.404 L326.202 143.404 L311.093 143.404 L295.985 143.404 L280.876 143.404 L265.768 143.404 L250.659 143.404 L235.55 143.404 L220.442 143.404 L205.333 143.404 L190.224 1009.41  Z" fill="#00467f" fill-rule="evenodd" fill-opacity="0.2"/>
<polyline clip-path="url(#clip892)" style="stroke:#00467f; stroke-linecap:round; stroke-linejoin:round; stroke-width:4; stroke-opacity:0; fill:none" points="190.224,1009.41 205.333,504.596 220.442,504.596 235.55,504.596 250.659,504.596 265.768,504.596 280.876,504.596 295.985,504.596 311.093,504.596 326.202,504.596 341.311,504.596 356.419,504.596 371.528,504.596 386.636,504.596 401.745,504.596 416.854,504.596 431.962,504.596 447.071,504.596 462.179,504.596 477.288,504.596 492.397,504.596 507.505,504.596 522.614,504.596 537.722,504.596 552.831,504.596 567.94,504.596 583.048,504.596 598.157,504.596 613.265,504.596 628.374,504.596 643.483,504.596 658.591,504.596 673.7,504.596 688.809,504.596 703.917,504.596 719.026,504.596 734.134,504.596 749.243,504.596 764.352,504.596 779.46,504.596 794.569,504.596 809.677,504.596 824.786,504.596 839.895,504.596 855.003,504.596 870.112,504.596 885.22,504.596 900.329,504.596 915.438,504.596 930.546,504.596 "/>
<path clip-path="url(#clip892)" d="M190.224 1009.41 L205.333 811.581 L220.442 811.581 L235.55 865.788 L250.659 865.788 L265.768 865.788 L280.876 865.788 L295.985 811.581 L311.093 811.581 L326.202 811.581 L341.311 811.581 L356.419 865.788 L371.528 865.788 L386.636 811.581 L401.745 811.581 L416.854 811.581 L431.962 811.581 L447.071 811.581 L462.179 811.581 L477.288 865.788 L492.397 865.788 L507.505 865.788 L522.614 865.788 L537.722 811.581 L552.831 811.581 L567.94 865.788 L583.048 865.788 L598.157 811.581 L613.265 811.581 L628.374 865.788 L643.483 865.788 L658.591 865.788 L673.7 865.788 L688.809 865.788 L703.917 865.788 L719.026 865.788 L734.134 865.788 L749.243 811.581 L764.352 811.581 L779.46 865.788 L794.569 865.788 L809.677 865.788 L824.786 865.788 L839.895 811.581 L855.003 811.581 L870.112 811.581 L885.22 811.581 L900.329 865.788 L915.438 865.788 L930.546 865.788 L930.546 284.516 L915.438 300.196 L900.329 300.196 L885.22 143.404 L870.112 143.404 L855.003 143.404 L839.895 143.404 L824.786 300.196 L809.677 300.196 L794.569 300.196 L779.46 300.196 L764.352 143.404 L749.243 143.404 L734.134 143.404 L719.026 143.404 L703.917 143.404 L688.809 143.404 L673.7 143.404 L658.591 143.404 L643.483 284.516 L628.374 284.516 L613.265 143.404 L598.157 143.404 L583.048 284.516 L567.94 284.516 L552.831 143.404 L537.722 143.404 L522.614 284.516 L507.505 284.516 L492.397 284.516 L477.288 284.516 L462.179 143.404 L447.071 143.404 L431.962 284.516 L416.854 284.516 L401.745 300.196 L386.636 300.196 L371.528 143.404 L356.419 143.404 L341.311 300.196 L326.202 300.196 L311.093 300.196 L295.985 300.196 L280.876 284.516 L265.768 284.516 L250.659 300.196 L235.55 300.196 L220.442 284.516 L205.333 284.516 L190.224 1009.41  Z" fill="#00467f" fill-rule="evenodd" fill-opacity="0.2"/>
<polyline clip-path="url(#clip892)" style="stroke:#00467f; stroke-linecap:round; stroke-linejoin:round; stroke-width:4; stroke-opacity:0; fill:none" points="190.224,1009.41 205.333,548.049 220.442,548.049 235.55,582.992 250.659,582.992 265.768,575.152 280.876,575.152 295.985,555.888 311.093,555.888 326.202,555.888 341.311,555.888 356.419,504.596 371.528,504.596 386.636,555.888 401.745,555.888 416.854,548.049 431.962,548.049 447.071,477.492 462.179,477.492 477.288,575.152 492.397,575.152 507.505,575.152 522.614,575.152 537.722,477.492 552.831,477.492 567.94,575.152 583.048,575.152 598.157,477.492 613.265,477.492 628.374,575.152 643.483,575.152 658.591,504.596 673.7,504.596 688.809,504.596 703.917,504.596 719.026,504.596 734.134,504.596 749.243,477.492 764.352,477.492 779.46,582.992 794.569,582.992 809.677,582.992 824.786,582.992 839.895,477.492 855.003,477.492 870.112,477.492 885.22,477.492 900.329,582.992 915.438,582.992 930.546,575.152 "/>
<path clip-path="url(#clip892)" d="M190.224 1009.41 L205.333 785.817 L220.442 785.817 L235.55 811.581 L250.659 811.581 L265.768 785.817 L280.876 785.817 L295.985 785.817 L311.093 785.817 L326.202 700.996 L341.311 700.996 L356.419 785.817 L371.528 785.817 L386.636 785.817 L401.745 785.817 L416.854 672.722 L431.962 672.722 L447.071 700.996 L462.179 700.996 L477.288 785.817 L492.397 785.817 L507.505 785.817 L522.614 785.817 L537.722 785.817 L552.831 785.817 L567.94 785.817 L583.048 785.817 L598.157 785.817 L613.265 785.817 L628.374 785.817 L643.483 785.817 L658.591 785.817 L673.7 785.817 L688.809 785.817 L703.917 785.817 L719.026 792.258 L734.134 792.258 L749.243 785.817 L764.352 785.817 L779.46 785.817 L794.569 785.817 L809.677 785.817 L824.786 785.817 L839.895 785.817 L855.003 785.817 L870.112 785.817 L885.22 785.817 L900.329 785.817 L915.438 785.817 L930.546 785.817 L930.546 308.081 L915.438 300.879 L900.329 300.879 L885.22 300.879 L870.112 300.879 L855.003 300.879 L839.895 300.879 L824.786 300.879 L809.677 300.879 L794.569 300.879 L779.46 300.879 L764.352 300.879 L749.243 300.879 L734.134 300.879 L719.026 300.879 L703.917 300.879 L688.809 300.879 L673.7 300.879 L658.591 300.879 L643.483 300.879 L628.374 300.879 L613.265 300.879 L598.157 300.879 L583.048 300.879 L567.94 300.879 L552.831 300.879 L537.722 300.879 L522.614 300.879 L507.505 300.879 L492.397 300.879 L477.288 300.879 L462.179 300.879 L447.071 300.879 L431.962 300.879 L416.854 300.879 L401.745 300.879 L386.636 300.879 L371.528 300.708 L356.419 300.708 L341.311 300.879 L326.202 300.879 L311.093 300.879 L295.985 300.879 L280.876 300.879 L265.768 300.879 L250.659 300.879 L235.55 300.879 L220.442 300.879 L205.333 300.879 L190.224 1009.41  Z" fill="#00467f" fill-rule="evenodd" fill-opacity="0.2"/>
<polyline clip-path="url(#clip892)" style="stroke:#00467f; stroke-linecap:round; stroke-linejoin:round; stroke-width:4; stroke-opacity:0; fill:none" points="190.224,1009.41 205.333,543.348 220.442,543.348 235.55,556.23 250.659,556.23 265.768,543.348 280.876,543.348 295.985,543.348 311.093,543.348 326.202,500.937 341.311,500.937 356.419,543.263 371.528,543.263 386.636,543.348 401.745,543.348 416.854,486.8 431.962,486.8 447.071,500.937 462.179,500.937 477.288,543.348 492.397,543.348 507.505,543.348 522.614,543.348 537.722,543.348 552.831,543.348 567.94,543.348 583.048,543.348 598.157,543.348 613.265,543.348 628.374,543.348 643.483,543.348 658.591,543.348 673.7,543.348 688.809,543.348 703.917,543.348 719.026,546.568 734.134,546.568 749.243,543.348 764.352,543.348 779.46,543.348 794.569,543.348 809.677,543.348 824.786,543.348 839.895,543.348 855.003,543.348 870.112,543.348 885.22,543.348 900.329,543.348 915.438,543.348 930.546,546.949 "/>
<polyline clip-path="url(#clip892)" style="stroke:#00467f; stroke-linecap:round; stroke-linejoin:round; stroke-width:4; stroke-opacity:1; fill:none" points="190.224,1009.41 205.333,601.58 220.442,601.58 235.55,601.58 250.659,601.58 265.768,601.58 280.876,601.58 295.985,482.551 311.093,482.551 326.202,482.551 341.311,482.551 356.419,601.58 371.528,601.58 386.636,482.551 401.745,482.551 416.854,542.065 431.962,542.065 447.071,482.551 462.179,482.551 477.288,601.58 492.397,601.58 507.505,601.58 522.614,601.58 537.722,601.58 552.831,601.58 567.94,601.58 583.048,601.58 598.157,482.551 613.265,482.551 628.374,482.551 643.483,482.551 658.591,482.551 673.7,482.551 688.809,482.551 703.917,482.551 719.026,482.551 734.134,482.551 749.243,482.551 764.352,482.551 779.46,601.58 794.569,601.58 809.677,601.58 824.786,601.58 839.895,482.551 855.003,482.551 870.112,482.551 885.22,482.551 900.329,601.58 915.438,601.58 930.546,601.58 "/>
<path clip-path="url(#clip890)" d="M1168.01 1035.39 L1952.76 1035.39 L1952.76 117.424 L1168.01 117.424  Z" fill="#ffffff" fill-rule="evenodd" fill-opacity="1"/>
<defs>
  <clipPath id="clip893">
    <rect x="1168" y="117" width="786" height="919"/>
  </clipPath>
</defs>
<polyline clip-path="url(#clip893)" style="stroke:#000000; stroke-linecap:round; stroke-linejoin:round; stroke-width:2; stroke-opacity:0.1; fill:none" points="1175.12,1035.39 1175.12,117.424 "/>
<polyline clip-path="url(#clip893)" style="stroke:#000000; stroke-linecap:round; stroke-linejoin:round; stroke-width:2; stroke-opacity:0.1; fill:none" points="1326.2,1035.39 1326.2,117.424 "/>
<polyline clip-path="url(#clip893)" style="stroke:#000000; stroke-linecap:round; stroke-linejoin:round; stroke-width:2; stroke-opacity:0.1; fill:none" points="1477.29,1035.39 1477.29,117.424 "/>
<polyline clip-path="url(#clip893)" style="stroke:#000000; stroke-linecap:round; stroke-linejoin:round; stroke-width:2; stroke-opacity:0.1; fill:none" points="1628.37,1035.39 1628.37,117.424 "/>
<polyline clip-path="url(#clip893)" style="stroke:#000000; stroke-linecap:round; stroke-linejoin:round; stroke-width:2; stroke-opacity:0.1; fill:none" points="1779.46,1035.39 1779.46,117.424 "/>
<polyline clip-path="url(#clip893)" style="stroke:#000000; stroke-linecap:round; stroke-linejoin:round; stroke-width:2; stroke-opacity:0.1; fill:none" points="1930.55,1035.39 1930.55,117.424 "/>
<polyline clip-path="url(#clip893)" style="stroke:#000000; stroke-linecap:round; stroke-linejoin:round; stroke-width:2; stroke-opacity:0.1; fill:none" points="1168.01,1009.41 1952.76,1009.41 "/>
<polyline clip-path="url(#clip893)" style="stroke:#000000; stroke-linecap:round; stroke-linejoin:round; stroke-width:2; stroke-opacity:0.1; fill:none" points="1168.01,758.434 1952.76,758.434 "/>
<polyline clip-path="url(#clip893)" style="stroke:#000000; stroke-linecap:round; stroke-linejoin:round; stroke-width:2; stroke-opacity:0.1; fill:none" points="1168.01,507.46 1952.76,507.46 "/>
<polyline clip-path="url(#clip893)" style="stroke:#000000; stroke-linecap:round; stroke-linejoin:round; stroke-width:2; stroke-opacity:0.1; fill:none" points="1168.01,256.487 1952.76,256.487 "/>
<polyline clip-path="url(#clip890)" style="stroke:#000000; stroke-linecap:round; stroke-linejoin:round; stroke-width:4; stroke-opacity:1; fill:none" points="1168.01,1035.39 1952.76,1035.39 "/>
<polyline clip-path="url(#clip890)" style="stroke:#000000; stroke-linecap:round; stroke-linejoin:round; stroke-width:4; stroke-opacity:1; fill:none" points="1175.12,1035.39 1175.12,1016.49 "/>
<polyline clip-path="url(#clip890)" style="stroke:#000000; stroke-linecap:round; stroke-linejoin:round; stroke-width:4; stroke-opacity:1; fill:none" points="1326.2,1035.39 1326.2,1016.49 "/>
<polyline clip-path="url(#clip890)" style="stroke:#000000; stroke-linecap:round; stroke-linejoin:round; stroke-width:4; stroke-opacity:1; fill:none" points="1477.29,1035.39 1477.29,1016.49 "/>
<polyline clip-path="url(#clip890)" style="stroke:#000000; stroke-linecap:round; stroke-linejoin:round; stroke-width:4; stroke-opacity:1; fill:none" points="1628.37,1035.39 1628.37,1016.49 "/>
<polyline clip-path="url(#clip890)" style="stroke:#000000; stroke-linecap:round; stroke-linejoin:round; stroke-width:4; stroke-opacity:1; fill:none" points="1779.46,1035.39 1779.46,1016.49 "/>
<polyline clip-path="url(#clip890)" style="stroke:#000000; stroke-linecap:round; stroke-linejoin:round; stroke-width:4; stroke-opacity:1; fill:none" points="1930.55,1035.39 1930.55,1016.49 "/>
<path clip-path="url(#clip890)" d="M1175.12 1063.11 Q1171.5 1063.11 1169.68 1066.67 Q1167.87 1070.21 1167.87 1077.34 Q1167.87 1084.45 1169.68 1088.01 Q1171.5 1091.56 1175.12 1091.56 Q1178.75 1091.56 1180.56 1088.01 Q1182.38 1084.45 1182.38 1077.34 Q1182.38 1070.21 1180.56 1066.67 Q1178.75 1063.11 1175.12 1063.11 M1175.12 1059.4 Q1180.93 1059.4 1183.98 1064.01 Q1187.06 1068.59 1187.06 1077.34 Q1187.06 1086.07 1183.98 1090.68 Q1180.93 1095.26 1175.12 1095.26 Q1169.31 1095.26 1166.23 1090.68 Q1163.17 1086.07 1163.17 1077.34 Q1163.17 1068.59 1166.23 1064.01 Q1169.31 1059.4 1175.12 1059.4 Z" fill="#000000" fill-rule="nonzero" fill-opacity="1" /><path clip-path="url(#clip890)" d="M1300.89 1090.65 L1308.53 1090.65 L1308.53 1064.29 L1300.22 1065.95 L1300.22 1061.69 L1308.48 1060.03 L1313.16 1060.03 L1313.16 1090.65 L1320.8 1090.65 L1320.8 1094.59 L1300.89 1094.59 L1300.89 1090.65 Z" fill="#000000" fill-rule="nonzero" fill-opacity="1" /><path clip-path="url(#clip890)" d="M1340.24 1063.11 Q1336.63 1063.11 1334.8 1066.67 Q1333 1070.21 1333 1077.34 Q1333 1084.45 1334.8 1088.01 Q1336.63 1091.56 1340.24 1091.56 Q1343.88 1091.56 1345.68 1088.01 Q1347.51 1084.45 1347.51 1077.34 Q1347.51 1070.21 1345.68 1066.67 Q1343.88 1063.11 1340.24 1063.11 M1340.24 1059.4 Q1346.05 1059.4 1349.11 1064.01 Q1352.19 1068.59 1352.19 1077.34 Q1352.19 1086.07 1349.11 1090.68 Q1346.05 1095.26 1340.24 1095.26 Q1334.43 1095.26 1331.35 1090.68 Q1328.3 1086.07 1328.3 1077.34 Q1328.3 1068.59 1331.35 1064.01 Q1334.43 1059.4 1340.24 1059.4 Z" fill="#000000" fill-rule="nonzero" fill-opacity="1" /><path clip-path="url(#clip890)" d="M1456.06 1090.65 L1472.38 1090.65 L1472.38 1094.59 L1450.44 1094.59 L1450.44 1090.65 Q1453.1 1087.9 1457.68 1083.27 Q1462.29 1078.62 1463.47 1077.27 Q1465.71 1074.75 1466.59 1073.01 Q1467.5 1071.25 1467.5 1069.56 Q1467.5 1066.81 1465.55 1065.07 Q1463.63 1063.34 1460.53 1063.34 Q1458.33 1063.34 1455.88 1064.1 Q1453.45 1064.87 1450.67 1066.42 L1450.67 1061.69 Q1453.49 1060.56 1455.95 1059.98 Q1458.4 1059.4 1460.44 1059.4 Q1465.81 1059.4 1469 1062.09 Q1472.2 1064.77 1472.2 1069.26 Q1472.2 1071.39 1471.39 1073.31 Q1470.6 1075.21 1468.49 1077.81 Q1467.91 1078.48 1464.81 1081.69 Q1461.71 1084.89 1456.06 1090.65 Z" fill="#000000" fill-rule="nonzero" fill-opacity="1" /><path clip-path="url(#clip890)" d="M1492.2 1063.11 Q1488.58 1063.11 1486.76 1066.67 Q1484.95 1070.21 1484.95 1077.34 Q1484.95 1084.45 1486.76 1088.01 Q1488.58 1091.56 1492.2 1091.56 Q1495.83 1091.56 1497.64 1088.01 Q1499.46 1084.45 1499.46 1077.34 Q1499.46 1070.21 1497.64 1066.67 Q1495.83 1063.11 1492.2 1063.11 M1492.2 1059.4 Q1498.01 1059.4 1501.06 1064.01 Q1504.14 1068.59 1504.14 1077.34 Q1504.14 1086.07 1501.06 1090.68 Q1498.01 1095.26 1492.2 1095.26 Q1486.39 1095.26 1483.31 1090.68 Q1480.25 1086.07 1480.25 1077.34 Q1480.25 1068.59 1483.31 1064.01 Q1486.39 1059.4 1492.2 1059.4 Z" fill="#000000" fill-rule="nonzero" fill-opacity="1" /><path clip-path="url(#clip890)" d="M1617.22 1075.95 Q1620.57 1076.67 1622.45 1078.94 Q1624.35 1081.21 1624.35 1084.54 Q1624.35 1089.66 1620.83 1092.46 Q1617.31 1095.26 1610.83 1095.26 Q1608.65 1095.26 1606.34 1094.82 Q1604.05 1094.4 1601.59 1093.55 L1601.59 1089.03 Q1603.54 1090.17 1605.85 1090.75 Q1608.17 1091.32 1610.69 1091.32 Q1615.09 1091.32 1617.38 1089.59 Q1619.69 1087.85 1619.69 1084.54 Q1619.69 1081.49 1617.54 1079.77 Q1615.41 1078.04 1611.59 1078.04 L1607.56 1078.04 L1607.56 1074.19 L1611.78 1074.19 Q1615.23 1074.19 1617.05 1072.83 Q1618.88 1071.44 1618.88 1068.85 Q1618.88 1066.19 1616.99 1064.77 Q1615.11 1063.34 1611.59 1063.34 Q1609.67 1063.34 1607.47 1063.75 Q1605.27 1064.17 1602.63 1065.05 L1602.63 1060.88 Q1605.3 1060.14 1607.61 1059.77 Q1609.95 1059.4 1612.01 1059.4 Q1617.33 1059.4 1620.43 1061.83 Q1623.54 1064.24 1623.54 1068.36 Q1623.54 1071.23 1621.89 1073.22 Q1620.25 1075.19 1617.22 1075.95 Z" fill="#000000" fill-rule="nonzero" fill-opacity="1" /><path clip-path="url(#clip890)" d="M1643.21 1063.11 Q1639.6 1063.11 1637.77 1066.67 Q1635.97 1070.21 1635.97 1077.34 Q1635.97 1084.45 1637.77 1088.01 Q1639.6 1091.56 1643.21 1091.56 Q1646.85 1091.56 1648.65 1088.01 Q1650.48 1084.45 1650.48 1077.34 Q1650.48 1070.21 1648.65 1066.67 Q1646.85 1063.11 1643.21 1063.11 M1643.21 1059.4 Q1649.02 1059.4 1652.08 1064.01 Q1655.16 1068.59 1655.16 1077.34 Q1655.16 1086.07 1652.08 1090.68 Q1649.02 1095.26 1643.21 1095.26 Q1637.4 1095.26 1634.32 1090.68 Q1631.27 1086.07 1631.27 1077.34 Q1631.27 1068.59 1634.32 1064.01 Q1637.4 1059.4 1643.21 1059.4 Z" fill="#000000" fill-rule="nonzero" fill-opacity="1" /><path clip-path="url(#clip890)" d="M1767.63 1064.1 L1755.83 1082.55 L1767.63 1082.55 L1767.63 1064.1 M1766.4 1060.03 L1772.28 1060.03 L1772.28 1082.55 L1777.21 1082.55 L1777.21 1086.44 L1772.28 1086.44 L1772.28 1094.59 L1767.63 1094.59 L1767.63 1086.44 L1752.03 1086.44 L1752.03 1081.93 L1766.4 1060.03 Z" fill="#000000" fill-rule="nonzero" fill-opacity="1" /><path clip-path="url(#clip890)" d="M1794.95 1063.11 Q1791.34 1063.11 1789.51 1066.67 Q1787.7 1070.21 1787.7 1077.34 Q1787.7 1084.45 1789.51 1088.01 Q1791.34 1091.56 1794.95 1091.56 Q1798.58 1091.56 1800.39 1088.01 Q1802.21 1084.45 1802.21 1077.34 Q1802.21 1070.21 1800.39 1066.67 Q1798.58 1063.11 1794.95 1063.11 M1794.95 1059.4 Q1800.76 1059.4 1803.81 1064.01 Q1806.89 1068.59 1806.89 1077.34 Q1806.89 1086.07 1803.81 1090.68 Q1800.76 1095.26 1794.95 1095.26 Q1789.14 1095.26 1786.06 1090.68 Q1783 1086.07 1783 1077.34 Q1783 1068.59 1786.06 1064.01 Q1789.14 1059.4 1794.95 1059.4 Z" fill="#000000" fill-rule="nonzero" fill-opacity="1" /><path clip-path="url(#clip890)" d="M1905.25 1060.03 L1923.6 1060.03 L1923.6 1063.96 L1909.53 1063.96 L1909.53 1072.44 Q1910.55 1072.09 1911.56 1071.93 Q1912.58 1071.74 1913.6 1071.74 Q1919.39 1071.74 1922.77 1074.91 Q1926.15 1078.08 1926.15 1083.5 Q1926.15 1089.08 1922.68 1092.18 Q1919.2 1095.26 1912.88 1095.26 Q1910.71 1095.26 1908.44 1094.89 Q1906.19 1094.52 1903.79 1093.78 L1903.79 1089.08 Q1905.87 1090.21 1908.09 1090.77 Q1910.31 1091.32 1912.79 1091.32 Q1916.8 1091.32 1919.13 1089.22 Q1921.47 1087.11 1921.47 1083.5 Q1921.47 1079.89 1919.13 1077.78 Q1916.8 1075.68 1912.79 1075.68 Q1910.92 1075.68 1909.04 1076.09 Q1907.19 1076.51 1905.25 1077.39 L1905.25 1060.03 Z" fill="#000000" fill-rule="nonzero" fill-opacity="1" /><path clip-path="url(#clip890)" d="M1945.36 1063.11 Q1941.75 1063.11 1939.92 1066.67 Q1938.12 1070.21 1938.12 1077.34 Q1938.12 1084.45 1939.92 1088.01 Q1941.75 1091.56 1945.36 1091.56 Q1949 1091.56 1950.8 1088.01 Q1952.63 1084.45 1952.63 1077.34 Q1952.63 1070.21 1950.8 1066.67 Q1949 1063.11 1945.36 1063.11 M1945.36 1059.4 Q1951.17 1059.4 1954.23 1064.01 Q1957.31 1068.59 1957.31 1077.34 Q1957.31 1086.07 1954.23 1090.68 Q1951.17 1095.26 1945.36 1095.26 Q1939.55 1095.26 1936.47 1090.68 Q1933.42 1086.07 1933.42 1077.34 Q1933.42 1068.59 1936.47 1064.01 Q1939.55 1059.4 1945.36 1059.4 Z" fill="#000000" fill-rule="nonzero" fill-opacity="1" /><path clip-path="url(#clip890)" d="M1500.68 1128.29 L1500.68 1134.56 Q1497.01 1132.81 1493.77 1131.95 Q1490.52 1131.09 1487.5 1131.09 Q1482.25 1131.09 1479.38 1133.13 Q1476.55 1135.17 1476.55 1138.92 Q1476.55 1142.07 1478.43 1143.7 Q1480.34 1145.29 1485.62 1146.27 L1489.5 1147.07 Q1496.7 1148.44 1500.1 1151.91 Q1503.54 1155.35 1503.54 1161.14 Q1503.54 1168.05 1498.89 1171.61 Q1494.28 1175.17 1485.33 1175.17 Q1481.96 1175.17 1478.14 1174.41 Q1474.35 1173.65 1470.28 1172.15 L1470.28 1165.53 Q1474.19 1167.73 1477.95 1168.84 Q1481.71 1169.95 1485.33 1169.95 Q1490.84 1169.95 1493.83 1167.79 Q1496.82 1165.63 1496.82 1161.62 Q1496.82 1158.11 1494.66 1156.14 Q1492.53 1154.17 1487.63 1153.18 L1483.71 1152.42 Q1476.52 1150.99 1473.3 1147.93 Q1470.09 1144.87 1470.09 1139.43 Q1470.09 1133.13 1474.51 1129.5 Q1478.97 1125.87 1486.77 1125.87 Q1490.11 1125.87 1493.58 1126.48 Q1497.05 1127.08 1500.68 1128.29 Z" fill="#000000" fill-rule="nonzero" fill-opacity="1" /><path clip-path="url(#clip890)" d="M1519.1 1128.48 L1519.1 1138.6 L1531.17 1138.6 L1531.17 1143.16 L1519.1 1143.16 L1519.1 1162.51 Q1519.1 1166.87 1520.28 1168.11 Q1521.49 1169.35 1525.15 1169.35 L1531.17 1169.35 L1531.17 1174.25 L1525.15 1174.25 Q1518.37 1174.25 1515.79 1171.74 Q1513.22 1169.19 1513.22 1162.51 L1513.22 1143.16 L1508.92 1143.16 L1508.92 1138.6 L1513.22 1138.6 L1513.22 1128.48 L1519.1 1128.48 Z" fill="#000000" fill-rule="nonzero" fill-opacity="1" /><path clip-path="url(#clip890)" d="M1555.07 1156.33 Q1547.97 1156.33 1545.23 1157.96 Q1542.5 1159.58 1542.5 1163.49 Q1542.5 1166.61 1544.53 1168.46 Q1546.6 1170.27 1550.14 1170.27 Q1555.01 1170.27 1557.93 1166.84 Q1560.89 1163.37 1560.89 1157.64 L1560.89 1156.33 L1555.07 1156.33 M1566.75 1153.91 L1566.75 1174.25 L1560.89 1174.25 L1560.89 1168.84 Q1558.89 1172.09 1555.9 1173.65 Q1552.91 1175.17 1548.58 1175.17 Q1543.1 1175.17 1539.86 1172.12 Q1536.64 1169.03 1536.64 1163.88 Q1536.64 1157.86 1540.65 1154.8 Q1544.69 1151.75 1552.68 1151.75 L1560.89 1151.75 L1560.89 1151.18 Q1560.89 1147.13 1558.22 1144.94 Q1555.58 1142.71 1550.77 1142.71 Q1547.72 1142.71 1544.82 1143.44 Q1541.92 1144.17 1539.25 1145.64 L1539.25 1140.23 Q1542.47 1138.99 1545.49 1138.38 Q1548.51 1137.74 1551.38 1137.74 Q1559.11 1137.74 1562.93 1141.75 Q1566.75 1145.77 1566.75 1153.91 Z" fill="#000000" fill-rule="nonzero" fill-opacity="1" /><path clip-path="url(#clip890)" d="M1602.27 1156.01 Q1602.27 1149.65 1599.63 1146.15 Q1597.02 1142.65 1592.28 1142.65 Q1587.57 1142.65 1584.93 1146.15 Q1582.32 1149.65 1582.32 1156.01 Q1582.32 1162.35 1584.93 1165.85 Q1587.57 1169.35 1592.28 1169.35 Q1597.02 1169.35 1599.63 1165.85 Q1602.27 1162.35 1602.27 1156.01 M1608.13 1169.83 Q1608.13 1178.93 1604.09 1183.35 Q1600.04 1187.81 1591.7 1187.81 Q1588.62 1187.81 1585.88 1187.33 Q1583.14 1186.89 1580.56 1185.93 L1580.56 1180.24 Q1583.14 1181.64 1585.66 1182.3 Q1588.17 1182.97 1590.78 1182.97 Q1596.54 1182.97 1599.41 1179.95 Q1602.27 1176.96 1602.27 1170.88 L1602.27 1167.98 Q1600.46 1171.13 1597.62 1172.69 Q1594.79 1174.25 1590.85 1174.25 Q1584.29 1174.25 1580.28 1169.25 Q1576.27 1164.26 1576.27 1156.01 Q1576.27 1147.74 1580.28 1142.74 Q1584.29 1137.74 1590.85 1137.74 Q1594.79 1137.74 1597.62 1139.3 Q1600.46 1140.86 1602.27 1144.01 L1602.27 1138.6 L1608.13 1138.6 L1608.13 1169.83 Z" fill="#000000" fill-rule="nonzero" fill-opacity="1" /><path clip-path="url(#clip890)" d="M1650.68 1154.96 L1650.68 1157.83 L1623.76 1157.83 Q1624.14 1163.88 1627.38 1167.06 Q1630.66 1170.21 1636.49 1170.21 Q1639.86 1170.21 1643.01 1169.38 Q1646.2 1168.55 1649.31 1166.9 L1649.31 1172.44 Q1646.16 1173.77 1642.85 1174.47 Q1639.54 1175.17 1636.14 1175.17 Q1627.61 1175.17 1622.61 1170.21 Q1617.64 1165.24 1617.64 1156.78 Q1617.64 1148.03 1622.36 1142.9 Q1627.1 1137.74 1635.12 1137.74 Q1642.31 1137.74 1646.48 1142.39 Q1650.68 1147.01 1650.68 1154.96 M1644.83 1153.25 Q1644.76 1148.44 1642.12 1145.57 Q1639.51 1142.71 1635.18 1142.71 Q1630.28 1142.71 1627.32 1145.48 Q1624.39 1148.25 1623.95 1153.28 L1644.83 1153.25 Z" fill="#000000" fill-rule="nonzero" fill-opacity="1" /><polyline clip-path="url(#clip890)" style="stroke:#000000; stroke-linecap:round; stroke-linejoin:round; stroke-width:4; stroke-opacity:1; fill:none" points="1168.01,1035.39 1168.01,117.424 "/>
<polyline clip-path="url(#clip890)" style="stroke:#000000; stroke-linecap:round; stroke-linejoin:round; stroke-width:4; stroke-opacity:1; fill:none" points="1168.01,1009.41 1186.91,1009.41 "/>
<polyline clip-path="url(#clip890)" style="stroke:#000000; stroke-linecap:round; stroke-linejoin:round; stroke-width:4; stroke-opacity:1; fill:none" points="1168.01,758.434 1186.91,758.434 "/>
<polyline clip-path="url(#clip890)" style="stroke:#000000; stroke-linecap:round; stroke-linejoin:round; stroke-width:4; stroke-opacity:1; fill:none" points="1168.01,507.46 1186.91,507.46 "/>
<polyline clip-path="url(#clip890)" style="stroke:#000000; stroke-linecap:round; stroke-linejoin:round; stroke-width:4; stroke-opacity:1; fill:none" points="1168.01,256.487 1186.91,256.487 "/>
<path clip-path="url(#clip890)" d="M1126.07 995.206 Q1122.46 995.206 1120.63 998.771 Q1118.83 1002.31 1118.83 1009.44 Q1118.83 1016.55 1120.63 1020.11 Q1122.46 1023.66 1126.07 1023.66 Q1129.7 1023.66 1131.51 1020.11 Q1133.34 1016.55 1133.34 1009.44 Q1133.34 1002.31 1131.51 998.771 Q1129.7 995.206 1126.07 995.206 M1126.07 991.503 Q1131.88 991.503 1134.94 996.109 Q1138.01 1000.69 1138.01 1009.44 Q1138.01 1018.17 1134.94 1022.78 Q1131.88 1027.36 1126.07 1027.36 Q1120.26 1027.36 1117.18 1022.78 Q1114.13 1018.17 1114.13 1009.44 Q1114.13 1000.69 1117.18 996.109 Q1120.26 991.503 1126.07 991.503 Z" fill="#000000" fill-rule="nonzero" fill-opacity="1" /><path clip-path="url(#clip890)" d="M1059.77 771.779 L1076.09 771.779 L1076.09 775.714 L1054.15 775.714 L1054.15 771.779 Q1056.81 769.024 1061.39 764.395 Q1066 759.742 1067.18 758.399 Q1069.43 755.876 1070.31 754.14 Q1071.21 752.381 1071.21 750.691 Q1071.21 747.936 1069.27 746.2 Q1067.34 744.464 1064.24 744.464 Q1062.04 744.464 1059.59 745.228 Q1057.16 745.992 1054.38 747.543 L1054.38 742.821 Q1057.21 741.686 1059.66 741.108 Q1062.11 740.529 1064.15 740.529 Q1069.52 740.529 1072.71 743.214 Q1075.91 745.899 1075.91 750.39 Q1075.91 752.52 1075.1 754.441 Q1074.31 756.339 1072.2 758.932 Q1071.63 759.603 1068.52 762.821 Q1065.42 766.015 1059.77 771.779 Z" fill="#000000" fill-rule="nonzero" fill-opacity="1" /><path clip-path="url(#clip890)" d="M1095.91 744.233 Q1092.3 744.233 1090.47 747.798 Q1088.66 751.339 1088.66 758.469 Q1088.66 765.575 1090.47 769.14 Q1092.3 772.682 1095.91 772.682 Q1099.54 772.682 1101.35 769.14 Q1103.18 765.575 1103.18 758.469 Q1103.18 751.339 1101.35 747.798 Q1099.54 744.233 1095.91 744.233 M1095.91 740.529 Q1101.72 740.529 1104.77 745.136 Q1107.85 749.719 1107.85 758.469 Q1107.85 767.196 1104.77 771.802 Q1101.72 776.385 1095.91 776.385 Q1090.1 776.385 1087.02 771.802 Q1083.96 767.196 1083.96 758.469 Q1083.96 749.719 1087.02 745.136 Q1090.1 740.529 1095.91 740.529 Z" fill="#000000" fill-rule="nonzero" fill-opacity="1" /><path clip-path="url(#clip890)" d="M1126.07 744.233 Q1122.46 744.233 1120.63 747.798 Q1118.83 751.339 1118.83 758.469 Q1118.83 765.575 1120.63 769.14 Q1122.46 772.682 1126.07 772.682 Q1129.7 772.682 1131.51 769.14 Q1133.34 765.575 1133.34 758.469 Q1133.34 751.339 1131.51 747.798 Q1129.7 744.233 1126.07 744.233 M1126.07 740.529 Q1131.88 740.529 1134.94 745.136 Q1138.01 749.719 1138.01 758.469 Q1138.01 767.196 1134.94 771.802 Q1131.88 776.385 1126.07 776.385 Q1120.26 776.385 1117.18 771.802 Q1114.13 767.196 1114.13 758.469 Q1114.13 749.719 1117.18 745.136 Q1120.26 740.529 1126.07 740.529 Z" fill="#000000" fill-rule="nonzero" fill-opacity="1" /><path clip-path="url(#clip890)" d="M1068.59 494.254 L1056.79 512.703 L1068.59 512.703 L1068.59 494.254 M1067.37 490.18 L1073.25 490.18 L1073.25 512.703 L1078.18 512.703 L1078.18 516.592 L1073.25 516.592 L1073.25 524.74 L1068.59 524.74 L1068.59 516.592 L1052.99 516.592 L1052.99 512.078 L1067.37 490.18 Z" fill="#000000" fill-rule="nonzero" fill-opacity="1" /><path clip-path="url(#clip890)" d="M1095.91 493.259 Q1092.3 493.259 1090.47 496.824 Q1088.66 500.366 1088.66 507.495 Q1088.66 514.602 1090.47 518.166 Q1092.3 521.708 1095.91 521.708 Q1099.54 521.708 1101.35 518.166 Q1103.18 514.602 1103.18 507.495 Q1103.18 500.366 1101.35 496.824 Q1099.54 493.259 1095.91 493.259 M1095.91 489.555 Q1101.72 489.555 1104.77 494.162 Q1107.85 498.745 1107.85 507.495 Q1107.85 516.222 1104.77 520.828 Q1101.72 525.412 1095.91 525.412 Q1090.1 525.412 1087.02 520.828 Q1083.96 516.222 1083.96 507.495 Q1083.96 498.745 1087.02 494.162 Q1090.1 489.555 1095.91 489.555 Z" fill="#000000" fill-rule="nonzero" fill-opacity="1" /><path clip-path="url(#clip890)" d="M1126.07 493.259 Q1122.46 493.259 1120.63 496.824 Q1118.83 500.366 1118.83 507.495 Q1118.83 514.602 1120.63 518.166 Q1122.46 521.708 1126.07 521.708 Q1129.7 521.708 1131.51 518.166 Q1133.34 514.602 1133.34 507.495 Q1133.34 500.366 1131.51 496.824 Q1129.7 493.259 1126.07 493.259 M1126.07 489.555 Q1131.88 489.555 1134.94 494.162 Q1138.01 498.745 1138.01 507.495 Q1138.01 516.222 1134.94 520.828 Q1131.88 525.412 1126.07 525.412 Q1120.26 525.412 1117.18 520.828 Q1114.13 516.222 1114.13 507.495 Q1114.13 498.745 1117.18 494.162 Q1120.26 489.555 1126.07 489.555 Z" fill="#000000" fill-rule="nonzero" fill-opacity="1" /><path clip-path="url(#clip890)" d="M1066.33 254.623 Q1063.18 254.623 1061.33 256.776 Q1059.5 258.929 1059.5 262.679 Q1059.5 266.406 1061.33 268.582 Q1063.18 270.734 1066.33 270.734 Q1069.47 270.734 1071.3 268.582 Q1073.15 266.406 1073.15 262.679 Q1073.15 258.929 1071.3 256.776 Q1069.47 254.623 1066.33 254.623 M1075.61 239.971 L1075.61 244.23 Q1073.85 243.397 1072.04 242.957 Q1070.26 242.517 1068.5 242.517 Q1063.87 242.517 1061.42 245.642 Q1058.99 248.767 1058.64 255.086 Q1060.01 253.072 1062.07 252.008 Q1064.13 250.92 1066.6 250.92 Q1071.81 250.92 1074.82 254.091 Q1077.85 257.239 1077.85 262.679 Q1077.85 268.003 1074.7 271.22 Q1071.56 274.438 1066.33 274.438 Q1060.33 274.438 1057.16 269.855 Q1053.99 265.248 1053.99 256.521 Q1053.99 248.327 1057.88 243.466 Q1061.77 238.582 1068.32 238.582 Q1070.08 238.582 1071.86 238.929 Q1073.66 239.276 1075.61 239.971 Z" fill="#000000" fill-rule="nonzero" fill-opacity="1" /><path clip-path="url(#clip890)" d="M1095.91 242.285 Q1092.3 242.285 1090.47 245.85 Q1088.66 249.392 1088.66 256.521 Q1088.66 263.628 1090.47 267.193 Q1092.3 270.734 1095.91 270.734 Q1099.54 270.734 1101.35 267.193 Q1103.18 263.628 1103.18 256.521 Q1103.18 249.392 1101.35 245.85 Q1099.54 242.285 1095.91 242.285 M1095.91 238.582 Q1101.72 238.582 1104.77 243.188 Q1107.85 247.771 1107.85 256.521 Q1107.85 265.248 1104.77 269.855 Q1101.72 274.438 1095.91 274.438 Q1090.1 274.438 1087.02 269.855 Q1083.96 265.248 1083.96 256.521 Q1083.96 247.771 1087.02 243.188 Q1090.1 238.582 1095.91 238.582 Z" fill="#000000" fill-rule="nonzero" fill-opacity="1" /><path clip-path="url(#clip890)" d="M1126.07 242.285 Q1122.46 242.285 1120.63 245.85 Q1118.83 249.392 1118.83 256.521 Q1118.83 263.628 1120.63 267.193 Q1122.46 270.734 1126.07 270.734 Q1129.7 270.734 1131.51 267.193 Q1133.34 263.628 1133.34 256.521 Q1133.34 249.392 1131.51 245.85 Q1129.7 242.285 1126.07 242.285 M1126.07 238.582 Q1131.88 238.582 1134.94 243.188 Q1138.01 247.771 1138.01 256.521 Q1138.01 265.248 1134.94 269.855 Q1131.88 274.438 1126.07 274.438 Q1120.26 274.438 1117.18 269.855 Q1114.13 265.248 1114.13 256.521 Q1114.13 247.771 1117.18 243.188 Q1120.26 238.582 1126.07 238.582 Z" fill="#000000" fill-rule="nonzero" fill-opacity="1" /><path clip-path="url(#clip890)" d="M1365.5 54.671 L1365.5 27.2059 L1372.95 27.2059 L1372.95 54.3874 Q1372.95 60.8284 1375.46 64.0691 Q1377.97 67.2693 1383 67.2693 Q1389.03 67.2693 1392.52 63.421 Q1396.04 59.5726 1396.04 52.9291 L1396.04 27.2059 L1403.49 27.2059 L1403.49 72.576 L1396.04 72.576 L1396.04 65.6084 Q1393.33 69.7404 1389.72 71.7658 Q1386.16 73.7508 1381.42 73.7508 Q1373.6 73.7508 1369.55 68.8897 Q1365.5 64.0286 1365.5 54.671 M1384.25 26.1121 L1384.25 26.1121 Z" fill="#000000" fill-rule="nonzero" fill-opacity="1" /><path clip-path="url(#clip890)" d="M1453.32 86.3491 L1453.32 92.1419 L1410.22 92.1419 L1410.22 86.3491 L1453.32 86.3491 Z" fill="#000000" fill-rule="nonzero" fill-opacity="1" /><path clip-path="url(#clip890)" d="M1492.9 49.9314 Q1492.9 41.7081 1489.49 37.0496 Q1486.13 32.3505 1480.22 32.3505 Q1474.3 32.3505 1470.9 37.0496 Q1467.54 41.7081 1467.54 49.9314 Q1467.54 58.1548 1470.9 62.8538 Q1474.3 67.5124 1480.22 67.5124 Q1486.13 67.5124 1489.49 62.8538 Q1492.9 58.1548 1492.9 49.9314 M1467.54 34.0924 Q1469.89 30.0415 1473.45 28.0971 Q1477.06 26.1121 1482.04 26.1121 Q1490.3 26.1121 1495.45 32.6746 Q1500.63 39.2371 1500.63 49.9314 Q1500.63 60.6258 1495.45 67.1883 Q1490.3 73.7508 1482.04 73.7508 Q1477.06 73.7508 1473.45 71.8063 Q1469.89 69.8214 1467.54 65.7705 L1467.54 72.576 L1460.04 72.576 L1460.04 9.54393 L1467.54 9.54393 L1467.54 34.0924 Z" fill="#000000" fill-rule="nonzero" fill-opacity="1" /><path clip-path="url(#clip890)" d="M1512.22 54.671 L1512.22 27.2059 L1519.67 27.2059 L1519.67 54.3874 Q1519.67 60.8284 1522.19 64.0691 Q1524.7 67.2693 1529.72 67.2693 Q1535.76 67.2693 1539.24 63.421 Q1542.76 59.5726 1542.76 52.9291 L1542.76 27.2059 L1550.22 27.2059 L1550.22 72.576 L1542.76 72.576 L1542.76 65.6084 Q1540.05 69.7404 1536.44 71.7658 Q1532.88 73.7508 1528.14 73.7508 Q1520.32 73.7508 1516.27 68.8897 Q1512.22 64.0286 1512.22 54.671 M1530.98 26.1121 L1530.98 26.1121 Z" fill="#000000" fill-rule="nonzero" fill-opacity="1" /><path clip-path="url(#clip890)" d="M1584.45 76.7889 Q1581.29 84.8907 1578.29 87.3618 Q1575.29 89.8329 1570.27 89.8329 L1564.31 89.8329 L1564.31 83.5945 L1568.69 83.5945 Q1571.77 83.5945 1573.47 82.1361 Q1575.17 80.6778 1577.24 75.2496 L1578.57 71.8468 L1560.22 27.2059 L1568.12 27.2059 L1582.3 62.6918 L1596.48 27.2059 L1604.38 27.2059 L1584.45 76.7889 Z" fill="#000000" fill-rule="nonzero" fill-opacity="1" /><path clip-path="url(#clip890)" d="M1603.89 62.2867 L1612.44 62.2867 L1612.44 72.576 L1603.89 72.576 L1603.89 62.2867 Z" fill="#000000" fill-rule="nonzero" fill-opacity="1" /><path clip-path="url(#clip890)" d="M1646.79 32.4315 Q1640.8 32.4315 1637.31 37.1306 Q1633.83 41.7891 1633.83 49.9314 Q1633.83 58.0738 1637.27 62.7728 Q1640.76 67.4314 1646.79 67.4314 Q1652.75 67.4314 1656.23 62.7323 Q1659.71 58.0333 1659.71 49.9314 Q1659.71 41.8701 1656.23 37.1711 Q1652.75 32.4315 1646.79 32.4315 M1646.79 26.1121 Q1656.51 26.1121 1662.06 32.4315 Q1667.61 38.7509 1667.61 49.9314 Q1667.61 61.0714 1662.06 67.4314 Q1656.51 73.7508 1646.79 73.7508 Q1637.03 73.7508 1631.48 67.4314 Q1625.97 61.0714 1625.97 49.9314 Q1625.97 38.7509 1631.48 32.4315 Q1637.03 26.1121 1646.79 26.1121 Z" fill="#000000" fill-rule="nonzero" fill-opacity="1" /><path clip-path="url(#clip890)" d="M1679.2 54.671 L1679.2 27.2059 L1686.65 27.2059 L1686.65 54.3874 Q1686.65 60.8284 1689.16 64.0691 Q1691.68 67.2693 1696.7 67.2693 Q1702.73 67.2693 1706.22 63.421 Q1709.74 59.5726 1709.74 52.9291 L1709.74 27.2059 L1717.2 27.2059 L1717.2 72.576 L1709.74 72.576 L1709.74 65.6084 Q1707.03 69.7404 1703.42 71.7658 Q1699.86 73.7508 1695.12 73.7508 Q1687.3 73.7508 1683.25 68.8897 Q1679.2 64.0286 1679.2 54.671 M1697.95 26.1121 L1697.95 26.1121 Z" fill="#000000" fill-rule="nonzero" fill-opacity="1" /><path clip-path="url(#clip890)" d="M1739.92 14.324 L1739.92 27.2059 L1755.27 27.2059 L1755.27 32.9987 L1739.92 32.9987 L1739.92 57.6282 Q1739.92 63.1779 1741.42 64.7578 Q1742.96 66.3376 1747.62 66.3376 L1755.27 66.3376 L1755.27 72.576 L1747.62 72.576 Q1738.99 72.576 1735.71 69.3758 Q1732.43 66.1351 1732.43 57.6282 L1732.43 32.9987 L1726.96 32.9987 L1726.96 27.2059 L1732.43 27.2059 L1732.43 14.324 L1739.92 14.324 Z" fill="#000000" fill-rule="nonzero" fill-opacity="1" /><path clip-path="url(#clip893)" d="M1190.22 143.404 L1205.33 1009.41 L1220.44 988.924 L1235.55 1009.41 L1250.66 988.924 L1265.77 1009.41 L1280.88 988.924 L1295.98 1009.41 L1311.09 988.924 L1326.2 1009.41 L1341.31 988.924 L1356.42 1009.41 L1371.53 988.924 L1386.64 1009.41 L1401.74 988.924 L1416.85 1009.41 L1431.96 988.924 L1447.07 1009.41 L1462.18 988.924 L1477.29 1009.41 L1492.4 988.924 L1507.51 1009.41 L1522.61 988.924 L1537.72 1009.41 L1552.83 988.924 L1567.94 1009.41 L1583.05 988.924 L1598.16 1009.41 L1613.27 988.924 L1628.37 1009.41 L1643.48 988.924 L1658.59 1009.41 L1673.7 988.924 L1688.81 1009.41 L1703.92 988.924 L1719.03 1009.41 L1734.13 988.924 L1749.24 1009.41 L1764.35 988.924 L1779.46 1009.41 L1794.57 988.924 L1809.68 1009.41 L1824.79 988.924 L1839.89 1009.41 L1855 988.924 L1870.11 1009.41 L1885.22 988.924 L1900.33 1009.41 L1915.44 988.924 L1930.55 1009.41 L1930.55 1009.41 L1915.44 283.627 L1900.33 1009.41 L1885.22 283.627 L1870.11 1009.41 L1855 283.627 L1839.89 1009.41 L1824.79 283.627 L1809.68 1009.41 L1794.57 283.627 L1779.46 1009.41 L1764.35 283.627 L1749.24 1009.41 L1734.13 283.627 L1719.03 1009.41 L1703.92 283.627 L1688.81 1009.41 L1673.7 283.627 L1658.59 1009.41 L1643.48 283.627 L1628.37 1009.41 L1613.27 283.627 L1598.16 1009.41 L1583.05 283.627 L1567.94 1009.41 L1552.83 283.627 L1537.72 1009.41 L1522.61 283.627 L1507.51 1009.41 L1492.4 283.627 L1477.29 1009.41 L1462.18 283.627 L1447.07 1009.41 L1431.96 283.627 L1416.85 1009.41 L1401.74 283.627 L1386.64 1009.41 L1371.53 283.627 L1356.42 1009.41 L1341.31 283.627 L1326.2 1009.41 L1311.09 283.627 L1295.98 1009.41 L1280.88 283.627 L1265.77 1009.41 L1250.66 283.627 L1235.55 1009.41 L1220.44 283.627 L1205.33 1009.41 L1190.22 143.404  Z" fill="#00467f" fill-rule="evenodd" fill-opacity="0.2"/>
<polyline clip-path="url(#clip893)" style="stroke:#00467f; stroke-linecap:round; stroke-linejoin:round; stroke-width:4; stroke-opacity:0; fill:none" points="1190.22,143.404 1205.33,1009.41 1220.44,636.275 1235.55,1009.41 1250.66,636.275 1265.77,1009.41 1280.88,636.275 1295.98,1009.41 1311.09,636.275 1326.2,1009.41 1341.31,636.275 1356.42,1009.41 1371.53,636.275 1386.64,1009.41 1401.74,636.275 1416.85,1009.41 1431.96,636.275 1447.07,1009.41 1462.18,636.275 1477.29,1009.41 1492.4,636.275 1507.51,1009.41 1522.61,636.275 1537.72,1009.41 1552.83,636.275 1567.94,1009.41 1583.05,636.275 1598.16,1009.41 1613.27,636.275 1628.37,1009.41 1643.48,636.275 1658.59,1009.41 1673.7,636.275 1688.81,1009.41 1703.92,636.275 1719.03,1009.41 1734.13,636.275 1749.24,1009.41 1764.35,636.275 1779.46,1009.41 1794.57,636.275 1809.68,1009.41 1824.79,636.275 1839.89,1009.41 1855,636.275 1870.11,1009.41 1885.22,636.275 1900.33,1009.41 1915.44,636.275 1930.55,1009.41 "/>
<path clip-path="url(#clip893)" d="M1190.22 143.404 L1205.33 1009.41 L1220.44 851.15 L1235.55 1009.41 L1250.66 835.842 L1265.77 1009.41 L1280.88 851.15 L1295.98 1009.41 L1311.09 835.842 L1326.2 1009.41 L1341.31 835.842 L1356.42 1009.41 L1371.53 988.924 L1386.64 1009.41 L1401.74 835.842 L1416.85 1009.41 L1431.96 851.15 L1447.07 1009.41 L1462.18 988.924 L1477.29 1009.41 L1492.4 851.15 L1507.51 1009.41 L1522.61 851.15 L1537.72 1009.41 L1552.83 988.924 L1567.94 1009.41 L1583.05 851.15 L1598.16 1009.41 L1613.27 988.924 L1628.37 1009.41 L1643.48 851.15 L1658.59 1009.41 L1673.7 988.924 L1688.81 1009.41 L1703.92 988.924 L1719.03 1009.41 L1734.13 988.924 L1749.24 1009.41 L1764.35 988.924 L1779.46 1009.41 L1794.57 835.842 L1809.68 1009.41 L1824.79 835.842 L1839.89 1009.41 L1855 988.924 L1870.11 1009.41 L1885.22 988.924 L1900.33 1009.41 L1915.44 835.842 L1930.55 1009.41 L1930.55 1009.41 L1915.44 283.627 L1900.33 1009.41 L1885.22 336.552 L1870.11 1009.41 L1855 336.552 L1839.89 1009.41 L1824.79 283.627 L1809.68 1009.41 L1794.57 283.627 L1779.46 1009.41 L1764.35 336.552 L1749.24 1009.41 L1734.13 283.627 L1719.03 1009.41 L1703.92 283.627 L1688.81 1009.41 L1673.7 283.627 L1658.59 1009.41 L1643.48 283.627 L1628.37 1009.41 L1613.27 336.552 L1598.16 1009.41 L1583.05 283.627 L1567.94 1009.41 L1552.83 336.552 L1537.72 1009.41 L1522.61 283.627 L1507.51 1009.41 L1492.4 283.627 L1477.29 1009.41 L1462.18 336.552 L1447.07 1009.41 L1431.96 336.552 L1416.85 1009.41 L1401.74 336.552 L1386.64 1009.41 L1371.53 283.627 L1356.42 1009.41 L1341.31 336.552 L1326.2 1009.41 L1311.09 336.552 L1295.98 1009.41 L1280.88 283.627 L1265.77 1009.41 L1250.66 283.627 L1235.55 1009.41 L1220.44 336.552 L1205.33 1009.41 L1190.22 143.404  Z" fill="#00467f" fill-rule="evenodd" fill-opacity="0.2"/>
<polyline clip-path="url(#clip893)" style="stroke:#00467f; stroke-linecap:round; stroke-linejoin:round; stroke-width:4; stroke-opacity:0; fill:none" points="1190.22,143.404 1205.33,1009.41 1220.44,593.851 1235.55,1009.41 1250.66,559.734 1265.77,1009.41 1280.88,567.388 1295.98,1009.41 1311.09,586.197 1326.2,1009.41 1341.31,586.197 1356.42,1009.41 1371.53,636.275 1386.64,1009.41 1401.74,586.197 1416.85,1009.41 1431.96,593.851 1447.07,1009.41 1462.18,662.738 1477.29,1009.41 1492.4,567.388 1507.51,1009.41 1522.61,567.388 1537.72,1009.41 1552.83,662.738 1567.94,1009.41 1583.05,567.388 1598.16,1009.41 1613.27,662.738 1628.37,1009.41 1643.48,567.388 1658.59,1009.41 1673.7,636.275 1688.81,1009.41 1703.92,636.275 1719.03,1009.41 1734.13,636.275 1749.24,1009.41 1764.35,662.738 1779.46,1009.41 1794.57,559.734 1809.68,1009.41 1824.79,559.734 1839.89,1009.41 1855,662.738 1870.11,1009.41 1885.22,662.738 1900.33,1009.41 1915.44,559.734 1930.55,1009.41 "/>
<path clip-path="url(#clip893)" d="M1190.22 143.404 L1205.33 1009.41 L1220.44 835.175 L1235.55 1009.41 L1250.66 835.175 L1265.77 1009.41 L1280.88 835.175 L1295.98 1009.41 L1311.09 835.175 L1326.2 1009.41 L1341.31 835.175 L1356.42 1009.41 L1371.53 835.341 L1386.64 1009.41 L1401.74 835.175 L1416.85 1009.41 L1431.96 835.175 L1447.07 1009.41 L1462.18 835.175 L1477.29 1009.41 L1492.4 835.175 L1507.51 1009.41 L1522.61 835.175 L1537.72 1009.41 L1552.83 835.175 L1567.94 1009.41 L1583.05 835.175 L1598.16 1009.41 L1613.27 835.175 L1628.37 1009.41 L1643.48 835.175 L1658.59 1009.41 L1673.7 835.175 L1688.81 1009.41 L1703.92 835.175 L1719.03 1009.41 L1734.13 835.175 L1749.24 1009.41 L1764.35 835.175 L1779.46 1009.41 L1794.57 835.175 L1809.68 1009.41 L1824.79 835.175 L1839.89 1009.41 L1855 835.175 L1870.11 1009.41 L1885.22 835.175 L1900.33 1009.41 L1915.44 835.175 L1930.55 1009.41 L1930.55 1009.41 L1915.44 361.706 L1900.33 1009.41 L1885.22 361.706 L1870.11 1009.41 L1855 361.706 L1839.89 1009.41 L1824.79 361.706 L1809.68 1009.41 L1794.57 361.706 L1779.46 1009.41 L1764.35 361.706 L1749.24 1009.41 L1734.13 355.418 L1719.03 1009.41 L1703.92 361.706 L1688.81 1009.41 L1673.7 361.706 L1658.59 1009.41 L1643.48 361.706 L1628.37 1009.41 L1613.27 361.706 L1598.16 1009.41 L1583.05 361.706 L1567.94 1009.41 L1552.83 361.706 L1537.72 1009.41 L1522.61 361.706 L1507.51 1009.41 L1492.4 361.706 L1477.29 1009.41 L1462.18 444.521 L1447.07 1009.41 L1431.96 472.127 L1416.85 1009.41 L1401.74 361.706 L1386.64 1009.41 L1371.53 361.706 L1356.42 1009.41 L1341.31 444.521 L1326.2 1009.41 L1311.09 361.706 L1295.98 1009.41 L1280.88 361.706 L1265.77 1009.41 L1250.66 336.552 L1235.55 1009.41 L1220.44 361.706 L1205.33 1009.41 L1190.22 143.404  Z" fill="#00467f" fill-rule="evenodd" fill-opacity="0.2"/>
<polyline clip-path="url(#clip893)" style="stroke:#00467f; stroke-linecap:round; stroke-linejoin:round; stroke-width:4; stroke-opacity:0; fill:none" points="1190.22,143.404 1205.33,1009.41 1220.44,598.44 1235.55,1009.41 1250.66,585.863 1265.77,1009.41 1280.88,598.44 1295.98,1009.41 1311.09,598.44 1326.2,1009.41 1341.31,639.848 1356.42,1009.41 1371.53,598.524 1386.64,1009.41 1401.74,598.44 1416.85,1009.41 1431.96,653.651 1447.07,1009.41 1462.18,639.848 1477.29,1009.41 1492.4,598.44 1507.51,1009.41 1522.61,598.44 1537.72,1009.41 1552.83,598.44 1567.94,1009.41 1583.05,598.44 1598.16,1009.41 1613.27,598.44 1628.37,1009.41 1643.48,598.44 1658.59,1009.41 1673.7,598.44 1688.81,1009.41 1703.92,598.44 1719.03,1009.41 1734.13,595.296 1749.24,1009.41 1764.35,598.44 1779.46,1009.41 1794.57,598.44 1809.68,1009.41 1824.79,598.44 1839.89,1009.41 1855,598.44 1870.11,1009.41 1885.22,598.44 1900.33,1009.41 1915.44,598.44 1930.55,1009.41 "/>
<polyline clip-path="url(#clip893)" style="stroke:#00467f; stroke-linecap:round; stroke-linejoin:round; stroke-width:4; stroke-opacity:1; fill:none" points="1190.22,143.404 1205.33,1009.41 1220.44,541.586 1235.55,1009.41 1250.66,541.586 1265.77,1009.41 1280.88,541.586 1295.98,1009.41 1311.09,657.799 1326.2,1009.41 1341.31,657.799 1356.42,1009.41 1371.53,541.586 1386.64,1009.41 1401.74,657.799 1416.85,1009.41 1431.96,599.693 1447.07,1009.41 1462.18,657.799 1477.29,1009.41 1492.4,541.586 1507.51,1009.41 1522.61,541.586 1537.72,1009.41 1552.83,541.586 1567.94,1009.41 1583.05,541.586 1598.16,1009.41 1613.27,657.799 1628.37,1009.41 1643.48,657.799 1658.59,1009.41 1673.7,657.799 1688.81,1009.41 1703.92,657.799 1719.03,1009.41 1734.13,657.799 1749.24,1009.41 1764.35,657.799 1779.46,1009.41 1794.57,541.586 1809.68,1009.41 1824.79,541.586 1839.89,1009.41 1855,657.799 1870.11,1009.41 1885.22,657.799 1900.33,1009.41 1915.44,541.586 1930.55,1009.41 "/>
</svg>
