<?xml version="1.0" encoding="utf-8"?>
<svg xmlns="http://www.w3.org/2000/svg" xmlns:xlink="http://www.w3.org/1999/xlink" width="500" height="300" viewBox="0 0 2000 1200">
<defs>
  <clipPath id="clip190">
    <rect x="0" y="0" width="2000" height="1200"/>
  </clipPath>
</defs>
<path clip-path="url(#clip190)" d="M0 1200 L2000 1200 L2000 0 L0 0  Z" fill="#ffffff" fill-rule="evenodd" fill-opacity="1"/>
<defs>
  <clipPath id="clip191">
    <rect x="400" y="0" width="1401" height="1200"/>
  </clipPath>
</defs>
<path clip-path="url(#clip190)" d="M226.531 1035.39 L1952.76 1035.39 L1952.76 117.424 L226.531 117.424  Z" fill="#ffffff" fill-rule="evenodd" fill-opacity="1"/>
<defs>
  <clipPath id="clip192">
    <rect x="226" y="117" width="1727" height="919"/>
  </clipPath>
</defs>
<polyline clip-path="url(#clip192)" style="stroke:#000000; stroke-linecap:round; stroke-linejoin:round; stroke-width:2; stroke-opacity:0.1; fill:none" points="438.238,1035.39 438.238,117.424 "/>
<polyline clip-path="url(#clip192)" style="stroke:#000000; stroke-linecap:round; stroke-linejoin:round; stroke-width:2; stroke-opacity:0.1; fill:none" points="763.941,1035.39 763.941,117.424 "/>
<polyline clip-path="url(#clip192)" style="stroke:#000000; stroke-linecap:round; stroke-linejoin:round; stroke-width:2; stroke-opacity:0.1; fill:none" points="1089.64,1035.39 1089.64,117.424 "/>
<polyline clip-path="url(#clip192)" style="stroke:#000000; stroke-linecap:round; stroke-linejoin:round; stroke-width:2; stroke-opacity:0.1; fill:none" points="1415.35,1035.39 1415.35,117.424 "/>
<polyline clip-path="url(#clip192)" style="stroke:#000000; stroke-linecap:round; stroke-linejoin:round; stroke-width:2; stroke-opacity:0.1; fill:none" points="1741.05,1035.39 1741.05,117.424 "/>
<polyline clip-path="url(#clip192)" style="stroke:#000000; stroke-linecap:round; stroke-linejoin:round; stroke-width:2; stroke-opacity:0.1; fill:none" points="226.531,958.948 1952.76,958.948 "/>
<polyline clip-path="url(#clip192)" style="stroke:#000000; stroke-linecap:round; stroke-linejoin:round; stroke-width:2; stroke-opacity:0.1; fill:none" points="226.531,719.785 1952.76,719.785 "/>
<polyline clip-path="url(#clip192)" style="stroke:#000000; stroke-linecap:round; stroke-linejoin:round; stroke-width:2; stroke-opacity:0.1; fill:none" points="226.531,480.623 1952.76,480.623 "/>
<polyline clip-path="url(#clip192)" style="stroke:#000000; stroke-linecap:round; stroke-linejoin:round; stroke-width:2; stroke-opacity:0.1; fill:none" points="226.531,241.461 1952.76,241.461 "/>
<polyline clip-path="url(#clip190)" style="stroke:#000000; stroke-linecap:round; stroke-linejoin:round; stroke-width:4; stroke-opacity:1; fill:none" points="226.531,1035.39 1952.76,1035.39 "/>
<polyline clip-path="url(#clip190)" style="stroke:#000000; stroke-linecap:round; stroke-linejoin:round; stroke-width:4; stroke-opacity:1; fill:none" points="438.238,1035.39 438.238,1016.49 "/>
<polyline clip-path="url(#clip190)" style="stroke:#000000; stroke-linecap:round; stroke-linejoin:round; stroke-width:4; stroke-opacity:1; fill:none" points="763.941,1035.39 763.941,1016.49 "/>
<polyline clip-path="url(#clip190)" style="stroke:#000000; stroke-linecap:round; stroke-linejoin:round; stroke-width:4; stroke-opacity:1; fill:none" points="1089.64,1035.39 1089.64,1016.49 "/>
<polyline clip-path="url(#clip190)" style="stroke:#000000; stroke-linecap:round; stroke-linejoin:round; stroke-width:4; stroke-opacity:1; fill:none" points="1415.35,1035.39 1415.35,1016.49 "/>
<polyline clip-path="url(#clip190)" style="stroke:#000000; stroke-linecap:round; stroke-linejoin:round; stroke-width:4; stroke-opacity:1; fill:none" points="1741.05,1035.39 1741.05,1016.49 "/>
<path clip-path="url(#clip190)" d="M432.891 1090.65 L449.21 1090.65 L449.21 1094.59 L427.266 1094.59 L427.266 1090.65 Q429.928 1087.9 434.511 1083.27 Q439.117 1078.62 440.298 1077.27 Q442.543 1074.75 443.423 1073.01 Q444.326 1071.25 444.326 1069.56 Q444.326 1066.81 442.381 1065.07 Q440.46 1063.34 437.358 1063.34 Q435.159 1063.34 432.705 1064.1 Q430.275 1064.87 427.497 1066.42 L427.497 1061.69 Q430.321 1060.56 432.775 1059.98 Q435.228 1059.4 437.265 1059.4 Q442.636 1059.4 445.83 1062.09 Q449.025 1064.77 449.025 1069.26 Q449.025 1071.39 448.214 1073.31 Q447.427 1075.21 445.321 1077.81 Q444.742 1078.48 441.64 1081.69 Q438.539 1084.89 432.891 1090.65 Z" fill="#000000" fill-rule="nonzero" fill-opacity="1" /><path clip-path="url(#clip190)" d="M766.95 1064.1 L755.144 1082.55 L766.95 1082.55 L766.95 1064.1 M765.723 1060.03 L771.603 1060.03 L771.603 1082.55 L776.533 1082.55 L776.533 1086.44 L771.603 1086.44 L771.603 1094.59 L766.95 1094.59 L766.95 1086.44 L751.348 1086.44 L751.348 1081.93 L765.723 1060.03 Z" fill="#000000" fill-rule="nonzero" fill-opacity="1" /><path clip-path="url(#clip190)" d="M1090.05 1075.44 Q1086.9 1075.44 1085.05 1077.6 Q1083.22 1079.75 1083.22 1083.5 Q1083.22 1087.23 1085.05 1089.4 Q1086.9 1091.56 1090.05 1091.56 Q1093.2 1091.56 1095.03 1089.4 Q1096.88 1087.23 1096.88 1083.5 Q1096.88 1079.75 1095.03 1077.6 Q1093.2 1075.44 1090.05 1075.44 M1099.33 1060.79 L1099.33 1065.05 Q1097.57 1064.22 1095.77 1063.78 Q1093.98 1063.34 1092.22 1063.34 Q1087.59 1063.34 1085.14 1066.46 Q1082.71 1069.59 1082.36 1075.91 Q1083.73 1073.89 1085.79 1072.83 Q1087.85 1071.74 1090.33 1071.74 Q1095.53 1071.74 1098.54 1074.91 Q1101.58 1078.06 1101.58 1083.5 Q1101.58 1088.82 1098.43 1092.04 Q1095.28 1095.26 1090.05 1095.26 Q1084.05 1095.26 1080.88 1090.68 Q1077.71 1086.07 1077.71 1077.34 Q1077.71 1069.15 1081.6 1064.29 Q1085.49 1059.4 1092.04 1059.4 Q1093.8 1059.4 1095.58 1059.75 Q1097.39 1060.1 1099.33 1060.79 Z" fill="#000000" fill-rule="nonzero" fill-opacity="1" /><path clip-path="url(#clip190)" d="M1415.35 1078.18 Q1412.01 1078.18 1410.09 1079.96 Q1408.19 1081.74 1408.19 1084.87 Q1408.19 1087.99 1410.09 1089.77 Q1412.01 1091.56 1415.35 1091.56 Q1418.68 1091.56 1420.6 1089.77 Q1422.52 1087.97 1422.52 1084.87 Q1422.52 1081.74 1420.6 1079.96 Q1418.7 1078.18 1415.35 1078.18 M1410.67 1076.19 Q1407.66 1075.44 1405.97 1073.38 Q1404.3 1071.32 1404.3 1068.36 Q1404.3 1064.22 1407.24 1061.81 Q1410.21 1059.4 1415.35 1059.4 Q1420.51 1059.4 1423.45 1061.81 Q1426.39 1064.22 1426.39 1068.36 Q1426.39 1071.32 1424.7 1073.38 Q1423.03 1075.44 1420.05 1076.19 Q1423.42 1076.97 1425.3 1079.26 Q1427.2 1081.56 1427.2 1084.87 Q1427.2 1089.89 1424.12 1092.57 Q1421.06 1095.26 1415.35 1095.26 Q1409.63 1095.26 1406.55 1092.57 Q1403.49 1089.89 1403.49 1084.87 Q1403.49 1081.56 1405.39 1079.26 Q1407.29 1076.97 1410.67 1076.19 M1408.96 1068.8 Q1408.96 1071.49 1410.62 1072.99 Q1412.31 1074.5 1415.35 1074.5 Q1418.36 1074.5 1420.05 1072.99 Q1421.76 1071.49 1421.76 1068.8 Q1421.76 1066.12 1420.05 1064.61 Q1418.36 1063.11 1415.35 1063.11 Q1412.31 1063.11 1410.62 1064.61 Q1408.96 1066.12 1408.96 1068.8 Z" fill="#000000" fill-rule="nonzero" fill-opacity="1" /><path clip-path="url(#clip190)" d="M1715.74 1090.65 L1723.38 1090.65 L1723.38 1064.29 L1715.07 1065.95 L1715.07 1061.69 L1723.33 1060.03 L1728.01 1060.03 L1728.01 1090.65 L1735.64 1090.65 L1735.64 1094.59 L1715.74 1094.59 L1715.74 1090.65 Z" fill="#000000" fill-rule="nonzero" fill-opacity="1" /><path clip-path="url(#clip190)" d="M1755.09 1063.11 Q1751.48 1063.11 1749.65 1066.67 Q1747.84 1070.21 1747.84 1077.34 Q1747.84 1084.45 1749.65 1088.01 Q1751.48 1091.56 1755.09 1091.56 Q1758.72 1091.56 1760.53 1088.01 Q1762.36 1084.45 1762.36 1077.34 Q1762.36 1070.21 1760.53 1066.67 Q1758.72 1063.11 1755.09 1063.11 M1755.09 1059.4 Q1760.9 1059.4 1763.95 1064.01 Q1767.03 1068.59 1767.03 1077.34 Q1767.03 1086.07 1763.95 1090.68 Q1760.9 1095.26 1755.09 1095.26 Q1749.28 1095.26 1746.2 1090.68 Q1743.14 1086.07 1743.14 1077.34 Q1743.14 1068.59 1746.2 1064.01 Q1749.28 1059.4 1755.09 1059.4 Z" fill="#000000" fill-rule="nonzero" fill-opacity="1" /><path clip-path="url(#clip190)" d="M1029.93 1128.29 L1029.93 1134.56 Q1026.27 1132.81 1023.03 1131.95 Q1019.78 1131.09 1016.76 1131.09 Q1011.5 1131.09 1008.64 1133.13 Q1005.81 1135.17 1005.81 1138.92 Q1005.81 1142.07 1007.68 1143.7 Q1009.59 1145.29 1014.88 1146.27 L1018.76 1147.07 Q1025.95 1148.44 1029.36 1151.91 Q1032.8 1155.35 1032.8 1161.14 Q1032.8 1168.05 1028.15 1171.61 Q1023.54 1175.17 1014.59 1175.17 Q1011.22 1175.17 1007.4 1174.41 Q1003.61 1173.65 999.537 1172.15 L999.537 1165.53 Q1003.45 1167.73 1007.21 1168.84 Q1010.96 1169.95 1014.59 1169.95 Q1020.1 1169.95 1023.09 1167.79 Q1026.08 1165.63 1026.08 1161.62 Q1026.08 1158.11 1023.92 1156.14 Q1021.78 1154.17 1016.88 1153.18 L1012.97 1152.42 Q1005.78 1150.99 1002.56 1147.93 Q999.346 1144.87 999.346 1139.43 Q999.346 1133.13 1003.77 1129.5 Q1008.23 1125.87 1016.02 1125.87 Q1019.37 1125.87 1022.84 1126.48 Q1026.3 1127.08 1029.93 1128.29 Z" fill="#000000" fill-rule="nonzero" fill-opacity="1" /><path clip-path="url(#clip190)" d="M1048.36 1128.48 L1048.36 1138.6 L1060.42 1138.6 L1060.42 1143.16 L1048.36 1143.16 L1048.36 1162.51 Q1048.36 1166.87 1049.54 1168.11 Q1050.75 1169.35 1054.41 1169.35 L1060.42 1169.35 L1060.42 1174.25 L1054.41 1174.25 Q1047.63 1174.25 1045.05 1171.74 Q1042.47 1169.19 1042.47 1162.51 L1042.47 1143.16 L1038.18 1143.16 L1038.18 1138.6 L1042.47 1138.6 L1042.47 1128.48 L1048.36 1128.48 Z" fill="#000000" fill-rule="nonzero" fill-opacity="1" /><path clip-path="url(#clip190)" d="M1084.33 1156.33 Q1077.23 1156.33 1074.49 1157.96 Q1071.76 1159.58 1071.76 1163.49 Q1071.76 1166.61 1073.79 1168.46 Q1075.86 1170.27 1079.39 1170.27 Q1084.26 1170.27 1087.19 1166.84 Q1090.15 1163.37 1090.15 1157.64 L1090.15 1156.33 L1084.33 1156.33 M1096.01 1153.91 L1096.01 1174.25 L1090.15 1174.25 L1090.15 1168.84 Q1088.15 1172.09 1085.16 1173.65 Q1082.16 1175.17 1077.83 1175.17 Q1072.36 1175.17 1069.11 1172.12 Q1065.9 1169.03 1065.9 1163.88 Q1065.9 1157.86 1069.91 1154.8 Q1073.95 1151.75 1081.94 1151.75 L1090.15 1151.75 L1090.15 1151.18 Q1090.15 1147.13 1087.48 1144.94 Q1084.84 1142.71 1080.03 1142.71 Q1076.98 1142.71 1074.08 1143.44 Q1071.18 1144.17 1068.51 1145.64 L1068.51 1140.23 Q1071.72 1138.99 1074.75 1138.38 Q1077.77 1137.74 1080.64 1137.74 Q1088.37 1137.74 1092.19 1141.75 Q1096.01 1145.77 1096.01 1153.91 Z" fill="#000000" fill-rule="nonzero" fill-opacity="1" /><path clip-path="url(#clip190)" d="M1131.53 1156.01 Q1131.53 1149.65 1128.89 1146.15 Q1126.28 1142.65 1121.54 1142.65 Q1116.82 1142.65 1114.18 1146.15 Q1111.57 1149.65 1111.57 1156.01 Q1111.57 1162.35 1114.18 1165.85 Q1116.82 1169.35 1121.54 1169.35 Q1126.28 1169.35 1128.89 1165.85 Q1131.53 1162.35 1131.53 1156.01 M1137.39 1169.83 Q1137.39 1178.93 1133.34 1183.35 Q1129.3 1187.81 1120.96 1187.81 Q1117.88 1187.81 1115.14 1187.33 Q1112.4 1186.89 1109.82 1185.93 L1109.82 1180.24 Q1112.4 1181.64 1114.92 1182.3 Q1117.43 1182.97 1120.04 1182.97 Q1125.8 1182.97 1128.67 1179.95 Q1131.53 1176.96 1131.53 1170.88 L1131.53 1167.98 Q1129.72 1171.13 1126.88 1172.69 Q1124.05 1174.25 1120.1 1174.25 Q1113.55 1174.25 1109.54 1169.25 Q1105.53 1164.26 1105.53 1156.01 Q1105.53 1147.74 1109.54 1142.74 Q1113.55 1137.74 1120.1 1137.74 Q1124.05 1137.74 1126.88 1139.3 Q1129.72 1140.86 1131.53 1144.01 L1131.53 1138.6 L1137.39 1138.6 L1137.39 1169.83 Z" fill="#000000" fill-rule="nonzero" fill-opacity="1" /><path clip-path="url(#clip190)" d="M1179.94 1154.96 L1179.94 1157.83 L1153.01 1157.83 Q1153.4 1163.88 1156.64 1167.06 Q1159.92 1170.21 1165.75 1170.21 Q1169.12 1170.21 1172.27 1169.38 Q1175.45 1168.55 1178.57 1166.9 L1178.57 1172.44 Q1175.42 1173.77 1172.11 1174.47 Q1168.8 1175.17 1165.4 1175.17 Q1156.87 1175.17 1151.87 1170.21 Q1146.9 1165.24 1146.9 1156.78 Q1146.9 1148.03 1151.61 1142.9 Q1156.36 1137.74 1164.38 1137.74 Q1171.57 1137.74 1175.74 1142.39 Q1179.94 1147.01 1179.94 1154.96 M1174.08 1153.25 Q1174.02 1148.44 1171.38 1145.57 Q1168.77 1142.71 1164.44 1142.71 Q1159.54 1142.71 1156.58 1145.48 Q1153.65 1148.25 1153.2 1153.28 L1174.08 1153.25 Z" fill="#000000" fill-rule="nonzero" fill-opacity="1" /><polyline clip-path="url(#clip190)" style="stroke:#000000; stroke-linecap:round; stroke-linejoin:round; stroke-width:4; stroke-opacity:1; fill:none" points="226.531,1035.39 226.531,117.424 "/>
<polyline clip-path="url(#clip190)" style="stroke:#000000; stroke-linecap:round; stroke-linejoin:round; stroke-width:4; stroke-opacity:1; fill:none" points="226.531,958.948 245.428,958.948 "/>
<polyline clip-path="url(#clip190)" style="stroke:#000000; stroke-linecap:round; stroke-linejoin:round; stroke-width:4; stroke-opacity:1; fill:none" points="226.531,719.785 245.428,719.785 "/>
<polyline clip-path="url(#clip190)" style="stroke:#000000; stroke-linecap:round; stroke-linejoin:round; stroke-width:4; stroke-opacity:1; fill:none" points="226.531,480.623 245.428,480.623 "/>
<polyline clip-path="url(#clip190)" style="stroke:#000000; stroke-linecap:round; stroke-linejoin:round; stroke-width:4; stroke-opacity:1; fill:none" points="226.531,241.461 245.428,241.461 "/>
<path clip-path="url(#clip190)" d="M127.11 945.742 L115.304 964.191 L127.11 964.191 L127.11 945.742 M125.883 941.668 L131.763 941.668 L131.763 964.191 L136.693 964.191 L136.693 968.08 L131.763 968.08 L131.763 976.228 L127.11 976.228 L127.11 968.08 L111.508 968.08 L111.508 963.566 L125.883 941.668 Z" fill="#000000" fill-rule="nonzero" fill-opacity="1" /><path clip-path="url(#clip190)" d="M154.425 944.746 Q150.814 944.746 148.985 948.311 Q147.179 951.853 147.179 958.982 Q147.179 966.089 148.985 969.654 Q150.814 973.195 154.425 973.195 Q158.059 973.195 159.864 969.654 Q161.693 966.089 161.693 958.982 Q161.693 951.853 159.864 948.311 Q158.059 944.746 154.425 944.746 M154.425 941.043 Q160.235 941.043 163.29 945.649 Q166.369 950.232 166.369 958.982 Q166.369 967.709 163.29 972.316 Q160.235 976.899 154.425 976.899 Q148.614 976.899 145.536 972.316 Q142.48 967.709 142.48 958.982 Q142.48 950.232 145.536 945.649 Q148.614 941.043 154.425 941.043 Z" fill="#000000" fill-rule="nonzero" fill-opacity="1" /><path clip-path="url(#clip190)" d="M184.586 944.746 Q180.975 944.746 179.147 948.311 Q177.341 951.853 177.341 958.982 Q177.341 966.089 179.147 969.654 Q180.975 973.195 184.586 973.195 Q188.221 973.195 190.026 969.654 Q191.855 966.089 191.855 958.982 Q191.855 951.853 190.026 948.311 Q188.221 944.746 184.586 944.746 M184.586 941.043 Q190.397 941.043 193.452 945.649 Q196.531 950.232 196.531 958.982 Q196.531 967.709 193.452 972.316 Q190.397 976.899 184.586 976.899 Q178.776 976.899 175.698 972.316 Q172.642 967.709 172.642 958.982 Q172.642 950.232 175.698 945.649 Q178.776 941.043 184.586 941.043 Z" fill="#000000" fill-rule="nonzero" fill-opacity="1" /><path clip-path="url(#clip190)" d="M114.309 702.505 L132.665 702.505 L132.665 706.441 L118.591 706.441 L118.591 714.913 Q119.61 714.565 120.628 714.403 Q121.647 714.218 122.666 714.218 Q128.453 714.218 131.832 717.39 Q135.212 720.561 135.212 725.977 Q135.212 731.556 131.74 734.658 Q128.267 737.737 121.948 737.737 Q119.772 737.737 117.503 737.366 Q115.258 736.996 112.851 736.255 L112.851 731.556 Q114.934 732.69 117.156 733.246 Q119.378 733.801 121.855 733.801 Q125.86 733.801 128.198 731.695 Q130.536 729.589 130.536 725.977 Q130.536 722.366 128.198 720.26 Q125.86 718.153 121.855 718.153 Q119.98 718.153 118.105 718.57 Q116.254 718.987 114.309 719.866 L114.309 702.505 Z" fill="#000000" fill-rule="nonzero" fill-opacity="1" /><path clip-path="url(#clip190)" d="M154.425 705.584 Q150.814 705.584 148.985 709.149 Q147.179 712.69 147.179 719.82 Q147.179 726.927 148.985 730.491 Q150.814 734.033 154.425 734.033 Q158.059 734.033 159.864 730.491 Q161.693 726.927 161.693 719.82 Q161.693 712.69 159.864 709.149 Q158.059 705.584 154.425 705.584 M154.425 701.88 Q160.235 701.88 163.29 706.487 Q166.369 711.07 166.369 719.82 Q166.369 728.547 163.29 733.153 Q160.235 737.737 154.425 737.737 Q148.614 737.737 145.536 733.153 Q142.48 728.547 142.48 719.82 Q142.48 711.07 145.536 706.487 Q148.614 701.88 154.425 701.88 Z" fill="#000000" fill-rule="nonzero" fill-opacity="1" /><path clip-path="url(#clip190)" d="M184.586 705.584 Q180.975 705.584 179.147 709.149 Q177.341 712.69 177.341 719.82 Q177.341 726.927 179.147 730.491 Q180.975 734.033 184.586 734.033 Q188.221 734.033 190.026 730.491 Q191.855 726.927 191.855 719.82 Q191.855 712.69 190.026 709.149 Q188.221 705.584 184.586 705.584 M184.586 701.88 Q190.397 701.88 193.452 706.487 Q196.531 711.07 196.531 719.82 Q196.531 728.547 193.452 733.153 Q190.397 737.737 184.586 737.737 Q178.776 737.737 175.698 733.153 Q172.642 728.547 172.642 719.82 Q172.642 711.07 175.698 706.487 Q178.776 701.88 184.586 701.88 Z" fill="#000000" fill-rule="nonzero" fill-opacity="1" /><path clip-path="url(#clip190)" d="M124.841 478.76 Q121.693 478.76 119.841 480.912 Q118.013 483.065 118.013 486.815 Q118.013 490.542 119.841 492.718 Q121.693 494.871 124.841 494.871 Q127.99 494.871 129.818 492.718 Q131.67 490.542 131.67 486.815 Q131.67 483.065 129.818 480.912 Q127.99 478.76 124.841 478.76 M134.124 464.107 L134.124 468.366 Q132.365 467.533 130.559 467.093 Q128.777 466.653 127.017 466.653 Q122.388 466.653 119.934 469.778 Q117.503 472.903 117.156 479.223 Q118.522 477.209 120.582 476.144 Q122.642 475.056 125.119 475.056 Q130.328 475.056 133.337 478.227 Q136.369 481.375 136.369 486.815 Q136.369 492.139 133.221 495.357 Q130.073 498.574 124.841 498.574 Q118.846 498.574 115.675 493.991 Q112.504 489.385 112.504 480.658 Q112.504 472.463 116.392 467.602 Q120.281 462.718 126.832 462.718 Q128.591 462.718 130.374 463.065 Q132.179 463.413 134.124 464.107 Z" fill="#000000" fill-rule="nonzero" fill-opacity="1" /><path clip-path="url(#clip190)" d="M154.425 466.422 Q150.814 466.422 148.985 469.987 Q147.179 473.528 147.179 480.658 Q147.179 487.764 148.985 491.329 Q150.814 494.871 154.425 494.871 Q158.059 494.871 159.864 491.329 Q161.693 487.764 161.693 480.658 Q161.693 473.528 159.864 469.987 Q158.059 466.422 154.425 466.422 M154.425 462.718 Q160.235 462.718 163.29 467.325 Q166.369 471.908 166.369 480.658 Q166.369 489.385 163.29 493.991 Q160.235 498.574 154.425 498.574 Q148.614 498.574 145.536 493.991 Q142.48 489.385 142.48 480.658 Q142.48 471.908 145.536 467.325 Q148.614 462.718 154.425 462.718 Z" fill="#000000" fill-rule="nonzero" fill-opacity="1" /><path clip-path="url(#clip190)" d="M184.586 466.422 Q180.975 466.422 179.147 469.987 Q177.341 473.528 177.341 480.658 Q177.341 487.764 179.147 491.329 Q180.975 494.871 184.586 494.871 Q188.221 494.871 190.026 491.329 Q191.855 487.764 191.855 480.658 Q191.855 473.528 190.026 469.987 Q188.221 466.422 184.586 466.422 M184.586 462.718 Q190.397 462.718 193.452 467.325 Q196.531 471.908 196.531 480.658 Q196.531 489.385 193.452 493.991 Q190.397 498.574 184.586 498.574 Q178.776 498.574 175.698 493.991 Q172.642 489.385 172.642 480.658 Q172.642 471.908 175.698 467.325 Q178.776 462.718 184.586 462.718 Z" fill="#000000" fill-rule="nonzero" fill-opacity="1" /><path clip-path="url(#clip190)" d="M113.082 224.181 L135.304 224.181 L135.304 226.172 L122.758 258.741 L117.874 258.741 L129.679 228.116 L113.082 228.116 L113.082 224.181 Z" fill="#000000" fill-rule="nonzero" fill-opacity="1" /><path clip-path="url(#clip190)" d="M154.425 227.259 Q150.814 227.259 148.985 230.824 Q147.179 234.366 147.179 241.495 Q147.179 248.602 148.985 252.167 Q150.814 255.708 154.425 255.708 Q158.059 255.708 159.864 252.167 Q161.693 248.602 161.693 241.495 Q161.693 234.366 159.864 230.824 Q158.059 227.259 154.425 227.259 M154.425 223.556 Q160.235 223.556 163.29 228.162 Q166.369 232.746 166.369 241.495 Q166.369 250.222 163.29 254.829 Q160.235 259.412 154.425 259.412 Q148.614 259.412 145.536 254.829 Q142.48 250.222 142.48 241.495 Q142.48 232.746 145.536 228.162 Q148.614 223.556 154.425 223.556 Z" fill="#000000" fill-rule="nonzero" fill-opacity="1" /><path clip-path="url(#clip190)" d="M184.586 227.259 Q180.975 227.259 179.147 230.824 Q177.341 234.366 177.341 241.495 Q177.341 248.602 179.147 252.167 Q180.975 255.708 184.586 255.708 Q188.221 255.708 190.026 252.167 Q191.855 248.602 191.855 241.495 Q191.855 234.366 190.026 230.824 Q188.221 227.259 184.586 227.259 M184.586 223.556 Q190.397 223.556 193.452 228.162 Q196.531 232.746 196.531 241.495 Q196.531 250.222 193.452 254.829 Q190.397 259.412 184.586 259.412 Q178.776 259.412 175.698 254.829 Q172.642 250.222 172.642 241.495 Q172.642 232.746 175.698 228.162 Q178.776 223.556 184.586 223.556 Z" fill="#000000" fill-rule="nonzero" fill-opacity="1" /><path clip-path="url(#clip190)" d="M24.0927 692.421 Q24.0927 699.423 29.3125 703.561 Q34.5324 707.667 43.5399 707.667 Q52.5155 707.667 57.7354 703.561 Q62.9553 699.423 62.9553 692.421 Q62.9553 685.419 57.7354 681.345 Q52.5155 677.239 43.5399 677.239 Q34.5324 677.239 29.3125 681.345 Q24.0927 685.419 24.0927 692.421 M66.3928 683.414 L75.6549 674.947 L75.6549 682.713 L68.0479 689.747 Q68.1115 690.798 68.1434 691.371 Q68.1752 691.912 68.1752 692.421 Q68.1752 702.447 61.4912 708.463 Q54.7754 714.446 43.5399 714.446 Q32.2726 714.446 25.5886 708.463 Q18.8728 702.447 18.8728 692.421 Q18.8728 682.427 25.5886 676.443 Q32.2726 670.459 43.5399 670.459 Q51.8153 670.459 57.7036 673.801 Q63.5919 677.111 66.3928 683.414 Z" fill="#000000" fill-rule="nonzero" fill-opacity="1" /><path clip-path="url(#clip190)" d="M53.1839 661.261 L31.6042 661.261 L31.6042 655.404 L52.9611 655.404 Q58.0219 655.404 60.5682 653.431 Q63.0826 651.458 63.0826 647.511 Q63.0826 642.768 60.0589 640.031 Q57.0352 637.262 51.8153 637.262 L31.6042 637.262 L31.6042 631.406 L67.2522 631.406 L67.2522 637.262 L61.7776 637.262 Q65.0242 639.395 66.6156 642.227 Q68.1752 645.028 68.1752 648.752 Q68.1752 654.895 64.3558 658.078 Q60.5363 661.261 53.1839 661.261 M30.7448 646.524 L30.7448 646.524 Z" fill="#000000" fill-rule="nonzero" fill-opacity="1" /><path clip-path="url(#clip190)" d="M49.3327 603.142 Q49.3327 610.24 50.9559 612.977 Q52.5792 615.714 56.4941 615.714 Q59.6133 615.714 61.4594 613.677 Q63.2736 611.608 63.2736 608.075 Q63.2736 603.206 59.8361 600.277 Q56.3668 597.317 50.6377 597.317 L49.3327 597.317 L49.3327 603.142 M46.9137 591.461 L67.2522 591.461 L67.2522 597.317 L61.8413 597.317 Q65.0878 599.323 66.6474 602.314 Q68.1752 605.306 68.1752 609.635 Q68.1752 615.109 65.1196 618.356 Q62.0323 621.571 56.8761 621.571 Q50.8605 621.571 47.8049 617.56 Q44.7494 613.518 44.7494 605.529 L44.7494 597.317 L44.1765 597.317 Q40.1342 597.317 37.9381 599.991 Q35.7101 602.633 35.7101 607.439 Q35.7101 610.494 36.4421 613.391 Q37.1742 616.287 38.6383 618.961 L33.2275 618.961 Q31.9861 615.746 31.3814 612.722 Q30.7448 609.699 30.7448 606.834 Q30.7448 599.1 34.7552 595.28 Q38.7656 591.461 46.9137 591.461 Z" fill="#000000" fill-rule="nonzero" fill-opacity="1" /><path clip-path="url(#clip190)" d="M45.7361 549.766 L67.2522 549.766 L67.2522 555.622 L45.927 555.622 Q40.8663 555.622 38.3518 557.595 Q35.8374 559.569 35.8374 563.515 Q35.8374 568.258 38.8611 570.995 Q41.8848 573.732 47.1047 573.732 L67.2522 573.732 L67.2522 579.621 L31.6042 579.621 L31.6042 573.732 L37.1424 573.732 Q33.9277 571.632 32.3363 568.799 Q30.7448 565.934 30.7448 562.21 Q30.7448 556.068 34.5643 552.917 Q38.3518 549.766 45.7361 549.766 Z" fill="#000000" fill-rule="nonzero" fill-opacity="1" /><path clip-path="url(#clip190)" d="M21.4827 532.292 L31.6042 532.292 L31.6042 520.229 L36.1557 520.229 L36.1557 532.292 L55.5074 532.292 Q59.8679 532.292 61.1093 531.114 Q62.3506 529.904 62.3506 526.244 L62.3506 520.229 L67.2522 520.229 L67.2522 526.244 Q67.2522 533.024 64.7377 535.602 Q62.1914 538.18 55.5074 538.18 L36.1557 538.18 L36.1557 542.477 L31.6042 542.477 L31.6042 538.18 L21.4827 538.18 L21.4827 532.292 Z" fill="#000000" fill-rule="nonzero" fill-opacity="1" /><path clip-path="url(#clip190)" d="M31.6042 512.526 L31.6042 506.67 L67.2522 506.67 L67.2522 512.526 L31.6042 512.526 M17.727 512.526 L17.727 506.67 L25.143 506.67 L25.143 512.526 L17.727 512.526 Z" fill="#000000" fill-rule="nonzero" fill-opacity="1" /><path clip-path="url(#clip190)" d="M21.4827 488.623 L31.6042 488.623 L31.6042 476.56 L36.1557 476.56 L36.1557 488.623 L55.5074 488.623 Q59.8679 488.623 61.1093 487.445 Q62.3506 486.236 62.3506 482.575 L62.3506 476.56 L67.2522 476.56 L67.2522 482.575 Q67.2522 489.355 64.7377 491.933 Q62.1914 494.511 55.5074 494.511 L36.1557 494.511 L36.1557 498.808 L31.6042 498.808 L31.6042 494.511 L21.4827 494.511 L21.4827 488.623 Z" fill="#000000" fill-rule="nonzero" fill-opacity="1" /><path clip-path="url(#clip190)" d="M70.5623 454.025 Q76.928 456.508 78.8696 458.863 Q80.8111 461.219 80.8111 465.165 L80.8111 469.844 L75.9095 469.844 L75.9095 466.407 Q75.9095 463.988 74.7637 462.651 Q73.6179 461.314 69.3528 459.691 L66.6792 458.64 L31.6042 473.059 L31.6042 466.852 L59.486 455.712 L31.6042 444.572 L31.6042 438.366 L70.5623 454.025 Z" fill="#000000" fill-rule="nonzero" fill-opacity="1" /><path clip-path="url(#clip190)" d="M556.524 27.2059 L540.118 49.2833 L557.375 72.576 L548.584 72.576 L535.378 54.752 L522.172 72.576 L513.382 72.576 L531.003 48.8377 L514.881 27.2059 L523.671 27.2059 L535.702 43.369 L547.734 27.2059 L556.524 27.2059 Z" fill="#000000" fill-rule="nonzero" fill-opacity="1" /><path clip-path="url(#clip190)" d="M602.38 86.3491 L602.38 92.1419 L559.279 92.1419 L559.279 86.3491 L602.38 86.3491 Z" fill="#000000" fill-rule="nonzero" fill-opacity="1" /><path clip-path="url(#clip190)" d="M609.388 27.2059 L616.842 27.2059 L616.842 72.576 L609.388 72.576 L609.388 27.2059 M609.388 9.54393 L616.842 9.54393 L616.842 18.9825 L609.388 18.9825 L609.388 9.54393 Z" fill="#000000" fill-rule="nonzero" fill-opacity="1" /><path clip-path="url(#clip190)" d="M670.152 45.1919 L670.152 72.576 L662.698 72.576 L662.698 45.4349 Q662.698 38.994 660.187 35.7938 Q657.675 32.5936 652.652 32.5936 Q646.616 32.5936 643.132 36.4419 Q639.649 40.2903 639.649 46.9338 L639.649 72.576 L632.155 72.576 L632.155 27.2059 L639.649 27.2059 L639.649 34.2544 Q642.322 30.163 645.928 28.1376 Q649.573 26.1121 654.313 26.1121 Q662.131 26.1121 666.142 30.9732 Q670.152 35.7938 670.152 45.1919 Z" fill="#000000" fill-rule="nonzero" fill-opacity="1" /><path clip-path="url(#clip190)" d="M679.672 27.2059 L687.571 27.2059 L701.749 65.2844 L715.927 27.2059 L723.826 27.2059 L706.813 72.576 L696.685 72.576 L679.672 27.2059 Z" fill="#000000" fill-rule="nonzero" fill-opacity="1" /><path clip-path="url(#clip190)" d="M772.923 48.0275 L772.923 51.6733 L738.653 51.6733 Q739.139 59.3701 743.271 63.421 Q747.443 67.4314 754.856 67.4314 Q759.15 67.4314 763.161 66.3781 Q767.212 65.3249 771.182 63.2184 L771.182 70.267 Q767.171 71.9684 762.958 72.8596 Q758.745 73.7508 754.411 73.7508 Q743.554 73.7508 737.194 67.4314 Q730.875 61.1119 730.875 50.3365 Q730.875 39.1965 736.87 32.6746 Q742.906 26.1121 753.115 26.1121 Q762.27 26.1121 767.576 32.0264 Q772.923 37.9003 772.923 48.0275 M765.47 45.84 Q765.389 39.7232 762.026 36.0774 Q758.705 32.4315 753.196 32.4315 Q746.957 32.4315 743.19 35.9558 Q739.463 39.4801 738.896 45.8805 L765.47 45.84 Z" fill="#000000" fill-rule="nonzero" fill-opacity="1" /><path clip-path="url(#clip190)" d="M822.871 45.1919 L822.871 72.576 L815.417 72.576 L815.417 45.4349 Q815.417 38.994 812.906 35.7938 Q810.394 32.5936 805.371 32.5936 Q799.335 32.5936 795.852 36.4419 Q792.368 40.2903 792.368 46.9338 L792.368 72.576 L784.874 72.576 L784.874 27.2059 L792.368 27.2059 L792.368 34.2544 Q795.041 30.163 798.647 28.1376 Q802.292 26.1121 807.032 26.1121 Q814.85 26.1121 818.861 30.9732 Q822.871 35.7938 822.871 45.1919 Z" fill="#000000" fill-rule="nonzero" fill-opacity="1" /><path clip-path="url(#clip190)" d="M845.111 14.324 L845.111 27.2059 L860.463 27.2059 L860.463 32.9987 L845.111 32.9987 L845.111 57.6282 Q845.111 63.1779 846.609 64.7578 Q848.149 66.3376 852.807 66.3376 L860.463 66.3376 L860.463 72.576 L852.807 72.576 Q844.179 72.576 840.898 69.3758 Q837.616 66.1351 837.616 57.6282 L837.616 32.9987 L832.148 32.9987 L832.148 27.2059 L837.616 27.2059 L837.616 14.324 L845.111 14.324 Z" fill="#000000" fill-rule="nonzero" fill-opacity="1" /><path clip-path="url(#clip190)" d="M887.848 32.4315 Q881.852 32.4315 878.368 37.1306 Q874.885 41.7891 874.885 49.9314 Q874.885 58.0738 878.328 62.7728 Q881.812 67.4314 887.848 67.4314 Q893.802 67.4314 897.286 62.7323 Q900.77 58.0333 900.77 49.9314 Q900.77 41.8701 897.286 37.1711 Q893.802 32.4315 887.848 32.4315 M887.848 26.1121 Q897.57 26.1121 903.119 32.4315 Q908.669 38.7509 908.669 49.9314 Q908.669 61.0714 903.119 67.4314 Q897.57 73.7508 887.848 73.7508 Q878.085 73.7508 872.535 67.4314 Q867.026 61.0714 867.026 49.9314 Q867.026 38.7509 872.535 32.4315 Q878.085 26.1121 887.848 26.1121 Z" fill="#000000" fill-rule="nonzero" fill-opacity="1" /><path clip-path="url(#clip190)" d="M947.315 34.1734 Q946.059 33.4443 944.56 33.1202 Q943.102 32.7556 941.32 32.7556 Q935 32.7556 931.597 36.8875 Q928.235 40.9789 928.235 48.6757 L928.235 72.576 L920.741 72.576 L920.741 27.2059 L928.235 27.2059 L928.235 34.2544 Q930.585 30.1225 934.352 28.1376 Q938.119 26.1121 943.507 26.1121 Q944.277 26.1121 945.208 26.2337 Q946.14 26.3147 947.274 26.5172 L947.315 34.1734 Z" fill="#000000" fill-rule="nonzero" fill-opacity="1" /><path clip-path="url(#clip190)" d="M974.01 76.7889 Q970.851 84.8907 967.853 87.3618 Q964.855 89.8329 959.832 89.8329 L953.877 89.8329 L953.877 83.5945 L958.252 83.5945 Q961.331 83.5945 963.032 82.1361 Q964.734 80.6778 966.8 75.2496 L968.137 71.8468 L949.786 27.2059 L957.685 27.2059 L971.863 62.6918 L986.042 27.2059 L993.941 27.2059 L974.01 76.7889 Z" fill="#000000" fill-rule="nonzero" fill-opacity="1" /><path clip-path="url(#clip190)" d="M993.455 62.2867 L1002 62.2867 L1002 72.576 L993.455 72.576 L993.455 62.2867 Z" fill="#000000" fill-rule="nonzero" fill-opacity="1" /><path clip-path="url(#clip190)" d="M1036.35 32.4315 Q1030.36 32.4315 1026.87 37.1306 Q1023.39 41.7891 1023.39 49.9314 Q1023.39 58.0738 1026.83 62.7728 Q1030.32 67.4314 1036.35 67.4314 Q1042.31 67.4314 1045.79 62.7323 Q1049.28 58.0333 1049.28 49.9314 Q1049.28 41.8701 1045.79 37.1711 Q1042.31 32.4315 1036.35 32.4315 M1036.35 26.1121 Q1046.08 26.1121 1051.63 32.4315 Q1057.18 38.7509 1057.18 49.9314 Q1057.18 61.0714 1051.63 67.4314 Q1046.08 73.7508 1036.35 73.7508 Q1026.59 73.7508 1021.04 67.4314 Q1015.53 61.0714 1015.53 49.9314 Q1015.53 38.7509 1021.04 32.4315 Q1026.59 26.1121 1036.35 26.1121 Z" fill="#000000" fill-rule="nonzero" fill-opacity="1" /><path clip-path="url(#clip190)" d="M1068.76 54.671 L1068.76 27.2059 L1076.21 27.2059 L1076.21 54.3874 Q1076.21 60.8284 1078.73 64.0691 Q1081.24 67.2693 1086.26 67.2693 Q1092.3 67.2693 1095.78 63.421 Q1099.3 59.5726 1099.3 52.9291 L1099.3 27.2059 L1106.76 27.2059 L1106.76 72.576 L1099.3 72.576 L1099.3 65.6084 Q1096.59 69.7404 1092.99 71.7658 Q1089.42 73.7508 1084.68 73.7508 Q1076.86 73.7508 1072.81 68.8897 Q1068.76 64.0286 1068.76 54.671 M1087.52 26.1121 L1087.52 26.1121 Z" fill="#000000" fill-rule="nonzero" fill-opacity="1" /><path clip-path="url(#clip190)" d="M1129.48 14.324 L1129.48 27.2059 L1144.84 27.2059 L1144.84 32.9987 L1129.48 32.9987 L1129.48 57.6282 Q1129.48 63.1779 1130.98 64.7578 Q1132.52 66.3376 1137.18 66.3376 L1144.84 66.3376 L1144.84 72.576 L1137.18 72.576 Q1128.55 72.576 1125.27 69.3758 Q1121.99 66.1351 1121.99 57.6282 L1121.99 32.9987 L1116.52 32.9987 L1116.52 27.2059 L1121.99 27.2059 L1121.99 14.324 L1129.48 14.324 Z" fill="#000000" fill-rule="nonzero" fill-opacity="1" /><path clip-path="url(#clip190)" d="M1211.35 20.5624 L1211.35 43.1259 L1233.92 43.1259 L1233.92 50.0125 L1211.35 50.0125 L1211.35 72.576 L1204.55 72.576 L1204.55 50.0125 L1181.98 50.0125 L1181.98 43.1259 L1204.55 43.1259 L1204.55 20.5624 L1211.35 20.5624 Z" fill="#000000" fill-rule="nonzero" fill-opacity="1" /><path clip-path="url(#clip190)" d="M1276.13 54.671 L1276.13 27.2059 L1283.58 27.2059 L1283.58 54.3874 Q1283.58 60.8284 1286.09 64.0691 Q1288.6 67.2693 1293.63 67.2693 Q1299.66 67.2693 1303.15 63.421 Q1306.67 59.5726 1306.67 52.9291 L1306.67 27.2059 L1314.12 27.2059 L1314.12 72.576 L1306.67 72.576 L1306.67 65.6084 Q1303.96 69.7404 1300.35 71.7658 Q1296.79 73.7508 1292.05 73.7508 Q1284.23 73.7508 1280.18 68.8897 Q1276.13 64.0286 1276.13 54.671 M1294.88 26.1121 L1294.88 26.1121 Z" fill="#000000" fill-rule="nonzero" fill-opacity="1" /><path clip-path="url(#clip190)" d="M1363.95 86.3491 L1363.95 92.1419 L1320.85 92.1419 L1320.85 86.3491 L1363.95 86.3491 Z" fill="#000000" fill-rule="nonzero" fill-opacity="1" /><path clip-path="url(#clip190)" d="M1403.53 49.9314 Q1403.53 41.7081 1400.12 37.0496 Q1396.76 32.3505 1390.85 32.3505 Q1384.93 32.3505 1381.53 37.0496 Q1378.17 41.7081 1378.17 49.9314 Q1378.17 58.1548 1381.53 62.8538 Q1384.93 67.5124 1390.85 67.5124 Q1396.76 67.5124 1400.12 62.8538 Q1403.53 58.1548 1403.53 49.9314 M1378.17 34.0924 Q1380.52 30.0415 1384.08 28.0971 Q1387.69 26.1121 1392.67 26.1121 Q1400.94 26.1121 1406.08 32.6746 Q1411.26 39.2371 1411.26 49.9314 Q1411.26 60.6258 1406.08 67.1883 Q1400.94 73.7508 1392.67 73.7508 Q1387.69 73.7508 1384.08 71.8063 Q1380.52 69.8214 1378.17 65.7705 L1378.17 72.576 L1370.67 72.576 L1370.67 9.54393 L1378.17 9.54393 L1378.17 34.0924 Z" fill="#000000" fill-rule="nonzero" fill-opacity="1" /><path clip-path="url(#clip190)" d="M1422.85 54.671 L1422.85 27.2059 L1430.3 27.2059 L1430.3 54.3874 Q1430.3 60.8284 1432.82 64.0691 Q1435.33 67.2693 1440.35 67.2693 Q1446.39 67.2693 1449.87 63.421 Q1453.39 59.5726 1453.39 52.9291 L1453.39 27.2059 L1460.85 27.2059 L1460.85 72.576 L1453.39 72.576 L1453.39 65.6084 Q1450.68 69.7404 1447.07 71.7658 Q1443.51 73.7508 1438.77 73.7508 Q1430.95 73.7508 1426.9 68.8897 Q1422.85 64.0286 1422.85 54.671 M1441.61 26.1121 L1441.61 26.1121 Z" fill="#000000" fill-rule="nonzero" fill-opacity="1" /><path clip-path="url(#clip190)" d="M1495.08 76.7889 Q1491.92 84.8907 1488.92 87.3618 Q1485.92 89.8329 1480.9 89.8329 L1474.95 89.8329 L1474.95 83.5945 L1479.32 83.5945 Q1482.4 83.5945 1484.1 82.1361 Q1485.8 80.6778 1487.87 75.2496 L1489.2 71.8468 L1470.85 27.2059 L1478.75 27.2059 L1492.93 62.6918 L1507.11 27.2059 L1515.01 27.2059 L1495.08 76.7889 Z" fill="#000000" fill-rule="nonzero" fill-opacity="1" /><path clip-path="url(#clip190)" d="M1514.52 62.2867 L1523.07 62.2867 L1523.07 72.576 L1514.52 72.576 L1514.52 62.2867 Z" fill="#000000" fill-rule="nonzero" fill-opacity="1" /><path clip-path="url(#clip190)" d="M1557.42 32.4315 Q1551.43 32.4315 1547.94 37.1306 Q1544.46 41.7891 1544.46 49.9314 Q1544.46 58.0738 1547.9 62.7728 Q1551.39 67.4314 1557.42 67.4314 Q1563.38 67.4314 1566.86 62.7323 Q1570.34 58.0333 1570.34 49.9314 Q1570.34 41.8701 1566.86 37.1711 Q1563.38 32.4315 1557.42 32.4315 M1557.42 26.1121 Q1567.14 26.1121 1572.69 32.4315 Q1578.24 38.7509 1578.24 49.9314 Q1578.24 61.0714 1572.69 67.4314 Q1567.14 73.7508 1557.42 73.7508 Q1547.66 73.7508 1542.11 67.4314 Q1536.6 61.0714 1536.6 49.9314 Q1536.6 38.7509 1542.11 32.4315 Q1547.66 26.1121 1557.42 26.1121 Z" fill="#000000" fill-rule="nonzero" fill-opacity="1" /><path clip-path="url(#clip190)" d="M1589.83 54.671 L1589.83 27.2059 L1597.28 27.2059 L1597.28 54.3874 Q1597.28 60.8284 1599.79 64.0691 Q1602.31 67.2693 1607.33 67.2693 Q1613.36 67.2693 1616.85 63.421 Q1620.37 59.5726 1620.37 52.9291 L1620.37 27.2059 L1627.83 27.2059 L1627.83 72.576 L1620.37 72.576 L1620.37 65.6084 Q1617.66 69.7404 1614.05 71.7658 Q1610.49 73.7508 1605.75 73.7508 Q1597.93 73.7508 1593.88 68.8897 Q1589.83 64.0286 1589.83 54.671 M1608.58 26.1121 L1608.58 26.1121 Z" fill="#000000" fill-rule="nonzero" fill-opacity="1" /><path clip-path="url(#clip190)" d="M1650.55 14.324 L1650.55 27.2059 L1665.9 27.2059 L1665.9 32.9987 L1650.55 32.9987 L1650.55 57.6282 Q1650.55 63.1779 1652.05 64.7578 Q1653.59 66.3376 1658.25 66.3376 L1665.9 66.3376 L1665.9 72.576 L1658.25 72.576 Q1649.62 72.576 1646.34 69.3758 Q1643.06 66.1351 1643.06 57.6282 L1643.06 32.9987 L1637.59 32.9987 L1637.59 27.2059 L1643.06 27.2059 L1643.06 14.324 L1650.55 14.324 Z" fill="#000000" fill-rule="nonzero" fill-opacity="1" /><path clip-path="url(#clip192)" d="M275.386 167.847 L438.238 167.847 L601.089 167.847 L763.941 167.847 L926.792 167.847 L1089.64 167.847 L1252.49 167.847 L1415.35 305.625 L1578.2 930.272 L1741.05 1009.41 L1903.9 1009.41 L1903.9 246.983 L1741.05 246.983 L1578.2 272.688 L1415.35 220.268 L1252.49 167.847 L1089.64 167.847 L926.792 167.847 L763.941 167.847 L601.089 167.847 L438.238 167.847 L275.386 167.847  Z" fill="#00467f" fill-rule="evenodd" fill-opacity="0.2"/>
<polyline clip-path="url(#clip192)" style="stroke:#00467f; stroke-linecap:round; stroke-linejoin:round; stroke-width:4; stroke-opacity:0; fill:none" points="275.386,167.847 438.238,167.847 601.089,167.847 763.941,167.847 926.792,167.847 1089.64,167.847 1252.49,167.847 1415.35,262.946 1578.2,601.48 1741.05,628.195 1903.9,628.195 "/>
<path clip-path="url(#clip192)" d="M275.386 167.847 L438.238 167.847 L601.089 167.847 L763.941 167.847 L926.792 167.847 L1089.64 167.847 L1252.49 167.847 L1415.35 305.625 L1578.2 930.272 L1741.05 1009.41 L1903.9 1009.41 L1903.9 299.711 L1741.05 299.711 L1578.2 358.046 L1415.35 246.983 L1252.49 167.847 L1089.64 167.847 L926.792 167.847 L763.941 167.847 L601.089 167.847 L438.238 167.847 L275.386 167.847  Z" fill="#00467f" fill-rule="evenodd" fill-opacity="0.2"/>
<polyline clip-path="url(#clip192)" style="stroke:#00467f; stroke-linecap:round; stroke-linejoin:round; stroke-width:4; stroke-opacity:0; fill:none" points="275.386,167.847 438.238,167.847 601.089,167.847 763.941,167.847 926.792,167.847 1089.64,167.847 1252.49,167.847 1415.35,276.304 1578.2,644.159 1741.05,654.559 1903.9,654.559 "/>
<path clip-path="url(#clip192)" d="M275.386 167.847 L438.238 167.847 L601.089 167.847 L763.941 167.847 L926.792 167.847 L1089.64 167.847 L1252.49 167.847 L1415.35 305.625 L1578.2 930.272 L1741.05 1009.41 L1903.9 1009.41 L1903.9 690.195 L1741.05 690.195 L1578.2 769.475 L1415.35 305.625 L1252.49 167.847 L1089.64 167.847 L926.792 167.847 L763.941 167.847 L601.089 167.847 L438.238 167.847 L275.386 167.847  Z" fill="#00467f" fill-rule="evenodd" fill-opacity="0.2"/>
<polyline clip-path="url(#clip192)" style="stroke:#00467f; stroke-linecap:round; stroke-linejoin:round; stroke-width:4; stroke-opacity:0; fill:none" points="275.386,167.847 438.238,167.847 601.089,167.847 763.941,167.847 926.792,167.847 1089.64,167.847 1252.49,167.847 1415.35,305.625 1578.2,849.873 1741.05,849.801 1903.9,849.801 "/>
<polyline clip-path="url(#clip192)" style="stroke:#00467f; stroke-linecap:round; stroke-linejoin:round; stroke-width:4; stroke-opacity:1; fill:none" points="275.386,167.847 438.238,167.847 601.089,167.847 763.941,167.847 926.792,167.847 1089.64,167.847 1252.49,167.847 1415.35,305.625 1578.2,903.865 1741.05,1009.41 1903.9,1009.41 "/>
<polyline clip-path="url(#clip192)" style="stroke:#ac8d18; stroke-linecap:round; stroke-linejoin:round; stroke-width:4; stroke-opacity:1; fill:none" points="-1499.69,143.404 3678.98,143.404 "/>
<path clip-path="url(#clip190)" d="M284.072 1004.79 L845.674 1004.79 L845.674 901.109 L284.072 901.109  Z" fill="#ffffff" fill-rule="evenodd" fill-opacity="1"/>
<polyline clip-path="url(#clip190)" style="stroke:#000000; stroke-linecap:round; stroke-linejoin:round; stroke-width:4; stroke-opacity:1; fill:none" points="284.072,1004.79 845.674,1004.79 845.674,901.109 284.072,901.109 284.072,1004.79 "/>
<polyline clip-path="url(#clip190)" style="stroke:#ac8d18; stroke-linecap:round; stroke-linejoin:round; stroke-width:4; stroke-opacity:1; fill:none" points="303.252,952.949 418.334,952.949 "/>
<path clip-path="url(#clip190)" d="M453.347 940.276 L447.005 957.474 L459.713 957.474 L453.347 940.276 M450.708 935.669 L456.009 935.669 L469.18 970.229 L464.319 970.229 L461.171 961.363 L445.593 961.363 L442.444 970.229 L437.514 970.229 L450.708 935.669 Z" fill="#000000" fill-rule="nonzero" fill-opacity="1" /><path clip-path="url(#clip190)" d="M495.592 954.581 L495.592 970.229 L491.333 970.229 L491.333 954.72 Q491.333 951.039 489.898 949.211 Q488.463 947.382 485.592 947.382 Q482.143 947.382 480.153 949.581 Q478.162 951.78 478.162 955.576 L478.162 970.229 L473.879 970.229 L473.879 944.303 L478.162 944.303 L478.162 948.331 Q479.69 945.993 481.75 944.836 Q483.833 943.678 486.541 943.678 Q491.009 943.678 493.301 946.456 Q495.592 949.211 495.592 954.581 Z" fill="#000000" fill-rule="nonzero" fill-opacity="1" /><path clip-path="url(#clip190)" d="M515.87 957.197 Q510.708 957.197 508.717 958.377 Q506.727 959.558 506.727 962.405 Q506.727 964.674 508.208 966.016 Q509.713 967.336 512.282 967.336 Q515.824 967.336 517.953 964.836 Q520.106 962.312 520.106 958.146 L520.106 957.197 L515.87 957.197 M524.365 955.437 L524.365 970.229 L520.106 970.229 L520.106 966.294 Q518.648 968.655 516.472 969.789 Q514.296 970.9 511.148 970.9 Q507.166 970.9 504.805 968.678 Q502.467 966.433 502.467 962.683 Q502.467 958.308 505.384 956.086 Q508.324 953.863 514.134 953.863 L520.106 953.863 L520.106 953.447 Q520.106 950.507 518.162 948.91 Q516.24 947.289 512.745 947.289 Q510.523 947.289 508.416 947.822 Q506.31 948.354 504.365 949.419 L504.365 945.484 Q506.703 944.581 508.902 944.141 Q511.101 943.678 513.185 943.678 Q518.81 943.678 521.588 946.595 Q524.365 949.512 524.365 955.437 Z" fill="#000000" fill-rule="nonzero" fill-opacity="1" /><path clip-path="url(#clip190)" d="M533.138 934.211 L537.398 934.211 L537.398 970.229 L533.138 970.229 L533.138 934.211 Z" fill="#000000" fill-rule="nonzero" fill-opacity="1" /><path clip-path="url(#clip190)" d="M557.097 972.636 Q555.291 977.266 553.578 978.678 Q551.865 980.09 548.995 980.09 L545.592 980.09 L545.592 976.525 L548.092 976.525 Q549.851 976.525 550.823 975.692 Q551.796 974.859 552.976 971.757 L553.74 969.812 L543.254 944.303 L547.768 944.303 L555.87 964.581 L563.972 944.303 L568.485 944.303 L557.097 972.636 Z" fill="#000000" fill-rule="nonzero" fill-opacity="1" /><path clip-path="url(#clip190)" d="M578.578 936.942 L578.578 944.303 L587.351 944.303 L587.351 947.613 L578.578 947.613 L578.578 961.687 Q578.578 964.859 579.434 965.761 Q580.314 966.664 582.976 966.664 L587.351 966.664 L587.351 970.229 L582.976 970.229 Q578.046 970.229 576.171 968.4 Q574.296 966.549 574.296 961.687 L574.296 947.613 L571.171 947.613 L571.171 944.303 L574.296 944.303 L574.296 936.942 L578.578 936.942 Z" fill="#000000" fill-rule="nonzero" fill-opacity="1" /><path clip-path="url(#clip190)" d="M592.953 944.303 L597.212 944.303 L597.212 970.229 L592.953 970.229 L592.953 944.303 M592.953 934.211 L597.212 934.211 L597.212 939.604 L592.953 939.604 L592.953 934.211 Z" fill="#000000" fill-rule="nonzero" fill-opacity="1" /><path clip-path="url(#clip190)" d="M624.781 945.299 L624.781 949.28 Q622.976 948.285 621.147 947.799 Q619.342 947.289 617.49 947.289 Q613.346 947.289 611.055 949.928 Q608.763 952.544 608.763 957.289 Q608.763 962.035 611.055 964.674 Q613.346 967.289 617.49 967.289 Q619.342 967.289 621.147 966.803 Q622.976 966.294 624.781 965.299 L624.781 969.234 Q622.999 970.067 621.078 970.484 Q619.18 970.9 617.027 970.9 Q611.17 970.9 607.721 967.22 Q604.272 963.539 604.272 957.289 Q604.272 950.947 607.744 947.313 Q611.24 943.678 617.305 943.678 Q619.272 943.678 621.147 944.095 Q623.022 944.488 624.781 945.299 Z" fill="#000000" fill-rule="nonzero" fill-opacity="1" /><path clip-path="url(#clip190)" d="M663.786 945.067 L663.786 949.095 Q661.98 948.169 660.036 947.706 Q658.091 947.243 656.008 947.243 Q652.837 947.243 651.24 948.215 Q649.666 949.187 649.666 951.132 Q649.666 952.613 650.8 953.47 Q651.934 954.303 655.36 955.067 L656.818 955.391 Q661.355 956.363 663.253 958.146 Q665.175 959.905 665.175 963.076 Q665.175 966.687 662.304 968.794 Q659.457 970.9 654.457 970.9 Q652.374 970.9 650.105 970.484 Q647.86 970.09 645.36 969.28 L645.36 964.882 Q647.721 966.109 650.013 966.734 Q652.304 967.336 654.55 967.336 Q657.559 967.336 659.179 966.317 Q660.8 965.275 660.8 963.4 Q660.8 961.664 659.619 960.738 Q658.462 959.812 654.503 958.956 L653.022 958.609 Q649.064 957.775 647.304 956.062 Q645.545 954.326 645.545 951.317 Q645.545 947.66 648.138 945.669 Q650.73 943.678 655.499 943.678 Q657.86 943.678 659.943 944.025 Q662.027 944.373 663.786 945.067 Z" fill="#000000" fill-rule="nonzero" fill-opacity="1" /><path clip-path="url(#clip190)" d="M682.003 947.289 Q678.577 947.289 676.587 949.975 Q674.596 952.637 674.596 957.289 Q674.596 961.942 676.564 964.627 Q678.554 967.289 682.003 967.289 Q685.406 967.289 687.397 964.604 Q689.388 961.919 689.388 957.289 Q689.388 952.683 687.397 949.998 Q685.406 947.289 682.003 947.289 M682.003 943.678 Q687.559 943.678 690.73 947.289 Q693.901 950.9 693.901 957.289 Q693.901 963.655 690.73 967.289 Q687.559 970.9 682.003 970.9 Q676.425 970.9 673.253 967.289 Q670.105 963.655 670.105 957.289 Q670.105 950.9 673.253 947.289 Q676.425 943.678 682.003 943.678 Z" fill="#000000" fill-rule="nonzero" fill-opacity="1" /><path clip-path="url(#clip190)" d="M700.962 934.211 L705.221 934.211 L705.221 970.229 L700.962 970.229 L700.962 934.211 Z" fill="#000000" fill-rule="nonzero" fill-opacity="1" /><path clip-path="url(#clip190)" d="M713.693 959.998 L713.693 944.303 L717.952 944.303 L717.952 959.836 Q717.952 963.516 719.387 965.368 Q720.823 967.197 723.693 967.197 Q727.142 967.197 729.133 964.998 Q731.147 962.799 731.147 959.002 L731.147 944.303 L735.406 944.303 L735.406 970.229 L731.147 970.229 L731.147 966.248 Q729.596 968.609 727.536 969.766 Q725.498 970.9 722.79 970.9 Q718.323 970.9 716.008 968.123 Q713.693 965.345 713.693 959.998 M724.411 943.678 L724.411 943.678 Z" fill="#000000" fill-rule="nonzero" fill-opacity="1" /><path clip-path="url(#clip190)" d="M748.392 936.942 L748.392 944.303 L757.165 944.303 L757.165 947.613 L748.392 947.613 L748.392 961.687 Q748.392 964.859 749.248 965.761 Q750.128 966.664 752.79 966.664 L757.165 966.664 L757.165 970.229 L752.79 970.229 Q747.859 970.229 745.984 968.4 Q744.109 966.549 744.109 961.687 L744.109 947.613 L740.985 947.613 L740.985 944.303 L744.109 944.303 L744.109 936.942 L748.392 936.942 Z" fill="#000000" fill-rule="nonzero" fill-opacity="1" /><path clip-path="url(#clip190)" d="M762.767 944.303 L767.026 944.303 L767.026 970.229 L762.767 970.229 L762.767 944.303 M762.767 934.211 L767.026 934.211 L767.026 939.604 L762.767 939.604 L762.767 934.211 Z" fill="#000000" fill-rule="nonzero" fill-opacity="1" /><path clip-path="url(#clip190)" d="M785.984 947.289 Q782.558 947.289 780.568 949.975 Q778.577 952.637 778.577 957.289 Q778.577 961.942 780.544 964.627 Q782.535 967.289 785.984 967.289 Q789.387 967.289 791.378 964.604 Q793.368 961.919 793.368 957.289 Q793.368 952.683 791.378 949.998 Q789.387 947.289 785.984 947.289 M785.984 943.678 Q791.54 943.678 794.711 947.289 Q797.882 950.9 797.882 957.289 Q797.882 963.655 794.711 967.289 Q791.54 970.9 785.984 970.9 Q780.406 970.9 777.234 967.289 Q774.086 963.655 774.086 957.289 Q774.086 950.9 777.234 947.289 Q780.406 943.678 785.984 943.678 Z" fill="#000000" fill-rule="nonzero" fill-opacity="1" /><path clip-path="url(#clip190)" d="M826.493 954.581 L826.493 970.229 L822.234 970.229 L822.234 954.72 Q822.234 951.039 820.799 949.211 Q819.364 947.382 816.493 947.382 Q813.044 947.382 811.054 949.581 Q809.063 951.78 809.063 955.576 L809.063 970.229 L804.78 970.229 L804.78 944.303 L809.063 944.303 L809.063 948.331 Q810.591 945.993 812.651 944.836 Q814.734 943.678 817.442 943.678 Q821.91 943.678 824.202 946.456 Q826.493 949.211 826.493 954.581 Z" fill="#000000" fill-rule="nonzero" fill-opacity="1" /></svg>
