<?xml version="1.0" encoding="utf-8"?>
<svg xmlns="http://www.w3.org/2000/svg" xmlns:xlink="http://www.w3.org/1999/xlink" width="500" height="300" viewBox="0 0 2000 1200">
<defs>
  <clipPath id="clip510">
    <rect x="0" y="0" width="2000" height="1200"/>
  </clipPath>
</defs>
<path clip-path="url(#clip510)" d="M0 1200 L2000 1200 L2000 0 L0 0  Z" fill="#ffffff" fill-rule="evenodd" fill-opacity="1"/>
<defs>
  <clipPath id="clip511">
    <rect x="400" y="0" width="1401" height="1200"/>
  </clipPath>
</defs>
<path clip-path="url(#clip510)" d="M168.015 1035.39 L952.756 1035.39 L952.756 117.424 L168.015 117.424  Z" fill="#ffffff" fill-rule="evenodd" fill-opacity="1"/>
<defs>
  <clipPath id="clip512">
    <rect x="168" y="117" width="786" height="919"/>
  </clipPath>
</defs>
<polyline clip-path="url(#clip512)" style="stroke:#000000; stroke-linecap:round; stroke-linejoin:round; stroke-width:2; stroke-opacity:0.1; fill:none" points="264.257,1035.39 264.257,117.424 "/>
<polyline clip-path="url(#clip512)" style="stroke:#000000; stroke-linecap:round; stroke-linejoin:round; stroke-width:2; stroke-opacity:0.1; fill:none" points="412.321,1035.39 412.321,117.424 "/>
<polyline clip-path="url(#clip512)" style="stroke:#000000; stroke-linecap:round; stroke-linejoin:round; stroke-width:2; stroke-opacity:0.1; fill:none" points="560.385,1035.39 560.385,117.424 "/>
<polyline clip-path="url(#clip512)" style="stroke:#000000; stroke-linecap:round; stroke-linejoin:round; stroke-width:2; stroke-opacity:0.1; fill:none" points="708.45,1035.39 708.45,117.424 "/>
<polyline clip-path="url(#clip512)" style="stroke:#000000; stroke-linecap:round; stroke-linejoin:round; stroke-width:2; stroke-opacity:0.1; fill:none" points="856.514,1035.39 856.514,117.424 "/>
<polyline clip-path="url(#clip512)" style="stroke:#000000; stroke-linecap:round; stroke-linejoin:round; stroke-width:2; stroke-opacity:0.1; fill:none" points="168.015,1009.41 952.756,1009.41 "/>
<polyline clip-path="url(#clip512)" style="stroke:#000000; stroke-linecap:round; stroke-linejoin:round; stroke-width:2; stroke-opacity:0.1; fill:none" points="168.015,782.022 952.756,782.022 "/>
<polyline clip-path="url(#clip512)" style="stroke:#000000; stroke-linecap:round; stroke-linejoin:round; stroke-width:2; stroke-opacity:0.1; fill:none" points="168.015,554.636 952.756,554.636 "/>
<polyline clip-path="url(#clip512)" style="stroke:#000000; stroke-linecap:round; stroke-linejoin:round; stroke-width:2; stroke-opacity:0.1; fill:none" points="168.015,327.25 952.756,327.25 "/>
<polyline clip-path="url(#clip510)" style="stroke:#000000; stroke-linecap:round; stroke-linejoin:round; stroke-width:4; stroke-opacity:1; fill:none" points="168.015,1035.39 952.756,1035.39 "/>
<polyline clip-path="url(#clip510)" style="stroke:#000000; stroke-linecap:round; stroke-linejoin:round; stroke-width:4; stroke-opacity:1; fill:none" points="264.257,1035.39 264.257,1016.49 "/>
<polyline clip-path="url(#clip510)" style="stroke:#000000; stroke-linecap:round; stroke-linejoin:round; stroke-width:4; stroke-opacity:1; fill:none" points="412.321,1035.39 412.321,1016.49 "/>
<polyline clip-path="url(#clip510)" style="stroke:#000000; stroke-linecap:round; stroke-linejoin:round; stroke-width:4; stroke-opacity:1; fill:none" points="560.385,1035.39 560.385,1016.49 "/>
<polyline clip-path="url(#clip510)" style="stroke:#000000; stroke-linecap:round; stroke-linejoin:round; stroke-width:4; stroke-opacity:1; fill:none" points="708.45,1035.39 708.45,1016.49 "/>
<polyline clip-path="url(#clip510)" style="stroke:#000000; stroke-linecap:round; stroke-linejoin:round; stroke-width:4; stroke-opacity:1; fill:none" points="856.514,1035.39 856.514,1016.49 "/>
<path clip-path="url(#clip510)" d="M258.909 1090.65 L275.229 1090.65 L275.229 1094.59 L253.284 1094.59 L253.284 1090.65 Q255.947 1087.9 260.53 1083.27 Q265.136 1078.62 266.317 1077.27 Q268.562 1074.75 269.442 1073.01 Q270.345 1071.25 270.345 1069.56 Q270.345 1066.81 268.4 1065.07 Q266.479 1063.34 263.377 1063.34 Q261.178 1063.34 258.724 1064.1 Q256.294 1064.87 253.516 1066.42 L253.516 1061.69 Q256.34 1060.56 258.794 1059.98 Q261.247 1059.4 263.284 1059.4 Q268.655 1059.4 271.849 1062.09 Q275.044 1064.77 275.044 1069.26 Q275.044 1071.39 274.233 1073.31 Q273.446 1075.21 271.34 1077.81 Q270.761 1078.48 267.659 1081.69 Q264.558 1084.89 258.909 1090.65 Z" fill="#000000" fill-rule="nonzero" fill-opacity="1" /><path clip-path="url(#clip510)" d="M415.33 1064.1 L403.525 1082.55 L415.33 1082.55 L415.33 1064.1 M414.103 1060.03 L419.983 1060.03 L419.983 1082.55 L424.914 1082.55 L424.914 1086.44 L419.983 1086.44 L419.983 1094.59 L415.33 1094.59 L415.33 1086.44 L399.728 1086.44 L399.728 1081.93 L414.103 1060.03 Z" fill="#000000" fill-rule="nonzero" fill-opacity="1" /><path clip-path="url(#clip510)" d="M560.79 1075.44 Q557.642 1075.44 555.79 1077.6 Q553.962 1079.75 553.962 1083.5 Q553.962 1087.23 555.79 1089.4 Q557.642 1091.56 560.79 1091.56 Q563.939 1091.56 565.767 1089.4 Q567.619 1087.23 567.619 1083.5 Q567.619 1079.75 565.767 1077.6 Q563.939 1075.44 560.79 1075.44 M570.073 1060.79 L570.073 1065.05 Q568.314 1064.22 566.508 1063.78 Q564.726 1063.34 562.966 1063.34 Q558.337 1063.34 555.883 1066.46 Q553.453 1069.59 553.105 1075.91 Q554.471 1073.89 556.531 1072.83 Q558.591 1071.74 561.068 1071.74 Q566.277 1071.74 569.286 1074.91 Q572.318 1078.06 572.318 1083.5 Q572.318 1088.82 569.17 1092.04 Q566.022 1095.26 560.79 1095.26 Q554.795 1095.26 551.624 1090.68 Q548.453 1086.07 548.453 1077.34 Q548.453 1069.15 552.341 1064.29 Q556.23 1059.4 562.781 1059.4 Q564.54 1059.4 566.323 1059.75 Q568.128 1060.1 570.073 1060.79 Z" fill="#000000" fill-rule="nonzero" fill-opacity="1" /><path clip-path="url(#clip510)" d="M708.45 1078.18 Q705.116 1078.18 703.195 1079.96 Q701.297 1081.74 701.297 1084.87 Q701.297 1087.99 703.195 1089.77 Q705.116 1091.56 708.45 1091.56 Q711.783 1091.56 713.704 1089.77 Q715.626 1087.97 715.626 1084.87 Q715.626 1081.74 713.704 1079.96 Q711.806 1078.18 708.45 1078.18 M703.774 1076.19 Q700.765 1075.44 699.075 1073.38 Q697.408 1071.32 697.408 1068.36 Q697.408 1064.22 700.348 1061.81 Q703.311 1059.4 708.45 1059.4 Q713.612 1059.4 716.552 1061.81 Q719.491 1064.22 719.491 1068.36 Q719.491 1071.32 717.802 1073.38 Q716.135 1075.44 713.149 1076.19 Q716.528 1076.97 718.403 1079.26 Q720.302 1081.56 720.302 1084.87 Q720.302 1089.89 717.223 1092.57 Q714.167 1095.26 708.45 1095.26 Q702.732 1095.26 699.653 1092.57 Q696.598 1089.89 696.598 1084.87 Q696.598 1081.56 698.496 1079.26 Q700.394 1076.97 703.774 1076.19 M702.061 1068.8 Q702.061 1071.49 703.728 1072.99 Q705.417 1074.5 708.45 1074.5 Q711.459 1074.5 713.149 1072.99 Q714.862 1071.49 714.862 1068.8 Q714.862 1066.12 713.149 1064.61 Q711.459 1063.11 708.45 1063.11 Q705.417 1063.11 703.728 1064.61 Q702.061 1066.12 702.061 1068.8 Z" fill="#000000" fill-rule="nonzero" fill-opacity="1" /><path clip-path="url(#clip510)" d="M831.202 1090.65 L838.841 1090.65 L838.841 1064.29 L830.53 1065.95 L830.53 1061.69 L838.794 1060.03 L843.47 1060.03 L843.47 1090.65 L851.109 1090.65 L851.109 1094.59 L831.202 1094.59 L831.202 1090.65 Z" fill="#000000" fill-rule="nonzero" fill-opacity="1" /><path clip-path="url(#clip510)" d="M870.553 1063.11 Q866.942 1063.11 865.114 1066.67 Q863.308 1070.21 863.308 1077.34 Q863.308 1084.45 865.114 1088.01 Q866.942 1091.56 870.553 1091.56 Q874.188 1091.56 875.993 1088.01 Q877.822 1084.45 877.822 1077.34 Q877.822 1070.21 875.993 1066.67 Q874.188 1063.11 870.553 1063.11 M870.553 1059.4 Q876.364 1059.4 879.419 1064.01 Q882.498 1068.59 882.498 1077.34 Q882.498 1086.07 879.419 1090.68 Q876.364 1095.26 870.553 1095.26 Q864.743 1095.26 861.665 1090.68 Q858.609 1086.07 858.609 1077.34 Q858.609 1068.59 861.665 1064.01 Q864.743 1059.4 870.553 1059.4 Z" fill="#000000" fill-rule="nonzero" fill-opacity="1" /><path clip-path="url(#clip510)" d="M500.675 1128.29 L500.675 1134.56 Q497.015 1132.81 493.768 1131.95 Q490.522 1131.09 487.498 1131.09 Q482.246 1131.09 479.382 1133.13 Q476.549 1135.17 476.549 1138.92 Q476.549 1142.07 478.427 1143.7 Q480.337 1145.29 485.62 1146.27 L489.503 1147.07 Q496.696 1148.44 500.102 1151.91 Q503.54 1155.35 503.54 1161.14 Q503.54 1168.05 498.893 1171.61 Q494.277 1175.17 485.334 1175.17 Q481.96 1175.17 478.14 1174.41 Q474.353 1173.65 470.279 1172.15 L470.279 1165.53 Q474.194 1167.73 477.949 1168.84 Q481.705 1169.95 485.334 1169.95 Q490.84 1169.95 493.832 1167.79 Q496.824 1165.63 496.824 1161.62 Q496.824 1158.11 494.659 1156.14 Q492.527 1154.17 487.625 1153.18 L483.71 1152.42 Q476.517 1150.99 473.302 1147.93 Q470.088 1144.87 470.088 1139.43 Q470.088 1133.13 474.512 1129.5 Q478.968 1125.87 486.766 1125.87 Q490.108 1125.87 493.577 1126.48 Q497.047 1127.08 500.675 1128.29 Z" fill="#000000" fill-rule="nonzero" fill-opacity="1" /><path clip-path="url(#clip510)" d="M519.104 1128.48 L519.104 1138.6 L531.167 1138.6 L531.167 1143.16 L519.104 1143.16 L519.104 1162.51 Q519.104 1166.87 520.281 1168.11 Q521.491 1169.35 525.151 1169.35 L531.167 1169.35 L531.167 1174.25 L525.151 1174.25 Q518.372 1174.25 515.794 1171.74 Q513.215 1169.19 513.215 1162.51 L513.215 1143.16 L508.919 1143.16 L508.919 1138.6 L513.215 1138.6 L513.215 1128.48 L519.104 1128.48 Z" fill="#000000" fill-rule="nonzero" fill-opacity="1" /><path clip-path="url(#clip510)" d="M555.07 1156.33 Q547.972 1156.33 545.235 1157.96 Q542.498 1159.58 542.498 1163.49 Q542.498 1166.61 544.535 1168.46 Q546.604 1170.27 550.137 1170.27 Q555.006 1170.27 557.935 1166.84 Q560.895 1163.37 560.895 1157.64 L560.895 1156.33 L555.07 1156.33 M566.751 1153.91 L566.751 1174.25 L560.895 1174.25 L560.895 1168.84 Q558.889 1172.09 555.898 1173.65 Q552.906 1175.17 548.577 1175.17 Q543.102 1175.17 539.856 1172.12 Q536.641 1169.03 536.641 1163.88 Q536.641 1157.86 540.652 1154.8 Q544.694 1151.75 552.683 1151.75 L560.895 1151.75 L560.895 1151.18 Q560.895 1147.13 558.221 1144.94 Q555.579 1142.71 550.773 1142.71 Q547.718 1142.71 544.821 1143.44 Q541.925 1144.17 539.251 1145.64 L539.251 1140.23 Q542.466 1138.99 545.49 1138.38 Q548.513 1137.74 551.378 1137.74 Q559.112 1137.74 562.932 1141.75 Q566.751 1145.77 566.751 1153.91 Z" fill="#000000" fill-rule="nonzero" fill-opacity="1" /><path clip-path="url(#clip510)" d="M602.272 1156.01 Q602.272 1149.65 599.63 1146.15 Q597.02 1142.65 592.278 1142.65 Q587.567 1142.65 584.925 1146.15 Q582.315 1149.65 582.315 1156.01 Q582.315 1162.35 584.925 1165.85 Q587.567 1169.35 592.278 1169.35 Q597.02 1169.35 599.63 1165.85 Q602.272 1162.35 602.272 1156.01 M608.128 1169.83 Q608.128 1178.93 604.086 1183.35 Q600.044 1187.81 591.705 1187.81 Q588.617 1187.81 585.88 1187.33 Q583.143 1186.89 580.565 1185.93 L580.565 1180.24 Q583.143 1181.64 585.657 1182.3 Q588.172 1182.97 590.782 1182.97 Q596.543 1182.97 599.407 1179.95 Q602.272 1176.96 602.272 1170.88 L602.272 1167.98 Q600.457 1171.13 597.625 1172.69 Q594.792 1174.25 590.845 1174.25 Q584.289 1174.25 580.278 1169.25 Q576.268 1164.26 576.268 1156.01 Q576.268 1147.74 580.278 1142.74 Q584.289 1137.74 590.845 1137.74 Q594.792 1137.74 597.625 1139.3 Q600.457 1140.86 602.272 1144.01 L602.272 1138.6 L608.128 1138.6 L608.128 1169.83 Z" fill="#000000" fill-rule="nonzero" fill-opacity="1" /><path clip-path="url(#clip510)" d="M650.683 1154.96 L650.683 1157.83 L623.756 1157.83 Q624.138 1163.88 627.384 1167.06 Q630.663 1170.21 636.487 1170.21 Q639.861 1170.21 643.012 1169.38 Q646.195 1168.55 649.314 1166.9 L649.314 1172.44 Q646.163 1173.77 642.853 1174.47 Q639.543 1175.17 636.137 1175.17 Q627.607 1175.17 622.61 1170.21 Q617.645 1165.24 617.645 1156.78 Q617.645 1148.03 622.356 1142.9 Q627.098 1137.74 635.119 1137.74 Q642.312 1137.74 646.482 1142.39 Q650.683 1147.01 650.683 1154.96 M644.826 1153.25 Q644.763 1148.44 642.121 1145.57 Q639.511 1142.71 635.182 1142.71 Q630.281 1142.71 627.321 1145.48 Q624.393 1148.25 623.947 1153.28 L644.826 1153.25 Z" fill="#000000" fill-rule="nonzero" fill-opacity="1" /><polyline clip-path="url(#clip510)" style="stroke:#000000; stroke-linecap:round; stroke-linejoin:round; stroke-width:4; stroke-opacity:1; fill:none" points="168.015,1035.39 168.015,117.424 "/>
<polyline clip-path="url(#clip510)" style="stroke:#000000; stroke-linecap:round; stroke-linejoin:round; stroke-width:4; stroke-opacity:1; fill:none" points="168.015,1009.41 186.912,1009.41 "/>
<polyline clip-path="url(#clip510)" style="stroke:#000000; stroke-linecap:round; stroke-linejoin:round; stroke-width:4; stroke-opacity:1; fill:none" points="168.015,782.022 186.912,782.022 "/>
<polyline clip-path="url(#clip510)" style="stroke:#000000; stroke-linecap:round; stroke-linejoin:round; stroke-width:4; stroke-opacity:1; fill:none" points="168.015,554.636 186.912,554.636 "/>
<polyline clip-path="url(#clip510)" style="stroke:#000000; stroke-linecap:round; stroke-linejoin:round; stroke-width:4; stroke-opacity:1; fill:none" points="168.015,327.25 186.912,327.25 "/>
<path clip-path="url(#clip510)" d="M126.07 995.206 Q122.459 995.206 120.631 998.771 Q118.825 1002.31 118.825 1009.44 Q118.825 1016.55 120.631 1020.11 Q122.459 1023.66 126.07 1023.66 Q129.705 1023.66 131.51 1020.11 Q133.339 1016.55 133.339 1009.44 Q133.339 1002.31 131.51 998.771 Q129.705 995.206 126.07 995.206 M126.07 991.503 Q131.881 991.503 134.936 996.109 Q138.015 1000.69 138.015 1009.44 Q138.015 1018.17 134.936 1022.78 Q131.881 1027.36 126.07 1027.36 Q120.26 1027.36 117.182 1022.78 Q114.126 1018.17 114.126 1009.44 Q114.126 1000.69 117.182 996.109 Q120.26 991.503 126.07 991.503 Z" fill="#000000" fill-rule="nonzero" fill-opacity="1" /><path clip-path="url(#clip510)" d="M59.7745 795.367 L76.0939 795.367 L76.0939 799.302 L54.1495 799.302 L54.1495 795.367 Q56.8115 792.612 61.3949 787.982 Q66.0013 783.33 67.1819 781.987 Q69.4272 779.464 70.3068 777.728 Q71.2096 775.969 71.2096 774.279 Q71.2096 771.524 69.2652 769.788 Q67.3439 768.052 64.2421 768.052 Q62.043 768.052 59.5893 768.816 Q57.1588 769.58 54.381 771.131 L54.381 766.408 Q57.2051 765.274 59.6588 764.695 Q62.1124 764.117 64.1495 764.117 Q69.5198 764.117 72.7142 766.802 Q75.9087 769.487 75.9087 773.978 Q75.9087 776.107 75.0985 778.029 Q74.3115 779.927 72.205 782.519 Q71.6263 783.191 68.5245 786.408 Q65.4226 789.603 59.7745 795.367 Z" fill="#000000" fill-rule="nonzero" fill-opacity="1" /><path clip-path="url(#clip510)" d="M95.9086 767.82 Q92.2975 767.82 90.4688 771.385 Q88.6632 774.927 88.6632 782.056 Q88.6632 789.163 90.4688 792.728 Q92.2975 796.269 95.9086 796.269 Q99.5428 796.269 101.348 792.728 Q103.177 789.163 103.177 782.056 Q103.177 774.927 101.348 771.385 Q99.5428 767.82 95.9086 767.82 M95.9086 764.117 Q101.719 764.117 104.774 768.723 Q107.853 773.307 107.853 782.056 Q107.853 790.783 104.774 795.39 Q101.719 799.973 95.9086 799.973 Q90.0984 799.973 87.0197 795.39 Q83.9642 790.783 83.9642 782.056 Q83.9642 773.307 87.0197 768.723 Q90.0984 764.117 95.9086 764.117 Z" fill="#000000" fill-rule="nonzero" fill-opacity="1" /><path clip-path="url(#clip510)" d="M126.07 767.82 Q122.459 767.82 120.631 771.385 Q118.825 774.927 118.825 782.056 Q118.825 789.163 120.631 792.728 Q122.459 796.269 126.07 796.269 Q129.705 796.269 131.51 792.728 Q133.339 789.163 133.339 782.056 Q133.339 774.927 131.51 771.385 Q129.705 767.82 126.07 767.82 M126.07 764.117 Q131.881 764.117 134.936 768.723 Q138.015 773.307 138.015 782.056 Q138.015 790.783 134.936 795.39 Q131.881 799.973 126.07 799.973 Q120.26 799.973 117.182 795.39 Q114.126 790.783 114.126 782.056 Q114.126 773.307 117.182 768.723 Q120.26 764.117 126.07 764.117 Z" fill="#000000" fill-rule="nonzero" fill-opacity="1" /><path clip-path="url(#clip510)" d="M68.5939 541.43 L56.7884 559.879 L68.5939 559.879 L68.5939 541.43 M67.367 537.356 L73.2466 537.356 L73.2466 559.879 L78.1772 559.879 L78.1772 563.768 L73.2466 563.768 L73.2466 571.916 L68.5939 571.916 L68.5939 563.768 L52.9921 563.768 L52.9921 559.254 L67.367 537.356 Z" fill="#000000" fill-rule="nonzero" fill-opacity="1" /><path clip-path="url(#clip510)" d="M95.9086 540.434 Q92.2975 540.434 90.4688 543.999 Q88.6632 547.541 88.6632 554.67 Q88.6632 561.777 90.4688 565.342 Q92.2975 568.883 95.9086 568.883 Q99.5428 568.883 101.348 565.342 Q103.177 561.777 103.177 554.67 Q103.177 547.541 101.348 543.999 Q99.5428 540.434 95.9086 540.434 M95.9086 536.731 Q101.719 536.731 104.774 541.337 Q107.853 545.921 107.853 554.67 Q107.853 563.397 104.774 568.004 Q101.719 572.587 95.9086 572.587 Q90.0984 572.587 87.0197 568.004 Q83.9642 563.397 83.9642 554.67 Q83.9642 545.921 87.0197 541.337 Q90.0984 536.731 95.9086 536.731 Z" fill="#000000" fill-rule="nonzero" fill-opacity="1" /><path clip-path="url(#clip510)" d="M126.07 540.434 Q122.459 540.434 120.631 543.999 Q118.825 547.541 118.825 554.67 Q118.825 561.777 120.631 565.342 Q122.459 568.883 126.07 568.883 Q129.705 568.883 131.51 565.342 Q133.339 561.777 133.339 554.67 Q133.339 547.541 131.51 543.999 Q129.705 540.434 126.07 540.434 M126.07 536.731 Q131.881 536.731 134.936 541.337 Q138.015 545.921 138.015 554.67 Q138.015 563.397 134.936 568.004 Q131.881 572.587 126.07 572.587 Q120.26 572.587 117.182 568.004 Q114.126 563.397 114.126 554.67 Q114.126 545.921 117.182 541.337 Q120.26 536.731 126.07 536.731 Z" fill="#000000" fill-rule="nonzero" fill-opacity="1" /><path clip-path="url(#clip510)" d="M66.3254 325.386 Q63.1773 325.386 61.3254 327.539 Q59.4967 329.692 59.4967 333.442 Q59.4967 337.169 61.3254 339.345 Q63.1773 341.497 66.3254 341.497 Q69.4735 341.497 71.3022 339.345 Q73.1541 337.169 73.1541 333.442 Q73.1541 329.692 71.3022 327.539 Q69.4735 325.386 66.3254 325.386 M75.6077 310.734 L75.6077 314.993 Q73.8485 314.16 72.0429 313.72 Q70.2606 313.28 68.5013 313.28 Q63.8717 313.28 61.418 316.405 Q58.9875 319.53 58.6402 325.849 Q60.006 323.835 62.0662 322.771 Q64.1263 321.683 66.6032 321.683 Q71.8115 321.683 74.8207 324.854 Q77.8531 328.002 77.8531 333.442 Q77.8531 338.766 74.705 341.983 Q71.5568 345.201 66.3254 345.201 Q60.33 345.201 57.1588 340.618 Q53.9875 336.011 53.9875 327.285 Q53.9875 319.09 57.8764 314.229 Q61.7652 309.345 68.3161 309.345 Q70.0754 309.345 71.8578 309.692 Q73.6633 310.039 75.6077 310.734 Z" fill="#000000" fill-rule="nonzero" fill-opacity="1" /><path clip-path="url(#clip510)" d="M95.9086 313.048 Q92.2975 313.048 90.4688 316.613 Q88.6632 320.155 88.6632 327.285 Q88.6632 334.391 90.4688 337.956 Q92.2975 341.497 95.9086 341.497 Q99.5428 341.497 101.348 337.956 Q103.177 334.391 103.177 327.285 Q103.177 320.155 101.348 316.613 Q99.5428 313.048 95.9086 313.048 M95.9086 309.345 Q101.719 309.345 104.774 313.951 Q107.853 318.535 107.853 327.285 Q107.853 336.011 104.774 340.618 Q101.719 345.201 95.9086 345.201 Q90.0984 345.201 87.0197 340.618 Q83.9642 336.011 83.9642 327.285 Q83.9642 318.535 87.0197 313.951 Q90.0984 309.345 95.9086 309.345 Z" fill="#000000" fill-rule="nonzero" fill-opacity="1" /><path clip-path="url(#clip510)" d="M126.07 313.048 Q122.459 313.048 120.631 316.613 Q118.825 320.155 118.825 327.285 Q118.825 334.391 120.631 337.956 Q122.459 341.497 126.07 341.497 Q129.705 341.497 131.51 337.956 Q133.339 334.391 133.339 327.285 Q133.339 320.155 131.51 316.613 Q129.705 313.048 126.07 313.048 M126.07 309.345 Q131.881 309.345 134.936 313.951 Q138.015 318.535 138.015 327.285 Q138.015 336.011 134.936 340.618 Q131.881 345.201 126.07 345.201 Q120.26 345.201 117.182 340.618 Q114.126 336.011 114.126 327.285 Q114.126 318.535 117.182 313.951 Q120.26 309.345 126.07 309.345 Z" fill="#000000" fill-rule="nonzero" fill-opacity="1" /><path clip-path="url(#clip510)" d="M287.8 27.2059 L271.394 49.2833 L288.651 72.576 L279.86 72.576 L266.654 54.752 L253.448 72.576 L244.658 72.576 L262.279 48.8377 L246.157 27.2059 L254.947 27.2059 L266.978 43.369 L279.01 27.2059 L287.8 27.2059 Z" fill="#000000" fill-rule="nonzero" fill-opacity="1" /><path clip-path="url(#clip510)" d="M333.656 86.3491 L333.656 92.1419 L290.555 92.1419 L290.555 86.3491 L333.656 86.3491 Z" fill="#000000" fill-rule="nonzero" fill-opacity="1" /><path clip-path="url(#clip510)" d="M340.664 27.2059 L348.118 27.2059 L348.118 72.576 L340.664 72.576 L340.664 27.2059 M340.664 9.54393 L348.118 9.54393 L348.118 18.9825 L340.664 18.9825 L340.664 9.54393 Z" fill="#000000" fill-rule="nonzero" fill-opacity="1" /><path clip-path="url(#clip510)" d="M401.428 45.1919 L401.428 72.576 L393.974 72.576 L393.974 45.4349 Q393.974 38.994 391.463 35.7938 Q388.951 32.5936 383.928 32.5936 Q377.892 32.5936 374.408 36.4419 Q370.925 40.2903 370.925 46.9338 L370.925 72.576 L363.43 72.576 L363.43 27.2059 L370.925 27.2059 L370.925 34.2544 Q373.598 30.163 377.203 28.1376 Q380.849 26.1121 385.589 26.1121 Q393.407 26.1121 397.417 30.9732 Q401.428 35.7938 401.428 45.1919 Z" fill="#000000" fill-rule="nonzero" fill-opacity="1" /><path clip-path="url(#clip510)" d="M410.948 27.2059 L418.847 27.2059 L433.025 65.2844 L447.203 27.2059 L455.102 27.2059 L438.089 72.576 L427.961 72.576 L410.948 27.2059 Z" fill="#000000" fill-rule="nonzero" fill-opacity="1" /><path clip-path="url(#clip510)" d="M504.199 48.0275 L504.199 51.6733 L469.929 51.6733 Q470.415 59.3701 474.547 63.421 Q478.719 67.4314 486.132 67.4314 Q490.426 67.4314 494.437 66.3781 Q498.488 65.3249 502.457 63.2184 L502.457 70.267 Q498.447 71.9684 494.234 72.8596 Q490.021 73.7508 485.687 73.7508 Q474.83 73.7508 468.47 67.4314 Q462.151 61.1119 462.151 50.3365 Q462.151 39.1965 468.146 32.6746 Q474.182 26.1121 484.39 26.1121 Q493.545 26.1121 498.852 32.0264 Q504.199 37.9003 504.199 48.0275 M496.746 45.84 Q496.665 39.7232 493.302 36.0774 Q489.981 32.4315 484.471 32.4315 Q478.233 32.4315 474.466 35.9558 Q470.739 39.4801 470.172 45.8805 L496.746 45.84 Z" fill="#000000" fill-rule="nonzero" fill-opacity="1" /><path clip-path="url(#clip510)" d="M554.147 45.1919 L554.147 72.576 L546.693 72.576 L546.693 45.4349 Q546.693 38.994 544.182 35.7938 Q541.67 32.5936 536.647 32.5936 Q530.611 32.5936 527.127 36.4419 Q523.644 40.2903 523.644 46.9338 L523.644 72.576 L516.149 72.576 L516.149 27.2059 L523.644 27.2059 L523.644 34.2544 Q526.317 30.163 529.923 28.1376 Q533.568 26.1121 538.308 26.1121 Q546.126 26.1121 550.137 30.9732 Q554.147 35.7938 554.147 45.1919 Z" fill="#000000" fill-rule="nonzero" fill-opacity="1" /><path clip-path="url(#clip510)" d="M576.386 14.324 L576.386 27.2059 L591.739 27.2059 L591.739 32.9987 L576.386 32.9987 L576.386 57.6282 Q576.386 63.1779 577.885 64.7578 Q579.425 66.3376 584.083 66.3376 L591.739 66.3376 L591.739 72.576 L584.083 72.576 Q575.455 72.576 572.173 69.3758 Q568.892 66.1351 568.892 57.6282 L568.892 32.9987 L563.424 32.9987 L563.424 27.2059 L568.892 27.2059 L568.892 14.324 L576.386 14.324 Z" fill="#000000" fill-rule="nonzero" fill-opacity="1" /><path clip-path="url(#clip510)" d="M619.123 32.4315 Q613.128 32.4315 609.644 37.1306 Q606.161 41.7891 606.161 49.9314 Q606.161 58.0738 609.604 62.7728 Q613.088 67.4314 619.123 67.4314 Q625.078 67.4314 628.562 62.7323 Q632.046 58.0333 632.046 49.9314 Q632.046 41.8701 628.562 37.1711 Q625.078 32.4315 619.123 32.4315 M619.123 26.1121 Q628.846 26.1121 634.395 32.4315 Q639.945 38.7509 639.945 49.9314 Q639.945 61.0714 634.395 67.4314 Q628.846 73.7508 619.123 73.7508 Q609.361 73.7508 603.811 67.4314 Q598.302 61.0714 598.302 49.9314 Q598.302 38.7509 603.811 32.4315 Q609.361 26.1121 619.123 26.1121 Z" fill="#000000" fill-rule="nonzero" fill-opacity="1" /><path clip-path="url(#clip510)" d="M678.591 34.1734 Q677.335 33.4443 675.836 33.1202 Q674.378 32.7556 672.595 32.7556 Q666.276 32.7556 662.873 36.8875 Q659.511 40.9789 659.511 48.6757 L659.511 72.576 L652.017 72.576 L652.017 27.2059 L659.511 27.2059 L659.511 34.2544 Q661.861 30.1225 665.628 28.1376 Q669.395 26.1121 674.783 26.1121 Q675.553 26.1121 676.484 26.2337 Q677.416 26.3147 678.55 26.5172 L678.591 34.1734 Z" fill="#000000" fill-rule="nonzero" fill-opacity="1" /><path clip-path="url(#clip510)" d="M705.286 76.7889 Q702.127 84.8907 699.129 87.3618 Q696.131 89.8329 691.108 89.8329 L685.153 89.8329 L685.153 83.5945 L689.528 83.5945 Q692.607 83.5945 694.308 82.1361 Q696.01 80.6778 698.076 75.2496 L699.412 71.8468 L681.062 27.2059 L688.961 27.2059 L703.139 62.6918 L717.317 27.2059 L725.217 27.2059 L705.286 76.7889 Z" fill="#000000" fill-rule="nonzero" fill-opacity="1" /><path clip-path="url(#clip510)" d="M724.731 62.2867 L733.278 62.2867 L733.278 72.576 L724.731 72.576 L724.731 62.2867 Z" fill="#000000" fill-rule="nonzero" fill-opacity="1" /><path clip-path="url(#clip510)" d="M767.63 32.4315 Q761.634 32.4315 758.151 37.1306 Q754.667 41.7891 754.667 49.9314 Q754.667 58.0738 758.11 62.7728 Q761.594 67.4314 767.63 67.4314 Q773.584 67.4314 777.068 62.7323 Q780.552 58.0333 780.552 49.9314 Q780.552 41.8701 777.068 37.1711 Q773.584 32.4315 767.63 32.4315 M767.63 26.1121 Q777.352 26.1121 782.902 32.4315 Q788.451 38.7509 788.451 49.9314 Q788.451 61.0714 782.902 67.4314 Q777.352 73.7508 767.63 73.7508 Q757.867 73.7508 752.317 67.4314 Q746.808 61.0714 746.808 49.9314 Q746.808 38.7509 752.317 32.4315 Q757.867 26.1121 767.63 26.1121 Z" fill="#000000" fill-rule="nonzero" fill-opacity="1" /><path clip-path="url(#clip510)" d="M800.037 54.671 L800.037 27.2059 L807.491 27.2059 L807.491 54.3874 Q807.491 60.8284 810.002 64.0691 Q812.514 67.2693 817.537 67.2693 Q823.573 67.2693 827.056 63.421 Q830.581 59.5726 830.581 52.9291 L830.581 27.2059 L838.034 27.2059 L838.034 72.576 L830.581 72.576 L830.581 65.6084 Q827.867 69.7404 824.261 71.7658 Q820.696 73.7508 815.957 73.7508 Q808.139 73.7508 804.088 68.8897 Q800.037 64.0286 800.037 54.671 M818.793 26.1121 L818.793 26.1121 Z" fill="#000000" fill-rule="nonzero" fill-opacity="1" /><path clip-path="url(#clip510)" d="M860.76 14.324 L860.76 27.2059 L876.113 27.2059 L876.113 32.9987 L860.76 32.9987 L860.76 57.6282 Q860.76 63.1779 862.259 64.7578 Q863.798 66.3376 868.457 66.3376 L876.113 66.3376 L876.113 72.576 L868.457 72.576 Q859.828 72.576 856.547 69.3758 Q853.266 66.1351 853.266 57.6282 L853.266 32.9987 L847.797 32.9987 L847.797 27.2059 L853.266 27.2059 L853.266 14.324 L860.76 14.324 Z" fill="#000000" fill-rule="nonzero" fill-opacity="1" /><path clip-path="url(#clip512)" d="M190.224 895.715 L264.257 1009.41 L338.289 1009.41 L412.321 1009.41 L486.353 1009.41 L560.385 1009.41 L634.418 1009.41 L708.45 1009.41 L782.482 1009.41 L856.514 1009.41 L930.546 410.863 L930.546 254.772 L856.514 254.772 L782.482 143.404 L708.45 143.404 L634.418 143.404 L560.385 143.404 L486.353 143.404 L412.321 143.404 L338.289 143.404 L264.257 143.404 L190.224 895.715  Z" fill="#00467f" fill-rule="evenodd" fill-opacity="0.2"/>
<polyline clip-path="url(#clip512)" style="stroke:#00467f; stroke-linecap:round; stroke-linejoin:round; stroke-width:4; stroke-opacity:0; fill:none" points="190.224,895.715 264.257,576.406 338.289,576.406 412.321,576.406 486.353,576.406 560.385,576.406 634.418,576.406 708.45,576.406 782.482,576.406 856.514,632.09 930.546,332.817 "/>
<path clip-path="url(#clip512)" d="M190.224 895.715 L264.257 972.896 L338.289 972.896 L412.321 1009.41 L486.353 972.896 L560.385 972.896 L634.418 1009.41 L708.45 1009.41 L782.482 1009.41 L856.514 1009.41 L930.546 410.863 L930.546 254.772 L856.514 254.772 L782.482 299.495 L708.45 299.495 L634.418 143.404 L560.385 299.495 L486.353 299.495 L412.321 283.886 L338.289 143.404 L264.257 299.495 L190.224 895.715  Z" fill="#00467f" fill-rule="evenodd" fill-opacity="0.2"/>
<polyline clip-path="url(#clip512)" style="stroke:#00467f; stroke-linecap:round; stroke-linejoin:round; stroke-width:4; stroke-opacity:0; fill:none" points="190.224,895.715 264.257,636.196 338.289,558.15 412.321,646.647 486.353,636.196 560.385,636.196 634.418,576.406 708.45,654.451 782.482,654.451 856.514,632.09 930.546,332.817 "/>
<path clip-path="url(#clip512)" d="M190.224 895.715 L264.257 938.634 L338.289 849.793 L412.321 938.634 L486.353 938.634 L560.385 938.634 L634.418 972.896 L708.45 972.896 L782.482 938.634 L856.514 1009.41 L930.546 410.863 L930.546 336.007 L856.514 636.156 L782.482 524.789 L708.45 524.789 L634.418 724.61 L560.385 674.654 L486.353 524.789 L412.321 524.789 L338.289 524.789 L264.257 524.789 L190.224 895.715  Z" fill="#00467f" fill-rule="evenodd" fill-opacity="0.2"/>
<polyline clip-path="url(#clip512)" style="stroke:#00467f; stroke-linecap:round; stroke-linejoin:round; stroke-width:4; stroke-opacity:0; fill:none" points="190.224,895.715 264.257,731.711 338.289,687.291 412.321,731.711 486.353,731.711 560.385,806.644 634.418,848.753 708.45,748.842 782.482,731.711 856.514,822.782 930.546,373.435 "/>
<polyline clip-path="url(#clip512)" style="stroke:#00467f; stroke-linecap:round; stroke-linejoin:round; stroke-width:4; stroke-opacity:1; fill:none" points="190.224,895.715 264.257,731.617 338.289,731.617 412.321,799.355 486.353,731.617 560.385,799.355 634.418,849.793 708.45,799.355 782.482,799.355 856.514,842.985 930.546,410.863 "/>
<path clip-path="url(#clip510)" d="M1168.01 1035.39 L1952.76 1035.39 L1952.76 117.424 L1168.01 117.424  Z" fill="#ffffff" fill-rule="evenodd" fill-opacity="1"/>
<defs>
  <clipPath id="clip513">
    <rect x="1168" y="117" width="786" height="919"/>
  </clipPath>
</defs>
<polyline clip-path="url(#clip513)" style="stroke:#000000; stroke-linecap:round; stroke-linejoin:round; stroke-width:2; stroke-opacity:0.1; fill:none" points="1264.26,1035.39 1264.26,117.424 "/>
<polyline clip-path="url(#clip513)" style="stroke:#000000; stroke-linecap:round; stroke-linejoin:round; stroke-width:2; stroke-opacity:0.1; fill:none" points="1412.32,1035.39 1412.32,117.424 "/>
<polyline clip-path="url(#clip513)" style="stroke:#000000; stroke-linecap:round; stroke-linejoin:round; stroke-width:2; stroke-opacity:0.1; fill:none" points="1560.39,1035.39 1560.39,117.424 "/>
<polyline clip-path="url(#clip513)" style="stroke:#000000; stroke-linecap:round; stroke-linejoin:round; stroke-width:2; stroke-opacity:0.1; fill:none" points="1708.45,1035.39 1708.45,117.424 "/>
<polyline clip-path="url(#clip513)" style="stroke:#000000; stroke-linecap:round; stroke-linejoin:round; stroke-width:2; stroke-opacity:0.1; fill:none" points="1856.51,1035.39 1856.51,117.424 "/>
<polyline clip-path="url(#clip513)" style="stroke:#000000; stroke-linecap:round; stroke-linejoin:round; stroke-width:2; stroke-opacity:0.1; fill:none" points="1168.01,1009.41 1952.76,1009.41 "/>
<polyline clip-path="url(#clip513)" style="stroke:#000000; stroke-linecap:round; stroke-linejoin:round; stroke-width:2; stroke-opacity:0.1; fill:none" points="1168.01,792.671 1952.76,792.671 "/>
<polyline clip-path="url(#clip513)" style="stroke:#000000; stroke-linecap:round; stroke-linejoin:round; stroke-width:2; stroke-opacity:0.1; fill:none" points="1168.01,575.933 1952.76,575.933 "/>
<polyline clip-path="url(#clip513)" style="stroke:#000000; stroke-linecap:round; stroke-linejoin:round; stroke-width:2; stroke-opacity:0.1; fill:none" points="1168.01,359.196 1952.76,359.196 "/>
<polyline clip-path="url(#clip513)" style="stroke:#000000; stroke-linecap:round; stroke-linejoin:round; stroke-width:2; stroke-opacity:0.1; fill:none" points="1168.01,142.459 1952.76,142.459 "/>
<polyline clip-path="url(#clip510)" style="stroke:#000000; stroke-linecap:round; stroke-linejoin:round; stroke-width:4; stroke-opacity:1; fill:none" points="1168.01,1035.39 1952.76,1035.39 "/>
<polyline clip-path="url(#clip510)" style="stroke:#000000; stroke-linecap:round; stroke-linejoin:round; stroke-width:4; stroke-opacity:1; fill:none" points="1264.26,1035.39 1264.26,1016.49 "/>
<polyline clip-path="url(#clip510)" style="stroke:#000000; stroke-linecap:round; stroke-linejoin:round; stroke-width:4; stroke-opacity:1; fill:none" points="1412.32,1035.39 1412.32,1016.49 "/>
<polyline clip-path="url(#clip510)" style="stroke:#000000; stroke-linecap:round; stroke-linejoin:round; stroke-width:4; stroke-opacity:1; fill:none" points="1560.39,1035.39 1560.39,1016.49 "/>
<polyline clip-path="url(#clip510)" style="stroke:#000000; stroke-linecap:round; stroke-linejoin:round; stroke-width:4; stroke-opacity:1; fill:none" points="1708.45,1035.39 1708.45,1016.49 "/>
<polyline clip-path="url(#clip510)" style="stroke:#000000; stroke-linecap:round; stroke-linejoin:round; stroke-width:4; stroke-opacity:1; fill:none" points="1856.51,1035.39 1856.51,1016.49 "/>
<path clip-path="url(#clip510)" d="M1258.91 1090.65 L1275.23 1090.65 L1275.23 1094.59 L1253.28 1094.59 L1253.28 1090.65 Q1255.95 1087.9 1260.53 1083.27 Q1265.14 1078.62 1266.32 1077.27 Q1268.56 1074.75 1269.44 1073.01 Q1270.34 1071.25 1270.34 1069.56 Q1270.34 1066.81 1268.4 1065.07 Q1266.48 1063.34 1263.38 1063.34 Q1261.18 1063.34 1258.72 1064.1 Q1256.29 1064.87 1253.52 1066.42 L1253.52 1061.69 Q1256.34 1060.56 1258.79 1059.98 Q1261.25 1059.4 1263.28 1059.4 Q1268.65 1059.4 1271.85 1062.09 Q1275.04 1064.77 1275.04 1069.26 Q1275.04 1071.39 1274.23 1073.31 Q1273.45 1075.21 1271.34 1077.81 Q1270.76 1078.48 1267.66 1081.69 Q1264.56 1084.89 1258.91 1090.65 Z" fill="#000000" fill-rule="nonzero" fill-opacity="1" /><path clip-path="url(#clip510)" d="M1415.33 1064.1 L1403.52 1082.55 L1415.33 1082.55 L1415.33 1064.1 M1414.1 1060.03 L1419.98 1060.03 L1419.98 1082.55 L1424.91 1082.55 L1424.91 1086.44 L1419.98 1086.44 L1419.98 1094.59 L1415.33 1094.59 L1415.33 1086.44 L1399.73 1086.44 L1399.73 1081.93 L1414.1 1060.03 Z" fill="#000000" fill-rule="nonzero" fill-opacity="1" /><path clip-path="url(#clip510)" d="M1560.79 1075.44 Q1557.64 1075.44 1555.79 1077.6 Q1553.96 1079.75 1553.96 1083.5 Q1553.96 1087.23 1555.79 1089.4 Q1557.64 1091.56 1560.79 1091.56 Q1563.94 1091.56 1565.77 1089.4 Q1567.62 1087.23 1567.62 1083.5 Q1567.62 1079.75 1565.77 1077.6 Q1563.94 1075.44 1560.79 1075.44 M1570.07 1060.79 L1570.07 1065.05 Q1568.31 1064.22 1566.51 1063.78 Q1564.73 1063.34 1562.97 1063.34 Q1558.34 1063.34 1555.88 1066.46 Q1553.45 1069.59 1553.11 1075.91 Q1554.47 1073.89 1556.53 1072.83 Q1558.59 1071.74 1561.07 1071.74 Q1566.28 1071.74 1569.29 1074.91 Q1572.32 1078.06 1572.32 1083.5 Q1572.32 1088.82 1569.17 1092.04 Q1566.02 1095.26 1560.79 1095.26 Q1554.8 1095.26 1551.62 1090.68 Q1548.45 1086.07 1548.45 1077.34 Q1548.45 1069.15 1552.34 1064.29 Q1556.23 1059.4 1562.78 1059.4 Q1564.54 1059.4 1566.32 1059.75 Q1568.13 1060.1 1570.07 1060.79 Z" fill="#000000" fill-rule="nonzero" fill-opacity="1" /><path clip-path="url(#clip510)" d="M1708.45 1078.18 Q1705.12 1078.18 1703.2 1079.96 Q1701.3 1081.74 1701.3 1084.87 Q1701.3 1087.99 1703.2 1089.77 Q1705.12 1091.56 1708.45 1091.56 Q1711.78 1091.56 1713.7 1089.77 Q1715.63 1087.97 1715.63 1084.87 Q1715.63 1081.74 1713.7 1079.96 Q1711.81 1078.18 1708.45 1078.18 M1703.77 1076.19 Q1700.76 1075.44 1699.07 1073.38 Q1697.41 1071.32 1697.41 1068.36 Q1697.41 1064.22 1700.35 1061.81 Q1703.31 1059.4 1708.45 1059.4 Q1713.61 1059.4 1716.55 1061.81 Q1719.49 1064.22 1719.49 1068.36 Q1719.49 1071.32 1717.8 1073.38 Q1716.13 1075.44 1713.15 1076.19 Q1716.53 1076.97 1718.4 1079.26 Q1720.3 1081.56 1720.3 1084.87 Q1720.3 1089.89 1717.22 1092.57 Q1714.17 1095.26 1708.45 1095.26 Q1702.73 1095.26 1699.65 1092.57 Q1696.6 1089.89 1696.6 1084.87 Q1696.6 1081.56 1698.5 1079.26 Q1700.39 1076.97 1703.77 1076.19 M1702.06 1068.8 Q1702.06 1071.49 1703.73 1072.99 Q1705.42 1074.5 1708.45 1074.5 Q1711.46 1074.5 1713.15 1072.99 Q1714.86 1071.49 1714.86 1068.8 Q1714.86 1066.12 1713.15 1064.61 Q1711.46 1063.11 1708.45 1063.11 Q1705.42 1063.11 1703.73 1064.61 Q1702.06 1066.12 1702.06 1068.8 Z" fill="#000000" fill-rule="nonzero" fill-opacity="1" /><path clip-path="url(#clip510)" d="M1831.2 1090.65 L1838.84 1090.65 L1838.84 1064.29 L1830.53 1065.95 L1830.53 1061.69 L1838.79 1060.03 L1843.47 1060.03 L1843.47 1090.65 L1851.11 1090.65 L1851.11 1094.59 L1831.2 1094.59 L1831.2 1090.65 Z" fill="#000000" fill-rule="nonzero" fill-opacity="1" /><path clip-path="url(#clip510)" d="M1870.55 1063.11 Q1866.94 1063.11 1865.11 1066.67 Q1863.31 1070.21 1863.31 1077.34 Q1863.31 1084.45 1865.11 1088.01 Q1866.94 1091.56 1870.55 1091.56 Q1874.19 1091.56 1875.99 1088.01 Q1877.82 1084.45 1877.82 1077.34 Q1877.82 1070.21 1875.99 1066.67 Q1874.19 1063.11 1870.55 1063.11 M1870.55 1059.4 Q1876.36 1059.4 1879.42 1064.01 Q1882.5 1068.59 1882.5 1077.34 Q1882.5 1086.07 1879.42 1090.68 Q1876.36 1095.26 1870.55 1095.26 Q1864.74 1095.26 1861.66 1090.68 Q1858.61 1086.07 1858.61 1077.34 Q1858.61 1068.59 1861.66 1064.01 Q1864.74 1059.4 1870.55 1059.4 Z" fill="#000000" fill-rule="nonzero" fill-opacity="1" /><path clip-path="url(#clip510)" d="M1500.68 1128.29 L1500.68 1134.56 Q1497.01 1132.81 1493.77 1131.95 Q1490.52 1131.09 1487.5 1131.09 Q1482.25 1131.09 1479.38 1133.13 Q1476.55 1135.17 1476.55 1138.92 Q1476.55 1142.07 1478.43 1143.7 Q1480.34 1145.29 1485.62 1146.27 L1489.5 1147.07 Q1496.7 1148.44 1500.1 1151.91 Q1503.54 1155.35 1503.54 1161.14 Q1503.54 1168.05 1498.89 1171.61 Q1494.28 1175.17 1485.33 1175.17 Q1481.96 1175.17 1478.14 1174.41 Q1474.35 1173.65 1470.28 1172.15 L1470.28 1165.53 Q1474.19 1167.73 1477.95 1168.84 Q1481.71 1169.95 1485.33 1169.95 Q1490.84 1169.95 1493.83 1167.79 Q1496.82 1165.63 1496.82 1161.62 Q1496.82 1158.11 1494.66 1156.14 Q1492.53 1154.17 1487.63 1153.18 L1483.71 1152.42 Q1476.52 1150.99 1473.3 1147.93 Q1470.09 1144.87 1470.09 1139.43 Q1470.09 1133.13 1474.51 1129.5 Q1478.97 1125.87 1486.77 1125.87 Q1490.11 1125.87 1493.58 1126.48 Q1497.05 1127.08 1500.68 1128.29 Z" fill="#000000" fill-rule="nonzero" fill-opacity="1" /><path clip-path="url(#clip510)" d="M1519.1 1128.48 L1519.1 1138.6 L1531.17 1138.6 L1531.17 1143.16 L1519.1 1143.16 L1519.1 1162.51 Q1519.1 1166.87 1520.28 1168.11 Q1521.49 1169.35 1525.15 1169.35 L1531.17 1169.35 L1531.17 1174.25 L1525.15 1174.25 Q1518.37 1174.25 1515.79 1171.74 Q1513.22 1169.19 1513.22 1162.51 L1513.22 1143.16 L1508.92 1143.16 L1508.92 1138.6 L1513.22 1138.6 L1513.22 1128.48 L1519.1 1128.48 Z" fill="#000000" fill-rule="nonzero" fill-opacity="1" /><path clip-path="url(#clip510)" d="M1555.07 1156.33 Q1547.97 1156.33 1545.23 1157.96 Q1542.5 1159.58 1542.5 1163.49 Q1542.5 1166.61 1544.53 1168.46 Q1546.6 1170.27 1550.14 1170.27 Q1555.01 1170.27 1557.93 1166.84 Q1560.89 1163.37 1560.89 1157.64 L1560.89 1156.33 L1555.07 1156.33 M1566.75 1153.91 L1566.75 1174.25 L1560.89 1174.25 L1560.89 1168.84 Q1558.89 1172.09 1555.9 1173.65 Q1552.91 1175.17 1548.58 1175.17 Q1543.1 1175.17 1539.86 1172.12 Q1536.64 1169.03 1536.64 1163.88 Q1536.64 1157.86 1540.65 1154.8 Q1544.69 1151.75 1552.68 1151.75 L1560.89 1151.75 L1560.89 1151.18 Q1560.89 1147.13 1558.22 1144.94 Q1555.58 1142.71 1550.77 1142.71 Q1547.72 1142.71 1544.82 1143.44 Q1541.92 1144.17 1539.25 1145.64 L1539.25 1140.23 Q1542.47 1138.99 1545.49 1138.38 Q1548.51 1137.74 1551.38 1137.74 Q1559.11 1137.74 1562.93 1141.75 Q1566.75 1145.77 1566.75 1153.91 Z" fill="#000000" fill-rule="nonzero" fill-opacity="1" /><path clip-path="url(#clip510)" d="M1602.27 1156.01 Q1602.27 1149.65 1599.63 1146.15 Q1597.02 1142.65 1592.28 1142.65 Q1587.57 1142.65 1584.93 1146.15 Q1582.32 1149.65 1582.32 1156.01 Q1582.32 1162.35 1584.93 1165.85 Q1587.57 1169.35 1592.28 1169.35 Q1597.02 1169.35 1599.63 1165.85 Q1602.27 1162.35 1602.27 1156.01 M1608.13 1169.83 Q1608.13 1178.93 1604.09 1183.35 Q1600.04 1187.81 1591.7 1187.81 Q1588.62 1187.81 1585.88 1187.33 Q1583.14 1186.89 1580.56 1185.93 L1580.56 1180.24 Q1583.14 1181.64 1585.66 1182.3 Q1588.17 1182.97 1590.78 1182.97 Q1596.54 1182.97 1599.41 1179.95 Q1602.27 1176.96 1602.27 1170.88 L1602.27 1167.98 Q1600.46 1171.13 1597.62 1172.69 Q1594.79 1174.25 1590.85 1174.25 Q1584.29 1174.25 1580.28 1169.25 Q1576.27 1164.26 1576.27 1156.01 Q1576.27 1147.74 1580.28 1142.74 Q1584.29 1137.74 1590.85 1137.74 Q1594.79 1137.74 1597.62 1139.3 Q1600.46 1140.86 1602.27 1144.01 L1602.27 1138.6 L1608.13 1138.6 L1608.13 1169.83 Z" fill="#000000" fill-rule="nonzero" fill-opacity="1" /><path clip-path="url(#clip510)" d="M1650.68 1154.96 L1650.68 1157.83 L1623.76 1157.83 Q1624.14 1163.88 1627.38 1167.06 Q1630.66 1170.21 1636.49 1170.21 Q1639.86 1170.21 1643.01 1169.38 Q1646.2 1168.55 1649.31 1166.9 L1649.31 1172.44 Q1646.16 1173.77 1642.85 1174.47 Q1639.54 1175.17 1636.14 1175.17 Q1627.61 1175.17 1622.61 1170.21 Q1617.64 1165.24 1617.64 1156.78 Q1617.64 1148.03 1622.36 1142.9 Q1627.1 1137.74 1635.12 1137.74 Q1642.31 1137.74 1646.48 1142.39 Q1650.68 1147.01 1650.68 1154.96 M1644.83 1153.25 Q1644.76 1148.44 1642.12 1145.57 Q1639.51 1142.71 1635.18 1142.71 Q1630.28 1142.71 1627.32 1145.48 Q1624.39 1148.25 1623.95 1153.28 L1644.83 1153.25 Z" fill="#000000" fill-rule="nonzero" fill-opacity="1" /><polyline clip-path="url(#clip510)" style="stroke:#000000; stroke-linecap:round; stroke-linejoin:round; stroke-width:4; stroke-opacity:1; fill:none" points="1168.01,1035.39 1168.01,117.424 "/>
<polyline clip-path="url(#clip510)" style="stroke:#000000; stroke-linecap:round; stroke-linejoin:round; stroke-width:4; stroke-opacity:1; fill:none" points="1168.01,1009.41 1186.91,1009.41 "/>
<polyline clip-path="url(#clip510)" style="stroke:#000000; stroke-linecap:round; stroke-linejoin:round; stroke-width:4; stroke-opacity:1; fill:none" points="1168.01,792.671 1186.91,792.671 "/>
<polyline clip-path="url(#clip510)" style="stroke:#000000; stroke-linecap:round; stroke-linejoin:round; stroke-width:4; stroke-opacity:1; fill:none" points="1168.01,575.933 1186.91,575.933 "/>
<polyline clip-path="url(#clip510)" style="stroke:#000000; stroke-linecap:round; stroke-linejoin:round; stroke-width:4; stroke-opacity:1; fill:none" points="1168.01,359.196 1186.91,359.196 "/>
<polyline clip-path="url(#clip510)" style="stroke:#000000; stroke-linecap:round; stroke-linejoin:round; stroke-width:4; stroke-opacity:1; fill:none" points="1168.01,142.459 1186.91,142.459 "/>
<path clip-path="url(#clip510)" d="M1126.07 995.206 Q1122.46 995.206 1120.63 998.771 Q1118.83 1002.31 1118.83 1009.44 Q1118.83 1016.55 1120.63 1020.11 Q1122.46 1023.66 1126.07 1023.66 Q1129.7 1023.66 1131.51 1020.11 Q1133.34 1016.55 1133.34 1009.44 Q1133.34 1002.31 1131.51 998.771 Q1129.7 995.206 1126.07 995.206 M1126.07 991.503 Q1131.88 991.503 1134.94 996.109 Q1138.01 1000.69 1138.01 1009.44 Q1138.01 1018.17 1134.94 1022.78 Q1131.88 1027.36 1126.07 1027.36 Q1120.26 1027.36 1117.18 1022.78 Q1114.13 1018.17 1114.13 1009.44 Q1114.13 1000.69 1117.18 996.109 Q1120.26 991.503 1126.07 991.503 Z" fill="#000000" fill-rule="nonzero" fill-opacity="1" /><path clip-path="url(#clip510)" d="M1059.77 806.015 L1076.09 806.015 L1076.09 809.951 L1054.15 809.951 L1054.15 806.015 Q1056.81 803.261 1061.39 798.631 Q1066 793.978 1067.18 792.636 Q1069.43 790.113 1070.31 788.377 Q1071.21 786.617 1071.21 784.928 Q1071.21 782.173 1069.27 780.437 Q1067.34 778.701 1064.24 778.701 Q1062.04 778.701 1059.59 779.465 Q1057.16 780.229 1054.38 781.779 L1054.38 777.057 Q1057.21 775.923 1059.66 775.344 Q1062.11 774.766 1064.15 774.766 Q1069.52 774.766 1072.71 777.451 Q1075.91 780.136 1075.91 784.627 Q1075.91 786.756 1075.1 788.678 Q1074.31 790.576 1072.2 793.168 Q1071.63 793.84 1068.52 797.057 Q1065.42 800.252 1059.77 806.015 Z" fill="#000000" fill-rule="nonzero" fill-opacity="1" /><path clip-path="url(#clip510)" d="M1095.91 778.469 Q1092.3 778.469 1090.47 782.034 Q1088.66 785.576 1088.66 792.705 Q1088.66 799.812 1090.47 803.377 Q1092.3 806.918 1095.91 806.918 Q1099.54 806.918 1101.35 803.377 Q1103.18 799.812 1103.18 792.705 Q1103.18 785.576 1101.35 782.034 Q1099.54 778.469 1095.91 778.469 M1095.91 774.766 Q1101.72 774.766 1104.77 779.372 Q1107.85 783.955 1107.85 792.705 Q1107.85 801.432 1104.77 806.039 Q1101.72 810.622 1095.91 810.622 Q1090.1 810.622 1087.02 806.039 Q1083.96 801.432 1083.96 792.705 Q1083.96 783.955 1087.02 779.372 Q1090.1 774.766 1095.91 774.766 Z" fill="#000000" fill-rule="nonzero" fill-opacity="1" /><path clip-path="url(#clip510)" d="M1126.07 778.469 Q1122.46 778.469 1120.63 782.034 Q1118.83 785.576 1118.83 792.705 Q1118.83 799.812 1120.63 803.377 Q1122.46 806.918 1126.07 806.918 Q1129.7 806.918 1131.51 803.377 Q1133.34 799.812 1133.34 792.705 Q1133.34 785.576 1131.51 782.034 Q1129.7 778.469 1126.07 778.469 M1126.07 774.766 Q1131.88 774.766 1134.94 779.372 Q1138.01 783.955 1138.01 792.705 Q1138.01 801.432 1134.94 806.039 Q1131.88 810.622 1126.07 810.622 Q1120.26 810.622 1117.18 806.039 Q1114.13 801.432 1114.13 792.705 Q1114.13 783.955 1117.18 779.372 Q1120.26 774.766 1126.07 774.766 Z" fill="#000000" fill-rule="nonzero" fill-opacity="1" /><path clip-path="url(#clip510)" d="M1068.59 562.728 L1056.79 581.177 L1068.59 581.177 L1068.59 562.728 M1067.37 558.653 L1073.25 558.653 L1073.25 581.177 L1078.18 581.177 L1078.18 585.065 L1073.25 585.065 L1073.25 593.213 L1068.59 593.213 L1068.59 585.065 L1052.99 585.065 L1052.99 580.552 L1067.37 558.653 Z" fill="#000000" fill-rule="nonzero" fill-opacity="1" /><path clip-path="url(#clip510)" d="M1095.91 561.732 Q1092.3 561.732 1090.47 565.297 Q1088.66 568.839 1088.66 575.968 Q1088.66 583.075 1090.47 586.639 Q1092.3 590.181 1095.91 590.181 Q1099.54 590.181 1101.35 586.639 Q1103.18 583.075 1103.18 575.968 Q1103.18 568.839 1101.35 565.297 Q1099.54 561.732 1095.91 561.732 M1095.91 558.028 Q1101.72 558.028 1104.77 562.635 Q1107.85 567.218 1107.85 575.968 Q1107.85 584.695 1104.77 589.301 Q1101.72 593.885 1095.91 593.885 Q1090.1 593.885 1087.02 589.301 Q1083.96 584.695 1083.96 575.968 Q1083.96 567.218 1087.02 562.635 Q1090.1 558.028 1095.91 558.028 Z" fill="#000000" fill-rule="nonzero" fill-opacity="1" /><path clip-path="url(#clip510)" d="M1126.07 561.732 Q1122.46 561.732 1120.63 565.297 Q1118.83 568.839 1118.83 575.968 Q1118.83 583.075 1120.63 586.639 Q1122.46 590.181 1126.07 590.181 Q1129.7 590.181 1131.51 586.639 Q1133.34 583.075 1133.34 575.968 Q1133.34 568.839 1131.51 565.297 Q1129.7 561.732 1126.07 561.732 M1126.07 558.028 Q1131.88 558.028 1134.94 562.635 Q1138.01 567.218 1138.01 575.968 Q1138.01 584.695 1134.94 589.301 Q1131.88 593.885 1126.07 593.885 Q1120.26 593.885 1117.18 589.301 Q1114.13 584.695 1114.13 575.968 Q1114.13 567.218 1117.18 562.635 Q1120.26 558.028 1126.07 558.028 Z" fill="#000000" fill-rule="nonzero" fill-opacity="1" /><path clip-path="url(#clip510)" d="M1066.33 357.333 Q1063.18 357.333 1061.33 359.486 Q1059.5 361.638 1059.5 365.388 Q1059.5 369.115 1061.33 371.291 Q1063.18 373.444 1066.33 373.444 Q1069.47 373.444 1071.3 371.291 Q1073.15 369.115 1073.15 365.388 Q1073.15 361.638 1071.3 359.486 Q1069.47 357.333 1066.33 357.333 M1075.61 342.68 L1075.61 346.939 Q1073.85 346.106 1072.04 345.666 Q1070.26 345.227 1068.5 345.227 Q1063.87 345.227 1061.42 348.351 Q1058.99 351.476 1058.64 357.796 Q1060.01 355.782 1062.07 354.717 Q1064.13 353.629 1066.6 353.629 Q1071.81 353.629 1074.82 356.801 Q1077.85 359.949 1077.85 365.388 Q1077.85 370.712 1074.7 373.93 Q1071.56 377.148 1066.33 377.148 Q1060.33 377.148 1057.16 372.564 Q1053.99 367.958 1053.99 359.231 Q1053.99 351.037 1057.88 346.176 Q1061.77 341.291 1068.32 341.291 Q1070.08 341.291 1071.86 341.639 Q1073.66 341.986 1075.61 342.68 Z" fill="#000000" fill-rule="nonzero" fill-opacity="1" /><path clip-path="url(#clip510)" d="M1095.91 344.995 Q1092.3 344.995 1090.47 348.56 Q1088.66 352.101 1088.66 359.231 Q1088.66 366.338 1090.47 369.902 Q1092.3 373.444 1095.91 373.444 Q1099.54 373.444 1101.35 369.902 Q1103.18 366.338 1103.18 359.231 Q1103.18 352.101 1101.35 348.56 Q1099.54 344.995 1095.91 344.995 M1095.91 341.291 Q1101.72 341.291 1104.77 345.898 Q1107.85 350.481 1107.85 359.231 Q1107.85 367.958 1104.77 372.564 Q1101.72 377.148 1095.91 377.148 Q1090.1 377.148 1087.02 372.564 Q1083.96 367.958 1083.96 359.231 Q1083.96 350.481 1087.02 345.898 Q1090.1 341.291 1095.91 341.291 Z" fill="#000000" fill-rule="nonzero" fill-opacity="1" /><path clip-path="url(#clip510)" d="M1126.07 344.995 Q1122.46 344.995 1120.63 348.56 Q1118.83 352.101 1118.83 359.231 Q1118.83 366.338 1120.63 369.902 Q1122.46 373.444 1126.07 373.444 Q1129.7 373.444 1131.51 369.902 Q1133.34 366.338 1133.34 359.231 Q1133.34 352.101 1131.51 348.56 Q1129.7 344.995 1126.07 344.995 M1126.07 341.291 Q1131.88 341.291 1134.94 345.898 Q1138.01 350.481 1138.01 359.231 Q1138.01 367.958 1134.94 372.564 Q1131.88 377.148 1126.07 377.148 Q1120.26 377.148 1117.18 372.564 Q1114.13 367.958 1114.13 359.231 Q1114.13 350.481 1117.18 345.898 Q1120.26 341.291 1126.07 341.291 Z" fill="#000000" fill-rule="nonzero" fill-opacity="1" /><path clip-path="url(#clip510)" d="M1065.75 143.327 Q1062.41 143.327 1060.49 145.11 Q1058.59 146.892 1058.59 150.017 Q1058.59 153.142 1060.49 154.924 Q1062.41 156.707 1065.75 156.707 Q1069.08 156.707 1071 154.924 Q1072.92 153.119 1072.92 150.017 Q1072.92 146.892 1071 145.11 Q1069.1 143.327 1065.75 143.327 M1061.07 141.337 Q1058.06 140.596 1056.37 138.536 Q1054.71 136.475 1054.71 133.513 Q1054.71 129.369 1057.64 126.962 Q1060.61 124.554 1065.75 124.554 Q1070.91 124.554 1073.85 126.962 Q1076.79 129.369 1076.79 133.513 Q1076.79 136.475 1075.1 138.536 Q1073.43 140.596 1070.45 141.337 Q1073.83 142.124 1075.7 144.415 Q1077.6 146.707 1077.6 150.017 Q1077.6 155.04 1074.52 157.725 Q1071.46 160.411 1065.75 160.411 Q1060.03 160.411 1056.95 157.725 Q1053.89 155.04 1053.89 150.017 Q1053.89 146.707 1055.79 144.415 Q1057.69 142.124 1061.07 141.337 M1059.36 133.952 Q1059.36 136.637 1061.02 138.142 Q1062.71 139.647 1065.75 139.647 Q1068.76 139.647 1070.45 138.142 Q1072.16 136.637 1072.16 133.952 Q1072.16 131.267 1070.45 129.763 Q1068.76 128.258 1065.75 128.258 Q1062.71 128.258 1061.02 129.763 Q1059.36 131.267 1059.36 133.952 Z" fill="#000000" fill-rule="nonzero" fill-opacity="1" /><path clip-path="url(#clip510)" d="M1095.91 128.258 Q1092.3 128.258 1090.47 131.823 Q1088.66 135.364 1088.66 142.494 Q1088.66 149.6 1090.47 153.165 Q1092.3 156.707 1095.91 156.707 Q1099.54 156.707 1101.35 153.165 Q1103.18 149.6 1103.18 142.494 Q1103.18 135.364 1101.35 131.823 Q1099.54 128.258 1095.91 128.258 M1095.91 124.554 Q1101.72 124.554 1104.77 129.161 Q1107.85 133.744 1107.85 142.494 Q1107.85 151.221 1104.77 155.827 Q1101.72 160.411 1095.91 160.411 Q1090.1 160.411 1087.02 155.827 Q1083.96 151.221 1083.96 142.494 Q1083.96 133.744 1087.02 129.161 Q1090.1 124.554 1095.91 124.554 Z" fill="#000000" fill-rule="nonzero" fill-opacity="1" /><path clip-path="url(#clip510)" d="M1126.07 128.258 Q1122.46 128.258 1120.63 131.823 Q1118.83 135.364 1118.83 142.494 Q1118.83 149.6 1120.63 153.165 Q1122.46 156.707 1126.07 156.707 Q1129.7 156.707 1131.51 153.165 Q1133.34 149.6 1133.34 142.494 Q1133.34 135.364 1131.51 131.823 Q1129.7 128.258 1126.07 128.258 M1126.07 124.554 Q1131.88 124.554 1134.94 129.161 Q1138.01 133.744 1138.01 142.494 Q1138.01 151.221 1134.94 155.827 Q1131.88 160.411 1126.07 160.411 Q1120.26 160.411 1117.18 155.827 Q1114.13 151.221 1114.13 142.494 Q1114.13 133.744 1117.18 129.161 Q1120.26 124.554 1126.07 124.554 Z" fill="#000000" fill-rule="nonzero" fill-opacity="1" /><path clip-path="url(#clip510)" d="M1365.5 54.671 L1365.5 27.2059 L1372.95 27.2059 L1372.95 54.3874 Q1372.95 60.8284 1375.46 64.0691 Q1377.97 67.2693 1383 67.2693 Q1389.03 67.2693 1392.52 63.421 Q1396.04 59.5726 1396.04 52.9291 L1396.04 27.2059 L1403.49 27.2059 L1403.49 72.576 L1396.04 72.576 L1396.04 65.6084 Q1393.33 69.7404 1389.72 71.7658 Q1386.16 73.7508 1381.42 73.7508 Q1373.6 73.7508 1369.55 68.8897 Q1365.5 64.0286 1365.5 54.671 M1384.25 26.1121 L1384.25 26.1121 Z" fill="#000000" fill-rule="nonzero" fill-opacity="1" /><path clip-path="url(#clip510)" d="M1453.32 86.3491 L1453.32 92.1419 L1410.22 92.1419 L1410.22 86.3491 L1453.32 86.3491 Z" fill="#000000" fill-rule="nonzero" fill-opacity="1" /><path clip-path="url(#clip510)" d="M1492.9 49.9314 Q1492.9 41.7081 1489.49 37.0496 Q1486.13 32.3505 1480.22 32.3505 Q1474.3 32.3505 1470.9 37.0496 Q1467.54 41.7081 1467.54 49.9314 Q1467.54 58.1548 1470.9 62.8538 Q1474.3 67.5124 1480.22 67.5124 Q1486.13 67.5124 1489.49 62.8538 Q1492.9 58.1548 1492.9 49.9314 M1467.54 34.0924 Q1469.89 30.0415 1473.45 28.0971 Q1477.06 26.1121 1482.04 26.1121 Q1490.3 26.1121 1495.45 32.6746 Q1500.63 39.2371 1500.63 49.9314 Q1500.63 60.6258 1495.45 67.1883 Q1490.3 73.7508 1482.04 73.7508 Q1477.06 73.7508 1473.45 71.8063 Q1469.89 69.8214 1467.54 65.7705 L1467.54 72.576 L1460.04 72.576 L1460.04 9.54393 L1467.54 9.54393 L1467.54 34.0924 Z" fill="#000000" fill-rule="nonzero" fill-opacity="1" /><path clip-path="url(#clip510)" d="M1512.22 54.671 L1512.22 27.2059 L1519.67 27.2059 L1519.67 54.3874 Q1519.67 60.8284 1522.19 64.0691 Q1524.7 67.2693 1529.72 67.2693 Q1535.76 67.2693 1539.24 63.421 Q1542.76 59.5726 1542.76 52.9291 L1542.76 27.2059 L1550.22 27.2059 L1550.22 72.576 L1542.76 72.576 L1542.76 65.6084 Q1540.05 69.7404 1536.44 71.7658 Q1532.88 73.7508 1528.14 73.7508 Q1520.32 73.7508 1516.27 68.8897 Q1512.22 64.0286 1512.22 54.671 M1530.98 26.1121 L1530.98 26.1121 Z" fill="#000000" fill-rule="nonzero" fill-opacity="1" /><path clip-path="url(#clip510)" d="M1584.45 76.7889 Q1581.29 84.8907 1578.29 87.3618 Q1575.29 89.8329 1570.27 89.8329 L1564.31 89.8329 L1564.31 83.5945 L1568.69 83.5945 Q1571.77 83.5945 1573.47 82.1361 Q1575.17 80.6778 1577.24 75.2496 L1578.57 71.8468 L1560.22 27.2059 L1568.12 27.2059 L1582.3 62.6918 L1596.48 27.2059 L1604.38 27.2059 L1584.45 76.7889 Z" fill="#000000" fill-rule="nonzero" fill-opacity="1" /><path clip-path="url(#clip510)" d="M1603.89 62.2867 L1612.44 62.2867 L1612.44 72.576 L1603.89 72.576 L1603.89 62.2867 Z" fill="#000000" fill-rule="nonzero" fill-opacity="1" /><path clip-path="url(#clip510)" d="M1646.79 32.4315 Q1640.8 32.4315 1637.31 37.1306 Q1633.83 41.7891 1633.83 49.9314 Q1633.83 58.0738 1637.27 62.7728 Q1640.76 67.4314 1646.79 67.4314 Q1652.75 67.4314 1656.23 62.7323 Q1659.71 58.0333 1659.71 49.9314 Q1659.71 41.8701 1656.23 37.1711 Q1652.75 32.4315 1646.79 32.4315 M1646.79 26.1121 Q1656.51 26.1121 1662.06 32.4315 Q1667.61 38.7509 1667.61 49.9314 Q1667.61 61.0714 1662.06 67.4314 Q1656.51 73.7508 1646.79 73.7508 Q1637.03 73.7508 1631.48 67.4314 Q1625.97 61.0714 1625.97 49.9314 Q1625.97 38.7509 1631.48 32.4315 Q1637.03 26.1121 1646.79 26.1121 Z" fill="#000000" fill-rule="nonzero" fill-opacity="1" /><path clip-path="url(#clip510)" d="M1679.2 54.671 L1679.2 27.2059 L1686.65 27.2059 L1686.65 54.3874 Q1686.65 60.8284 1689.16 64.0691 Q1691.68 67.2693 1696.7 67.2693 Q1702.73 67.2693 1706.22 63.421 Q1709.74 59.5726 1709.74 52.9291 L1709.74 27.2059 L1717.2 27.2059 L1717.2 72.576 L1709.74 72.576 L1709.74 65.6084 Q1707.03 69.7404 1703.42 71.7658 Q1699.86 73.7508 1695.12 73.7508 Q1687.3 73.7508 1683.25 68.8897 Q1679.2 64.0286 1679.2 54.671 M1697.95 26.1121 L1697.95 26.1121 Z" fill="#000000" fill-rule="nonzero" fill-opacity="1" /><path clip-path="url(#clip510)" d="M1739.92 14.324 L1739.92 27.2059 L1755.27 27.2059 L1755.27 32.9987 L1739.92 32.9987 L1739.92 57.6282 Q1739.92 63.1779 1741.42 64.7578 Q1742.96 66.3376 1747.62 66.3376 L1755.27 66.3376 L1755.27 72.576 L1747.62 72.576 Q1738.99 72.576 1735.71 69.3758 Q1732.43 66.1351 1732.43 57.6282 L1732.43 32.9987 L1726.96 32.9987 L1726.96 27.2059 L1732.43 27.2059 L1732.43 14.324 L1739.92 14.324 Z" fill="#000000" fill-rule="nonzero" fill-opacity="1" /><path clip-path="url(#clip513)" d="M1190.22 251.773 L1264.26 968.851 L1338.29 968.851 L1412.32 968.851 L1486.35 968.851 L1560.39 968.851 L1634.42 968.851 L1708.45 968.851 L1782.48 1009.41 L1856.51 1009.41 L1930.55 1009.41 L1930.55 1009.41 L1856.51 332.741 L1782.48 249.556 L1708.45 143.404 L1634.42 143.404 L1560.39 143.404 L1486.35 143.404 L1412.32 143.404 L1338.29 143.404 L1264.26 143.404 L1190.22 251.773  Z" fill="#00467f" fill-rule="evenodd" fill-opacity="0.2"/>
<polyline clip-path="url(#clip513)" style="stroke:#00467f; stroke-linecap:round; stroke-linejoin:round; stroke-width:4; stroke-opacity:0; fill:none" points="1190.22,251.773 1264.26,556.128 1338.29,556.128 1412.32,556.128 1486.35,556.128 1560.39,556.128 1634.42,556.128 1708.45,556.128 1782.48,629.482 1856.51,671.075 1930.55,1009.41 "/>
<path clip-path="url(#clip513)" d="M1190.22 251.773 L1264.26 820.071 L1338.29 968.851 L1412.32 834.949 L1486.35 820.071 L1560.39 820.071 L1634.42 968.851 L1708.45 820.071 L1782.48 926.223 L1856.51 1009.41 L1930.55 1009.41 L1930.55 1009.41 L1856.51 332.741 L1782.48 249.556 L1708.45 143.404 L1634.42 143.404 L1560.39 178.206 L1486.35 178.206 L1412.32 143.404 L1338.29 178.206 L1264.26 178.206 L1190.22 251.773  Z" fill="#00467f" fill-rule="evenodd" fill-opacity="0.2"/>
<polyline clip-path="url(#clip513)" style="stroke:#00467f; stroke-linecap:round; stroke-linejoin:round; stroke-width:4; stroke-opacity:0; fill:none" points="1190.22,251.773 1264.26,499.138 1338.29,573.529 1412.32,489.176 1486.35,499.138 1560.39,499.138 1634.42,556.128 1708.45,481.737 1782.48,587.89 1856.51,671.075 1930.55,1009.41 "/>
<path clip-path="url(#clip513)" d="M1190.22 251.773 L1264.26 605.328 L1338.29 605.328 L1412.32 605.328 L1486.35 605.328 L1560.39 462.481 L1634.42 414.865 L1708.45 605.328 L1782.48 711.48 L1856.51 794.665 L1930.55 1009.41 L1930.55 1009.41 L1856.51 400.2 L1782.48 317.015 L1708.45 178.206 L1634.42 178.206 L1560.39 210.863 L1486.35 210.863 L1412.32 210.863 L1338.29 295.544 L1264.26 210.863 L1190.22 251.773  Z" fill="#00467f" fill-rule="evenodd" fill-opacity="0.2"/>
<polyline clip-path="url(#clip513)" style="stroke:#00467f; stroke-linecap:round; stroke-linejoin:round; stroke-width:4; stroke-opacity:0; fill:none" points="1190.22,251.773 1264.26,408.096 1338.29,450.436 1412.32,408.096 1486.35,408.096 1560.39,336.672 1634.42,296.535 1708.45,391.767 1782.48,514.248 1856.51,597.433 1930.55,1009.41 "/>
<polyline clip-path="url(#clip513)" style="stroke:#00467f; stroke-linecap:round; stroke-linejoin:round; stroke-width:4; stroke-opacity:1; fill:none" points="1190.22,251.773 1264.26,408.186 1338.29,408.186 1412.32,343.619 1486.35,408.186 1560.39,343.619 1634.42,295.544 1708.45,343.619 1782.48,449.772 1856.51,597.523 1930.55,1009.41 "/>
</svg>
