<?xml version="1.0" encoding="utf-8"?>
<svg xmlns="http://www.w3.org/2000/svg" xmlns:xlink="http://www.w3.org/1999/xlink" width="500" height="300" viewBox="0 0 2000 1200">
<defs>
  <clipPath id="clip680">
    <rect x="0" y="0" width="2000" height="1200"/>
  </clipPath>
</defs>
<path clip-path="url(#clip680)" d="M0 1200 L2000 1200 L2000 0 L0 0  Z" fill="#ffffff" fill-rule="evenodd" fill-opacity="1"/>
<defs>
  <clipPath id="clip681">
    <rect x="1197" y="653" width="756" height="383"/>
  </clipPath>
</defs>
<path clip-path="url(#clip680)" d="M226.531 499.736 L982.014 499.736 L982.014 117.424 L226.531 117.424  Z" fill="#ffffff" fill-rule="evenodd" fill-opacity="1"/>
<defs>
  <clipPath id="clip682">
    <rect x="226" y="117" width="756" height="383"/>
  </clipPath>
</defs>
<polyline clip-path="url(#clip682)" style="stroke:#000000; stroke-linecap:round; stroke-linejoin:round; stroke-width:2; stroke-opacity:0.1; fill:none" points="327.104,499.736 327.104,117.424 "/>
<polyline clip-path="url(#clip682)" style="stroke:#000000; stroke-linecap:round; stroke-linejoin:round; stroke-width:2; stroke-opacity:0.1; fill:none" points="485.486,499.736 485.486,117.424 "/>
<polyline clip-path="url(#clip682)" style="stroke:#000000; stroke-linecap:round; stroke-linejoin:round; stroke-width:2; stroke-opacity:0.1; fill:none" points="643.868,499.736 643.868,117.424 "/>
<polyline clip-path="url(#clip682)" style="stroke:#000000; stroke-linecap:round; stroke-linejoin:round; stroke-width:2; stroke-opacity:0.1; fill:none" points="802.25,499.736 802.25,117.424 "/>
<polyline clip-path="url(#clip682)" style="stroke:#000000; stroke-linecap:round; stroke-linejoin:round; stroke-width:2; stroke-opacity:0.1; fill:none" points="960.632,499.736 960.632,117.424 "/>
<polyline clip-path="url(#clip682)" style="stroke:#000000; stroke-linecap:round; stroke-linejoin:round; stroke-width:2; stroke-opacity:0.1; fill:none" points="226.531,488.916 982.014,488.916 "/>
<polyline clip-path="url(#clip682)" style="stroke:#000000; stroke-linecap:round; stroke-linejoin:round; stroke-width:2; stroke-opacity:0.1; fill:none" points="226.531,428.804 982.014,428.804 "/>
<polyline clip-path="url(#clip682)" style="stroke:#000000; stroke-linecap:round; stroke-linejoin:round; stroke-width:2; stroke-opacity:0.1; fill:none" points="226.531,368.692 982.014,368.692 "/>
<polyline clip-path="url(#clip682)" style="stroke:#000000; stroke-linecap:round; stroke-linejoin:round; stroke-width:2; stroke-opacity:0.1; fill:none" points="226.531,308.58 982.014,308.58 "/>
<polyline clip-path="url(#clip682)" style="stroke:#000000; stroke-linecap:round; stroke-linejoin:round; stroke-width:2; stroke-opacity:0.1; fill:none" points="226.531,248.468 982.014,248.468 "/>
<polyline clip-path="url(#clip682)" style="stroke:#000000; stroke-linecap:round; stroke-linejoin:round; stroke-width:2; stroke-opacity:0.1; fill:none" points="226.531,188.356 982.014,188.356 "/>
<polyline clip-path="url(#clip682)" style="stroke:#000000; stroke-linecap:round; stroke-linejoin:round; stroke-width:2; stroke-opacity:0.1; fill:none" points="226.531,128.244 982.014,128.244 "/>
<polyline clip-path="url(#clip680)" style="stroke:#000000; stroke-linecap:round; stroke-linejoin:round; stroke-width:4; stroke-opacity:1; fill:none" points="226.531,499.736 982.014,499.736 "/>
<polyline clip-path="url(#clip680)" style="stroke:#000000; stroke-linecap:round; stroke-linejoin:round; stroke-width:4; stroke-opacity:1; fill:none" points="327.104,499.736 327.104,480.838 "/>
<polyline clip-path="url(#clip680)" style="stroke:#000000; stroke-linecap:round; stroke-linejoin:round; stroke-width:4; stroke-opacity:1; fill:none" points="485.486,499.736 485.486,480.838 "/>
<polyline clip-path="url(#clip680)" style="stroke:#000000; stroke-linecap:round; stroke-linejoin:round; stroke-width:4; stroke-opacity:1; fill:none" points="643.868,499.736 643.868,480.838 "/>
<polyline clip-path="url(#clip680)" style="stroke:#000000; stroke-linecap:round; stroke-linejoin:round; stroke-width:4; stroke-opacity:1; fill:none" points="802.25,499.736 802.25,480.838 "/>
<polyline clip-path="url(#clip680)" style="stroke:#000000; stroke-linecap:round; stroke-linejoin:round; stroke-width:4; stroke-opacity:1; fill:none" points="960.632,499.736 960.632,480.838 "/>
<path clip-path="url(#clip680)" d="M321.756 555.001 L338.076 555.001 L338.076 558.936 L316.131 558.936 L316.131 555.001 Q318.793 552.246 323.377 547.616 Q327.983 542.964 329.164 541.621 Q331.409 539.098 332.289 537.362 Q333.191 535.603 333.191 533.913 Q333.191 531.158 331.247 529.422 Q329.326 527.686 326.224 527.686 Q324.025 527.686 321.571 528.45 Q319.141 529.214 316.363 530.765 L316.363 526.043 Q319.187 524.908 321.641 524.33 Q324.094 523.751 326.131 523.751 Q331.502 523.751 334.696 526.436 Q337.891 529.121 337.891 533.612 Q337.891 535.742 337.08 537.663 Q336.293 539.561 334.187 542.154 Q333.608 542.825 330.506 546.042 Q327.404 549.237 321.756 555.001 Z" fill="#000000" fill-rule="nonzero" fill-opacity="1" /><path clip-path="url(#clip680)" d="M488.495 528.45 L476.689 546.899 L488.495 546.899 L488.495 528.45 M487.268 524.376 L493.148 524.376 L493.148 546.899 L498.078 546.899 L498.078 550.788 L493.148 550.788 L493.148 558.936 L488.495 558.936 L488.495 550.788 L472.893 550.788 L472.893 546.274 L487.268 524.376 Z" fill="#000000" fill-rule="nonzero" fill-opacity="1" /><path clip-path="url(#clip680)" d="M644.273 539.792 Q641.125 539.792 639.273 541.945 Q637.444 544.098 637.444 547.848 Q637.444 551.575 639.273 553.751 Q641.125 555.903 644.273 555.903 Q647.421 555.903 649.25 553.751 Q651.102 551.575 651.102 547.848 Q651.102 544.098 649.25 541.945 Q647.421 539.792 644.273 539.792 M653.555 525.14 L653.555 529.399 Q651.796 528.566 649.991 528.126 Q648.208 527.686 646.449 527.686 Q641.819 527.686 639.366 530.811 Q636.935 533.936 636.588 540.255 Q637.954 538.242 640.014 537.177 Q642.074 536.089 644.551 536.089 Q649.759 536.089 652.768 539.26 Q655.801 542.408 655.801 547.848 Q655.801 553.172 652.653 556.39 Q649.504 559.607 644.273 559.607 Q638.278 559.607 635.106 555.024 Q631.935 550.417 631.935 541.691 Q631.935 533.496 635.824 528.635 Q639.713 523.751 646.264 523.751 Q648.023 523.751 649.805 524.098 Q651.611 524.445 653.555 525.14 Z" fill="#000000" fill-rule="nonzero" fill-opacity="1" /><path clip-path="url(#clip680)" d="M802.25 542.524 Q798.917 542.524 796.996 544.306 Q795.097 546.089 795.097 549.214 Q795.097 552.339 796.996 554.121 Q798.917 555.903 802.25 555.903 Q805.583 555.903 807.505 554.121 Q809.426 552.316 809.426 549.214 Q809.426 546.089 807.505 544.306 Q805.607 542.524 802.25 542.524 M797.574 540.533 Q794.565 539.792 792.875 537.732 Q791.209 535.672 791.209 532.709 Q791.209 528.566 794.148 526.158 Q797.111 523.751 802.25 523.751 Q807.412 523.751 810.352 526.158 Q813.292 528.566 813.292 532.709 Q813.292 535.672 811.602 537.732 Q809.935 539.792 806.949 540.533 Q810.329 541.32 812.204 543.612 Q814.102 545.904 814.102 549.214 Q814.102 554.237 811.023 556.922 Q807.968 559.607 802.25 559.607 Q796.533 559.607 793.454 556.922 Q790.398 554.237 790.398 549.214 Q790.398 545.904 792.296 543.612 Q794.195 541.32 797.574 540.533 M795.861 533.149 Q795.861 535.834 797.528 537.339 Q799.218 538.843 802.25 538.843 Q805.259 538.843 806.949 537.339 Q808.662 535.834 808.662 533.149 Q808.662 530.464 806.949 528.959 Q805.259 527.455 802.25 527.455 Q799.218 527.455 797.528 528.959 Q795.861 530.464 795.861 533.149 Z" fill="#000000" fill-rule="nonzero" fill-opacity="1" /><path clip-path="url(#clip680)" d="M935.32 555.001 L942.959 555.001 L942.959 528.635 L934.649 530.302 L934.649 526.043 L942.913 524.376 L947.588 524.376 L947.588 555.001 L955.227 555.001 L955.227 558.936 L935.32 558.936 L935.32 555.001 Z" fill="#000000" fill-rule="nonzero" fill-opacity="1" /><path clip-path="url(#clip680)" d="M974.672 527.455 Q971.061 527.455 969.232 531.019 Q967.426 534.561 967.426 541.691 Q967.426 548.797 969.232 552.362 Q971.061 555.903 974.672 555.903 Q978.306 555.903 980.111 552.362 Q981.94 548.797 981.94 541.691 Q981.94 534.561 980.111 531.019 Q978.306 527.455 974.672 527.455 M974.672 523.751 Q980.482 523.751 983.537 528.357 Q986.616 532.941 986.616 541.691 Q986.616 550.417 983.537 555.024 Q980.482 559.607 974.672 559.607 Q968.861 559.607 965.783 555.024 Q962.727 550.417 962.727 541.691 Q962.727 532.941 965.783 528.357 Q968.861 523.751 974.672 523.751 Z" fill="#000000" fill-rule="nonzero" fill-opacity="1" /><polyline clip-path="url(#clip680)" style="stroke:#000000; stroke-linecap:round; stroke-linejoin:round; stroke-width:4; stroke-opacity:1; fill:none" points="226.531,499.736 226.531,117.424 "/>
<polyline clip-path="url(#clip680)" style="stroke:#000000; stroke-linecap:round; stroke-linejoin:round; stroke-width:4; stroke-opacity:1; fill:none" points="226.531,488.916 245.428,488.916 "/>
<polyline clip-path="url(#clip680)" style="stroke:#000000; stroke-linecap:round; stroke-linejoin:round; stroke-width:4; stroke-opacity:1; fill:none" points="226.531,428.804 245.428,428.804 "/>
<polyline clip-path="url(#clip680)" style="stroke:#000000; stroke-linecap:round; stroke-linejoin:round; stroke-width:4; stroke-opacity:1; fill:none" points="226.531,368.692 245.428,368.692 "/>
<polyline clip-path="url(#clip680)" style="stroke:#000000; stroke-linecap:round; stroke-linejoin:round; stroke-width:4; stroke-opacity:1; fill:none" points="226.531,308.58 245.428,308.58 "/>
<polyline clip-path="url(#clip680)" style="stroke:#000000; stroke-linecap:round; stroke-linejoin:round; stroke-width:4; stroke-opacity:1; fill:none" points="226.531,248.468 245.428,248.468 "/>
<polyline clip-path="url(#clip680)" style="stroke:#000000; stroke-linecap:round; stroke-linejoin:round; stroke-width:4; stroke-opacity:1; fill:none" points="226.531,188.356 245.428,188.356 "/>
<polyline clip-path="url(#clip680)" style="stroke:#000000; stroke-linecap:round; stroke-linejoin:round; stroke-width:4; stroke-opacity:1; fill:none" points="226.531,128.244 245.428,128.244 "/>
<path clip-path="url(#clip680)" d="M184.586 474.714 Q180.975 474.714 179.147 478.279 Q177.341 481.821 177.341 488.95 Q177.341 496.057 179.147 499.622 Q180.975 503.163 184.586 503.163 Q188.221 503.163 190.026 499.622 Q191.855 496.057 191.855 488.95 Q191.855 481.821 190.026 478.279 Q188.221 474.714 184.586 474.714 M184.586 471.011 Q190.397 471.011 193.452 475.617 Q196.531 480.2 196.531 488.95 Q196.531 497.677 193.452 502.284 Q190.397 506.867 184.586 506.867 Q178.776 506.867 175.698 502.284 Q172.642 497.677 172.642 488.95 Q172.642 480.2 175.698 475.617 Q178.776 471.011 184.586 471.011 Z" fill="#000000" fill-rule="nonzero" fill-opacity="1" /><path clip-path="url(#clip680)" d="M115.073 442.149 L122.712 442.149 L122.712 415.783 L114.402 417.45 L114.402 413.19 L122.666 411.524 L127.341 411.524 L127.341 442.149 L134.98 442.149 L134.98 446.084 L115.073 446.084 L115.073 442.149 Z" fill="#000000" fill-rule="nonzero" fill-opacity="1" /><path clip-path="url(#clip680)" d="M154.425 414.603 Q150.814 414.603 148.985 418.167 Q147.179 421.709 147.179 428.839 Q147.179 435.945 148.985 439.51 Q150.814 443.051 154.425 443.051 Q158.059 443.051 159.864 439.51 Q161.693 435.945 161.693 428.839 Q161.693 421.709 159.864 418.167 Q158.059 414.603 154.425 414.603 M154.425 410.899 Q160.235 410.899 163.29 415.505 Q166.369 420.089 166.369 428.839 Q166.369 437.565 163.29 442.172 Q160.235 446.755 154.425 446.755 Q148.614 446.755 145.536 442.172 Q142.48 437.565 142.48 428.839 Q142.48 420.089 145.536 415.505 Q148.614 410.899 154.425 410.899 Z" fill="#000000" fill-rule="nonzero" fill-opacity="1" /><path clip-path="url(#clip680)" d="M184.586 414.603 Q180.975 414.603 179.147 418.167 Q177.341 421.709 177.341 428.839 Q177.341 435.945 179.147 439.51 Q180.975 443.051 184.586 443.051 Q188.221 443.051 190.026 439.51 Q191.855 435.945 191.855 428.839 Q191.855 421.709 190.026 418.167 Q188.221 414.603 184.586 414.603 M184.586 410.899 Q190.397 410.899 193.452 415.505 Q196.531 420.089 196.531 428.839 Q196.531 437.565 193.452 442.172 Q190.397 446.755 184.586 446.755 Q178.776 446.755 175.698 442.172 Q172.642 437.565 172.642 428.839 Q172.642 420.089 175.698 415.505 Q178.776 410.899 184.586 410.899 Z" fill="#000000" fill-rule="nonzero" fill-opacity="1" /><path clip-path="url(#clip680)" d="M118.291 382.037 L134.61 382.037 L134.61 385.972 L112.666 385.972 L112.666 382.037 Q115.328 379.282 119.911 374.653 Q124.517 370 125.698 368.657 Q127.943 366.134 128.823 364.398 Q129.726 362.639 129.726 360.949 Q129.726 358.194 127.781 356.458 Q125.86 354.722 122.758 354.722 Q120.559 354.722 118.105 355.486 Q115.675 356.25 112.897 357.801 L112.897 353.079 Q115.721 351.944 118.175 351.366 Q120.628 350.787 122.666 350.787 Q128.036 350.787 131.23 353.472 Q134.425 356.157 134.425 360.648 Q134.425 362.778 133.615 364.699 Q132.827 366.597 130.721 369.19 Q130.142 369.861 127.04 373.078 Q123.939 376.273 118.291 382.037 Z" fill="#000000" fill-rule="nonzero" fill-opacity="1" /><path clip-path="url(#clip680)" d="M154.425 354.491 Q150.814 354.491 148.985 358.055 Q147.179 361.597 147.179 368.727 Q147.179 375.833 148.985 379.398 Q150.814 382.94 154.425 382.94 Q158.059 382.94 159.864 379.398 Q161.693 375.833 161.693 368.727 Q161.693 361.597 159.864 358.055 Q158.059 354.491 154.425 354.491 M154.425 350.787 Q160.235 350.787 163.29 355.393 Q166.369 359.977 166.369 368.727 Q166.369 377.453 163.29 382.06 Q160.235 386.643 154.425 386.643 Q148.614 386.643 145.536 382.06 Q142.48 377.453 142.48 368.727 Q142.48 359.977 145.536 355.393 Q148.614 350.787 154.425 350.787 Z" fill="#000000" fill-rule="nonzero" fill-opacity="1" /><path clip-path="url(#clip680)" d="M184.586 354.491 Q180.975 354.491 179.147 358.055 Q177.341 361.597 177.341 368.727 Q177.341 375.833 179.147 379.398 Q180.975 382.94 184.586 382.94 Q188.221 382.94 190.026 379.398 Q191.855 375.833 191.855 368.727 Q191.855 361.597 190.026 358.055 Q188.221 354.491 184.586 354.491 M184.586 350.787 Q190.397 350.787 193.452 355.393 Q196.531 359.977 196.531 368.727 Q196.531 377.453 193.452 382.06 Q190.397 386.643 184.586 386.643 Q178.776 386.643 175.698 382.06 Q172.642 377.453 172.642 368.727 Q172.642 359.977 175.698 355.393 Q178.776 350.787 184.586 350.787 Z" fill="#000000" fill-rule="nonzero" fill-opacity="1" /><path clip-path="url(#clip680)" d="M128.429 307.226 Q131.786 307.943 133.661 310.212 Q135.559 312.48 135.559 315.814 Q135.559 320.929 132.04 323.73 Q128.522 326.531 122.041 326.531 Q119.865 326.531 117.55 326.091 Q115.258 325.675 112.804 324.818 L112.804 320.304 Q114.749 321.439 117.064 322.017 Q119.378 322.596 121.902 322.596 Q126.3 322.596 128.591 320.86 Q130.906 319.124 130.906 315.814 Q130.906 312.758 128.753 311.045 Q126.624 309.309 122.804 309.309 L118.777 309.309 L118.777 305.467 L122.99 305.467 Q126.439 305.467 128.267 304.101 Q130.096 302.712 130.096 300.119 Q130.096 297.457 128.198 296.045 Q126.323 294.61 122.804 294.61 Q120.883 294.61 118.684 295.027 Q116.485 295.443 113.846 296.323 L113.846 292.156 Q116.508 291.416 118.823 291.045 Q121.161 290.675 123.221 290.675 Q128.545 290.675 131.647 293.106 Q134.749 295.513 134.749 299.633 Q134.749 302.504 133.105 304.494 Q131.462 306.462 128.429 307.226 Z" fill="#000000" fill-rule="nonzero" fill-opacity="1" /><path clip-path="url(#clip680)" d="M154.425 294.379 Q150.814 294.379 148.985 297.943 Q147.179 301.485 147.179 308.615 Q147.179 315.721 148.985 319.286 Q150.814 322.828 154.425 322.828 Q158.059 322.828 159.864 319.286 Q161.693 315.721 161.693 308.615 Q161.693 301.485 159.864 297.943 Q158.059 294.379 154.425 294.379 M154.425 290.675 Q160.235 290.675 163.29 295.281 Q166.369 299.865 166.369 308.615 Q166.369 317.342 163.29 321.948 Q160.235 326.531 154.425 326.531 Q148.614 326.531 145.536 321.948 Q142.48 317.342 142.48 308.615 Q142.48 299.865 145.536 295.281 Q148.614 290.675 154.425 290.675 Z" fill="#000000" fill-rule="nonzero" fill-opacity="1" /><path clip-path="url(#clip680)" d="M184.586 294.379 Q180.975 294.379 179.147 297.943 Q177.341 301.485 177.341 308.615 Q177.341 315.721 179.147 319.286 Q180.975 322.828 184.586 322.828 Q188.221 322.828 190.026 319.286 Q191.855 315.721 191.855 308.615 Q191.855 301.485 190.026 297.943 Q188.221 294.379 184.586 294.379 M184.586 290.675 Q190.397 290.675 193.452 295.281 Q196.531 299.865 196.531 308.615 Q196.531 317.342 193.452 321.948 Q190.397 326.531 184.586 326.531 Q178.776 326.531 175.698 321.948 Q172.642 317.342 172.642 308.615 Q172.642 299.865 175.698 295.281 Q178.776 290.675 184.586 290.675 Z" fill="#000000" fill-rule="nonzero" fill-opacity="1" /><path clip-path="url(#clip680)" d="M127.11 235.262 L115.304 253.711 L127.11 253.711 L127.11 235.262 M125.883 231.188 L131.763 231.188 L131.763 253.711 L136.693 253.711 L136.693 257.6 L131.763 257.6 L131.763 265.748 L127.11 265.748 L127.11 257.6 L111.508 257.6 L111.508 253.086 L125.883 231.188 Z" fill="#000000" fill-rule="nonzero" fill-opacity="1" /><path clip-path="url(#clip680)" d="M154.425 234.267 Q150.814 234.267 148.985 237.832 Q147.179 241.373 147.179 248.503 Q147.179 255.609 148.985 259.174 Q150.814 262.716 154.425 262.716 Q158.059 262.716 159.864 259.174 Q161.693 255.609 161.693 248.503 Q161.693 241.373 159.864 237.832 Q158.059 234.267 154.425 234.267 M154.425 230.563 Q160.235 230.563 163.29 235.17 Q166.369 239.753 166.369 248.503 Q166.369 257.23 163.29 261.836 Q160.235 266.419 154.425 266.419 Q148.614 266.419 145.536 261.836 Q142.48 257.23 142.48 248.503 Q142.48 239.753 145.536 235.17 Q148.614 230.563 154.425 230.563 Z" fill="#000000" fill-rule="nonzero" fill-opacity="1" /><path clip-path="url(#clip680)" d="M184.586 234.267 Q180.975 234.267 179.147 237.832 Q177.341 241.373 177.341 248.503 Q177.341 255.609 179.147 259.174 Q180.975 262.716 184.586 262.716 Q188.221 262.716 190.026 259.174 Q191.855 255.609 191.855 248.503 Q191.855 241.373 190.026 237.832 Q188.221 234.267 184.586 234.267 M184.586 230.563 Q190.397 230.563 193.452 235.17 Q196.531 239.753 196.531 248.503 Q196.531 257.23 193.452 261.836 Q190.397 266.419 184.586 266.419 Q178.776 266.419 175.698 261.836 Q172.642 257.23 172.642 248.503 Q172.642 239.753 175.698 235.17 Q178.776 230.563 184.586 230.563 Z" fill="#000000" fill-rule="nonzero" fill-opacity="1" /><path clip-path="url(#clip680)" d="M114.309 171.076 L132.665 171.076 L132.665 175.011 L118.591 175.011 L118.591 183.484 Q119.61 183.136 120.628 182.974 Q121.647 182.789 122.666 182.789 Q128.453 182.789 131.832 185.96 Q135.212 189.132 135.212 194.548 Q135.212 200.127 131.74 203.229 Q128.267 206.307 121.948 206.307 Q119.772 206.307 117.503 205.937 Q115.258 205.567 112.851 204.826 L112.851 200.127 Q114.934 201.261 117.156 201.817 Q119.378 202.372 121.855 202.372 Q125.86 202.372 128.198 200.266 Q130.536 198.159 130.536 194.548 Q130.536 190.937 128.198 188.831 Q125.86 186.724 121.855 186.724 Q119.98 186.724 118.105 187.141 Q116.254 187.558 114.309 188.437 L114.309 171.076 Z" fill="#000000" fill-rule="nonzero" fill-opacity="1" /><path clip-path="url(#clip680)" d="M154.425 174.155 Q150.814 174.155 148.985 177.72 Q147.179 181.261 147.179 188.391 Q147.179 195.497 148.985 199.062 Q150.814 202.604 154.425 202.604 Q158.059 202.604 159.864 199.062 Q161.693 195.497 161.693 188.391 Q161.693 181.261 159.864 177.72 Q158.059 174.155 154.425 174.155 M154.425 170.451 Q160.235 170.451 163.29 175.058 Q166.369 179.641 166.369 188.391 Q166.369 197.118 163.29 201.724 Q160.235 206.307 154.425 206.307 Q148.614 206.307 145.536 201.724 Q142.48 197.118 142.48 188.391 Q142.48 179.641 145.536 175.058 Q148.614 170.451 154.425 170.451 Z" fill="#000000" fill-rule="nonzero" fill-opacity="1" /><path clip-path="url(#clip680)" d="M184.586 174.155 Q180.975 174.155 179.147 177.72 Q177.341 181.261 177.341 188.391 Q177.341 195.497 179.147 199.062 Q180.975 202.604 184.586 202.604 Q188.221 202.604 190.026 199.062 Q191.855 195.497 191.855 188.391 Q191.855 181.261 190.026 177.72 Q188.221 174.155 184.586 174.155 M184.586 170.451 Q190.397 170.451 193.452 175.058 Q196.531 179.641 196.531 188.391 Q196.531 197.118 193.452 201.724 Q190.397 206.307 184.586 206.307 Q178.776 206.307 175.698 201.724 Q172.642 197.118 172.642 188.391 Q172.642 179.641 175.698 175.058 Q178.776 170.451 184.586 170.451 Z" fill="#000000" fill-rule="nonzero" fill-opacity="1" /><path clip-path="url(#clip680)" d="M124.841 126.381 Q121.693 126.381 119.841 128.534 Q118.013 130.686 118.013 134.436 Q118.013 138.163 119.841 140.339 Q121.693 142.492 124.841 142.492 Q127.99 142.492 129.818 140.339 Q131.67 138.163 131.67 134.436 Q131.67 130.686 129.818 128.534 Q127.99 126.381 124.841 126.381 M134.124 111.728 L134.124 115.987 Q132.365 115.154 130.559 114.714 Q128.777 114.274 127.017 114.274 Q122.388 114.274 119.934 117.399 Q117.503 120.524 117.156 126.844 Q118.522 124.83 120.582 123.765 Q122.642 122.677 125.119 122.677 Q130.328 122.677 133.337 125.848 Q136.369 128.997 136.369 134.436 Q136.369 139.76 133.221 142.978 Q130.073 146.196 124.841 146.196 Q118.846 146.196 115.675 141.612 Q112.504 137.006 112.504 128.279 Q112.504 120.085 116.392 115.224 Q120.281 110.339 126.832 110.339 Q128.591 110.339 130.374 110.686 Q132.179 111.034 134.124 111.728 Z" fill="#000000" fill-rule="nonzero" fill-opacity="1" /><path clip-path="url(#clip680)" d="M154.425 114.043 Q150.814 114.043 148.985 117.608 Q147.179 121.149 147.179 128.279 Q147.179 135.385 148.985 138.95 Q150.814 142.492 154.425 142.492 Q158.059 142.492 159.864 138.95 Q161.693 135.385 161.693 128.279 Q161.693 121.149 159.864 117.608 Q158.059 114.043 154.425 114.043 M154.425 110.339 Q160.235 110.339 163.29 114.946 Q166.369 119.529 166.369 128.279 Q166.369 137.006 163.29 141.612 Q160.235 146.196 154.425 146.196 Q148.614 146.196 145.536 141.612 Q142.48 137.006 142.48 128.279 Q142.48 119.529 145.536 114.946 Q148.614 110.339 154.425 110.339 Z" fill="#000000" fill-rule="nonzero" fill-opacity="1" /><path clip-path="url(#clip680)" d="M184.586 114.043 Q180.975 114.043 179.147 117.608 Q177.341 121.149 177.341 128.279 Q177.341 135.385 179.147 138.95 Q180.975 142.492 184.586 142.492 Q188.221 142.492 190.026 138.95 Q191.855 135.385 191.855 128.279 Q191.855 121.149 190.026 117.608 Q188.221 114.043 184.586 114.043 M184.586 110.339 Q190.397 110.339 193.452 114.946 Q196.531 119.529 196.531 128.279 Q196.531 137.006 193.452 141.612 Q190.397 146.196 184.586 146.196 Q178.776 146.196 175.698 141.612 Q172.642 137.006 172.642 128.279 Q172.642 119.529 175.698 114.946 Q178.776 110.339 184.586 110.339 Z" fill="#000000" fill-rule="nonzero" fill-opacity="1" /><path clip-path="url(#clip680)" d="M53.1839 413.805 L31.6042 413.805 L31.6042 407.949 L52.9611 407.949 Q58.0219 407.949 60.5682 405.975 Q63.0826 404.002 63.0826 400.055 Q63.0826 395.313 60.0589 392.575 Q57.0352 389.806 51.8153 389.806 L31.6042 389.806 L31.6042 383.95 L67.2522 383.95 L67.2522 389.806 L61.7776 389.806 Q65.0242 391.939 66.6156 394.772 Q68.1752 397.573 68.1752 401.297 Q68.1752 407.439 64.3558 410.622 Q60.5363 413.805 53.1839 413.805 M30.7448 399.069 L30.7448 399.069 Z" fill="#000000" fill-rule="nonzero" fill-opacity="1" /><path clip-path="url(#clip680)" d="M78.0739 344.801 L82.6253 344.801 L82.6253 378.666 L78.0739 378.666 L78.0739 344.801 Z" fill="#000000" fill-rule="nonzero" fill-opacity="1" /><path clip-path="url(#clip680)" d="M61.905 333.629 L80.8111 333.629 L80.8111 339.517 L31.6042 339.517 L31.6042 333.629 L37.0151 333.629 Q33.8322 331.783 32.3044 328.982 Q30.7448 326.149 30.7448 322.234 Q30.7448 315.741 35.9011 311.699 Q41.0573 307.625 49.46 307.625 Q57.8627 307.625 63.019 311.699 Q68.1752 315.741 68.1752 322.234 Q68.1752 326.149 66.6474 328.982 Q65.0878 331.783 61.905 333.629 M49.46 313.704 Q42.9988 313.704 39.3385 316.378 Q35.6464 319.02 35.6464 323.667 Q35.6464 328.314 39.3385 330.987 Q42.9988 333.629 49.46 333.629 Q55.9212 333.629 59.6133 330.987 Q63.2736 328.314 63.2736 323.667 Q63.2736 319.02 59.6133 316.378 Q55.9212 313.704 49.46 313.704 Z" fill="#000000" fill-rule="nonzero" fill-opacity="1" /><path clip-path="url(#clip680)" d="M37.0787 277.261 Q36.5058 278.247 36.2512 279.425 Q35.9647 280.571 35.9647 281.971 Q35.9647 286.937 39.2112 289.61 Q42.4259 292.252 48.4733 292.252 L67.2522 292.252 L67.2522 298.14 L31.6042 298.14 L31.6042 292.252 L37.1424 292.252 Q33.8959 290.406 32.3363 287.446 Q30.7448 284.486 30.7448 280.253 Q30.7448 279.648 30.8403 278.916 Q30.904 278.184 31.0631 277.293 L37.0787 277.261 Z" fill="#000000" fill-rule="nonzero" fill-opacity="1" /><path clip-path="url(#clip680)" d="M35.7101 258.737 Q35.7101 263.447 39.4022 266.184 Q43.0625 268.922 49.46 268.922 Q55.8575 268.922 59.5497 266.216 Q63.2099 263.479 63.2099 258.737 Q63.2099 254.058 59.5178 251.32 Q55.8257 248.583 49.46 248.583 Q43.1261 248.583 39.434 251.32 Q35.7101 254.058 35.7101 258.737 M30.7448 258.737 Q30.7448 251.098 35.7101 246.737 Q40.6753 242.377 49.46 242.377 Q58.2129 242.377 63.2099 246.737 Q68.1752 251.098 68.1752 258.737 Q68.1752 266.407 63.2099 270.768 Q58.2129 275.096 49.46 275.096 Q40.6753 275.096 35.7101 270.768 Q30.7448 266.407 30.7448 258.737 Z" fill="#000000" fill-rule="nonzero" fill-opacity="1" /><path clip-path="url(#clip680)" d="M37.0151 209.211 L17.727 209.211 L17.727 203.355 L67.2522 203.355 L67.2522 209.211 L61.905 209.211 Q65.0878 211.057 66.6474 213.89 Q68.1752 216.691 68.1752 220.638 Q68.1752 227.099 63.019 231.173 Q57.8627 235.215 49.46 235.215 Q41.0573 235.215 35.9011 231.173 Q30.7448 227.099 30.7448 220.638 Q30.7448 216.691 32.3044 213.89 Q33.8322 211.057 37.0151 209.211 M49.46 229.168 Q55.9212 229.168 59.6133 226.526 Q63.2736 223.852 63.2736 219.205 Q63.2736 214.559 59.6133 211.885 Q55.9212 209.211 49.46 209.211 Q42.9988 209.211 39.3385 211.885 Q35.6464 214.559 35.6464 219.205 Q35.6464 223.852 39.3385 226.526 Q42.9988 229.168 49.46 229.168 Z" fill="#000000" fill-rule="nonzero" fill-opacity="1" /><path clip-path="url(#clip680)" d="M434.499 14.0809 L434.499 22.0612 Q429.84 19.8332 425.709 18.7395 Q421.577 17.6457 417.728 17.6457 Q411.044 17.6457 407.398 20.2383 Q403.793 22.8309 403.793 27.611 Q403.793 31.6214 406.183 33.6873 Q408.614 35.7128 415.338 36.9686 L420.28 37.9813 Q429.435 39.7232 433.77 44.1387 Q438.145 48.5136 438.145 55.8863 Q438.145 64.6767 432.23 69.2137 Q426.357 73.7508 414.974 73.7508 Q410.68 73.7508 405.819 72.7785 Q400.998 71.8063 395.813 69.9024 L395.813 61.4765 Q400.795 64.2716 405.576 65.6895 Q410.356 67.1073 414.974 67.1073 Q421.982 67.1073 425.79 64.3527 Q429.597 61.598 429.597 56.4939 Q429.597 52.0379 426.843 49.5264 Q424.129 47.0148 417.89 45.759 L412.908 44.7868 Q403.753 42.9639 399.661 39.075 Q395.57 35.1862 395.57 28.2591 Q395.57 20.2383 401.201 15.6203 Q406.872 11.0023 416.797 11.0023 Q421.05 11.0023 425.465 11.7719 Q429.881 12.5416 434.499 14.0809 Z" fill="#000000" fill-rule="nonzero" fill-opacity="1" /><path clip-path="url(#clip680)" d="M471.2 49.7694 Q462.167 49.7694 458.683 51.8354 Q455.199 53.9013 455.199 58.8839 Q455.199 62.8538 457.792 65.2034 Q460.425 67.5124 464.921 67.5124 Q471.119 67.5124 474.846 63.1374 Q478.613 58.7219 478.613 51.4303 L478.613 49.7694 L471.2 49.7694 M486.067 46.6907 L486.067 72.576 L478.613 72.576 L478.613 65.6895 Q476.061 69.8214 472.253 71.8063 Q468.446 73.7508 462.936 73.7508 Q455.969 73.7508 451.837 69.8619 Q447.745 65.9325 447.745 59.3701 Q447.745 51.7138 452.85 47.825 Q457.994 43.9361 468.162 43.9361 L478.613 43.9361 L478.613 43.2069 Q478.613 38.0623 475.211 35.2672 Q471.848 32.4315 465.731 32.4315 Q461.843 32.4315 458.156 33.3632 Q454.47 34.295 451.067 36.1584 L451.067 29.2718 Q455.159 27.692 459.007 26.9223 Q462.855 26.1121 466.501 26.1121 Q476.345 26.1121 481.206 31.2163 Q486.067 36.3204 486.067 46.6907 Z" fill="#000000" fill-rule="nonzero" fill-opacity="1" /><path clip-path="url(#clip680)" d="M539.134 45.1919 L539.134 72.576 L531.68 72.576 L531.68 45.4349 Q531.68 38.994 529.169 35.7938 Q526.657 32.5936 521.634 32.5936 Q515.598 32.5936 512.114 36.4419 Q508.631 40.2903 508.631 46.9338 L508.631 72.576 L501.136 72.576 L501.136 27.2059 L508.631 27.2059 L508.631 34.2544 Q511.304 30.163 514.909 28.1376 Q518.555 26.1121 523.295 26.1121 Q531.113 26.1121 535.123 30.9732 Q539.134 35.7938 539.134 45.1919 Z" fill="#000000" fill-rule="nonzero" fill-opacity="1" /><path clip-path="url(#clip680)" d="M550.233 46.5287 L572.068 46.5287 L572.068 53.1722 L550.233 53.1722 L550.233 46.5287 Z" fill="#000000" fill-rule="nonzero" fill-opacity="1" /><path clip-path="url(#clip680)" d="M592.444 18.8205 L592.444 65.8515 L602.328 65.8515 Q614.845 65.8515 620.638 60.1802 Q626.471 54.509 626.471 42.2752 Q626.471 30.1225 620.638 24.4918 Q614.845 18.8205 602.328 18.8205 L592.444 18.8205 M584.261 12.096 L601.072 12.096 Q618.653 12.096 626.876 19.4281 Q635.1 26.7198 635.1 42.2752 Q635.1 57.9117 626.836 65.2439 Q618.572 72.576 601.072 72.576 L584.261 72.576 L584.261 12.096 Z" fill="#000000" fill-rule="nonzero" fill-opacity="1" /><path clip-path="url(#clip680)" d="M647.82 27.2059 L655.273 27.2059 L655.273 72.576 L647.82 72.576 L647.82 27.2059 M647.82 9.54393 L655.273 9.54393 L655.273 18.9825 L647.82 18.9825 L647.82 9.54393 Z" fill="#000000" fill-rule="nonzero" fill-opacity="1" /><path clip-path="url(#clip680)" d="M709.677 48.0275 L709.677 51.6733 L675.406 51.6733 Q675.892 59.3701 680.024 63.421 Q684.197 67.4314 691.61 67.4314 Q695.904 67.4314 699.914 66.3781 Q703.965 65.3249 707.935 63.2184 L707.935 70.267 Q703.925 71.9684 699.712 72.8596 Q695.499 73.7508 691.164 73.7508 Q680.308 73.7508 673.948 67.4314 Q667.629 61.1119 667.629 50.3365 Q667.629 39.1965 673.624 32.6746 Q679.66 26.1121 689.868 26.1121 Q699.023 26.1121 704.33 32.0264 Q709.677 37.9003 709.677 48.0275 M702.223 45.84 Q702.142 39.7232 698.78 36.0774 Q695.458 32.4315 689.949 32.4315 Q683.711 32.4315 679.943 35.9558 Q676.216 39.4801 675.649 45.8805 L702.223 45.84 Z" fill="#000000" fill-rule="nonzero" fill-opacity="1" /><path clip-path="url(#clip680)" d="M751.766 49.3643 Q751.766 41.2625 748.404 36.8065 Q745.082 32.3505 739.046 32.3505 Q733.051 32.3505 729.688 36.8065 Q726.367 41.2625 726.367 49.3643 Q726.367 57.4256 729.688 61.8816 Q733.051 66.3376 739.046 66.3376 Q745.082 66.3376 748.404 61.8816 Q751.766 57.4256 751.766 49.3643 M759.219 66.9452 Q759.219 78.5308 754.075 84.1616 Q748.93 89.8329 738.317 89.8329 Q734.387 89.8329 730.904 89.2252 Q727.42 88.6581 724.139 87.4428 L724.139 80.1917 Q727.42 81.9741 730.62 82.8248 Q733.82 83.6755 737.142 83.6755 Q744.474 83.6755 748.12 79.8271 Q751.766 76.0193 751.766 68.282 L751.766 64.5957 Q749.457 68.6061 745.851 70.5911 Q742.246 72.576 737.223 72.576 Q728.878 72.576 723.774 66.2161 Q718.67 59.8562 718.67 49.3643 Q718.67 38.832 723.774 32.472 Q728.878 26.1121 737.223 26.1121 Q742.246 26.1121 745.851 28.0971 Q749.457 30.082 751.766 34.0924 L751.766 27.2059 L759.219 27.2059 L759.219 66.9452 Z" fill="#000000" fill-rule="nonzero" fill-opacity="1" /><path clip-path="url(#clip680)" d="M792.153 32.4315 Q786.158 32.4315 782.674 37.1306 Q779.19 41.7891 779.19 49.9314 Q779.19 58.0738 782.634 62.7728 Q786.117 67.4314 792.153 67.4314 Q798.108 67.4314 801.592 62.7323 Q805.076 58.0333 805.076 49.9314 Q805.076 41.8701 801.592 37.1711 Q798.108 32.4315 792.153 32.4315 M792.153 26.1121 Q801.875 26.1121 807.425 32.4315 Q812.975 38.7509 812.975 49.9314 Q812.975 61.0714 807.425 67.4314 Q801.875 73.7508 792.153 73.7508 Q782.391 73.7508 776.841 67.4314 Q771.332 61.0714 771.332 49.9314 Q771.332 38.7509 776.841 32.4315 Q782.391 26.1121 792.153 26.1121 Z" fill="#000000" fill-rule="nonzero" fill-opacity="1" /><path clip-path="url(#clip682)" d="M247.912 128.244 L327.104 128.244 L406.295 128.244 L485.486 128.244 L564.677 128.244 L643.868 128.244 L723.059 128.244 L802.25 128.244 L881.441 128.244 L960.632 488.916 L960.632 488.916 L881.441 128.244 L802.25 128.244 L723.059 128.244 L643.868 128.244 L564.677 128.244 L485.486 128.244 L406.295 128.244 L327.104 128.244 L247.912 128.244  Z" fill="#00467f" fill-rule="evenodd" fill-opacity="0.2"/>
<polyline clip-path="url(#clip682)" style="stroke:#00467f; stroke-linecap:round; stroke-linejoin:round; stroke-width:4; stroke-opacity:0; fill:none" points="247.912,128.244 327.104,128.244 406.295,128.244 485.486,128.244 564.677,128.244 643.868,128.244 723.059,128.244 802.25,128.244 881.441,128.244 960.632,488.916 "/>
<path clip-path="url(#clip682)" d="M247.912 128.244 L327.104 128.244 L406.295 128.244 L485.486 128.244 L564.677 128.244 L643.868 128.244 L723.059 128.244 L802.25 128.244 L881.441 128.244 L960.632 488.916 L960.632 488.916 L881.441 128.244 L802.25 128.244 L723.059 128.244 L643.868 128.244 L564.677 128.244 L485.486 128.244 L406.295 128.244 L327.104 128.244 L247.912 128.244  Z" fill="#00467f" fill-rule="evenodd" fill-opacity="0.2"/>
<polyline clip-path="url(#clip682)" style="stroke:#00467f; stroke-linecap:round; stroke-linejoin:round; stroke-width:4; stroke-opacity:0; fill:none" points="247.912,128.244 327.104,128.244 406.295,128.244 485.486,128.244 564.677,128.244 643.868,128.244 723.059,128.244 802.25,128.244 881.441,128.244 960.632,488.916 "/>
<path clip-path="url(#clip682)" d="M247.912 128.244 L327.104 128.244 L406.295 128.244 L485.486 128.244 L564.677 128.244 L643.868 128.244 L723.059 128.244 L802.25 128.244 L881.441 128.244 L960.632 488.916 L960.632 488.916 L881.441 128.244 L802.25 128.244 L723.059 128.244 L643.868 128.244 L564.677 128.244 L485.486 128.244 L406.295 128.244 L327.104 128.244 L247.912 128.244  Z" fill="#00467f" fill-rule="evenodd" fill-opacity="0.2"/>
<polyline clip-path="url(#clip682)" style="stroke:#00467f; stroke-linecap:round; stroke-linejoin:round; stroke-width:4; stroke-opacity:0; fill:none" points="247.912,128.244 327.104,128.244 406.295,128.244 485.486,128.244 564.677,128.244 643.868,128.244 723.059,128.244 802.25,128.244 881.441,128.244 960.632,488.916 "/>
<polyline clip-path="url(#clip682)" style="stroke:#00467f; stroke-linecap:round; stroke-linejoin:round; stroke-width:4; stroke-opacity:1; fill:none" points="247.912,128.244 327.104,128.244 406.295,128.244 485.486,128.244 564.677,128.244 643.868,128.244 723.059,128.244 802.25,128.244 881.441,128.244 960.632,488.916 "/>
<path clip-path="url(#clip680)" d="M1197.27 499.736 L1952.76 499.736 L1952.76 117.424 L1197.27 117.424  Z" fill="#ffffff" fill-rule="evenodd" fill-opacity="1"/>
<defs>
  <clipPath id="clip683">
    <rect x="1197" y="117" width="756" height="383"/>
  </clipPath>
</defs>
<polyline clip-path="url(#clip683)" style="stroke:#000000; stroke-linecap:round; stroke-linejoin:round; stroke-width:2; stroke-opacity:0.1; fill:none" points="1297.85,499.736 1297.85,117.424 "/>
<polyline clip-path="url(#clip683)" style="stroke:#000000; stroke-linecap:round; stroke-linejoin:round; stroke-width:2; stroke-opacity:0.1; fill:none" points="1456.23,499.736 1456.23,117.424 "/>
<polyline clip-path="url(#clip683)" style="stroke:#000000; stroke-linecap:round; stroke-linejoin:round; stroke-width:2; stroke-opacity:0.1; fill:none" points="1614.61,499.736 1614.61,117.424 "/>
<polyline clip-path="url(#clip683)" style="stroke:#000000; stroke-linecap:round; stroke-linejoin:round; stroke-width:2; stroke-opacity:0.1; fill:none" points="1772.99,499.736 1772.99,117.424 "/>
<polyline clip-path="url(#clip683)" style="stroke:#000000; stroke-linecap:round; stroke-linejoin:round; stroke-width:2; stroke-opacity:0.1; fill:none" points="1931.37,499.736 1931.37,117.424 "/>
<polyline clip-path="url(#clip683)" style="stroke:#000000; stroke-linecap:round; stroke-linejoin:round; stroke-width:2; stroke-opacity:0.1; fill:none" points="1197.27,488.916 1952.76,488.916 "/>
<polyline clip-path="url(#clip683)" style="stroke:#000000; stroke-linecap:round; stroke-linejoin:round; stroke-width:2; stroke-opacity:0.1; fill:none" points="1197.27,385.867 1952.76,385.867 "/>
<polyline clip-path="url(#clip683)" style="stroke:#000000; stroke-linecap:round; stroke-linejoin:round; stroke-width:2; stroke-opacity:0.1; fill:none" points="1197.27,282.818 1952.76,282.818 "/>
<polyline clip-path="url(#clip683)" style="stroke:#000000; stroke-linecap:round; stroke-linejoin:round; stroke-width:2; stroke-opacity:0.1; fill:none" points="1197.27,179.769 1952.76,179.769 "/>
<polyline clip-path="url(#clip680)" style="stroke:#000000; stroke-linecap:round; stroke-linejoin:round; stroke-width:4; stroke-opacity:1; fill:none" points="1197.27,499.736 1952.76,499.736 "/>
<polyline clip-path="url(#clip680)" style="stroke:#000000; stroke-linecap:round; stroke-linejoin:round; stroke-width:4; stroke-opacity:1; fill:none" points="1297.85,499.736 1297.85,480.838 "/>
<polyline clip-path="url(#clip680)" style="stroke:#000000; stroke-linecap:round; stroke-linejoin:round; stroke-width:4; stroke-opacity:1; fill:none" points="1456.23,499.736 1456.23,480.838 "/>
<polyline clip-path="url(#clip680)" style="stroke:#000000; stroke-linecap:round; stroke-linejoin:round; stroke-width:4; stroke-opacity:1; fill:none" points="1614.61,499.736 1614.61,480.838 "/>
<polyline clip-path="url(#clip680)" style="stroke:#000000; stroke-linecap:round; stroke-linejoin:round; stroke-width:4; stroke-opacity:1; fill:none" points="1772.99,499.736 1772.99,480.838 "/>
<polyline clip-path="url(#clip680)" style="stroke:#000000; stroke-linecap:round; stroke-linejoin:round; stroke-width:4; stroke-opacity:1; fill:none" points="1931.37,499.736 1931.37,480.838 "/>
<path clip-path="url(#clip680)" d="M1292.5 555.001 L1308.82 555.001 L1308.82 558.936 L1286.87 558.936 L1286.87 555.001 Q1289.54 552.246 1294.12 547.616 Q1298.73 542.964 1299.91 541.621 Q1302.15 539.098 1303.03 537.362 Q1303.93 535.603 1303.93 533.913 Q1303.93 531.158 1301.99 529.422 Q1300.07 527.686 1296.97 527.686 Q1294.77 527.686 1292.31 528.45 Q1289.88 529.214 1287.1 530.765 L1287.1 526.043 Q1289.93 524.908 1292.38 524.33 Q1294.84 523.751 1296.87 523.751 Q1302.24 523.751 1305.44 526.436 Q1308.63 529.121 1308.63 533.612 Q1308.63 535.742 1307.82 537.663 Q1307.04 539.561 1304.93 542.154 Q1304.35 542.825 1301.25 546.042 Q1298.15 549.237 1292.5 555.001 Z" fill="#000000" fill-rule="nonzero" fill-opacity="1" /><path clip-path="url(#clip680)" d="M1459.24 528.45 L1447.43 546.899 L1459.24 546.899 L1459.24 528.45 M1458.01 524.376 L1463.89 524.376 L1463.89 546.899 L1468.82 546.899 L1468.82 550.788 L1463.89 550.788 L1463.89 558.936 L1459.24 558.936 L1459.24 550.788 L1443.64 550.788 L1443.64 546.274 L1458.01 524.376 Z" fill="#000000" fill-rule="nonzero" fill-opacity="1" /><path clip-path="url(#clip680)" d="M1615.02 539.792 Q1611.87 539.792 1610.02 541.945 Q1608.19 544.098 1608.19 547.848 Q1608.19 551.575 1610.02 553.751 Q1611.87 555.903 1615.02 555.903 Q1618.16 555.903 1619.99 553.751 Q1621.84 551.575 1621.84 547.848 Q1621.84 544.098 1619.99 541.945 Q1618.16 539.792 1615.02 539.792 M1624.3 525.14 L1624.3 529.399 Q1622.54 528.566 1620.73 528.126 Q1618.95 527.686 1617.19 527.686 Q1612.56 527.686 1610.11 530.811 Q1607.68 533.936 1607.33 540.255 Q1608.7 538.242 1610.76 537.177 Q1612.82 536.089 1615.29 536.089 Q1620.5 536.089 1623.51 539.26 Q1626.54 542.408 1626.54 547.848 Q1626.54 553.172 1623.39 556.39 Q1620.25 559.607 1615.02 559.607 Q1609.02 559.607 1605.85 555.024 Q1602.68 550.417 1602.68 541.691 Q1602.68 533.496 1606.57 528.635 Q1610.45 523.751 1617.01 523.751 Q1618.76 523.751 1620.55 524.098 Q1622.35 524.445 1624.3 525.14 Z" fill="#000000" fill-rule="nonzero" fill-opacity="1" /><path clip-path="url(#clip680)" d="M1772.99 542.524 Q1769.66 542.524 1767.74 544.306 Q1765.84 546.089 1765.84 549.214 Q1765.84 552.339 1767.74 554.121 Q1769.66 555.903 1772.99 555.903 Q1776.33 555.903 1778.25 554.121 Q1780.17 552.316 1780.17 549.214 Q1780.17 546.089 1778.25 544.306 Q1776.35 542.524 1772.99 542.524 M1768.32 540.533 Q1765.31 539.792 1763.62 537.732 Q1761.95 535.672 1761.95 532.709 Q1761.95 528.566 1764.89 526.158 Q1767.85 523.751 1772.99 523.751 Q1778.15 523.751 1781.09 526.158 Q1784.03 528.566 1784.03 532.709 Q1784.03 535.672 1782.34 537.732 Q1780.68 539.792 1777.69 540.533 Q1781.07 541.32 1782.95 543.612 Q1784.84 545.904 1784.84 549.214 Q1784.84 554.237 1781.77 556.922 Q1778.71 559.607 1772.99 559.607 Q1767.27 559.607 1764.2 556.922 Q1761.14 554.237 1761.14 549.214 Q1761.14 545.904 1763.04 543.612 Q1764.94 541.32 1768.32 540.533 M1766.6 533.149 Q1766.6 535.834 1768.27 537.339 Q1769.96 538.843 1772.99 538.843 Q1776 538.843 1777.69 537.339 Q1779.4 535.834 1779.4 533.149 Q1779.4 530.464 1777.69 528.959 Q1776 527.455 1772.99 527.455 Q1769.96 527.455 1768.27 528.959 Q1766.6 530.464 1766.6 533.149 Z" fill="#000000" fill-rule="nonzero" fill-opacity="1" /><path clip-path="url(#clip680)" d="M1906.06 555.001 L1913.7 555.001 L1913.7 528.635 L1905.39 530.302 L1905.39 526.043 L1913.65 524.376 L1918.33 524.376 L1918.33 555.001 L1925.97 555.001 L1925.97 558.936 L1906.06 558.936 L1906.06 555.001 Z" fill="#000000" fill-rule="nonzero" fill-opacity="1" /><path clip-path="url(#clip680)" d="M1945.41 527.455 Q1941.8 527.455 1939.97 531.019 Q1938.17 534.561 1938.17 541.691 Q1938.17 548.797 1939.97 552.362 Q1941.8 555.903 1945.41 555.903 Q1949.05 555.903 1950.85 552.362 Q1952.68 548.797 1952.68 541.691 Q1952.68 534.561 1950.85 531.019 Q1949.05 527.455 1945.41 527.455 M1945.41 523.751 Q1951.22 523.751 1954.28 528.357 Q1957.36 532.941 1957.36 541.691 Q1957.36 550.417 1954.28 555.024 Q1951.22 559.607 1945.41 559.607 Q1939.6 559.607 1936.52 555.024 Q1933.47 550.417 1933.47 541.691 Q1933.47 532.941 1936.52 528.357 Q1939.6 523.751 1945.41 523.751 Z" fill="#000000" fill-rule="nonzero" fill-opacity="1" /><polyline clip-path="url(#clip680)" style="stroke:#000000; stroke-linecap:round; stroke-linejoin:round; stroke-width:4; stroke-opacity:1; fill:none" points="1197.27,499.736 1197.27,117.424 "/>
<polyline clip-path="url(#clip680)" style="stroke:#000000; stroke-linecap:round; stroke-linejoin:round; stroke-width:4; stroke-opacity:1; fill:none" points="1197.27,488.916 1216.17,488.916 "/>
<polyline clip-path="url(#clip680)" style="stroke:#000000; stroke-linecap:round; stroke-linejoin:round; stroke-width:4; stroke-opacity:1; fill:none" points="1197.27,385.867 1216.17,385.867 "/>
<polyline clip-path="url(#clip680)" style="stroke:#000000; stroke-linecap:round; stroke-linejoin:round; stroke-width:4; stroke-opacity:1; fill:none" points="1197.27,282.818 1216.17,282.818 "/>
<polyline clip-path="url(#clip680)" style="stroke:#000000; stroke-linecap:round; stroke-linejoin:round; stroke-width:4; stroke-opacity:1; fill:none" points="1197.27,179.769 1216.17,179.769 "/>
<path clip-path="url(#clip680)" d="M1155.33 474.714 Q1151.72 474.714 1149.89 478.279 Q1148.08 481.821 1148.08 488.95 Q1148.08 496.057 1149.89 499.622 Q1151.72 503.163 1155.33 503.163 Q1158.96 503.163 1160.77 499.622 Q1162.6 496.057 1162.6 488.95 Q1162.6 481.821 1160.77 478.279 Q1158.96 474.714 1155.33 474.714 M1155.33 471.011 Q1161.14 471.011 1164.19 475.617 Q1167.27 480.2 1167.27 488.95 Q1167.27 497.677 1164.19 502.284 Q1161.14 506.867 1155.33 506.867 Q1149.52 506.867 1146.44 502.284 Q1143.38 497.677 1143.38 488.95 Q1143.38 480.2 1146.44 475.617 Q1149.52 471.011 1155.33 471.011 Z" fill="#000000" fill-rule="nonzero" fill-opacity="1" /><path clip-path="url(#clip680)" d="M1085.81 399.212 L1093.45 399.212 L1093.45 372.846 L1085.14 374.513 L1085.14 370.253 L1093.41 368.587 L1098.08 368.587 L1098.08 399.212 L1105.72 399.212 L1105.72 403.147 L1085.81 403.147 L1085.81 399.212 Z" fill="#000000" fill-rule="nonzero" fill-opacity="1" /><path clip-path="url(#clip680)" d="M1125.17 371.665 Q1121.56 371.665 1119.73 375.23 Q1117.92 378.772 1117.92 385.901 Q1117.92 393.008 1119.73 396.573 Q1121.56 400.114 1125.17 400.114 Q1128.8 400.114 1130.61 396.573 Q1132.44 393.008 1132.44 385.901 Q1132.44 378.772 1130.61 375.23 Q1128.8 371.665 1125.17 371.665 M1125.17 367.962 Q1130.98 367.962 1134.03 372.568 Q1137.11 377.152 1137.11 385.901 Q1137.11 394.628 1134.03 399.235 Q1130.98 403.818 1125.17 403.818 Q1119.36 403.818 1116.28 399.235 Q1113.22 394.628 1113.22 385.901 Q1113.22 377.152 1116.28 372.568 Q1119.36 367.962 1125.17 367.962 Z" fill="#000000" fill-rule="nonzero" fill-opacity="1" /><path clip-path="url(#clip680)" d="M1155.33 371.665 Q1151.72 371.665 1149.89 375.23 Q1148.08 378.772 1148.08 385.901 Q1148.08 393.008 1149.89 396.573 Q1151.72 400.114 1155.33 400.114 Q1158.96 400.114 1160.77 396.573 Q1162.6 393.008 1162.6 385.901 Q1162.6 378.772 1160.77 375.23 Q1158.96 371.665 1155.33 371.665 M1155.33 367.962 Q1161.14 367.962 1164.19 372.568 Q1167.27 377.152 1167.27 385.901 Q1167.27 394.628 1164.19 399.235 Q1161.14 403.818 1155.33 403.818 Q1149.52 403.818 1146.44 399.235 Q1143.38 394.628 1143.38 385.901 Q1143.38 377.152 1146.44 372.568 Q1149.52 367.962 1155.33 367.962 Z" fill="#000000" fill-rule="nonzero" fill-opacity="1" /><path clip-path="url(#clip680)" d="M1089.03 296.163 L1105.35 296.163 L1105.35 300.098 L1083.41 300.098 L1083.41 296.163 Q1086.07 293.408 1090.65 288.778 Q1095.26 284.126 1096.44 282.783 Q1098.69 280.26 1099.56 278.524 Q1100.47 276.765 1100.47 275.075 Q1100.47 272.32 1098.52 270.584 Q1096.6 268.848 1093.5 268.848 Q1091.3 268.848 1088.85 269.612 Q1086.42 270.376 1083.64 271.927 L1083.64 267.204 Q1086.46 266.07 1088.92 265.491 Q1091.37 264.913 1093.41 264.913 Q1098.78 264.913 1101.97 267.598 Q1105.17 270.283 1105.17 274.774 Q1105.17 276.903 1104.36 278.825 Q1103.57 280.723 1101.46 283.315 Q1100.88 283.987 1097.78 287.204 Q1094.68 290.399 1089.03 296.163 Z" fill="#000000" fill-rule="nonzero" fill-opacity="1" /><path clip-path="url(#clip680)" d="M1125.17 268.616 Q1121.56 268.616 1119.73 272.181 Q1117.92 275.723 1117.92 282.852 Q1117.92 289.959 1119.73 293.524 Q1121.56 297.065 1125.17 297.065 Q1128.8 297.065 1130.61 293.524 Q1132.44 289.959 1132.44 282.852 Q1132.44 275.723 1130.61 272.181 Q1128.8 268.616 1125.17 268.616 M1125.17 264.913 Q1130.98 264.913 1134.03 269.519 Q1137.11 274.103 1137.11 282.852 Q1137.11 291.579 1134.03 296.186 Q1130.98 300.769 1125.17 300.769 Q1119.36 300.769 1116.28 296.186 Q1113.22 291.579 1113.22 282.852 Q1113.22 274.103 1116.28 269.519 Q1119.36 264.913 1125.17 264.913 Z" fill="#000000" fill-rule="nonzero" fill-opacity="1" /><path clip-path="url(#clip680)" d="M1155.33 268.616 Q1151.72 268.616 1149.89 272.181 Q1148.08 275.723 1148.08 282.852 Q1148.08 289.959 1149.89 293.524 Q1151.72 297.065 1155.33 297.065 Q1158.96 297.065 1160.77 293.524 Q1162.6 289.959 1162.6 282.852 Q1162.6 275.723 1160.77 272.181 Q1158.96 268.616 1155.33 268.616 M1155.33 264.913 Q1161.14 264.913 1164.19 269.519 Q1167.27 274.103 1167.27 282.852 Q1167.27 291.579 1164.19 296.186 Q1161.14 300.769 1155.33 300.769 Q1149.52 300.769 1146.44 296.186 Q1143.38 291.579 1143.38 282.852 Q1143.38 274.103 1146.44 269.519 Q1149.52 264.913 1155.33 264.913 Z" fill="#000000" fill-rule="nonzero" fill-opacity="1" /><path clip-path="url(#clip680)" d="M1099.17 178.415 Q1102.53 179.132 1104.4 181.401 Q1106.3 183.669 1106.3 187.003 Q1106.3 192.118 1102.78 194.919 Q1099.26 197.72 1092.78 197.72 Q1090.61 197.72 1088.29 197.28 Q1086 196.864 1083.55 196.007 L1083.55 191.493 Q1085.49 192.627 1087.81 193.206 Q1090.12 193.785 1092.64 193.785 Q1097.04 193.785 1099.33 192.049 Q1101.65 190.313 1101.65 187.003 Q1101.65 183.947 1099.5 182.234 Q1097.37 180.498 1093.55 180.498 L1089.52 180.498 L1089.52 176.655 L1093.73 176.655 Q1097.18 176.655 1099.01 175.29 Q1100.84 173.901 1100.84 171.308 Q1100.84 168.646 1098.94 167.234 Q1097.06 165.799 1093.55 165.799 Q1091.63 165.799 1089.43 166.216 Q1087.23 166.632 1084.59 167.512 L1084.59 163.345 Q1087.25 162.605 1089.56 162.234 Q1091.9 161.864 1093.96 161.864 Q1099.29 161.864 1102.39 164.294 Q1105.49 166.702 1105.49 170.822 Q1105.49 173.692 1103.85 175.683 Q1102.2 177.651 1099.17 178.415 Z" fill="#000000" fill-rule="nonzero" fill-opacity="1" /><path clip-path="url(#clip680)" d="M1125.17 165.567 Q1121.56 165.567 1119.73 169.132 Q1117.92 172.674 1117.92 179.803 Q1117.92 186.91 1119.73 190.475 Q1121.56 194.016 1125.17 194.016 Q1128.8 194.016 1130.61 190.475 Q1132.44 186.91 1132.44 179.803 Q1132.44 172.674 1130.61 169.132 Q1128.8 165.567 1125.17 165.567 M1125.17 161.864 Q1130.98 161.864 1134.03 166.47 Q1137.11 171.054 1137.11 179.803 Q1137.11 188.53 1134.03 193.137 Q1130.98 197.72 1125.17 197.72 Q1119.36 197.72 1116.28 193.137 Q1113.22 188.53 1113.22 179.803 Q1113.22 171.054 1116.28 166.47 Q1119.36 161.864 1125.17 161.864 Z" fill="#000000" fill-rule="nonzero" fill-opacity="1" /><path clip-path="url(#clip680)" d="M1155.33 165.567 Q1151.72 165.567 1149.89 169.132 Q1148.08 172.674 1148.08 179.803 Q1148.08 186.91 1149.89 190.475 Q1151.72 194.016 1155.33 194.016 Q1158.96 194.016 1160.77 190.475 Q1162.6 186.91 1162.6 179.803 Q1162.6 172.674 1160.77 169.132 Q1158.96 165.567 1155.33 165.567 M1155.33 161.864 Q1161.14 161.864 1164.19 166.47 Q1167.27 171.054 1167.27 179.803 Q1167.27 188.53 1164.19 193.137 Q1161.14 197.72 1155.33 197.72 Q1149.52 197.72 1146.44 193.137 Q1143.38 188.53 1143.38 179.803 Q1143.38 171.054 1146.44 166.47 Q1149.52 161.864 1155.33 161.864 Z" fill="#000000" fill-rule="nonzero" fill-opacity="1" /><path clip-path="url(#clip680)" d="M1472.04 14.0809 L1472.04 22.0612 Q1467.38 19.8332 1463.25 18.7395 Q1459.12 17.6457 1455.27 17.6457 Q1448.59 17.6457 1444.94 20.2383 Q1441.33 22.8309 1441.33 27.611 Q1441.33 31.6214 1443.72 33.6873 Q1446.16 35.7128 1452.88 36.9686 L1457.82 37.9813 Q1466.98 39.7232 1471.31 44.1387 Q1475.69 48.5136 1475.69 55.8863 Q1475.69 64.6767 1469.77 69.2137 Q1463.9 73.7508 1452.52 73.7508 Q1448.22 73.7508 1443.36 72.7785 Q1438.54 71.8063 1433.35 69.9024 L1433.35 61.4765 Q1438.34 64.2716 1443.12 65.6895 Q1447.9 67.1073 1452.52 67.1073 Q1459.52 67.1073 1463.33 64.3527 Q1467.14 61.598 1467.14 56.4939 Q1467.14 52.0379 1464.38 49.5264 Q1461.67 47.0148 1455.43 45.759 L1450.45 44.7868 Q1441.29 42.9639 1437.2 39.075 Q1433.11 35.1862 1433.11 28.2591 Q1433.11 20.2383 1438.74 15.6203 Q1444.41 11.0023 1454.34 11.0023 Q1458.59 11.0023 1463.01 11.7719 Q1467.42 12.5416 1472.04 14.0809 Z" fill="#000000" fill-rule="nonzero" fill-opacity="1" /><path clip-path="url(#clip680)" d="M1526.93 48.0275 L1526.93 51.6733 L1492.66 51.6733 Q1493.15 59.3701 1497.28 63.421 Q1501.45 67.4314 1508.86 67.4314 Q1513.16 67.4314 1517.17 66.3781 Q1521.22 65.3249 1525.19 63.2184 L1525.19 70.267 Q1521.18 71.9684 1516.96 72.8596 Q1512.75 73.7508 1508.42 73.7508 Q1497.56 73.7508 1491.2 67.4314 Q1484.88 61.1119 1484.88 50.3365 Q1484.88 39.1965 1490.88 32.6746 Q1496.91 26.1121 1507.12 26.1121 Q1516.28 26.1121 1521.58 32.0264 Q1526.93 37.9003 1526.93 48.0275 M1519.48 45.84 Q1519.4 39.7232 1516.03 36.0774 Q1512.71 32.4315 1507.2 32.4315 Q1500.96 32.4315 1497.2 35.9558 Q1493.47 39.4801 1492.9 45.8805 L1519.48 45.84 Z" fill="#000000" fill-rule="nonzero" fill-opacity="1" /><path clip-path="url(#clip680)" d="M1559.78 49.7694 Q1550.75 49.7694 1547.27 51.8354 Q1543.78 53.9013 1543.78 58.8839 Q1543.78 62.8538 1546.37 65.2034 Q1549.01 67.5124 1553.5 67.5124 Q1559.7 67.5124 1563.43 63.1374 Q1567.2 58.7219 1567.2 51.4303 L1567.2 49.7694 L1559.78 49.7694 M1574.65 46.6907 L1574.65 72.576 L1567.2 72.576 L1567.2 65.6895 Q1564.64 69.8214 1560.84 71.8063 Q1557.03 73.7508 1551.52 73.7508 Q1544.55 73.7508 1540.42 69.8619 Q1536.33 65.9325 1536.33 59.3701 Q1536.33 51.7138 1541.43 47.825 Q1546.58 43.9361 1556.74 43.9361 L1567.2 43.9361 L1567.2 43.2069 Q1567.2 38.0623 1563.79 35.2672 Q1560.43 32.4315 1554.31 32.4315 Q1550.43 32.4315 1546.74 33.3632 Q1543.05 34.295 1539.65 36.1584 L1539.65 29.2718 Q1543.74 27.692 1547.59 26.9223 Q1551.44 26.1121 1555.08 26.1121 Q1564.93 26.1121 1569.79 31.2163 Q1574.65 36.3204 1574.65 46.6907 Z" fill="#000000" fill-rule="nonzero" fill-opacity="1" /><path clip-path="url(#clip680)" d="M1597.38 14.324 L1597.38 27.2059 L1612.73 27.2059 L1612.73 32.9987 L1597.38 32.9987 L1597.38 57.6282 Q1597.38 63.1779 1598.87 64.7578 Q1600.41 66.3376 1605.07 66.3376 L1612.73 66.3376 L1612.73 72.576 L1605.07 72.576 Q1596.44 72.576 1593.16 69.3758 Q1589.88 66.1351 1589.88 57.6282 L1589.88 32.9987 L1584.41 32.9987 L1584.41 27.2059 L1589.88 27.2059 L1589.88 14.324 L1597.38 14.324 Z" fill="#000000" fill-rule="nonzero" fill-opacity="1" /><path clip-path="url(#clip680)" d="M1629.9 14.324 L1629.9 27.2059 L1645.26 27.2059 L1645.26 32.9987 L1629.9 32.9987 L1629.9 57.6282 Q1629.9 63.1779 1631.4 64.7578 Q1632.94 66.3376 1637.6 66.3376 L1645.26 66.3376 L1645.26 72.576 L1637.6 72.576 Q1628.97 72.576 1625.69 69.3758 Q1622.41 66.1351 1622.41 57.6282 L1622.41 32.9987 L1616.94 32.9987 L1616.94 27.2059 L1622.41 27.2059 L1622.41 14.324 L1629.9 14.324 Z" fill="#000000" fill-rule="nonzero" fill-opacity="1" /><path clip-path="url(#clip680)" d="M1655.06 9.54393 L1662.51 9.54393 L1662.51 72.576 L1655.06 72.576 L1655.06 9.54393 Z" fill="#000000" fill-rule="nonzero" fill-opacity="1" /><path clip-path="url(#clip680)" d="M1716.92 48.0275 L1716.92 51.6733 L1682.65 51.6733 Q1683.13 59.3701 1687.26 63.421 Q1691.44 67.4314 1698.85 67.4314 Q1703.14 67.4314 1707.15 66.3781 Q1711.21 65.3249 1715.18 63.2184 L1715.18 70.267 Q1711.17 71.9684 1706.95 72.8596 Q1702.74 73.7508 1698.4 73.7508 Q1687.55 73.7508 1681.19 67.4314 Q1674.87 61.1119 1674.87 50.3365 Q1674.87 39.1965 1680.86 32.6746 Q1686.9 26.1121 1697.11 26.1121 Q1706.26 26.1121 1711.57 32.0264 Q1716.92 37.9003 1716.92 48.0275 M1709.46 45.84 Q1709.38 39.7232 1706.02 36.0774 Q1702.7 32.4315 1697.19 32.4315 Q1690.95 32.4315 1687.18 35.9558 Q1683.46 39.4801 1682.89 45.8805 L1709.46 45.84 Z" fill="#000000" fill-rule="nonzero" fill-opacity="1" /><path clip-path="url(#clip683)" d="M1218.65 128.244 L1297.85 128.244 L1377.04 128.244 L1456.23 187.564 L1535.42 311.764 L1614.61 370.238 L1693.8 334.613 L1772.99 416.781 L1852.18 416.781 L1931.37 488.916 L1931.37 488.916 L1852.18 128.244 L1772.99 128.244 L1693.8 128.244 L1614.61 128.244 L1535.42 128.244 L1456.23 128.244 L1377.04 128.244 L1297.85 128.244 L1218.65 128.244  Z" fill="#00467f" fill-rule="evenodd" fill-opacity="0.2"/>
<polyline clip-path="url(#clip683)" style="stroke:#00467f; stroke-linecap:round; stroke-linejoin:round; stroke-width:4; stroke-opacity:0; fill:none" points="1218.65,128.244 1297.85,128.244 1377.04,128.244 1456.23,157.904 1535.42,220.004 1614.61,249.241 1693.8,231.429 1772.99,272.513 1852.18,272.513 1931.37,488.916 "/>
<path clip-path="url(#clip683)" d="M1218.65 128.244 L1297.85 128.244 L1377.04 128.244 L1456.23 130.054 L1535.42 128.244 L1614.61 241.39 L1693.8 289.961 L1772.99 355.983 L1852.18 396.172 L1931.37 488.916 L1931.37 488.916 L1852.18 128.244 L1772.99 128.244 L1693.8 128.244 L1614.61 128.244 L1535.42 128.244 L1456.23 128.244 L1377.04 128.244 L1297.85 128.244 L1218.65 128.244  Z" fill="#00467f" fill-rule="evenodd" fill-opacity="0.2"/>
<polyline clip-path="url(#clip683)" style="stroke:#00467f; stroke-linecap:round; stroke-linejoin:round; stroke-width:4; stroke-opacity:0; fill:none" points="1218.65,128.244 1297.85,128.244 1377.04,128.244 1456.23,129.149 1535.42,128.244 1614.61,184.817 1693.8,209.103 1772.99,242.113 1852.18,262.208 1931.37,488.916 "/>
<path clip-path="url(#clip683)" d="M1218.65 128.244 L1297.85 128.244 L1377.04 128.244 L1456.23 128.244 L1535.42 128.244 L1614.61 175.678 L1693.8 184.921 L1772.99 314.003 L1852.18 396.172 L1931.37 488.916 L1931.37 488.916 L1852.18 135.973 L1772.99 128.244 L1693.8 128.244 L1614.61 128.244 L1535.42 128.244 L1456.23 128.244 L1377.04 128.244 L1297.85 128.244 L1218.65 128.244  Z" fill="#00467f" fill-rule="evenodd" fill-opacity="0.2"/>
<polyline clip-path="url(#clip683)" style="stroke:#00467f; stroke-linecap:round; stroke-linejoin:round; stroke-width:4; stroke-opacity:0; fill:none" points="1218.65,128.244 1297.85,128.244 1377.04,128.244 1456.23,128.244 1535.42,128.244 1614.61,151.961 1693.8,156.583 1772.99,221.124 1852.18,266.072 1931.37,488.916 "/>
<polyline clip-path="url(#clip683)" style="stroke:#00467f; stroke-linecap:round; stroke-linejoin:round; stroke-width:4; stroke-opacity:1; fill:none" points="1218.65,128.244 1297.85,128.244 1377.04,128.244 1456.23,128.244 1535.42,128.244 1614.61,128.244 1693.8,128.244 1772.99,200.379 1852.18,293.123 1931.37,488.916 "/>
<path clip-path="url(#clip680)" d="M226.531 1035.39 L982.014 1035.39 L982.014 653.076 L226.531 653.076  Z" fill="#ffffff" fill-rule="evenodd" fill-opacity="1"/>
<defs>
  <clipPath id="clip684">
    <rect x="226" y="653" width="756" height="383"/>
  </clipPath>
</defs>
<polyline clip-path="url(#clip684)" style="stroke:#000000; stroke-linecap:round; stroke-linejoin:round; stroke-width:2; stroke-opacity:0.1; fill:none" points="327.104,1035.39 327.104,653.076 "/>
<polyline clip-path="url(#clip684)" style="stroke:#000000; stroke-linecap:round; stroke-linejoin:round; stroke-width:2; stroke-opacity:0.1; fill:none" points="485.486,1035.39 485.486,653.076 "/>
<polyline clip-path="url(#clip684)" style="stroke:#000000; stroke-linecap:round; stroke-linejoin:round; stroke-width:2; stroke-opacity:0.1; fill:none" points="643.868,1035.39 643.868,653.076 "/>
<polyline clip-path="url(#clip684)" style="stroke:#000000; stroke-linecap:round; stroke-linejoin:round; stroke-width:2; stroke-opacity:0.1; fill:none" points="802.25,1035.39 802.25,653.076 "/>
<polyline clip-path="url(#clip684)" style="stroke:#000000; stroke-linecap:round; stroke-linejoin:round; stroke-width:2; stroke-opacity:0.1; fill:none" points="960.632,1035.39 960.632,653.076 "/>
<polyline clip-path="url(#clip684)" style="stroke:#000000; stroke-linecap:round; stroke-linejoin:round; stroke-width:2; stroke-opacity:0.1; fill:none" points="226.531,1024.57 982.014,1024.57 "/>
<polyline clip-path="url(#clip684)" style="stroke:#000000; stroke-linecap:round; stroke-linejoin:round; stroke-width:2; stroke-opacity:0.1; fill:none" points="226.531,918.488 982.014,918.488 "/>
<polyline clip-path="url(#clip684)" style="stroke:#000000; stroke-linecap:round; stroke-linejoin:round; stroke-width:2; stroke-opacity:0.1; fill:none" points="226.531,812.408 982.014,812.408 "/>
<polyline clip-path="url(#clip684)" style="stroke:#000000; stroke-linecap:round; stroke-linejoin:round; stroke-width:2; stroke-opacity:0.1; fill:none" points="226.531,706.328 982.014,706.328 "/>
<polyline clip-path="url(#clip680)" style="stroke:#000000; stroke-linecap:round; stroke-linejoin:round; stroke-width:4; stroke-opacity:1; fill:none" points="226.531,1035.39 982.014,1035.39 "/>
<polyline clip-path="url(#clip680)" style="stroke:#000000; stroke-linecap:round; stroke-linejoin:round; stroke-width:4; stroke-opacity:1; fill:none" points="327.104,1035.39 327.104,1016.49 "/>
<polyline clip-path="url(#clip680)" style="stroke:#000000; stroke-linecap:round; stroke-linejoin:round; stroke-width:4; stroke-opacity:1; fill:none" points="485.486,1035.39 485.486,1016.49 "/>
<polyline clip-path="url(#clip680)" style="stroke:#000000; stroke-linecap:round; stroke-linejoin:round; stroke-width:4; stroke-opacity:1; fill:none" points="643.868,1035.39 643.868,1016.49 "/>
<polyline clip-path="url(#clip680)" style="stroke:#000000; stroke-linecap:round; stroke-linejoin:round; stroke-width:4; stroke-opacity:1; fill:none" points="802.25,1035.39 802.25,1016.49 "/>
<polyline clip-path="url(#clip680)" style="stroke:#000000; stroke-linecap:round; stroke-linejoin:round; stroke-width:4; stroke-opacity:1; fill:none" points="960.632,1035.39 960.632,1016.49 "/>
<path clip-path="url(#clip680)" d="M321.756 1090.65 L338.076 1090.65 L338.076 1094.59 L316.131 1094.59 L316.131 1090.65 Q318.793 1087.9 323.377 1083.27 Q327.983 1078.62 329.164 1077.27 Q331.409 1074.75 332.289 1073.01 Q333.191 1071.25 333.191 1069.56 Q333.191 1066.81 331.247 1065.07 Q329.326 1063.34 326.224 1063.34 Q324.025 1063.34 321.571 1064.1 Q319.141 1064.87 316.363 1066.42 L316.363 1061.69 Q319.187 1060.56 321.641 1059.98 Q324.094 1059.4 326.131 1059.4 Q331.502 1059.4 334.696 1062.09 Q337.891 1064.77 337.891 1069.26 Q337.891 1071.39 337.08 1073.31 Q336.293 1075.21 334.187 1077.81 Q333.608 1078.48 330.506 1081.69 Q327.404 1084.89 321.756 1090.65 Z" fill="#000000" fill-rule="nonzero" fill-opacity="1" /><path clip-path="url(#clip680)" d="M488.495 1064.1 L476.689 1082.55 L488.495 1082.55 L488.495 1064.1 M487.268 1060.03 L493.148 1060.03 L493.148 1082.55 L498.078 1082.55 L498.078 1086.44 L493.148 1086.44 L493.148 1094.59 L488.495 1094.59 L488.495 1086.44 L472.893 1086.44 L472.893 1081.93 L487.268 1060.03 Z" fill="#000000" fill-rule="nonzero" fill-opacity="1" /><path clip-path="url(#clip680)" d="M644.273 1075.44 Q641.125 1075.44 639.273 1077.6 Q637.444 1079.75 637.444 1083.5 Q637.444 1087.23 639.273 1089.4 Q641.125 1091.56 644.273 1091.56 Q647.421 1091.56 649.25 1089.4 Q651.102 1087.23 651.102 1083.5 Q651.102 1079.75 649.25 1077.6 Q647.421 1075.44 644.273 1075.44 M653.555 1060.79 L653.555 1065.05 Q651.796 1064.22 649.991 1063.78 Q648.208 1063.34 646.449 1063.34 Q641.819 1063.34 639.366 1066.46 Q636.935 1069.59 636.588 1075.91 Q637.954 1073.89 640.014 1072.83 Q642.074 1071.74 644.551 1071.74 Q649.759 1071.74 652.768 1074.91 Q655.801 1078.06 655.801 1083.5 Q655.801 1088.82 652.653 1092.04 Q649.504 1095.26 644.273 1095.26 Q638.278 1095.26 635.106 1090.68 Q631.935 1086.07 631.935 1077.34 Q631.935 1069.15 635.824 1064.29 Q639.713 1059.4 646.264 1059.4 Q648.023 1059.4 649.805 1059.75 Q651.611 1060.1 653.555 1060.79 Z" fill="#000000" fill-rule="nonzero" fill-opacity="1" /><path clip-path="url(#clip680)" d="M802.25 1078.18 Q798.917 1078.18 796.996 1079.96 Q795.097 1081.74 795.097 1084.87 Q795.097 1087.99 796.996 1089.77 Q798.917 1091.56 802.25 1091.56 Q805.583 1091.56 807.505 1089.77 Q809.426 1087.97 809.426 1084.87 Q809.426 1081.74 807.505 1079.96 Q805.607 1078.18 802.25 1078.18 M797.574 1076.19 Q794.565 1075.44 792.875 1073.38 Q791.209 1071.32 791.209 1068.36 Q791.209 1064.22 794.148 1061.81 Q797.111 1059.4 802.25 1059.4 Q807.412 1059.4 810.352 1061.81 Q813.292 1064.22 813.292 1068.36 Q813.292 1071.32 811.602 1073.38 Q809.935 1075.44 806.949 1076.19 Q810.329 1076.97 812.204 1079.26 Q814.102 1081.56 814.102 1084.87 Q814.102 1089.89 811.023 1092.57 Q807.968 1095.26 802.25 1095.26 Q796.533 1095.26 793.454 1092.57 Q790.398 1089.89 790.398 1084.87 Q790.398 1081.56 792.296 1079.26 Q794.195 1076.97 797.574 1076.19 M795.861 1068.8 Q795.861 1071.49 797.528 1072.99 Q799.218 1074.5 802.25 1074.5 Q805.259 1074.5 806.949 1072.99 Q808.662 1071.49 808.662 1068.8 Q808.662 1066.12 806.949 1064.61 Q805.259 1063.11 802.25 1063.11 Q799.218 1063.11 797.528 1064.61 Q795.861 1066.12 795.861 1068.8 Z" fill="#000000" fill-rule="nonzero" fill-opacity="1" /><path clip-path="url(#clip680)" d="M935.32 1090.65 L942.959 1090.65 L942.959 1064.29 L934.649 1065.95 L934.649 1061.69 L942.913 1060.03 L947.588 1060.03 L947.588 1090.65 L955.227 1090.65 L955.227 1094.59 L935.32 1094.59 L935.32 1090.65 Z" fill="#000000" fill-rule="nonzero" fill-opacity="1" /><path clip-path="url(#clip680)" d="M974.672 1063.11 Q971.061 1063.11 969.232 1066.67 Q967.426 1070.21 967.426 1077.34 Q967.426 1084.45 969.232 1088.01 Q971.061 1091.56 974.672 1091.56 Q978.306 1091.56 980.111 1088.01 Q981.94 1084.45 981.94 1077.34 Q981.94 1070.21 980.111 1066.67 Q978.306 1063.11 974.672 1063.11 M974.672 1059.4 Q980.482 1059.4 983.537 1064.01 Q986.616 1068.59 986.616 1077.34 Q986.616 1086.07 983.537 1090.68 Q980.482 1095.26 974.672 1095.26 Q968.861 1095.26 965.783 1090.68 Q962.727 1086.07 962.727 1077.34 Q962.727 1068.59 965.783 1064.01 Q968.861 1059.4 974.672 1059.4 Z" fill="#000000" fill-rule="nonzero" fill-opacity="1" /><path clip-path="url(#clip680)" d="M516.155 1126.73 L522.648 1126.73 L532.642 1166.9 L542.605 1126.73 L549.83 1126.73 L559.824 1166.9 L569.786 1126.73 L576.311 1126.73 L564.375 1174.25 L556.291 1174.25 L546.265 1133 L536.143 1174.25 L528.059 1174.25 L516.155 1126.73 Z" fill="#000000" fill-rule="nonzero" fill-opacity="1" /><path clip-path="url(#clip680)" d="M611.259 1154.96 L611.259 1157.83 L584.332 1157.83 Q584.714 1163.88 587.96 1167.06 Q591.239 1170.21 597.063 1170.21 Q600.437 1170.21 603.588 1169.38 Q606.771 1168.55 609.89 1166.9 L609.89 1172.44 Q606.739 1173.77 603.429 1174.47 Q600.119 1175.17 596.713 1175.17 Q588.183 1175.17 583.186 1170.21 Q578.221 1165.24 578.221 1156.78 Q578.221 1148.03 582.931 1142.9 Q587.674 1137.74 595.695 1137.74 Q602.888 1137.74 607.057 1142.39 Q611.259 1147.01 611.259 1154.96 M605.402 1153.25 Q605.339 1148.44 602.697 1145.57 Q600.087 1142.71 595.758 1142.71 Q590.857 1142.71 587.897 1145.48 Q584.968 1148.25 584.523 1153.28 L605.402 1153.25 Z" fill="#000000" fill-rule="nonzero" fill-opacity="1" /><path clip-path="url(#clip680)" d="M651.363 1154.96 L651.363 1157.83 L624.436 1157.83 Q624.818 1163.88 628.064 1167.06 Q631.343 1170.21 637.167 1170.21 Q640.541 1170.21 643.692 1169.38 Q646.875 1168.55 649.994 1166.9 L649.994 1172.44 Q646.843 1173.77 643.533 1174.47 Q640.223 1175.17 636.817 1175.17 Q628.287 1175.17 623.29 1170.21 Q618.325 1165.24 618.325 1156.78 Q618.325 1148.03 623.035 1142.9 Q627.778 1137.74 635.799 1137.74 Q642.992 1137.74 647.161 1142.39 Q651.363 1147.01 651.363 1154.96 M645.506 1153.25 Q645.443 1148.44 642.801 1145.57 Q640.191 1142.71 635.862 1142.71 Q630.961 1142.71 628.001 1145.48 Q625.072 1148.25 624.627 1153.28 L645.506 1153.25 Z" fill="#000000" fill-rule="nonzero" fill-opacity="1" /><path clip-path="url(#clip680)" d="M660.752 1124.73 L666.64 1124.73 L666.64 1153.98 L684.114 1138.6 L691.594 1138.6 L672.688 1155.28 L692.39 1174.25 L684.751 1174.25 L666.64 1156.84 L666.64 1174.25 L660.752 1174.25 L660.752 1124.73 Z" fill="#000000" fill-rule="nonzero" fill-opacity="1" /><polyline clip-path="url(#clip680)" style="stroke:#000000; stroke-linecap:round; stroke-linejoin:round; stroke-width:4; stroke-opacity:1; fill:none" points="226.531,1035.39 226.531,653.076 "/>
<polyline clip-path="url(#clip680)" style="stroke:#000000; stroke-linecap:round; stroke-linejoin:round; stroke-width:4; stroke-opacity:1; fill:none" points="226.531,1024.57 245.428,1024.57 "/>
<polyline clip-path="url(#clip680)" style="stroke:#000000; stroke-linecap:round; stroke-linejoin:round; stroke-width:4; stroke-opacity:1; fill:none" points="226.531,918.488 245.428,918.488 "/>
<polyline clip-path="url(#clip680)" style="stroke:#000000; stroke-linecap:round; stroke-linejoin:round; stroke-width:4; stroke-opacity:1; fill:none" points="226.531,812.408 245.428,812.408 "/>
<polyline clip-path="url(#clip680)" style="stroke:#000000; stroke-linecap:round; stroke-linejoin:round; stroke-width:4; stroke-opacity:1; fill:none" points="226.531,706.328 245.428,706.328 "/>
<path clip-path="url(#clip680)" d="M184.586 1010.37 Q180.975 1010.37 179.147 1013.93 Q177.341 1017.47 177.341 1024.6 Q177.341 1031.71 179.147 1035.27 Q180.975 1038.82 184.586 1038.82 Q188.221 1038.82 190.026 1035.27 Q191.855 1031.71 191.855 1024.6 Q191.855 1017.47 190.026 1013.93 Q188.221 1010.37 184.586 1010.37 M184.586 1006.66 Q190.397 1006.66 193.452 1011.27 Q196.531 1015.85 196.531 1024.6 Q196.531 1033.33 193.452 1037.94 Q190.397 1042.52 184.586 1042.52 Q178.776 1042.52 175.698 1037.94 Q172.642 1033.33 172.642 1024.6 Q172.642 1015.85 175.698 1011.27 Q178.776 1006.66 184.586 1006.66 Z" fill="#000000" fill-rule="nonzero" fill-opacity="1" /><path clip-path="url(#clip680)" d="M118.291 931.833 L134.61 931.833 L134.61 935.768 L112.666 935.768 L112.666 931.833 Q115.328 929.078 119.911 924.448 Q124.517 919.796 125.698 918.453 Q127.943 915.93 128.823 914.194 Q129.726 912.435 129.726 910.745 Q129.726 907.99 127.781 906.254 Q125.86 904.518 122.758 904.518 Q120.559 904.518 118.105 905.282 Q115.675 906.046 112.897 907.597 L112.897 902.875 Q115.721 901.74 118.175 901.162 Q120.628 900.583 122.666 900.583 Q128.036 900.583 131.23 903.268 Q134.425 905.953 134.425 910.444 Q134.425 912.574 133.615 914.495 Q132.827 916.393 130.721 918.986 Q130.142 919.657 127.04 922.874 Q123.939 926.069 118.291 931.833 Z" fill="#000000" fill-rule="nonzero" fill-opacity="1" /><path clip-path="url(#clip680)" d="M154.425 904.287 Q150.814 904.287 148.985 907.851 Q147.179 911.393 147.179 918.523 Q147.179 925.629 148.985 929.194 Q150.814 932.735 154.425 932.735 Q158.059 932.735 159.864 929.194 Q161.693 925.629 161.693 918.523 Q161.693 911.393 159.864 907.851 Q158.059 904.287 154.425 904.287 M154.425 900.583 Q160.235 900.583 163.29 905.189 Q166.369 909.773 166.369 918.523 Q166.369 927.249 163.29 931.856 Q160.235 936.439 154.425 936.439 Q148.614 936.439 145.536 931.856 Q142.48 927.249 142.48 918.523 Q142.48 909.773 145.536 905.189 Q148.614 900.583 154.425 900.583 Z" fill="#000000" fill-rule="nonzero" fill-opacity="1" /><path clip-path="url(#clip680)" d="M184.586 904.287 Q180.975 904.287 179.147 907.851 Q177.341 911.393 177.341 918.523 Q177.341 925.629 179.147 929.194 Q180.975 932.735 184.586 932.735 Q188.221 932.735 190.026 929.194 Q191.855 925.629 191.855 918.523 Q191.855 911.393 190.026 907.851 Q188.221 904.287 184.586 904.287 M184.586 900.583 Q190.397 900.583 193.452 905.189 Q196.531 909.773 196.531 918.523 Q196.531 927.249 193.452 931.856 Q190.397 936.439 184.586 936.439 Q178.776 936.439 175.698 931.856 Q172.642 927.249 172.642 918.523 Q172.642 909.773 175.698 905.189 Q178.776 900.583 184.586 900.583 Z" fill="#000000" fill-rule="nonzero" fill-opacity="1" /><path clip-path="url(#clip680)" d="M127.11 799.202 L115.304 817.651 L127.11 817.651 L127.11 799.202 M125.883 795.128 L131.763 795.128 L131.763 817.651 L136.693 817.651 L136.693 821.54 L131.763 821.54 L131.763 829.688 L127.11 829.688 L127.11 821.54 L111.508 821.54 L111.508 817.026 L125.883 795.128 Z" fill="#000000" fill-rule="nonzero" fill-opacity="1" /><path clip-path="url(#clip680)" d="M154.425 798.207 Q150.814 798.207 148.985 801.771 Q147.179 805.313 147.179 812.443 Q147.179 819.549 148.985 823.114 Q150.814 826.656 154.425 826.656 Q158.059 826.656 159.864 823.114 Q161.693 819.549 161.693 812.443 Q161.693 805.313 159.864 801.771 Q158.059 798.207 154.425 798.207 M154.425 794.503 Q160.235 794.503 163.29 799.109 Q166.369 803.693 166.369 812.443 Q166.369 821.17 163.29 825.776 Q160.235 830.359 154.425 830.359 Q148.614 830.359 145.536 825.776 Q142.48 821.17 142.48 812.443 Q142.48 803.693 145.536 799.109 Q148.614 794.503 154.425 794.503 Z" fill="#000000" fill-rule="nonzero" fill-opacity="1" /><path clip-path="url(#clip680)" d="M184.586 798.207 Q180.975 798.207 179.147 801.771 Q177.341 805.313 177.341 812.443 Q177.341 819.549 179.147 823.114 Q180.975 826.656 184.586 826.656 Q188.221 826.656 190.026 823.114 Q191.855 819.549 191.855 812.443 Q191.855 805.313 190.026 801.771 Q188.221 798.207 184.586 798.207 M184.586 794.503 Q190.397 794.503 193.452 799.109 Q196.531 803.693 196.531 812.443 Q196.531 821.17 193.452 825.776 Q190.397 830.359 184.586 830.359 Q178.776 830.359 175.698 825.776 Q172.642 821.17 172.642 812.443 Q172.642 803.693 175.698 799.109 Q178.776 794.503 184.586 794.503 Z" fill="#000000" fill-rule="nonzero" fill-opacity="1" /><path clip-path="url(#clip680)" d="M124.841 704.465 Q121.693 704.465 119.841 706.618 Q118.013 708.77 118.013 712.52 Q118.013 716.247 119.841 718.423 Q121.693 720.576 124.841 720.576 Q127.99 720.576 129.818 718.423 Q131.67 716.247 131.67 712.52 Q131.67 708.77 129.818 706.618 Q127.99 704.465 124.841 704.465 M134.124 689.812 L134.124 694.071 Q132.365 693.238 130.559 692.798 Q128.777 692.358 127.017 692.358 Q122.388 692.358 119.934 695.483 Q117.503 698.608 117.156 704.928 Q118.522 702.914 120.582 701.849 Q122.642 700.761 125.119 700.761 Q130.328 700.761 133.337 703.932 Q136.369 707.08 136.369 712.52 Q136.369 717.844 133.221 721.062 Q130.073 724.279 124.841 724.279 Q118.846 724.279 115.675 719.696 Q112.504 715.09 112.504 706.363 Q112.504 698.168 116.392 693.307 Q120.281 688.423 126.832 688.423 Q128.591 688.423 130.374 688.77 Q132.179 689.118 134.124 689.812 Z" fill="#000000" fill-rule="nonzero" fill-opacity="1" /><path clip-path="url(#clip680)" d="M154.425 692.127 Q150.814 692.127 148.985 695.692 Q147.179 699.233 147.179 706.363 Q147.179 713.469 148.985 717.034 Q150.814 720.576 154.425 720.576 Q158.059 720.576 159.864 717.034 Q161.693 713.469 161.693 706.363 Q161.693 699.233 159.864 695.692 Q158.059 692.127 154.425 692.127 M154.425 688.423 Q160.235 688.423 163.29 693.03 Q166.369 697.613 166.369 706.363 Q166.369 715.09 163.29 719.696 Q160.235 724.279 154.425 724.279 Q148.614 724.279 145.536 719.696 Q142.48 715.09 142.48 706.363 Q142.48 697.613 145.536 693.03 Q148.614 688.423 154.425 688.423 Z" fill="#000000" fill-rule="nonzero" fill-opacity="1" /><path clip-path="url(#clip680)" d="M184.586 692.127 Q180.975 692.127 179.147 695.692 Q177.341 699.233 177.341 706.363 Q177.341 713.469 179.147 717.034 Q180.975 720.576 184.586 720.576 Q188.221 720.576 190.026 717.034 Q191.855 713.469 191.855 706.363 Q191.855 699.233 190.026 695.692 Q188.221 692.127 184.586 692.127 M184.586 688.423 Q190.397 688.423 193.452 693.03 Q196.531 697.613 196.531 706.363 Q196.531 715.09 193.452 719.696 Q190.397 724.279 184.586 724.279 Q178.776 724.279 175.698 719.696 Q172.642 715.09 172.642 706.363 Q172.642 697.613 175.698 693.03 Q178.776 688.423 184.586 688.423 Z" fill="#000000" fill-rule="nonzero" fill-opacity="1" /><path clip-path="url(#clip680)" d="M31.6042 827.617 L48.9508 840.508 L67.2522 826.949 L67.2522 833.856 L53.2476 844.232 L67.2522 854.608 L67.2522 861.515 L48.6006 847.669 L31.6042 860.337 L31.6042 853.43 L44.3038 843.977 L31.6042 834.524 L31.6042 827.617 Z" fill="#000000" fill-rule="nonzero" fill-opacity="1" /><path clip-path="url(#clip684)" d="M247.912 706.328 L327.104 706.328 L406.295 706.328 L485.486 706.328 L564.677 706.328 L643.868 706.328 L723.059 706.328 L802.25 706.328 L881.441 706.328 L960.632 1024.57 L960.632 982.136 L881.441 674.504 L802.25 663.896 L723.059 674.504 L643.868 663.896 L564.677 663.896 L485.486 674.504 L406.295 685.112 L327.104 695.72 L247.912 706.328  Z" fill="#00467f" fill-rule="evenodd" fill-opacity="0.2"/>
<polyline clip-path="url(#clip684)" style="stroke:#00467f; stroke-linecap:round; stroke-linejoin:round; stroke-width:4; stroke-opacity:0; fill:none" points="247.912,706.328 327.104,701.024 406.295,695.72 485.486,690.416 564.677,685.112 643.868,685.112 723.059,690.416 802.25,685.112 881.441,690.416 960.632,1003.35 "/>
<path clip-path="url(#clip684)" d="M247.912 706.328 L327.104 706.328 L406.295 706.328 L485.486 706.328 L564.677 706.328 L643.868 706.328 L723.059 706.328 L802.25 706.328 L881.441 706.328 L960.632 1024.57 L960.632 992.744 L881.441 674.504 L802.25 685.112 L723.059 685.112 L643.868 685.112 L564.677 685.112 L485.486 684.051 L406.295 685.112 L327.104 695.72 L247.912 706.328  Z" fill="#00467f" fill-rule="evenodd" fill-opacity="0.2"/>
<polyline clip-path="url(#clip684)" style="stroke:#00467f; stroke-linecap:round; stroke-linejoin:round; stroke-width:4; stroke-opacity:0; fill:none" points="247.912,706.328 327.104,701.024 406.295,695.72 485.486,695.19 564.677,695.72 643.868,695.72 723.059,695.72 802.25,695.72 881.441,690.416 960.632,1008.66 "/>
<path clip-path="url(#clip684)" d="M247.912 706.328 L327.104 706.328 L406.295 706.328 L485.486 706.328 L564.677 706.328 L643.868 706.328 L723.059 706.328 L802.25 706.328 L881.441 706.328 L960.632 1024.57 L960.632 1006 L881.441 687.764 L802.25 695.72 L723.059 695.72 L643.868 685.112 L564.677 695.72 L485.486 695.72 L406.295 695.72 L327.104 695.72 L247.912 706.328  Z" fill="#00467f" fill-rule="evenodd" fill-opacity="0.2"/>
<polyline clip-path="url(#clip684)" style="stroke:#00467f; stroke-linecap:round; stroke-linejoin:round; stroke-width:4; stroke-opacity:0; fill:none" points="247.912,706.328 327.104,701.024 406.295,701.024 485.486,701.024 564.677,701.024 643.868,695.72 723.059,701.024 802.25,701.024 881.441,697.046 960.632,1015.29 "/>
<polyline clip-path="url(#clip684)" style="stroke:#00467f; stroke-linecap:round; stroke-linejoin:round; stroke-width:4; stroke-opacity:1; fill:none" points="247.912,706.328 327.104,706.328 406.295,706.328 485.486,706.328 564.677,706.328 643.868,698.372 723.059,698.372 802.25,695.72 881.441,703.676 960.632,1024.57 "/>
<path clip-path="url(#clip680)" d="M1197.27 1035.39 L1952.76 1035.39 L1952.76 653.076 L1197.27 653.076  Z" fill="#ffffff" fill-rule="evenodd" fill-opacity="1"/>
<polyline clip-path="url(#clip681)" style="stroke:#000000; stroke-linecap:round; stroke-linejoin:round; stroke-width:2; stroke-opacity:0.1; fill:none" points="1297.85,1035.39 1297.85,653.076 "/>
<polyline clip-path="url(#clip681)" style="stroke:#000000; stroke-linecap:round; stroke-linejoin:round; stroke-width:2; stroke-opacity:0.1; fill:none" points="1456.23,1035.39 1456.23,653.076 "/>
<polyline clip-path="url(#clip681)" style="stroke:#000000; stroke-linecap:round; stroke-linejoin:round; stroke-width:2; stroke-opacity:0.1; fill:none" points="1614.61,1035.39 1614.61,653.076 "/>
<polyline clip-path="url(#clip681)" style="stroke:#000000; stroke-linecap:round; stroke-linejoin:round; stroke-width:2; stroke-opacity:0.1; fill:none" points="1772.99,1035.39 1772.99,653.076 "/>
<polyline clip-path="url(#clip681)" style="stroke:#000000; stroke-linecap:round; stroke-linejoin:round; stroke-width:2; stroke-opacity:0.1; fill:none" points="1931.37,1035.39 1931.37,653.076 "/>
<polyline clip-path="url(#clip681)" style="stroke:#000000; stroke-linecap:round; stroke-linejoin:round; stroke-width:2; stroke-opacity:0.1; fill:none" points="1197.27,1024.57 1952.76,1024.57 "/>
<polyline clip-path="url(#clip681)" style="stroke:#000000; stroke-linecap:round; stroke-linejoin:round; stroke-width:2; stroke-opacity:0.1; fill:none" points="1197.27,931.182 1952.76,931.182 "/>
<polyline clip-path="url(#clip681)" style="stroke:#000000; stroke-linecap:round; stroke-linejoin:round; stroke-width:2; stroke-opacity:0.1; fill:none" points="1197.27,837.797 1952.76,837.797 "/>
<polyline clip-path="url(#clip681)" style="stroke:#000000; stroke-linecap:round; stroke-linejoin:round; stroke-width:2; stroke-opacity:0.1; fill:none" points="1197.27,744.411 1952.76,744.411 "/>
<polyline clip-path="url(#clip680)" style="stroke:#000000; stroke-linecap:round; stroke-linejoin:round; stroke-width:4; stroke-opacity:1; fill:none" points="1197.27,1035.39 1952.76,1035.39 "/>
<polyline clip-path="url(#clip680)" style="stroke:#000000; stroke-linecap:round; stroke-linejoin:round; stroke-width:4; stroke-opacity:1; fill:none" points="1297.85,1035.39 1297.85,1016.49 "/>
<polyline clip-path="url(#clip680)" style="stroke:#000000; stroke-linecap:round; stroke-linejoin:round; stroke-width:4; stroke-opacity:1; fill:none" points="1456.23,1035.39 1456.23,1016.49 "/>
<polyline clip-path="url(#clip680)" style="stroke:#000000; stroke-linecap:round; stroke-linejoin:round; stroke-width:4; stroke-opacity:1; fill:none" points="1614.61,1035.39 1614.61,1016.49 "/>
<polyline clip-path="url(#clip680)" style="stroke:#000000; stroke-linecap:round; stroke-linejoin:round; stroke-width:4; stroke-opacity:1; fill:none" points="1772.99,1035.39 1772.99,1016.49 "/>
<polyline clip-path="url(#clip680)" style="stroke:#000000; stroke-linecap:round; stroke-linejoin:round; stroke-width:4; stroke-opacity:1; fill:none" points="1931.37,1035.39 1931.37,1016.49 "/>
<path clip-path="url(#clip680)" d="M1292.5 1090.65 L1308.82 1090.65 L1308.82 1094.59 L1286.87 1094.59 L1286.87 1090.65 Q1289.54 1087.9 1294.12 1083.27 Q1298.73 1078.62 1299.91 1077.27 Q1302.15 1074.75 1303.03 1073.01 Q1303.93 1071.25 1303.93 1069.56 Q1303.93 1066.81 1301.99 1065.07 Q1300.07 1063.34 1296.97 1063.34 Q1294.77 1063.34 1292.31 1064.1 Q1289.88 1064.87 1287.1 1066.42 L1287.1 1061.69 Q1289.93 1060.56 1292.38 1059.98 Q1294.84 1059.4 1296.87 1059.4 Q1302.24 1059.4 1305.44 1062.09 Q1308.63 1064.77 1308.63 1069.26 Q1308.63 1071.39 1307.82 1073.31 Q1307.04 1075.21 1304.93 1077.81 Q1304.35 1078.48 1301.25 1081.69 Q1298.15 1084.89 1292.5 1090.65 Z" fill="#000000" fill-rule="nonzero" fill-opacity="1" /><path clip-path="url(#clip680)" d="M1459.24 1064.1 L1447.43 1082.55 L1459.24 1082.55 L1459.24 1064.1 M1458.01 1060.03 L1463.89 1060.03 L1463.89 1082.55 L1468.82 1082.55 L1468.82 1086.44 L1463.89 1086.44 L1463.89 1094.59 L1459.24 1094.59 L1459.24 1086.44 L1443.64 1086.44 L1443.64 1081.93 L1458.01 1060.03 Z" fill="#000000" fill-rule="nonzero" fill-opacity="1" /><path clip-path="url(#clip680)" d="M1615.02 1075.44 Q1611.87 1075.44 1610.02 1077.6 Q1608.19 1079.75 1608.19 1083.5 Q1608.19 1087.23 1610.02 1089.4 Q1611.87 1091.56 1615.02 1091.56 Q1618.16 1091.56 1619.99 1089.4 Q1621.84 1087.23 1621.84 1083.5 Q1621.84 1079.75 1619.99 1077.6 Q1618.16 1075.44 1615.02 1075.44 M1624.3 1060.79 L1624.3 1065.05 Q1622.54 1064.22 1620.73 1063.78 Q1618.95 1063.34 1617.19 1063.34 Q1612.56 1063.34 1610.11 1066.46 Q1607.68 1069.59 1607.33 1075.91 Q1608.7 1073.89 1610.76 1072.83 Q1612.82 1071.74 1615.29 1071.74 Q1620.5 1071.74 1623.51 1074.91 Q1626.54 1078.06 1626.54 1083.5 Q1626.54 1088.82 1623.39 1092.04 Q1620.25 1095.26 1615.02 1095.26 Q1609.02 1095.26 1605.85 1090.68 Q1602.68 1086.07 1602.68 1077.34 Q1602.68 1069.15 1606.57 1064.29 Q1610.45 1059.4 1617.01 1059.4 Q1618.76 1059.4 1620.55 1059.75 Q1622.35 1060.1 1624.3 1060.79 Z" fill="#000000" fill-rule="nonzero" fill-opacity="1" /><path clip-path="url(#clip680)" d="M1772.99 1078.18 Q1769.66 1078.18 1767.74 1079.96 Q1765.84 1081.74 1765.84 1084.87 Q1765.84 1087.99 1767.74 1089.77 Q1769.66 1091.56 1772.99 1091.56 Q1776.33 1091.56 1778.25 1089.77 Q1780.17 1087.97 1780.17 1084.87 Q1780.17 1081.74 1778.25 1079.96 Q1776.35 1078.18 1772.99 1078.18 M1768.32 1076.19 Q1765.31 1075.44 1763.62 1073.38 Q1761.95 1071.32 1761.95 1068.36 Q1761.95 1064.22 1764.89 1061.81 Q1767.85 1059.4 1772.99 1059.4 Q1778.15 1059.4 1781.09 1061.81 Q1784.03 1064.22 1784.03 1068.36 Q1784.03 1071.32 1782.34 1073.38 Q1780.68 1075.44 1777.69 1076.19 Q1781.07 1076.97 1782.95 1079.26 Q1784.84 1081.56 1784.84 1084.87 Q1784.84 1089.89 1781.77 1092.57 Q1778.71 1095.26 1772.99 1095.26 Q1767.27 1095.26 1764.2 1092.57 Q1761.14 1089.89 1761.14 1084.87 Q1761.14 1081.56 1763.04 1079.26 Q1764.94 1076.97 1768.32 1076.19 M1766.6 1068.8 Q1766.6 1071.49 1768.27 1072.99 Q1769.96 1074.5 1772.99 1074.5 Q1776 1074.5 1777.69 1072.99 Q1779.4 1071.49 1779.4 1068.8 Q1779.4 1066.12 1777.69 1064.61 Q1776 1063.11 1772.99 1063.11 Q1769.96 1063.11 1768.27 1064.61 Q1766.6 1066.12 1766.6 1068.8 Z" fill="#000000" fill-rule="nonzero" fill-opacity="1" /><path clip-path="url(#clip680)" d="M1906.06 1090.65 L1913.7 1090.65 L1913.7 1064.29 L1905.39 1065.95 L1905.39 1061.69 L1913.65 1060.03 L1918.33 1060.03 L1918.33 1090.65 L1925.97 1090.65 L1925.97 1094.59 L1906.06 1094.59 L1906.06 1090.65 Z" fill="#000000" fill-rule="nonzero" fill-opacity="1" /><path clip-path="url(#clip680)" d="M1945.41 1063.11 Q1941.8 1063.11 1939.97 1066.67 Q1938.17 1070.21 1938.17 1077.34 Q1938.17 1084.45 1939.97 1088.01 Q1941.8 1091.56 1945.41 1091.56 Q1949.05 1091.56 1950.85 1088.01 Q1952.68 1084.45 1952.68 1077.34 Q1952.68 1070.21 1950.85 1066.67 Q1949.05 1063.11 1945.41 1063.11 M1945.41 1059.4 Q1951.22 1059.4 1954.28 1064.01 Q1957.36 1068.59 1957.36 1077.34 Q1957.36 1086.07 1954.28 1090.68 Q1951.22 1095.26 1945.41 1095.26 Q1939.6 1095.26 1936.52 1090.68 Q1933.47 1086.07 1933.47 1077.34 Q1933.47 1068.59 1936.52 1064.01 Q1939.6 1059.4 1945.41 1059.4 Z" fill="#000000" fill-rule="nonzero" fill-opacity="1" /><path clip-path="url(#clip680)" d="M1486.9 1126.73 L1493.39 1126.73 L1503.38 1166.9 L1513.35 1126.73 L1520.57 1126.73 L1530.57 1166.9 L1540.53 1126.73 L1547.05 1126.73 L1535.12 1174.25 L1527.03 1174.25 L1517.01 1133 L1506.89 1174.25 L1498.8 1174.25 L1486.9 1126.73 Z" fill="#000000" fill-rule="nonzero" fill-opacity="1" /><path clip-path="url(#clip680)" d="M1582 1154.96 L1582 1157.83 L1555.07 1157.83 Q1555.46 1163.88 1558.7 1167.06 Q1561.98 1170.21 1567.81 1170.21 Q1571.18 1170.21 1574.33 1169.38 Q1577.51 1168.55 1580.63 1166.9 L1580.63 1172.44 Q1577.48 1173.77 1574.17 1174.47 Q1570.86 1175.17 1567.46 1175.17 Q1558.93 1175.17 1553.93 1170.21 Q1548.96 1165.24 1548.96 1156.78 Q1548.96 1148.03 1553.67 1142.9 Q1558.42 1137.74 1566.44 1137.74 Q1573.63 1137.74 1577.8 1142.39 Q1582 1147.01 1582 1154.96 M1576.14 1153.25 Q1576.08 1148.44 1573.44 1145.57 Q1570.83 1142.71 1566.5 1142.71 Q1561.6 1142.71 1558.64 1145.48 Q1555.71 1148.25 1555.26 1153.28 L1576.14 1153.25 Z" fill="#000000" fill-rule="nonzero" fill-opacity="1" /><path clip-path="url(#clip680)" d="M1622.1 1154.96 L1622.1 1157.83 L1595.18 1157.83 Q1595.56 1163.88 1598.81 1167.06 Q1602.08 1170.21 1607.91 1170.21 Q1611.28 1170.21 1614.43 1169.38 Q1617.62 1168.55 1620.74 1166.9 L1620.74 1172.44 Q1617.59 1173.77 1614.27 1174.47 Q1610.96 1175.17 1607.56 1175.17 Q1599.03 1175.17 1594.03 1170.21 Q1589.07 1165.24 1589.07 1156.78 Q1589.07 1148.03 1593.78 1142.9 Q1598.52 1137.74 1606.54 1137.74 Q1613.73 1137.74 1617.9 1142.39 Q1622.1 1147.01 1622.1 1154.96 M1616.25 1153.25 Q1616.18 1148.44 1613.54 1145.57 Q1610.93 1142.71 1606.6 1142.71 Q1601.7 1142.71 1598.74 1145.48 Q1595.81 1148.25 1595.37 1153.28 L1616.25 1153.25 Z" fill="#000000" fill-rule="nonzero" fill-opacity="1" /><path clip-path="url(#clip680)" d="M1631.49 1124.73 L1637.38 1124.73 L1637.38 1153.98 L1654.86 1138.6 L1662.34 1138.6 L1643.43 1155.28 L1663.13 1174.25 L1655.49 1174.25 L1637.38 1156.84 L1637.38 1174.25 L1631.49 1174.25 L1631.49 1124.73 Z" fill="#000000" fill-rule="nonzero" fill-opacity="1" /><polyline clip-path="url(#clip680)" style="stroke:#000000; stroke-linecap:round; stroke-linejoin:round; stroke-width:4; stroke-opacity:1; fill:none" points="1197.27,1035.39 1197.27,653.076 "/>
<polyline clip-path="url(#clip680)" style="stroke:#000000; stroke-linecap:round; stroke-linejoin:round; stroke-width:4; stroke-opacity:1; fill:none" points="1197.27,1024.57 1216.17,1024.57 "/>
<polyline clip-path="url(#clip680)" style="stroke:#000000; stroke-linecap:round; stroke-linejoin:round; stroke-width:4; stroke-opacity:1; fill:none" points="1197.27,931.182 1216.17,931.182 "/>
<polyline clip-path="url(#clip680)" style="stroke:#000000; stroke-linecap:round; stroke-linejoin:round; stroke-width:4; stroke-opacity:1; fill:none" points="1197.27,837.797 1216.17,837.797 "/>
<polyline clip-path="url(#clip680)" style="stroke:#000000; stroke-linecap:round; stroke-linejoin:round; stroke-width:4; stroke-opacity:1; fill:none" points="1197.27,744.411 1216.17,744.411 "/>
<path clip-path="url(#clip680)" d="M1155.33 1010.37 Q1151.72 1010.37 1149.89 1013.93 Q1148.08 1017.47 1148.08 1024.6 Q1148.08 1031.71 1149.89 1035.27 Q1151.72 1038.82 1155.33 1038.82 Q1158.96 1038.82 1160.77 1035.27 Q1162.6 1031.71 1162.6 1024.6 Q1162.6 1017.47 1160.77 1013.93 Q1158.96 1010.37 1155.33 1010.37 M1155.33 1006.66 Q1161.14 1006.66 1164.19 1011.27 Q1167.27 1015.85 1167.27 1024.6 Q1167.27 1033.33 1164.19 1037.94 Q1161.14 1042.52 1155.33 1042.52 Q1149.52 1042.52 1146.44 1037.94 Q1143.38 1033.33 1143.38 1024.6 Q1143.38 1015.85 1146.44 1011.27 Q1149.52 1006.66 1155.33 1006.66 Z" fill="#000000" fill-rule="nonzero" fill-opacity="1" /><path clip-path="url(#clip680)" d="M1089.03 944.527 L1105.35 944.527 L1105.35 948.462 L1083.41 948.462 L1083.41 944.527 Q1086.07 941.772 1090.65 937.143 Q1095.26 932.49 1096.44 931.148 Q1098.69 928.624 1099.56 926.888 Q1100.47 925.129 1100.47 923.439 Q1100.47 920.685 1098.52 918.948 Q1096.6 917.212 1093.5 917.212 Q1091.3 917.212 1088.85 917.976 Q1086.42 918.74 1083.64 920.291 L1083.64 915.569 Q1086.46 914.435 1088.92 913.856 Q1091.37 913.277 1093.41 913.277 Q1098.78 913.277 1101.97 915.962 Q1105.17 918.648 1105.17 923.138 Q1105.17 925.268 1104.36 927.189 Q1103.57 929.087 1101.46 931.68 Q1100.88 932.351 1097.78 935.569 Q1094.68 938.763 1089.03 944.527 Z" fill="#000000" fill-rule="nonzero" fill-opacity="1" /><path clip-path="url(#clip680)" d="M1125.17 916.981 Q1121.56 916.981 1119.73 920.546 Q1117.92 924.087 1117.92 931.217 Q1117.92 938.323 1119.73 941.888 Q1121.56 945.43 1125.17 945.43 Q1128.8 945.43 1130.61 941.888 Q1132.44 938.323 1132.44 931.217 Q1132.44 924.087 1130.61 920.546 Q1128.8 916.981 1125.17 916.981 M1125.17 913.277 Q1130.98 913.277 1134.03 917.884 Q1137.11 922.467 1137.11 931.217 Q1137.11 939.944 1134.03 944.55 Q1130.98 949.134 1125.17 949.134 Q1119.36 949.134 1116.28 944.55 Q1113.22 939.944 1113.22 931.217 Q1113.22 922.467 1116.28 917.884 Q1119.36 913.277 1125.17 913.277 Z" fill="#000000" fill-rule="nonzero" fill-opacity="1" /><path clip-path="url(#clip680)" d="M1155.33 916.981 Q1151.72 916.981 1149.89 920.546 Q1148.08 924.087 1148.08 931.217 Q1148.08 938.323 1149.89 941.888 Q1151.72 945.43 1155.33 945.43 Q1158.96 945.43 1160.77 941.888 Q1162.6 938.323 1162.6 931.217 Q1162.6 924.087 1160.77 920.546 Q1158.96 916.981 1155.33 916.981 M1155.33 913.277 Q1161.14 913.277 1164.19 917.884 Q1167.27 922.467 1167.27 931.217 Q1167.27 939.944 1164.19 944.55 Q1161.14 949.134 1155.33 949.134 Q1149.52 949.134 1146.44 944.55 Q1143.38 939.944 1143.38 931.217 Q1143.38 922.467 1146.44 917.884 Q1149.52 913.277 1155.33 913.277 Z" fill="#000000" fill-rule="nonzero" fill-opacity="1" /><path clip-path="url(#clip680)" d="M1097.85 824.591 L1086.05 843.04 L1097.85 843.04 L1097.85 824.591 M1096.63 820.517 L1102.5 820.517 L1102.5 843.04 L1107.44 843.04 L1107.44 846.929 L1102.5 846.929 L1102.5 855.077 L1097.85 855.077 L1097.85 846.929 L1082.25 846.929 L1082.25 842.415 L1096.63 820.517 Z" fill="#000000" fill-rule="nonzero" fill-opacity="1" /><path clip-path="url(#clip680)" d="M1125.17 823.595 Q1121.56 823.595 1119.73 827.16 Q1117.92 830.702 1117.92 837.831 Q1117.92 844.938 1119.73 848.503 Q1121.56 852.044 1125.17 852.044 Q1128.8 852.044 1130.61 848.503 Q1132.44 844.938 1132.44 837.831 Q1132.44 830.702 1130.61 827.16 Q1128.8 823.595 1125.17 823.595 M1125.17 819.892 Q1130.98 819.892 1134.03 824.498 Q1137.11 829.082 1137.11 837.831 Q1137.11 846.558 1134.03 851.165 Q1130.98 855.748 1125.17 855.748 Q1119.36 855.748 1116.28 851.165 Q1113.22 846.558 1113.22 837.831 Q1113.22 829.082 1116.28 824.498 Q1119.36 819.892 1125.17 819.892 Z" fill="#000000" fill-rule="nonzero" fill-opacity="1" /><path clip-path="url(#clip680)" d="M1155.33 823.595 Q1151.72 823.595 1149.89 827.16 Q1148.08 830.702 1148.08 837.831 Q1148.08 844.938 1149.89 848.503 Q1151.72 852.044 1155.33 852.044 Q1158.96 852.044 1160.77 848.503 Q1162.6 844.938 1162.6 837.831 Q1162.6 830.702 1160.77 827.16 Q1158.96 823.595 1155.33 823.595 M1155.33 819.892 Q1161.14 819.892 1164.19 824.498 Q1167.27 829.082 1167.27 837.831 Q1167.27 846.558 1164.19 851.165 Q1161.14 855.748 1155.33 855.748 Q1149.52 855.748 1146.44 851.165 Q1143.38 846.558 1143.38 837.831 Q1143.38 829.082 1146.44 824.498 Q1149.52 819.892 1155.33 819.892 Z" fill="#000000" fill-rule="nonzero" fill-opacity="1" /><path clip-path="url(#clip680)" d="M1095.58 742.548 Q1092.44 742.548 1090.58 744.701 Q1088.75 746.853 1088.75 750.603 Q1088.75 754.33 1090.58 756.506 Q1092.44 758.659 1095.58 758.659 Q1098.73 758.659 1100.56 756.506 Q1102.41 754.33 1102.41 750.603 Q1102.41 746.853 1100.56 744.701 Q1098.73 742.548 1095.58 742.548 M1104.87 727.895 L1104.87 732.154 Q1103.11 731.321 1101.3 730.881 Q1099.52 730.441 1097.76 730.441 Q1093.13 730.441 1090.68 733.566 Q1088.25 736.691 1087.9 743.011 Q1089.26 740.997 1091.32 739.932 Q1093.38 738.844 1095.86 738.844 Q1101.07 738.844 1104.08 742.015 Q1107.11 745.164 1107.11 750.603 Q1107.11 755.927 1103.96 759.145 Q1100.81 762.363 1095.58 762.363 Q1089.59 762.363 1086.42 757.779 Q1083.25 753.173 1083.25 744.446 Q1083.25 736.252 1087.13 731.391 Q1091.02 726.506 1097.57 726.506 Q1099.33 726.506 1101.12 726.853 Q1102.92 727.201 1104.87 727.895 Z" fill="#000000" fill-rule="nonzero" fill-opacity="1" /><path clip-path="url(#clip680)" d="M1125.17 730.21 Q1121.56 730.21 1119.73 733.775 Q1117.92 737.316 1117.92 744.446 Q1117.92 751.552 1119.73 755.117 Q1121.56 758.659 1125.17 758.659 Q1128.8 758.659 1130.61 755.117 Q1132.44 751.552 1132.44 744.446 Q1132.44 737.316 1130.61 733.775 Q1128.8 730.21 1125.17 730.21 M1125.17 726.506 Q1130.98 726.506 1134.03 731.113 Q1137.11 735.696 1137.11 744.446 Q1137.11 753.173 1134.03 757.779 Q1130.98 762.363 1125.17 762.363 Q1119.36 762.363 1116.28 757.779 Q1113.22 753.173 1113.22 744.446 Q1113.22 735.696 1116.28 731.113 Q1119.36 726.506 1125.17 726.506 Z" fill="#000000" fill-rule="nonzero" fill-opacity="1" /><path clip-path="url(#clip680)" d="M1155.33 730.21 Q1151.72 730.21 1149.89 733.775 Q1148.08 737.316 1148.08 744.446 Q1148.08 751.552 1149.89 755.117 Q1151.72 758.659 1155.33 758.659 Q1158.96 758.659 1160.77 755.117 Q1162.6 751.552 1162.6 744.446 Q1162.6 737.316 1160.77 733.775 Q1158.96 730.21 1155.33 730.21 M1155.33 726.506 Q1161.14 726.506 1164.19 731.113 Q1167.27 735.696 1167.27 744.446 Q1167.27 753.173 1164.19 757.779 Q1161.14 762.363 1155.33 762.363 Q1149.52 762.363 1146.44 757.779 Q1143.38 753.173 1143.38 744.446 Q1143.38 735.696 1146.44 731.113 Q1149.52 726.506 1155.33 726.506 Z" fill="#000000" fill-rule="nonzero" fill-opacity="1" /><path clip-path="url(#clip681)" d="M1218.65 861.143 L1297.85 861.143 L1377.04 861.143 L1456.23 861.143 L1535.42 861.143 L1614.61 861.143 L1693.8 861.143 L1772.99 861.143 L1852.18 861.143 L1931.37 1024.57 L1931.37 903.167 L1852.18 809.781 L1772.99 758.419 L1693.8 707.057 L1614.61 692.927 L1535.42 663.896 L1456.23 677.904 L1377.04 721.065 L1297.85 791.104 L1218.65 861.143  Z" fill="#00467f" fill-rule="evenodd" fill-opacity="0.2"/>
<polyline clip-path="url(#clip681)" style="stroke:#00467f; stroke-linecap:round; stroke-linejoin:round; stroke-width:4; stroke-opacity:0; fill:none" points="1218.65,861.143 1297.85,826.124 1377.04,791.104 1456.23,769.524 1535.42,762.52 1614.61,777.035 1693.8,784.1 1772.99,809.781 1852.18,835.462 1931.37,963.867 "/>
<path clip-path="url(#clip681)" d="M1218.65 861.143 L1297.85 861.143 L1377.04 861.143 L1456.23 861.143 L1535.42 861.143 L1614.61 840.131 L1693.8 814.45 L1772.99 809.781 L1852.18 837.797 L1931.37 1024.57 L1931.37 912.505 L1852.18 809.781 L1772.99 758.419 L1693.8 716.396 L1614.61 702.265 L1535.42 699.627 L1456.23 695.737 L1377.04 730.403 L1297.85 791.104 L1218.65 861.143  Z" fill="#00467f" fill-rule="evenodd" fill-opacity="0.2"/>
<polyline clip-path="url(#clip681)" style="stroke:#00467f; stroke-linecap:round; stroke-linejoin:round; stroke-width:4; stroke-opacity:0; fill:none" points="1218.65,861.143 1297.85,826.124 1377.04,795.773 1456.23,778.44 1535.42,780.385 1614.61,771.198 1693.8,765.423 1772.99,784.1 1852.18,823.789 1931.37,968.536 "/>
<path clip-path="url(#clip681)" d="M1218.65 861.143 L1297.85 861.143 L1377.04 851.805 L1456.23 835.462 L1535.42 817.952 L1614.61 803.945 L1693.8 791.104 L1772.99 786.435 L1852.18 828.458 L1931.37 997.719 L1931.37 931.182 L1852.18 809.781 L1772.99 764.256 L1693.8 725.734 L1614.61 711.632 L1535.42 711.726 L1456.23 763.088 L1377.04 777.096 L1297.85 800.443 L1218.65 861.143  Z" fill="#00467f" fill-rule="evenodd" fill-opacity="0.2"/>
<polyline clip-path="url(#clip681)" style="stroke:#00467f; stroke-linecap:round; stroke-linejoin:round; stroke-width:4; stroke-opacity:0; fill:none" points="1218.65,861.143 1297.85,830.793 1377.04,814.45 1456.23,799.275 1535.42,764.839 1614.61,757.788 1693.8,758.419 1772.99,775.345 1852.18,819.12 1931.37,964.451 "/>
<polyline clip-path="url(#clip681)" style="stroke:#00467f; stroke-linecap:round; stroke-linejoin:round; stroke-width:4; stroke-opacity:1; fill:none" points="1218.65,861.143 1297.85,837.797 1377.04,800.443 1456.23,791.104 1535.42,756.084 1614.61,739.742 1693.8,744.289 1772.99,772.427 1852.18,819.12 1931.37,954.529 "/>
</svg>
