<?xml version="1.0" encoding="utf-8"?>
<svg xmlns="http://www.w3.org/2000/svg" xmlns:xlink="http://www.w3.org/1999/xlink" width="500" height="300" viewBox="0 0 2000 1200">
<defs>
  <clipPath id="clip160">
    <rect x="0" y="0" width="2000" height="1200"/>
  </clipPath>
</defs>
<path clip-path="url(#clip160)" d="M0 1200 L2000 1200 L2000 0 L0 0  Z" fill="#ffffff" fill-rule="evenodd" fill-opacity="1"/>
<defs>
  <clipPath id="clip161">
    <rect x="400" y="0" width="1401" height="1200"/>
  </clipPath>
</defs>
<path clip-path="url(#clip160)" d="M226.531 1035.39 L1952.76 1035.39 L1952.76 47.2441 L226.531 47.2441  Z" fill="#ffffff" fill-rule="evenodd" fill-opacity="1"/>
<defs>
  <clipPath id="clip162">
    <rect x="226" y="47" width="1727" height="989"/>
  </clipPath>
</defs>
<polyline clip-path="url(#clip162)" style="stroke:#000000; stroke-linecap:round; stroke-linejoin:round; stroke-width:2; stroke-opacity:0.1; fill:none" points="558.606,1035.39 558.606,47.2441 "/>
<polyline clip-path="url(#clip162)" style="stroke:#000000; stroke-linecap:round; stroke-linejoin:round; stroke-width:2; stroke-opacity:0.1; fill:none" points="912.631,1035.39 912.631,47.2441 "/>
<polyline clip-path="url(#clip162)" style="stroke:#000000; stroke-linecap:round; stroke-linejoin:round; stroke-width:2; stroke-opacity:0.1; fill:none" points="1266.66,1035.39 1266.66,47.2441 "/>
<polyline clip-path="url(#clip162)" style="stroke:#000000; stroke-linecap:round; stroke-linejoin:round; stroke-width:2; stroke-opacity:0.1; fill:none" points="1620.68,1035.39 1620.68,47.2441 "/>
<polyline clip-path="url(#clip162)" style="stroke:#000000; stroke-linecap:round; stroke-linejoin:round; stroke-width:2; stroke-opacity:0.1; fill:none" points="226.531,1007.42 1952.76,1007.42 "/>
<polyline clip-path="url(#clip162)" style="stroke:#000000; stroke-linecap:round; stroke-linejoin:round; stroke-width:2; stroke-opacity:0.1; fill:none" points="226.531,820.979 1952.76,820.979 "/>
<polyline clip-path="url(#clip162)" style="stroke:#000000; stroke-linecap:round; stroke-linejoin:round; stroke-width:2; stroke-opacity:0.1; fill:none" points="226.531,634.537 1952.76,634.537 "/>
<polyline clip-path="url(#clip162)" style="stroke:#000000; stroke-linecap:round; stroke-linejoin:round; stroke-width:2; stroke-opacity:0.1; fill:none" points="226.531,448.095 1952.76,448.095 "/>
<polyline clip-path="url(#clip162)" style="stroke:#000000; stroke-linecap:round; stroke-linejoin:round; stroke-width:2; stroke-opacity:0.1; fill:none" points="226.531,261.653 1952.76,261.653 "/>
<polyline clip-path="url(#clip162)" style="stroke:#000000; stroke-linecap:round; stroke-linejoin:round; stroke-width:2; stroke-opacity:0.1; fill:none" points="226.531,75.2104 1952.76,75.2104 "/>
<polyline clip-path="url(#clip160)" style="stroke:#000000; stroke-linecap:round; stroke-linejoin:round; stroke-width:4; stroke-opacity:1; fill:none" points="226.531,1035.39 1952.76,1035.39 "/>
<polyline clip-path="url(#clip160)" style="stroke:#000000; stroke-linecap:round; stroke-linejoin:round; stroke-width:4; stroke-opacity:1; fill:none" points="558.606,1035.39 558.606,1016.49 "/>
<polyline clip-path="url(#clip160)" style="stroke:#000000; stroke-linecap:round; stroke-linejoin:round; stroke-width:4; stroke-opacity:1; fill:none" points="912.631,1035.39 912.631,1016.49 "/>
<polyline clip-path="url(#clip160)" style="stroke:#000000; stroke-linecap:round; stroke-linejoin:round; stroke-width:4; stroke-opacity:1; fill:none" points="1266.66,1035.39 1266.66,1016.49 "/>
<polyline clip-path="url(#clip160)" style="stroke:#000000; stroke-linecap:round; stroke-linejoin:round; stroke-width:4; stroke-opacity:1; fill:none" points="1620.68,1035.39 1620.68,1016.49 "/>
<path clip-path="url(#clip160)" d="M548.884 1060.03 L567.24 1060.03 L567.24 1063.96 L553.166 1063.96 L553.166 1072.44 Q554.185 1072.09 555.203 1071.93 Q556.222 1071.74 557.24 1071.74 Q563.027 1071.74 566.407 1074.91 Q569.787 1078.08 569.787 1083.5 Q569.787 1089.08 566.314 1092.18 Q562.842 1095.26 556.523 1095.26 Q554.347 1095.26 552.078 1094.89 Q549.833 1094.52 547.426 1093.78 L547.426 1089.08 Q549.509 1090.21 551.731 1090.77 Q553.953 1091.32 556.43 1091.32 Q560.435 1091.32 562.773 1089.22 Q565.111 1087.11 565.111 1083.5 Q565.111 1079.89 562.773 1077.78 Q560.435 1075.68 556.43 1075.68 Q554.555 1075.68 552.68 1076.09 Q550.828 1076.51 548.884 1077.39 L548.884 1060.03 Z" fill="#000000" fill-rule="nonzero" fill-opacity="1" /><path clip-path="url(#clip160)" d="M887.319 1090.65 L894.957 1090.65 L894.957 1064.29 L886.647 1065.95 L886.647 1061.69 L894.911 1060.03 L899.587 1060.03 L899.587 1090.65 L907.226 1090.65 L907.226 1094.59 L887.319 1094.59 L887.319 1090.65 Z" fill="#000000" fill-rule="nonzero" fill-opacity="1" /><path clip-path="url(#clip160)" d="M926.67 1063.11 Q923.059 1063.11 921.23 1066.67 Q919.425 1070.21 919.425 1077.34 Q919.425 1084.45 921.23 1088.01 Q923.059 1091.56 926.67 1091.56 Q930.304 1091.56 932.11 1088.01 Q933.939 1084.45 933.939 1077.34 Q933.939 1070.21 932.11 1066.67 Q930.304 1063.11 926.67 1063.11 M926.67 1059.4 Q932.48 1059.4 935.536 1064.01 Q938.615 1068.59 938.615 1077.34 Q938.615 1086.07 935.536 1090.68 Q932.48 1095.26 926.67 1095.26 Q920.86 1095.26 917.781 1090.68 Q914.726 1086.07 914.726 1077.34 Q914.726 1068.59 917.781 1064.01 Q920.86 1059.4 926.67 1059.4 Z" fill="#000000" fill-rule="nonzero" fill-opacity="1" /><path clip-path="url(#clip160)" d="M1241.84 1090.65 L1249.48 1090.65 L1249.48 1064.29 L1241.17 1065.95 L1241.17 1061.69 L1249.43 1060.03 L1254.11 1060.03 L1254.11 1090.65 L1261.75 1090.65 L1261.75 1094.59 L1241.84 1094.59 L1241.84 1090.65 Z" fill="#000000" fill-rule="nonzero" fill-opacity="1" /><path clip-path="url(#clip160)" d="M1271.24 1060.03 L1289.6 1060.03 L1289.6 1063.96 L1275.52 1063.96 L1275.52 1072.44 Q1276.54 1072.09 1277.56 1071.93 Q1278.58 1071.74 1279.6 1071.74 Q1285.38 1071.74 1288.76 1074.91 Q1292.14 1078.08 1292.14 1083.5 Q1292.14 1089.08 1288.67 1092.18 Q1285.2 1095.26 1278.88 1095.26 Q1276.7 1095.26 1274.43 1094.89 Q1272.19 1094.52 1269.78 1093.78 L1269.78 1089.08 Q1271.86 1090.21 1274.09 1090.77 Q1276.31 1091.32 1278.79 1091.32 Q1282.79 1091.32 1285.13 1089.22 Q1287.47 1087.11 1287.47 1083.5 Q1287.47 1079.89 1285.13 1077.78 Q1282.79 1075.68 1278.79 1075.68 Q1276.91 1075.68 1275.04 1076.09 Q1273.18 1076.51 1271.24 1077.39 L1271.24 1060.03 Z" fill="#000000" fill-rule="nonzero" fill-opacity="1" /><path clip-path="url(#clip160)" d="M1599.45 1090.65 L1615.77 1090.65 L1615.77 1094.59 L1593.83 1094.59 L1593.83 1090.65 Q1596.49 1087.9 1601.07 1083.27 Q1605.68 1078.62 1606.86 1077.27 Q1609.11 1074.75 1609.99 1073.01 Q1610.89 1071.25 1610.89 1069.56 Q1610.89 1066.81 1608.94 1065.07 Q1607.02 1063.34 1603.92 1063.34 Q1601.72 1063.34 1599.27 1064.1 Q1596.84 1064.87 1594.06 1066.42 L1594.06 1061.69 Q1596.88 1060.56 1599.34 1059.98 Q1601.79 1059.4 1603.83 1059.4 Q1609.2 1059.4 1612.39 1062.09 Q1615.59 1064.77 1615.59 1069.26 Q1615.59 1071.39 1614.78 1073.31 Q1613.99 1075.21 1611.88 1077.81 Q1611.31 1078.48 1608.2 1081.69 Q1605.1 1084.89 1599.45 1090.65 Z" fill="#000000" fill-rule="nonzero" fill-opacity="1" /><path clip-path="url(#clip160)" d="M1635.59 1063.11 Q1631.98 1063.11 1630.15 1066.67 Q1628.34 1070.21 1628.34 1077.34 Q1628.34 1084.45 1630.15 1088.01 Q1631.98 1091.56 1635.59 1091.56 Q1639.22 1091.56 1641.03 1088.01 Q1642.86 1084.45 1642.86 1077.34 Q1642.86 1070.21 1641.03 1066.67 Q1639.22 1063.11 1635.59 1063.11 M1635.59 1059.4 Q1641.4 1059.4 1644.45 1064.01 Q1647.53 1068.59 1647.53 1077.34 Q1647.53 1086.07 1644.45 1090.68 Q1641.4 1095.26 1635.59 1095.26 Q1629.78 1095.26 1626.7 1090.68 Q1623.64 1086.07 1623.64 1077.34 Q1623.64 1068.59 1626.7 1064.01 Q1629.78 1059.4 1635.59 1059.4 Z" fill="#000000" fill-rule="nonzero" fill-opacity="1" /><path clip-path="url(#clip160)" d="M1014.34 1126.73 L1020.77 1126.73 L1020.77 1146.21 L1044.13 1146.21 L1044.13 1126.73 L1050.56 1126.73 L1050.56 1174.25 L1044.13 1174.25 L1044.13 1151.62 L1020.77 1151.62 L1020.77 1174.25 L1014.34 1174.25 L1014.34 1126.73 Z" fill="#000000" fill-rule="nonzero" fill-opacity="1" /><path clip-path="url(#clip160)" d="M1076.91 1142.71 Q1072.2 1142.71 1069.46 1146.4 Q1066.73 1150.06 1066.73 1156.46 Q1066.73 1162.86 1069.43 1166.55 Q1072.17 1170.21 1076.91 1170.21 Q1081.59 1170.21 1084.33 1166.52 Q1087.07 1162.83 1087.07 1156.46 Q1087.07 1150.13 1084.33 1146.43 Q1081.59 1142.71 1076.91 1142.71 M1076.91 1137.74 Q1084.55 1137.74 1088.91 1142.71 Q1093.27 1147.68 1093.27 1156.46 Q1093.27 1165.21 1088.91 1170.21 Q1084.55 1175.17 1076.91 1175.17 Q1069.24 1175.17 1064.88 1170.21 Q1060.55 1165.21 1060.55 1156.46 Q1060.55 1147.68 1064.88 1142.71 Q1069.24 1137.74 1076.91 1137.74 Z" fill="#000000" fill-rule="nonzero" fill-opacity="1" /><path clip-path="url(#clip160)" d="M1102.37 1160.18 L1102.37 1138.6 L1108.23 1138.6 L1108.23 1159.96 Q1108.23 1165.02 1110.2 1167.57 Q1112.18 1170.08 1116.12 1170.08 Q1120.87 1170.08 1123.6 1167.06 Q1126.37 1164.03 1126.37 1158.82 L1126.37 1138.6 L1132.23 1138.6 L1132.23 1174.25 L1126.37 1174.25 L1126.37 1168.78 Q1124.24 1172.02 1121.41 1173.62 Q1118.61 1175.17 1114.88 1175.17 Q1108.74 1175.17 1105.56 1171.36 Q1102.37 1167.54 1102.37 1160.18 M1117.11 1137.74 L1117.11 1137.74 Z" fill="#000000" fill-rule="nonzero" fill-opacity="1" /><path clip-path="url(#clip160)" d="M1164.95 1144.08 Q1163.96 1143.51 1162.79 1143.25 Q1161.64 1142.96 1160.24 1142.96 Q1155.27 1142.96 1152.6 1146.21 Q1149.96 1149.43 1149.96 1155.47 L1149.96 1174.25 L1144.07 1174.25 L1144.07 1138.6 L1149.96 1138.6 L1149.96 1144.14 Q1151.8 1140.9 1154.76 1139.34 Q1157.72 1137.74 1161.96 1137.74 Q1162.56 1137.74 1163.29 1137.84 Q1164.03 1137.9 1164.92 1138.06 L1164.95 1144.08 Z" fill="#000000" fill-rule="nonzero" fill-opacity="1" /><polyline clip-path="url(#clip160)" style="stroke:#000000; stroke-linecap:round; stroke-linejoin:round; stroke-width:4; stroke-opacity:1; fill:none" points="226.531,1035.39 226.531,47.2441 "/>
<polyline clip-path="url(#clip160)" style="stroke:#000000; stroke-linecap:round; stroke-linejoin:round; stroke-width:4; stroke-opacity:1; fill:none" points="226.531,1007.42 245.428,1007.42 "/>
<polyline clip-path="url(#clip160)" style="stroke:#000000; stroke-linecap:round; stroke-linejoin:round; stroke-width:4; stroke-opacity:1; fill:none" points="226.531,820.979 245.428,820.979 "/>
<polyline clip-path="url(#clip160)" style="stroke:#000000; stroke-linecap:round; stroke-linejoin:round; stroke-width:4; stroke-opacity:1; fill:none" points="226.531,634.537 245.428,634.537 "/>
<polyline clip-path="url(#clip160)" style="stroke:#000000; stroke-linecap:round; stroke-linejoin:round; stroke-width:4; stroke-opacity:1; fill:none" points="226.531,448.095 245.428,448.095 "/>
<polyline clip-path="url(#clip160)" style="stroke:#000000; stroke-linecap:round; stroke-linejoin:round; stroke-width:4; stroke-opacity:1; fill:none" points="226.531,261.653 245.428,261.653 "/>
<polyline clip-path="url(#clip160)" style="stroke:#000000; stroke-linecap:round; stroke-linejoin:round; stroke-width:4; stroke-opacity:1; fill:none" points="226.531,75.2104 245.428,75.2104 "/>
<path clip-path="url(#clip160)" d="M184.586 993.22 Q180.975 993.22 179.147 996.785 Q177.341 1000.33 177.341 1007.46 Q177.341 1014.56 179.147 1018.13 Q180.975 1021.67 184.586 1021.67 Q188.221 1021.67 190.026 1018.13 Q191.855 1014.56 191.855 1007.46 Q191.855 1000.33 190.026 996.785 Q188.221 993.22 184.586 993.22 M184.586 989.517 Q190.397 989.517 193.452 994.123 Q196.531 998.706 196.531 1007.46 Q196.531 1016.18 193.452 1020.79 Q190.397 1025.37 184.586 1025.37 Q178.776 1025.37 175.698 1020.79 Q172.642 1016.18 172.642 1007.46 Q172.642 998.706 175.698 994.123 Q178.776 989.517 184.586 989.517 Z" fill="#000000" fill-rule="nonzero" fill-opacity="1" /><path clip-path="url(#clip160)" d="M115.073 834.324 L122.712 834.324 L122.712 807.959 L114.402 809.625 L114.402 805.366 L122.666 803.699 L127.341 803.699 L127.341 834.324 L134.98 834.324 L134.98 838.259 L115.073 838.259 L115.073 834.324 Z" fill="#000000" fill-rule="nonzero" fill-opacity="1" /><path clip-path="url(#clip160)" d="M154.425 806.778 Q150.814 806.778 148.985 810.343 Q147.179 813.884 147.179 821.014 Q147.179 828.12 148.985 831.685 Q150.814 835.227 154.425 835.227 Q158.059 835.227 159.864 831.685 Q161.693 828.12 161.693 821.014 Q161.693 813.884 159.864 810.343 Q158.059 806.778 154.425 806.778 M154.425 803.074 Q160.235 803.074 163.29 807.681 Q166.369 812.264 166.369 821.014 Q166.369 829.741 163.29 834.347 Q160.235 838.931 154.425 838.931 Q148.614 838.931 145.536 834.347 Q142.48 829.741 142.48 821.014 Q142.48 812.264 145.536 807.681 Q148.614 803.074 154.425 803.074 Z" fill="#000000" fill-rule="nonzero" fill-opacity="1" /><path clip-path="url(#clip160)" d="M184.586 806.778 Q180.975 806.778 179.147 810.343 Q177.341 813.884 177.341 821.014 Q177.341 828.12 179.147 831.685 Q180.975 835.227 184.586 835.227 Q188.221 835.227 190.026 831.685 Q191.855 828.12 191.855 821.014 Q191.855 813.884 190.026 810.343 Q188.221 806.778 184.586 806.778 M184.586 803.074 Q190.397 803.074 193.452 807.681 Q196.531 812.264 196.531 821.014 Q196.531 829.741 193.452 834.347 Q190.397 838.931 184.586 838.931 Q178.776 838.931 175.698 834.347 Q172.642 829.741 172.642 821.014 Q172.642 812.264 175.698 807.681 Q178.776 803.074 184.586 803.074 Z" fill="#000000" fill-rule="nonzero" fill-opacity="1" /><path clip-path="url(#clip160)" d="M118.291 647.882 L134.61 647.882 L134.61 651.817 L112.666 651.817 L112.666 647.882 Q115.328 645.127 119.911 640.498 Q124.517 635.845 125.698 634.502 Q127.943 631.979 128.823 630.243 Q129.726 628.484 129.726 626.794 Q129.726 624.039 127.781 622.303 Q125.86 620.567 122.758 620.567 Q120.559 620.567 118.105 621.331 Q115.675 622.095 112.897 623.646 L112.897 618.924 Q115.721 617.789 118.175 617.211 Q120.628 616.632 122.666 616.632 Q128.036 616.632 131.23 619.317 Q134.425 622.002 134.425 626.493 Q134.425 628.623 133.615 630.544 Q132.827 632.442 130.721 635.035 Q130.142 635.706 127.04 638.924 Q123.939 642.118 118.291 647.882 Z" fill="#000000" fill-rule="nonzero" fill-opacity="1" /><path clip-path="url(#clip160)" d="M154.425 620.336 Q150.814 620.336 148.985 623.901 Q147.179 627.442 147.179 634.572 Q147.179 641.678 148.985 645.243 Q150.814 648.785 154.425 648.785 Q158.059 648.785 159.864 645.243 Q161.693 641.678 161.693 634.572 Q161.693 627.442 159.864 623.901 Q158.059 620.336 154.425 620.336 M154.425 616.632 Q160.235 616.632 163.29 621.239 Q166.369 625.822 166.369 634.572 Q166.369 643.299 163.29 647.905 Q160.235 652.488 154.425 652.488 Q148.614 652.488 145.536 647.905 Q142.48 643.299 142.48 634.572 Q142.48 625.822 145.536 621.239 Q148.614 616.632 154.425 616.632 Z" fill="#000000" fill-rule="nonzero" fill-opacity="1" /><path clip-path="url(#clip160)" d="M184.586 620.336 Q180.975 620.336 179.147 623.901 Q177.341 627.442 177.341 634.572 Q177.341 641.678 179.147 645.243 Q180.975 648.785 184.586 648.785 Q188.221 648.785 190.026 645.243 Q191.855 641.678 191.855 634.572 Q191.855 627.442 190.026 623.901 Q188.221 620.336 184.586 620.336 M184.586 616.632 Q190.397 616.632 193.452 621.239 Q196.531 625.822 196.531 634.572 Q196.531 643.299 193.452 647.905 Q190.397 652.488 184.586 652.488 Q178.776 652.488 175.698 647.905 Q172.642 643.299 172.642 634.572 Q172.642 625.822 175.698 621.239 Q178.776 616.632 184.586 616.632 Z" fill="#000000" fill-rule="nonzero" fill-opacity="1" /><path clip-path="url(#clip160)" d="M128.429 446.741 Q131.786 447.458 133.661 449.727 Q135.559 451.995 135.559 455.329 Q135.559 460.444 132.04 463.245 Q128.522 466.046 122.041 466.046 Q119.865 466.046 117.55 465.606 Q115.258 465.19 112.804 464.333 L112.804 459.819 Q114.749 460.954 117.064 461.532 Q119.378 462.111 121.902 462.111 Q126.3 462.111 128.591 460.375 Q130.906 458.639 130.906 455.329 Q130.906 452.273 128.753 450.56 Q126.624 448.824 122.804 448.824 L118.777 448.824 L118.777 444.981 L122.99 444.981 Q126.439 444.981 128.267 443.616 Q130.096 442.227 130.096 439.634 Q130.096 436.972 128.198 435.56 Q126.323 434.125 122.804 434.125 Q120.883 434.125 118.684 434.542 Q116.485 434.958 113.846 435.838 L113.846 431.671 Q116.508 430.931 118.823 430.56 Q121.161 430.19 123.221 430.19 Q128.545 430.19 131.647 432.62 Q134.749 435.028 134.749 439.148 Q134.749 442.019 133.105 444.009 Q131.462 445.977 128.429 446.741 Z" fill="#000000" fill-rule="nonzero" fill-opacity="1" /><path clip-path="url(#clip160)" d="M154.425 433.894 Q150.814 433.894 148.985 437.458 Q147.179 441 147.179 448.13 Q147.179 455.236 148.985 458.801 Q150.814 462.342 154.425 462.342 Q158.059 462.342 159.864 458.801 Q161.693 455.236 161.693 448.13 Q161.693 441 159.864 437.458 Q158.059 433.894 154.425 433.894 M154.425 430.19 Q160.235 430.19 163.29 434.796 Q166.369 439.38 166.369 448.13 Q166.369 456.856 163.29 461.463 Q160.235 466.046 154.425 466.046 Q148.614 466.046 145.536 461.463 Q142.48 456.856 142.48 448.13 Q142.48 439.38 145.536 434.796 Q148.614 430.19 154.425 430.19 Z" fill="#000000" fill-rule="nonzero" fill-opacity="1" /><path clip-path="url(#clip160)" d="M184.586 433.894 Q180.975 433.894 179.147 437.458 Q177.341 441 177.341 448.13 Q177.341 455.236 179.147 458.801 Q180.975 462.342 184.586 462.342 Q188.221 462.342 190.026 458.801 Q191.855 455.236 191.855 448.13 Q191.855 441 190.026 437.458 Q188.221 433.894 184.586 433.894 M184.586 430.19 Q190.397 430.19 193.452 434.796 Q196.531 439.38 196.531 448.13 Q196.531 456.856 193.452 461.463 Q190.397 466.046 184.586 466.046 Q178.776 466.046 175.698 461.463 Q172.642 456.856 172.642 448.13 Q172.642 439.38 175.698 434.796 Q178.776 430.19 184.586 430.19 Z" fill="#000000" fill-rule="nonzero" fill-opacity="1" /><path clip-path="url(#clip160)" d="M127.11 248.447 L115.304 266.896 L127.11 266.896 L127.11 248.447 M125.883 244.373 L131.763 244.373 L131.763 266.896 L136.693 266.896 L136.693 270.785 L131.763 270.785 L131.763 278.933 L127.11 278.933 L127.11 270.785 L111.508 270.785 L111.508 266.271 L125.883 244.373 Z" fill="#000000" fill-rule="nonzero" fill-opacity="1" /><path clip-path="url(#clip160)" d="M154.425 247.451 Q150.814 247.451 148.985 251.016 Q147.179 254.558 147.179 261.687 Q147.179 268.794 148.985 272.359 Q150.814 275.9 154.425 275.9 Q158.059 275.9 159.864 272.359 Q161.693 268.794 161.693 261.687 Q161.693 254.558 159.864 251.016 Q158.059 247.451 154.425 247.451 M154.425 243.748 Q160.235 243.748 163.29 248.354 Q166.369 252.937 166.369 261.687 Q166.369 270.414 163.29 275.021 Q160.235 279.604 154.425 279.604 Q148.614 279.604 145.536 275.021 Q142.48 270.414 142.48 261.687 Q142.48 252.937 145.536 248.354 Q148.614 243.748 154.425 243.748 Z" fill="#000000" fill-rule="nonzero" fill-opacity="1" /><path clip-path="url(#clip160)" d="M184.586 247.451 Q180.975 247.451 179.147 251.016 Q177.341 254.558 177.341 261.687 Q177.341 268.794 179.147 272.359 Q180.975 275.9 184.586 275.9 Q188.221 275.9 190.026 272.359 Q191.855 268.794 191.855 261.687 Q191.855 254.558 190.026 251.016 Q188.221 247.451 184.586 247.451 M184.586 243.748 Q190.397 243.748 193.452 248.354 Q196.531 252.937 196.531 261.687 Q196.531 270.414 193.452 275.021 Q190.397 279.604 184.586 279.604 Q178.776 279.604 175.698 275.021 Q172.642 270.414 172.642 261.687 Q172.642 252.937 175.698 248.354 Q178.776 243.748 184.586 243.748 Z" fill="#000000" fill-rule="nonzero" fill-opacity="1" /><path clip-path="url(#clip160)" d="M114.309 57.9304 L132.665 57.9304 L132.665 61.8656 L118.591 61.8656 L118.591 70.3378 Q119.61 69.9905 120.628 69.8285 Q121.647 69.6433 122.666 69.6433 Q128.453 69.6433 131.832 72.8146 Q135.212 75.9859 135.212 81.4025 Q135.212 86.9812 131.74 90.083 Q128.267 93.1617 121.948 93.1617 Q119.772 93.1617 117.503 92.7914 Q115.258 92.421 112.851 91.6802 L112.851 86.9812 Q114.934 88.1155 117.156 88.671 Q119.378 89.2266 121.855 89.2266 Q125.86 89.2266 128.198 87.1201 Q130.536 85.0136 130.536 81.4025 Q130.536 77.7914 128.198 75.685 Q125.86 73.5785 121.855 73.5785 Q119.98 73.5785 118.105 73.9952 Q116.254 74.4118 114.309 75.2914 L114.309 57.9304 Z" fill="#000000" fill-rule="nonzero" fill-opacity="1" /><path clip-path="url(#clip160)" d="M154.425 61.0091 Q150.814 61.0091 148.985 64.5739 Q147.179 68.1156 147.179 75.2451 Q147.179 82.3516 148.985 85.9164 Q150.814 89.458 154.425 89.458 Q158.059 89.458 159.864 85.9164 Q161.693 82.3516 161.693 75.2451 Q161.693 68.1156 159.864 64.5739 Q158.059 61.0091 154.425 61.0091 M154.425 57.3054 Q160.235 57.3054 163.29 61.9119 Q166.369 66.4952 166.369 75.2451 Q166.369 83.972 163.29 88.5784 Q160.235 93.1617 154.425 93.1617 Q148.614 93.1617 145.536 88.5784 Q142.48 83.972 142.48 75.2451 Q142.48 66.4952 145.536 61.9119 Q148.614 57.3054 154.425 57.3054 Z" fill="#000000" fill-rule="nonzero" fill-opacity="1" /><path clip-path="url(#clip160)" d="M184.586 61.0091 Q180.975 61.0091 179.147 64.5739 Q177.341 68.1156 177.341 75.2451 Q177.341 82.3516 179.147 85.9164 Q180.975 89.458 184.586 89.458 Q188.221 89.458 190.026 85.9164 Q191.855 82.3516 191.855 75.2451 Q191.855 68.1156 190.026 64.5739 Q188.221 61.0091 184.586 61.0091 M184.586 57.3054 Q190.397 57.3054 193.452 61.9119 Q196.531 66.4952 196.531 75.2451 Q196.531 83.972 193.452 88.5784 Q190.397 93.1617 184.586 93.1617 Q178.776 93.1617 175.698 88.5784 Q172.642 83.972 172.642 75.2451 Q172.642 66.4952 175.698 61.9119 Q178.776 57.3054 184.586 57.3054 Z" fill="#000000" fill-rule="nonzero" fill-opacity="1" /><path clip-path="url(#clip160)" d="M25.0157 635.146 L61.9686 635.146 L61.9686 627.38 Q61.9686 617.545 57.5126 612.994 Q53.0566 608.411 43.4444 608.411 Q33.8959 608.411 29.4717 612.994 Q25.0157 617.545 25.0157 627.38 L25.0157 635.146 M19.7322 641.576 L19.7322 628.367 Q19.7322 614.553 25.4931 608.092 Q31.2223 601.631 43.4444 601.631 Q55.7302 601.631 61.4912 608.124 Q67.2522 614.617 67.2522 628.367 L67.2522 641.576 L19.7322 641.576 Z" fill="#000000" fill-rule="nonzero" fill-opacity="1" /><path clip-path="url(#clip160)" d="M53.1839 592.242 L31.6042 592.242 L31.6042 586.385 L52.9611 586.385 Q58.0219 586.385 60.5682 584.412 Q63.0826 582.438 63.0826 578.492 Q63.0826 573.749 60.0589 571.012 Q57.0352 568.243 51.8153 568.243 L31.6042 568.243 L31.6042 562.386 L67.2522 562.386 L67.2522 568.243 L61.7776 568.243 Q65.0242 570.375 66.6156 573.208 Q68.1752 576.009 68.1752 579.733 Q68.1752 585.876 64.3558 589.059 Q60.5363 592.242 53.1839 592.242 M30.7448 577.505 L30.7448 577.505 Z" fill="#000000" fill-rule="nonzero" fill-opacity="1" /><path clip-path="url(#clip160)" d="M49.3327 534.123 Q49.3327 541.22 50.9559 543.958 Q52.5792 546.695 56.4941 546.695 Q59.6133 546.695 61.4594 544.658 Q63.2736 542.589 63.2736 539.056 Q63.2736 534.186 59.8361 531.258 Q56.3668 528.298 50.6377 528.298 L49.3327 528.298 L49.3327 534.123 M46.9137 522.442 L67.2522 522.442 L67.2522 528.298 L61.8413 528.298 Q65.0878 530.303 66.6474 533.295 Q68.1752 536.287 68.1752 540.616 Q68.1752 546.09 65.1196 549.337 Q62.0323 552.551 56.8761 552.551 Q50.8605 552.551 47.8049 548.541 Q44.7494 544.499 44.7494 536.51 L44.7494 528.298 L44.1765 528.298 Q40.1342 528.298 37.9381 530.972 Q35.7101 533.613 35.7101 538.42 Q35.7101 541.475 36.4421 544.372 Q37.1742 547.268 38.6383 549.942 L33.2275 549.942 Q31.9861 546.727 31.3814 543.703 Q30.7448 540.679 30.7448 537.815 Q30.7448 530.08 34.7552 526.261 Q38.7656 522.442 46.9137 522.442 Z" fill="#000000" fill-rule="nonzero" fill-opacity="1" /><path clip-path="url(#clip160)" d="M17.727 510.379 L17.727 504.522 L67.2522 504.522 L67.2522 510.379 L17.727 510.379 Z" fill="#000000" fill-rule="nonzero" fill-opacity="1" /><path clip-path="url(#clip160)" d="M23.297 457.511 L67.2522 441.056 L67.2522 447.263 L40.8981 457.257 L67.2522 469.543 L67.2522 475.749 L33.0683 460.121 L26.7663 462.477 Q22.7559 463.973 22.7559 467.378 L22.7559 470.434 L17.727 470.434 L17.7906 466.71 Q17.8861 459.517 23.297 457.511 Z" fill="#000000" fill-rule="nonzero" fill-opacity="1" /><path clip-path="url(#clip162)" d="M275.386 876.912 L346.191 876.912 L416.996 876.912 L487.801 876.912 L558.606 876.912 L629.411 876.912 L700.216 876.912 L771.021 876.912 L841.826 876.912 L912.631 876.912 L983.436 876.912 L1054.24 876.912 L1125.05 876.912 L1195.85 913.598 L1266.66 940.07 L1337.46 1003.44 L1408.27 1007.42 L1479.07 1007.42 L1549.88 891.413 L1620.68 876.912 L1691.49 876.912 L1762.29 876.912 L1833.1 876.912 L1903.9 876.912 L1903.9 876.912 L1833.1 876.912 L1762.29 75.2104 L1691.49 75.2104 L1620.68 75.2104 L1549.88 601.127 L1479.07 751.14 L1408.27 785.797 L1337.46 867.5 L1266.66 871.242 L1195.85 876.912 L1125.05 876.912 L1054.24 876.912 L983.436 876.912 L912.631 876.912 L841.826 876.912 L771.021 876.912 L700.216 876.912 L629.411 876.912 L558.606 876.912 L487.801 876.912 L416.996 876.912 L346.191 876.912 L275.386 876.912  Z" fill="#00467f" fill-rule="evenodd" fill-opacity="0.2"/>
<polyline clip-path="url(#clip162)" style="stroke:#00467f; stroke-linecap:round; stroke-linejoin:round; stroke-width:4; stroke-opacity:0; fill:none" points="275.386,876.912 346.191,876.912 416.996,876.912 487.801,876.912 558.606,876.912 629.411,876.912 700.216,876.912 771.021,876.912 841.826,876.912 912.631,876.912 983.436,876.912 1054.24,876.912 1125.05,876.912 1195.85,895.255 1266.66,905.656 1337.46,935.469 1408.27,896.609 1479.07,879.281 1549.88,746.27 1620.68,476.061 1691.49,476.061 1762.29,476.061 1833.1,876.912 1903.9,876.912 "/>
<path clip-path="url(#clip162)" d="M275.386 876.912 L346.191 876.912 L416.996 876.912 L487.801 876.912 L558.606 876.912 L629.411 876.912 L700.216 876.912 L771.021 876.912 L841.826 876.912 L912.631 876.912 L983.436 876.912 L1054.24 876.912 L1125.05 876.912 L1195.85 880.581 L1266.66 940.045 L1337.46 964.006 L1408.27 994.922 L1479.07 1007.42 L1549.88 876.912 L1620.68 876.912 L1691.49 876.912 L1762.29 876.912 L1833.1 876.912 L1903.9 876.912 L1903.9 876.912 L1833.1 876.912 L1762.29 876.912 L1691.49 716.572 L1620.68 620.367 L1549.88 716.572 L1479.07 815.789 L1408.27 844.728 L1337.46 870.234 L1266.66 904.315 L1195.85 876.912 L1125.05 876.912 L1054.24 876.912 L983.436 876.912 L912.631 876.912 L841.826 876.912 L771.021 876.912 L700.216 876.912 L629.411 876.912 L558.606 876.912 L487.801 876.912 L416.996 876.912 L346.191 876.912 L275.386 876.912  Z" fill="#00467f" fill-rule="evenodd" fill-opacity="0.2"/>
<polyline clip-path="url(#clip162)" style="stroke:#00467f; stroke-linecap:round; stroke-linejoin:round; stroke-width:4; stroke-opacity:0; fill:none" points="275.386,876.912 346.191,876.912 416.996,876.912 487.801,876.912 558.606,876.912 629.411,876.912 700.216,876.912 771.021,876.912 841.826,876.912 912.631,876.912 983.436,876.912 1054.24,876.912 1125.05,876.912 1195.85,878.746 1266.66,922.18 1337.46,917.12 1408.27,919.825 1479.07,911.605 1549.88,796.742 1620.68,748.64 1691.49,796.742 1762.29,876.912 1833.1,876.912 1903.9,876.912 "/>
<path clip-path="url(#clip162)" d="M275.386 876.912 L346.191 876.912 L416.996 876.912 L487.801 876.912 L558.606 876.912 L629.411 876.912 L700.216 876.912 L771.021 876.912 L841.826 876.912 L912.631 876.912 L983.436 876.912 L1054.24 876.912 L1125.05 876.912 L1195.85 876.912 L1266.66 928.084 L1337.46 961.639 L1408.27 957.185 L1479.07 1007.42 L1549.88 876.912 L1620.68 876.912 L1691.49 876.912 L1762.29 876.912 L1833.1 876.912 L1903.9 876.912 L1903.9 876.912 L1833.1 876.912 L1762.29 876.912 L1691.49 876.912 L1620.68 780.708 L1549.88 799.949 L1479.07 859.914 L1408.27 888.337 L1337.46 893.35 L1266.66 905.307 L1195.85 876.912 L1125.05 876.912 L1054.24 876.912 L983.436 876.912 L912.631 876.912 L841.826 876.912 L771.021 876.912 L700.216 876.912 L629.411 876.912 L558.606 876.912 L487.801 876.912 L416.996 876.912 L346.191 876.912 L275.386 876.912  Z" fill="#00467f" fill-rule="evenodd" fill-opacity="0.2"/>
<polyline clip-path="url(#clip162)" style="stroke:#00467f; stroke-linecap:round; stroke-linejoin:round; stroke-width:4; stroke-opacity:0; fill:none" points="275.386,876.912 346.191,876.912 416.996,876.912 487.801,876.912 558.606,876.912 629.411,876.912 700.216,876.912 771.021,876.912 841.826,876.912 912.631,876.912 983.436,876.912 1054.24,876.912 1125.05,876.912 1195.85,876.912 1266.66,916.696 1337.46,927.494 1408.27,922.761 1479.07,933.668 1549.88,838.43 1620.68,828.81 1691.49,876.912 1762.29,876.912 1833.1,876.912 1903.9,876.912 "/>
<polyline clip-path="url(#clip162)" style="stroke:#00467f; stroke-linecap:round; stroke-linejoin:round; stroke-width:4; stroke-opacity:1; fill:none" points="275.386,876.912 346.191,876.912 416.996,876.912 487.801,876.912 558.606,876.912 629.411,876.912 700.216,876.912 771.021,876.912 841.826,876.912 912.631,876.912 983.436,876.912 1054.24,876.912 1125.05,876.912 1195.85,876.912 1266.66,921.776 1337.46,922.083 1408.27,929.986 1479.07,1007.42 1549.88,860.878 1620.68,876.912 1691.49,876.912 1762.29,876.912 1833.1,876.912 1903.9,876.912 "/>
</svg>
