<?xml version="1.0" encoding="utf-8"?>
<svg xmlns="http://www.w3.org/2000/svg" xmlns:xlink="http://www.w3.org/1999/xlink" width="600" height="400" viewBox="0 0 2400 1600">
<defs>
  <clipPath id="clip320">
    <rect x="0" y="0" width="2400" height="1600"/>
  </clipPath>
</defs>
<path clip-path="url(#clip320)" d="M0 1600 L2400 1600 L2400 0 L0 0  Z" fill="#ffffff" fill-rule="evenodd" fill-opacity="1"/>
<defs>
  <clipPath id="clip321">
    <rect x="480" y="0" width="1681" height="1600"/>
  </clipPath>
</defs>
<path clip-path="url(#clip320)" d="M232.389 1410.9 L2352.76 1410.9 L2352.76 47.2441 L232.389 47.2441  Z" fill="#ffffff" fill-rule="evenodd" fill-opacity="1"/>
<defs>
  <clipPath id="clip322">
    <rect x="232" y="47" width="2121" height="1365"/>
  </clipPath>
</defs>
<polyline clip-path="url(#clip322)" style="stroke:#000000; stroke-linecap:round; stroke-linejoin:round; stroke-width:2; stroke-opacity:0.1; fill:none" points="692.469,1410.9 692.469,47.2441 "/>
<polyline clip-path="url(#clip322)" style="stroke:#000000; stroke-linecap:round; stroke-linejoin:round; stroke-width:2; stroke-opacity:0.1; fill:none" points="1892.68,1410.9 1892.68,47.2441 "/>
<polyline clip-path="url(#clip322)" style="stroke:#000000; stroke-linecap:round; stroke-linejoin:round; stroke-width:2; stroke-opacity:0.1; fill:none" points="232.389,1283.02 2352.76,1283.02 "/>
<polyline clip-path="url(#clip322)" style="stroke:#000000; stroke-linecap:round; stroke-linejoin:round; stroke-width:2; stroke-opacity:0.1; fill:none" points="232.389,972.132 2352.76,972.132 "/>
<polyline clip-path="url(#clip322)" style="stroke:#000000; stroke-linecap:round; stroke-linejoin:round; stroke-width:2; stroke-opacity:0.1; fill:none" points="232.389,661.244 2352.76,661.244 "/>
<polyline clip-path="url(#clip322)" style="stroke:#000000; stroke-linecap:round; stroke-linejoin:round; stroke-width:2; stroke-opacity:0.1; fill:none" points="232.389,350.356 2352.76,350.356 "/>
<polyline clip-path="url(#clip320)" style="stroke:#000000; stroke-linecap:round; stroke-linejoin:round; stroke-width:4; stroke-opacity:1; fill:none" points="232.389,1410.9 2352.76,1410.9 "/>
<polyline clip-path="url(#clip320)" style="stroke:#000000; stroke-linecap:round; stroke-linejoin:round; stroke-width:4; stroke-opacity:1; fill:none" points="692.469,1410.9 692.469,1392 "/>
<polyline clip-path="url(#clip320)" style="stroke:#000000; stroke-linecap:round; stroke-linejoin:round; stroke-width:4; stroke-opacity:1; fill:none" points="1892.68,1410.9 1892.68,1392 "/>
<path clip-path="url(#clip320)" d="M642.349 1485.02 L649.988 1485.02 L649.988 1458.66 L641.678 1460.32 L641.678 1456.06 L649.942 1454.4 L654.618 1454.4 L654.618 1485.02 L662.256 1485.02 L662.256 1488.96 L642.349 1488.96 L642.349 1485.02 Z" fill="#000000" fill-rule="nonzero" fill-opacity="1" /><path clip-path="url(#clip320)" d="M681.701 1457.48 Q678.09 1457.48 676.261 1461.04 Q674.455 1464.58 674.455 1471.71 Q674.455 1478.82 676.261 1482.38 Q678.09 1485.92 681.701 1485.92 Q685.335 1485.92 687.14 1482.38 Q688.969 1478.82 688.969 1471.71 Q688.969 1464.58 687.14 1461.04 Q685.335 1457.48 681.701 1457.48 M681.701 1453.77 Q687.511 1453.77 690.566 1458.38 Q693.645 1462.96 693.645 1471.71 Q693.645 1480.44 690.566 1485.04 Q687.511 1489.63 681.701 1489.63 Q675.891 1489.63 672.812 1485.04 Q669.756 1480.44 669.756 1471.71 Q669.756 1462.96 672.812 1458.38 Q675.891 1453.77 681.701 1453.77 Z" fill="#000000" fill-rule="nonzero" fill-opacity="1" /><path clip-path="url(#clip320)" d="M693.645 1447.87 L717.757 1447.87 L717.757 1451.07 L693.645 1451.07 L693.645 1447.87 Z" fill="#000000" fill-rule="nonzero" fill-opacity="1" /><path clip-path="url(#clip320)" d="M737.467 1446.41 Q740.194 1446.99 741.718 1448.83 Q743.26 1450.68 743.26 1453.38 Q743.26 1457.54 740.401 1459.82 Q737.542 1462.09 732.276 1462.09 Q730.508 1462.09 728.628 1461.73 Q726.766 1461.4 724.772 1460.7 L724.772 1457.03 Q726.352 1457.95 728.233 1458.42 Q730.113 1458.89 732.163 1458.89 Q735.737 1458.89 737.599 1457.48 Q739.48 1456.07 739.48 1453.38 Q739.48 1450.9 737.731 1449.51 Q736 1448.1 732.897 1448.1 L729.624 1448.1 L729.624 1444.98 L733.047 1444.98 Q735.85 1444.98 737.336 1443.87 Q738.821 1442.74 738.821 1440.63 Q738.821 1438.47 737.279 1437.32 Q735.756 1436.16 732.897 1436.16 Q731.336 1436.16 729.549 1436.49 Q727.762 1436.83 725.618 1437.55 L725.618 1434.16 Q727.781 1433.56 729.662 1433.26 Q731.562 1432.96 733.235 1432.96 Q737.561 1432.96 740.081 1434.93 Q742.602 1436.89 742.602 1440.24 Q742.602 1442.57 741.266 1444.19 Q739.931 1445.79 737.467 1446.41 Z" fill="#000000" fill-rule="nonzero" fill-opacity="1" /><path clip-path="url(#clip320)" d="M1857.66 1485.02 L1865.3 1485.02 L1865.3 1458.66 L1856.99 1460.32 L1856.99 1456.06 L1865.25 1454.4 L1869.93 1454.4 L1869.93 1485.02 L1877.57 1485.02 L1877.57 1488.96 L1857.66 1488.96 L1857.66 1485.02 Z" fill="#000000" fill-rule="nonzero" fill-opacity="1" /><path clip-path="url(#clip320)" d="M1897.01 1457.48 Q1893.4 1457.48 1891.57 1461.04 Q1889.77 1464.58 1889.77 1471.71 Q1889.77 1478.82 1891.57 1482.38 Q1893.4 1485.92 1897.01 1485.92 Q1900.65 1485.92 1902.45 1482.38 Q1904.28 1478.82 1904.28 1471.71 Q1904.28 1464.58 1902.45 1461.04 Q1900.65 1457.48 1897.01 1457.48 M1897.01 1453.77 Q1902.82 1453.77 1905.88 1458.38 Q1908.96 1462.96 1908.96 1471.71 Q1908.96 1480.44 1905.88 1485.04 Q1902.82 1489.63 1897.01 1489.63 Q1891.2 1489.63 1888.12 1485.04 Q1885.07 1480.44 1885.07 1471.71 Q1885.07 1462.96 1888.12 1458.38 Q1891.2 1453.77 1897.01 1453.77 Z" fill="#000000" fill-rule="nonzero" fill-opacity="1" /><path clip-path="url(#clip320)" d="M1918.66 1435.97 Q1915.73 1435.97 1914.24 1438.86 Q1912.77 1441.74 1912.77 1447.53 Q1912.77 1453.31 1914.24 1456.2 Q1915.73 1459.08 1918.66 1459.08 Q1921.61 1459.08 1923.08 1456.2 Q1924.57 1453.31 1924.57 1447.53 Q1924.57 1441.74 1923.08 1438.86 Q1921.61 1435.97 1918.66 1435.97 M1918.66 1432.96 Q1923.38 1432.96 1925.86 1436.7 Q1928.36 1440.43 1928.36 1447.53 Q1928.36 1454.62 1925.86 1458.37 Q1923.38 1462.09 1918.66 1462.09 Q1913.94 1462.09 1911.44 1458.37 Q1908.96 1454.62 1908.96 1447.53 Q1908.96 1440.43 1911.44 1436.7 Q1913.94 1432.96 1918.66 1432.96 Z" fill="#000000" fill-rule="nonzero" fill-opacity="1" /><path clip-path="url(#clip320)" d="M889.942 1551.91 Q892.011 1552.61 893.952 1554.9 Q895.925 1557.19 897.899 1561.2 L904.424 1574.19 L897.517 1574.19 L891.438 1562 Q889.082 1557.22 886.854 1555.66 Q884.658 1554.1 880.839 1554.1 L873.836 1554.1 L873.836 1574.19 L867.407 1574.19 L867.407 1526.67 L881.921 1526.67 Q890.069 1526.67 894.079 1530.07 Q898.09 1533.48 898.09 1540.35 Q898.09 1544.84 895.989 1547.8 Q893.92 1550.76 889.942 1551.91 M873.836 1531.95 L873.836 1548.82 L881.921 1548.82 Q886.568 1548.82 888.923 1546.69 Q891.31 1544.52 891.31 1540.35 Q891.31 1536.18 888.923 1534.08 Q886.568 1531.95 881.921 1531.95 L873.836 1531.95 Z" fill="#000000" fill-rule="nonzero" fill-opacity="1" /><path clip-path="url(#clip320)" d="M912.444 1538.54 L918.301 1538.54 L918.301 1574.19 L912.444 1574.19 L912.444 1538.54 M912.444 1524.66 L918.301 1524.66 L918.301 1532.08 L912.444 1532.08 L912.444 1524.66 Z" fill="#000000" fill-rule="nonzero" fill-opacity="1" /><path clip-path="url(#clip320)" d="M953.28 1539.59 L953.28 1545.13 Q950.798 1543.85 948.124 1543.22 Q945.451 1542.58 942.586 1542.58 Q938.226 1542.58 936.029 1543.92 Q933.865 1545.25 933.865 1547.93 Q933.865 1549.96 935.425 1551.14 Q936.984 1552.29 941.695 1553.34 L943.7 1553.78 Q949.938 1555.12 952.548 1557.57 Q955.19 1559.99 955.19 1564.35 Q955.19 1569.32 951.243 1572.21 Q947.329 1575.11 940.454 1575.11 Q937.589 1575.11 934.47 1574.54 Q931.382 1573.99 927.945 1572.88 L927.945 1566.83 Q931.191 1568.52 934.342 1569.38 Q937.494 1570.21 940.581 1570.21 Q944.719 1570.21 946.947 1568.81 Q949.175 1567.37 949.175 1564.8 Q949.175 1562.41 947.551 1561.14 Q945.96 1559.86 940.517 1558.68 L938.48 1558.21 Q933.038 1557.06 930.619 1554.71 Q928.2 1552.32 928.2 1548.18 Q928.2 1543.15 931.764 1540.42 Q935.329 1537.68 941.886 1537.68 Q945.132 1537.68 947.997 1538.16 Q950.861 1538.63 953.28 1539.59 Z" fill="#000000" fill-rule="nonzero" fill-opacity="1" /><path clip-path="url(#clip320)" d="M964.293 1524.66 L970.181 1524.66 L970.181 1553.91 L987.655 1538.54 L995.135 1538.54 L976.229 1555.22 L995.931 1574.19 L988.292 1574.19 L970.181 1556.78 L970.181 1574.19 L964.293 1574.19 L964.293 1524.66 Z" fill="#000000" fill-rule="nonzero" fill-opacity="1" /><path clip-path="url(#clip320)" d="M1039.19 1556.27 Q1032.09 1556.27 1029.35 1557.89 Q1026.61 1559.51 1026.61 1563.43 Q1026.61 1566.55 1028.65 1568.39 Q1030.72 1570.21 1034.25 1570.21 Q1039.12 1570.21 1042.05 1566.77 Q1045.01 1563.3 1045.01 1557.57 L1045.01 1556.27 L1039.19 1556.27 M1050.87 1553.85 L1050.87 1574.19 L1045.01 1574.19 L1045.01 1568.77 Q1043.01 1572.02 1040.01 1573.58 Q1037.02 1575.11 1032.69 1575.11 Q1027.22 1575.11 1023.97 1572.05 Q1020.76 1568.97 1020.76 1563.81 Q1020.76 1557.79 1024.77 1554.74 Q1028.81 1551.68 1036.8 1551.68 L1045.01 1551.68 L1045.01 1551.11 Q1045.01 1547.07 1042.34 1544.87 Q1039.69 1542.64 1034.89 1542.64 Q1031.83 1542.64 1028.94 1543.38 Q1026.04 1544.11 1023.37 1545.57 L1023.37 1540.16 Q1026.58 1538.92 1029.61 1538.31 Q1032.63 1537.68 1035.49 1537.68 Q1043.23 1537.68 1047.05 1541.69 Q1050.87 1545.7 1050.87 1553.85 Z" fill="#000000" fill-rule="nonzero" fill-opacity="1" /><path clip-path="url(#clip320)" d="M1058.73 1538.54 L1064.93 1538.54 L1076.07 1568.46 L1087.21 1538.54 L1093.42 1538.54 L1080.05 1574.19 L1072.1 1574.19 L1058.73 1538.54 Z" fill="#000000" fill-rule="nonzero" fill-opacity="1" /><path clip-path="url(#clip320)" d="M1132 1554.9 L1132 1557.76 L1105.07 1557.76 Q1105.45 1563.81 1108.7 1566.99 Q1111.98 1570.14 1117.8 1570.14 Q1121.18 1570.14 1124.33 1569.32 Q1127.51 1568.49 1130.63 1566.83 L1130.63 1572.37 Q1127.48 1573.71 1124.17 1574.41 Q1120.86 1575.11 1117.45 1575.11 Q1108.92 1575.11 1103.92 1570.14 Q1098.96 1565.18 1098.96 1556.71 Q1098.96 1547.96 1103.67 1542.83 Q1108.41 1537.68 1116.43 1537.68 Q1123.63 1537.68 1127.8 1542.33 Q1132 1546.94 1132 1554.9 M1126.14 1553.18 Q1126.08 1548.37 1123.44 1545.51 Q1120.83 1542.64 1116.5 1542.64 Q1111.6 1542.64 1108.64 1545.41 Q1105.71 1548.18 1105.26 1553.21 L1126.14 1553.18 Z" fill="#000000" fill-rule="nonzero" fill-opacity="1" /><path clip-path="url(#clip320)" d="M1162.27 1544.01 Q1161.28 1543.44 1160.1 1543.18 Q1158.96 1542.9 1157.56 1542.9 Q1152.59 1542.9 1149.92 1546.14 Q1147.28 1549.36 1147.28 1555.41 L1147.28 1574.19 L1141.39 1574.19 L1141.39 1538.54 L1147.28 1538.54 L1147.28 1544.08 Q1149.12 1540.83 1152.08 1539.27 Q1155.04 1537.68 1159.27 1537.68 Q1159.88 1537.68 1160.61 1537.77 Q1161.34 1537.84 1162.23 1538 L1162.27 1544.01 Z" fill="#000000" fill-rule="nonzero" fill-opacity="1" /><path clip-path="url(#clip320)" d="M1191.14 1539.59 L1191.14 1545.13 Q1188.65 1543.85 1185.98 1543.22 Q1183.31 1542.58 1180.44 1542.58 Q1176.08 1542.58 1173.88 1543.92 Q1171.72 1545.25 1171.72 1547.93 Q1171.72 1549.96 1173.28 1551.14 Q1174.84 1552.29 1179.55 1553.34 L1181.55 1553.78 Q1187.79 1555.12 1190.4 1557.57 Q1193.04 1559.99 1193.04 1564.35 Q1193.04 1569.32 1189.1 1572.21 Q1185.18 1575.11 1178.31 1575.11 Q1175.44 1575.11 1172.32 1574.54 Q1169.24 1573.99 1165.8 1572.88 L1165.8 1566.83 Q1169.05 1568.52 1172.2 1569.38 Q1175.35 1570.21 1178.44 1570.21 Q1182.57 1570.21 1184.8 1568.81 Q1187.03 1567.37 1187.03 1564.8 Q1187.03 1562.41 1185.41 1561.14 Q1183.81 1559.86 1178.37 1558.68 L1176.33 1558.21 Q1170.89 1557.06 1168.47 1554.71 Q1166.05 1552.32 1166.05 1548.18 Q1166.05 1543.15 1169.62 1540.42 Q1173.18 1537.68 1179.74 1537.68 Q1182.99 1537.68 1185.85 1538.16 Q1188.72 1538.63 1191.14 1539.59 Z" fill="#000000" fill-rule="nonzero" fill-opacity="1" /><path clip-path="url(#clip320)" d="M1202.37 1538.54 L1208.23 1538.54 L1208.23 1574.19 L1202.37 1574.19 L1202.37 1538.54 M1202.37 1524.66 L1208.23 1524.66 L1208.23 1532.08 L1202.37 1532.08 L1202.37 1524.66 Z" fill="#000000" fill-rule="nonzero" fill-opacity="1" /><path clip-path="url(#clip320)" d="M1234.29 1542.64 Q1229.58 1542.64 1226.85 1546.34 Q1224.11 1550 1224.11 1556.39 Q1224.11 1562.79 1226.81 1566.48 Q1229.55 1570.14 1234.29 1570.14 Q1238.97 1570.14 1241.71 1566.45 Q1244.45 1562.76 1244.45 1556.39 Q1244.45 1550.06 1241.71 1546.37 Q1238.97 1542.64 1234.29 1542.64 M1234.29 1537.68 Q1241.93 1537.68 1246.29 1542.64 Q1250.65 1547.61 1250.65 1556.39 Q1250.65 1565.15 1246.29 1570.14 Q1241.93 1575.11 1234.29 1575.11 Q1226.62 1575.11 1222.26 1570.14 Q1217.93 1565.15 1217.93 1556.39 Q1217.93 1547.61 1222.26 1542.64 Q1226.62 1537.68 1234.29 1537.68 Z" fill="#000000" fill-rule="nonzero" fill-opacity="1" /><path clip-path="url(#clip320)" d="M1289.99 1552.67 L1289.99 1574.19 L1284.14 1574.19 L1284.14 1552.86 Q1284.14 1547.8 1282.16 1545.29 Q1280.19 1542.77 1276.24 1542.77 Q1271.5 1542.77 1268.76 1545.79 Q1266.03 1548.82 1266.03 1554.04 L1266.03 1574.19 L1260.14 1574.19 L1260.14 1538.54 L1266.03 1538.54 L1266.03 1544.08 Q1268.13 1540.86 1270.96 1539.27 Q1273.83 1537.68 1277.55 1537.68 Q1283.69 1537.68 1286.84 1541.5 Q1289.99 1545.29 1289.99 1552.67 Z" fill="#000000" fill-rule="nonzero" fill-opacity="1" /><path clip-path="url(#clip320)" d="M1328.06 1568.84 L1328.06 1587.74 L1322.17 1587.74 L1322.17 1538.54 L1328.06 1538.54 L1328.06 1543.95 Q1329.91 1540.77 1332.71 1539.24 Q1335.54 1537.68 1339.46 1537.68 Q1345.95 1537.68 1349.99 1542.83 Q1354.07 1547.99 1354.07 1556.39 Q1354.07 1564.8 1349.99 1569.95 Q1345.95 1575.11 1339.46 1575.11 Q1335.54 1575.11 1332.71 1573.58 Q1329.91 1572.02 1328.06 1568.84 M1347.99 1556.39 Q1347.99 1549.93 1345.31 1546.27 Q1342.67 1542.58 1338.02 1542.58 Q1333.38 1542.58 1330.7 1546.27 Q1328.06 1549.93 1328.06 1556.39 Q1328.06 1562.85 1330.7 1566.55 Q1333.38 1570.21 1338.02 1570.21 Q1342.67 1570.21 1345.31 1566.55 Q1347.99 1562.85 1347.99 1556.39 Z" fill="#000000" fill-rule="nonzero" fill-opacity="1" /><path clip-path="url(#clip320)" d="M1379.97 1556.27 Q1372.88 1556.27 1370.14 1557.89 Q1367.4 1559.51 1367.4 1563.43 Q1367.4 1566.55 1369.44 1568.39 Q1371.51 1570.21 1375.04 1570.21 Q1379.91 1570.21 1382.84 1566.77 Q1385.8 1563.3 1385.8 1557.57 L1385.8 1556.27 L1379.97 1556.27 M1391.65 1553.85 L1391.65 1574.19 L1385.8 1574.19 L1385.8 1568.77 Q1383.79 1572.02 1380.8 1573.58 Q1377.81 1575.11 1373.48 1575.11 Q1368.01 1575.11 1364.76 1572.05 Q1361.55 1568.97 1361.55 1563.81 Q1361.55 1557.79 1365.56 1554.74 Q1369.6 1551.68 1377.59 1551.68 L1385.8 1551.68 L1385.8 1551.11 Q1385.8 1547.07 1383.12 1544.87 Q1380.48 1542.64 1375.68 1542.64 Q1372.62 1542.64 1369.72 1543.38 Q1366.83 1544.11 1364.15 1545.57 L1364.15 1540.16 Q1367.37 1538.92 1370.39 1538.31 Q1373.42 1537.68 1376.28 1537.68 Q1384.02 1537.68 1387.84 1541.69 Q1391.65 1545.7 1391.65 1553.85 Z" fill="#000000" fill-rule="nonzero" fill-opacity="1" /><path clip-path="url(#clip320)" d="M1424.37 1544.01 Q1423.39 1543.44 1422.21 1543.18 Q1421.06 1542.9 1419.66 1542.9 Q1414.7 1542.9 1412.03 1546.14 Q1409.38 1549.36 1409.38 1555.41 L1409.38 1574.19 L1403.5 1574.19 L1403.5 1538.54 L1409.38 1538.54 L1409.38 1544.08 Q1411.23 1540.83 1414.19 1539.27 Q1417.15 1537.68 1421.38 1537.68 Q1421.99 1537.68 1422.72 1537.77 Q1423.45 1537.84 1424.34 1538 L1424.37 1544.01 Z" fill="#000000" fill-rule="nonzero" fill-opacity="1" /><path clip-path="url(#clip320)" d="M1446.72 1556.27 Q1439.62 1556.27 1436.88 1557.89 Q1434.15 1559.51 1434.15 1563.43 Q1434.15 1566.55 1436.18 1568.39 Q1438.25 1570.21 1441.78 1570.21 Q1446.65 1570.21 1449.58 1566.77 Q1452.54 1563.3 1452.54 1557.57 L1452.54 1556.27 L1446.72 1556.27 M1458.4 1553.85 L1458.4 1574.19 L1452.54 1574.19 L1452.54 1568.77 Q1450.54 1572.02 1447.55 1573.58 Q1444.55 1575.11 1440.23 1575.11 Q1434.75 1575.11 1431.5 1572.05 Q1428.29 1568.97 1428.29 1563.81 Q1428.29 1557.79 1432.3 1554.74 Q1436.34 1551.68 1444.33 1551.68 L1452.54 1551.68 L1452.54 1551.11 Q1452.54 1547.07 1449.87 1544.87 Q1447.23 1542.64 1442.42 1542.64 Q1439.37 1542.64 1436.47 1543.38 Q1433.57 1544.11 1430.9 1545.57 L1430.9 1540.16 Q1434.11 1538.92 1437.14 1538.31 Q1440.16 1537.68 1443.03 1537.68 Q1450.76 1537.68 1454.58 1541.69 Q1458.4 1545.7 1458.4 1553.85 Z" fill="#000000" fill-rule="nonzero" fill-opacity="1" /><path clip-path="url(#clip320)" d="M1498.22 1545.38 Q1500.41 1541.43 1503.47 1539.56 Q1506.52 1537.68 1510.66 1537.68 Q1516.23 1537.68 1519.26 1541.59 Q1522.28 1545.48 1522.28 1552.67 L1522.28 1574.19 L1516.39 1574.19 L1516.39 1552.86 Q1516.39 1547.74 1514.58 1545.25 Q1512.76 1542.77 1509.04 1542.77 Q1504.49 1542.77 1501.85 1545.79 Q1499.2 1548.82 1499.2 1554.04 L1499.2 1574.19 L1493.32 1574.19 L1493.32 1552.86 Q1493.32 1547.7 1491.5 1545.25 Q1489.69 1542.77 1485.9 1542.77 Q1481.41 1542.77 1478.77 1545.83 Q1476.13 1548.85 1476.13 1554.04 L1476.13 1574.19 L1470.24 1574.19 L1470.24 1538.54 L1476.13 1538.54 L1476.13 1544.08 Q1478.13 1540.8 1480.93 1539.24 Q1483.73 1537.68 1487.59 1537.68 Q1491.47 1537.68 1494.17 1539.65 Q1496.91 1541.62 1498.22 1545.38 Z" fill="#000000" fill-rule="nonzero" fill-opacity="1" /><path clip-path="url(#clip320)" d="M1564.45 1554.9 L1564.45 1557.76 L1537.53 1557.76 Q1537.91 1563.81 1541.15 1566.99 Q1544.43 1570.14 1550.26 1570.14 Q1553.63 1570.14 1556.78 1569.32 Q1559.96 1568.49 1563.08 1566.83 L1563.08 1572.37 Q1559.93 1573.71 1556.62 1574.41 Q1553.31 1575.11 1549.91 1575.11 Q1541.38 1575.11 1536.38 1570.14 Q1531.41 1565.18 1531.41 1556.71 Q1531.41 1547.96 1536.12 1542.83 Q1540.87 1537.68 1548.89 1537.68 Q1556.08 1537.68 1560.25 1542.33 Q1564.45 1546.94 1564.45 1554.9 M1558.6 1553.18 Q1558.53 1548.37 1555.89 1545.51 Q1553.28 1542.64 1548.95 1542.64 Q1544.05 1542.64 1541.09 1545.41 Q1538.16 1548.18 1537.72 1553.21 L1558.6 1553.18 Z" fill="#000000" fill-rule="nonzero" fill-opacity="1" /><path clip-path="url(#clip320)" d="M1579.86 1528.42 L1579.86 1538.54 L1591.92 1538.54 L1591.92 1543.09 L1579.86 1543.09 L1579.86 1562.44 Q1579.86 1566.8 1581.03 1568.04 Q1582.24 1569.28 1585.9 1569.28 L1591.92 1569.28 L1591.92 1574.19 L1585.9 1574.19 Q1579.12 1574.19 1576.55 1571.67 Q1573.97 1569.12 1573.97 1562.44 L1573.97 1543.09 L1569.67 1543.09 L1569.67 1538.54 L1573.97 1538.54 L1573.97 1528.42 L1579.86 1528.42 Z" fill="#000000" fill-rule="nonzero" fill-opacity="1" /><path clip-path="url(#clip320)" d="M1630.11 1554.9 L1630.11 1557.76 L1603.19 1557.76 Q1603.57 1563.81 1606.82 1566.99 Q1610.09 1570.14 1615.92 1570.14 Q1619.29 1570.14 1622.44 1569.32 Q1625.63 1568.49 1628.75 1566.83 L1628.75 1572.37 Q1625.59 1573.71 1622.28 1574.41 Q1618.97 1575.11 1615.57 1575.11 Q1607.04 1575.11 1602.04 1570.14 Q1597.08 1565.18 1597.08 1556.71 Q1597.08 1547.96 1601.79 1542.83 Q1606.53 1537.68 1614.55 1537.68 Q1621.74 1537.68 1625.91 1542.33 Q1630.11 1546.94 1630.11 1554.9 M1624.26 1553.18 Q1624.19 1548.37 1621.55 1545.51 Q1618.94 1542.64 1614.61 1542.64 Q1609.71 1542.64 1606.75 1545.41 Q1603.82 1548.18 1603.38 1553.21 L1624.26 1553.18 Z" fill="#000000" fill-rule="nonzero" fill-opacity="1" /><path clip-path="url(#clip320)" d="M1660.38 1544.01 Q1659.4 1543.44 1658.22 1543.18 Q1657.07 1542.9 1655.67 1542.9 Q1650.71 1542.9 1648.03 1546.14 Q1645.39 1549.36 1645.39 1555.41 L1645.39 1574.19 L1639.5 1574.19 L1639.5 1538.54 L1645.39 1538.54 L1645.39 1544.08 Q1647.24 1540.83 1650.2 1539.27 Q1653.16 1537.68 1657.39 1537.68 Q1658 1537.68 1658.73 1537.77 Q1659.46 1537.84 1660.35 1538 L1660.38 1544.01 Z" fill="#000000" fill-rule="nonzero" fill-opacity="1" /><path clip-path="url(#clip320)" d="M1692.59 1544.14 L1700.39 1566.16 L1711.53 1538.54 L1717.74 1538.54 L1703.32 1574.19 L1703.32 1587.74 L1697.46 1587.74 L1697.46 1574.19 L1688.11 1547.58 Q1686.71 1543.57 1683.68 1543.57 L1682.12 1543.57 L1682.12 1538.54 L1684.35 1538.54 Q1690.62 1538.54 1692.59 1544.14 Z" fill="#000000" fill-rule="nonzero" fill-opacity="1" /><polyline clip-path="url(#clip320)" style="stroke:#000000; stroke-linecap:round; stroke-linejoin:round; stroke-width:4; stroke-opacity:1; fill:none" points="232.389,1410.9 232.389,47.2441 "/>
<polyline clip-path="url(#clip320)" style="stroke:#000000; stroke-linecap:round; stroke-linejoin:round; stroke-width:4; stroke-opacity:1; fill:none" points="232.389,1283.02 251.287,1283.02 "/>
<polyline clip-path="url(#clip320)" style="stroke:#000000; stroke-linecap:round; stroke-linejoin:round; stroke-width:4; stroke-opacity:1; fill:none" points="232.389,972.132 251.287,972.132 "/>
<polyline clip-path="url(#clip320)" style="stroke:#000000; stroke-linecap:round; stroke-linejoin:round; stroke-width:4; stroke-opacity:1; fill:none" points="232.389,661.244 251.287,661.244 "/>
<polyline clip-path="url(#clip320)" style="stroke:#000000; stroke-linecap:round; stroke-linejoin:round; stroke-width:4; stroke-opacity:1; fill:none" points="232.389,350.356 251.287,350.356 "/>
<path clip-path="url(#clip320)" d="M114.931 1296.36 L122.57 1296.36 L122.57 1270 L114.26 1271.67 L114.26 1267.41 L122.524 1265.74 L127.2 1265.74 L127.2 1296.36 L134.839 1296.36 L134.839 1300.3 L114.931 1300.3 L114.931 1296.36 Z" fill="#000000" fill-rule="nonzero" fill-opacity="1" /><path clip-path="url(#clip320)" d="M154.862 1281.16 Q151.714 1281.16 149.862 1283.31 Q148.033 1285.46 148.033 1289.21 Q148.033 1292.94 149.862 1295.11 Q151.714 1297.27 154.862 1297.27 Q158.01 1297.27 159.839 1295.11 Q161.69 1292.94 161.69 1289.21 Q161.69 1285.46 159.839 1283.31 Q158.01 1281.16 154.862 1281.16 M164.144 1266.5 L164.144 1270.76 Q162.385 1269.93 160.579 1269.49 Q158.797 1269.05 157.038 1269.05 Q152.408 1269.05 149.954 1272.17 Q147.524 1275.3 147.177 1281.62 Q148.542 1279.6 150.603 1278.54 Q152.663 1277.45 155.14 1277.45 Q160.348 1277.45 163.357 1280.62 Q166.39 1283.77 166.39 1289.21 Q166.39 1294.54 163.241 1297.75 Q160.093 1300.97 154.862 1300.97 Q148.866 1300.97 145.695 1296.39 Q142.524 1291.78 142.524 1283.05 Q142.524 1274.86 146.413 1270 Q150.302 1265.11 156.853 1265.11 Q158.612 1265.11 160.394 1265.46 Q162.2 1265.81 164.144 1266.5 Z" fill="#000000" fill-rule="nonzero" fill-opacity="1" /><path clip-path="url(#clip320)" d="M184.445 1268.82 Q180.834 1268.82 179.005 1272.38 Q177.2 1275.92 177.2 1283.05 Q177.2 1290.16 179.005 1293.73 Q180.834 1297.27 184.445 1297.27 Q188.079 1297.27 189.885 1293.73 Q191.713 1290.16 191.713 1283.05 Q191.713 1275.92 189.885 1272.38 Q188.079 1268.82 184.445 1268.82 M184.445 1265.11 Q190.255 1265.11 193.311 1269.72 Q196.389 1274.3 196.389 1283.05 Q196.389 1291.78 193.311 1296.39 Q190.255 1300.97 184.445 1300.97 Q178.635 1300.97 175.556 1296.39 Q172.501 1291.78 172.501 1283.05 Q172.501 1274.3 175.556 1269.72 Q178.635 1265.11 184.445 1265.11 Z" fill="#000000" fill-rule="nonzero" fill-opacity="1" /><path clip-path="url(#clip320)" d="M114.931 985.476 L122.57 985.476 L122.57 959.111 L114.26 960.777 L114.26 956.518 L122.524 954.852 L127.2 954.852 L127.2 985.476 L134.839 985.476 L134.839 989.412 L114.931 989.412 L114.931 985.476 Z" fill="#000000" fill-rule="nonzero" fill-opacity="1" /><path clip-path="url(#clip320)" d="M143.103 954.852 L165.325 954.852 L165.325 956.842 L152.778 989.412 L147.894 989.412 L159.7 958.787 L143.103 958.787 L143.103 954.852 Z" fill="#000000" fill-rule="nonzero" fill-opacity="1" /><path clip-path="url(#clip320)" d="M184.445 957.93 Q180.834 957.93 179.005 961.495 Q177.2 965.037 177.2 972.166 Q177.2 979.273 179.005 982.838 Q180.834 986.379 184.445 986.379 Q188.079 986.379 189.885 982.838 Q191.713 979.273 191.713 972.166 Q191.713 965.037 189.885 961.495 Q188.079 957.93 184.445 957.93 M184.445 954.227 Q190.255 954.227 193.311 958.833 Q196.389 963.416 196.389 972.166 Q196.389 980.893 193.311 985.5 Q190.255 990.083 184.445 990.083 Q178.635 990.083 175.556 985.5 Q172.501 980.893 172.501 972.166 Q172.501 963.416 175.556 958.833 Q178.635 954.227 184.445 954.227 Z" fill="#000000" fill-rule="nonzero" fill-opacity="1" /><path clip-path="url(#clip320)" d="M114.931 674.589 L122.57 674.589 L122.57 648.223 L114.26 649.89 L114.26 645.631 L122.524 643.964 L127.2 643.964 L127.2 674.589 L134.839 674.589 L134.839 678.524 L114.931 678.524 L114.931 674.589 Z" fill="#000000" fill-rule="nonzero" fill-opacity="1" /><path clip-path="url(#clip320)" d="M154.283 662.112 Q150.95 662.112 149.028 663.894 Q147.13 665.677 147.13 668.802 Q147.13 671.927 149.028 673.709 Q150.95 675.491 154.283 675.491 Q157.616 675.491 159.538 673.709 Q161.459 671.904 161.459 668.802 Q161.459 665.677 159.538 663.894 Q157.64 662.112 154.283 662.112 M149.607 660.121 Q146.598 659.38 144.908 657.32 Q143.241 655.26 143.241 652.297 Q143.241 648.154 146.181 645.746 Q149.144 643.339 154.283 643.339 Q159.445 643.339 162.385 645.746 Q165.325 648.154 165.325 652.297 Q165.325 655.26 163.635 657.32 Q161.968 659.38 158.982 660.121 Q162.362 660.908 164.237 663.2 Q166.135 665.492 166.135 668.802 Q166.135 673.825 163.056 676.51 Q160.001 679.195 154.283 679.195 Q148.566 679.195 145.487 676.51 Q142.431 673.825 142.431 668.802 Q142.431 665.492 144.329 663.2 Q146.228 660.908 149.607 660.121 M147.894 652.737 Q147.894 655.422 149.561 656.927 Q151.251 658.431 154.283 658.431 Q157.292 658.431 158.982 656.927 Q160.695 655.422 160.695 652.737 Q160.695 650.052 158.982 648.547 Q157.292 647.043 154.283 647.043 Q151.251 647.043 149.561 648.547 Q147.894 650.052 147.894 652.737 Z" fill="#000000" fill-rule="nonzero" fill-opacity="1" /><path clip-path="url(#clip320)" d="M184.445 647.043 Q180.834 647.043 179.005 650.607 Q177.2 654.149 177.2 661.279 Q177.2 668.385 179.005 671.95 Q180.834 675.491 184.445 675.491 Q188.079 675.491 189.885 671.95 Q191.713 668.385 191.713 661.279 Q191.713 654.149 189.885 650.607 Q188.079 647.043 184.445 647.043 M184.445 643.339 Q190.255 643.339 193.311 647.945 Q196.389 652.529 196.389 661.279 Q196.389 670.005 193.311 674.612 Q190.255 679.195 184.445 679.195 Q178.635 679.195 175.556 674.612 Q172.501 670.005 172.501 661.279 Q172.501 652.529 175.556 647.945 Q178.635 643.339 184.445 643.339 Z" fill="#000000" fill-rule="nonzero" fill-opacity="1" /><path clip-path="url(#clip320)" d="M114.931 363.701 L122.57 363.701 L122.57 337.335 L114.26 339.002 L114.26 334.743 L122.524 333.076 L127.2 333.076 L127.2 363.701 L134.839 363.701 L134.839 367.636 L114.931 367.636 L114.931 363.701 Z" fill="#000000" fill-rule="nonzero" fill-opacity="1" /><path clip-path="url(#clip320)" d="M144.422 366.919 L144.422 362.659 Q146.181 363.493 147.987 363.932 Q149.792 364.372 151.528 364.372 Q156.158 364.372 158.589 361.27 Q161.042 358.145 161.39 351.803 Q160.047 353.794 157.987 354.858 Q155.927 355.923 153.427 355.923 Q148.241 355.923 145.209 352.798 Q142.2 349.65 142.2 344.21 Q142.2 338.886 145.348 335.669 Q148.496 332.451 153.728 332.451 Q159.723 332.451 162.871 337.058 Q166.042 341.641 166.042 350.391 Q166.042 358.562 162.153 363.446 Q158.288 368.307 151.737 368.307 Q149.978 368.307 148.172 367.96 Q146.366 367.613 144.422 366.919 M153.728 352.266 Q156.876 352.266 158.704 350.113 Q160.556 347.96 160.556 344.21 Q160.556 340.484 158.704 338.331 Q156.876 336.155 153.728 336.155 Q150.579 336.155 148.728 338.331 Q146.899 340.484 146.899 344.21 Q146.899 347.96 148.728 350.113 Q150.579 352.266 153.728 352.266 Z" fill="#000000" fill-rule="nonzero" fill-opacity="1" /><path clip-path="url(#clip320)" d="M184.445 336.155 Q180.834 336.155 179.005 339.72 Q177.2 343.261 177.2 350.391 Q177.2 357.497 179.005 361.062 Q180.834 364.604 184.445 364.604 Q188.079 364.604 189.885 361.062 Q191.713 357.497 191.713 350.391 Q191.713 343.261 189.885 339.72 Q188.079 336.155 184.445 336.155 M184.445 332.451 Q190.255 332.451 193.311 337.058 Q196.389 341.641 196.389 350.391 Q196.389 359.118 193.311 363.724 Q190.255 368.307 184.445 368.307 Q178.635 368.307 175.556 363.724 Q172.501 359.118 172.501 350.391 Q172.501 341.641 175.556 337.058 Q178.635 332.451 184.445 332.451 Z" fill="#000000" fill-rule="nonzero" fill-opacity="1" /><path clip-path="url(#clip320)" d="M16.4842 1116.9 L16.4842 1108.24 L56.238 1087.17 L16.4842 1087.17 L16.4842 1080.93 L64.0042 1080.93 L64.0042 1089.59 L24.2503 1110.66 L64.0042 1110.66 L64.0042 1116.9 L16.4842 1116.9 Z" fill="#000000" fill-rule="nonzero" fill-opacity="1" /><path clip-path="url(#clip320)" d="M49.9359 1069 L28.3562 1069 L28.3562 1063.14 L49.7131 1063.14 Q54.7739 1063.14 57.3202 1061.17 Q59.8346 1059.2 59.8346 1055.25 Q59.8346 1050.51 56.8109 1047.77 Q53.7872 1045 48.5673 1045 L28.3562 1045 L28.3562 1039.14 L64.0042 1039.14 L64.0042 1045 L58.5296 1045 Q61.7762 1047.13 63.3676 1049.97 Q64.9272 1052.77 64.9272 1056.49 Q64.9272 1062.63 61.1078 1065.82 Q57.2883 1069 49.9359 1069 M27.4968 1054.26 L27.4968 1054.26 Z" fill="#000000" fill-rule="nonzero" fill-opacity="1" /><path clip-path="url(#clip320)" d="M35.1993 999.326 Q31.2526 997.13 29.3747 994.075 Q27.4968 991.019 27.4968 986.881 Q27.4968 981.311 31.4117 978.288 Q35.2948 975.264 42.4881 975.264 L64.0042 975.264 L64.0042 981.152 L42.679 981.152 Q37.5546 981.152 35.072 982.967 Q32.5894 984.781 32.5894 988.505 Q32.5894 993.056 35.6131 995.698 Q38.6368 998.34 43.8567 998.34 L64.0042 998.34 L64.0042 1004.23 L42.679 1004.23 Q37.5228 1004.23 35.072 1006.04 Q32.5894 1007.86 32.5894 1011.64 Q32.5894 1016.13 35.6449 1018.77 Q38.6686 1021.42 43.8567 1021.42 L64.0042 1021.42 L64.0042 1027.3 L28.3562 1027.3 L28.3562 1021.42 L33.8944 1021.42 Q30.616 1019.41 29.0564 1016.61 Q27.4968 1013.81 27.4968 1009.96 Q27.4968 1006.07 29.4702 1003.37 Q31.4436 1000.63 35.1993 999.326 Z" fill="#000000" fill-rule="nonzero" fill-opacity="1" /><path clip-path="url(#clip320)" d="M46.212 937.993 Q39.7508 937.993 36.0905 940.666 Q32.3984 943.308 32.3984 947.955 Q32.3984 952.602 36.0905 955.276 Q39.7508 957.918 46.212 957.918 Q52.6732 957.918 56.3653 955.276 Q60.0256 952.602 60.0256 947.955 Q60.0256 943.308 56.3653 940.666 Q52.6732 937.993 46.212 937.993 M33.7671 957.918 Q30.5842 956.071 29.0564 953.271 Q27.4968 950.438 27.4968 946.523 Q27.4968 940.03 32.6531 935.988 Q37.8093 931.914 46.212 931.914 Q54.6147 931.914 59.771 935.988 Q64.9272 940.03 64.9272 946.523 Q64.9272 950.438 63.3994 953.271 Q61.8398 956.071 58.657 957.918 L64.0042 957.918 L64.0042 963.806 L14.479 963.806 L14.479 957.918 L33.7671 957.918 Z" fill="#000000" fill-rule="nonzero" fill-opacity="1" /><path clip-path="url(#clip320)" d="M44.7161 891.714 L47.5806 891.714 L47.5806 918.641 Q53.6281 918.259 56.8109 915.013 Q59.9619 911.734 59.9619 905.91 Q59.9619 902.536 59.1344 899.385 Q58.3069 896.202 56.6518 893.083 L62.1899 893.083 Q63.5267 896.234 64.227 899.544 Q64.9272 902.854 64.9272 906.26 Q64.9272 914.79 59.9619 919.787 Q54.9967 924.752 46.5303 924.752 Q37.7774 924.752 32.6531 920.042 Q27.4968 915.299 27.4968 907.278 Q27.4968 900.085 32.1438 895.916 Q36.7589 891.714 44.7161 891.714 M42.9973 897.571 Q38.1912 897.634 35.3266 900.276 Q32.4621 902.886 32.4621 907.215 Q32.4621 912.116 35.2312 915.076 Q38.0002 918.005 43.0292 918.45 L42.9973 897.571 Z" fill="#000000" fill-rule="nonzero" fill-opacity="1" /><path clip-path="url(#clip320)" d="M33.8307 861.445 Q33.2578 862.432 33.0032 863.61 Q32.7167 864.755 32.7167 866.156 Q32.7167 871.121 35.9632 873.795 Q39.1779 876.436 45.2253 876.436 L64.0042 876.436 L64.0042 882.325 L28.3562 882.325 L28.3562 876.436 L33.8944 876.436 Q30.6479 874.59 29.0883 871.63 Q27.4968 868.67 27.4968 864.437 Q27.4968 863.832 27.5923 863.1 Q27.656 862.368 27.8151 861.477 L33.8307 861.445 Z" fill="#000000" fill-rule="nonzero" fill-opacity="1" /><path clip-path="url(#clip320)" d="M32.4621 820.768 Q32.4621 825.479 36.1542 828.216 Q39.8145 830.954 46.212 830.954 Q52.6095 830.954 56.3017 828.248 Q59.9619 825.511 59.9619 820.768 Q59.9619 816.09 56.2698 813.352 Q52.5777 810.615 46.212 810.615 Q39.8781 810.615 36.186 813.352 Q32.4621 816.09 32.4621 820.768 M27.4968 820.768 Q27.4968 813.13 32.4621 808.769 Q37.4273 804.409 46.212 804.409 Q54.9649 804.409 59.9619 808.769 Q64.9272 813.13 64.9272 820.768 Q64.9272 828.439 59.9619 832.8 Q54.9649 837.128 46.212 837.128 Q37.4273 837.128 32.4621 832.8 Q27.4968 828.439 27.4968 820.768 Z" fill="#000000" fill-rule="nonzero" fill-opacity="1" /><path clip-path="url(#clip320)" d="M14.479 776.654 L19.3487 776.654 L19.3487 782.256 Q19.3487 785.407 20.6219 786.648 Q21.895 787.858 25.2052 787.858 L28.3562 787.858 L28.3562 778.214 L32.9077 778.214 L32.9077 787.858 L64.0042 787.858 L64.0042 793.746 L32.9077 793.746 L32.9077 799.348 L28.3562 799.348 L28.3562 793.746 L25.8736 793.746 Q19.9216 793.746 17.2162 790.977 Q14.479 788.208 14.479 782.192 L14.479 776.654 Z" fill="#000000" fill-rule="nonzero" fill-opacity="1" /><path clip-path="url(#clip320)" d="M58.657 745.367 L77.5631 745.367 L77.5631 751.255 L28.3562 751.255 L28.3562 745.367 L33.7671 745.367 Q30.5842 743.521 29.0564 740.72 Q27.4968 737.887 27.4968 733.972 Q27.4968 727.479 32.6531 723.437 Q37.8093 719.363 46.212 719.363 Q54.6147 719.363 59.771 723.437 Q64.9272 727.479 64.9272 733.972 Q64.9272 737.887 63.3994 740.72 Q61.8398 743.521 58.657 745.367 M46.212 725.442 Q39.7508 725.442 36.0905 728.116 Q32.3984 730.757 32.3984 735.404 Q32.3984 740.051 36.0905 742.725 Q39.7508 745.367 46.212 745.367 Q52.6732 745.367 56.3653 742.725 Q60.0256 740.051 60.0256 735.404 Q60.0256 730.757 56.3653 728.116 Q52.6732 725.442 46.212 725.442 Z" fill="#000000" fill-rule="nonzero" fill-opacity="1" /><path clip-path="url(#clip320)" d="M28.3562 709.655 L28.3562 703.799 L64.0042 703.799 L64.0042 709.655 L28.3562 709.655 M14.479 709.655 L14.479 703.799 L21.895 703.799 L21.895 709.655 L14.479 709.655 Z" fill="#000000" fill-rule="nonzero" fill-opacity="1" /><path clip-path="url(#clip320)" d="M44.7161 661.053 L47.5806 661.053 L47.5806 687.98 Q53.6281 687.598 56.8109 684.351 Q59.9619 681.073 59.9619 675.248 Q59.9619 671.874 59.1344 668.723 Q58.3069 665.541 56.6518 662.421 L62.1899 662.421 Q63.5267 665.572 64.227 668.883 Q64.9272 672.193 64.9272 675.598 Q64.9272 684.128 59.9619 689.126 Q54.9967 694.091 46.5303 694.091 Q37.7774 694.091 32.6531 689.38 Q27.4968 684.638 27.4968 676.617 Q27.4968 669.424 32.1438 665.254 Q36.7589 661.053 44.7161 661.053 M42.9973 666.909 Q38.1912 666.973 35.3266 669.615 Q32.4621 672.225 32.4621 676.553 Q32.4621 681.455 35.2312 684.415 Q38.0002 687.343 43.0292 687.789 L42.9973 666.909 Z" fill="#000000" fill-rule="nonzero" fill-opacity="1" /><path clip-path="url(#clip320)" d="M29.4065 628.715 L34.9447 628.715 Q33.6716 631.198 33.035 633.871 Q32.3984 636.545 32.3984 639.409 Q32.3984 643.77 33.7352 645.966 Q35.072 648.13 37.7456 648.13 Q39.7826 648.13 40.9603 646.571 Q42.1061 645.011 43.1565 640.301 L43.6021 638.295 Q44.9389 632.057 47.3897 629.447 Q49.8086 626.805 54.1691 626.805 Q59.1344 626.805 62.0308 630.752 Q64.9272 634.667 64.9272 641.542 Q64.9272 644.406 64.3543 647.526 Q63.8132 650.613 62.6992 654.051 L56.6518 654.051 Q58.3387 650.804 59.198 647.653 Q60.0256 644.502 60.0256 641.415 Q60.0256 637.277 58.6251 635.049 Q57.1929 632.821 54.6147 632.821 Q52.2276 632.821 50.9545 634.444 Q49.6813 636.036 48.5037 641.478 L48.0262 643.515 Q46.8804 648.958 44.5251 651.377 Q42.138 653.796 38.0002 653.796 Q32.9713 653.796 30.2341 650.231 Q27.4968 646.666 27.4968 640.11 Q27.4968 636.863 27.9743 633.999 Q28.4517 631.134 29.4065 628.715 Z" fill="#000000" fill-rule="nonzero" fill-opacity="1" /><path clip-path="url(#clip320)" d="M18.2347 590.966 L28.3562 590.966 L28.3562 578.903 L32.9077 578.903 L32.9077 590.966 L52.2594 590.966 Q56.6199 590.966 57.8613 589.789 Q59.1026 588.579 59.1026 584.919 L59.1026 578.903 L64.0042 578.903 L64.0042 584.919 Q64.0042 591.698 61.4897 594.277 Q58.9434 596.855 52.2594 596.855 L32.9077 596.855 L32.9077 601.151 L28.3562 601.151 L28.3562 596.855 L18.2347 596.855 L18.2347 590.966 Z" fill="#000000" fill-rule="nonzero" fill-opacity="1" /><path clip-path="url(#clip320)" d="M32.4621 557.387 Q32.4621 562.098 36.1542 564.835 Q39.8145 567.572 46.212 567.572 Q52.6095 567.572 56.3017 564.867 Q59.9619 562.13 59.9619 557.387 Q59.9619 552.708 56.2698 549.971 Q52.5777 547.234 46.212 547.234 Q39.8781 547.234 36.186 549.971 Q32.4621 552.708 32.4621 557.387 M27.4968 557.387 Q27.4968 549.748 32.4621 545.388 Q37.4273 541.027 46.212 541.027 Q54.9649 541.027 59.9619 545.388 Q64.9272 549.748 64.9272 557.387 Q64.9272 565.058 59.9619 569.418 Q54.9649 573.747 46.212 573.747 Q37.4273 573.747 32.4621 569.418 Q27.4968 565.058 27.4968 557.387 Z" fill="#000000" fill-rule="nonzero" fill-opacity="1" /><path clip-path="url(#clip320)" d="M35.1993 482.845 Q31.2526 480.649 29.3747 477.593 Q27.4968 474.538 27.4968 470.4 Q27.4968 464.83 31.4117 461.806 Q35.2948 458.782 42.4881 458.782 L64.0042 458.782 L64.0042 464.671 L42.679 464.671 Q37.5546 464.671 35.072 466.485 Q32.5894 468.299 32.5894 472.023 Q32.5894 476.575 35.6131 479.216 Q38.6368 481.858 43.8567 481.858 L64.0042 481.858 L64.0042 487.746 L42.679 487.746 Q37.5228 487.746 35.072 489.561 Q32.5894 491.375 32.5894 495.162 Q32.5894 499.65 35.6449 502.292 Q38.6686 504.934 43.8567 504.934 L64.0042 504.934 L64.0042 510.822 L28.3562 510.822 L28.3562 504.934 L33.8944 504.934 Q30.616 502.929 29.0564 500.128 Q27.4968 497.327 27.4968 493.476 Q27.4968 489.592 29.4702 486.887 Q31.4436 484.15 35.1993 482.845 Z" fill="#000000" fill-rule="nonzero" fill-opacity="1" /><path clip-path="url(#clip320)" d="M46.0847 430.901 Q46.0847 437.998 47.7079 440.736 Q49.3312 443.473 53.2461 443.473 Q56.3653 443.473 58.2114 441.436 Q60.0256 439.367 60.0256 435.834 Q60.0256 430.964 56.5881 428.036 Q53.1188 425.076 47.3897 425.076 L46.0847 425.076 L46.0847 430.901 M43.6657 419.22 L64.0042 419.22 L64.0042 425.076 L58.5933 425.076 Q61.8398 427.081 63.3994 430.073 Q64.9272 433.065 64.9272 437.394 Q64.9272 442.868 61.8716 446.115 Q58.7843 449.329 53.6281 449.329 Q47.6125 449.329 44.5569 445.319 Q41.5014 441.277 41.5014 433.288 L41.5014 425.076 L40.9285 425.076 Q36.8862 425.076 34.6901 427.75 Q32.4621 430.391 32.4621 435.198 Q32.4621 438.253 33.1941 441.149 Q33.9262 444.046 35.3903 446.719 L29.9795 446.719 Q28.7381 443.505 28.1334 440.481 Q27.4968 437.457 27.4968 434.593 Q27.4968 426.858 31.5072 423.039 Q35.5176 419.22 43.6657 419.22 Z" fill="#000000" fill-rule="nonzero" fill-opacity="1" /><path clip-path="url(#clip320)" d="M14.479 407.379 L14.479 401.491 L43.7294 401.491 L28.3562 384.017 L28.3562 376.538 L45.0344 395.444 L64.0042 375.742 L64.0042 383.381 L46.5939 401.491 L64.0042 401.491 L64.0042 407.379 L14.479 407.379 Z" fill="#000000" fill-rule="nonzero" fill-opacity="1" /><path clip-path="url(#clip320)" d="M44.7161 341.24 L47.5806 341.24 L47.5806 368.167 Q53.6281 367.785 56.8109 364.538 Q59.9619 361.26 59.9619 355.435 Q59.9619 352.061 59.1344 348.91 Q58.3069 345.728 56.6518 342.608 L62.1899 342.608 Q63.5267 345.759 64.227 349.07 Q64.9272 352.38 64.9272 355.785 Q64.9272 364.315 59.9619 369.312 Q54.9967 374.278 46.5303 374.278 Q37.7774 374.278 32.6531 369.567 Q27.4968 364.825 27.4968 356.804 Q27.4968 349.611 32.1438 345.441 Q36.7589 341.24 44.7161 341.24 M42.9973 347.096 Q38.1912 347.16 35.3266 349.802 Q32.4621 352.412 32.4621 356.74 Q32.4621 361.642 35.2312 364.602 Q38.0002 367.53 43.0292 367.976 L42.9973 347.096 Z" fill="#000000" fill-rule="nonzero" fill-opacity="1" /><polyline clip-path="url(#clip322)" style="stroke:#009af9; stroke-linecap:round; stroke-linejoin:round; stroke-width:4; stroke-opacity:1; fill:none" points="292.4,85.838 492.434,85.838 692.469,109.467 892.503,164.618 1092.54,374.394 1292.57,724.858 1492.61,1088.38 1692.64,1279.87 1892.68,1345.14 2092.71,1365.78 2292.75,1372.3 "/>
</svg>
