<?xml version="1.0" encoding="utf-8"?>
<svg xmlns="http://www.w3.org/2000/svg" xmlns:xlink="http://www.w3.org/1999/xlink" width="500" height="300" viewBox="0 0 2000 1200">
<defs>
  <clipPath id="clip740">
    <rect x="0" y="0" width="2000" height="1200"/>
  </clipPath>
</defs>
<path clip-path="url(#clip740)" d="M0 1200 L2000 1200 L2000 0 L0 0  Z" fill="#ffffff" fill-rule="evenodd" fill-opacity="1"/>
<defs>
  <clipPath id="clip741">
    <rect x="400" y="0" width="1401" height="1200"/>
  </clipPath>
</defs>
<path clip-path="url(#clip740)" d="M196.369 1035.39 L1952.76 1035.39 L1952.76 47.2441 L196.369 47.2441  Z" fill="#ffffff" fill-rule="evenodd" fill-opacity="1"/>
<defs>
  <clipPath id="clip742">
    <rect x="196" y="47" width="1757" height="989"/>
  </clipPath>
</defs>
<polyline clip-path="url(#clip742)" style="stroke:#000000; stroke-linecap:round; stroke-linejoin:round; stroke-width:2; stroke-opacity:0.1; fill:none" points="534.247,1035.39 534.247,47.2441 "/>
<polyline clip-path="url(#clip742)" style="stroke:#000000; stroke-linecap:round; stroke-linejoin:round; stroke-width:2; stroke-opacity:0.1; fill:none" points="894.457,1035.39 894.457,47.2441 "/>
<polyline clip-path="url(#clip742)" style="stroke:#000000; stroke-linecap:round; stroke-linejoin:round; stroke-width:2; stroke-opacity:0.1; fill:none" points="1254.67,1035.39 1254.67,47.2441 "/>
<polyline clip-path="url(#clip742)" style="stroke:#000000; stroke-linecap:round; stroke-linejoin:round; stroke-width:2; stroke-opacity:0.1; fill:none" points="1614.88,1035.39 1614.88,47.2441 "/>
<polyline clip-path="url(#clip742)" style="stroke:#000000; stroke-linecap:round; stroke-linejoin:round; stroke-width:2; stroke-opacity:0.1; fill:none" points="196.369,1007.42 1952.76,1007.42 "/>
<polyline clip-path="url(#clip742)" style="stroke:#000000; stroke-linecap:round; stroke-linejoin:round; stroke-width:2; stroke-opacity:0.1; fill:none" points="196.369,741.075 1952.76,741.075 "/>
<polyline clip-path="url(#clip742)" style="stroke:#000000; stroke-linecap:round; stroke-linejoin:round; stroke-width:2; stroke-opacity:0.1; fill:none" points="196.369,474.729 1952.76,474.729 "/>
<polyline clip-path="url(#clip742)" style="stroke:#000000; stroke-linecap:round; stroke-linejoin:round; stroke-width:2; stroke-opacity:0.1; fill:none" points="196.369,208.383 1952.76,208.383 "/>
<polyline clip-path="url(#clip740)" style="stroke:#000000; stroke-linecap:round; stroke-linejoin:round; stroke-width:4; stroke-opacity:1; fill:none" points="196.369,1035.39 1952.76,1035.39 "/>
<polyline clip-path="url(#clip740)" style="stroke:#000000; stroke-linecap:round; stroke-linejoin:round; stroke-width:4; stroke-opacity:1; fill:none" points="534.247,1035.39 534.247,1016.49 "/>
<polyline clip-path="url(#clip740)" style="stroke:#000000; stroke-linecap:round; stroke-linejoin:round; stroke-width:4; stroke-opacity:1; fill:none" points="894.457,1035.39 894.457,1016.49 "/>
<polyline clip-path="url(#clip740)" style="stroke:#000000; stroke-linecap:round; stroke-linejoin:round; stroke-width:4; stroke-opacity:1; fill:none" points="1254.67,1035.39 1254.67,1016.49 "/>
<polyline clip-path="url(#clip740)" style="stroke:#000000; stroke-linecap:round; stroke-linejoin:round; stroke-width:4; stroke-opacity:1; fill:none" points="1614.88,1035.39 1614.88,1016.49 "/>
<path clip-path="url(#clip740)" d="M524.524 1060.03 L542.881 1060.03 L542.881 1063.96 L528.807 1063.96 L528.807 1072.44 Q529.825 1072.09 530.844 1071.93 Q531.862 1071.74 532.881 1071.74 Q538.668 1071.74 542.047 1074.91 Q545.427 1078.08 545.427 1083.5 Q545.427 1089.08 541.955 1092.18 Q538.483 1095.26 532.163 1095.26 Q529.987 1095.26 527.719 1094.89 Q525.473 1094.52 523.066 1093.78 L523.066 1089.08 Q525.149 1090.21 527.372 1090.77 Q529.594 1091.32 532.071 1091.32 Q536.075 1091.32 538.413 1089.22 Q540.751 1087.11 540.751 1083.5 Q540.751 1079.89 538.413 1077.78 Q536.075 1075.68 532.071 1075.68 Q530.196 1075.68 528.321 1076.09 Q526.469 1076.51 524.524 1077.39 L524.524 1060.03 Z" fill="#000000" fill-rule="nonzero" fill-opacity="1" /><path clip-path="url(#clip740)" d="M869.145 1090.65 L876.784 1090.65 L876.784 1064.29 L868.473 1065.95 L868.473 1061.69 L876.737 1060.03 L881.413 1060.03 L881.413 1090.65 L889.052 1090.65 L889.052 1094.59 L869.145 1094.59 L869.145 1090.65 Z" fill="#000000" fill-rule="nonzero" fill-opacity="1" /><path clip-path="url(#clip740)" d="M908.496 1063.11 Q904.885 1063.11 903.057 1066.67 Q901.251 1070.21 901.251 1077.34 Q901.251 1084.45 903.057 1088.01 Q904.885 1091.56 908.496 1091.56 Q912.131 1091.56 913.936 1088.01 Q915.765 1084.45 915.765 1077.34 Q915.765 1070.21 913.936 1066.67 Q912.131 1063.11 908.496 1063.11 M908.496 1059.4 Q914.307 1059.4 917.362 1064.01 Q920.441 1068.59 920.441 1077.34 Q920.441 1086.07 917.362 1090.68 Q914.307 1095.26 908.496 1095.26 Q902.686 1095.26 899.608 1090.68 Q896.552 1086.07 896.552 1077.34 Q896.552 1068.59 899.608 1064.01 Q902.686 1059.4 908.496 1059.4 Z" fill="#000000" fill-rule="nonzero" fill-opacity="1" /><path clip-path="url(#clip740)" d="M1229.85 1090.65 L1237.49 1090.65 L1237.49 1064.29 L1229.18 1065.95 L1229.18 1061.69 L1237.45 1060.03 L1242.12 1060.03 L1242.12 1090.65 L1249.76 1090.65 L1249.76 1094.59 L1229.85 1094.59 L1229.85 1090.65 Z" fill="#000000" fill-rule="nonzero" fill-opacity="1" /><path clip-path="url(#clip740)" d="M1259.25 1060.03 L1277.61 1060.03 L1277.61 1063.96 L1263.53 1063.96 L1263.53 1072.44 Q1264.55 1072.09 1265.57 1071.93 Q1266.59 1071.74 1267.61 1071.74 Q1273.39 1071.74 1276.77 1074.91 Q1280.15 1078.08 1280.15 1083.5 Q1280.15 1089.08 1276.68 1092.18 Q1273.21 1095.26 1266.89 1095.26 Q1264.71 1095.26 1262.45 1094.89 Q1260.2 1094.52 1257.79 1093.78 L1257.79 1089.08 Q1259.88 1090.21 1262.1 1090.77 Q1264.32 1091.32 1266.8 1091.32 Q1270.8 1091.32 1273.14 1089.22 Q1275.48 1087.11 1275.48 1083.5 Q1275.48 1079.89 1273.14 1077.78 Q1270.8 1075.68 1266.8 1075.68 Q1264.92 1075.68 1263.05 1076.09 Q1261.2 1076.51 1259.25 1077.39 L1259.25 1060.03 Z" fill="#000000" fill-rule="nonzero" fill-opacity="1" /><path clip-path="url(#clip740)" d="M1593.65 1090.65 L1609.97 1090.65 L1609.97 1094.59 L1588.03 1094.59 L1588.03 1090.65 Q1590.69 1087.9 1595.27 1083.27 Q1599.88 1078.62 1601.06 1077.27 Q1603.3 1074.75 1604.18 1073.01 Q1605.09 1071.25 1605.09 1069.56 Q1605.09 1066.81 1603.14 1065.07 Q1601.22 1063.34 1598.12 1063.34 Q1595.92 1063.34 1593.47 1064.1 Q1591.04 1064.87 1588.26 1066.42 L1588.26 1061.69 Q1591.08 1060.56 1593.54 1059.98 Q1595.99 1059.4 1598.03 1059.4 Q1603.4 1059.4 1606.59 1062.09 Q1609.79 1064.77 1609.79 1069.26 Q1609.79 1071.39 1608.98 1073.31 Q1608.19 1075.21 1606.08 1077.81 Q1605.5 1078.48 1602.4 1081.69 Q1599.3 1084.89 1593.65 1090.65 Z" fill="#000000" fill-rule="nonzero" fill-opacity="1" /><path clip-path="url(#clip740)" d="M1629.79 1063.11 Q1626.17 1063.11 1624.35 1066.67 Q1622.54 1070.21 1622.54 1077.34 Q1622.54 1084.45 1624.35 1088.01 Q1626.17 1091.56 1629.79 1091.56 Q1633.42 1091.56 1635.23 1088.01 Q1637.05 1084.45 1637.05 1077.34 Q1637.05 1070.21 1635.23 1066.67 Q1633.42 1063.11 1629.79 1063.11 M1629.79 1059.4 Q1635.6 1059.4 1638.65 1064.01 Q1641.73 1068.59 1641.73 1077.34 Q1641.73 1086.07 1638.65 1090.68 Q1635.6 1095.26 1629.79 1095.26 Q1623.98 1095.26 1620.9 1090.68 Q1617.84 1086.07 1617.84 1077.34 Q1617.84 1068.59 1620.9 1064.01 Q1623.98 1059.4 1629.79 1059.4 Z" fill="#000000" fill-rule="nonzero" fill-opacity="1" /><path clip-path="url(#clip740)" d="M999.256 1126.73 L1005.69 1126.73 L1005.69 1146.21 L1029.05 1146.21 L1029.05 1126.73 L1035.48 1126.73 L1035.48 1174.25 L1029.05 1174.25 L1029.05 1151.62 L1005.69 1151.62 L1005.69 1174.25 L999.256 1174.25 L999.256 1126.73 Z" fill="#000000" fill-rule="nonzero" fill-opacity="1" /><path clip-path="url(#clip740)" d="M1061.83 1142.71 Q1057.12 1142.71 1054.38 1146.4 Q1051.65 1150.06 1051.65 1156.46 Q1051.65 1162.86 1054.35 1166.55 Q1057.09 1170.21 1061.83 1170.21 Q1066.51 1170.21 1069.25 1166.52 Q1071.98 1162.83 1071.98 1156.46 Q1071.98 1150.13 1069.25 1146.43 Q1066.51 1142.71 1061.83 1142.71 M1061.83 1137.74 Q1069.47 1137.74 1073.83 1142.71 Q1078.19 1147.68 1078.19 1156.46 Q1078.19 1165.21 1073.83 1170.21 Q1069.47 1175.17 1061.83 1175.17 Q1054.16 1175.17 1049.8 1170.21 Q1045.47 1165.21 1045.47 1156.46 Q1045.47 1147.68 1049.8 1142.71 Q1054.16 1137.74 1061.83 1137.74 Z" fill="#000000" fill-rule="nonzero" fill-opacity="1" /><path clip-path="url(#clip740)" d="M1087.29 1160.18 L1087.29 1138.6 L1093.15 1138.6 L1093.15 1159.96 Q1093.15 1165.02 1095.12 1167.57 Q1097.1 1170.08 1101.04 1170.08 Q1105.79 1170.08 1108.52 1167.06 Q1111.29 1164.03 1111.29 1158.82 L1111.29 1138.6 L1117.15 1138.6 L1117.15 1174.25 L1111.29 1174.25 L1111.29 1168.78 Q1109.16 1172.02 1106.33 1173.62 Q1103.53 1175.17 1099.8 1175.17 Q1093.66 1175.17 1090.48 1171.36 Q1087.29 1167.54 1087.29 1160.18 M1102.03 1137.74 L1102.03 1137.74 Z" fill="#000000" fill-rule="nonzero" fill-opacity="1" /><path clip-path="url(#clip740)" d="M1149.87 1144.08 Q1148.88 1143.51 1147.7 1143.25 Q1146.56 1142.96 1145.16 1142.96 Q1140.19 1142.96 1137.52 1146.21 Q1134.88 1149.43 1134.88 1155.47 L1134.88 1174.25 L1128.99 1174.25 L1128.99 1138.6 L1134.88 1138.6 L1134.88 1144.14 Q1136.72 1140.9 1139.68 1139.34 Q1142.64 1137.74 1146.88 1137.74 Q1147.48 1137.74 1148.21 1137.84 Q1148.95 1137.9 1149.84 1138.06 L1149.87 1144.08 Z" fill="#000000" fill-rule="nonzero" fill-opacity="1" /><polyline clip-path="url(#clip740)" style="stroke:#000000; stroke-linecap:round; stroke-linejoin:round; stroke-width:4; stroke-opacity:1; fill:none" points="196.369,1035.39 196.369,47.2441 "/>
<polyline clip-path="url(#clip740)" style="stroke:#000000; stroke-linecap:round; stroke-linejoin:round; stroke-width:4; stroke-opacity:1; fill:none" points="196.369,1007.42 215.267,1007.42 "/>
<polyline clip-path="url(#clip740)" style="stroke:#000000; stroke-linecap:round; stroke-linejoin:round; stroke-width:4; stroke-opacity:1; fill:none" points="196.369,741.075 215.267,741.075 "/>
<polyline clip-path="url(#clip740)" style="stroke:#000000; stroke-linecap:round; stroke-linejoin:round; stroke-width:4; stroke-opacity:1; fill:none" points="196.369,474.729 215.267,474.729 "/>
<polyline clip-path="url(#clip740)" style="stroke:#000000; stroke-linecap:round; stroke-linejoin:round; stroke-width:4; stroke-opacity:1; fill:none" points="196.369,208.383 215.267,208.383 "/>
<path clip-path="url(#clip740)" d="M154.425 993.22 Q150.814 993.22 148.985 996.785 Q147.179 1000.33 147.179 1007.46 Q147.179 1014.56 148.985 1018.13 Q150.814 1021.67 154.425 1021.67 Q158.059 1021.67 159.864 1018.13 Q161.693 1014.56 161.693 1007.46 Q161.693 1000.33 159.864 996.785 Q158.059 993.22 154.425 993.22 M154.425 989.517 Q160.235 989.517 163.29 994.123 Q166.369 998.706 166.369 1007.46 Q166.369 1016.18 163.29 1020.79 Q160.235 1025.37 154.425 1025.37 Q148.614 1025.37 145.536 1020.79 Q142.48 1016.18 142.48 1007.46 Q142.48 998.706 145.536 994.123 Q148.614 989.517 154.425 989.517 Z" fill="#000000" fill-rule="nonzero" fill-opacity="1" /><path clip-path="url(#clip740)" d="M118.291 754.42 L134.61 754.42 L134.61 758.355 L112.666 758.355 L112.666 754.42 Q115.328 751.666 119.911 747.036 Q124.517 742.383 125.698 741.041 Q127.943 738.518 128.823 736.782 Q129.726 735.022 129.726 733.332 Q129.726 730.578 127.781 728.842 Q125.86 727.106 122.758 727.106 Q120.559 727.106 118.105 727.87 Q115.675 728.633 112.897 730.184 L112.897 725.462 Q115.721 724.328 118.175 723.749 Q120.628 723.17 122.666 723.17 Q128.036 723.17 131.23 725.856 Q134.425 728.541 134.425 733.032 Q134.425 735.161 133.615 737.082 Q132.827 738.981 130.721 741.573 Q130.142 742.244 127.04 745.462 Q123.939 748.656 118.291 754.42 Z" fill="#000000" fill-rule="nonzero" fill-opacity="1" /><path clip-path="url(#clip740)" d="M154.425 726.874 Q150.814 726.874 148.985 730.439 Q147.179 733.981 147.179 741.11 Q147.179 748.217 148.985 751.781 Q150.814 755.323 154.425 755.323 Q158.059 755.323 159.864 751.781 Q161.693 748.217 161.693 741.11 Q161.693 733.981 159.864 730.439 Q158.059 726.874 154.425 726.874 M154.425 723.17 Q160.235 723.17 163.29 727.777 Q166.369 732.36 166.369 741.11 Q166.369 749.837 163.29 754.443 Q160.235 759.027 154.425 759.027 Q148.614 759.027 145.536 754.443 Q142.48 749.837 142.48 741.11 Q142.48 732.36 145.536 727.777 Q148.614 723.17 154.425 723.17 Z" fill="#000000" fill-rule="nonzero" fill-opacity="1" /><path clip-path="url(#clip740)" d="M127.11 461.524 L115.304 479.972 L127.11 479.972 L127.11 461.524 M125.883 457.449 L131.763 457.449 L131.763 479.972 L136.693 479.972 L136.693 483.861 L131.763 483.861 L131.763 492.009 L127.11 492.009 L127.11 483.861 L111.508 483.861 L111.508 479.347 L125.883 457.449 Z" fill="#000000" fill-rule="nonzero" fill-opacity="1" /><path clip-path="url(#clip740)" d="M154.425 460.528 Q150.814 460.528 148.985 464.093 Q147.179 467.635 147.179 474.764 Q147.179 481.871 148.985 485.435 Q150.814 488.977 154.425 488.977 Q158.059 488.977 159.864 485.435 Q161.693 481.871 161.693 474.764 Q161.693 467.635 159.864 464.093 Q158.059 460.528 154.425 460.528 M154.425 456.824 Q160.235 456.824 163.29 461.431 Q166.369 466.014 166.369 474.764 Q166.369 483.491 163.29 488.097 Q160.235 492.681 154.425 492.681 Q148.614 492.681 145.536 488.097 Q142.48 483.491 142.48 474.764 Q142.48 466.014 145.536 461.431 Q148.614 456.824 154.425 456.824 Z" fill="#000000" fill-rule="nonzero" fill-opacity="1" /><path clip-path="url(#clip740)" d="M124.841 206.52 Q121.693 206.52 119.841 208.673 Q118.013 210.826 118.013 214.576 Q118.013 218.302 119.841 220.478 Q121.693 222.631 124.841 222.631 Q127.99 222.631 129.818 220.478 Q131.67 218.302 131.67 214.576 Q131.67 210.826 129.818 208.673 Q127.99 206.52 124.841 206.52 M134.124 191.867 L134.124 196.127 Q132.365 195.293 130.559 194.853 Q128.777 194.414 127.017 194.414 Q122.388 194.414 119.934 197.539 Q117.503 200.664 117.156 206.983 Q118.522 204.969 120.582 203.904 Q122.642 202.816 125.119 202.816 Q130.328 202.816 133.337 205.988 Q136.369 209.136 136.369 214.576 Q136.369 219.9 133.221 223.117 Q130.073 226.335 124.841 226.335 Q118.846 226.335 115.675 221.751 Q112.504 217.145 112.504 208.418 Q112.504 200.224 116.392 195.363 Q120.281 190.478 126.832 190.478 Q128.591 190.478 130.374 190.826 Q132.179 191.173 134.124 191.867 Z" fill="#000000" fill-rule="nonzero" fill-opacity="1" /><path clip-path="url(#clip740)" d="M154.425 194.182 Q150.814 194.182 148.985 197.747 Q147.179 201.289 147.179 208.418 Q147.179 215.525 148.985 219.089 Q150.814 222.631 154.425 222.631 Q158.059 222.631 159.864 219.089 Q161.693 215.525 161.693 208.418 Q161.693 201.289 159.864 197.747 Q158.059 194.182 154.425 194.182 M154.425 190.478 Q160.235 190.478 163.29 195.085 Q166.369 199.668 166.369 208.418 Q166.369 217.145 163.29 221.751 Q160.235 226.335 154.425 226.335 Q148.614 226.335 145.536 221.751 Q142.48 217.145 142.48 208.418 Q142.48 199.668 145.536 195.085 Q148.614 190.478 154.425 190.478 Z" fill="#000000" fill-rule="nonzero" fill-opacity="1" /><path clip-path="url(#clip740)" d="M19.7322 860.477 L19.7322 820.277 L25.143 820.277 L25.143 837.146 L67.2522 837.146 L67.2522 843.607 L25.143 843.607 L25.143 860.477 L19.7322 860.477 Z" fill="#000000" fill-rule="nonzero" fill-opacity="1" /><path clip-path="url(#clip740)" d="M45.7361 784.693 L67.2522 784.693 L67.2522 790.549 L45.927 790.549 Q40.8663 790.549 38.3518 792.523 Q35.8374 794.496 35.8374 798.443 Q35.8374 803.185 38.8611 805.922 Q41.8848 808.66 47.1047 808.66 L67.2522 808.66 L67.2522 814.548 L17.727 814.548 L17.727 808.66 L37.1424 808.66 Q33.9277 806.559 32.3363 803.726 Q30.7448 800.862 30.7448 797.138 Q30.7448 790.995 34.5643 787.844 Q38.3518 784.693 45.7361 784.693 Z" fill="#000000" fill-rule="nonzero" fill-opacity="1" /><path clip-path="url(#clip740)" d="M47.9641 742.52 L50.8286 742.52 L50.8286 769.447 Q56.8761 769.065 60.0589 765.819 Q63.2099 762.54 63.2099 756.716 Q63.2099 753.342 62.3824 750.191 Q61.5549 747.008 59.8998 743.889 L65.4379 743.889 Q66.7747 747.04 67.475 750.35 Q68.1752 753.66 68.1752 757.066 Q68.1752 765.596 63.2099 770.593 Q58.2447 775.558 49.7783 775.558 Q41.0254 775.558 35.9011 770.847 Q30.7448 766.105 30.7448 758.084 Q30.7448 750.891 35.3918 746.721 Q40.0069 742.52 47.9641 742.52 M46.2453 748.376 Q41.4392 748.44 38.5746 751.082 Q35.7101 753.692 35.7101 758.021 Q35.7101 762.922 38.4792 765.882 Q41.2482 768.81 46.2772 769.256 L46.2453 748.376 Z" fill="#000000" fill-rule="nonzero" fill-opacity="1" /><path clip-path="url(#clip740)" d="M37.0787 712.251 Q36.5058 713.238 36.2512 714.415 Q35.9647 715.561 35.9647 716.962 Q35.9647 721.927 39.2112 724.601 Q42.4259 727.242 48.4733 727.242 L67.2522 727.242 L67.2522 733.131 L31.6042 733.131 L31.6042 727.242 L37.1424 727.242 Q33.8959 725.396 32.3363 722.436 Q30.7448 719.476 30.7448 715.243 Q30.7448 714.638 30.8403 713.906 Q30.904 713.174 31.0631 712.283 L37.0787 712.251 Z" fill="#000000" fill-rule="nonzero" fill-opacity="1" /><path clip-path="url(#clip740)" d="M38.4473 679.5 Q34.5006 677.303 32.6227 674.248 Q30.7448 671.192 30.7448 667.055 Q30.7448 661.485 34.6597 658.461 Q38.5428 655.437 45.7361 655.437 L67.2522 655.437 L67.2522 661.325 L45.927 661.325 Q40.8026 661.325 38.32 663.14 Q35.8374 664.954 35.8374 668.678 Q35.8374 673.229 38.8611 675.871 Q41.8848 678.513 47.1047 678.513 L67.2522 678.513 L67.2522 684.401 L45.927 684.401 Q40.7708 684.401 38.32 686.215 Q35.8374 688.03 35.8374 691.817 Q35.8374 696.305 38.8929 698.947 Q41.9166 701.589 47.1047 701.589 L67.2522 701.589 L67.2522 707.477 L31.6042 707.477 L31.6042 701.589 L37.1424 701.589 Q33.864 699.583 32.3044 696.782 Q30.7448 693.982 30.7448 690.13 Q30.7448 686.247 32.7182 683.542 Q34.6916 680.805 38.4473 679.5 Z" fill="#000000" fill-rule="nonzero" fill-opacity="1" /><path clip-path="url(#clip740)" d="M49.3327 627.555 Q49.3327 634.653 50.9559 637.39 Q52.5792 640.128 56.4941 640.128 Q59.6133 640.128 61.4594 638.091 Q63.2736 636.022 63.2736 632.489 Q63.2736 627.619 59.8361 624.691 Q56.3668 621.731 50.6377 621.731 L49.3327 621.731 L49.3327 627.555 M46.9137 615.874 L67.2522 615.874 L67.2522 621.731 L61.8413 621.731 Q65.0878 623.736 66.6474 626.728 Q68.1752 629.72 68.1752 634.048 Q68.1752 639.523 65.1196 642.769 Q62.0323 645.984 56.8761 645.984 Q50.8605 645.984 47.8049 641.974 Q44.7494 637.931 44.7494 629.943 L44.7494 621.731 L44.1765 621.731 Q40.1342 621.731 37.9381 624.404 Q35.7101 627.046 35.7101 631.852 Q35.7101 634.908 36.4421 637.804 Q37.1742 640.701 38.6383 643.374 L33.2275 643.374 Q31.9861 640.159 31.3814 637.136 Q30.7448 634.112 30.7448 631.247 Q30.7448 623.513 34.7552 619.694 Q38.7656 615.874 46.9137 615.874 Z" fill="#000000" fill-rule="nonzero" fill-opacity="1" /><path clip-path="url(#clip740)" d="M17.727 603.811 L17.727 597.955 L67.2522 597.955 L67.2522 603.811 L17.727 603.811 Z" fill="#000000" fill-rule="nonzero" fill-opacity="1" /><path clip-path="url(#clip740)" d="M49.0144 541.523 Q42.6487 541.523 39.1476 544.165 Q35.6464 546.775 35.6464 551.517 Q35.6464 556.228 39.1476 558.869 Q42.6487 561.479 49.0144 561.479 Q55.3483 561.479 58.8494 558.869 Q62.3506 556.228 62.3506 551.517 Q62.3506 546.775 58.8494 544.165 Q55.3483 541.523 49.0144 541.523 M62.828 535.666 Q71.931 535.666 76.3551 539.709 Q80.8111 543.751 80.8111 552.09 Q80.8111 555.177 80.3337 557.915 Q79.8881 560.652 78.9332 563.23 L73.2359 563.23 Q74.6364 560.652 75.3048 558.137 Q75.9732 555.623 75.9732 553.013 Q75.9732 547.252 72.9495 544.387 Q69.9576 541.523 63.8783 541.523 L60.9819 541.523 Q64.133 543.337 65.6926 546.17 Q67.2522 549.003 67.2522 552.949 Q67.2522 559.506 62.2551 563.516 Q57.258 567.527 49.0144 567.527 Q40.739 567.527 35.7419 563.516 Q30.7448 559.506 30.7448 552.949 Q30.7448 549.003 32.3044 546.17 Q33.864 543.337 37.0151 541.523 L31.6042 541.523 L31.6042 535.666 L62.828 535.666 Z" fill="#000000" fill-rule="nonzero" fill-opacity="1" /><path clip-path="url(#clip740)" d="M47.9641 493.112 L50.8286 493.112 L50.8286 520.039 Q56.8761 519.657 60.0589 516.41 Q63.2099 513.132 63.2099 507.307 Q63.2099 503.933 62.3824 500.782 Q61.5549 497.599 59.8998 494.48 L65.4379 494.48 Q66.7747 497.631 67.475 500.941 Q68.1752 504.252 68.1752 507.657 Q68.1752 516.187 63.2099 521.184 Q58.2447 526.15 49.7783 526.15 Q41.0254 526.15 35.9011 521.439 Q30.7448 516.697 30.7448 508.676 Q30.7448 501.483 35.3918 497.313 Q40.0069 493.112 47.9641 493.112 M46.2453 498.968 Q41.4392 499.032 38.5746 501.674 Q35.7101 504.283 35.7101 508.612 Q35.7101 513.514 38.4792 516.474 Q41.2482 519.402 46.2772 519.848 L46.2453 498.968 Z" fill="#000000" fill-rule="nonzero" fill-opacity="1" /><path clip-path="url(#clip740)" d="M45.7361 453.867 L67.2522 453.867 L67.2522 459.724 L45.927 459.724 Q40.8663 459.724 38.3518 461.697 Q35.8374 463.67 35.8374 467.617 Q35.8374 472.359 38.8611 475.097 Q41.8848 477.834 47.1047 477.834 L67.2522 477.834 L67.2522 483.722 L31.6042 483.722 L31.6042 477.834 L37.1424 477.834 Q33.9277 475.733 32.3363 472.901 Q30.7448 470.036 30.7448 466.312 Q30.7448 460.169 34.5643 457.018 Q38.3518 453.867 45.7361 453.867 Z" fill="#000000" fill-rule="nonzero" fill-opacity="1" /><path clip-path="url(#clip740)" d="M47.9641 411.694 L50.8286 411.694 L50.8286 438.621 Q56.8761 438.239 60.0589 434.993 Q63.2099 431.714 63.2099 425.89 Q63.2099 422.516 62.3824 419.365 Q61.5549 416.182 59.8998 413.063 L65.4379 413.063 Q66.7747 416.214 67.475 419.524 Q68.1752 422.834 68.1752 426.24 Q68.1752 434.77 63.2099 439.767 Q58.2447 444.732 49.7783 444.732 Q41.0254 444.732 35.9011 440.022 Q30.7448 435.279 30.7448 427.258 Q30.7448 420.065 35.3918 415.896 Q40.0069 411.694 47.9641 411.694 M46.2453 417.551 Q41.4392 417.614 38.5746 420.256 Q35.7101 422.866 35.7101 427.195 Q35.7101 432.096 38.4792 435.056 Q41.2482 437.985 46.2772 438.43 L46.2453 417.551 Z" fill="#000000" fill-rule="nonzero" fill-opacity="1" /><path clip-path="url(#clip740)" d="M37.0787 381.425 Q36.5058 382.412 36.2512 383.59 Q35.9647 384.735 35.9647 386.136 Q35.9647 391.101 39.2112 393.775 Q42.4259 396.417 48.4733 396.417 L67.2522 396.417 L67.2522 402.305 L31.6042 402.305 L31.6042 396.417 L37.1424 396.417 Q33.8959 394.571 32.3363 391.61 Q30.7448 388.65 30.7448 384.417 Q30.7448 383.812 30.8403 383.08 Q30.904 382.348 31.0631 381.457 L37.0787 381.425 Z" fill="#000000" fill-rule="nonzero" fill-opacity="1" /><path clip-path="url(#clip740)" d="M49.3327 359.082 Q49.3327 366.179 50.9559 368.917 Q52.5792 371.654 56.4941 371.654 Q59.6133 371.654 61.4594 369.617 Q63.2736 367.548 63.2736 364.015 Q63.2736 359.145 59.8361 356.217 Q56.3668 353.257 50.6377 353.257 L49.3327 353.257 L49.3327 359.082 M46.9137 347.401 L67.2522 347.401 L67.2522 353.257 L61.8413 353.257 Q65.0878 355.262 66.6474 358.254 Q68.1752 361.246 68.1752 365.575 Q68.1752 371.049 65.1196 374.296 Q62.0323 377.51 56.8761 377.51 Q50.8605 377.51 47.8049 373.5 Q44.7494 369.458 44.7494 361.469 L44.7494 353.257 L44.1765 353.257 Q40.1342 353.257 37.9381 355.931 Q35.7101 358.572 35.7101 363.379 Q35.7101 366.434 36.4421 369.33 Q37.1742 372.227 38.6383 374.9 L33.2275 374.9 Q31.9861 371.686 31.3814 368.662 Q30.7448 365.638 30.7448 362.774 Q30.7448 355.039 34.7552 351.22 Q38.7656 347.401 46.9137 347.401 Z" fill="#000000" fill-rule="nonzero" fill-opacity="1" /><path clip-path="url(#clip740)" d="M21.4827 329.545 L31.6042 329.545 L31.6042 317.482 L36.1557 317.482 L36.1557 329.545 L55.5074 329.545 Q59.8679 329.545 61.1093 328.367 Q62.3506 327.158 62.3506 323.497 L62.3506 317.482 L67.2522 317.482 L67.2522 323.497 Q67.2522 330.277 64.7377 332.855 Q62.1914 335.433 55.5074 335.433 L36.1557 335.433 L36.1557 339.73 L31.6042 339.73 L31.6042 335.433 L21.4827 335.433 L21.4827 329.545 Z" fill="#000000" fill-rule="nonzero" fill-opacity="1" /><path clip-path="url(#clip740)" d="M31.6042 309.779 L31.6042 303.923 L67.2522 303.923 L67.2522 309.779 L31.6042 309.779 M17.727 309.779 L17.727 303.923 L25.143 303.923 L25.143 309.779 L17.727 309.779 Z" fill="#000000" fill-rule="nonzero" fill-opacity="1" /><path clip-path="url(#clip740)" d="M35.7101 277.855 Q35.7101 282.566 39.4022 285.303 Q43.0625 288.04 49.46 288.04 Q55.8575 288.04 59.5497 285.335 Q63.2099 282.598 63.2099 277.855 Q63.2099 273.176 59.5178 270.439 Q55.8257 267.702 49.46 267.702 Q43.1261 267.702 39.434 270.439 Q35.7101 273.176 35.7101 277.855 M30.7448 277.855 Q30.7448 270.216 35.7101 265.856 Q40.6753 261.495 49.46 261.495 Q58.2129 261.495 63.2099 265.856 Q68.1752 270.216 68.1752 277.855 Q68.1752 285.526 63.2099 289.886 Q58.2129 294.215 49.46 294.215 Q40.6753 294.215 35.7101 289.886 Q30.7448 285.526 30.7448 277.855 Z" fill="#000000" fill-rule="nonzero" fill-opacity="1" /><path clip-path="url(#clip740)" d="M45.7361 222.155 L67.2522 222.155 L67.2522 228.012 L45.927 228.012 Q40.8663 228.012 38.3518 229.985 Q35.8374 231.959 35.8374 235.905 Q35.8374 240.648 38.8611 243.385 Q41.8848 246.122 47.1047 246.122 L67.2522 246.122 L67.2522 252.011 L31.6042 252.011 L31.6042 246.122 L37.1424 246.122 Q33.9277 244.022 32.3363 241.189 Q30.7448 238.324 30.7448 234.6 Q30.7448 228.457 34.5643 225.306 Q38.3518 222.155 45.7361 222.155 Z" fill="#000000" fill-rule="nonzero" fill-opacity="1" /><path clip-path="url(#clip742)" d="M246.078 527.999 L318.12 514.681 L390.162 501.364 L462.204 488.047 L534.247 594.585 L606.289 527.999 L678.331 527.999 L750.373 727.758 L822.415 927.518 L894.457 954.152 L966.499 1006.68 L1038.54 1007.42 L1110.58 1007.42 L1182.63 980.787 L1254.67 860.931 L1326.71 738.856 L1398.75 607.902 L1470.79 474.729 L1542.84 341.556 L1614.88 208.383 L1686.92 75.2104 L1758.96 128.48 L1831 301.605 L1903.05 457.268 L1903.05 155.114 L1831 101.845 L1758.96 75.2104 L1686.92 75.2104 L1614.88 178.606 L1542.84 311.779 L1470.79 444.952 L1398.75 572.048 L1326.71 705.221 L1254.67 838.394 L1182.63 874.248 L1110.58 900.991 L1038.54 887.566 L966.499 874.248 L894.457 847.614 L822.415 820.979 L750.373 621.22 L678.331 421.46 L606.289 421.46 L534.247 488.047 L462.204 381.508 L390.162 394.826 L318.12 408.143 L246.078 421.46  Z" fill="#00467f" fill-rule="evenodd" fill-opacity="0.2"/>
<polyline clip-path="url(#clip742)" style="stroke:#00467f; stroke-linecap:round; stroke-linejoin:round; stroke-width:4; stroke-opacity:0; fill:none" points="246.078,474.729 318.12,461.412 390.162,448.095 462.204,434.778 534.247,541.316 606.289,474.729 678.331,474.729 750.373,674.489 822.415,874.248 894.457,900.883 966.499,940.466 1038.54,947.494 1110.58,954.206 1182.63,927.518 1254.67,849.663 1326.71,722.039 1398.75,589.975 1470.79,459.841 1542.84,326.668 1614.88,193.495 1686.92,75.2104 1758.96,101.845 1831,201.725 1903.05,306.191 "/>
<path clip-path="url(#clip742)" d="M246.078 527.999 L318.12 514.681 L390.162 501.364 L462.204 488.047 L534.247 594.585 L606.289 527.999 L678.331 527.999 L750.373 727.758 L822.415 927.518 L894.457 954.152 L966.499 1006.68 L1038.54 1007.42 L1110.58 1007.42 L1182.63 980.78 L1254.67 860.931 L1326.71 732.459 L1398.75 603.321 L1470.79 470.148 L1542.84 336.975 L1614.88 203.802 L1686.92 75.2104 L1758.96 128.48 L1831 208.383 L1903.05 408.942 L1903.05 208.383 L1831 101.845 L1758.96 75.2104 L1686.92 75.2104 L1614.88 188.817 L1542.84 321.99 L1470.79 454.261 L1398.75 582.548 L1326.71 711.298 L1254.67 838.394 L1182.63 874.248 L1110.58 900.991 L1038.54 901.513 L966.499 900.145 L894.457 847.614 L822.415 820.979 L750.373 621.22 L678.331 421.46 L606.289 433.446 L534.247 488.047 L462.204 381.508 L390.162 394.826 L318.12 408.143 L246.078 421.46  Z" fill="#00467f" fill-rule="evenodd" fill-opacity="0.2"/>
<polyline clip-path="url(#clip742)" style="stroke:#00467f; stroke-linecap:round; stroke-linejoin:round; stroke-width:4; stroke-opacity:0; fill:none" points="246.078,474.729 318.12,461.412 390.162,448.095 462.204,434.778 534.247,541.316 606.289,480.722 678.331,474.729 750.373,674.489 822.415,874.248 894.457,900.883 966.499,953.414 1038.54,954.467 1110.58,954.206 1182.63,927.514 1254.67,849.663 1326.71,721.878 1398.75,592.934 1470.79,462.205 1542.84,329.482 1614.88,196.309 1686.92,75.2104 1758.96,101.845 1831,155.114 1903.05,308.663 "/>
<path clip-path="url(#clip742)" d="M246.078 501.364 L318.12 488.047 L390.162 501.364 L462.204 461.412 L534.247 594.585 L606.289 501.364 L678.331 501.364 L750.373 701.124 L822.415 900.883 L894.457 927.518 L966.499 980.048 L1038.54 981.417 L1110.58 1007.42 L1182.63 954.26 L1254.67 855.809 L1326.71 727.758 L1398.75 594.585 L1470.79 461.412 L1542.84 328.239 L1614.88 195.066 L1686.92 75.2104 L1758.96 101.845 L1831 181.749 L1903.05 354.874 L1903.05 235.018 L1831 128.48 L1758.96 75.2104 L1686.92 75.2104 L1614.88 194.348 L1542.84 327.521 L1470.79 459.922 L1398.75 589.272 L1326.71 717.514 L1254.67 847.607 L1182.63 900.883 L1110.58 927.626 L1038.54 928.148 L966.499 926.779 L894.457 874.248 L822.415 847.614 L750.373 647.854 L678.331 448.095 L606.289 448.095 L534.247 514.681 L462.204 408.143 L390.162 421.46 L318.12 434.778 L246.078 448.095  Z" fill="#00467f" fill-rule="evenodd" fill-opacity="0.2"/>
<polyline clip-path="url(#clip742)" style="stroke:#00467f; stroke-linecap:round; stroke-linejoin:round; stroke-width:4; stroke-opacity:0; fill:none" points="246.078,474.729 318.12,461.412 390.162,461.412 462.204,434.778 534.247,554.633 606.289,474.729 678.331,474.729 750.373,674.489 822.415,874.248 894.457,900.883 966.499,953.414 1038.54,954.783 1110.58,967.524 1182.63,927.572 1254.67,851.708 1326.71,722.636 1398.75,591.928 1470.79,460.667 1542.84,327.88 1614.88,194.707 1686.92,75.2104 1758.96,88.5277 1831,155.114 1903.05,294.946 "/>
<polyline clip-path="url(#clip742)" style="stroke:#00467f; stroke-linecap:round; stroke-linejoin:round; stroke-width:4; stroke-opacity:1; fill:none" points="246.078,474.729 318.12,461.412 390.162,448.095 462.204,434.778 534.247,567.951 606.289,461.412 678.331,474.729 750.373,674.489 822.415,874.248 894.457,900.883 966.499,953.414 1038.54,954.783 1110.58,954.576 1182.63,927.518 1254.67,850.688 1326.71,723.487 1398.75,594.585 1470.79,461.412 1542.84,328.239 1614.88,195.066 1686.92,75.2104 1758.96,75.2104 1831,155.114 1903.05,288.287 "/>
</svg>
