<?xml version="1.0" encoding="utf-8"?>
<svg xmlns="http://www.w3.org/2000/svg" xmlns:xlink="http://www.w3.org/1999/xlink" width="500" height="300" viewBox="0 0 2000 1200">
<defs>
  <clipPath id="clip620">
    <rect x="0" y="0" width="2000" height="1200"/>
  </clipPath>
</defs>
<path clip-path="url(#clip620)" d="M0 1200 L2000 1200 L2000 0 L0 0  Z" fill="#ffffff" fill-rule="evenodd" fill-opacity="1"/>
<defs>
  <clipPath id="clip621">
    <rect x="400" y="0" width="1401" height="1200"/>
  </clipPath>
</defs>
<path clip-path="url(#clip620)" d="M210.628 1035.39 L1952.76 1035.39 L1952.76 47.2441 L210.628 47.2441  Z" fill="#ffffff" fill-rule="evenodd" fill-opacity="1"/>
<defs>
  <clipPath id="clip622">
    <rect x="210" y="47" width="1743" height="989"/>
  </clipPath>
</defs>
<polyline clip-path="url(#clip622)" style="stroke:#000000; stroke-linecap:round; stroke-linejoin:round; stroke-width:2; stroke-opacity:0.1; fill:none" points="545.763,1035.39 545.763,47.2441 "/>
<polyline clip-path="url(#clip622)" style="stroke:#000000; stroke-linecap:round; stroke-linejoin:round; stroke-width:2; stroke-opacity:0.1; fill:none" points="903.049,1035.39 903.049,47.2441 "/>
<polyline clip-path="url(#clip622)" style="stroke:#000000; stroke-linecap:round; stroke-linejoin:round; stroke-width:2; stroke-opacity:0.1; fill:none" points="1260.34,1035.39 1260.34,47.2441 "/>
<polyline clip-path="url(#clip622)" style="stroke:#000000; stroke-linecap:round; stroke-linejoin:round; stroke-width:2; stroke-opacity:0.1; fill:none" points="1617.62,1035.39 1617.62,47.2441 "/>
<polyline clip-path="url(#clip622)" style="stroke:#000000; stroke-linecap:round; stroke-linejoin:round; stroke-width:2; stroke-opacity:0.1; fill:none" points="210.628,1007.42 1952.76,1007.42 "/>
<polyline clip-path="url(#clip622)" style="stroke:#000000; stroke-linecap:round; stroke-linejoin:round; stroke-width:2; stroke-opacity:0.1; fill:none" points="210.628,830.236 1952.76,830.236 "/>
<polyline clip-path="url(#clip622)" style="stroke:#000000; stroke-linecap:round; stroke-linejoin:round; stroke-width:2; stroke-opacity:0.1; fill:none" points="210.628,653.05 1952.76,653.05 "/>
<polyline clip-path="url(#clip622)" style="stroke:#000000; stroke-linecap:round; stroke-linejoin:round; stroke-width:2; stroke-opacity:0.1; fill:none" points="210.628,475.864 1952.76,475.864 "/>
<polyline clip-path="url(#clip622)" style="stroke:#000000; stroke-linecap:round; stroke-linejoin:round; stroke-width:2; stroke-opacity:0.1; fill:none" points="210.628,298.678 1952.76,298.678 "/>
<polyline clip-path="url(#clip622)" style="stroke:#000000; stroke-linecap:round; stroke-linejoin:round; stroke-width:2; stroke-opacity:0.1; fill:none" points="210.628,121.492 1952.76,121.492 "/>
<polyline clip-path="url(#clip620)" style="stroke:#000000; stroke-linecap:round; stroke-linejoin:round; stroke-width:4; stroke-opacity:1; fill:none" points="210.628,1035.39 1952.76,1035.39 "/>
<polyline clip-path="url(#clip620)" style="stroke:#000000; stroke-linecap:round; stroke-linejoin:round; stroke-width:4; stroke-opacity:1; fill:none" points="545.763,1035.39 545.763,1016.49 "/>
<polyline clip-path="url(#clip620)" style="stroke:#000000; stroke-linecap:round; stroke-linejoin:round; stroke-width:4; stroke-opacity:1; fill:none" points="903.049,1035.39 903.049,1016.49 "/>
<polyline clip-path="url(#clip620)" style="stroke:#000000; stroke-linecap:round; stroke-linejoin:round; stroke-width:4; stroke-opacity:1; fill:none" points="1260.34,1035.39 1260.34,1016.49 "/>
<polyline clip-path="url(#clip620)" style="stroke:#000000; stroke-linecap:round; stroke-linejoin:round; stroke-width:4; stroke-opacity:1; fill:none" points="1617.62,1035.39 1617.62,1016.49 "/>
<path clip-path="url(#clip620)" d="M536.04 1060.03 L554.397 1060.03 L554.397 1063.96 L540.323 1063.96 L540.323 1072.44 Q541.341 1072.09 542.36 1071.93 Q543.378 1071.74 544.397 1071.74 Q550.184 1071.74 553.564 1074.91 Q556.943 1078.08 556.943 1083.5 Q556.943 1089.08 553.471 1092.18 Q549.999 1095.26 543.679 1095.26 Q541.503 1095.26 539.235 1094.89 Q536.99 1094.52 534.582 1093.78 L534.582 1089.08 Q536.665 1090.21 538.888 1090.77 Q541.11 1091.32 543.587 1091.32 Q547.591 1091.32 549.929 1089.22 Q552.267 1087.11 552.267 1083.5 Q552.267 1079.89 549.929 1077.78 Q547.591 1075.68 543.587 1075.68 Q541.712 1075.68 539.837 1076.09 Q537.985 1076.51 536.04 1077.39 L536.04 1060.03 Z" fill="#000000" fill-rule="nonzero" fill-opacity="1" /><path clip-path="url(#clip620)" d="M877.737 1090.65 L885.375 1090.65 L885.375 1064.29 L877.065 1065.95 L877.065 1061.69 L885.329 1060.03 L890.005 1060.03 L890.005 1090.65 L897.644 1090.65 L897.644 1094.59 L877.737 1094.59 L877.737 1090.65 Z" fill="#000000" fill-rule="nonzero" fill-opacity="1" /><path clip-path="url(#clip620)" d="M917.088 1063.11 Q913.477 1063.11 911.648 1066.67 Q909.843 1070.21 909.843 1077.34 Q909.843 1084.45 911.648 1088.01 Q913.477 1091.56 917.088 1091.56 Q920.722 1091.56 922.528 1088.01 Q924.357 1084.45 924.357 1077.34 Q924.357 1070.21 922.528 1066.67 Q920.722 1063.11 917.088 1063.11 M917.088 1059.4 Q922.898 1059.4 925.954 1064.01 Q929.033 1068.59 929.033 1077.34 Q929.033 1086.07 925.954 1090.68 Q922.898 1095.26 917.088 1095.26 Q911.278 1095.26 908.199 1090.68 Q905.144 1086.07 905.144 1077.34 Q905.144 1068.59 908.199 1064.01 Q911.278 1059.4 917.088 1059.4 Z" fill="#000000" fill-rule="nonzero" fill-opacity="1" /><path clip-path="url(#clip620)" d="M1235.52 1090.65 L1243.16 1090.65 L1243.16 1064.29 L1234.85 1065.95 L1234.85 1061.69 L1243.11 1060.03 L1247.79 1060.03 L1247.79 1090.65 L1255.43 1090.65 L1255.43 1094.59 L1235.52 1094.59 L1235.52 1090.65 Z" fill="#000000" fill-rule="nonzero" fill-opacity="1" /><path clip-path="url(#clip620)" d="M1264.92 1060.03 L1283.27 1060.03 L1283.27 1063.96 L1269.2 1063.96 L1269.2 1072.44 Q1270.22 1072.09 1271.24 1071.93 Q1272.26 1071.74 1273.27 1071.74 Q1279.06 1071.74 1282.44 1074.91 Q1285.82 1078.08 1285.82 1083.5 Q1285.82 1089.08 1282.35 1092.18 Q1278.88 1095.26 1272.56 1095.26 Q1270.38 1095.26 1268.11 1094.89 Q1265.87 1094.52 1263.46 1093.78 L1263.46 1089.08 Q1265.54 1090.21 1267.77 1090.77 Q1269.99 1091.32 1272.46 1091.32 Q1276.47 1091.32 1278.81 1089.22 Q1281.15 1087.11 1281.15 1083.5 Q1281.15 1079.89 1278.81 1077.78 Q1276.47 1075.68 1272.46 1075.68 Q1270.59 1075.68 1268.71 1076.09 Q1266.86 1076.51 1264.92 1077.39 L1264.92 1060.03 Z" fill="#000000" fill-rule="nonzero" fill-opacity="1" /><path clip-path="url(#clip620)" d="M1596.39 1090.65 L1612.71 1090.65 L1612.71 1094.59 L1590.77 1094.59 L1590.77 1090.65 Q1593.43 1087.9 1598.02 1083.27 Q1602.62 1078.62 1603.8 1077.27 Q1606.05 1074.75 1606.93 1073.01 Q1607.83 1071.25 1607.83 1069.56 Q1607.83 1066.81 1605.89 1065.07 Q1603.96 1063.34 1600.86 1063.34 Q1598.66 1063.34 1596.21 1064.1 Q1593.78 1064.87 1591 1066.42 L1591 1061.69 Q1593.83 1060.56 1596.28 1059.98 Q1598.73 1059.4 1600.77 1059.4 Q1606.14 1059.4 1609.33 1062.09 Q1612.53 1064.77 1612.53 1069.26 Q1612.53 1071.39 1611.72 1073.31 Q1610.93 1075.21 1608.83 1077.81 Q1608.25 1078.48 1605.14 1081.69 Q1602.04 1084.89 1596.39 1090.65 Z" fill="#000000" fill-rule="nonzero" fill-opacity="1" /><path clip-path="url(#clip620)" d="M1632.53 1063.11 Q1628.92 1063.11 1627.09 1066.67 Q1625.28 1070.21 1625.28 1077.34 Q1625.28 1084.45 1627.09 1088.01 Q1628.92 1091.56 1632.53 1091.56 Q1636.16 1091.56 1637.97 1088.01 Q1639.8 1084.45 1639.8 1077.34 Q1639.8 1070.21 1637.97 1066.67 Q1636.16 1063.11 1632.53 1063.11 M1632.53 1059.4 Q1638.34 1059.4 1641.39 1064.01 Q1644.47 1068.59 1644.47 1077.34 Q1644.47 1086.07 1641.39 1090.68 Q1638.34 1095.26 1632.53 1095.26 Q1626.72 1095.26 1623.64 1090.68 Q1620.58 1086.07 1620.58 1077.34 Q1620.58 1068.59 1623.64 1064.01 Q1626.72 1059.4 1632.53 1059.4 Z" fill="#000000" fill-rule="nonzero" fill-opacity="1" /><path clip-path="url(#clip620)" d="M1006.39 1126.73 L1012.82 1126.73 L1012.82 1146.21 L1036.18 1146.21 L1036.18 1126.73 L1042.61 1126.73 L1042.61 1174.25 L1036.18 1174.25 L1036.18 1151.62 L1012.82 1151.62 L1012.82 1174.25 L1006.39 1174.25 L1006.39 1126.73 Z" fill="#000000" fill-rule="nonzero" fill-opacity="1" /><path clip-path="url(#clip620)" d="M1068.96 1142.71 Q1064.25 1142.71 1061.51 1146.4 Q1058.78 1150.06 1058.78 1156.46 Q1058.78 1162.86 1061.48 1166.55 Q1064.22 1170.21 1068.96 1170.21 Q1073.64 1170.21 1076.38 1166.52 Q1079.11 1162.83 1079.11 1156.46 Q1079.11 1150.13 1076.38 1146.43 Q1073.64 1142.71 1068.96 1142.71 M1068.96 1137.74 Q1076.6 1137.74 1080.96 1142.71 Q1085.32 1147.68 1085.32 1156.46 Q1085.32 1165.21 1080.96 1170.21 Q1076.6 1175.17 1068.96 1175.17 Q1061.29 1175.17 1056.93 1170.21 Q1052.6 1165.21 1052.6 1156.46 Q1052.6 1147.68 1056.93 1142.71 Q1061.29 1137.74 1068.96 1137.74 Z" fill="#000000" fill-rule="nonzero" fill-opacity="1" /><path clip-path="url(#clip620)" d="M1094.42 1160.18 L1094.42 1138.6 L1100.28 1138.6 L1100.28 1159.96 Q1100.28 1165.02 1102.25 1167.57 Q1104.23 1170.08 1108.17 1170.08 Q1112.92 1170.08 1115.65 1167.06 Q1118.42 1164.03 1118.42 1158.82 L1118.42 1138.6 L1124.28 1138.6 L1124.28 1174.25 L1118.42 1174.25 L1118.42 1168.78 Q1116.29 1172.02 1113.46 1173.62 Q1110.66 1175.17 1106.93 1175.17 Q1100.79 1175.17 1097.61 1171.36 Q1094.42 1167.54 1094.42 1160.18 M1109.16 1137.74 L1109.16 1137.74 Z" fill="#000000" fill-rule="nonzero" fill-opacity="1" /><path clip-path="url(#clip620)" d="M1157 1144.08 Q1156.01 1143.51 1154.83 1143.25 Q1153.69 1142.96 1152.29 1142.96 Q1147.32 1142.96 1144.65 1146.21 Q1142.01 1149.43 1142.01 1155.47 L1142.01 1174.25 L1136.12 1174.25 L1136.12 1138.6 L1142.01 1138.6 L1142.01 1144.14 Q1143.85 1140.9 1146.81 1139.34 Q1149.77 1137.74 1154.01 1137.74 Q1154.61 1137.74 1155.34 1137.84 Q1156.08 1137.9 1156.97 1138.06 L1157 1144.08 Z" fill="#000000" fill-rule="nonzero" fill-opacity="1" /><polyline clip-path="url(#clip620)" style="stroke:#000000; stroke-linecap:round; stroke-linejoin:round; stroke-width:4; stroke-opacity:1; fill:none" points="210.628,1035.39 210.628,47.2441 "/>
<polyline clip-path="url(#clip620)" style="stroke:#000000; stroke-linecap:round; stroke-linejoin:round; stroke-width:4; stroke-opacity:1; fill:none" points="210.628,1007.42 229.526,1007.42 "/>
<polyline clip-path="url(#clip620)" style="stroke:#000000; stroke-linecap:round; stroke-linejoin:round; stroke-width:4; stroke-opacity:1; fill:none" points="210.628,830.236 229.526,830.236 "/>
<polyline clip-path="url(#clip620)" style="stroke:#000000; stroke-linecap:round; stroke-linejoin:round; stroke-width:4; stroke-opacity:1; fill:none" points="210.628,653.05 229.526,653.05 "/>
<polyline clip-path="url(#clip620)" style="stroke:#000000; stroke-linecap:round; stroke-linejoin:round; stroke-width:4; stroke-opacity:1; fill:none" points="210.628,475.864 229.526,475.864 "/>
<polyline clip-path="url(#clip620)" style="stroke:#000000; stroke-linecap:round; stroke-linejoin:round; stroke-width:4; stroke-opacity:1; fill:none" points="210.628,298.678 229.526,298.678 "/>
<polyline clip-path="url(#clip620)" style="stroke:#000000; stroke-linecap:round; stroke-linejoin:round; stroke-width:4; stroke-opacity:1; fill:none" points="210.628,121.492 229.526,121.492 "/>
<path clip-path="url(#clip620)" d="M123.453 993.22 Q119.841 993.22 118.013 996.785 Q116.207 1000.33 116.207 1007.46 Q116.207 1014.56 118.013 1018.13 Q119.841 1021.67 123.453 1021.67 Q127.087 1021.67 128.892 1018.13 Q130.721 1014.56 130.721 1007.46 Q130.721 1000.33 128.892 996.785 Q127.087 993.22 123.453 993.22 M123.453 989.517 Q129.263 989.517 132.318 994.123 Q135.397 998.706 135.397 1007.46 Q135.397 1016.18 132.318 1020.79 Q129.263 1025.37 123.453 1025.37 Q117.642 1025.37 114.564 1020.79 Q111.508 1016.18 111.508 1007.46 Q111.508 998.706 114.564 994.123 Q117.642 989.517 123.453 989.517 Z" fill="#000000" fill-rule="nonzero" fill-opacity="1" /><path clip-path="url(#clip620)" d="M143.614 1018.82 L148.499 1018.82 L148.499 1024.7 L143.614 1024.7 L143.614 1018.82 Z" fill="#000000" fill-rule="nonzero" fill-opacity="1" /><path clip-path="url(#clip620)" d="M168.684 993.22 Q165.073 993.22 163.244 996.785 Q161.438 1000.33 161.438 1007.46 Q161.438 1014.56 163.244 1018.13 Q165.073 1021.67 168.684 1021.67 Q172.318 1021.67 174.124 1018.13 Q175.952 1014.56 175.952 1007.46 Q175.952 1000.33 174.124 996.785 Q172.318 993.22 168.684 993.22 M168.684 989.517 Q174.494 989.517 177.549 994.123 Q180.628 998.706 180.628 1007.46 Q180.628 1016.18 177.549 1020.79 Q174.494 1025.37 168.684 1025.37 Q162.874 1025.37 159.795 1020.79 Q156.739 1016.18 156.739 1007.46 Q156.739 998.706 159.795 994.123 Q162.874 989.517 168.684 989.517 Z" fill="#000000" fill-rule="nonzero" fill-opacity="1" /><path clip-path="url(#clip620)" d="M124.448 816.034 Q120.837 816.034 119.008 819.599 Q117.203 823.141 117.203 830.27 Q117.203 837.377 119.008 840.942 Q120.837 844.483 124.448 844.483 Q128.082 844.483 129.888 840.942 Q131.716 837.377 131.716 830.27 Q131.716 823.141 129.888 819.599 Q128.082 816.034 124.448 816.034 M124.448 812.331 Q130.258 812.331 133.314 816.937 Q136.392 821.52 136.392 830.27 Q136.392 838.997 133.314 843.604 Q130.258 848.187 124.448 848.187 Q118.638 848.187 115.559 843.604 Q112.504 838.997 112.504 830.27 Q112.504 821.52 115.559 816.937 Q118.638 812.331 124.448 812.331 Z" fill="#000000" fill-rule="nonzero" fill-opacity="1" /><path clip-path="url(#clip620)" d="M144.61 841.636 L149.494 841.636 L149.494 847.516 L144.61 847.516 L144.61 841.636 Z" fill="#000000" fill-rule="nonzero" fill-opacity="1" /><path clip-path="url(#clip620)" d="M159.725 812.956 L178.082 812.956 L178.082 816.891 L164.008 816.891 L164.008 825.363 Q165.026 825.016 166.045 824.854 Q167.063 824.669 168.082 824.669 Q173.869 824.669 177.249 827.84 Q180.628 831.011 180.628 836.428 Q180.628 842.006 177.156 845.108 Q173.684 848.187 167.364 848.187 Q165.188 848.187 162.92 847.817 Q160.675 847.446 158.267 846.705 L158.267 842.006 Q160.35 843.141 162.573 843.696 Q164.795 844.252 167.272 844.252 Q171.276 844.252 173.614 842.145 Q175.952 840.039 175.952 836.428 Q175.952 832.817 173.614 830.71 Q171.276 828.604 167.272 828.604 Q165.397 828.604 163.522 829.02 Q161.67 829.437 159.725 830.317 L159.725 812.956 Z" fill="#000000" fill-rule="nonzero" fill-opacity="1" /><path clip-path="url(#clip620)" d="M114.263 666.395 L121.902 666.395 L121.902 640.029 L113.591 641.696 L113.591 637.436 L121.855 635.77 L126.531 635.77 L126.531 666.395 L134.17 666.395 L134.17 670.33 L114.263 670.33 L114.263 666.395 Z" fill="#000000" fill-rule="nonzero" fill-opacity="1" /><path clip-path="url(#clip620)" d="M143.614 664.45 L148.499 664.45 L148.499 670.33 L143.614 670.33 L143.614 664.45 Z" fill="#000000" fill-rule="nonzero" fill-opacity="1" /><path clip-path="url(#clip620)" d="M168.684 638.848 Q165.073 638.848 163.244 642.413 Q161.438 645.955 161.438 653.084 Q161.438 660.191 163.244 663.756 Q165.073 667.297 168.684 667.297 Q172.318 667.297 174.124 663.756 Q175.952 660.191 175.952 653.084 Q175.952 645.955 174.124 642.413 Q172.318 638.848 168.684 638.848 M168.684 635.145 Q174.494 635.145 177.549 639.751 Q180.628 644.334 180.628 653.084 Q180.628 661.811 177.549 666.418 Q174.494 671.001 168.684 671.001 Q162.874 671.001 159.795 666.418 Q156.739 661.811 156.739 653.084 Q156.739 644.334 159.795 639.751 Q162.874 635.145 168.684 635.145 Z" fill="#000000" fill-rule="nonzero" fill-opacity="1" /><path clip-path="url(#clip620)" d="M115.258 489.209 L122.897 489.209 L122.897 462.843 L114.587 464.51 L114.587 460.25 L122.851 458.584 L127.527 458.584 L127.527 489.209 L135.165 489.209 L135.165 493.144 L115.258 493.144 L115.258 489.209 Z" fill="#000000" fill-rule="nonzero" fill-opacity="1" /><path clip-path="url(#clip620)" d="M144.61 487.264 L149.494 487.264 L149.494 493.144 L144.61 493.144 L144.61 487.264 Z" fill="#000000" fill-rule="nonzero" fill-opacity="1" /><path clip-path="url(#clip620)" d="M159.725 458.584 L178.082 458.584 L178.082 462.519 L164.008 462.519 L164.008 470.991 Q165.026 470.644 166.045 470.482 Q167.063 470.297 168.082 470.297 Q173.869 470.297 177.249 473.468 Q180.628 476.639 180.628 482.056 Q180.628 487.635 177.156 490.736 Q173.684 493.815 167.364 493.815 Q165.188 493.815 162.92 493.445 Q160.675 493.074 158.267 492.334 L158.267 487.635 Q160.35 488.769 162.573 489.324 Q164.795 489.88 167.272 489.88 Q171.276 489.88 173.614 487.773 Q175.952 485.667 175.952 482.056 Q175.952 478.445 173.614 476.338 Q171.276 474.232 167.272 474.232 Q165.397 474.232 163.522 474.649 Q161.67 475.065 159.725 475.945 L159.725 458.584 Z" fill="#000000" fill-rule="nonzero" fill-opacity="1" /><path clip-path="url(#clip620)" d="M117.48 312.023 L133.8 312.023 L133.8 315.958 L111.855 315.958 L111.855 312.023 Q114.517 309.268 119.101 304.639 Q123.707 299.986 124.888 298.643 Q127.133 296.12 128.013 294.384 Q128.915 292.625 128.915 290.935 Q128.915 288.18 126.971 286.444 Q125.05 284.708 121.948 284.708 Q119.749 284.708 117.295 285.472 Q114.865 286.236 112.087 287.787 L112.087 283.065 Q114.911 281.93 117.365 281.352 Q119.818 280.773 121.855 280.773 Q127.226 280.773 130.42 283.458 Q133.615 286.143 133.615 290.634 Q133.615 292.764 132.804 294.685 Q132.017 296.583 129.911 299.176 Q129.332 299.847 126.23 303.064 Q123.128 306.259 117.48 312.023 Z" fill="#000000" fill-rule="nonzero" fill-opacity="1" /><path clip-path="url(#clip620)" d="M143.614 310.078 L148.499 310.078 L148.499 315.958 L143.614 315.958 L143.614 310.078 Z" fill="#000000" fill-rule="nonzero" fill-opacity="1" /><path clip-path="url(#clip620)" d="M168.684 284.477 Q165.073 284.477 163.244 288.041 Q161.438 291.583 161.438 298.713 Q161.438 305.819 163.244 309.384 Q165.073 312.926 168.684 312.926 Q172.318 312.926 174.124 309.384 Q175.952 305.819 175.952 298.713 Q175.952 291.583 174.124 288.041 Q172.318 284.477 168.684 284.477 M168.684 280.773 Q174.494 280.773 177.549 285.379 Q180.628 289.963 180.628 298.713 Q180.628 307.439 177.549 312.046 Q174.494 316.629 168.684 316.629 Q162.874 316.629 159.795 312.046 Q156.739 307.439 156.739 298.713 Q156.739 289.963 159.795 285.379 Q162.874 280.773 168.684 280.773 Z" fill="#000000" fill-rule="nonzero" fill-opacity="1" /><path clip-path="url(#clip620)" d="M118.476 134.837 L134.795 134.837 L134.795 138.772 L112.851 138.772 L112.851 134.837 Q115.513 132.082 120.096 127.453 Q124.703 122.8 125.883 121.457 Q128.128 118.934 129.008 117.198 Q129.911 115.439 129.911 113.749 Q129.911 110.994 127.966 109.258 Q126.045 107.522 122.943 107.522 Q120.744 107.522 118.291 108.286 Q115.86 109.05 113.082 110.601 L113.082 105.879 Q115.906 104.744 118.36 104.166 Q120.814 103.587 122.851 103.587 Q128.221 103.587 131.415 106.272 Q134.61 108.957 134.61 113.448 Q134.61 115.578 133.8 117.499 Q133.013 119.397 130.906 121.99 Q130.328 122.661 127.226 125.879 Q124.124 129.073 118.476 134.837 Z" fill="#000000" fill-rule="nonzero" fill-opacity="1" /><path clip-path="url(#clip620)" d="M144.61 132.892 L149.494 132.892 L149.494 138.772 L144.61 138.772 L144.61 132.892 Z" fill="#000000" fill-rule="nonzero" fill-opacity="1" /><path clip-path="url(#clip620)" d="M159.725 104.212 L178.082 104.212 L178.082 108.147 L164.008 108.147 L164.008 116.619 Q165.026 116.272 166.045 116.11 Q167.063 115.925 168.082 115.925 Q173.869 115.925 177.249 119.096 Q180.628 122.267 180.628 127.684 Q180.628 133.263 177.156 136.365 Q173.684 139.443 167.364 139.443 Q165.188 139.443 162.92 139.073 Q160.675 138.703 158.267 137.962 L158.267 133.263 Q160.35 134.397 162.573 134.953 Q164.795 135.508 167.272 135.508 Q171.276 135.508 173.614 133.402 Q175.952 131.295 175.952 127.684 Q175.952 124.073 173.614 121.967 Q171.276 119.86 167.272 119.86 Q165.397 119.86 163.522 120.277 Q161.67 120.693 159.725 121.573 L159.725 104.212 Z" fill="#000000" fill-rule="nonzero" fill-opacity="1" /><path clip-path="url(#clip620)" d="M19.7322 682.46 L19.7322 676.03 L61.8413 676.03 L61.8413 652.891 L67.2522 652.891 L67.2522 682.46 L19.7322 682.46 Z" fill="#000000" fill-rule="nonzero" fill-opacity="1" /><path clip-path="url(#clip620)" d="M35.7101 633.73 Q35.7101 638.441 39.4022 641.178 Q43.0625 643.915 49.46 643.915 Q55.8575 643.915 59.5497 641.21 Q63.2099 638.473 63.2099 633.73 Q63.2099 629.051 59.5178 626.314 Q55.8257 623.577 49.46 623.577 Q43.1261 623.577 39.434 626.314 Q35.7101 629.051 35.7101 633.73 M30.7448 633.73 Q30.7448 626.091 35.7101 621.731 Q40.6753 617.37 49.46 617.37 Q58.2129 617.37 63.2099 621.731 Q68.1752 626.091 68.1752 633.73 Q68.1752 641.401 63.2099 645.761 Q58.2129 650.09 49.46 650.09 Q40.6753 650.09 35.7101 645.761 Q30.7448 641.401 30.7448 633.73 Z" fill="#000000" fill-rule="nonzero" fill-opacity="1" /><path clip-path="url(#clip620)" d="M32.6545 584.937 L38.1927 584.937 Q36.9196 587.42 36.283 590.093 Q35.6464 592.767 35.6464 595.631 Q35.6464 599.992 36.9832 602.188 Q38.32 604.352 40.9936 604.352 Q43.0306 604.352 44.2083 602.793 Q45.3541 601.233 46.4045 596.523 L46.8501 594.517 Q48.1869 588.279 50.6377 585.669 Q53.0566 583.027 57.4171 583.027 Q62.3824 583.027 65.2788 586.974 Q68.1752 590.889 68.1752 597.764 Q68.1752 600.628 67.6023 603.748 Q67.0612 606.835 65.9472 610.272 L59.8998 610.272 Q61.5867 607.026 62.446 603.875 Q63.2736 600.724 63.2736 597.637 Q63.2736 593.499 61.8731 591.271 Q60.4409 589.043 57.8627 589.043 Q55.4756 589.043 54.2025 590.666 Q52.9293 592.258 51.7517 597.7 L51.2742 599.737 Q50.1284 605.18 47.7731 607.599 Q45.386 610.018 41.2482 610.018 Q36.2193 610.018 33.4821 606.453 Q30.7448 602.888 30.7448 596.332 Q30.7448 593.085 31.2223 590.221 Q31.6997 587.356 32.6545 584.937 Z" fill="#000000" fill-rule="nonzero" fill-opacity="1" /><path clip-path="url(#clip620)" d="M21.4827 567.909 L31.6042 567.909 L31.6042 555.846 L36.1557 555.846 L36.1557 567.909 L55.5074 567.909 Q59.8679 567.909 61.1093 566.731 Q62.3506 565.522 62.3506 561.861 L62.3506 555.846 L67.2522 555.846 L67.2522 561.861 Q67.2522 568.641 64.7377 571.219 Q62.1914 573.797 55.5074 573.797 L36.1557 573.797 L36.1557 578.094 L31.6042 578.094 L31.6042 573.797 L21.4827 573.797 L21.4827 567.909 Z" fill="#000000" fill-rule="nonzero" fill-opacity="1" /><path clip-path="url(#clip620)" d="M17.727 527.423 L17.727 521.566 L67.2522 521.566 L67.2522 527.423 L17.727 527.423 Z" fill="#000000" fill-rule="nonzero" fill-opacity="1" /><path clip-path="url(#clip620)" d="M35.7101 495.499 Q35.7101 500.209 39.4022 502.947 Q43.0625 505.684 49.46 505.684 Q55.8575 505.684 59.5497 502.979 Q63.2099 500.241 63.2099 495.499 Q63.2099 490.82 59.5178 488.083 Q55.8257 485.345 49.46 485.345 Q43.1261 485.345 39.434 488.083 Q35.7101 490.82 35.7101 495.499 M30.7448 495.499 Q30.7448 487.86 35.7101 483.499 Q40.6753 479.139 49.46 479.139 Q58.2129 479.139 63.2099 483.499 Q68.1752 487.86 68.1752 495.499 Q68.1752 503.169 63.2099 507.53 Q58.2129 511.859 49.46 511.859 Q40.6753 511.859 35.7101 507.53 Q30.7448 503.169 30.7448 495.499 Z" fill="#000000" fill-rule="nonzero" fill-opacity="1" /><path clip-path="url(#clip620)" d="M49.3327 453.231 Q49.3327 460.328 50.9559 463.066 Q52.5792 465.803 56.4941 465.803 Q59.6133 465.803 61.4594 463.766 Q63.2736 461.697 63.2736 458.164 Q63.2736 453.294 59.8361 450.366 Q56.3668 447.406 50.6377 447.406 L49.3327 447.406 L49.3327 453.231 M46.9137 441.549 L67.2522 441.549 L67.2522 447.406 L61.8413 447.406 Q65.0878 449.411 66.6474 452.403 Q68.1752 455.395 68.1752 459.724 Q68.1752 465.198 65.1196 468.445 Q62.0323 471.659 56.8761 471.659 Q50.8605 471.659 47.8049 467.649 Q44.7494 463.607 44.7494 455.618 L44.7494 447.406 L44.1765 447.406 Q40.1342 447.406 37.9381 450.079 Q35.7101 452.721 35.7101 457.527 Q35.7101 460.583 36.4421 463.479 Q37.1742 466.376 38.6383 469.049 L33.2275 469.049 Q31.9861 465.835 31.3814 462.811 Q30.7448 459.787 30.7448 456.923 Q30.7448 449.188 34.7552 445.369 Q38.7656 441.549 46.9137 441.549 Z" fill="#000000" fill-rule="nonzero" fill-opacity="1" /><path clip-path="url(#clip620)" d="M37.0151 406.029 L17.727 406.029 L17.727 400.172 L67.2522 400.172 L67.2522 406.029 L61.905 406.029 Q65.0878 407.875 66.6474 410.708 Q68.1752 413.508 68.1752 417.455 Q68.1752 423.916 63.019 427.99 Q57.8627 432.033 49.46 432.033 Q41.0573 432.033 35.9011 427.99 Q30.7448 423.916 30.7448 417.455 Q30.7448 413.508 32.3044 410.708 Q33.8322 407.875 37.0151 406.029 M49.46 425.985 Q55.9212 425.985 59.6133 423.344 Q63.2736 420.67 63.2736 416.023 Q63.2736 411.376 59.6133 408.702 Q55.9212 406.029 49.46 406.029 Q42.9988 406.029 39.3385 408.702 Q35.6464 411.376 35.6464 416.023 Q35.6464 420.67 39.3385 423.344 Q42.9988 425.985 49.46 425.985 Z" fill="#000000" fill-rule="nonzero" fill-opacity="1" /><path clip-path="url(#clip622)" d="M259.934 1007.42 L331.391 1007.42 L402.848 1007.42 L474.305 1007.42 L545.763 1007.42 L617.22 1007.42 L688.677 1007.42 L760.134 1007.42 L831.592 1007.42 L903.049 1007.42 L974.506 1007.42 L1045.96 1007.42 L1117.42 1007.42 L1188.88 1007.42 L1260.34 1007.42 L1331.79 1007.42 L1403.25 1007.42 L1474.71 1007.42 L1546.16 1007.42 L1617.62 1007.42 L1689.08 1007.42 L1760.54 1007.42 L1831.99 1007.42 L1903.45 1007.42 L1903.45 1007.42 L1831.99 1007.42 L1760.54 298.678 L1689.08 75.2104 L1617.62 653.05 L1546.16 1007.42 L1474.71 1007.42 L1403.25 1007.42 L1331.79 1007.42 L1260.34 1007.42 L1188.88 1007.42 L1117.42 1007.42 L1045.96 1007.42 L974.506 1007.42 L903.049 1007.42 L831.592 1007.42 L760.134 1007.42 L688.677 1007.42 L617.22 1007.42 L545.763 1007.42 L474.305 1007.42 L402.848 1007.42 L331.391 1007.42 L259.934 1007.42  Z" fill="#00467f" fill-rule="evenodd" fill-opacity="0.2"/>
<polyline clip-path="url(#clip622)" style="stroke:#00467f; stroke-linecap:round; stroke-linejoin:round; stroke-width:4; stroke-opacity:0; fill:none" points="259.934,1007.42 331.391,1007.42 402.848,1007.42 474.305,1007.42 545.763,1007.42 617.22,1007.42 688.677,1007.42 760.134,1007.42 831.592,1007.42 903.049,1007.42 974.506,1007.42 1045.96,1007.42 1117.42,1007.42 1188.88,1007.42 1260.34,1007.42 1331.79,1007.42 1403.25,1007.42 1474.71,1007.42 1546.16,1007.42 1617.62,830.236 1689.08,541.316 1760.54,653.05 1831.99,1007.42 1903.45,1007.42 "/>
<path clip-path="url(#clip622)" d="M259.934 1007.42 L331.391 1007.42 L402.848 1007.42 L474.305 1007.42 L545.763 1007.42 L617.22 1007.42 L688.677 1007.42 L760.134 1007.42 L831.592 1007.42 L903.049 1007.42 L974.506 1007.42 L1045.96 1007.42 L1117.42 1007.42 L1188.88 1007.42 L1260.34 1007.42 L1331.79 1007.42 L1403.25 1007.42 L1474.71 1007.42 L1546.16 1007.42 L1617.62 1007.42 L1689.08 1007.42 L1760.54 1007.42 L1831.99 1007.42 L1903.45 1007.42 L1903.45 1007.42 L1831.99 1007.42 L1760.54 1007.42 L1689.08 1007.42 L1617.62 1007.42 L1546.16 1007.42 L1474.71 1007.42 L1403.25 1007.42 L1331.79 1007.42 L1260.34 1007.42 L1188.88 1007.42 L1117.42 1007.42 L1045.96 1007.42 L974.506 1007.42 L903.049 1007.42 L831.592 1007.42 L760.134 1007.42 L688.677 1007.42 L617.22 1007.42 L545.763 1007.42 L474.305 1007.42 L402.848 1007.42 L331.391 1007.42 L259.934 1007.42  Z" fill="#00467f" fill-rule="evenodd" fill-opacity="0.2"/>
<polyline clip-path="url(#clip622)" style="stroke:#00467f; stroke-linecap:round; stroke-linejoin:round; stroke-width:4; stroke-opacity:0; fill:none" points="259.934,1007.42 331.391,1007.42 402.848,1007.42 474.305,1007.42 545.763,1007.42 617.22,1007.42 688.677,1007.42 760.134,1007.42 831.592,1007.42 903.049,1007.42 974.506,1007.42 1045.96,1007.42 1117.42,1007.42 1188.88,1007.42 1260.34,1007.42 1331.79,1007.42 1403.25,1007.42 1474.71,1007.42 1546.16,1007.42 1617.62,1007.42 1689.08,1007.42 1760.54,1007.42 1831.99,1007.42 1903.45,1007.42 "/>
<path clip-path="url(#clip622)" d="M259.934 1007.42 L331.391 1007.42 L402.848 1007.42 L474.305 1007.42 L545.763 1007.42 L617.22 1007.42 L688.677 1007.42 L760.134 1007.42 L831.592 1007.42 L903.049 1007.42 L974.506 1007.42 L1045.96 1007.42 L1117.42 1007.42 L1188.88 1007.42 L1260.34 1007.42 L1331.79 1007.42 L1403.25 1007.42 L1474.71 1007.42 L1546.16 1007.42 L1617.62 1007.42 L1689.08 1007.42 L1760.54 1007.42 L1831.99 1007.42 L1903.45 1007.42 L1903.45 1007.42 L1831.99 1007.42 L1760.54 1007.42 L1689.08 1007.42 L1617.62 1007.42 L1546.16 1007.42 L1474.71 1007.42 L1403.25 1007.42 L1331.79 1007.42 L1260.34 1007.42 L1188.88 1007.42 L1117.42 1007.42 L1045.96 1007.42 L974.506 1007.42 L903.049 1007.42 L831.592 1007.42 L760.134 1007.42 L688.677 1007.42 L617.22 1007.42 L545.763 1007.42 L474.305 1007.42 L402.848 1007.42 L331.391 1007.42 L259.934 1007.42  Z" fill="#00467f" fill-rule="evenodd" fill-opacity="0.2"/>
<polyline clip-path="url(#clip622)" style="stroke:#00467f; stroke-linecap:round; stroke-linejoin:round; stroke-width:4; stroke-opacity:0; fill:none" points="259.934,1007.42 331.391,1007.42 402.848,1007.42 474.305,1007.42 545.763,1007.42 617.22,1007.42 688.677,1007.42 760.134,1007.42 831.592,1007.42 903.049,1007.42 974.506,1007.42 1045.96,1007.42 1117.42,1007.42 1188.88,1007.42 1260.34,1007.42 1331.79,1007.42 1403.25,1007.42 1474.71,1007.42 1546.16,1007.42 1617.62,1007.42 1689.08,1007.42 1760.54,1007.42 1831.99,1007.42 1903.45,1007.42 "/>
<polyline clip-path="url(#clip622)" style="stroke:#00467f; stroke-linecap:round; stroke-linejoin:round; stroke-width:4; stroke-opacity:1; fill:none" points="259.934,1007.42 331.391,1007.42 402.848,1007.42 474.305,1007.42 545.763,1007.42 617.22,1007.42 688.677,1007.42 760.134,1007.42 831.592,1007.42 903.049,1007.42 974.506,1007.42 1045.96,1007.42 1117.42,1007.42 1188.88,1007.42 1260.34,1007.42 1331.79,1007.42 1403.25,1007.42 1474.71,1007.42 1546.16,1007.42 1617.62,1007.42 1689.08,1007.42 1760.54,1007.42 1831.99,1007.42 1903.45,1007.42 "/>
</svg>
