<?xml version="1.0" encoding="utf-8"?>
<svg xmlns="http://www.w3.org/2000/svg" xmlns:xlink="http://www.w3.org/1999/xlink" width="500" height="300" viewBox="0 0 2000 1200">
<defs>
  <clipPath id="clip330">
    <rect x="0" y="0" width="2000" height="1200"/>
  </clipPath>
</defs>
<path clip-path="url(#clip330)" d="M0 1200 L2000 1200 L2000 0 L0 0  Z" fill="#ffffff" fill-rule="evenodd" fill-opacity="1"/>
<defs>
  <clipPath id="clip331">
    <rect x="400" y="0" width="1401" height="1200"/>
  </clipPath>
</defs>
<path clip-path="url(#clip330)" d="M210.628 1035.39 L1952.76 1035.39 L1952.76 47.2441 L210.628 47.2441  Z" fill="#ffffff" fill-rule="evenodd" fill-opacity="1"/>
<defs>
  <clipPath id="clip332">
    <rect x="210" y="47" width="1743" height="989"/>
  </clipPath>
</defs>
<polyline clip-path="url(#clip332)" style="stroke:#000000; stroke-linecap:round; stroke-linejoin:round; stroke-width:2; stroke-opacity:0.1; fill:none" points="545.763,1035.39 545.763,47.2441 "/>
<polyline clip-path="url(#clip332)" style="stroke:#000000; stroke-linecap:round; stroke-linejoin:round; stroke-width:2; stroke-opacity:0.1; fill:none" points="903.049,1035.39 903.049,47.2441 "/>
<polyline clip-path="url(#clip332)" style="stroke:#000000; stroke-linecap:round; stroke-linejoin:round; stroke-width:2; stroke-opacity:0.1; fill:none" points="1260.34,1035.39 1260.34,47.2441 "/>
<polyline clip-path="url(#clip332)" style="stroke:#000000; stroke-linecap:round; stroke-linejoin:round; stroke-width:2; stroke-opacity:0.1; fill:none" points="1617.62,1035.39 1617.62,47.2441 "/>
<polyline clip-path="url(#clip332)" style="stroke:#000000; stroke-linecap:round; stroke-linejoin:round; stroke-width:2; stroke-opacity:0.1; fill:none" points="210.628,1007.42 1952.76,1007.42 "/>
<polyline clip-path="url(#clip332)" style="stroke:#000000; stroke-linecap:round; stroke-linejoin:round; stroke-width:2; stroke-opacity:0.1; fill:none" points="210.628,831.748 1952.76,831.748 "/>
<polyline clip-path="url(#clip332)" style="stroke:#000000; stroke-linecap:round; stroke-linejoin:round; stroke-width:2; stroke-opacity:0.1; fill:none" points="210.628,656.075 1952.76,656.075 "/>
<polyline clip-path="url(#clip332)" style="stroke:#000000; stroke-linecap:round; stroke-linejoin:round; stroke-width:2; stroke-opacity:0.1; fill:none" points="210.628,480.402 1952.76,480.402 "/>
<polyline clip-path="url(#clip332)" style="stroke:#000000; stroke-linecap:round; stroke-linejoin:round; stroke-width:2; stroke-opacity:0.1; fill:none" points="210.628,304.729 1952.76,304.729 "/>
<polyline clip-path="url(#clip332)" style="stroke:#000000; stroke-linecap:round; stroke-linejoin:round; stroke-width:2; stroke-opacity:0.1; fill:none" points="210.628,129.056 1952.76,129.056 "/>
<polyline clip-path="url(#clip330)" style="stroke:#000000; stroke-linecap:round; stroke-linejoin:round; stroke-width:4; stroke-opacity:1; fill:none" points="210.628,1035.39 1952.76,1035.39 "/>
<polyline clip-path="url(#clip330)" style="stroke:#000000; stroke-linecap:round; stroke-linejoin:round; stroke-width:4; stroke-opacity:1; fill:none" points="545.763,1035.39 545.763,1016.49 "/>
<polyline clip-path="url(#clip330)" style="stroke:#000000; stroke-linecap:round; stroke-linejoin:round; stroke-width:4; stroke-opacity:1; fill:none" points="903.049,1035.39 903.049,1016.49 "/>
<polyline clip-path="url(#clip330)" style="stroke:#000000; stroke-linecap:round; stroke-linejoin:round; stroke-width:4; stroke-opacity:1; fill:none" points="1260.34,1035.39 1260.34,1016.49 "/>
<polyline clip-path="url(#clip330)" style="stroke:#000000; stroke-linecap:round; stroke-linejoin:round; stroke-width:4; stroke-opacity:1; fill:none" points="1617.62,1035.39 1617.62,1016.49 "/>
<path clip-path="url(#clip330)" d="M536.04 1060.03 L554.397 1060.03 L554.397 1063.96 L540.323 1063.96 L540.323 1072.44 Q541.341 1072.09 542.36 1071.93 Q543.378 1071.74 544.397 1071.74 Q550.184 1071.74 553.564 1074.91 Q556.943 1078.08 556.943 1083.5 Q556.943 1089.08 553.471 1092.18 Q549.999 1095.26 543.679 1095.26 Q541.503 1095.26 539.235 1094.89 Q536.99 1094.52 534.582 1093.78 L534.582 1089.08 Q536.665 1090.21 538.888 1090.77 Q541.11 1091.32 543.587 1091.32 Q547.591 1091.32 549.929 1089.22 Q552.267 1087.11 552.267 1083.5 Q552.267 1079.89 549.929 1077.78 Q547.591 1075.68 543.587 1075.68 Q541.712 1075.68 539.837 1076.09 Q537.985 1076.51 536.04 1077.39 L536.04 1060.03 Z" fill="#000000" fill-rule="nonzero" fill-opacity="1" /><path clip-path="url(#clip330)" d="M877.737 1090.65 L885.375 1090.65 L885.375 1064.29 L877.065 1065.95 L877.065 1061.69 L885.329 1060.03 L890.005 1060.03 L890.005 1090.65 L897.644 1090.65 L897.644 1094.59 L877.737 1094.59 L877.737 1090.65 Z" fill="#000000" fill-rule="nonzero" fill-opacity="1" /><path clip-path="url(#clip330)" d="M917.088 1063.11 Q913.477 1063.11 911.648 1066.67 Q909.843 1070.21 909.843 1077.34 Q909.843 1084.45 911.648 1088.01 Q913.477 1091.56 917.088 1091.56 Q920.722 1091.56 922.528 1088.01 Q924.357 1084.45 924.357 1077.34 Q924.357 1070.21 922.528 1066.67 Q920.722 1063.11 917.088 1063.11 M917.088 1059.4 Q922.898 1059.4 925.954 1064.01 Q929.033 1068.59 929.033 1077.34 Q929.033 1086.07 925.954 1090.68 Q922.898 1095.26 917.088 1095.26 Q911.278 1095.26 908.199 1090.68 Q905.144 1086.07 905.144 1077.34 Q905.144 1068.59 908.199 1064.01 Q911.278 1059.4 917.088 1059.4 Z" fill="#000000" fill-rule="nonzero" fill-opacity="1" /><path clip-path="url(#clip330)" d="M1235.52 1090.65 L1243.16 1090.65 L1243.16 1064.29 L1234.85 1065.95 L1234.85 1061.69 L1243.11 1060.03 L1247.79 1060.03 L1247.79 1090.65 L1255.43 1090.65 L1255.43 1094.59 L1235.52 1094.59 L1235.52 1090.65 Z" fill="#000000" fill-rule="nonzero" fill-opacity="1" /><path clip-path="url(#clip330)" d="M1264.92 1060.03 L1283.27 1060.03 L1283.27 1063.96 L1269.2 1063.96 L1269.2 1072.44 Q1270.22 1072.09 1271.24 1071.93 Q1272.26 1071.74 1273.27 1071.74 Q1279.06 1071.74 1282.44 1074.91 Q1285.82 1078.08 1285.82 1083.5 Q1285.82 1089.08 1282.35 1092.18 Q1278.88 1095.26 1272.56 1095.26 Q1270.38 1095.26 1268.11 1094.89 Q1265.87 1094.52 1263.46 1093.78 L1263.46 1089.08 Q1265.54 1090.21 1267.77 1090.77 Q1269.99 1091.32 1272.46 1091.32 Q1276.47 1091.32 1278.81 1089.22 Q1281.15 1087.11 1281.15 1083.5 Q1281.15 1079.89 1278.81 1077.78 Q1276.47 1075.68 1272.46 1075.68 Q1270.59 1075.68 1268.71 1076.09 Q1266.86 1076.51 1264.92 1077.39 L1264.92 1060.03 Z" fill="#000000" fill-rule="nonzero" fill-opacity="1" /><path clip-path="url(#clip330)" d="M1596.39 1090.65 L1612.71 1090.65 L1612.71 1094.59 L1590.77 1094.59 L1590.77 1090.65 Q1593.43 1087.9 1598.02 1083.27 Q1602.62 1078.62 1603.8 1077.27 Q1606.05 1074.75 1606.93 1073.01 Q1607.83 1071.25 1607.83 1069.56 Q1607.83 1066.81 1605.89 1065.07 Q1603.96 1063.34 1600.86 1063.34 Q1598.66 1063.34 1596.21 1064.1 Q1593.78 1064.87 1591 1066.42 L1591 1061.69 Q1593.83 1060.56 1596.28 1059.98 Q1598.73 1059.4 1600.77 1059.4 Q1606.14 1059.4 1609.33 1062.09 Q1612.53 1064.77 1612.53 1069.26 Q1612.53 1071.39 1611.72 1073.31 Q1610.93 1075.21 1608.83 1077.81 Q1608.25 1078.48 1605.14 1081.69 Q1602.04 1084.89 1596.39 1090.65 Z" fill="#000000" fill-rule="nonzero" fill-opacity="1" /><path clip-path="url(#clip330)" d="M1632.53 1063.11 Q1628.92 1063.11 1627.09 1066.67 Q1625.28 1070.21 1625.28 1077.34 Q1625.28 1084.45 1627.09 1088.01 Q1628.92 1091.56 1632.53 1091.56 Q1636.16 1091.56 1637.97 1088.01 Q1639.8 1084.45 1639.8 1077.34 Q1639.8 1070.21 1637.97 1066.67 Q1636.16 1063.11 1632.53 1063.11 M1632.53 1059.4 Q1638.34 1059.4 1641.39 1064.01 Q1644.47 1068.59 1644.47 1077.34 Q1644.47 1086.07 1641.39 1090.68 Q1638.34 1095.26 1632.53 1095.26 Q1626.72 1095.26 1623.64 1090.68 Q1620.58 1086.07 1620.58 1077.34 Q1620.58 1068.59 1623.64 1064.01 Q1626.72 1059.4 1632.53 1059.4 Z" fill="#000000" fill-rule="nonzero" fill-opacity="1" /><path clip-path="url(#clip330)" d="M1006.39 1126.73 L1012.82 1126.73 L1012.82 1146.21 L1036.18 1146.21 L1036.18 1126.73 L1042.61 1126.73 L1042.61 1174.25 L1036.18 1174.25 L1036.18 1151.62 L1012.82 1151.62 L1012.82 1174.25 L1006.39 1174.25 L1006.39 1126.73 Z" fill="#000000" fill-rule="nonzero" fill-opacity="1" /><path clip-path="url(#clip330)" d="M1068.96 1142.71 Q1064.25 1142.71 1061.51 1146.4 Q1058.78 1150.06 1058.78 1156.46 Q1058.78 1162.86 1061.48 1166.55 Q1064.22 1170.21 1068.96 1170.21 Q1073.64 1170.21 1076.38 1166.52 Q1079.11 1162.83 1079.11 1156.46 Q1079.11 1150.13 1076.38 1146.43 Q1073.64 1142.71 1068.96 1142.71 M1068.96 1137.74 Q1076.6 1137.74 1080.96 1142.71 Q1085.32 1147.68 1085.32 1156.46 Q1085.32 1165.21 1080.96 1170.21 Q1076.6 1175.17 1068.96 1175.17 Q1061.29 1175.17 1056.93 1170.21 Q1052.6 1165.21 1052.6 1156.46 Q1052.6 1147.68 1056.93 1142.71 Q1061.29 1137.74 1068.96 1137.74 Z" fill="#000000" fill-rule="nonzero" fill-opacity="1" /><path clip-path="url(#clip330)" d="M1094.42 1160.18 L1094.42 1138.6 L1100.28 1138.6 L1100.28 1159.96 Q1100.28 1165.02 1102.25 1167.57 Q1104.23 1170.08 1108.17 1170.08 Q1112.92 1170.08 1115.65 1167.06 Q1118.42 1164.03 1118.42 1158.82 L1118.42 1138.6 L1124.28 1138.6 L1124.28 1174.25 L1118.42 1174.25 L1118.42 1168.78 Q1116.29 1172.02 1113.46 1173.62 Q1110.66 1175.17 1106.93 1175.17 Q1100.79 1175.17 1097.61 1171.36 Q1094.42 1167.54 1094.42 1160.18 M1109.16 1137.74 L1109.16 1137.74 Z" fill="#000000" fill-rule="nonzero" fill-opacity="1" /><path clip-path="url(#clip330)" d="M1157 1144.08 Q1156.01 1143.51 1154.83 1143.25 Q1153.69 1142.96 1152.29 1142.96 Q1147.32 1142.96 1144.65 1146.21 Q1142.01 1149.43 1142.01 1155.47 L1142.01 1174.25 L1136.12 1174.25 L1136.12 1138.6 L1142.01 1138.6 L1142.01 1144.14 Q1143.85 1140.9 1146.81 1139.34 Q1149.77 1137.74 1154.01 1137.74 Q1154.61 1137.74 1155.34 1137.84 Q1156.08 1137.9 1156.97 1138.06 L1157 1144.08 Z" fill="#000000" fill-rule="nonzero" fill-opacity="1" /><polyline clip-path="url(#clip330)" style="stroke:#000000; stroke-linecap:round; stroke-linejoin:round; stroke-width:4; stroke-opacity:1; fill:none" points="210.628,1035.39 210.628,47.2441 "/>
<polyline clip-path="url(#clip330)" style="stroke:#000000; stroke-linecap:round; stroke-linejoin:round; stroke-width:4; stroke-opacity:1; fill:none" points="210.628,1007.42 229.526,1007.42 "/>
<polyline clip-path="url(#clip330)" style="stroke:#000000; stroke-linecap:round; stroke-linejoin:round; stroke-width:4; stroke-opacity:1; fill:none" points="210.628,831.748 229.526,831.748 "/>
<polyline clip-path="url(#clip330)" style="stroke:#000000; stroke-linecap:round; stroke-linejoin:round; stroke-width:4; stroke-opacity:1; fill:none" points="210.628,656.075 229.526,656.075 "/>
<polyline clip-path="url(#clip330)" style="stroke:#000000; stroke-linecap:round; stroke-linejoin:round; stroke-width:4; stroke-opacity:1; fill:none" points="210.628,480.402 229.526,480.402 "/>
<polyline clip-path="url(#clip330)" style="stroke:#000000; stroke-linecap:round; stroke-linejoin:round; stroke-width:4; stroke-opacity:1; fill:none" points="210.628,304.729 229.526,304.729 "/>
<polyline clip-path="url(#clip330)" style="stroke:#000000; stroke-linecap:round; stroke-linejoin:round; stroke-width:4; stroke-opacity:1; fill:none" points="210.628,129.056 229.526,129.056 "/>
<path clip-path="url(#clip330)" d="M123.453 993.22 Q119.841 993.22 118.013 996.785 Q116.207 1000.33 116.207 1007.46 Q116.207 1014.56 118.013 1018.13 Q119.841 1021.67 123.453 1021.67 Q127.087 1021.67 128.892 1018.13 Q130.721 1014.56 130.721 1007.46 Q130.721 1000.33 128.892 996.785 Q127.087 993.22 123.453 993.22 M123.453 989.517 Q129.263 989.517 132.318 994.123 Q135.397 998.706 135.397 1007.46 Q135.397 1016.18 132.318 1020.79 Q129.263 1025.37 123.453 1025.37 Q117.642 1025.37 114.564 1020.79 Q111.508 1016.18 111.508 1007.46 Q111.508 998.706 114.564 994.123 Q117.642 989.517 123.453 989.517 Z" fill="#000000" fill-rule="nonzero" fill-opacity="1" /><path clip-path="url(#clip330)" d="M143.614 1018.82 L148.499 1018.82 L148.499 1024.7 L143.614 1024.7 L143.614 1018.82 Z" fill="#000000" fill-rule="nonzero" fill-opacity="1" /><path clip-path="url(#clip330)" d="M168.684 993.22 Q165.073 993.22 163.244 996.785 Q161.438 1000.33 161.438 1007.46 Q161.438 1014.56 163.244 1018.13 Q165.073 1021.67 168.684 1021.67 Q172.318 1021.67 174.124 1018.13 Q175.952 1014.56 175.952 1007.46 Q175.952 1000.33 174.124 996.785 Q172.318 993.22 168.684 993.22 M168.684 989.517 Q174.494 989.517 177.549 994.123 Q180.628 998.706 180.628 1007.46 Q180.628 1016.18 177.549 1020.79 Q174.494 1025.37 168.684 1025.37 Q162.874 1025.37 159.795 1020.79 Q156.739 1016.18 156.739 1007.46 Q156.739 998.706 159.795 994.123 Q162.874 989.517 168.684 989.517 Z" fill="#000000" fill-rule="nonzero" fill-opacity="1" /><path clip-path="url(#clip330)" d="M124.448 817.547 Q120.837 817.547 119.008 821.112 Q117.203 824.654 117.203 831.783 Q117.203 838.89 119.008 842.454 Q120.837 845.996 124.448 845.996 Q128.082 845.996 129.888 842.454 Q131.716 838.89 131.716 831.783 Q131.716 824.654 129.888 821.112 Q128.082 817.547 124.448 817.547 M124.448 813.843 Q130.258 813.843 133.314 818.45 Q136.392 823.033 136.392 831.783 Q136.392 840.51 133.314 845.116 Q130.258 849.7 124.448 849.7 Q118.638 849.7 115.559 845.116 Q112.504 840.51 112.504 831.783 Q112.504 823.033 115.559 818.45 Q118.638 813.843 124.448 813.843 Z" fill="#000000" fill-rule="nonzero" fill-opacity="1" /><path clip-path="url(#clip330)" d="M144.61 843.149 L149.494 843.149 L149.494 849.028 L144.61 849.028 L144.61 843.149 Z" fill="#000000" fill-rule="nonzero" fill-opacity="1" /><path clip-path="url(#clip330)" d="M159.725 814.468 L178.082 814.468 L178.082 818.404 L164.008 818.404 L164.008 826.876 Q165.026 826.529 166.045 826.366 Q167.063 826.181 168.082 826.181 Q173.869 826.181 177.249 829.353 Q180.628 832.524 180.628 837.94 Q180.628 843.519 177.156 846.621 Q173.684 849.7 167.364 849.7 Q165.188 849.7 162.92 849.329 Q160.675 848.959 158.267 848.218 L158.267 843.519 Q160.35 844.653 162.573 845.209 Q164.795 845.765 167.272 845.765 Q171.276 845.765 173.614 843.658 Q175.952 841.552 175.952 837.94 Q175.952 834.329 173.614 832.223 Q171.276 830.116 167.272 830.116 Q165.397 830.116 163.522 830.533 Q161.67 830.95 159.725 831.829 L159.725 814.468 Z" fill="#000000" fill-rule="nonzero" fill-opacity="1" /><path clip-path="url(#clip330)" d="M114.263 669.42 L121.902 669.42 L121.902 643.054 L113.591 644.721 L113.591 640.462 L121.855 638.795 L126.531 638.795 L126.531 669.42 L134.17 669.42 L134.17 673.355 L114.263 673.355 L114.263 669.42 Z" fill="#000000" fill-rule="nonzero" fill-opacity="1" /><path clip-path="url(#clip330)" d="M143.614 667.476 L148.499 667.476 L148.499 673.355 L143.614 673.355 L143.614 667.476 Z" fill="#000000" fill-rule="nonzero" fill-opacity="1" /><path clip-path="url(#clip330)" d="M168.684 641.874 Q165.073 641.874 163.244 645.439 Q161.438 648.98 161.438 656.11 Q161.438 663.216 163.244 666.781 Q165.073 670.323 168.684 670.323 Q172.318 670.323 174.124 666.781 Q175.952 663.216 175.952 656.11 Q175.952 648.98 174.124 645.439 Q172.318 641.874 168.684 641.874 M168.684 638.17 Q174.494 638.17 177.549 642.777 Q180.628 647.36 180.628 656.11 Q180.628 664.837 177.549 669.443 Q174.494 674.027 168.684 674.027 Q162.874 674.027 159.795 669.443 Q156.739 664.837 156.739 656.11 Q156.739 647.36 159.795 642.777 Q162.874 638.17 168.684 638.17 Z" fill="#000000" fill-rule="nonzero" fill-opacity="1" /><path clip-path="url(#clip330)" d="M115.258 493.747 L122.897 493.747 L122.897 467.381 L114.587 469.048 L114.587 464.789 L122.851 463.122 L127.527 463.122 L127.527 493.747 L135.165 493.747 L135.165 497.682 L115.258 497.682 L115.258 493.747 Z" fill="#000000" fill-rule="nonzero" fill-opacity="1" /><path clip-path="url(#clip330)" d="M144.61 491.803 L149.494 491.803 L149.494 497.682 L144.61 497.682 L144.61 491.803 Z" fill="#000000" fill-rule="nonzero" fill-opacity="1" /><path clip-path="url(#clip330)" d="M159.725 463.122 L178.082 463.122 L178.082 467.057 L164.008 467.057 L164.008 475.529 Q165.026 475.182 166.045 475.02 Q167.063 474.835 168.082 474.835 Q173.869 474.835 177.249 478.006 Q180.628 481.178 180.628 486.594 Q180.628 492.173 177.156 495.275 Q173.684 498.353 167.364 498.353 Q165.188 498.353 162.92 497.983 Q160.675 497.613 158.267 496.872 L158.267 492.173 Q160.35 493.307 162.573 493.863 Q164.795 494.418 167.272 494.418 Q171.276 494.418 173.614 492.312 Q175.952 490.205 175.952 486.594 Q175.952 482.983 173.614 480.877 Q171.276 478.77 167.272 478.77 Q165.397 478.77 163.522 479.187 Q161.67 479.604 159.725 480.483 L159.725 463.122 Z" fill="#000000" fill-rule="nonzero" fill-opacity="1" /><path clip-path="url(#clip330)" d="M117.48 318.074 L133.8 318.074 L133.8 322.009 L111.855 322.009 L111.855 318.074 Q114.517 315.319 119.101 310.69 Q123.707 306.037 124.888 304.694 Q127.133 302.171 128.013 300.435 Q128.915 298.676 128.915 296.986 Q128.915 294.231 126.971 292.495 Q125.05 290.759 121.948 290.759 Q119.749 290.759 117.295 291.523 Q114.865 292.287 112.087 293.838 L112.087 289.116 Q114.911 287.981 117.365 287.403 Q119.818 286.824 121.855 286.824 Q127.226 286.824 130.42 289.509 Q133.615 292.194 133.615 296.685 Q133.615 298.815 132.804 300.736 Q132.017 302.634 129.911 305.227 Q129.332 305.898 126.23 309.116 Q123.128 312.31 117.48 318.074 Z" fill="#000000" fill-rule="nonzero" fill-opacity="1" /><path clip-path="url(#clip330)" d="M143.614 316.129 L148.499 316.129 L148.499 322.009 L143.614 322.009 L143.614 316.129 Z" fill="#000000" fill-rule="nonzero" fill-opacity="1" /><path clip-path="url(#clip330)" d="M168.684 290.528 Q165.073 290.528 163.244 294.092 Q161.438 297.634 161.438 304.764 Q161.438 311.87 163.244 315.435 Q165.073 318.977 168.684 318.977 Q172.318 318.977 174.124 315.435 Q175.952 311.87 175.952 304.764 Q175.952 297.634 174.124 294.092 Q172.318 290.528 168.684 290.528 M168.684 286.824 Q174.494 286.824 177.549 291.43 Q180.628 296.014 180.628 304.764 Q180.628 313.491 177.549 318.097 Q174.494 322.68 168.684 322.68 Q162.874 322.68 159.795 318.097 Q156.739 313.491 156.739 304.764 Q156.739 296.014 159.795 291.43 Q162.874 286.824 168.684 286.824 Z" fill="#000000" fill-rule="nonzero" fill-opacity="1" /><path clip-path="url(#clip330)" d="M118.476 142.401 L134.795 142.401 L134.795 146.336 L112.851 146.336 L112.851 142.401 Q115.513 139.646 120.096 135.017 Q124.703 130.364 125.883 129.021 Q128.128 126.498 129.008 124.762 Q129.911 123.003 129.911 121.313 Q129.911 118.558 127.966 116.822 Q126.045 115.086 122.943 115.086 Q120.744 115.086 118.291 115.85 Q115.86 116.614 113.082 118.165 L113.082 113.443 Q115.906 112.308 118.36 111.73 Q120.814 111.151 122.851 111.151 Q128.221 111.151 131.415 113.836 Q134.61 116.521 134.61 121.012 Q134.61 123.142 133.8 125.063 Q133.013 126.961 130.906 129.554 Q130.328 130.225 127.226 133.442 Q124.124 136.637 118.476 142.401 Z" fill="#000000" fill-rule="nonzero" fill-opacity="1" /><path clip-path="url(#clip330)" d="M144.61 140.456 L149.494 140.456 L149.494 146.336 L144.61 146.336 L144.61 140.456 Z" fill="#000000" fill-rule="nonzero" fill-opacity="1" /><path clip-path="url(#clip330)" d="M159.725 111.776 L178.082 111.776 L178.082 115.711 L164.008 115.711 L164.008 124.183 Q165.026 123.836 166.045 123.674 Q167.063 123.489 168.082 123.489 Q173.869 123.489 177.249 126.66 Q180.628 129.831 180.628 135.248 Q180.628 140.827 177.156 143.928 Q173.684 147.007 167.364 147.007 Q165.188 147.007 162.92 146.637 Q160.675 146.266 158.267 145.526 L158.267 140.827 Q160.35 141.961 162.573 142.516 Q164.795 143.072 167.272 143.072 Q171.276 143.072 173.614 140.966 Q175.952 138.859 175.952 135.248 Q175.952 131.637 173.614 129.53 Q171.276 127.424 167.272 127.424 Q165.397 127.424 163.522 127.841 Q161.67 128.257 159.725 129.137 L159.725 111.776 Z" fill="#000000" fill-rule="nonzero" fill-opacity="1" /><path clip-path="url(#clip330)" d="M19.7322 682.46 L19.7322 676.03 L61.8413 676.03 L61.8413 652.891 L67.2522 652.891 L67.2522 682.46 L19.7322 682.46 Z" fill="#000000" fill-rule="nonzero" fill-opacity="1" /><path clip-path="url(#clip330)" d="M35.7101 633.73 Q35.7101 638.441 39.4022 641.178 Q43.0625 643.915 49.46 643.915 Q55.8575 643.915 59.5497 641.21 Q63.2099 638.473 63.2099 633.73 Q63.2099 629.051 59.5178 626.314 Q55.8257 623.577 49.46 623.577 Q43.1261 623.577 39.434 626.314 Q35.7101 629.051 35.7101 633.73 M30.7448 633.73 Q30.7448 626.091 35.7101 621.731 Q40.6753 617.37 49.46 617.37 Q58.2129 617.37 63.2099 621.731 Q68.1752 626.091 68.1752 633.73 Q68.1752 641.401 63.2099 645.761 Q58.2129 650.09 49.46 650.09 Q40.6753 650.09 35.7101 645.761 Q30.7448 641.401 30.7448 633.73 Z" fill="#000000" fill-rule="nonzero" fill-opacity="1" /><path clip-path="url(#clip330)" d="M32.6545 584.937 L38.1927 584.937 Q36.9196 587.42 36.283 590.093 Q35.6464 592.767 35.6464 595.631 Q35.6464 599.992 36.9832 602.188 Q38.32 604.352 40.9936 604.352 Q43.0306 604.352 44.2083 602.793 Q45.3541 601.233 46.4045 596.523 L46.8501 594.517 Q48.1869 588.279 50.6377 585.669 Q53.0566 583.027 57.4171 583.027 Q62.3824 583.027 65.2788 586.974 Q68.1752 590.889 68.1752 597.764 Q68.1752 600.628 67.6023 603.748 Q67.0612 606.835 65.9472 610.272 L59.8998 610.272 Q61.5867 607.026 62.446 603.875 Q63.2736 600.724 63.2736 597.637 Q63.2736 593.499 61.8731 591.271 Q60.4409 589.043 57.8627 589.043 Q55.4756 589.043 54.2025 590.666 Q52.9293 592.258 51.7517 597.7 L51.2742 599.737 Q50.1284 605.18 47.7731 607.599 Q45.386 610.018 41.2482 610.018 Q36.2193 610.018 33.4821 606.453 Q30.7448 602.888 30.7448 596.332 Q30.7448 593.085 31.2223 590.221 Q31.6997 587.356 32.6545 584.937 Z" fill="#000000" fill-rule="nonzero" fill-opacity="1" /><path clip-path="url(#clip330)" d="M21.4827 567.909 L31.6042 567.909 L31.6042 555.846 L36.1557 555.846 L36.1557 567.909 L55.5074 567.909 Q59.8679 567.909 61.1093 566.731 Q62.3506 565.522 62.3506 561.861 L62.3506 555.846 L67.2522 555.846 L67.2522 561.861 Q67.2522 568.641 64.7377 571.219 Q62.1914 573.797 55.5074 573.797 L36.1557 573.797 L36.1557 578.094 L31.6042 578.094 L31.6042 573.797 L21.4827 573.797 L21.4827 567.909 Z" fill="#000000" fill-rule="nonzero" fill-opacity="1" /><path clip-path="url(#clip330)" d="M17.727 527.423 L17.727 521.566 L67.2522 521.566 L67.2522 527.423 L17.727 527.423 Z" fill="#000000" fill-rule="nonzero" fill-opacity="1" /><path clip-path="url(#clip330)" d="M35.7101 495.499 Q35.7101 500.209 39.4022 502.947 Q43.0625 505.684 49.46 505.684 Q55.8575 505.684 59.5497 502.979 Q63.2099 500.241 63.2099 495.499 Q63.2099 490.82 59.5178 488.083 Q55.8257 485.345 49.46 485.345 Q43.1261 485.345 39.434 488.083 Q35.7101 490.82 35.7101 495.499 M30.7448 495.499 Q30.7448 487.86 35.7101 483.499 Q40.6753 479.139 49.46 479.139 Q58.2129 479.139 63.2099 483.499 Q68.1752 487.86 68.1752 495.499 Q68.1752 503.169 63.2099 507.53 Q58.2129 511.859 49.46 511.859 Q40.6753 511.859 35.7101 507.53 Q30.7448 503.169 30.7448 495.499 Z" fill="#000000" fill-rule="nonzero" fill-opacity="1" /><path clip-path="url(#clip330)" d="M49.3327 453.231 Q49.3327 460.328 50.9559 463.066 Q52.5792 465.803 56.4941 465.803 Q59.6133 465.803 61.4594 463.766 Q63.2736 461.697 63.2736 458.164 Q63.2736 453.294 59.8361 450.366 Q56.3668 447.406 50.6377 447.406 L49.3327 447.406 L49.3327 453.231 M46.9137 441.549 L67.2522 441.549 L67.2522 447.406 L61.8413 447.406 Q65.0878 449.411 66.6474 452.403 Q68.1752 455.395 68.1752 459.724 Q68.1752 465.198 65.1196 468.445 Q62.0323 471.659 56.8761 471.659 Q50.8605 471.659 47.8049 467.649 Q44.7494 463.607 44.7494 455.618 L44.7494 447.406 L44.1765 447.406 Q40.1342 447.406 37.9381 450.079 Q35.7101 452.721 35.7101 457.527 Q35.7101 460.583 36.4421 463.479 Q37.1742 466.376 38.6383 469.049 L33.2275 469.049 Q31.9861 465.835 31.3814 462.811 Q30.7448 459.787 30.7448 456.923 Q30.7448 449.188 34.7552 445.369 Q38.7656 441.549 46.9137 441.549 Z" fill="#000000" fill-rule="nonzero" fill-opacity="1" /><path clip-path="url(#clip330)" d="M37.0151 406.029 L17.727 406.029 L17.727 400.172 L67.2522 400.172 L67.2522 406.029 L61.905 406.029 Q65.0878 407.875 66.6474 410.708 Q68.1752 413.508 68.1752 417.455 Q68.1752 423.916 63.019 427.99 Q57.8627 432.033 49.46 432.033 Q41.0573 432.033 35.9011 427.99 Q30.7448 423.916 30.7448 417.455 Q30.7448 413.508 32.3044 410.708 Q33.8322 407.875 37.0151 406.029 M49.46 425.985 Q55.9212 425.985 59.6133 423.344 Q63.2736 420.67 63.2736 416.023 Q63.2736 411.376 59.6133 408.702 Q55.9212 406.029 49.46 406.029 Q42.9988 406.029 39.3385 408.702 Q35.6464 411.376 35.6464 416.023 Q35.6464 420.67 39.3385 423.344 Q42.9988 425.985 49.46 425.985 Z" fill="#000000" fill-rule="nonzero" fill-opacity="1" /><path clip-path="url(#clip332)" d="M259.934 1007.42 L331.391 1007.42 L402.848 1007.42 L474.305 1007.42 L545.763 1007.42 L617.22 1007.42 L688.677 1007.42 L760.134 1007.42 L831.592 1007.42 L903.049 1007.42 L974.506 1007.42 L1045.96 1007.42 L1117.42 1007.42 L1188.88 1007.42 L1260.34 1007.42 L1331.79 1007.42 L1403.25 1007.42 L1474.71 1007.42 L1546.16 1007.42 L1617.62 1007.42 L1689.08 1007.42 L1760.54 1007.42 L1831.99 1007.42 L1903.45 1007.42 L1903.45 1007.42 L1831.99 1007.42 L1760.54 304.729 L1689.08 75.2104 L1617.62 656.075 L1546.16 1007.42 L1474.71 1007.42 L1403.25 1007.42 L1331.79 1007.42 L1260.34 1007.42 L1188.88 1007.42 L1117.42 1007.42 L1045.96 1007.42 L974.506 1007.42 L903.049 1007.42 L831.592 1007.42 L760.134 1007.42 L688.677 1007.42 L617.22 1007.42 L545.763 1007.42 L474.305 1007.42 L402.848 1007.42 L331.391 1007.42 L259.934 1007.42  Z" fill="#00467f" fill-rule="evenodd" fill-opacity="0.2"/>
<polyline clip-path="url(#clip332)" style="stroke:#00467f; stroke-linecap:round; stroke-linejoin:round; stroke-width:4; stroke-opacity:0; fill:none" points="259.934,1007.42 331.391,1007.42 402.848,1007.42 474.305,1007.42 545.763,1007.42 617.22,1007.42 688.677,1007.42 760.134,1007.42 831.592,1007.42 903.049,1007.42 974.506,1007.42 1045.96,1007.42 1117.42,1007.42 1188.88,1007.42 1260.34,1007.42 1331.79,1007.42 1403.25,1007.42 1474.71,1007.42 1546.16,1007.42 1617.62,831.748 1689.08,541.316 1760.54,656.075 1831.99,1007.42 1903.45,1007.42 "/>
<path clip-path="url(#clip332)" d="M259.934 1007.42 L331.391 1007.42 L402.848 1007.42 L474.305 1007.42 L545.763 1007.42 L617.22 1007.42 L688.677 1007.42 L760.134 1007.42 L831.592 1007.42 L903.049 1007.42 L974.506 1007.42 L1045.96 1007.42 L1117.42 1007.42 L1188.88 1007.42 L1260.34 1007.42 L1331.79 1007.42 L1403.25 1007.42 L1474.71 1007.42 L1546.16 1007.42 L1617.62 1007.42 L1689.08 1007.42 L1760.54 1007.42 L1831.99 1007.42 L1903.45 1007.42 L1903.45 1007.42 L1831.99 1007.42 L1760.54 1007.42 L1689.08 1007.42 L1617.62 1007.42 L1546.16 1007.42 L1474.71 1007.42 L1403.25 1007.42 L1331.79 1007.42 L1260.34 1007.42 L1188.88 1007.42 L1117.42 1007.42 L1045.96 1007.42 L974.506 1007.42 L903.049 1007.42 L831.592 1007.42 L760.134 1007.42 L688.677 1007.42 L617.22 1007.42 L545.763 1007.42 L474.305 1007.42 L402.848 1007.42 L331.391 1007.42 L259.934 1007.42  Z" fill="#00467f" fill-rule="evenodd" fill-opacity="0.2"/>
<polyline clip-path="url(#clip332)" style="stroke:#00467f; stroke-linecap:round; stroke-linejoin:round; stroke-width:4; stroke-opacity:0; fill:none" points="259.934,1007.42 331.391,1007.42 402.848,1007.42 474.305,1007.42 545.763,1007.42 617.22,1007.42 688.677,1007.42 760.134,1007.42 831.592,1007.42 903.049,1007.42 974.506,1007.42 1045.96,1007.42 1117.42,1007.42 1188.88,1007.42 1260.34,1007.42 1331.79,1007.42 1403.25,1007.42 1474.71,1007.42 1546.16,1007.42 1617.62,1007.42 1689.08,1007.42 1760.54,1007.42 1831.99,1007.42 1903.45,1007.42 "/>
<path clip-path="url(#clip332)" d="M259.934 1007.42 L331.391 1007.42 L402.848 1007.42 L474.305 1007.42 L545.763 1007.42 L617.22 1007.42 L688.677 1007.42 L760.134 1007.42 L831.592 1007.42 L903.049 1007.42 L974.506 1007.42 L1045.96 1007.42 L1117.42 1007.42 L1188.88 1007.42 L1260.34 1007.42 L1331.79 1007.42 L1403.25 1007.42 L1474.71 1007.42 L1546.16 1007.42 L1617.62 1007.42 L1689.08 1007.42 L1760.54 1007.42 L1831.99 1007.42 L1903.45 1007.42 L1903.45 1007.42 L1831.99 1007.42 L1760.54 1007.42 L1689.08 1007.42 L1617.62 1007.42 L1546.16 1007.42 L1474.71 1007.42 L1403.25 1007.42 L1331.79 1007.42 L1260.34 1007.42 L1188.88 1007.42 L1117.42 1007.42 L1045.96 1007.42 L974.506 1007.42 L903.049 1007.42 L831.592 1007.42 L760.134 1007.42 L688.677 1007.42 L617.22 1007.42 L545.763 1007.42 L474.305 1007.42 L402.848 1007.42 L331.391 1007.42 L259.934 1007.42  Z" fill="#00467f" fill-rule="evenodd" fill-opacity="0.2"/>
<polyline clip-path="url(#clip332)" style="stroke:#00467f; stroke-linecap:round; stroke-linejoin:round; stroke-width:4; stroke-opacity:0; fill:none" points="259.934,1007.42 331.391,1007.42 402.848,1007.42 474.305,1007.42 545.763,1007.42 617.22,1007.42 688.677,1007.42 760.134,1007.42 831.592,1007.42 903.049,1007.42 974.506,1007.42 1045.96,1007.42 1117.42,1007.42 1188.88,1007.42 1260.34,1007.42 1331.79,1007.42 1403.25,1007.42 1474.71,1007.42 1546.16,1007.42 1617.62,1007.42 1689.08,1007.42 1760.54,1007.42 1831.99,1007.42 1903.45,1007.42 "/>
<polyline clip-path="url(#clip332)" style="stroke:#00467f; stroke-linecap:round; stroke-linejoin:round; stroke-width:4; stroke-opacity:1; fill:none" points="259.934,1007.42 331.391,1007.42 402.848,1007.42 474.305,1007.42 545.763,1007.42 617.22,1007.42 688.677,1007.42 760.134,1007.42 831.592,1007.42 903.049,1007.42 974.506,1007.42 1045.96,1007.42 1117.42,1007.42 1188.88,1007.42 1260.34,1007.42 1331.79,1007.42 1403.25,1007.42 1474.71,1007.42 1546.16,1007.42 1617.62,1007.42 1689.08,1007.42 1760.54,1007.42 1831.99,1007.42 1903.45,1007.42 "/>
</svg>
