<?xml version="1.0" encoding="utf-8"?>
<svg xmlns="http://www.w3.org/2000/svg" xmlns:xlink="http://www.w3.org/1999/xlink" width="500" height="300" viewBox="0 0 2000 1200">
<defs>
  <clipPath id="clip840">
    <rect x="0" y="0" width="2000" height="1200"/>
  </clipPath>
</defs>
<path clip-path="url(#clip840)" d="M0 1200 L2000 1200 L2000 0 L0 0  Z" fill="#ffffff" fill-rule="evenodd" fill-opacity="1"/>
<defs>
  <clipPath id="clip841">
    <rect x="400" y="0" width="1401" height="1200"/>
  </clipPath>
</defs>
<path clip-path="url(#clip840)" d="M166.857 1035.39 L952.756 1035.39 L952.756 117.424 L166.857 117.424  Z" fill="#ffffff" fill-rule="evenodd" fill-opacity="1"/>
<defs>
  <clipPath id="clip842">
    <rect x="166" y="117" width="787" height="919"/>
  </clipPath>
</defs>
<polyline clip-path="url(#clip842)" style="stroke:#000000; stroke-linecap:round; stroke-linejoin:round; stroke-width:2; stroke-opacity:0.1; fill:none" points="189.1,1035.39 189.1,117.424 "/>
<polyline clip-path="url(#clip842)" style="stroke:#000000; stroke-linecap:round; stroke-linejoin:round; stroke-width:2; stroke-opacity:0.1; fill:none" points="374.453,1035.39 374.453,117.424 "/>
<polyline clip-path="url(#clip842)" style="stroke:#000000; stroke-linecap:round; stroke-linejoin:round; stroke-width:2; stroke-opacity:0.1; fill:none" points="559.807,1035.39 559.807,117.424 "/>
<polyline clip-path="url(#clip842)" style="stroke:#000000; stroke-linecap:round; stroke-linejoin:round; stroke-width:2; stroke-opacity:0.1; fill:none" points="745.16,1035.39 745.16,117.424 "/>
<polyline clip-path="url(#clip842)" style="stroke:#000000; stroke-linecap:round; stroke-linejoin:round; stroke-width:2; stroke-opacity:0.1; fill:none" points="930.513,1035.39 930.513,117.424 "/>
<polyline clip-path="url(#clip842)" style="stroke:#000000; stroke-linecap:round; stroke-linejoin:round; stroke-width:2; stroke-opacity:0.1; fill:none" points="166.857,1035.39 952.756,1035.39 "/>
<polyline clip-path="url(#clip842)" style="stroke:#000000; stroke-linecap:round; stroke-linejoin:round; stroke-width:2; stroke-opacity:0.1; fill:none" points="166.857,805.897 952.756,805.897 "/>
<polyline clip-path="url(#clip842)" style="stroke:#000000; stroke-linecap:round; stroke-linejoin:round; stroke-width:2; stroke-opacity:0.1; fill:none" points="166.857,576.406 952.756,576.406 "/>
<polyline clip-path="url(#clip842)" style="stroke:#000000; stroke-linecap:round; stroke-linejoin:round; stroke-width:2; stroke-opacity:0.1; fill:none" points="166.857,346.915 952.756,346.915 "/>
<polyline clip-path="url(#clip842)" style="stroke:#000000; stroke-linecap:round; stroke-linejoin:round; stroke-width:2; stroke-opacity:0.1; fill:none" points="166.857,117.424 952.756,117.424 "/>
<polyline clip-path="url(#clip840)" style="stroke:#000000; stroke-linecap:round; stroke-linejoin:round; stroke-width:4; stroke-opacity:1; fill:none" points="166.857,1035.39 952.756,1035.39 "/>
<polyline clip-path="url(#clip840)" style="stroke:#000000; stroke-linecap:round; stroke-linejoin:round; stroke-width:4; stroke-opacity:1; fill:none" points="189.1,1035.39 189.1,1016.49 "/>
<polyline clip-path="url(#clip840)" style="stroke:#000000; stroke-linecap:round; stroke-linejoin:round; stroke-width:4; stroke-opacity:1; fill:none" points="374.453,1035.39 374.453,1016.49 "/>
<polyline clip-path="url(#clip840)" style="stroke:#000000; stroke-linecap:round; stroke-linejoin:round; stroke-width:4; stroke-opacity:1; fill:none" points="559.807,1035.39 559.807,1016.49 "/>
<polyline clip-path="url(#clip840)" style="stroke:#000000; stroke-linecap:round; stroke-linejoin:round; stroke-width:4; stroke-opacity:1; fill:none" points="745.16,1035.39 745.16,1016.49 "/>
<polyline clip-path="url(#clip840)" style="stroke:#000000; stroke-linecap:round; stroke-linejoin:round; stroke-width:4; stroke-opacity:1; fill:none" points="930.513,1035.39 930.513,1016.49 "/>
<path clip-path="url(#clip840)" d="M156.253 1090.65 L163.892 1090.65 L163.892 1064.29 L155.581 1065.95 L155.581 1061.69 L163.845 1060.03 L168.521 1060.03 L168.521 1090.65 L176.16 1090.65 L176.16 1094.59 L156.253 1094.59 L156.253 1090.65 Z" fill="#000000" fill-rule="nonzero" fill-opacity="1" /><path clip-path="url(#clip840)" d="M185.604 1088.71 L190.489 1088.71 L190.489 1094.59 L185.604 1094.59 L185.604 1088.71 Z" fill="#000000" fill-rule="nonzero" fill-opacity="1" /><path clip-path="url(#clip840)" d="M210.674 1063.11 Q207.063 1063.11 205.234 1066.67 Q203.428 1070.21 203.428 1077.34 Q203.428 1084.45 205.234 1088.01 Q207.063 1091.56 210.674 1091.56 Q214.308 1091.56 216.114 1088.01 Q217.942 1084.45 217.942 1077.34 Q217.942 1070.21 216.114 1066.67 Q214.308 1063.11 210.674 1063.11 M210.674 1059.4 Q216.484 1059.4 219.539 1064.01 Q222.618 1068.59 222.618 1077.34 Q222.618 1086.07 219.539 1090.68 Q216.484 1095.26 210.674 1095.26 Q204.864 1095.26 201.785 1090.68 Q198.729 1086.07 198.729 1077.34 Q198.729 1068.59 201.785 1064.01 Q204.864 1059.4 210.674 1059.4 Z" fill="#000000" fill-rule="nonzero" fill-opacity="1" /><path clip-path="url(#clip840)" d="M342.104 1090.65 L349.743 1090.65 L349.743 1064.29 L341.433 1065.95 L341.433 1061.69 L349.696 1060.03 L354.372 1060.03 L354.372 1090.65 L362.011 1090.65 L362.011 1094.59 L342.104 1094.59 L342.104 1090.65 Z" fill="#000000" fill-rule="nonzero" fill-opacity="1" /><path clip-path="url(#clip840)" d="M371.456 1088.71 L376.34 1088.71 L376.34 1094.59 L371.456 1094.59 L371.456 1088.71 Z" fill="#000000" fill-rule="nonzero" fill-opacity="1" /><path clip-path="url(#clip840)" d="M386.571 1060.03 L404.928 1060.03 L404.928 1063.96 L390.854 1063.96 L390.854 1072.44 Q391.872 1072.09 392.891 1071.93 Q393.909 1071.74 394.928 1071.74 Q400.715 1071.74 404.094 1074.91 Q407.474 1078.08 407.474 1083.5 Q407.474 1089.08 404.002 1092.18 Q400.529 1095.26 394.21 1095.26 Q392.034 1095.26 389.766 1094.89 Q387.52 1094.52 385.113 1093.78 L385.113 1089.08 Q387.196 1090.21 389.418 1090.77 Q391.641 1091.32 394.117 1091.32 Q398.122 1091.32 400.46 1089.22 Q402.798 1087.11 402.798 1083.5 Q402.798 1079.89 400.46 1077.78 Q398.122 1075.68 394.117 1075.68 Q392.243 1075.68 390.368 1076.09 Q388.516 1076.51 386.571 1077.39 L386.571 1060.03 Z" fill="#000000" fill-rule="nonzero" fill-opacity="1" /><path clip-path="url(#clip840)" d="M531.045 1090.65 L547.365 1090.65 L547.365 1094.59 L525.42 1094.59 L525.42 1090.65 Q528.082 1087.9 532.666 1083.27 Q537.272 1078.62 538.453 1077.27 Q540.698 1074.75 541.578 1073.01 Q542.48 1071.25 542.48 1069.56 Q542.48 1066.81 540.536 1065.07 Q538.615 1063.34 535.513 1063.34 Q533.314 1063.34 530.86 1064.1 Q528.43 1064.87 525.652 1066.42 L525.652 1061.69 Q528.476 1060.56 530.93 1059.98 Q533.383 1059.4 535.42 1059.4 Q540.791 1059.4 543.985 1062.09 Q547.179 1064.77 547.179 1069.26 Q547.179 1071.39 546.369 1073.31 Q545.582 1075.21 543.476 1077.81 Q542.897 1078.48 539.795 1081.69 Q536.693 1084.89 531.045 1090.65 Z" fill="#000000" fill-rule="nonzero" fill-opacity="1" /><path clip-path="url(#clip840)" d="M557.179 1088.71 L562.064 1088.71 L562.064 1094.59 L557.179 1094.59 L557.179 1088.71 Z" fill="#000000" fill-rule="nonzero" fill-opacity="1" /><path clip-path="url(#clip840)" d="M582.249 1063.11 Q578.638 1063.11 576.809 1066.67 Q575.003 1070.21 575.003 1077.34 Q575.003 1084.45 576.809 1088.01 Q578.638 1091.56 582.249 1091.56 Q585.883 1091.56 587.688 1088.01 Q589.517 1084.45 589.517 1077.34 Q589.517 1070.21 587.688 1066.67 Q585.883 1063.11 582.249 1063.11 M582.249 1059.4 Q588.059 1059.4 591.114 1064.01 Q594.193 1068.59 594.193 1077.34 Q594.193 1086.07 591.114 1090.68 Q588.059 1095.26 582.249 1095.26 Q576.439 1095.26 573.36 1090.68 Q570.304 1086.07 570.304 1077.34 Q570.304 1068.59 573.36 1064.01 Q576.439 1059.4 582.249 1059.4 Z" fill="#000000" fill-rule="nonzero" fill-opacity="1" /><path clip-path="url(#clip840)" d="M716.896 1090.65 L733.216 1090.65 L733.216 1094.59 L711.271 1094.59 L711.271 1090.65 Q713.933 1087.9 718.517 1083.27 Q723.123 1078.62 724.304 1077.27 Q726.549 1074.75 727.429 1073.01 Q728.331 1071.25 728.331 1069.56 Q728.331 1066.81 726.387 1065.07 Q724.466 1063.34 721.364 1063.34 Q719.165 1063.34 716.711 1064.1 Q714.281 1064.87 711.503 1066.42 L711.503 1061.69 Q714.327 1060.56 716.781 1059.98 Q719.234 1059.4 721.271 1059.4 Q726.642 1059.4 729.836 1062.09 Q733.031 1064.77 733.031 1069.26 Q733.031 1071.39 732.22 1073.31 Q731.433 1075.21 729.327 1077.81 Q728.748 1078.48 725.646 1081.69 Q722.544 1084.89 716.896 1090.65 Z" fill="#000000" fill-rule="nonzero" fill-opacity="1" /><path clip-path="url(#clip840)" d="M743.03 1088.71 L747.915 1088.71 L747.915 1094.59 L743.03 1094.59 L743.03 1088.71 Z" fill="#000000" fill-rule="nonzero" fill-opacity="1" /><path clip-path="url(#clip840)" d="M758.146 1060.03 L776.503 1060.03 L776.503 1063.96 L762.429 1063.96 L762.429 1072.44 Q763.447 1072.09 764.466 1071.93 Q765.484 1071.74 766.503 1071.74 Q772.29 1071.74 775.669 1074.91 Q779.049 1078.08 779.049 1083.5 Q779.049 1089.08 775.577 1092.18 Q772.104 1095.26 765.785 1095.26 Q763.609 1095.26 761.341 1094.89 Q759.095 1094.52 756.688 1093.78 L756.688 1089.08 Q758.771 1090.21 760.993 1090.77 Q763.216 1091.32 765.692 1091.32 Q769.697 1091.32 772.035 1089.22 Q774.373 1087.11 774.373 1083.5 Q774.373 1079.89 772.035 1077.78 Q769.697 1075.68 765.692 1075.68 Q763.817 1075.68 761.942 1076.09 Q760.091 1076.51 758.146 1077.39 L758.146 1060.03 Z" fill="#000000" fill-rule="nonzero" fill-opacity="1" /><path clip-path="url(#clip840)" d="M911.821 1075.95 Q915.178 1076.67 917.053 1078.94 Q918.951 1081.21 918.951 1084.54 Q918.951 1089.66 915.433 1092.46 Q911.914 1095.26 905.433 1095.26 Q903.257 1095.26 900.942 1094.82 Q898.65 1094.4 896.197 1093.55 L896.197 1089.03 Q898.141 1090.17 900.456 1090.75 Q902.771 1091.32 905.294 1091.32 Q909.692 1091.32 911.984 1089.59 Q914.298 1087.85 914.298 1084.54 Q914.298 1081.49 912.146 1079.77 Q910.016 1078.04 906.196 1078.04 L902.169 1078.04 L902.169 1074.19 L906.382 1074.19 Q909.831 1074.19 911.659 1072.83 Q913.488 1071.44 913.488 1068.85 Q913.488 1066.19 911.59 1064.77 Q909.715 1063.34 906.196 1063.34 Q904.275 1063.34 902.076 1063.75 Q899.877 1064.17 897.238 1065.05 L897.238 1060.88 Q899.9 1060.14 902.215 1059.77 Q904.553 1059.4 906.613 1059.4 Q911.937 1059.4 915.039 1061.83 Q918.141 1064.24 918.141 1068.36 Q918.141 1071.23 916.497 1073.22 Q914.854 1075.19 911.821 1075.95 Z" fill="#000000" fill-rule="nonzero" fill-opacity="1" /><path clip-path="url(#clip840)" d="M927.817 1088.71 L932.701 1088.71 L932.701 1094.59 L927.817 1094.59 L927.817 1088.71 Z" fill="#000000" fill-rule="nonzero" fill-opacity="1" /><path clip-path="url(#clip840)" d="M952.886 1063.11 Q949.275 1063.11 947.446 1066.67 Q945.641 1070.21 945.641 1077.34 Q945.641 1084.45 947.446 1088.01 Q949.275 1091.56 952.886 1091.56 Q956.52 1091.56 958.326 1088.01 Q960.155 1084.45 960.155 1077.34 Q960.155 1070.21 958.326 1066.67 Q956.52 1063.11 952.886 1063.11 M952.886 1059.4 Q958.696 1059.4 961.752 1064.01 Q964.83 1068.59 964.83 1077.34 Q964.83 1086.07 961.752 1090.68 Q958.696 1095.26 952.886 1095.26 Q947.076 1095.26 943.997 1090.68 Q940.942 1086.07 940.942 1077.34 Q940.942 1068.59 943.997 1064.01 Q947.076 1059.4 952.886 1059.4 Z" fill="#000000" fill-rule="nonzero" fill-opacity="1" /><path clip-path="url(#clip840)" d="M500.096 1128.29 L500.096 1134.56 Q496.436 1132.81 493.19 1131.95 Q489.943 1131.09 486.919 1131.09 Q481.668 1131.09 478.803 1133.13 Q475.97 1135.17 475.97 1138.92 Q475.97 1142.07 477.848 1143.7 Q479.758 1145.29 485.041 1146.27 L488.925 1147.07 Q496.118 1148.44 499.523 1151.91 Q502.961 1155.35 502.961 1161.14 Q502.961 1168.05 498.314 1171.61 Q493.699 1175.17 484.755 1175.17 Q481.381 1175.17 477.562 1174.41 Q473.774 1173.65 469.7 1172.15 L469.7 1165.53 Q473.615 1167.73 477.371 1168.84 Q481.127 1169.95 484.755 1169.95 Q490.261 1169.95 493.253 1167.79 Q496.245 1165.63 496.245 1161.62 Q496.245 1158.11 494.081 1156.14 Q491.948 1154.17 487.047 1153.18 L483.132 1152.42 Q475.938 1150.99 472.724 1147.93 Q469.509 1144.87 469.509 1139.43 Q469.509 1133.13 473.933 1129.5 Q478.389 1125.87 486.187 1125.87 Q489.529 1125.87 492.999 1126.48 Q496.468 1127.08 500.096 1128.29 Z" fill="#000000" fill-rule="nonzero" fill-opacity="1" /><path clip-path="url(#clip840)" d="M518.525 1128.48 L518.525 1138.6 L530.588 1138.6 L530.588 1143.16 L518.525 1143.16 L518.525 1162.51 Q518.525 1166.87 519.703 1168.11 Q520.912 1169.35 524.572 1169.35 L530.588 1169.35 L530.588 1174.25 L524.572 1174.25 Q517.793 1174.25 515.215 1171.74 Q512.637 1169.19 512.637 1162.51 L512.637 1143.16 L508.34 1143.16 L508.34 1138.6 L512.637 1138.6 L512.637 1128.48 L518.525 1128.48 Z" fill="#000000" fill-rule="nonzero" fill-opacity="1" /><path clip-path="url(#clip840)" d="M554.491 1156.33 Q547.394 1156.33 544.656 1157.96 Q541.919 1159.58 541.919 1163.49 Q541.919 1166.61 543.956 1168.46 Q546.025 1170.27 549.558 1170.27 Q554.428 1170.27 557.356 1166.84 Q560.316 1163.37 560.316 1157.64 L560.316 1156.33 L554.491 1156.33 M566.172 1153.91 L566.172 1174.25 L560.316 1174.25 L560.316 1168.84 Q558.311 1172.09 555.319 1173.65 Q552.327 1175.17 547.998 1175.17 Q542.524 1175.17 539.277 1172.12 Q536.063 1169.03 536.063 1163.88 Q536.063 1157.86 540.073 1154.8 Q544.115 1151.75 552.104 1151.75 L560.316 1151.75 L560.316 1151.18 Q560.316 1147.13 557.642 1144.94 Q555.001 1142.71 550.194 1142.71 Q547.139 1142.71 544.243 1143.44 Q541.346 1144.17 538.673 1145.64 L538.673 1140.23 Q541.887 1138.99 544.911 1138.38 Q547.935 1137.74 550.799 1137.74 Q558.534 1137.74 562.353 1141.75 Q566.172 1145.77 566.172 1153.91 Z" fill="#000000" fill-rule="nonzero" fill-opacity="1" /><path clip-path="url(#clip840)" d="M601.693 1156.01 Q601.693 1149.65 599.051 1146.15 Q596.441 1142.65 591.699 1142.65 Q586.988 1142.65 584.346 1146.15 Q581.737 1149.65 581.737 1156.01 Q581.737 1162.35 584.346 1165.85 Q586.988 1169.35 591.699 1169.35 Q596.441 1169.35 599.051 1165.85 Q601.693 1162.35 601.693 1156.01 M607.549 1169.83 Q607.549 1178.93 603.507 1183.35 Q599.465 1187.81 591.126 1187.81 Q588.039 1187.81 585.301 1187.33 Q582.564 1186.89 579.986 1185.93 L579.986 1180.24 Q582.564 1181.64 585.079 1182.3 Q587.593 1182.97 590.203 1182.97 Q595.964 1182.97 598.828 1179.95 Q601.693 1176.96 601.693 1170.88 L601.693 1167.98 Q599.879 1171.13 597.046 1172.69 Q594.213 1174.25 590.267 1174.25 Q583.71 1174.25 579.699 1169.25 Q575.689 1164.26 575.689 1156.01 Q575.689 1147.74 579.699 1142.74 Q583.71 1137.74 590.267 1137.74 Q594.213 1137.74 597.046 1139.3 Q599.879 1140.86 601.693 1144.01 L601.693 1138.6 L607.549 1138.6 L607.549 1169.83 Z" fill="#000000" fill-rule="nonzero" fill-opacity="1" /><path clip-path="url(#clip840)" d="M650.104 1154.96 L650.104 1157.83 L623.177 1157.83 Q623.559 1163.88 626.806 1167.06 Q630.084 1170.21 635.909 1170.21 Q639.283 1170.21 642.434 1169.38 Q645.616 1168.55 648.736 1166.9 L648.736 1172.44 Q645.585 1173.77 642.274 1174.47 Q638.964 1175.17 635.559 1175.17 Q627.029 1175.17 622.031 1170.21 Q617.066 1165.24 617.066 1156.78 Q617.066 1148.03 621.777 1142.9 Q626.519 1137.74 634.54 1137.74 Q641.733 1137.74 645.903 1142.39 Q650.104 1147.01 650.104 1154.96 M644.248 1153.25 Q644.184 1148.44 641.542 1145.57 Q638.932 1142.71 634.604 1142.71 Q629.702 1142.71 626.742 1145.48 Q623.814 1148.25 623.368 1153.28 L644.248 1153.25 Z" fill="#000000" fill-rule="nonzero" fill-opacity="1" /><polyline clip-path="url(#clip840)" style="stroke:#000000; stroke-linecap:round; stroke-linejoin:round; stroke-width:4; stroke-opacity:1; fill:none" points="166.857,1035.39 166.857,117.424 "/>
<polyline clip-path="url(#clip840)" style="stroke:#000000; stroke-linecap:round; stroke-linejoin:round; stroke-width:4; stroke-opacity:1; fill:none" points="166.857,1035.39 185.755,1035.39 "/>
<polyline clip-path="url(#clip840)" style="stroke:#000000; stroke-linecap:round; stroke-linejoin:round; stroke-width:4; stroke-opacity:1; fill:none" points="166.857,805.897 185.755,805.897 "/>
<polyline clip-path="url(#clip840)" style="stroke:#000000; stroke-linecap:round; stroke-linejoin:round; stroke-width:4; stroke-opacity:1; fill:none" points="166.857,576.406 185.755,576.406 "/>
<polyline clip-path="url(#clip840)" style="stroke:#000000; stroke-linecap:round; stroke-linejoin:round; stroke-width:4; stroke-opacity:1; fill:none" points="166.857,346.915 185.755,346.915 "/>
<polyline clip-path="url(#clip840)" style="stroke:#000000; stroke-linecap:round; stroke-linejoin:round; stroke-width:4; stroke-opacity:1; fill:none" points="166.857,117.424 185.755,117.424 "/>
<path clip-path="url(#clip840)" d="M124.913 1021.19 Q121.302 1021.19 119.473 1024.75 Q117.668 1028.29 117.668 1035.42 Q117.668 1042.53 119.473 1046.09 Q121.302 1049.64 124.913 1049.64 Q128.547 1049.64 130.353 1046.09 Q132.182 1042.53 132.182 1035.42 Q132.182 1028.29 130.353 1024.75 Q128.547 1021.19 124.913 1021.19 M124.913 1017.48 Q130.723 1017.48 133.779 1022.09 Q136.857 1026.67 136.857 1035.42 Q136.857 1044.15 133.779 1048.76 Q130.723 1053.34 124.913 1053.34 Q119.103 1053.34 116.024 1048.76 Q112.969 1044.15 112.969 1035.42 Q112.969 1026.67 116.024 1022.09 Q119.103 1017.48 124.913 1017.48 Z" fill="#000000" fill-rule="nonzero" fill-opacity="1" /><path clip-path="url(#clip840)" d="M84.7975 788.617 L103.154 788.617 L103.154 792.552 L89.0799 792.552 L89.0799 801.024 Q90.0984 800.677 91.1169 800.515 Q92.1354 800.33 93.1539 800.33 Q98.941 800.33 102.321 803.501 Q105.7 806.672 105.7 812.089 Q105.7 817.668 102.228 820.77 Q98.7558 823.848 92.4364 823.848 Q90.2604 823.848 87.9919 823.478 Q85.7466 823.107 83.3392 822.367 L83.3392 817.668 Q85.4225 818.802 87.6447 819.357 Q89.8669 819.913 92.3438 819.913 Q96.3484 819.913 98.6863 817.807 Q101.024 815.7 101.024 812.089 Q101.024 808.478 98.6863 806.371 Q96.3484 804.265 92.3438 804.265 Q90.4688 804.265 88.5938 804.682 Q86.7419 805.098 84.7975 805.978 L84.7975 788.617 Z" fill="#000000" fill-rule="nonzero" fill-opacity="1" /><path clip-path="url(#clip840)" d="M124.913 791.696 Q121.302 791.696 119.473 795.26 Q117.668 798.802 117.668 805.932 Q117.668 813.038 119.473 816.603 Q121.302 820.145 124.913 820.145 Q128.547 820.145 130.353 816.603 Q132.182 813.038 132.182 805.932 Q132.182 798.802 130.353 795.26 Q128.547 791.696 124.913 791.696 M124.913 787.992 Q130.723 787.992 133.779 792.598 Q136.857 797.182 136.857 805.932 Q136.857 814.658 133.779 819.265 Q130.723 823.848 124.913 823.848 Q119.103 823.848 116.024 819.265 Q112.969 814.658 112.969 805.932 Q112.969 797.182 116.024 792.598 Q119.103 787.992 124.913 787.992 Z" fill="#000000" fill-rule="nonzero" fill-opacity="1" /><path clip-path="url(#clip840)" d="M55.3995 589.751 L63.0384 589.751 L63.0384 563.385 L54.7282 565.052 L54.7282 560.793 L62.9921 559.126 L67.668 559.126 L67.668 589.751 L75.3068 589.751 L75.3068 593.686 L55.3995 593.686 L55.3995 589.751 Z" fill="#000000" fill-rule="nonzero" fill-opacity="1" /><path clip-path="url(#clip840)" d="M94.7512 562.205 Q91.1401 562.205 89.3114 565.769 Q87.5058 569.311 87.5058 576.441 Q87.5058 583.547 89.3114 587.112 Q91.1401 590.654 94.7512 590.654 Q98.3854 590.654 100.191 587.112 Q102.02 583.547 102.02 576.441 Q102.02 569.311 100.191 565.769 Q98.3854 562.205 94.7512 562.205 M94.7512 558.501 Q100.561 558.501 103.617 563.107 Q106.696 567.691 106.696 576.441 Q106.696 585.168 103.617 589.774 Q100.561 594.357 94.7512 594.357 Q88.941 594.357 85.8623 589.774 Q82.8068 585.168 82.8068 576.441 Q82.8068 567.691 85.8623 563.107 Q88.941 558.501 94.7512 558.501 Z" fill="#000000" fill-rule="nonzero" fill-opacity="1" /><path clip-path="url(#clip840)" d="M124.913 562.205 Q121.302 562.205 119.473 565.769 Q117.668 569.311 117.668 576.441 Q117.668 583.547 119.473 587.112 Q121.302 590.654 124.913 590.654 Q128.547 590.654 130.353 587.112 Q132.182 583.547 132.182 576.441 Q132.182 569.311 130.353 565.769 Q128.547 562.205 124.913 562.205 M124.913 558.501 Q130.723 558.501 133.779 563.107 Q136.857 567.691 136.857 576.441 Q136.857 585.168 133.779 589.774 Q130.723 594.357 124.913 594.357 Q119.103 594.357 116.024 589.774 Q112.969 585.168 112.969 576.441 Q112.969 567.691 116.024 563.107 Q119.103 558.501 124.913 558.501 Z" fill="#000000" fill-rule="nonzero" fill-opacity="1" /><path clip-path="url(#clip840)" d="M55.3995 360.26 L63.0384 360.26 L63.0384 333.894 L54.7282 335.561 L54.7282 331.302 L62.9921 329.635 L67.668 329.635 L67.668 360.26 L75.3068 360.26 L75.3068 364.195 L55.3995 364.195 L55.3995 360.26 Z" fill="#000000" fill-rule="nonzero" fill-opacity="1" /><path clip-path="url(#clip840)" d="M84.7975 329.635 L103.154 329.635 L103.154 333.57 L89.0799 333.57 L89.0799 342.042 Q90.0984 341.695 91.1169 341.533 Q92.1354 341.348 93.1539 341.348 Q98.941 341.348 102.321 344.519 Q105.7 347.691 105.7 353.107 Q105.7 358.686 102.228 361.788 Q98.7558 364.866 92.4364 364.866 Q90.2604 364.866 87.9919 364.496 Q85.7466 364.126 83.3392 363.385 L83.3392 358.686 Q85.4225 359.82 87.6447 360.376 Q89.8669 360.931 92.3438 360.931 Q96.3484 360.931 98.6863 358.825 Q101.024 356.718 101.024 353.107 Q101.024 349.496 98.6863 347.39 Q96.3484 345.283 92.3438 345.283 Q90.4688 345.283 88.5938 345.7 Q86.7419 346.116 84.7975 346.996 L84.7975 329.635 Z" fill="#000000" fill-rule="nonzero" fill-opacity="1" /><path clip-path="url(#clip840)" d="M124.913 332.714 Q121.302 332.714 119.473 336.279 Q117.668 339.82 117.668 346.95 Q117.668 354.056 119.473 357.621 Q121.302 361.163 124.913 361.163 Q128.547 361.163 130.353 357.621 Q132.182 354.056 132.182 346.95 Q132.182 339.82 130.353 336.279 Q128.547 332.714 124.913 332.714 M124.913 329.01 Q130.723 329.01 133.779 333.617 Q136.857 338.2 136.857 346.95 Q136.857 355.677 133.779 360.283 Q130.723 364.866 124.913 364.866 Q119.103 364.866 116.024 360.283 Q112.969 355.677 112.969 346.95 Q112.969 338.2 116.024 333.617 Q119.103 329.01 124.913 329.01 Z" fill="#000000" fill-rule="nonzero" fill-opacity="1" /><path clip-path="url(#clip840)" d="M58.6171 130.769 L74.9365 130.769 L74.9365 134.704 L52.9921 134.704 L52.9921 130.769 Q55.6541 128.014 60.2375 123.385 Q64.8439 118.732 66.0245 117.389 Q68.2698 114.866 69.1494 113.13 Q70.0522 111.371 70.0522 109.681 Q70.0522 106.926 68.1078 105.19 Q66.1865 103.454 63.0847 103.454 Q60.8856 103.454 58.4319 104.218 Q56.0014 104.982 53.2236 106.533 L53.2236 101.811 Q56.0477 100.677 58.5014 100.098 Q60.955 99.5191 62.9921 99.5191 Q68.3624 99.5191 71.5568 102.204 Q74.7513 104.889 74.7513 109.38 Q74.7513 111.51 73.9411 113.431 Q73.1541 115.329 71.0476 117.922 Q70.4689 118.593 67.367 121.811 Q64.2652 125.005 58.6171 130.769 Z" fill="#000000" fill-rule="nonzero" fill-opacity="1" /><path clip-path="url(#clip840)" d="M94.7512 103.223 Q91.1401 103.223 89.3114 106.788 Q87.5058 110.329 87.5058 117.459 Q87.5058 124.565 89.3114 128.13 Q91.1401 131.672 94.7512 131.672 Q98.3854 131.672 100.191 128.13 Q102.02 124.565 102.02 117.459 Q102.02 110.329 100.191 106.788 Q98.3854 103.223 94.7512 103.223 M94.7512 99.5191 Q100.561 99.5191 103.617 104.126 Q106.696 108.709 106.696 117.459 Q106.696 126.186 103.617 130.792 Q100.561 135.375 94.7512 135.375 Q88.941 135.375 85.8623 130.792 Q82.8068 126.186 82.8068 117.459 Q82.8068 108.709 85.8623 104.126 Q88.941 99.5191 94.7512 99.5191 Z" fill="#000000" fill-rule="nonzero" fill-opacity="1" /><path clip-path="url(#clip840)" d="M124.913 103.223 Q121.302 103.223 119.473 106.788 Q117.668 110.329 117.668 117.459 Q117.668 124.565 119.473 128.13 Q121.302 131.672 124.913 131.672 Q128.547 131.672 130.353 128.13 Q132.182 124.565 132.182 117.459 Q132.182 110.329 130.353 106.788 Q128.547 103.223 124.913 103.223 M124.913 99.5191 Q130.723 99.5191 133.779 104.126 Q136.857 108.709 136.857 117.459 Q136.857 126.186 133.779 130.792 Q130.723 135.375 124.913 135.375 Q119.103 135.375 116.024 130.792 Q112.969 126.186 112.969 117.459 Q112.969 108.709 116.024 104.126 Q119.103 99.5191 124.913 99.5191 Z" fill="#000000" fill-rule="nonzero" fill-opacity="1" /><path clip-path="url(#clip840)" d="M234.458 17.6457 Q225.546 17.6457 220.28 24.2892 Q215.054 30.9327 215.054 42.3968 Q215.054 53.8203 220.28 60.4638 Q225.546 67.1073 234.458 67.1073 Q243.37 67.1073 248.555 60.4638 Q253.781 53.8203 253.781 42.3968 Q253.781 30.9327 248.555 24.2892 Q243.37 17.6457 234.458 17.6457 M234.458 11.0023 Q247.178 11.0023 254.794 19.5497 Q262.41 28.0566 262.41 42.3968 Q262.41 56.6965 254.794 65.2439 Q247.178 73.7508 234.458 73.7508 Q221.698 73.7508 214.042 65.2439 Q206.426 56.737 206.426 42.3968 Q206.426 28.0566 214.042 19.5497 Q221.698 11.0023 234.458 11.0023 Z" fill="#000000" fill-rule="nonzero" fill-opacity="1" /><path clip-path="url(#clip840)" d="M274.117 54.671 L274.117 27.2059 L281.57 27.2059 L281.57 54.3874 Q281.57 60.8284 284.082 64.0691 Q286.593 67.2693 291.617 67.2693 Q297.652 67.2693 301.136 63.421 Q304.66 59.5726 304.66 52.9291 L304.66 27.2059 L312.114 27.2059 L312.114 72.576 L304.66 72.576 L304.66 65.6084 Q301.946 69.7404 298.341 71.7658 Q294.776 73.7508 290.037 73.7508 Q282.218 73.7508 278.168 68.8897 Q274.117 64.0286 274.117 54.671 M292.872 26.1121 L292.872 26.1121 Z" fill="#000000" fill-rule="nonzero" fill-opacity="1" /><path clip-path="url(#clip840)" d="M334.84 14.324 L334.84 27.2059 L350.193 27.2059 L350.193 32.9987 L334.84 32.9987 L334.84 57.6282 Q334.84 63.1779 336.339 64.7578 Q337.878 66.3376 342.536 66.3376 L350.193 66.3376 L350.193 72.576 L342.536 72.576 Q333.908 72.576 330.627 69.3758 Q327.346 66.1351 327.346 57.6282 L327.346 32.9987 L321.877 32.9987 L321.877 27.2059 L327.346 27.2059 L327.346 14.324 L334.84 14.324 Z" fill="#000000" fill-rule="nonzero" fill-opacity="1" /><path clip-path="url(#clip840)" d="M389.851 49.3643 Q389.851 41.2625 386.489 36.8065 Q383.167 32.3505 377.131 32.3505 Q371.136 32.3505 367.774 36.8065 Q364.452 41.2625 364.452 49.3643 Q364.452 57.4256 367.774 61.8816 Q371.136 66.3376 377.131 66.3376 Q383.167 66.3376 386.489 61.8816 Q389.851 57.4256 389.851 49.3643 M397.305 66.9452 Q397.305 78.5308 392.16 84.1616 Q387.015 89.8329 376.402 89.8329 Q372.473 89.8329 368.989 89.2252 Q365.505 88.6581 362.224 87.4428 L362.224 80.1917 Q365.505 81.9741 368.705 82.8248 Q371.905 83.6755 375.227 83.6755 Q382.559 83.6755 386.205 79.8271 Q389.851 76.0193 389.851 68.282 L389.851 64.5957 Q387.542 68.6061 383.937 70.5911 Q380.331 72.576 375.308 72.576 Q366.963 72.576 361.859 66.2161 Q356.755 59.8562 356.755 49.3643 Q356.755 38.832 361.859 32.472 Q366.963 26.1121 375.308 26.1121 Q380.331 26.1121 383.937 28.0971 Q387.542 30.082 389.851 34.0924 L389.851 27.2059 L397.305 27.2059 L397.305 66.9452 Z" fill="#000000" fill-rule="nonzero" fill-opacity="1" /><path clip-path="url(#clip840)" d="M430.238 32.4315 Q424.243 32.4315 420.759 37.1306 Q417.276 41.7891 417.276 49.9314 Q417.276 58.0738 420.719 62.7728 Q424.203 67.4314 430.238 67.4314 Q436.193 67.4314 439.677 62.7323 Q443.161 58.0333 443.161 49.9314 Q443.161 41.8701 439.677 37.1711 Q436.193 32.4315 430.238 32.4315 M430.238 26.1121 Q439.961 26.1121 445.51 32.4315 Q451.06 38.7509 451.06 49.9314 Q451.06 61.0714 445.51 67.4314 Q439.961 73.7508 430.238 73.7508 Q420.476 73.7508 414.926 67.4314 Q409.417 61.0714 409.417 49.9314 Q409.417 38.7509 414.926 32.4315 Q420.476 26.1121 430.238 26.1121 Z" fill="#000000" fill-rule="nonzero" fill-opacity="1" /><path clip-path="url(#clip840)" d="M463.415 27.2059 L470.869 27.2059 L470.869 72.576 L463.415 72.576 L463.415 27.2059 M463.415 9.54393 L470.869 9.54393 L470.869 18.9825 L463.415 18.9825 L463.415 9.54393 Z" fill="#000000" fill-rule="nonzero" fill-opacity="1" /><path clip-path="url(#clip840)" d="M524.179 45.1919 L524.179 72.576 L516.725 72.576 L516.725 45.4349 Q516.725 38.994 514.214 35.7938 Q511.702 32.5936 506.679 32.5936 Q500.643 32.5936 497.159 36.4419 Q493.676 40.2903 493.676 46.9338 L493.676 72.576 L486.181 72.576 L486.181 27.2059 L493.676 27.2059 L493.676 34.2544 Q496.349 30.163 499.955 28.1376 Q503.6 26.1121 508.34 26.1121 Q516.158 26.1121 520.169 30.9732 Q524.179 35.7938 524.179 45.1919 Z" fill="#000000" fill-rule="nonzero" fill-opacity="1" /><path clip-path="url(#clip840)" d="M568.901 49.3643 Q568.901 41.2625 565.539 36.8065 Q562.217 32.3505 556.181 32.3505 Q550.186 32.3505 546.824 36.8065 Q543.502 41.2625 543.502 49.3643 Q543.502 57.4256 546.824 61.8816 Q550.186 66.3376 556.181 66.3376 Q562.217 66.3376 565.539 61.8816 Q568.901 57.4256 568.901 49.3643 M576.355 66.9452 Q576.355 78.5308 571.21 84.1616 Q566.065 89.8329 555.452 89.8329 Q551.523 89.8329 548.039 89.2252 Q544.555 88.6581 541.274 87.4428 L541.274 80.1917 Q544.555 81.9741 547.755 82.8248 Q550.955 83.6755 554.277 83.6755 Q561.609 83.6755 565.255 79.8271 Q568.901 76.0193 568.901 68.282 L568.901 64.5957 Q566.592 68.6061 562.987 70.5911 Q559.381 72.576 554.358 72.576 Q546.013 72.576 540.909 66.2161 Q535.805 59.8562 535.805 49.3643 Q535.805 38.832 540.909 32.472 Q546.013 26.1121 554.358 26.1121 Q559.381 26.1121 562.987 28.0971 Q566.592 30.082 568.901 34.0924 L568.901 27.2059 L576.355 27.2059 L576.355 66.9452 Z" fill="#000000" fill-rule="nonzero" fill-opacity="1" /><path clip-path="url(#clip840)" d="M612.732 27.2059 L620.631 27.2059 L634.809 65.2844 L648.987 27.2059 L656.887 27.2059 L639.873 72.576 L629.746 72.576 L612.732 27.2059 Z" fill="#000000" fill-rule="nonzero" fill-opacity="1" /><path clip-path="url(#clip840)" d="M684.757 32.4315 Q678.761 32.4315 675.278 37.1306 Q671.794 41.7891 671.794 49.9314 Q671.794 58.0738 675.237 62.7728 Q678.721 67.4314 684.757 67.4314 Q690.712 67.4314 694.195 62.7323 Q697.679 58.0333 697.679 49.9314 Q697.679 41.8701 694.195 37.1711 Q690.712 32.4315 684.757 32.4315 M684.757 26.1121 Q694.479 26.1121 700.029 32.4315 Q705.578 38.7509 705.578 49.9314 Q705.578 61.0714 700.029 67.4314 Q694.479 73.7508 684.757 73.7508 Q674.994 73.7508 669.444 67.4314 Q663.935 61.0714 663.935 49.9314 Q663.935 38.7509 669.444 32.4315 Q674.994 26.1121 684.757 26.1121 Z" fill="#000000" fill-rule="nonzero" fill-opacity="1" /><path clip-path="url(#clip840)" d="M717.934 9.54393 L725.387 9.54393 L725.387 72.576 L717.934 72.576 L717.934 9.54393 Z" fill="#000000" fill-rule="nonzero" fill-opacity="1" /><path clip-path="url(#clip840)" d="M740.214 54.671 L740.214 27.2059 L747.667 27.2059 L747.667 54.3874 Q747.667 60.8284 750.179 64.0691 Q752.69 67.2693 757.714 67.2693 Q763.749 67.2693 767.233 63.421 Q770.757 59.5726 770.757 52.9291 L770.757 27.2059 L778.211 27.2059 L778.211 72.576 L770.757 72.576 L770.757 65.6084 Q768.043 69.7404 764.438 71.7658 Q760.873 73.7508 756.134 73.7508 Q748.315 73.7508 744.265 68.8897 Q740.214 64.0286 740.214 54.671 M758.969 26.1121 L758.969 26.1121 Z" fill="#000000" fill-rule="nonzero" fill-opacity="1" /><path clip-path="url(#clip840)" d="M828.888 35.9153 Q831.683 30.8922 835.572 28.5022 Q839.461 26.1121 844.727 26.1121 Q851.816 26.1121 855.664 31.0947 Q859.513 36.0368 859.513 45.1919 L859.513 72.576 L852.019 72.576 L852.019 45.4349 Q852.019 38.913 849.71 35.7533 Q847.401 32.5936 842.661 32.5936 Q836.868 32.5936 833.506 36.4419 Q830.144 40.2903 830.144 46.9338 L830.144 72.576 L822.65 72.576 L822.65 45.4349 Q822.65 38.8725 820.341 35.7533 Q818.032 32.5936 813.211 32.5936 Q807.499 32.5936 804.137 36.4824 Q800.775 40.3308 800.775 46.9338 L800.775 72.576 L793.281 72.576 L793.281 27.2059 L800.775 27.2059 L800.775 34.2544 Q803.327 30.082 806.892 28.0971 Q810.456 26.1121 815.358 26.1121 Q820.3 26.1121 823.743 28.6237 Q827.227 31.1352 828.888 35.9153 Z" fill="#000000" fill-rule="nonzero" fill-opacity="1" /><path clip-path="url(#clip840)" d="M913.187 48.0275 L913.187 51.6733 L878.917 51.6733 Q879.403 59.3701 883.535 63.421 Q887.707 67.4314 895.12 67.4314 Q899.414 67.4314 903.425 66.3781 Q907.476 65.3249 911.445 63.2184 L911.445 70.267 Q907.435 71.9684 903.222 72.8596 Q899.009 73.7508 894.675 73.7508 Q883.818 73.7508 877.458 67.4314 Q871.139 61.1119 871.139 50.3365 Q871.139 39.1965 877.134 32.6746 Q883.17 26.1121 893.378 26.1121 Q902.533 26.1121 907.84 32.0264 Q913.187 37.9003 913.187 48.0275 M905.734 45.84 Q905.653 39.7232 902.29 36.0774 Q898.969 32.4315 893.459 32.4315 Q887.221 32.4315 883.454 35.9558 Q879.727 39.4801 879.16 45.8805 L905.734 45.84 Z" fill="#000000" fill-rule="nonzero" fill-opacity="1" /><path clip-path="url(#clip842)" d="M189.1 117.424 L559.807 805.897 L930.513 1035.39 L930.513 576.406 L559.807 346.915 L189.1 117.424  Z" fill="#00467f" fill-rule="evenodd" fill-opacity="0.2"/>
<polyline clip-path="url(#clip842)" style="stroke:#00467f; stroke-linecap:round; stroke-linejoin:round; stroke-width:4; stroke-opacity:0; fill:none" points="189.1,117.424 559.807,576.406 930.513,805.897 "/>
<path clip-path="url(#clip842)" d="M189.1 117.424 L559.807 805.897 L930.513 1035.39 L930.513 805.897 L559.807 346.915 L189.1 117.424  Z" fill="#00467f" fill-rule="evenodd" fill-opacity="0.2"/>
<polyline clip-path="url(#clip842)" style="stroke:#00467f; stroke-linecap:round; stroke-linejoin:round; stroke-width:4; stroke-opacity:0; fill:none" points="189.1,117.424 559.807,576.406 930.513,920.642 "/>
<path clip-path="url(#clip842)" d="M189.1 117.424 L559.807 805.897 L930.513 1035.39 L930.513 1035.39 L559.807 346.915 L189.1 117.424  Z" fill="#00467f" fill-rule="evenodd" fill-opacity="0.2"/>
<polyline clip-path="url(#clip842)" style="stroke:#00467f; stroke-linecap:round; stroke-linejoin:round; stroke-width:4; stroke-opacity:0; fill:none" points="189.1,117.424 559.807,576.406 930.513,1035.39 "/>
<polyline clip-path="url(#clip842)" style="stroke:#00467f; stroke-linecap:round; stroke-linejoin:round; stroke-width:4; stroke-opacity:1; fill:none" points="189.1,117.424 559.807,576.406 930.513,1035.39 "/>
<path clip-path="url(#clip840)" d="M1166.86 1035.39 L1952.76 1035.39 L1952.76 117.424 L1166.86 117.424  Z" fill="#ffffff" fill-rule="evenodd" fill-opacity="1"/>
<defs>
  <clipPath id="clip843">
    <rect x="1166" y="117" width="787" height="919"/>
  </clipPath>
</defs>
<polyline clip-path="url(#clip843)" style="stroke:#000000; stroke-linecap:round; stroke-linejoin:round; stroke-width:2; stroke-opacity:0.1; fill:none" points="1189.1,1035.39 1189.1,117.424 "/>
<polyline clip-path="url(#clip843)" style="stroke:#000000; stroke-linecap:round; stroke-linejoin:round; stroke-width:2; stroke-opacity:0.1; fill:none" points="1374.45,1035.39 1374.45,117.424 "/>
<polyline clip-path="url(#clip843)" style="stroke:#000000; stroke-linecap:round; stroke-linejoin:round; stroke-width:2; stroke-opacity:0.1; fill:none" points="1559.81,1035.39 1559.81,117.424 "/>
<polyline clip-path="url(#clip843)" style="stroke:#000000; stroke-linecap:round; stroke-linejoin:round; stroke-width:2; stroke-opacity:0.1; fill:none" points="1745.16,1035.39 1745.16,117.424 "/>
<polyline clip-path="url(#clip843)" style="stroke:#000000; stroke-linecap:round; stroke-linejoin:round; stroke-width:2; stroke-opacity:0.1; fill:none" points="1930.51,1035.39 1930.51,117.424 "/>
<polyline clip-path="url(#clip843)" style="stroke:#000000; stroke-linecap:round; stroke-linejoin:round; stroke-width:2; stroke-opacity:0.1; fill:none" points="1166.86,1035.39 1952.76,1035.39 "/>
<polyline clip-path="url(#clip843)" style="stroke:#000000; stroke-linecap:round; stroke-linejoin:round; stroke-width:2; stroke-opacity:0.1; fill:none" points="1166.86,805.897 1952.76,805.897 "/>
<polyline clip-path="url(#clip843)" style="stroke:#000000; stroke-linecap:round; stroke-linejoin:round; stroke-width:2; stroke-opacity:0.1; fill:none" points="1166.86,576.406 1952.76,576.406 "/>
<polyline clip-path="url(#clip843)" style="stroke:#000000; stroke-linecap:round; stroke-linejoin:round; stroke-width:2; stroke-opacity:0.1; fill:none" points="1166.86,346.915 1952.76,346.915 "/>
<polyline clip-path="url(#clip843)" style="stroke:#000000; stroke-linecap:round; stroke-linejoin:round; stroke-width:2; stroke-opacity:0.1; fill:none" points="1166.86,117.424 1952.76,117.424 "/>
<polyline clip-path="url(#clip840)" style="stroke:#000000; stroke-linecap:round; stroke-linejoin:round; stroke-width:4; stroke-opacity:1; fill:none" points="1166.86,1035.39 1952.76,1035.39 "/>
<polyline clip-path="url(#clip840)" style="stroke:#000000; stroke-linecap:round; stroke-linejoin:round; stroke-width:4; stroke-opacity:1; fill:none" points="1189.1,1035.39 1189.1,1016.49 "/>
<polyline clip-path="url(#clip840)" style="stroke:#000000; stroke-linecap:round; stroke-linejoin:round; stroke-width:4; stroke-opacity:1; fill:none" points="1374.45,1035.39 1374.45,1016.49 "/>
<polyline clip-path="url(#clip840)" style="stroke:#000000; stroke-linecap:round; stroke-linejoin:round; stroke-width:4; stroke-opacity:1; fill:none" points="1559.81,1035.39 1559.81,1016.49 "/>
<polyline clip-path="url(#clip840)" style="stroke:#000000; stroke-linecap:round; stroke-linejoin:round; stroke-width:4; stroke-opacity:1; fill:none" points="1745.16,1035.39 1745.16,1016.49 "/>
<polyline clip-path="url(#clip840)" style="stroke:#000000; stroke-linecap:round; stroke-linejoin:round; stroke-width:4; stroke-opacity:1; fill:none" points="1930.51,1035.39 1930.51,1016.49 "/>
<path clip-path="url(#clip840)" d="M1156.25 1090.65 L1163.89 1090.65 L1163.89 1064.29 L1155.58 1065.95 L1155.58 1061.69 L1163.85 1060.03 L1168.52 1060.03 L1168.52 1090.65 L1176.16 1090.65 L1176.16 1094.59 L1156.25 1094.59 L1156.25 1090.65 Z" fill="#000000" fill-rule="nonzero" fill-opacity="1" /><path clip-path="url(#clip840)" d="M1185.6 1088.71 L1190.49 1088.71 L1190.49 1094.59 L1185.6 1094.59 L1185.6 1088.71 Z" fill="#000000" fill-rule="nonzero" fill-opacity="1" /><path clip-path="url(#clip840)" d="M1210.67 1063.11 Q1207.06 1063.11 1205.23 1066.67 Q1203.43 1070.21 1203.43 1077.34 Q1203.43 1084.45 1205.23 1088.01 Q1207.06 1091.56 1210.67 1091.56 Q1214.31 1091.56 1216.11 1088.01 Q1217.94 1084.45 1217.94 1077.34 Q1217.94 1070.21 1216.11 1066.67 Q1214.31 1063.11 1210.67 1063.11 M1210.67 1059.4 Q1216.48 1059.4 1219.54 1064.01 Q1222.62 1068.59 1222.62 1077.34 Q1222.62 1086.07 1219.54 1090.68 Q1216.48 1095.26 1210.67 1095.26 Q1204.86 1095.26 1201.78 1090.68 Q1198.73 1086.07 1198.73 1077.34 Q1198.73 1068.59 1201.78 1064.01 Q1204.86 1059.4 1210.67 1059.4 Z" fill="#000000" fill-rule="nonzero" fill-opacity="1" /><path clip-path="url(#clip840)" d="M1342.1 1090.65 L1349.74 1090.65 L1349.74 1064.29 L1341.43 1065.95 L1341.43 1061.69 L1349.7 1060.03 L1354.37 1060.03 L1354.37 1090.65 L1362.01 1090.65 L1362.01 1094.59 L1342.1 1094.59 L1342.1 1090.65 Z" fill="#000000" fill-rule="nonzero" fill-opacity="1" /><path clip-path="url(#clip840)" d="M1371.46 1088.71 L1376.34 1088.71 L1376.34 1094.59 L1371.46 1094.59 L1371.46 1088.71 Z" fill="#000000" fill-rule="nonzero" fill-opacity="1" /><path clip-path="url(#clip840)" d="M1386.57 1060.03 L1404.93 1060.03 L1404.93 1063.96 L1390.85 1063.96 L1390.85 1072.44 Q1391.87 1072.09 1392.89 1071.93 Q1393.91 1071.74 1394.93 1071.74 Q1400.71 1071.74 1404.09 1074.91 Q1407.47 1078.08 1407.47 1083.5 Q1407.47 1089.08 1404 1092.18 Q1400.53 1095.26 1394.21 1095.26 Q1392.03 1095.26 1389.77 1094.89 Q1387.52 1094.52 1385.11 1093.78 L1385.11 1089.08 Q1387.2 1090.21 1389.42 1090.77 Q1391.64 1091.32 1394.12 1091.32 Q1398.12 1091.32 1400.46 1089.22 Q1402.8 1087.11 1402.8 1083.5 Q1402.8 1079.89 1400.46 1077.78 Q1398.12 1075.68 1394.12 1075.68 Q1392.24 1075.68 1390.37 1076.09 Q1388.52 1076.51 1386.57 1077.39 L1386.57 1060.03 Z" fill="#000000" fill-rule="nonzero" fill-opacity="1" /><path clip-path="url(#clip840)" d="M1531.05 1090.65 L1547.36 1090.65 L1547.36 1094.59 L1525.42 1094.59 L1525.42 1090.65 Q1528.08 1087.9 1532.67 1083.27 Q1537.27 1078.62 1538.45 1077.27 Q1540.7 1074.75 1541.58 1073.01 Q1542.48 1071.25 1542.48 1069.56 Q1542.48 1066.81 1540.54 1065.07 Q1538.61 1063.34 1535.51 1063.34 Q1533.31 1063.34 1530.86 1064.1 Q1528.43 1064.87 1525.65 1066.42 L1525.65 1061.69 Q1528.48 1060.56 1530.93 1059.98 Q1533.38 1059.4 1535.42 1059.4 Q1540.79 1059.4 1543.98 1062.09 Q1547.18 1064.77 1547.18 1069.26 Q1547.18 1071.39 1546.37 1073.31 Q1545.58 1075.21 1543.48 1077.81 Q1542.9 1078.48 1539.8 1081.69 Q1536.69 1084.89 1531.05 1090.65 Z" fill="#000000" fill-rule="nonzero" fill-opacity="1" /><path clip-path="url(#clip840)" d="M1557.18 1088.71 L1562.06 1088.71 L1562.06 1094.59 L1557.18 1094.59 L1557.18 1088.71 Z" fill="#000000" fill-rule="nonzero" fill-opacity="1" /><path clip-path="url(#clip840)" d="M1582.25 1063.11 Q1578.64 1063.11 1576.81 1066.67 Q1575 1070.21 1575 1077.34 Q1575 1084.45 1576.81 1088.01 Q1578.64 1091.56 1582.25 1091.56 Q1585.88 1091.56 1587.69 1088.01 Q1589.52 1084.45 1589.52 1077.34 Q1589.52 1070.21 1587.69 1066.67 Q1585.88 1063.11 1582.25 1063.11 M1582.25 1059.4 Q1588.06 1059.4 1591.11 1064.01 Q1594.19 1068.59 1594.19 1077.34 Q1594.19 1086.07 1591.11 1090.68 Q1588.06 1095.26 1582.25 1095.26 Q1576.44 1095.26 1573.36 1090.68 Q1570.3 1086.07 1570.3 1077.34 Q1570.3 1068.59 1573.36 1064.01 Q1576.44 1059.4 1582.25 1059.4 Z" fill="#000000" fill-rule="nonzero" fill-opacity="1" /><path clip-path="url(#clip840)" d="M1716.9 1090.65 L1733.22 1090.65 L1733.22 1094.59 L1711.27 1094.59 L1711.27 1090.65 Q1713.93 1087.9 1718.52 1083.27 Q1723.12 1078.62 1724.3 1077.27 Q1726.55 1074.75 1727.43 1073.01 Q1728.33 1071.25 1728.33 1069.56 Q1728.33 1066.81 1726.39 1065.07 Q1724.47 1063.34 1721.36 1063.34 Q1719.16 1063.34 1716.71 1064.1 Q1714.28 1064.87 1711.5 1066.42 L1711.5 1061.69 Q1714.33 1060.56 1716.78 1059.98 Q1719.23 1059.4 1721.27 1059.4 Q1726.64 1059.4 1729.84 1062.09 Q1733.03 1064.77 1733.03 1069.26 Q1733.03 1071.39 1732.22 1073.31 Q1731.43 1075.21 1729.33 1077.81 Q1728.75 1078.48 1725.65 1081.69 Q1722.54 1084.89 1716.9 1090.65 Z" fill="#000000" fill-rule="nonzero" fill-opacity="1" /><path clip-path="url(#clip840)" d="M1743.03 1088.71 L1747.91 1088.71 L1747.91 1094.59 L1743.03 1094.59 L1743.03 1088.71 Z" fill="#000000" fill-rule="nonzero" fill-opacity="1" /><path clip-path="url(#clip840)" d="M1758.15 1060.03 L1776.5 1060.03 L1776.5 1063.96 L1762.43 1063.96 L1762.43 1072.44 Q1763.45 1072.09 1764.47 1071.93 Q1765.48 1071.74 1766.5 1071.74 Q1772.29 1071.74 1775.67 1074.91 Q1779.05 1078.08 1779.05 1083.5 Q1779.05 1089.08 1775.58 1092.18 Q1772.1 1095.26 1765.78 1095.26 Q1763.61 1095.26 1761.34 1094.89 Q1759.1 1094.52 1756.69 1093.78 L1756.69 1089.08 Q1758.77 1090.21 1760.99 1090.77 Q1763.22 1091.32 1765.69 1091.32 Q1769.7 1091.32 1772.03 1089.22 Q1774.37 1087.11 1774.37 1083.5 Q1774.37 1079.89 1772.03 1077.78 Q1769.7 1075.68 1765.69 1075.68 Q1763.82 1075.68 1761.94 1076.09 Q1760.09 1076.51 1758.15 1077.39 L1758.15 1060.03 Z" fill="#000000" fill-rule="nonzero" fill-opacity="1" /><path clip-path="url(#clip840)" d="M1911.82 1075.95 Q1915.18 1076.67 1917.05 1078.94 Q1918.95 1081.21 1918.95 1084.54 Q1918.95 1089.66 1915.43 1092.46 Q1911.91 1095.26 1905.43 1095.26 Q1903.26 1095.26 1900.94 1094.82 Q1898.65 1094.4 1896.2 1093.55 L1896.2 1089.03 Q1898.14 1090.17 1900.46 1090.75 Q1902.77 1091.32 1905.29 1091.32 Q1909.69 1091.32 1911.98 1089.59 Q1914.3 1087.85 1914.3 1084.54 Q1914.3 1081.49 1912.15 1079.77 Q1910.02 1078.04 1906.2 1078.04 L1902.17 1078.04 L1902.17 1074.19 L1906.38 1074.19 Q1909.83 1074.19 1911.66 1072.83 Q1913.49 1071.44 1913.49 1068.85 Q1913.49 1066.19 1911.59 1064.77 Q1909.71 1063.34 1906.2 1063.34 Q1904.28 1063.34 1902.08 1063.75 Q1899.88 1064.17 1897.24 1065.05 L1897.24 1060.88 Q1899.9 1060.14 1902.22 1059.77 Q1904.55 1059.4 1906.61 1059.4 Q1911.94 1059.4 1915.04 1061.83 Q1918.14 1064.24 1918.14 1068.36 Q1918.14 1071.23 1916.5 1073.22 Q1914.85 1075.19 1911.82 1075.95 Z" fill="#000000" fill-rule="nonzero" fill-opacity="1" /><path clip-path="url(#clip840)" d="M1927.82 1088.71 L1932.7 1088.71 L1932.7 1094.59 L1927.82 1094.59 L1927.82 1088.71 Z" fill="#000000" fill-rule="nonzero" fill-opacity="1" /><path clip-path="url(#clip840)" d="M1952.89 1063.11 Q1949.27 1063.11 1947.45 1066.67 Q1945.64 1070.21 1945.64 1077.34 Q1945.64 1084.45 1947.45 1088.01 Q1949.27 1091.56 1952.89 1091.56 Q1956.52 1091.56 1958.33 1088.01 Q1960.15 1084.45 1960.15 1077.34 Q1960.15 1070.21 1958.33 1066.67 Q1956.52 1063.11 1952.89 1063.11 M1952.89 1059.4 Q1958.7 1059.4 1961.75 1064.01 Q1964.83 1068.59 1964.83 1077.34 Q1964.83 1086.07 1961.75 1090.68 Q1958.7 1095.26 1952.89 1095.26 Q1947.08 1095.26 1944 1090.68 Q1940.94 1086.07 1940.94 1077.34 Q1940.94 1068.59 1944 1064.01 Q1947.08 1059.4 1952.89 1059.4 Z" fill="#000000" fill-rule="nonzero" fill-opacity="1" /><path clip-path="url(#clip840)" d="M1500.1 1128.29 L1500.1 1134.56 Q1496.44 1132.81 1493.19 1131.95 Q1489.94 1131.09 1486.92 1131.09 Q1481.67 1131.09 1478.8 1133.13 Q1475.97 1135.17 1475.97 1138.92 Q1475.97 1142.07 1477.85 1143.7 Q1479.76 1145.29 1485.04 1146.27 L1488.92 1147.07 Q1496.12 1148.44 1499.52 1151.91 Q1502.96 1155.35 1502.96 1161.14 Q1502.96 1168.05 1498.31 1171.61 Q1493.7 1175.17 1484.75 1175.17 Q1481.38 1175.17 1477.56 1174.41 Q1473.77 1173.65 1469.7 1172.15 L1469.7 1165.53 Q1473.61 1167.73 1477.37 1168.84 Q1481.13 1169.95 1484.75 1169.95 Q1490.26 1169.95 1493.25 1167.79 Q1496.25 1165.63 1496.25 1161.62 Q1496.25 1158.11 1494.08 1156.14 Q1491.95 1154.17 1487.05 1153.18 L1483.13 1152.42 Q1475.94 1150.99 1472.72 1147.93 Q1469.51 1144.87 1469.51 1139.43 Q1469.51 1133.13 1473.93 1129.5 Q1478.39 1125.87 1486.19 1125.87 Q1489.53 1125.87 1493 1126.48 Q1496.47 1127.08 1500.1 1128.29 Z" fill="#000000" fill-rule="nonzero" fill-opacity="1" /><path clip-path="url(#clip840)" d="M1518.53 1128.48 L1518.53 1138.6 L1530.59 1138.6 L1530.59 1143.16 L1518.53 1143.16 L1518.53 1162.51 Q1518.53 1166.87 1519.7 1168.11 Q1520.91 1169.35 1524.57 1169.35 L1530.59 1169.35 L1530.59 1174.25 L1524.57 1174.25 Q1517.79 1174.25 1515.21 1171.74 Q1512.64 1169.19 1512.64 1162.51 L1512.64 1143.16 L1508.34 1143.16 L1508.34 1138.6 L1512.64 1138.6 L1512.64 1128.48 L1518.53 1128.48 Z" fill="#000000" fill-rule="nonzero" fill-opacity="1" /><path clip-path="url(#clip840)" d="M1554.49 1156.33 Q1547.39 1156.33 1544.66 1157.96 Q1541.92 1159.58 1541.92 1163.49 Q1541.92 1166.61 1543.96 1168.46 Q1546.02 1170.27 1549.56 1170.27 Q1554.43 1170.27 1557.36 1166.84 Q1560.32 1163.37 1560.32 1157.64 L1560.32 1156.33 L1554.49 1156.33 M1566.17 1153.91 L1566.17 1174.25 L1560.32 1174.25 L1560.32 1168.84 Q1558.31 1172.09 1555.32 1173.65 Q1552.33 1175.17 1548 1175.17 Q1542.52 1175.17 1539.28 1172.12 Q1536.06 1169.03 1536.06 1163.88 Q1536.06 1157.86 1540.07 1154.8 Q1544.12 1151.75 1552.1 1151.75 L1560.32 1151.75 L1560.32 1151.18 Q1560.32 1147.13 1557.64 1144.94 Q1555 1142.71 1550.19 1142.71 Q1547.14 1142.71 1544.24 1143.44 Q1541.35 1144.17 1538.67 1145.64 L1538.67 1140.23 Q1541.89 1138.99 1544.91 1138.38 Q1547.93 1137.74 1550.8 1137.74 Q1558.53 1137.74 1562.35 1141.75 Q1566.17 1145.77 1566.17 1153.91 Z" fill="#000000" fill-rule="nonzero" fill-opacity="1" /><path clip-path="url(#clip840)" d="M1601.69 1156.01 Q1601.69 1149.65 1599.05 1146.15 Q1596.44 1142.65 1591.7 1142.65 Q1586.99 1142.65 1584.35 1146.15 Q1581.74 1149.65 1581.74 1156.01 Q1581.74 1162.35 1584.35 1165.85 Q1586.99 1169.35 1591.7 1169.35 Q1596.44 1169.35 1599.05 1165.85 Q1601.69 1162.35 1601.69 1156.01 M1607.55 1169.83 Q1607.55 1178.93 1603.51 1183.35 Q1599.47 1187.81 1591.13 1187.81 Q1588.04 1187.81 1585.3 1187.33 Q1582.56 1186.89 1579.99 1185.93 L1579.99 1180.24 Q1582.56 1181.64 1585.08 1182.3 Q1587.59 1182.97 1590.2 1182.97 Q1595.96 1182.97 1598.83 1179.95 Q1601.69 1176.96 1601.69 1170.88 L1601.69 1167.98 Q1599.88 1171.13 1597.05 1172.69 Q1594.21 1174.25 1590.27 1174.25 Q1583.71 1174.25 1579.7 1169.25 Q1575.69 1164.26 1575.69 1156.01 Q1575.69 1147.74 1579.7 1142.74 Q1583.71 1137.74 1590.27 1137.74 Q1594.21 1137.74 1597.05 1139.3 Q1599.88 1140.86 1601.69 1144.01 L1601.69 1138.6 L1607.55 1138.6 L1607.55 1169.83 Z" fill="#000000" fill-rule="nonzero" fill-opacity="1" /><path clip-path="url(#clip840)" d="M1650.1 1154.96 L1650.1 1157.83 L1623.18 1157.83 Q1623.56 1163.88 1626.81 1167.06 Q1630.08 1170.21 1635.91 1170.21 Q1639.28 1170.21 1642.43 1169.38 Q1645.62 1168.55 1648.74 1166.9 L1648.74 1172.44 Q1645.58 1173.77 1642.27 1174.47 Q1638.96 1175.17 1635.56 1175.17 Q1627.03 1175.17 1622.03 1170.21 Q1617.07 1165.24 1617.07 1156.78 Q1617.07 1148.03 1621.78 1142.9 Q1626.52 1137.74 1634.54 1137.74 Q1641.73 1137.74 1645.9 1142.39 Q1650.1 1147.01 1650.1 1154.96 M1644.25 1153.25 Q1644.18 1148.44 1641.54 1145.57 Q1638.93 1142.71 1634.6 1142.71 Q1629.7 1142.71 1626.74 1145.48 Q1623.81 1148.25 1623.37 1153.28 L1644.25 1153.25 Z" fill="#000000" fill-rule="nonzero" fill-opacity="1" /><polyline clip-path="url(#clip840)" style="stroke:#000000; stroke-linecap:round; stroke-linejoin:round; stroke-width:4; stroke-opacity:1; fill:none" points="1166.86,1035.39 1166.86,117.424 "/>
<polyline clip-path="url(#clip840)" style="stroke:#000000; stroke-linecap:round; stroke-linejoin:round; stroke-width:4; stroke-opacity:1; fill:none" points="1166.86,1035.39 1185.76,1035.39 "/>
<polyline clip-path="url(#clip840)" style="stroke:#000000; stroke-linecap:round; stroke-linejoin:round; stroke-width:4; stroke-opacity:1; fill:none" points="1166.86,805.897 1185.76,805.897 "/>
<polyline clip-path="url(#clip840)" style="stroke:#000000; stroke-linecap:round; stroke-linejoin:round; stroke-width:4; stroke-opacity:1; fill:none" points="1166.86,576.406 1185.76,576.406 "/>
<polyline clip-path="url(#clip840)" style="stroke:#000000; stroke-linecap:round; stroke-linejoin:round; stroke-width:4; stroke-opacity:1; fill:none" points="1166.86,346.915 1185.76,346.915 "/>
<polyline clip-path="url(#clip840)" style="stroke:#000000; stroke-linecap:round; stroke-linejoin:round; stroke-width:4; stroke-opacity:1; fill:none" points="1166.86,117.424 1185.76,117.424 "/>
<path clip-path="url(#clip840)" d="M1124.91 1021.19 Q1121.3 1021.19 1119.47 1024.75 Q1117.67 1028.29 1117.67 1035.42 Q1117.67 1042.53 1119.47 1046.09 Q1121.3 1049.64 1124.91 1049.64 Q1128.55 1049.64 1130.35 1046.09 Q1132.18 1042.53 1132.18 1035.42 Q1132.18 1028.29 1130.35 1024.75 Q1128.55 1021.19 1124.91 1021.19 M1124.91 1017.48 Q1130.72 1017.48 1133.78 1022.09 Q1136.86 1026.67 1136.86 1035.42 Q1136.86 1044.15 1133.78 1048.76 Q1130.72 1053.34 1124.91 1053.34 Q1119.1 1053.34 1116.02 1048.76 Q1112.97 1044.15 1112.97 1035.42 Q1112.97 1026.67 1116.02 1022.09 Q1119.1 1017.48 1124.91 1017.48 Z" fill="#000000" fill-rule="nonzero" fill-opacity="1" /><path clip-path="url(#clip840)" d="M1084.8 788.617 L1103.15 788.617 L1103.15 792.552 L1089.08 792.552 L1089.08 801.024 Q1090.1 800.677 1091.12 800.515 Q1092.14 800.33 1093.15 800.33 Q1098.94 800.33 1102.32 803.501 Q1105.7 806.672 1105.7 812.089 Q1105.7 817.668 1102.23 820.77 Q1098.76 823.848 1092.44 823.848 Q1090.26 823.848 1087.99 823.478 Q1085.75 823.107 1083.34 822.367 L1083.34 817.668 Q1085.42 818.802 1087.64 819.357 Q1089.87 819.913 1092.34 819.913 Q1096.35 819.913 1098.69 817.807 Q1101.02 815.7 1101.02 812.089 Q1101.02 808.478 1098.69 806.371 Q1096.35 804.265 1092.34 804.265 Q1090.47 804.265 1088.59 804.682 Q1086.74 805.098 1084.8 805.978 L1084.8 788.617 Z" fill="#000000" fill-rule="nonzero" fill-opacity="1" /><path clip-path="url(#clip840)" d="M1124.91 791.696 Q1121.3 791.696 1119.47 795.26 Q1117.67 798.802 1117.67 805.932 Q1117.67 813.038 1119.47 816.603 Q1121.3 820.145 1124.91 820.145 Q1128.55 820.145 1130.35 816.603 Q1132.18 813.038 1132.18 805.932 Q1132.18 798.802 1130.35 795.26 Q1128.55 791.696 1124.91 791.696 M1124.91 787.992 Q1130.72 787.992 1133.78 792.598 Q1136.86 797.182 1136.86 805.932 Q1136.86 814.658 1133.78 819.265 Q1130.72 823.848 1124.91 823.848 Q1119.1 823.848 1116.02 819.265 Q1112.97 814.658 1112.97 805.932 Q1112.97 797.182 1116.02 792.598 Q1119.1 787.992 1124.91 787.992 Z" fill="#000000" fill-rule="nonzero" fill-opacity="1" /><path clip-path="url(#clip840)" d="M1055.4 589.751 L1063.04 589.751 L1063.04 563.385 L1054.73 565.052 L1054.73 560.793 L1062.99 559.126 L1067.67 559.126 L1067.67 589.751 L1075.31 589.751 L1075.31 593.686 L1055.4 593.686 L1055.4 589.751 Z" fill="#000000" fill-rule="nonzero" fill-opacity="1" /><path clip-path="url(#clip840)" d="M1094.75 562.205 Q1091.14 562.205 1089.31 565.769 Q1087.51 569.311 1087.51 576.441 Q1087.51 583.547 1089.31 587.112 Q1091.14 590.654 1094.75 590.654 Q1098.39 590.654 1100.19 587.112 Q1102.02 583.547 1102.02 576.441 Q1102.02 569.311 1100.19 565.769 Q1098.39 562.205 1094.75 562.205 M1094.75 558.501 Q1100.56 558.501 1103.62 563.107 Q1106.7 567.691 1106.7 576.441 Q1106.7 585.168 1103.62 589.774 Q1100.56 594.357 1094.75 594.357 Q1088.94 594.357 1085.86 589.774 Q1082.81 585.168 1082.81 576.441 Q1082.81 567.691 1085.86 563.107 Q1088.94 558.501 1094.75 558.501 Z" fill="#000000" fill-rule="nonzero" fill-opacity="1" /><path clip-path="url(#clip840)" d="M1124.91 562.205 Q1121.3 562.205 1119.47 565.769 Q1117.67 569.311 1117.67 576.441 Q1117.67 583.547 1119.47 587.112 Q1121.3 590.654 1124.91 590.654 Q1128.55 590.654 1130.35 587.112 Q1132.18 583.547 1132.18 576.441 Q1132.18 569.311 1130.35 565.769 Q1128.55 562.205 1124.91 562.205 M1124.91 558.501 Q1130.72 558.501 1133.78 563.107 Q1136.86 567.691 1136.86 576.441 Q1136.86 585.168 1133.78 589.774 Q1130.72 594.357 1124.91 594.357 Q1119.1 594.357 1116.02 589.774 Q1112.97 585.168 1112.97 576.441 Q1112.97 567.691 1116.02 563.107 Q1119.1 558.501 1124.91 558.501 Z" fill="#000000" fill-rule="nonzero" fill-opacity="1" /><path clip-path="url(#clip840)" d="M1055.4 360.26 L1063.04 360.26 L1063.04 333.894 L1054.73 335.561 L1054.73 331.302 L1062.99 329.635 L1067.67 329.635 L1067.67 360.26 L1075.31 360.26 L1075.31 364.195 L1055.4 364.195 L1055.4 360.26 Z" fill="#000000" fill-rule="nonzero" fill-opacity="1" /><path clip-path="url(#clip840)" d="M1084.8 329.635 L1103.15 329.635 L1103.15 333.57 L1089.08 333.57 L1089.08 342.042 Q1090.1 341.695 1091.12 341.533 Q1092.14 341.348 1093.15 341.348 Q1098.94 341.348 1102.32 344.519 Q1105.7 347.691 1105.7 353.107 Q1105.7 358.686 1102.23 361.788 Q1098.76 364.866 1092.44 364.866 Q1090.26 364.866 1087.99 364.496 Q1085.75 364.126 1083.34 363.385 L1083.34 358.686 Q1085.42 359.82 1087.64 360.376 Q1089.87 360.931 1092.34 360.931 Q1096.35 360.931 1098.69 358.825 Q1101.02 356.718 1101.02 353.107 Q1101.02 349.496 1098.69 347.39 Q1096.35 345.283 1092.34 345.283 Q1090.47 345.283 1088.59 345.7 Q1086.74 346.116 1084.8 346.996 L1084.8 329.635 Z" fill="#000000" fill-rule="nonzero" fill-opacity="1" /><path clip-path="url(#clip840)" d="M1124.91 332.714 Q1121.3 332.714 1119.47 336.279 Q1117.67 339.82 1117.67 346.95 Q1117.67 354.056 1119.47 357.621 Q1121.3 361.163 1124.91 361.163 Q1128.55 361.163 1130.35 357.621 Q1132.18 354.056 1132.18 346.95 Q1132.18 339.82 1130.35 336.279 Q1128.55 332.714 1124.91 332.714 M1124.91 329.01 Q1130.72 329.01 1133.78 333.617 Q1136.86 338.2 1136.86 346.95 Q1136.86 355.677 1133.78 360.283 Q1130.72 364.866 1124.91 364.866 Q1119.1 364.866 1116.02 360.283 Q1112.97 355.677 1112.97 346.95 Q1112.97 338.2 1116.02 333.617 Q1119.1 329.01 1124.91 329.01 Z" fill="#000000" fill-rule="nonzero" fill-opacity="1" /><path clip-path="url(#clip840)" d="M1058.62 130.769 L1074.94 130.769 L1074.94 134.704 L1052.99 134.704 L1052.99 130.769 Q1055.65 128.014 1060.24 123.385 Q1064.84 118.732 1066.02 117.389 Q1068.27 114.866 1069.15 113.13 Q1070.05 111.371 1070.05 109.681 Q1070.05 106.926 1068.11 105.19 Q1066.19 103.454 1063.08 103.454 Q1060.89 103.454 1058.43 104.218 Q1056 104.982 1053.22 106.533 L1053.22 101.811 Q1056.05 100.677 1058.5 100.098 Q1060.96 99.5191 1062.99 99.5191 Q1068.36 99.5191 1071.56 102.204 Q1074.75 104.889 1074.75 109.38 Q1074.75 111.51 1073.94 113.431 Q1073.15 115.329 1071.05 117.922 Q1070.47 118.593 1067.37 121.811 Q1064.27 125.005 1058.62 130.769 Z" fill="#000000" fill-rule="nonzero" fill-opacity="1" /><path clip-path="url(#clip840)" d="M1094.75 103.223 Q1091.14 103.223 1089.31 106.788 Q1087.51 110.329 1087.51 117.459 Q1087.51 124.565 1089.31 128.13 Q1091.14 131.672 1094.75 131.672 Q1098.39 131.672 1100.19 128.13 Q1102.02 124.565 1102.02 117.459 Q1102.02 110.329 1100.19 106.788 Q1098.39 103.223 1094.75 103.223 M1094.75 99.5191 Q1100.56 99.5191 1103.62 104.126 Q1106.7 108.709 1106.7 117.459 Q1106.7 126.186 1103.62 130.792 Q1100.56 135.375 1094.75 135.375 Q1088.94 135.375 1085.86 130.792 Q1082.81 126.186 1082.81 117.459 Q1082.81 108.709 1085.86 104.126 Q1088.94 99.5191 1094.75 99.5191 Z" fill="#000000" fill-rule="nonzero" fill-opacity="1" /><path clip-path="url(#clip840)" d="M1124.91 103.223 Q1121.3 103.223 1119.47 106.788 Q1117.67 110.329 1117.67 117.459 Q1117.67 124.565 1119.47 128.13 Q1121.3 131.672 1124.91 131.672 Q1128.55 131.672 1130.35 128.13 Q1132.18 124.565 1132.18 117.459 Q1132.18 110.329 1130.35 106.788 Q1128.55 103.223 1124.91 103.223 M1124.91 99.5191 Q1130.72 99.5191 1133.78 104.126 Q1136.86 108.709 1136.86 117.459 Q1136.86 126.186 1133.78 130.792 Q1130.72 135.375 1124.91 135.375 Q1119.1 135.375 1116.02 130.792 Q1112.97 126.186 1112.97 117.459 Q1112.97 108.709 1116.02 104.126 Q1119.1 99.5191 1124.91 99.5191 Z" fill="#000000" fill-rule="nonzero" fill-opacity="1" /><path clip-path="url(#clip840)" d="M1153.6 12.096 L1204.77 12.096 L1204.77 18.9825 L1183.3 18.9825 L1183.3 72.576 L1175.07 72.576 L1175.07 18.9825 L1153.6 18.9825 L1153.6 12.096 Z" fill="#000000" fill-rule="nonzero" fill-opacity="1" /><path clip-path="url(#clip840)" d="M1250.05 45.1919 L1250.05 72.576 L1242.6 72.576 L1242.6 45.4349 Q1242.6 38.994 1240.09 35.7938 Q1237.58 32.5936 1232.55 32.5936 Q1226.52 32.5936 1223.03 36.4419 Q1219.55 40.2903 1219.55 46.9338 L1219.55 72.576 L1212.06 72.576 L1212.06 9.54393 L1219.55 9.54393 L1219.55 34.2544 Q1222.22 30.163 1225.83 28.1376 Q1229.48 26.1121 1234.22 26.1121 Q1242.03 26.1121 1246.04 30.9732 Q1250.05 35.7938 1250.05 45.1919 Z" fill="#000000" fill-rule="nonzero" fill-opacity="1" /><path clip-path="url(#clip840)" d="M1303.73 48.0275 L1303.73 51.6733 L1269.46 51.6733 Q1269.94 59.3701 1274.08 63.421 Q1278.25 67.4314 1285.66 67.4314 Q1289.96 67.4314 1293.97 66.3781 Q1298.02 65.3249 1301.99 63.2184 L1301.99 70.267 Q1297.98 71.9684 1293.76 72.8596 Q1289.55 73.7508 1285.22 73.7508 Q1274.36 73.7508 1268 67.4314 Q1261.68 61.1119 1261.68 50.3365 Q1261.68 39.1965 1267.68 32.6746 Q1273.71 26.1121 1283.92 26.1121 Q1293.07 26.1121 1298.38 32.0264 Q1303.73 37.9003 1303.73 48.0275 M1296.28 45.84 Q1296.19 39.7232 1292.83 36.0774 Q1289.51 32.4315 1284 32.4315 Q1277.76 32.4315 1274 35.9558 Q1270.27 39.4801 1269.7 45.8805 L1296.28 45.84 Z" fill="#000000" fill-rule="nonzero" fill-opacity="1" /><path clip-path="url(#clip840)" d="M1342.25 34.1734 Q1341 33.4443 1339.5 33.1202 Q1338.04 32.7556 1336.26 32.7556 Q1329.94 32.7556 1326.54 36.8875 Q1323.17 40.9789 1323.17 48.6757 L1323.17 72.576 L1315.68 72.576 L1315.68 27.2059 L1323.17 27.2059 L1323.17 34.2544 Q1325.52 30.1225 1329.29 28.1376 Q1333.06 26.1121 1338.45 26.1121 Q1339.21 26.1121 1340.15 26.2337 Q1341.08 26.3147 1342.21 26.5172 L1342.25 34.1734 Z" fill="#000000" fill-rule="nonzero" fill-opacity="1" /><path clip-path="url(#clip840)" d="M1383.94 35.9153 Q1386.73 30.8922 1390.62 28.5022 Q1394.51 26.1121 1399.78 26.1121 Q1406.86 26.1121 1410.71 31.0947 Q1414.56 36.0368 1414.56 45.1919 L1414.56 72.576 L1407.07 72.576 L1407.07 45.4349 Q1407.07 38.913 1404.76 35.7533 Q1402.45 32.5936 1397.71 32.5936 Q1391.92 32.5936 1388.55 36.4419 Q1385.19 40.2903 1385.19 46.9338 L1385.19 72.576 L1377.7 72.576 L1377.7 45.4349 Q1377.7 38.8725 1375.39 35.7533 Q1373.08 32.5936 1368.26 32.5936 Q1362.55 32.5936 1359.19 36.4824 Q1355.82 40.3308 1355.82 46.9338 L1355.82 72.576 L1348.33 72.576 L1348.33 27.2059 L1355.82 27.2059 L1355.82 34.2544 Q1358.38 30.082 1361.94 28.0971 Q1365.51 26.1121 1370.41 26.1121 Q1375.35 26.1121 1378.79 28.6237 Q1382.28 31.1352 1383.94 35.9153 Z" fill="#000000" fill-rule="nonzero" fill-opacity="1" /><path clip-path="url(#clip840)" d="M1450.05 49.7694 Q1441.01 49.7694 1437.53 51.8354 Q1434.05 53.9013 1434.05 58.8839 Q1434.05 62.8538 1436.64 65.2034 Q1439.27 67.5124 1443.77 67.5124 Q1449.97 67.5124 1453.69 63.1374 Q1457.46 58.7219 1457.46 51.4303 L1457.46 49.7694 L1450.05 49.7694 M1464.91 46.6907 L1464.91 72.576 L1457.46 72.576 L1457.46 65.6895 Q1454.91 69.8214 1451.1 71.8063 Q1447.29 73.7508 1441.78 73.7508 Q1434.82 73.7508 1430.68 69.8619 Q1426.59 65.9325 1426.59 59.3701 Q1426.59 51.7138 1431.7 47.825 Q1436.84 43.9361 1447.01 43.9361 L1457.46 43.9361 L1457.46 43.2069 Q1457.46 38.0623 1454.06 35.2672 Q1450.7 32.4315 1444.58 32.4315 Q1440.69 32.4315 1437 33.3632 Q1433.32 34.295 1429.91 36.1584 L1429.91 29.2718 Q1434.01 27.692 1437.85 26.9223 Q1441.7 26.1121 1445.35 26.1121 Q1455.19 26.1121 1460.05 31.2163 Q1464.91 36.3204 1464.91 46.6907 Z" fill="#000000" fill-rule="nonzero" fill-opacity="1" /><path clip-path="url(#clip840)" d="M1480.27 9.54393 L1487.72 9.54393 L1487.72 72.576 L1480.27 72.576 L1480.27 9.54393 Z" fill="#000000" fill-rule="nonzero" fill-opacity="1" /><path clip-path="url(#clip840)" d="M1559.54 49.3643 Q1559.54 41.2625 1556.18 36.8065 Q1552.86 32.3505 1546.82 32.3505 Q1540.83 32.3505 1537.47 36.8065 Q1534.14 41.2625 1534.14 49.3643 Q1534.14 57.4256 1537.47 61.8816 Q1540.83 66.3376 1546.82 66.3376 Q1552.86 66.3376 1556.18 61.8816 Q1559.54 57.4256 1559.54 49.3643 M1567 66.9452 Q1567 78.5308 1561.85 84.1616 Q1556.71 89.8329 1546.09 89.8329 Q1542.16 89.8329 1538.68 89.2252 Q1535.2 88.6581 1531.92 87.4428 L1531.92 80.1917 Q1535.2 81.9741 1538.4 82.8248 Q1541.6 83.6755 1544.92 83.6755 Q1552.25 83.6755 1555.9 79.8271 Q1559.54 76.0193 1559.54 68.282 L1559.54 64.5957 Q1557.23 68.6061 1553.63 70.5911 Q1550.02 72.576 1545 72.576 Q1536.66 72.576 1531.55 66.2161 Q1526.45 59.8562 1526.45 49.3643 Q1526.45 38.832 1531.55 32.472 Q1536.66 26.1121 1545 26.1121 Q1550.02 26.1121 1553.63 28.0971 Q1557.23 30.082 1559.54 34.0924 L1559.54 27.2059 L1567 27.2059 L1567 66.9452 Z" fill="#000000" fill-rule="nonzero" fill-opacity="1" /><path clip-path="url(#clip840)" d="M1621.16 48.0275 L1621.16 51.6733 L1586.89 51.6733 Q1587.37 59.3701 1591.5 63.421 Q1595.68 67.4314 1603.09 67.4314 Q1607.38 67.4314 1611.39 66.3781 Q1615.45 65.3249 1619.42 63.2184 L1619.42 70.267 Q1615.41 71.9684 1611.19 72.8596 Q1606.98 73.7508 1602.64 73.7508 Q1591.79 73.7508 1585.43 67.4314 Q1579.11 61.1119 1579.11 50.3365 Q1579.11 39.1965 1585.1 32.6746 Q1591.14 26.1121 1601.35 26.1121 Q1610.5 26.1121 1615.81 32.0264 Q1621.16 37.9003 1621.16 48.0275 M1613.7 45.84 Q1613.62 39.7232 1610.26 36.0774 Q1606.94 32.4315 1601.43 32.4315 Q1595.19 32.4315 1591.42 35.9558 Q1587.7 39.4801 1587.13 45.8805 L1613.7 45.84 Z" fill="#000000" fill-rule="nonzero" fill-opacity="1" /><path clip-path="url(#clip840)" d="M1671.11 45.1919 L1671.11 72.576 L1663.65 72.576 L1663.65 45.4349 Q1663.65 38.994 1661.14 35.7938 Q1658.63 32.5936 1653.61 32.5936 Q1647.57 32.5936 1644.09 36.4419 Q1640.6 40.2903 1640.6 46.9338 L1640.6 72.576 L1633.11 72.576 L1633.11 27.2059 L1640.6 27.2059 L1640.6 34.2544 Q1643.28 30.163 1646.88 28.1376 Q1650.53 26.1121 1655.27 26.1121 Q1663.08 26.1121 1667.09 30.9732 Q1671.11 35.7938 1671.11 45.1919 Z" fill="#000000" fill-rule="nonzero" fill-opacity="1" /><path clip-path="url(#clip840)" d="M1724.78 48.0275 L1724.78 51.6733 L1690.51 51.6733 Q1691 59.3701 1695.13 63.421 Q1699.3 67.4314 1706.71 67.4314 Q1711.01 67.4314 1715.02 66.3781 Q1719.07 65.3249 1723.04 63.2184 L1723.04 70.267 Q1719.03 71.9684 1714.81 72.8596 Q1710.6 73.7508 1706.27 73.7508 Q1695.41 73.7508 1689.05 67.4314 Q1682.73 61.1119 1682.73 50.3365 Q1682.73 39.1965 1688.73 32.6746 Q1694.76 26.1121 1704.97 26.1121 Q1714.13 26.1121 1719.43 32.0264 Q1724.78 37.9003 1724.78 48.0275 M1717.33 45.84 Q1717.25 39.7232 1713.88 36.0774 Q1710.56 32.4315 1705.05 32.4315 Q1698.81 32.4315 1695.05 35.9558 Q1691.32 39.4801 1690.75 45.8805 L1717.33 45.84 Z" fill="#000000" fill-rule="nonzero" fill-opacity="1" /><path clip-path="url(#clip840)" d="M1763.3 34.1734 Q1762.05 33.4443 1760.55 33.1202 Q1759.09 32.7556 1757.31 32.7556 Q1750.99 32.7556 1747.59 36.8875 Q1744.22 40.9789 1744.22 48.6757 L1744.22 72.576 L1736.73 72.576 L1736.73 27.2059 L1744.22 27.2059 L1744.22 34.2544 Q1746.57 30.1225 1750.34 28.1376 Q1754.11 26.1121 1759.5 26.1121 Q1760.27 26.1121 1761.2 26.2337 Q1762.13 26.3147 1763.26 26.5172 L1763.3 34.1734 Z" fill="#000000" fill-rule="nonzero" fill-opacity="1" /><path clip-path="url(#clip840)" d="M1791.74 49.7694 Q1782.71 49.7694 1779.22 51.8354 Q1775.74 53.9013 1775.74 58.8839 Q1775.74 62.8538 1778.33 65.2034 Q1780.97 67.5124 1785.46 67.5124 Q1791.66 67.5124 1795.39 63.1374 Q1799.15 58.7219 1799.15 51.4303 L1799.15 49.7694 L1791.74 49.7694 M1806.61 46.6907 L1806.61 72.576 L1799.15 72.576 L1799.15 65.6895 Q1796.6 69.8214 1792.79 71.8063 Q1788.99 73.7508 1783.48 73.7508 Q1776.51 73.7508 1772.38 69.8619 Q1768.29 65.9325 1768.29 59.3701 Q1768.29 51.7138 1773.39 47.825 Q1778.54 43.9361 1788.7 43.9361 L1799.15 43.9361 L1799.15 43.2069 Q1799.15 38.0623 1795.75 35.2672 Q1792.39 32.4315 1786.27 32.4315 Q1782.38 32.4315 1778.7 33.3632 Q1775.01 34.295 1771.61 36.1584 L1771.61 29.2718 Q1775.7 27.692 1779.55 26.9223 Q1783.4 26.1121 1787.04 26.1121 Q1796.89 26.1121 1801.75 31.2163 Q1806.61 36.3204 1806.61 46.6907 Z" fill="#000000" fill-rule="nonzero" fill-opacity="1" /><path clip-path="url(#clip840)" d="M1829.33 14.324 L1829.33 27.2059 L1844.69 27.2059 L1844.69 32.9987 L1829.33 32.9987 L1829.33 57.6282 Q1829.33 63.1779 1830.83 64.7578 Q1832.37 66.3376 1837.03 66.3376 L1844.69 66.3376 L1844.69 72.576 L1837.03 72.576 Q1828.4 72.576 1825.12 69.3758 Q1821.84 66.1351 1821.84 57.6282 L1821.84 32.9987 L1816.37 32.9987 L1816.37 27.2059 L1821.84 27.2059 L1821.84 14.324 L1829.33 14.324 Z" fill="#000000" fill-rule="nonzero" fill-opacity="1" /><path clip-path="url(#clip840)" d="M1854.49 27.2059 L1861.94 27.2059 L1861.94 72.576 L1854.49 72.576 L1854.49 27.2059 M1854.49 9.54393 L1861.94 9.54393 L1861.94 18.9825 L1854.49 18.9825 L1854.49 9.54393 Z" fill="#000000" fill-rule="nonzero" fill-opacity="1" /><path clip-path="url(#clip840)" d="M1895.12 32.4315 Q1889.12 32.4315 1885.64 37.1306 Q1882.16 41.7891 1882.16 49.9314 Q1882.16 58.0738 1885.6 62.7728 Q1889.08 67.4314 1895.12 67.4314 Q1901.08 67.4314 1904.56 62.7323 Q1908.04 58.0333 1908.04 49.9314 Q1908.04 41.8701 1904.56 37.1711 Q1901.08 32.4315 1895.12 32.4315 M1895.12 26.1121 Q1904.84 26.1121 1910.39 32.4315 Q1915.94 38.7509 1915.94 49.9314 Q1915.94 61.0714 1910.39 67.4314 Q1904.84 73.7508 1895.12 73.7508 Q1885.36 73.7508 1879.81 67.4314 Q1874.3 61.0714 1874.3 49.9314 Q1874.3 38.7509 1879.81 32.4315 Q1885.36 26.1121 1895.12 26.1121 Z" fill="#000000" fill-rule="nonzero" fill-opacity="1" /><path clip-path="url(#clip840)" d="M1966.01 45.1919 L1966.01 72.576 L1958.56 72.576 L1958.56 45.4349 Q1958.56 38.994 1956.05 35.7938 Q1953.53 32.5936 1948.51 32.5936 Q1942.48 32.5936 1938.99 36.4419 Q1935.51 40.2903 1935.51 46.9338 L1935.51 72.576 L1928.01 72.576 L1928.01 27.2059 L1935.51 27.2059 L1935.51 34.2544 Q1938.18 30.163 1941.79 28.1376 Q1945.43 26.1121 1950.17 26.1121 Q1957.99 26.1121 1962 30.9732 Q1966.01 35.7938 1966.01 45.1919 Z" fill="#000000" fill-rule="nonzero" fill-opacity="1" /><path clip-path="url(#clip843)" d="M1189.1 805.897 L1559.81 1035.39 L1930.51 1035.39 L1930.51 576.406 L1559.81 1035.39 L1189.1 346.915  Z" fill="#00467f" fill-rule="evenodd" fill-opacity="0.2"/>
<polyline clip-path="url(#clip843)" style="stroke:#00467f; stroke-linecap:round; stroke-linejoin:round; stroke-width:4; stroke-opacity:0; fill:none" points="1189.1,576.406 1559.81,1035.39 1930.51,805.897 "/>
<path clip-path="url(#clip843)" d="M1189.1 805.897 L1559.81 1035.39 L1930.51 1035.39 L1930.51 805.897 L1559.81 1035.39 L1189.1 346.915  Z" fill="#00467f" fill-rule="evenodd" fill-opacity="0.2"/>
<polyline clip-path="url(#clip843)" style="stroke:#00467f; stroke-linecap:round; stroke-linejoin:round; stroke-width:4; stroke-opacity:0; fill:none" points="1189.1,576.406 1559.81,1035.39 1930.51,920.642 "/>
<path clip-path="url(#clip843)" d="M1189.1 805.897 L1559.81 1035.39 L1930.51 1035.39 L1930.51 805.897 L1559.81 1035.39 L1189.1 576.406  Z" fill="#00467f" fill-rule="evenodd" fill-opacity="0.2"/>
<polyline clip-path="url(#clip843)" style="stroke:#00467f; stroke-linecap:round; stroke-linejoin:round; stroke-width:4; stroke-opacity:0; fill:none" points="1189.1,691.151 1559.81,1035.39 1930.51,920.642 "/>
<polyline clip-path="url(#clip843)" style="stroke:#00467f; stroke-linecap:round; stroke-linejoin:round; stroke-width:4; stroke-opacity:1; fill:none" points="1189.1,805.897 1559.81,1035.39 1930.51,1035.39 "/>
</svg>
