<?xml version="1.0" encoding="utf-8"?>
<svg xmlns="http://www.w3.org/2000/svg" xmlns:xlink="http://www.w3.org/1999/xlink" width="500" height="300" viewBox="0 0 2000 1200">
<defs>
  <clipPath id="clip410">
    <rect x="0" y="0" width="2000" height="1200"/>
  </clipPath>
</defs>
<path clip-path="url(#clip410)" d="M0 1200 L2000 1200 L2000 0 L0 0  Z" fill="#ffffff" fill-rule="evenodd" fill-opacity="1"/>
<defs>
  <clipPath id="clip411">
    <rect x="400" y="0" width="1401" height="1200"/>
  </clipPath>
</defs>
<path clip-path="url(#clip410)" d="M196.369 1035.39 L1952.76 1035.39 L1952.76 47.2441 L196.369 47.2441  Z" fill="#ffffff" fill-rule="evenodd" fill-opacity="1"/>
<defs>
  <clipPath id="clip412">
    <rect x="196" y="47" width="1757" height="989"/>
  </clipPath>
</defs>
<polyline clip-path="url(#clip412)" style="stroke:#000000; stroke-linecap:round; stroke-linejoin:round; stroke-width:2; stroke-opacity:0.1; fill:none" points="534.247,1035.39 534.247,47.2441 "/>
<polyline clip-path="url(#clip412)" style="stroke:#000000; stroke-linecap:round; stroke-linejoin:round; stroke-width:2; stroke-opacity:0.1; fill:none" points="894.457,1035.39 894.457,47.2441 "/>
<polyline clip-path="url(#clip412)" style="stroke:#000000; stroke-linecap:round; stroke-linejoin:round; stroke-width:2; stroke-opacity:0.1; fill:none" points="1254.67,1035.39 1254.67,47.2441 "/>
<polyline clip-path="url(#clip412)" style="stroke:#000000; stroke-linecap:round; stroke-linejoin:round; stroke-width:2; stroke-opacity:0.1; fill:none" points="1614.88,1035.39 1614.88,47.2441 "/>
<polyline clip-path="url(#clip412)" style="stroke:#000000; stroke-linecap:round; stroke-linejoin:round; stroke-width:2; stroke-opacity:0.1; fill:none" points="196.369,1019.37 1952.76,1019.37 "/>
<polyline clip-path="url(#clip412)" style="stroke:#000000; stroke-linecap:round; stroke-linejoin:round; stroke-width:2; stroke-opacity:0.1; fill:none" points="196.369,780.344 1952.76,780.344 "/>
<polyline clip-path="url(#clip412)" style="stroke:#000000; stroke-linecap:round; stroke-linejoin:round; stroke-width:2; stroke-opacity:0.1; fill:none" points="196.369,541.316 1952.76,541.316 "/>
<polyline clip-path="url(#clip412)" style="stroke:#000000; stroke-linecap:round; stroke-linejoin:round; stroke-width:2; stroke-opacity:0.1; fill:none" points="196.369,302.287 1952.76,302.287 "/>
<polyline clip-path="url(#clip412)" style="stroke:#000000; stroke-linecap:round; stroke-linejoin:round; stroke-width:2; stroke-opacity:0.1; fill:none" points="196.369,63.259 1952.76,63.259 "/>
<polyline clip-path="url(#clip410)" style="stroke:#000000; stroke-linecap:round; stroke-linejoin:round; stroke-width:4; stroke-opacity:1; fill:none" points="196.369,1035.39 1952.76,1035.39 "/>
<polyline clip-path="url(#clip410)" style="stroke:#000000; stroke-linecap:round; stroke-linejoin:round; stroke-width:4; stroke-opacity:1; fill:none" points="534.247,1035.39 534.247,1016.49 "/>
<polyline clip-path="url(#clip410)" style="stroke:#000000; stroke-linecap:round; stroke-linejoin:round; stroke-width:4; stroke-opacity:1; fill:none" points="894.457,1035.39 894.457,1016.49 "/>
<polyline clip-path="url(#clip410)" style="stroke:#000000; stroke-linecap:round; stroke-linejoin:round; stroke-width:4; stroke-opacity:1; fill:none" points="1254.67,1035.39 1254.67,1016.49 "/>
<polyline clip-path="url(#clip410)" style="stroke:#000000; stroke-linecap:round; stroke-linejoin:round; stroke-width:4; stroke-opacity:1; fill:none" points="1614.88,1035.39 1614.88,1016.49 "/>
<path clip-path="url(#clip410)" d="M524.524 1060.03 L542.881 1060.03 L542.881 1063.96 L528.807 1063.96 L528.807 1072.44 Q529.825 1072.09 530.844 1071.93 Q531.862 1071.74 532.881 1071.74 Q538.668 1071.74 542.047 1074.91 Q545.427 1078.08 545.427 1083.5 Q545.427 1089.08 541.955 1092.18 Q538.483 1095.26 532.163 1095.26 Q529.987 1095.26 527.719 1094.89 Q525.473 1094.52 523.066 1093.78 L523.066 1089.08 Q525.149 1090.21 527.372 1090.77 Q529.594 1091.32 532.071 1091.32 Q536.075 1091.32 538.413 1089.22 Q540.751 1087.11 540.751 1083.5 Q540.751 1079.89 538.413 1077.78 Q536.075 1075.68 532.071 1075.68 Q530.196 1075.68 528.321 1076.09 Q526.469 1076.51 524.524 1077.39 L524.524 1060.03 Z" fill="#000000" fill-rule="nonzero" fill-opacity="1" /><path clip-path="url(#clip410)" d="M869.145 1090.65 L876.784 1090.65 L876.784 1064.29 L868.473 1065.95 L868.473 1061.69 L876.737 1060.03 L881.413 1060.03 L881.413 1090.65 L889.052 1090.65 L889.052 1094.59 L869.145 1094.59 L869.145 1090.65 Z" fill="#000000" fill-rule="nonzero" fill-opacity="1" /><path clip-path="url(#clip410)" d="M908.496 1063.11 Q904.885 1063.11 903.057 1066.67 Q901.251 1070.21 901.251 1077.34 Q901.251 1084.45 903.057 1088.01 Q904.885 1091.56 908.496 1091.56 Q912.131 1091.56 913.936 1088.01 Q915.765 1084.45 915.765 1077.34 Q915.765 1070.21 913.936 1066.67 Q912.131 1063.11 908.496 1063.11 M908.496 1059.4 Q914.307 1059.4 917.362 1064.01 Q920.441 1068.59 920.441 1077.34 Q920.441 1086.07 917.362 1090.68 Q914.307 1095.26 908.496 1095.26 Q902.686 1095.26 899.608 1090.68 Q896.552 1086.07 896.552 1077.34 Q896.552 1068.59 899.608 1064.01 Q902.686 1059.4 908.496 1059.4 Z" fill="#000000" fill-rule="nonzero" fill-opacity="1" /><path clip-path="url(#clip410)" d="M1229.85 1090.65 L1237.49 1090.65 L1237.49 1064.29 L1229.18 1065.95 L1229.18 1061.69 L1237.45 1060.03 L1242.12 1060.03 L1242.12 1090.65 L1249.76 1090.65 L1249.76 1094.59 L1229.85 1094.59 L1229.85 1090.65 Z" fill="#000000" fill-rule="nonzero" fill-opacity="1" /><path clip-path="url(#clip410)" d="M1259.25 1060.03 L1277.61 1060.03 L1277.61 1063.96 L1263.53 1063.96 L1263.53 1072.44 Q1264.55 1072.09 1265.57 1071.93 Q1266.59 1071.74 1267.61 1071.74 Q1273.39 1071.74 1276.77 1074.91 Q1280.15 1078.08 1280.15 1083.5 Q1280.15 1089.08 1276.68 1092.18 Q1273.21 1095.26 1266.89 1095.26 Q1264.71 1095.26 1262.45 1094.89 Q1260.2 1094.52 1257.79 1093.78 L1257.79 1089.08 Q1259.88 1090.21 1262.1 1090.77 Q1264.32 1091.32 1266.8 1091.32 Q1270.8 1091.32 1273.14 1089.22 Q1275.48 1087.11 1275.48 1083.5 Q1275.48 1079.89 1273.14 1077.78 Q1270.8 1075.68 1266.8 1075.68 Q1264.92 1075.68 1263.05 1076.09 Q1261.2 1076.51 1259.25 1077.39 L1259.25 1060.03 Z" fill="#000000" fill-rule="nonzero" fill-opacity="1" /><path clip-path="url(#clip410)" d="M1593.65 1090.65 L1609.97 1090.65 L1609.97 1094.59 L1588.03 1094.59 L1588.03 1090.65 Q1590.69 1087.9 1595.27 1083.27 Q1599.88 1078.62 1601.06 1077.27 Q1603.3 1074.75 1604.18 1073.01 Q1605.09 1071.25 1605.09 1069.56 Q1605.09 1066.81 1603.14 1065.07 Q1601.22 1063.34 1598.12 1063.34 Q1595.92 1063.34 1593.47 1064.1 Q1591.04 1064.87 1588.26 1066.42 L1588.26 1061.69 Q1591.08 1060.56 1593.54 1059.98 Q1595.99 1059.4 1598.03 1059.4 Q1603.4 1059.4 1606.59 1062.09 Q1609.79 1064.77 1609.79 1069.26 Q1609.79 1071.39 1608.98 1073.31 Q1608.19 1075.21 1606.08 1077.81 Q1605.5 1078.48 1602.4 1081.69 Q1599.3 1084.89 1593.65 1090.65 Z" fill="#000000" fill-rule="nonzero" fill-opacity="1" /><path clip-path="url(#clip410)" d="M1629.79 1063.11 Q1626.17 1063.11 1624.35 1066.67 Q1622.54 1070.21 1622.54 1077.34 Q1622.54 1084.45 1624.35 1088.01 Q1626.17 1091.56 1629.79 1091.56 Q1633.42 1091.56 1635.23 1088.01 Q1637.05 1084.45 1637.05 1077.34 Q1637.05 1070.21 1635.23 1066.67 Q1633.42 1063.11 1629.79 1063.11 M1629.79 1059.4 Q1635.6 1059.4 1638.65 1064.01 Q1641.73 1068.59 1641.73 1077.34 Q1641.73 1086.07 1638.65 1090.68 Q1635.6 1095.26 1629.79 1095.26 Q1623.98 1095.26 1620.9 1090.68 Q1617.84 1086.07 1617.84 1077.34 Q1617.84 1068.59 1620.9 1064.01 Q1623.98 1059.4 1629.79 1059.4 Z" fill="#000000" fill-rule="nonzero" fill-opacity="1" /><path clip-path="url(#clip410)" d="M999.256 1126.73 L1005.69 1126.73 L1005.69 1146.21 L1029.05 1146.21 L1029.05 1126.73 L1035.48 1126.73 L1035.48 1174.25 L1029.05 1174.25 L1029.05 1151.62 L1005.69 1151.62 L1005.69 1174.25 L999.256 1174.25 L999.256 1126.73 Z" fill="#000000" fill-rule="nonzero" fill-opacity="1" /><path clip-path="url(#clip410)" d="M1061.83 1142.71 Q1057.12 1142.71 1054.38 1146.4 Q1051.65 1150.06 1051.65 1156.46 Q1051.65 1162.86 1054.35 1166.55 Q1057.09 1170.21 1061.83 1170.21 Q1066.51 1170.21 1069.25 1166.52 Q1071.98 1162.83 1071.98 1156.46 Q1071.98 1150.13 1069.25 1146.43 Q1066.51 1142.71 1061.83 1142.71 M1061.83 1137.74 Q1069.47 1137.74 1073.83 1142.71 Q1078.19 1147.68 1078.19 1156.46 Q1078.19 1165.21 1073.83 1170.21 Q1069.47 1175.17 1061.83 1175.17 Q1054.16 1175.17 1049.8 1170.21 Q1045.47 1165.21 1045.47 1156.46 Q1045.47 1147.68 1049.8 1142.71 Q1054.16 1137.74 1061.83 1137.74 Z" fill="#000000" fill-rule="nonzero" fill-opacity="1" /><path clip-path="url(#clip410)" d="M1087.29 1160.18 L1087.29 1138.6 L1093.15 1138.6 L1093.15 1159.96 Q1093.15 1165.02 1095.12 1167.57 Q1097.1 1170.08 1101.04 1170.08 Q1105.79 1170.08 1108.52 1167.06 Q1111.29 1164.03 1111.29 1158.82 L1111.29 1138.6 L1117.15 1138.6 L1117.15 1174.25 L1111.29 1174.25 L1111.29 1168.78 Q1109.16 1172.02 1106.33 1173.62 Q1103.53 1175.17 1099.8 1175.17 Q1093.66 1175.17 1090.48 1171.36 Q1087.29 1167.54 1087.29 1160.18 M1102.03 1137.74 L1102.03 1137.74 Z" fill="#000000" fill-rule="nonzero" fill-opacity="1" /><path clip-path="url(#clip410)" d="M1149.87 1144.08 Q1148.88 1143.51 1147.7 1143.25 Q1146.56 1142.96 1145.16 1142.96 Q1140.19 1142.96 1137.52 1146.21 Q1134.88 1149.43 1134.88 1155.47 L1134.88 1174.25 L1128.99 1174.25 L1128.99 1138.6 L1134.88 1138.6 L1134.88 1144.14 Q1136.72 1140.9 1139.68 1139.34 Q1142.64 1137.74 1146.88 1137.74 Q1147.48 1137.74 1148.21 1137.84 Q1148.95 1137.9 1149.84 1138.06 L1149.87 1144.08 Z" fill="#000000" fill-rule="nonzero" fill-opacity="1" /><polyline clip-path="url(#clip410)" style="stroke:#000000; stroke-linecap:round; stroke-linejoin:round; stroke-width:4; stroke-opacity:1; fill:none" points="196.369,1035.39 196.369,47.2441 "/>
<polyline clip-path="url(#clip410)" style="stroke:#000000; stroke-linecap:round; stroke-linejoin:round; stroke-width:4; stroke-opacity:1; fill:none" points="196.369,1019.37 215.267,1019.37 "/>
<polyline clip-path="url(#clip410)" style="stroke:#000000; stroke-linecap:round; stroke-linejoin:round; stroke-width:4; stroke-opacity:1; fill:none" points="196.369,780.344 215.267,780.344 "/>
<polyline clip-path="url(#clip410)" style="stroke:#000000; stroke-linecap:round; stroke-linejoin:round; stroke-width:4; stroke-opacity:1; fill:none" points="196.369,541.316 215.267,541.316 "/>
<polyline clip-path="url(#clip410)" style="stroke:#000000; stroke-linecap:round; stroke-linejoin:round; stroke-width:4; stroke-opacity:1; fill:none" points="196.369,302.287 215.267,302.287 "/>
<polyline clip-path="url(#clip410)" style="stroke:#000000; stroke-linecap:round; stroke-linejoin:round; stroke-width:4; stroke-opacity:1; fill:none" points="196.369,63.259 215.267,63.259 "/>
<path clip-path="url(#clip410)" d="M154.425 1005.17 Q150.814 1005.17 148.985 1008.74 Q147.179 1012.28 147.179 1019.41 Q147.179 1026.51 148.985 1030.08 Q150.814 1033.62 154.425 1033.62 Q158.059 1033.62 159.864 1030.08 Q161.693 1026.51 161.693 1019.41 Q161.693 1012.28 159.864 1008.74 Q158.059 1005.17 154.425 1005.17 M154.425 1001.47 Q160.235 1001.47 163.29 1006.07 Q166.369 1010.66 166.369 1019.41 Q166.369 1028.13 163.29 1032.74 Q160.235 1037.32 154.425 1037.32 Q148.614 1037.32 145.536 1032.74 Q142.48 1028.13 142.48 1019.41 Q142.48 1010.66 145.536 1006.07 Q148.614 1001.47 154.425 1001.47 Z" fill="#000000" fill-rule="nonzero" fill-opacity="1" /><path clip-path="url(#clip410)" d="M118.291 793.689 L134.61 793.689 L134.61 797.624 L112.666 797.624 L112.666 793.689 Q115.328 790.935 119.911 786.305 Q124.517 781.652 125.698 780.31 Q127.943 777.787 128.823 776.05 Q129.726 774.291 129.726 772.601 Q129.726 769.847 127.781 768.111 Q125.86 766.375 122.758 766.375 Q120.559 766.375 118.105 767.139 Q115.675 767.902 112.897 769.453 L112.897 764.731 Q115.721 763.597 118.175 763.018 Q120.628 762.439 122.666 762.439 Q128.036 762.439 131.23 765.125 Q134.425 767.81 134.425 772.301 Q134.425 774.43 133.615 776.351 Q132.827 778.25 130.721 780.842 Q130.142 781.513 127.04 784.731 Q123.939 787.925 118.291 793.689 Z" fill="#000000" fill-rule="nonzero" fill-opacity="1" /><path clip-path="url(#clip410)" d="M154.425 766.143 Q150.814 766.143 148.985 769.708 Q147.179 773.25 147.179 780.379 Q147.179 787.486 148.985 791.05 Q150.814 794.592 154.425 794.592 Q158.059 794.592 159.864 791.05 Q161.693 787.486 161.693 780.379 Q161.693 773.25 159.864 769.708 Q158.059 766.143 154.425 766.143 M154.425 762.439 Q160.235 762.439 163.29 767.046 Q166.369 771.629 166.369 780.379 Q166.369 789.106 163.29 793.712 Q160.235 798.296 154.425 798.296 Q148.614 798.296 145.536 793.712 Q142.48 789.106 142.48 780.379 Q142.48 771.629 145.536 767.046 Q148.614 762.439 154.425 762.439 Z" fill="#000000" fill-rule="nonzero" fill-opacity="1" /><path clip-path="url(#clip410)" d="M127.11 528.11 L115.304 546.559 L127.11 546.559 L127.11 528.11 M125.883 524.036 L131.763 524.036 L131.763 546.559 L136.693 546.559 L136.693 550.448 L131.763 550.448 L131.763 558.596 L127.11 558.596 L127.11 550.448 L111.508 550.448 L111.508 545.934 L125.883 524.036 Z" fill="#000000" fill-rule="nonzero" fill-opacity="1" /><path clip-path="url(#clip410)" d="M154.425 527.115 Q150.814 527.115 148.985 530.679 Q147.179 534.221 147.179 541.351 Q147.179 548.457 148.985 552.022 Q150.814 555.564 154.425 555.564 Q158.059 555.564 159.864 552.022 Q161.693 548.457 161.693 541.351 Q161.693 534.221 159.864 530.679 Q158.059 527.115 154.425 527.115 M154.425 523.411 Q160.235 523.411 163.29 528.017 Q166.369 532.601 166.369 541.351 Q166.369 550.077 163.29 554.684 Q160.235 559.267 154.425 559.267 Q148.614 559.267 145.536 554.684 Q142.48 550.077 142.48 541.351 Q142.48 532.601 145.536 528.017 Q148.614 523.411 154.425 523.411 Z" fill="#000000" fill-rule="nonzero" fill-opacity="1" /><path clip-path="url(#clip410)" d="M124.841 300.424 Q121.693 300.424 119.841 302.577 Q118.013 304.73 118.013 308.48 Q118.013 312.206 119.841 314.382 Q121.693 316.535 124.841 316.535 Q127.99 316.535 129.818 314.382 Q131.67 312.206 131.67 308.48 Q131.67 304.73 129.818 302.577 Q127.99 300.424 124.841 300.424 M134.124 285.771 L134.124 290.031 Q132.365 289.197 130.559 288.757 Q128.777 288.318 127.017 288.318 Q122.388 288.318 119.934 291.443 Q117.503 294.568 117.156 300.887 Q118.522 298.873 120.582 297.808 Q122.642 296.72 125.119 296.72 Q130.328 296.72 133.337 299.892 Q136.369 303.04 136.369 308.48 Q136.369 313.804 133.221 317.021 Q130.073 320.239 124.841 320.239 Q118.846 320.239 115.675 315.655 Q112.504 311.049 112.504 302.322 Q112.504 294.128 116.392 289.267 Q120.281 284.382 126.832 284.382 Q128.591 284.382 130.374 284.73 Q132.179 285.077 134.124 285.771 Z" fill="#000000" fill-rule="nonzero" fill-opacity="1" /><path clip-path="url(#clip410)" d="M154.425 288.086 Q150.814 288.086 148.985 291.651 Q147.179 295.193 147.179 302.322 Q147.179 309.429 148.985 312.993 Q150.814 316.535 154.425 316.535 Q158.059 316.535 159.864 312.993 Q161.693 309.429 161.693 302.322 Q161.693 295.193 159.864 291.651 Q158.059 288.086 154.425 288.086 M154.425 284.382 Q160.235 284.382 163.29 288.989 Q166.369 293.572 166.369 302.322 Q166.369 311.049 163.29 315.655 Q160.235 320.239 154.425 320.239 Q148.614 320.239 145.536 315.655 Q142.48 311.049 142.48 302.322 Q142.48 293.572 145.536 288.989 Q148.614 284.382 154.425 284.382 Z" fill="#000000" fill-rule="nonzero" fill-opacity="1" /><path clip-path="url(#clip410)" d="M124.263 64.1271 Q120.929 64.1271 119.008 65.9095 Q117.11 67.6918 117.11 70.8168 Q117.11 73.9418 119.008 75.7242 Q120.929 77.5066 124.263 77.5066 Q127.596 77.5066 129.517 75.7242 Q131.439 73.9187 131.439 70.8168 Q131.439 67.6918 129.517 65.9095 Q127.619 64.1271 124.263 64.1271 M119.587 62.1363 Q116.578 61.3956 114.888 59.3354 Q113.221 57.2752 113.221 54.3123 Q113.221 50.1688 116.161 47.7614 Q119.124 45.354 124.263 45.354 Q129.425 45.354 132.365 47.7614 Q135.304 50.1688 135.304 54.3123 Q135.304 57.2752 133.615 59.3354 Q131.948 61.3956 128.962 62.1363 Q132.341 62.9234 134.216 65.215 Q136.115 67.5067 136.115 70.8168 Q136.115 75.84 133.036 78.5251 Q129.98 81.2103 124.263 81.2103 Q118.545 81.2103 115.466 78.5251 Q112.411 75.84 112.411 70.8168 Q112.411 67.5067 114.309 65.215 Q116.207 62.9234 119.587 62.1363 M117.874 54.7521 Q117.874 57.4373 119.541 58.9419 Q121.23 60.4465 124.263 60.4465 Q127.272 60.4465 128.962 58.9419 Q130.675 57.4373 130.675 54.7521 Q130.675 52.0669 128.962 50.5623 Q127.272 49.0577 124.263 49.0577 Q121.23 49.0577 119.541 50.5623 Q117.874 52.0669 117.874 54.7521 Z" fill="#000000" fill-rule="nonzero" fill-opacity="1" /><path clip-path="url(#clip410)" d="M154.425 49.0577 Q150.814 49.0577 148.985 52.6225 Q147.179 56.1641 147.179 63.2937 Q147.179 70.4002 148.985 73.965 Q150.814 77.5066 154.425 77.5066 Q158.059 77.5066 159.864 73.965 Q161.693 70.4002 161.693 63.2937 Q161.693 56.1641 159.864 52.6225 Q158.059 49.0577 154.425 49.0577 M154.425 45.354 Q160.235 45.354 163.29 49.9605 Q166.369 54.5438 166.369 63.2937 Q166.369 72.0205 163.29 76.627 Q160.235 81.2103 154.425 81.2103 Q148.614 81.2103 145.536 76.627 Q142.48 72.0205 142.48 63.2937 Q142.48 54.5438 145.536 49.9605 Q148.614 45.354 154.425 45.354 Z" fill="#000000" fill-rule="nonzero" fill-opacity="1" /><path clip-path="url(#clip410)" d="M19.7322 672.386 L19.7322 663.729 L59.486 642.658 L19.7322 642.658 L19.7322 636.42 L67.2522 636.42 L67.2522 645.077 L27.4983 666.147 L67.2522 666.147 L67.2522 672.386 L19.7322 672.386 Z" fill="#000000" fill-rule="nonzero" fill-opacity="1" /><path clip-path="url(#clip410)" d="M47.9641 593.387 L50.8286 593.387 L50.8286 620.314 Q56.8761 619.932 60.0589 616.686 Q63.2099 613.408 63.2099 607.583 Q63.2099 604.209 62.3824 601.058 Q61.5549 597.875 59.8998 594.756 L65.4379 594.756 Q66.7747 597.907 67.475 601.217 Q68.1752 604.527 68.1752 607.933 Q68.1752 616.463 63.2099 621.46 Q58.2447 626.425 49.7783 626.425 Q41.0254 626.425 35.9011 621.715 Q30.7448 616.972 30.7448 608.952 Q30.7448 601.758 35.3918 597.589 Q40.0069 593.387 47.9641 593.387 M46.2453 599.244 Q41.4392 599.308 38.5746 601.949 Q35.7101 604.559 35.7101 608.888 Q35.7101 613.79 38.4792 616.75 Q41.2482 619.678 46.2772 620.123 L46.2453 599.244 Z" fill="#000000" fill-rule="nonzero" fill-opacity="1" /><path clip-path="url(#clip410)" d="M21.4827 577.982 L31.6042 577.982 L31.6042 565.919 L36.1557 565.919 L36.1557 577.982 L55.5074 577.982 Q59.8679 577.982 61.1093 576.805 Q62.3506 575.595 62.3506 571.935 L62.3506 565.919 L67.2522 565.919 L67.2522 571.935 Q67.2522 578.714 64.7377 581.293 Q62.1914 583.871 55.5074 583.871 L36.1557 583.871 L36.1557 588.168 L31.6042 588.168 L31.6042 583.871 L21.4827 583.871 L21.4827 577.982 Z" fill="#000000" fill-rule="nonzero" fill-opacity="1" /><path clip-path="url(#clip410)" d="M17.727 537.497 L17.727 531.64 L67.2522 531.64 L67.2522 537.497 L17.727 537.497 Z" fill="#000000" fill-rule="nonzero" fill-opacity="1" /><path clip-path="url(#clip410)" d="M35.7101 505.573 Q35.7101 510.283 39.4022 513.02 Q43.0625 515.758 49.46 515.758 Q55.8575 515.758 59.5497 513.052 Q63.2099 510.315 63.2099 505.573 Q63.2099 500.894 59.5178 498.156 Q55.8257 495.419 49.46 495.419 Q43.1261 495.419 39.434 498.156 Q35.7101 500.894 35.7101 505.573 M30.7448 505.573 Q30.7448 497.934 35.7101 493.573 Q40.6753 489.213 49.46 489.213 Q58.2129 489.213 63.2099 493.573 Q68.1752 497.934 68.1752 505.573 Q68.1752 513.243 63.2099 517.604 Q58.2129 521.932 49.46 521.932 Q40.6753 521.932 35.7101 517.604 Q30.7448 513.243 30.7448 505.573 Z" fill="#000000" fill-rule="nonzero" fill-opacity="1" /><path clip-path="url(#clip410)" d="M49.3327 463.304 Q49.3327 470.402 50.9559 473.139 Q52.5792 475.877 56.4941 475.877 Q59.6133 475.877 61.4594 473.839 Q63.2736 471.771 63.2736 468.238 Q63.2736 463.368 59.8361 460.44 Q56.3668 457.48 50.6377 457.48 L49.3327 457.48 L49.3327 463.304 M46.9137 451.623 L67.2522 451.623 L67.2522 457.48 L61.8413 457.48 Q65.0878 459.485 66.6474 462.477 Q68.1752 465.469 68.1752 469.797 Q68.1752 475.272 65.1196 478.518 Q62.0323 481.733 56.8761 481.733 Q50.8605 481.733 47.8049 477.723 Q44.7494 473.68 44.7494 465.691 L44.7494 457.48 L44.1765 457.48 Q40.1342 457.48 37.9381 460.153 Q35.7101 462.795 35.7101 467.601 Q35.7101 470.657 36.4421 473.553 Q37.1742 476.449 38.6383 479.123 L33.2275 479.123 Q31.9861 475.908 31.3814 472.885 Q30.7448 469.861 30.7448 466.996 Q30.7448 459.262 34.7552 455.443 Q38.7656 451.623 46.9137 451.623 Z" fill="#000000" fill-rule="nonzero" fill-opacity="1" /><path clip-path="url(#clip410)" d="M37.0151 416.103 L17.727 416.103 L17.727 410.246 L67.2522 410.246 L67.2522 416.103 L61.905 416.103 Q65.0878 417.949 66.6474 420.781 Q68.1752 423.582 68.1752 427.529 Q68.1752 433.99 63.019 438.064 Q57.8627 442.106 49.46 442.106 Q41.0573 442.106 35.9011 438.064 Q30.7448 433.99 30.7448 427.529 Q30.7448 423.582 32.3044 420.781 Q33.8322 417.949 37.0151 416.103 M49.46 436.059 Q55.9212 436.059 59.6133 433.417 Q63.2736 430.744 63.2736 426.097 Q63.2736 421.45 59.6133 418.776 Q55.9212 416.103 49.46 416.103 Q42.9988 416.103 39.3385 418.776 Q35.6464 421.45 35.6464 426.097 Q35.6464 430.744 39.3385 433.417 Q42.9988 436.059 49.46 436.059 Z" fill="#000000" fill-rule="nonzero" fill-opacity="1" /><path clip-path="url(#clip412)" d="M246.078 589.122 L318.12 577.17 L390.162 565.219 L462.204 553.267 L534.247 648.879 L606.289 589.122 L678.331 589.122 L750.373 768.393 L822.415 947.664 L894.457 971.567 L966.499 995.47 L1038.54 1007.42 L1110.58 1007.42 L1182.63 995.47 L1254.67 971.567 L1326.71 947.664 L1398.75 828.15 L1470.79 708.636 L1542.84 409.85 L1614.88 206.676 L1686.92 170.822 L1758.96 230.579 L1831 302.287 L1903.05 350.093 L1903.05 254.482 L1831 206.676 L1758.96 134.968 L1686.92 75.2104 L1614.88 111.065 L1542.84 314.239 L1470.79 613.025 L1398.75 732.539 L1326.71 852.053 L1254.67 875.956 L1182.63 899.859 L1110.58 911.81 L1038.54 911.81 L966.499 899.859 L894.457 875.956 L822.415 852.053 L750.373 672.782 L678.331 493.51 L606.289 493.51 L534.247 553.267 L462.204 457.656 L390.162 469.607 L318.12 481.559 L246.078 493.51  Z" fill="#00467f" fill-rule="evenodd" fill-opacity="0.2"/>
<polyline clip-path="url(#clip412)" style="stroke:#00467f; stroke-linecap:round; stroke-linejoin:round; stroke-width:4; stroke-opacity:0; fill:none" points="246.078,541.316 318.12,529.365 390.162,517.413 462.204,505.462 534.247,601.073 606.289,541.316 678.331,541.316 750.373,720.587 822.415,899.859 894.457,923.762 966.499,947.664 1038.54,959.616 1110.58,959.616 1182.63,947.664 1254.67,923.762 1326.71,899.859 1398.75,780.344 1470.79,660.83 1542.84,362.045 1614.88,158.87 1686.92,123.016 1758.96,182.773 1831,254.482 1903.05,302.287 "/>
<path clip-path="url(#clip412)" d="M246.078 589.122 L318.12 577.17 L390.162 565.219 L462.204 553.267 L534.247 648.879 L606.289 589.122 L678.331 589.122 L750.373 768.393 L822.415 947.664 L894.457 971.567 L966.499 973.958 L1038.54 1007.42 L1110.58 1007.42 L1182.63 995.47 L1254.67 971.567 L1326.71 947.664 L1398.75 828.15 L1470.79 708.636 L1542.84 409.85 L1614.88 206.676 L1686.92 170.822 L1758.96 230.579 L1831 302.287 L1903.05 350.093 L1903.05 254.482 L1831 206.676 L1758.96 134.968 L1686.92 75.2104 L1614.88 111.065 L1542.84 314.239 L1470.79 613.025 L1398.75 732.539 L1326.71 852.053 L1254.67 875.956 L1182.63 899.859 L1110.58 911.81 L1038.54 911.81 L966.499 899.859 L894.457 875.956 L822.415 852.053 L750.373 672.782 L678.331 493.51 L606.289 493.51 L534.247 553.267 L462.204 457.656 L390.162 469.607 L318.12 481.559 L246.078 493.51  Z" fill="#00467f" fill-rule="evenodd" fill-opacity="0.2"/>
<polyline clip-path="url(#clip412)" style="stroke:#00467f; stroke-linecap:round; stroke-linejoin:round; stroke-width:4; stroke-opacity:0; fill:none" points="246.078,541.316 318.12,529.365 390.162,517.413 462.204,505.462 534.247,601.073 606.289,541.316 678.331,541.316 750.373,720.587 822.415,899.859 894.457,923.762 966.499,936.908 1038.54,959.616 1110.58,959.616 1182.63,947.664 1254.67,923.762 1326.71,899.859 1398.75,780.344 1470.79,660.83 1542.84,362.045 1614.88,158.87 1686.92,123.016 1758.96,182.773 1831,254.482 1903.05,302.287 "/>
<path clip-path="url(#clip412)" d="M246.078 589.122 L318.12 553.267 L390.162 541.316 L462.204 529.365 L534.247 624.976 L606.289 565.219 L678.331 565.219 L750.373 744.49 L822.415 923.762 L894.457 947.664 L966.499 971.567 L1038.54 983.519 L1110.58 1007.42 L1182.63 971.567 L1254.67 947.664 L1326.71 923.762 L1398.75 828.15 L1470.79 684.733 L1542.84 385.947 L1614.88 182.773 L1686.92 146.919 L1758.96 206.676 L1831 284.36 L1903.05 326.19 L1903.05 278.385 L1831 230.579 L1758.96 158.87 L1686.92 99.1133 L1614.88 134.968 L1542.84 338.142 L1470.79 613.025 L1398.75 756.442 L1326.71 875.956 L1254.67 875.956 L1182.63 923.762 L1110.58 935.713 L1038.54 935.713 L966.499 923.762 L894.457 899.859 L822.415 875.956 L750.373 696.684 L678.331 517.413 L606.289 517.413 L534.247 577.17 L462.204 481.559 L390.162 493.51 L318.12 505.462 L246.078 517.413  Z" fill="#00467f" fill-rule="evenodd" fill-opacity="0.2"/>
<polyline clip-path="url(#clip412)" style="stroke:#00467f; stroke-linecap:round; stroke-linejoin:round; stroke-width:4; stroke-opacity:0; fill:none" points="246.078,553.267 318.12,529.365 390.162,517.413 462.204,505.462 534.247,601.073 606.289,541.316 678.331,541.316 750.373,720.587 822.415,899.859 894.457,923.762 966.499,947.664 1038.54,959.616 1110.58,971.567 1182.63,947.664 1254.67,911.81 1326.71,899.859 1398.75,792.296 1470.79,648.879 1542.84,362.045 1614.88,158.87 1686.92,123.016 1758.96,182.773 1831,257.47 1903.05,302.287 "/>
<polyline clip-path="url(#clip412)" style="stroke:#00467f; stroke-linecap:round; stroke-linejoin:round; stroke-width:4; stroke-opacity:1; fill:none" points="246.078,541.316 318.12,529.365 390.162,517.413 462.204,505.462 534.247,601.073 606.289,541.316 678.331,541.316 750.373,720.587 822.415,899.859 894.457,923.762 966.499,947.664 1038.54,959.616 1110.58,959.616 1182.63,947.664 1254.67,923.762 1326.71,899.859 1398.75,792.296 1470.79,660.83 1542.84,362.045 1614.88,158.87 1686.92,123.016 1758.96,182.773 1831,254.482 1903.05,302.287 "/>
</svg>
