<?xml version="1.0" encoding="utf-8"?>
<svg xmlns="http://www.w3.org/2000/svg" xmlns:xlink="http://www.w3.org/1999/xlink" width="600" height="400" viewBox="0 0 2400 1600">
<defs>
  <clipPath id="clip310">
    <rect x="0" y="0" width="2400" height="1600"/>
  </clipPath>
</defs>
<path clip-path="url(#clip310)" d="M0 1600 L2400 1600 L2400 0 L0 0  Z" fill="#ffffff" fill-rule="evenodd" fill-opacity="1"/>
<defs>
  <clipPath id="clip311">
    <rect x="480" y="0" width="1681" height="1600"/>
  </clipPath>
</defs>
<path clip-path="url(#clip310)" d="M234.125 1410.9 L2352.76 1410.9 L2352.76 47.2441 L234.125 47.2441  Z" fill="#ffffff" fill-rule="evenodd" fill-opacity="1"/>
<defs>
  <clipPath id="clip312">
    <rect x="234" y="47" width="2120" height="1365"/>
  </clipPath>
</defs>
<polyline clip-path="url(#clip312)" style="stroke:#000000; stroke-linecap:round; stroke-linejoin:round; stroke-width:2; stroke-opacity:0.1; fill:none" points="693.828,1410.9 693.828,47.2441 "/>
<polyline clip-path="url(#clip312)" style="stroke:#000000; stroke-linecap:round; stroke-linejoin:round; stroke-width:2; stroke-opacity:0.1; fill:none" points="1893.05,1410.9 1893.05,47.2441 "/>
<polyline clip-path="url(#clip312)" style="stroke:#000000; stroke-linecap:round; stroke-linejoin:round; stroke-width:2; stroke-opacity:0.1; fill:none" points="234.125,1237.49 2352.76,1237.49 "/>
<polyline clip-path="url(#clip312)" style="stroke:#000000; stroke-linecap:round; stroke-linejoin:round; stroke-width:2; stroke-opacity:0.1; fill:none" points="234.125,987.953 2352.76,987.953 "/>
<polyline clip-path="url(#clip312)" style="stroke:#000000; stroke-linecap:round; stroke-linejoin:round; stroke-width:2; stroke-opacity:0.1; fill:none" points="234.125,738.417 2352.76,738.417 "/>
<polyline clip-path="url(#clip312)" style="stroke:#000000; stroke-linecap:round; stroke-linejoin:round; stroke-width:2; stroke-opacity:0.1; fill:none" points="234.125,488.881 2352.76,488.881 "/>
<polyline clip-path="url(#clip312)" style="stroke:#000000; stroke-linecap:round; stroke-linejoin:round; stroke-width:2; stroke-opacity:0.1; fill:none" points="234.125,239.344 2352.76,239.344 "/>
<polyline clip-path="url(#clip310)" style="stroke:#000000; stroke-linecap:round; stroke-linejoin:round; stroke-width:4; stroke-opacity:1; fill:none" points="234.125,1410.9 2352.76,1410.9 "/>
<polyline clip-path="url(#clip310)" style="stroke:#000000; stroke-linecap:round; stroke-linejoin:round; stroke-width:4; stroke-opacity:1; fill:none" points="693.828,1410.9 693.828,1392 "/>
<polyline clip-path="url(#clip310)" style="stroke:#000000; stroke-linecap:round; stroke-linejoin:round; stroke-width:4; stroke-opacity:1; fill:none" points="1893.05,1410.9 1893.05,1392 "/>
<path clip-path="url(#clip310)" d="M643.708 1485.02 L651.347 1485.02 L651.347 1458.66 L643.037 1460.32 L643.037 1456.06 L651.301 1454.4 L655.977 1454.4 L655.977 1485.02 L663.616 1485.02 L663.616 1488.96 L643.708 1488.96 L643.708 1485.02 Z" fill="#000000" fill-rule="nonzero" fill-opacity="1" /><path clip-path="url(#clip310)" d="M683.06 1457.48 Q679.449 1457.48 677.62 1461.04 Q675.815 1464.58 675.815 1471.71 Q675.815 1478.82 677.62 1482.38 Q679.449 1485.92 683.06 1485.92 Q686.694 1485.92 688.5 1482.38 Q690.329 1478.82 690.329 1471.71 Q690.329 1464.58 688.5 1461.04 Q686.694 1457.48 683.06 1457.48 M683.06 1453.77 Q688.87 1453.77 691.926 1458.38 Q695.004 1462.96 695.004 1471.71 Q695.004 1480.44 691.926 1485.04 Q688.87 1489.63 683.06 1489.63 Q677.25 1489.63 674.171 1485.04 Q671.116 1480.44 671.116 1471.71 Q671.116 1462.96 674.171 1458.38 Q677.25 1453.77 683.06 1453.77 Z" fill="#000000" fill-rule="nonzero" fill-opacity="1" /><path clip-path="url(#clip310)" d="M695.004 1447.87 L719.116 1447.87 L719.116 1451.07 L695.004 1451.07 L695.004 1447.87 Z" fill="#000000" fill-rule="nonzero" fill-opacity="1" /><path clip-path="url(#clip310)" d="M738.827 1446.41 Q741.554 1446.99 743.077 1448.83 Q744.619 1450.68 744.619 1453.38 Q744.619 1457.54 741.761 1459.82 Q738.902 1462.09 733.636 1462.09 Q731.868 1462.09 729.987 1461.73 Q728.125 1461.4 726.131 1460.7 L726.131 1457.03 Q727.711 1457.95 729.592 1458.42 Q731.473 1458.89 733.523 1458.89 Q737.096 1458.89 738.958 1457.48 Q740.839 1456.07 740.839 1453.38 Q740.839 1450.9 739.09 1449.51 Q737.36 1448.1 734.256 1448.1 L730.984 1448.1 L730.984 1444.98 L734.407 1444.98 Q737.209 1444.98 738.695 1443.87 Q740.181 1442.74 740.181 1440.63 Q740.181 1438.47 738.639 1437.32 Q737.115 1436.16 734.256 1436.16 Q732.695 1436.16 730.909 1436.49 Q729.122 1436.83 726.978 1437.55 L726.978 1434.16 Q729.141 1433.56 731.021 1433.26 Q732.921 1432.96 734.595 1432.96 Q738.921 1432.96 741.441 1434.93 Q743.961 1436.89 743.961 1440.24 Q743.961 1442.57 742.626 1444.19 Q741.29 1445.79 738.827 1446.41 Z" fill="#000000" fill-rule="nonzero" fill-opacity="1" /><path clip-path="url(#clip310)" d="M1858.04 1485.02 L1865.67 1485.02 L1865.67 1458.66 L1857.36 1460.32 L1857.36 1456.06 L1865.63 1454.4 L1870.3 1454.4 L1870.3 1485.02 L1877.94 1485.02 L1877.94 1488.96 L1858.04 1488.96 L1858.04 1485.02 Z" fill="#000000" fill-rule="nonzero" fill-opacity="1" /><path clip-path="url(#clip310)" d="M1897.39 1457.48 Q1893.78 1457.48 1891.95 1461.04 Q1890.14 1464.58 1890.14 1471.71 Q1890.14 1478.82 1891.95 1482.38 Q1893.78 1485.92 1897.39 1485.92 Q1901.02 1485.92 1902.83 1482.38 Q1904.66 1478.82 1904.66 1471.71 Q1904.66 1464.58 1902.83 1461.04 Q1901.02 1457.48 1897.39 1457.48 M1897.39 1453.77 Q1903.2 1453.77 1906.25 1458.38 Q1909.33 1462.96 1909.33 1471.71 Q1909.33 1480.44 1906.25 1485.04 Q1903.2 1489.63 1897.39 1489.63 Q1891.58 1489.63 1888.5 1485.04 Q1885.44 1480.44 1885.44 1471.71 Q1885.44 1462.96 1888.5 1458.38 Q1891.58 1453.77 1897.39 1453.77 Z" fill="#000000" fill-rule="nonzero" fill-opacity="1" /><path clip-path="url(#clip310)" d="M1919.04 1435.97 Q1916.1 1435.97 1914.62 1438.86 Q1913.15 1441.74 1913.15 1447.53 Q1913.15 1453.31 1914.62 1456.2 Q1916.1 1459.08 1919.04 1459.08 Q1921.99 1459.08 1923.46 1456.2 Q1924.94 1453.31 1924.94 1447.53 Q1924.94 1441.74 1923.46 1438.86 Q1921.99 1435.97 1919.04 1435.97 M1919.04 1432.96 Q1923.76 1432.96 1926.24 1436.7 Q1928.74 1440.43 1928.74 1447.53 Q1928.74 1454.62 1926.24 1458.37 Q1923.76 1462.09 1919.04 1462.09 Q1914.32 1462.09 1911.81 1458.37 Q1909.33 1454.62 1909.33 1447.53 Q1909.33 1440.43 1911.81 1436.7 Q1914.32 1432.96 1919.04 1432.96 Z" fill="#000000" fill-rule="nonzero" fill-opacity="1" /><path clip-path="url(#clip310)" d="M890.81 1551.91 Q892.879 1552.61 894.82 1554.9 Q896.793 1557.19 898.767 1561.2 L905.292 1574.19 L898.385 1574.19 L892.306 1562 Q889.95 1557.22 887.722 1555.66 Q885.526 1554.1 881.707 1554.1 L874.704 1554.1 L874.704 1574.19 L868.275 1574.19 L868.275 1526.67 L882.789 1526.67 Q890.937 1526.67 894.947 1530.07 Q898.958 1533.48 898.958 1540.35 Q898.958 1544.84 896.857 1547.8 Q894.788 1550.76 890.81 1551.91 M874.704 1531.95 L874.704 1548.82 L882.789 1548.82 Q887.436 1548.82 889.791 1546.69 Q892.178 1544.52 892.178 1540.35 Q892.178 1536.18 889.791 1534.08 Q887.436 1531.95 882.789 1531.95 L874.704 1531.95 Z" fill="#000000" fill-rule="nonzero" fill-opacity="1" /><path clip-path="url(#clip310)" d="M913.313 1538.54 L919.169 1538.54 L919.169 1574.19 L913.313 1574.19 L913.313 1538.54 M913.313 1524.66 L919.169 1524.66 L919.169 1532.08 L913.313 1532.08 L913.313 1524.66 Z" fill="#000000" fill-rule="nonzero" fill-opacity="1" /><path clip-path="url(#clip310)" d="M954.149 1539.59 L954.149 1545.13 Q951.666 1543.85 948.992 1543.22 Q946.319 1542.58 943.454 1542.58 Q939.094 1542.58 936.897 1543.92 Q934.733 1545.25 934.733 1547.93 Q934.733 1549.96 936.293 1551.14 Q937.852 1552.29 942.563 1553.34 L944.568 1553.78 Q950.807 1555.12 953.416 1557.57 Q956.058 1559.99 956.058 1564.35 Q956.058 1569.32 952.111 1572.21 Q948.197 1575.11 941.322 1575.11 Q938.457 1575.11 935.338 1574.54 Q932.25 1573.99 928.813 1572.88 L928.813 1566.83 Q932.06 1568.52 935.211 1569.38 Q938.362 1570.21 941.449 1570.21 Q945.587 1570.21 947.815 1568.81 Q950.043 1567.37 950.043 1564.8 Q950.043 1562.41 948.419 1561.14 Q946.828 1559.86 941.385 1558.68 L939.348 1558.21 Q933.906 1557.06 931.487 1554.71 Q929.068 1552.32 929.068 1548.18 Q929.068 1543.15 932.632 1540.42 Q936.197 1537.68 942.754 1537.68 Q946 1537.68 948.865 1538.16 Q951.73 1538.63 954.149 1539.59 Z" fill="#000000" fill-rule="nonzero" fill-opacity="1" /><path clip-path="url(#clip310)" d="M965.161 1524.66 L971.049 1524.66 L971.049 1553.91 L988.523 1538.54 L996.003 1538.54 L977.097 1555.22 L996.799 1574.19 L989.16 1574.19 L971.049 1556.78 L971.049 1574.19 L965.161 1574.19 L965.161 1524.66 Z" fill="#000000" fill-rule="nonzero" fill-opacity="1" /><path clip-path="url(#clip310)" d="M1040.05 1556.27 Q1032.96 1556.27 1030.22 1557.89 Q1027.48 1559.51 1027.48 1563.43 Q1027.48 1566.55 1029.52 1568.39 Q1031.59 1570.21 1035.12 1570.21 Q1039.99 1570.21 1042.92 1566.77 Q1045.88 1563.3 1045.88 1557.57 L1045.88 1556.27 L1040.05 1556.27 M1051.73 1553.85 L1051.73 1574.19 L1045.88 1574.19 L1045.88 1568.77 Q1043.87 1572.02 1040.88 1573.58 Q1037.89 1575.11 1033.56 1575.11 Q1028.09 1575.11 1024.84 1572.05 Q1021.63 1568.97 1021.63 1563.81 Q1021.63 1557.79 1025.64 1554.74 Q1029.68 1551.68 1037.67 1551.68 L1045.88 1551.68 L1045.88 1551.11 Q1045.88 1547.07 1043.2 1544.87 Q1040.56 1542.64 1035.76 1542.64 Q1032.7 1542.64 1029.8 1543.38 Q1026.91 1544.11 1024.23 1545.57 L1024.23 1540.16 Q1027.45 1538.92 1030.47 1538.31 Q1033.5 1537.68 1036.36 1537.68 Q1044.1 1537.68 1047.92 1541.69 Q1051.73 1545.7 1051.73 1553.85 Z" fill="#000000" fill-rule="nonzero" fill-opacity="1" /><path clip-path="url(#clip310)" d="M1059.6 1538.54 L1065.8 1538.54 L1076.94 1568.46 L1088.08 1538.54 L1094.29 1538.54 L1080.92 1574.19 L1072.96 1574.19 L1059.6 1538.54 Z" fill="#000000" fill-rule="nonzero" fill-opacity="1" /><path clip-path="url(#clip310)" d="M1132.87 1554.9 L1132.87 1557.76 L1105.94 1557.76 Q1106.32 1563.81 1109.57 1566.99 Q1112.85 1570.14 1118.67 1570.14 Q1122.04 1570.14 1125.2 1569.32 Q1128.38 1568.49 1131.5 1566.83 L1131.5 1572.37 Q1128.35 1573.71 1125.04 1574.41 Q1121.73 1575.11 1118.32 1575.11 Q1109.79 1575.11 1104.79 1570.14 Q1099.83 1565.18 1099.83 1556.71 Q1099.83 1547.96 1104.54 1542.83 Q1109.28 1537.68 1117.3 1537.68 Q1124.49 1537.68 1128.66 1542.33 Q1132.87 1546.94 1132.87 1554.9 M1127.01 1553.18 Q1126.95 1548.37 1124.3 1545.51 Q1121.69 1542.64 1117.37 1542.64 Q1112.46 1542.64 1109.5 1545.41 Q1106.58 1548.18 1106.13 1553.21 L1127.01 1553.18 Z" fill="#000000" fill-rule="nonzero" fill-opacity="1" /><path clip-path="url(#clip310)" d="M1163.13 1544.01 Q1162.15 1543.44 1160.97 1543.18 Q1159.82 1542.9 1158.42 1542.9 Q1153.46 1542.9 1150.79 1546.14 Q1148.14 1549.36 1148.14 1555.41 L1148.14 1574.19 L1142.26 1574.19 L1142.26 1538.54 L1148.14 1538.54 L1148.14 1544.08 Q1149.99 1540.83 1152.95 1539.27 Q1155.91 1537.68 1160.14 1537.68 Q1160.75 1537.68 1161.48 1537.77 Q1162.21 1537.84 1163.1 1538 L1163.13 1544.01 Z" fill="#000000" fill-rule="nonzero" fill-opacity="1" /><path clip-path="url(#clip310)" d="M1192 1539.59 L1192 1545.13 Q1189.52 1543.85 1186.85 1543.22 Q1184.17 1542.58 1181.31 1542.58 Q1176.95 1542.58 1174.75 1543.92 Q1172.59 1545.25 1172.59 1547.93 Q1172.59 1549.96 1174.15 1551.14 Q1175.71 1552.29 1180.42 1553.34 L1182.42 1553.78 Q1188.66 1555.12 1191.27 1557.57 Q1193.91 1559.99 1193.91 1564.35 Q1193.91 1569.32 1189.97 1572.21 Q1186.05 1575.11 1179.18 1575.11 Q1176.31 1575.11 1173.19 1574.54 Q1170.11 1573.99 1166.67 1572.88 L1166.67 1566.83 Q1169.91 1568.52 1173.07 1569.38 Q1176.22 1570.21 1179.3 1570.21 Q1183.44 1570.21 1185.67 1568.81 Q1187.9 1567.37 1187.9 1564.8 Q1187.9 1562.41 1186.27 1561.14 Q1184.68 1559.86 1179.24 1558.68 L1177.2 1558.21 Q1171.76 1557.06 1169.34 1554.71 Q1166.92 1552.32 1166.92 1548.18 Q1166.92 1543.15 1170.49 1540.42 Q1174.05 1537.68 1180.61 1537.68 Q1183.86 1537.68 1186.72 1538.16 Q1189.58 1538.63 1192 1539.59 Z" fill="#000000" fill-rule="nonzero" fill-opacity="1" /><path clip-path="url(#clip310)" d="M1203.24 1538.54 L1209.1 1538.54 L1209.1 1574.19 L1203.24 1574.19 L1203.24 1538.54 M1203.24 1524.66 L1209.1 1524.66 L1209.1 1532.08 L1203.24 1532.08 L1203.24 1524.66 Z" fill="#000000" fill-rule="nonzero" fill-opacity="1" /><path clip-path="url(#clip310)" d="M1235.16 1542.64 Q1230.45 1542.64 1227.71 1546.34 Q1224.98 1550 1224.98 1556.39 Q1224.98 1562.79 1227.68 1566.48 Q1230.42 1570.14 1235.16 1570.14 Q1239.84 1570.14 1242.58 1566.45 Q1245.32 1562.76 1245.32 1556.39 Q1245.32 1550.06 1242.58 1546.37 Q1239.84 1542.64 1235.16 1542.64 M1235.16 1537.68 Q1242.8 1537.68 1247.16 1542.64 Q1251.52 1547.61 1251.52 1556.39 Q1251.52 1565.15 1247.16 1570.14 Q1242.8 1575.11 1235.16 1575.11 Q1227.49 1575.11 1223.13 1570.14 Q1218.8 1565.15 1218.8 1556.39 Q1218.8 1547.61 1223.13 1542.64 Q1227.49 1537.68 1235.16 1537.68 Z" fill="#000000" fill-rule="nonzero" fill-opacity="1" /><path clip-path="url(#clip310)" d="M1290.86 1552.67 L1290.86 1574.19 L1285.01 1574.19 L1285.01 1552.86 Q1285.01 1547.8 1283.03 1545.29 Q1281.06 1542.77 1277.11 1542.77 Q1272.37 1542.77 1269.63 1545.79 Q1266.9 1548.82 1266.9 1554.04 L1266.9 1574.19 L1261.01 1574.19 L1261.01 1538.54 L1266.9 1538.54 L1266.9 1544.08 Q1269 1540.86 1271.83 1539.27 Q1274.69 1537.68 1278.42 1537.68 Q1284.56 1537.68 1287.71 1541.5 Q1290.86 1545.29 1290.86 1552.67 Z" fill="#000000" fill-rule="nonzero" fill-opacity="1" /><path clip-path="url(#clip310)" d="M1328.93 1568.84 L1328.93 1587.74 L1323.04 1587.74 L1323.04 1538.54 L1328.93 1538.54 L1328.93 1543.95 Q1330.78 1540.77 1333.58 1539.24 Q1336.41 1537.68 1340.32 1537.68 Q1346.82 1537.68 1350.86 1542.83 Q1354.93 1547.99 1354.93 1556.39 Q1354.93 1564.8 1350.86 1569.95 Q1346.82 1575.11 1340.32 1575.11 Q1336.41 1575.11 1333.58 1573.58 Q1330.78 1572.02 1328.93 1568.84 M1348.85 1556.39 Q1348.85 1549.93 1346.18 1546.27 Q1343.54 1542.58 1338.89 1542.58 Q1334.24 1542.58 1331.57 1546.27 Q1328.93 1549.93 1328.93 1556.39 Q1328.93 1562.85 1331.57 1566.55 Q1334.24 1570.21 1338.89 1570.21 Q1343.54 1570.21 1346.18 1566.55 Q1348.85 1562.85 1348.85 1556.39 Z" fill="#000000" fill-rule="nonzero" fill-opacity="1" /><path clip-path="url(#clip310)" d="M1380.84 1556.27 Q1373.74 1556.27 1371.01 1557.89 Q1368.27 1559.51 1368.27 1563.43 Q1368.27 1566.55 1370.31 1568.39 Q1372.38 1570.21 1375.91 1570.21 Q1380.78 1570.21 1383.71 1566.77 Q1386.67 1563.3 1386.67 1557.57 L1386.67 1556.27 L1380.84 1556.27 M1392.52 1553.85 L1392.52 1574.19 L1386.67 1574.19 L1386.67 1568.77 Q1384.66 1572.02 1381.67 1573.58 Q1378.68 1575.11 1374.35 1575.11 Q1368.87 1575.11 1365.63 1572.05 Q1362.41 1568.97 1362.41 1563.81 Q1362.41 1557.79 1366.42 1554.74 Q1370.47 1551.68 1378.45 1551.68 L1386.67 1551.68 L1386.67 1551.11 Q1386.67 1547.07 1383.99 1544.87 Q1381.35 1542.64 1376.54 1542.64 Q1373.49 1542.64 1370.59 1543.38 Q1367.7 1544.11 1365.02 1545.57 L1365.02 1540.16 Q1368.24 1538.92 1371.26 1538.31 Q1374.29 1537.68 1377.15 1537.68 Q1384.88 1537.68 1388.7 1541.69 Q1392.52 1545.7 1392.52 1553.85 Z" fill="#000000" fill-rule="nonzero" fill-opacity="1" /><path clip-path="url(#clip310)" d="M1425.24 1544.01 Q1424.26 1543.44 1423.08 1543.18 Q1421.93 1542.9 1420.53 1542.9 Q1415.57 1542.9 1412.89 1546.14 Q1410.25 1549.36 1410.25 1555.41 L1410.25 1574.19 L1404.36 1574.19 L1404.36 1538.54 L1410.25 1538.54 L1410.25 1544.08 Q1412.1 1540.83 1415.06 1539.27 Q1418.02 1537.68 1422.25 1537.68 Q1422.86 1537.68 1423.59 1537.77 Q1424.32 1537.84 1425.21 1538 L1425.24 1544.01 Z" fill="#000000" fill-rule="nonzero" fill-opacity="1" /><path clip-path="url(#clip310)" d="M1447.59 1556.27 Q1440.49 1556.27 1437.75 1557.89 Q1435.01 1559.51 1435.01 1563.43 Q1435.01 1566.55 1437.05 1568.39 Q1439.12 1570.21 1442.65 1570.21 Q1447.52 1570.21 1450.45 1566.77 Q1453.41 1563.3 1453.41 1557.57 L1453.41 1556.27 L1447.59 1556.27 M1459.27 1553.85 L1459.27 1574.19 L1453.41 1574.19 L1453.41 1568.77 Q1451.41 1572.02 1448.41 1573.58 Q1445.42 1575.11 1441.09 1575.11 Q1435.62 1575.11 1432.37 1572.05 Q1429.16 1568.97 1429.16 1563.81 Q1429.16 1557.79 1433.17 1554.74 Q1437.21 1551.68 1445.2 1551.68 L1453.41 1551.68 L1453.41 1551.11 Q1453.41 1547.07 1450.74 1544.87 Q1448.1 1542.64 1443.29 1542.64 Q1440.23 1542.64 1437.34 1543.38 Q1434.44 1544.11 1431.77 1545.57 L1431.77 1540.16 Q1434.98 1538.92 1438.01 1538.31 Q1441.03 1537.68 1443.89 1537.68 Q1451.63 1537.68 1455.45 1541.69 Q1459.27 1545.7 1459.27 1553.85 Z" fill="#000000" fill-rule="nonzero" fill-opacity="1" /><path clip-path="url(#clip310)" d="M1499.08 1545.38 Q1501.28 1541.43 1504.34 1539.56 Q1507.39 1537.68 1511.53 1537.68 Q1517.1 1537.68 1520.12 1541.59 Q1523.15 1545.48 1523.15 1552.67 L1523.15 1574.19 L1517.26 1574.19 L1517.26 1552.86 Q1517.26 1547.74 1515.44 1545.25 Q1513.63 1542.77 1509.91 1542.77 Q1505.36 1542.77 1502.71 1545.79 Q1500.07 1548.82 1500.07 1554.04 L1500.07 1574.19 L1494.18 1574.19 L1494.18 1552.86 Q1494.18 1547.7 1492.37 1545.25 Q1490.55 1542.77 1486.77 1542.77 Q1482.28 1542.77 1479.64 1545.83 Q1477 1548.85 1477 1554.04 L1477 1574.19 L1471.11 1574.19 L1471.11 1538.54 L1477 1538.54 L1477 1544.08 Q1479 1540.8 1481.8 1539.24 Q1484.6 1537.68 1488.45 1537.68 Q1492.34 1537.68 1495.04 1539.65 Q1497.78 1541.62 1499.08 1545.38 Z" fill="#000000" fill-rule="nonzero" fill-opacity="1" /><path clip-path="url(#clip310)" d="M1565.32 1554.9 L1565.32 1557.76 L1538.39 1557.76 Q1538.78 1563.81 1542.02 1566.99 Q1545.3 1570.14 1551.12 1570.14 Q1554.5 1570.14 1557.65 1569.32 Q1560.83 1568.49 1563.95 1566.83 L1563.95 1572.37 Q1560.8 1573.71 1557.49 1574.41 Q1554.18 1575.11 1550.77 1575.11 Q1542.24 1575.11 1537.25 1570.14 Q1532.28 1565.18 1532.28 1556.71 Q1532.28 1547.96 1536.99 1542.83 Q1541.74 1537.68 1549.76 1537.68 Q1556.95 1537.68 1561.12 1542.33 Q1565.32 1546.94 1565.32 1554.9 M1559.46 1553.18 Q1559.4 1548.37 1556.76 1545.51 Q1554.15 1542.64 1549.82 1542.64 Q1544.92 1542.64 1541.96 1545.41 Q1539.03 1548.18 1538.58 1553.21 L1559.46 1553.18 Z" fill="#000000" fill-rule="nonzero" fill-opacity="1" /><path clip-path="url(#clip310)" d="M1580.73 1528.42 L1580.73 1538.54 L1592.79 1538.54 L1592.79 1543.09 L1580.73 1543.09 L1580.73 1562.44 Q1580.73 1566.8 1581.9 1568.04 Q1583.11 1569.28 1586.77 1569.28 L1592.79 1569.28 L1592.79 1574.19 L1586.77 1574.19 Q1579.99 1574.19 1577.41 1571.67 Q1574.84 1569.12 1574.84 1562.44 L1574.84 1543.09 L1570.54 1543.09 L1570.54 1538.54 L1574.84 1538.54 L1574.84 1528.42 L1580.73 1528.42 Z" fill="#000000" fill-rule="nonzero" fill-opacity="1" /><path clip-path="url(#clip310)" d="M1630.98 1554.9 L1630.98 1557.76 L1604.06 1557.76 Q1604.44 1563.81 1607.68 1566.99 Q1610.96 1570.14 1616.79 1570.14 Q1620.16 1570.14 1623.31 1569.32 Q1626.49 1568.49 1629.61 1566.83 L1629.61 1572.37 Q1626.46 1573.71 1623.15 1574.41 Q1619.84 1575.11 1616.44 1575.11 Q1607.91 1575.11 1602.91 1570.14 Q1597.94 1565.18 1597.94 1556.71 Q1597.94 1547.96 1602.65 1542.83 Q1607.4 1537.68 1615.42 1537.68 Q1622.61 1537.68 1626.78 1542.33 Q1630.98 1546.94 1630.98 1554.9 M1625.13 1553.18 Q1625.06 1548.37 1622.42 1545.51 Q1619.81 1542.64 1615.48 1542.64 Q1610.58 1542.64 1607.62 1545.41 Q1604.69 1548.18 1604.25 1553.21 L1625.13 1553.18 Z" fill="#000000" fill-rule="nonzero" fill-opacity="1" /><path clip-path="url(#clip310)" d="M1661.25 1544.01 Q1660.26 1543.44 1659.09 1543.18 Q1657.94 1542.9 1656.54 1542.9 Q1651.58 1542.9 1648.9 1546.14 Q1646.26 1549.36 1646.26 1555.41 L1646.26 1574.19 L1640.37 1574.19 L1640.37 1538.54 L1646.26 1538.54 L1646.26 1544.08 Q1648.11 1540.83 1651.07 1539.27 Q1654.03 1537.68 1658.26 1537.68 Q1658.86 1537.68 1659.6 1537.77 Q1660.33 1537.84 1661.22 1538 L1661.25 1544.01 Z" fill="#000000" fill-rule="nonzero" fill-opacity="1" /><path clip-path="url(#clip310)" d="M1693.46 1544.14 L1701.26 1566.16 L1712.4 1538.54 L1718.61 1538.54 L1704.19 1574.19 L1704.19 1587.74 L1698.33 1587.74 L1698.33 1574.19 L1688.97 1547.58 Q1687.57 1543.57 1684.55 1543.57 L1682.99 1543.57 L1682.99 1538.54 L1685.22 1538.54 Q1691.49 1538.54 1693.46 1544.14 Z" fill="#000000" fill-rule="nonzero" fill-opacity="1" /><polyline clip-path="url(#clip310)" style="stroke:#000000; stroke-linecap:round; stroke-linejoin:round; stroke-width:4; stroke-opacity:1; fill:none" points="234.125,1410.9 234.125,47.2441 "/>
<polyline clip-path="url(#clip310)" style="stroke:#000000; stroke-linecap:round; stroke-linejoin:round; stroke-width:4; stroke-opacity:1; fill:none" points="234.125,1237.49 253.023,1237.49 "/>
<polyline clip-path="url(#clip310)" style="stroke:#000000; stroke-linecap:round; stroke-linejoin:round; stroke-width:4; stroke-opacity:1; fill:none" points="234.125,987.953 253.023,987.953 "/>
<polyline clip-path="url(#clip310)" style="stroke:#000000; stroke-linecap:round; stroke-linejoin:round; stroke-width:4; stroke-opacity:1; fill:none" points="234.125,738.417 253.023,738.417 "/>
<polyline clip-path="url(#clip310)" style="stroke:#000000; stroke-linecap:round; stroke-linejoin:round; stroke-width:4; stroke-opacity:1; fill:none" points="234.125,488.881 253.023,488.881 "/>
<polyline clip-path="url(#clip310)" style="stroke:#000000; stroke-linecap:round; stroke-linejoin:round; stroke-width:4; stroke-opacity:1; fill:none" points="234.125,239.344 253.023,239.344 "/>
<path clip-path="url(#clip310)" d="M116.668 1250.83 L124.306 1250.83 L124.306 1224.47 L115.996 1226.13 L115.996 1221.88 L124.26 1220.21 L128.936 1220.21 L128.936 1250.83 L136.575 1250.83 L136.575 1254.77 L116.668 1254.77 L116.668 1250.83 Z" fill="#000000" fill-rule="nonzero" fill-opacity="1" /><path clip-path="url(#clip310)" d="M156.598 1235.63 Q153.45 1235.63 151.598 1237.78 Q149.769 1239.93 149.769 1243.68 Q149.769 1247.41 151.598 1249.58 Q153.45 1251.74 156.598 1251.74 Q159.746 1251.74 161.575 1249.58 Q163.427 1247.41 163.427 1243.68 Q163.427 1239.93 161.575 1237.78 Q159.746 1235.63 156.598 1235.63 M165.88 1220.97 L165.88 1225.23 Q164.121 1224.4 162.315 1223.96 Q160.533 1223.52 158.774 1223.52 Q154.144 1223.52 151.691 1226.64 Q149.26 1229.77 148.913 1236.09 Q150.278 1234.07 152.339 1233.01 Q154.399 1231.92 156.876 1231.92 Q162.084 1231.92 165.093 1235.09 Q168.126 1238.24 168.126 1243.68 Q168.126 1249.01 164.977 1252.22 Q161.829 1255.44 156.598 1255.44 Q150.603 1255.44 147.431 1250.86 Q144.26 1246.25 144.26 1237.52 Q144.26 1229.33 148.149 1224.47 Q152.038 1219.58 158.589 1219.58 Q160.348 1219.58 162.13 1219.93 Q163.936 1220.28 165.88 1220.97 Z" fill="#000000" fill-rule="nonzero" fill-opacity="1" /><path clip-path="url(#clip310)" d="M186.181 1223.29 Q182.57 1223.29 180.741 1226.85 Q178.936 1230.39 178.936 1237.52 Q178.936 1244.63 180.741 1248.19 Q182.57 1251.74 186.181 1251.74 Q189.815 1251.74 191.621 1248.19 Q193.45 1244.63 193.45 1237.52 Q193.45 1230.39 191.621 1226.85 Q189.815 1223.29 186.181 1223.29 M186.181 1219.58 Q191.991 1219.58 195.047 1224.19 Q198.125 1228.77 198.125 1237.52 Q198.125 1246.25 195.047 1250.86 Q191.991 1255.44 186.181 1255.44 Q180.371 1255.44 177.292 1250.86 Q174.237 1246.25 174.237 1237.52 Q174.237 1228.77 177.292 1224.19 Q180.371 1219.58 186.181 1219.58 Z" fill="#000000" fill-rule="nonzero" fill-opacity="1" /><path clip-path="url(#clip310)" d="M116.668 1001.3 L124.306 1001.3 L124.306 974.932 L115.996 976.599 L115.996 972.339 L124.26 970.673 L128.936 970.673 L128.936 1001.3 L136.575 1001.3 L136.575 1005.23 L116.668 1005.23 L116.668 1001.3 Z" fill="#000000" fill-rule="nonzero" fill-opacity="1" /><path clip-path="url(#clip310)" d="M144.839 970.673 L167.061 970.673 L167.061 972.664 L154.515 1005.23 L149.63 1005.23 L161.436 974.608 L144.839 974.608 L144.839 970.673 Z" fill="#000000" fill-rule="nonzero" fill-opacity="1" /><path clip-path="url(#clip310)" d="M186.181 973.751 Q182.57 973.751 180.741 977.316 Q178.936 980.858 178.936 987.988 Q178.936 995.094 180.741 998.659 Q182.57 1002.2 186.181 1002.2 Q189.815 1002.2 191.621 998.659 Q193.45 995.094 193.45 987.988 Q193.45 980.858 191.621 977.316 Q189.815 973.751 186.181 973.751 M186.181 970.048 Q191.991 970.048 195.047 974.654 Q198.125 979.238 198.125 987.988 Q198.125 996.714 195.047 1001.32 Q191.991 1005.9 186.181 1005.9 Q180.371 1005.9 177.292 1001.32 Q174.237 996.714 174.237 987.988 Q174.237 979.238 177.292 974.654 Q180.371 970.048 186.181 970.048 Z" fill="#000000" fill-rule="nonzero" fill-opacity="1" /><path clip-path="url(#clip310)" d="M116.668 751.762 L124.306 751.762 L124.306 725.396 L115.996 727.063 L115.996 722.803 L124.26 721.137 L128.936 721.137 L128.936 751.762 L136.575 751.762 L136.575 755.697 L116.668 755.697 L116.668 751.762 Z" fill="#000000" fill-rule="nonzero" fill-opacity="1" /><path clip-path="url(#clip310)" d="M156.019 739.285 Q152.686 739.285 150.765 741.067 Q148.866 742.85 148.866 745.974 Q148.866 749.099 150.765 750.882 Q152.686 752.664 156.019 752.664 Q159.353 752.664 161.274 750.882 Q163.195 749.076 163.195 745.974 Q163.195 742.85 161.274 741.067 Q159.376 739.285 156.019 739.285 M151.343 737.294 Q148.334 736.553 146.644 734.493 Q144.978 732.433 144.978 729.47 Q144.978 725.326 147.917 722.919 Q150.88 720.512 156.019 720.512 Q161.181 720.512 164.121 722.919 Q167.061 725.326 167.061 729.47 Q167.061 732.433 165.371 734.493 Q163.704 736.553 160.718 737.294 Q164.098 738.081 165.973 740.373 Q167.871 742.664 167.871 745.974 Q167.871 750.998 164.792 753.683 Q161.737 756.368 156.019 756.368 Q150.302 756.368 147.223 753.683 Q144.167 750.998 144.167 745.974 Q144.167 742.664 146.066 740.373 Q147.964 738.081 151.343 737.294 M149.63 729.91 Q149.63 732.595 151.297 734.1 Q152.987 735.604 156.019 735.604 Q159.028 735.604 160.718 734.1 Q162.431 732.595 162.431 729.91 Q162.431 727.225 160.718 725.72 Q159.028 724.215 156.019 724.215 Q152.987 724.215 151.297 725.72 Q149.63 727.225 149.63 729.91 Z" fill="#000000" fill-rule="nonzero" fill-opacity="1" /><path clip-path="url(#clip310)" d="M186.181 724.215 Q182.57 724.215 180.741 727.78 Q178.936 731.322 178.936 738.451 Q178.936 745.558 180.741 749.123 Q182.57 752.664 186.181 752.664 Q189.815 752.664 191.621 749.123 Q193.45 745.558 193.45 738.451 Q193.45 731.322 191.621 727.78 Q189.815 724.215 186.181 724.215 M186.181 720.512 Q191.991 720.512 195.047 725.118 Q198.125 729.701 198.125 738.451 Q198.125 747.178 195.047 751.785 Q191.991 756.368 186.181 756.368 Q180.371 756.368 177.292 751.785 Q174.237 747.178 174.237 738.451 Q174.237 729.701 177.292 725.118 Q180.371 720.512 186.181 720.512 Z" fill="#000000" fill-rule="nonzero" fill-opacity="1" /><path clip-path="url(#clip310)" d="M116.668 502.225 L124.306 502.225 L124.306 475.86 L115.996 477.526 L115.996 473.267 L124.26 471.601 L128.936 471.601 L128.936 502.225 L136.575 502.225 L136.575 506.161 L116.668 506.161 L116.668 502.225 Z" fill="#000000" fill-rule="nonzero" fill-opacity="1" /><path clip-path="url(#clip310)" d="M146.158 505.443 L146.158 501.184 Q147.917 502.017 149.723 502.457 Q151.528 502.897 153.265 502.897 Q157.894 502.897 160.325 499.795 Q162.778 496.67 163.126 490.327 Q161.783 492.318 159.723 493.383 Q157.663 494.448 155.163 494.448 Q149.978 494.448 146.945 491.323 Q143.936 488.175 143.936 482.735 Q143.936 477.411 147.084 474.193 Q150.232 470.976 155.464 470.976 Q161.459 470.976 164.607 475.582 Q167.778 480.165 167.778 488.915 Q167.778 497.086 163.89 501.971 Q160.024 506.832 153.473 506.832 Q151.714 506.832 149.908 506.485 Q148.103 506.137 146.158 505.443 M155.464 490.79 Q158.612 490.79 160.44 488.637 Q162.292 486.485 162.292 482.735 Q162.292 479.008 160.44 476.855 Q158.612 474.679 155.464 474.679 Q152.316 474.679 150.464 476.855 Q148.635 479.008 148.635 482.735 Q148.635 486.485 150.464 488.637 Q152.316 490.79 155.464 490.79 Z" fill="#000000" fill-rule="nonzero" fill-opacity="1" /><path clip-path="url(#clip310)" d="M186.181 474.679 Q182.57 474.679 180.741 478.244 Q178.936 481.786 178.936 488.915 Q178.936 496.022 180.741 499.586 Q182.57 503.128 186.181 503.128 Q189.815 503.128 191.621 499.586 Q193.45 496.022 193.45 488.915 Q193.45 481.786 191.621 478.244 Q189.815 474.679 186.181 474.679 M186.181 470.976 Q191.991 470.976 195.047 475.582 Q198.125 480.165 198.125 488.915 Q198.125 497.642 195.047 502.249 Q191.991 506.832 186.181 506.832 Q180.371 506.832 177.292 502.249 Q174.237 497.642 174.237 488.915 Q174.237 480.165 177.292 475.582 Q180.371 470.976 186.181 470.976 Z" fill="#000000" fill-rule="nonzero" fill-opacity="1" /><path clip-path="url(#clip310)" d="M119.885 252.689 L136.204 252.689 L136.204 256.624 L114.26 256.624 L114.26 252.689 Q116.922 249.935 121.505 245.305 Q126.112 240.652 127.292 239.31 Q129.538 236.787 130.417 235.05 Q131.32 233.291 131.32 231.601 Q131.32 228.847 129.376 227.111 Q127.455 225.375 124.353 225.375 Q122.154 225.375 119.7 226.138 Q117.269 226.902 114.492 228.453 L114.492 223.731 Q117.316 222.597 119.769 222.018 Q122.223 221.439 124.26 221.439 Q129.63 221.439 132.825 224.125 Q136.019 226.81 136.019 231.3 Q136.019 233.43 135.209 235.351 Q134.422 237.249 132.316 239.842 Q131.737 240.513 128.635 243.731 Q125.533 246.925 119.885 252.689 Z" fill="#000000" fill-rule="nonzero" fill-opacity="1" /><path clip-path="url(#clip310)" d="M156.019 225.143 Q152.408 225.143 150.579 228.708 Q148.774 232.25 148.774 239.379 Q148.774 246.486 150.579 250.05 Q152.408 253.592 156.019 253.592 Q159.653 253.592 161.459 250.05 Q163.288 246.486 163.288 239.379 Q163.288 232.25 161.459 228.708 Q159.653 225.143 156.019 225.143 M156.019 221.439 Q161.829 221.439 164.885 226.046 Q167.964 230.629 167.964 239.379 Q167.964 248.106 164.885 252.712 Q161.829 257.296 156.019 257.296 Q150.209 257.296 147.13 252.712 Q144.075 248.106 144.075 239.379 Q144.075 230.629 147.13 226.046 Q150.209 221.439 156.019 221.439 Z" fill="#000000" fill-rule="nonzero" fill-opacity="1" /><path clip-path="url(#clip310)" d="M186.181 225.143 Q182.57 225.143 180.741 228.708 Q178.936 232.25 178.936 239.379 Q178.936 246.486 180.741 250.05 Q182.57 253.592 186.181 253.592 Q189.815 253.592 191.621 250.05 Q193.45 246.486 193.45 239.379 Q193.45 232.25 191.621 228.708 Q189.815 225.143 186.181 225.143 M186.181 221.439 Q191.991 221.439 195.047 226.046 Q198.125 230.629 198.125 239.379 Q198.125 248.106 195.047 252.712 Q191.991 257.296 186.181 257.296 Q180.371 257.296 177.292 252.712 Q174.237 248.106 174.237 239.379 Q174.237 230.629 177.292 226.046 Q180.371 221.439 186.181 221.439 Z" fill="#000000" fill-rule="nonzero" fill-opacity="1" /><path clip-path="url(#clip310)" d="M16.4842 1116.9 L16.4842 1108.24 L56.238 1087.17 L16.4842 1087.17 L16.4842 1080.93 L64.0042 1080.93 L64.0042 1089.59 L24.2503 1110.66 L64.0042 1110.66 L64.0042 1116.9 L16.4842 1116.9 Z" fill="#000000" fill-rule="nonzero" fill-opacity="1" /><path clip-path="url(#clip310)" d="M49.9359 1069 L28.3562 1069 L28.3562 1063.14 L49.7131 1063.14 Q54.7739 1063.14 57.3202 1061.17 Q59.8346 1059.2 59.8346 1055.25 Q59.8346 1050.51 56.8109 1047.77 Q53.7872 1045 48.5673 1045 L28.3562 1045 L28.3562 1039.14 L64.0042 1039.14 L64.0042 1045 L58.5296 1045 Q61.7762 1047.13 63.3676 1049.97 Q64.9272 1052.77 64.9272 1056.49 Q64.9272 1062.63 61.1078 1065.82 Q57.2883 1069 49.9359 1069 M27.4968 1054.26 L27.4968 1054.26 Z" fill="#000000" fill-rule="nonzero" fill-opacity="1" /><path clip-path="url(#clip310)" d="M35.1993 999.326 Q31.2526 997.13 29.3747 994.075 Q27.4968 991.019 27.4968 986.881 Q27.4968 981.311 31.4117 978.288 Q35.2948 975.264 42.4881 975.264 L64.0042 975.264 L64.0042 981.152 L42.679 981.152 Q37.5546 981.152 35.072 982.967 Q32.5894 984.781 32.5894 988.505 Q32.5894 993.056 35.6131 995.698 Q38.6368 998.34 43.8567 998.34 L64.0042 998.34 L64.0042 1004.23 L42.679 1004.23 Q37.5228 1004.23 35.072 1006.04 Q32.5894 1007.86 32.5894 1011.64 Q32.5894 1016.13 35.6449 1018.77 Q38.6686 1021.42 43.8567 1021.42 L64.0042 1021.42 L64.0042 1027.3 L28.3562 1027.3 L28.3562 1021.42 L33.8944 1021.42 Q30.616 1019.41 29.0564 1016.61 Q27.4968 1013.81 27.4968 1009.96 Q27.4968 1006.07 29.4702 1003.37 Q31.4436 1000.63 35.1993 999.326 Z" fill="#000000" fill-rule="nonzero" fill-opacity="1" /><path clip-path="url(#clip310)" d="M46.212 937.993 Q39.7508 937.993 36.0905 940.666 Q32.3984 943.308 32.3984 947.955 Q32.3984 952.602 36.0905 955.276 Q39.7508 957.918 46.212 957.918 Q52.6732 957.918 56.3653 955.276 Q60.0256 952.602 60.0256 947.955 Q60.0256 943.308 56.3653 940.666 Q52.6732 937.993 46.212 937.993 M33.7671 957.918 Q30.5842 956.071 29.0564 953.271 Q27.4968 950.438 27.4968 946.523 Q27.4968 940.03 32.6531 935.988 Q37.8093 931.914 46.212 931.914 Q54.6147 931.914 59.771 935.988 Q64.9272 940.03 64.9272 946.523 Q64.9272 950.438 63.3994 953.271 Q61.8398 956.071 58.657 957.918 L64.0042 957.918 L64.0042 963.806 L14.479 963.806 L14.479 957.918 L33.7671 957.918 Z" fill="#000000" fill-rule="nonzero" fill-opacity="1" /><path clip-path="url(#clip310)" d="M44.7161 891.714 L47.5806 891.714 L47.5806 918.641 Q53.6281 918.259 56.8109 915.013 Q59.9619 911.734 59.9619 905.91 Q59.9619 902.536 59.1344 899.385 Q58.3069 896.202 56.6518 893.083 L62.1899 893.083 Q63.5267 896.234 64.227 899.544 Q64.9272 902.854 64.9272 906.26 Q64.9272 914.79 59.9619 919.787 Q54.9967 924.752 46.5303 924.752 Q37.7774 924.752 32.6531 920.042 Q27.4968 915.299 27.4968 907.278 Q27.4968 900.085 32.1438 895.916 Q36.7589 891.714 44.7161 891.714 M42.9973 897.571 Q38.1912 897.634 35.3266 900.276 Q32.4621 902.886 32.4621 907.215 Q32.4621 912.116 35.2312 915.076 Q38.0002 918.005 43.0292 918.45 L42.9973 897.571 Z" fill="#000000" fill-rule="nonzero" fill-opacity="1" /><path clip-path="url(#clip310)" d="M33.8307 861.445 Q33.2578 862.432 33.0032 863.61 Q32.7167 864.755 32.7167 866.156 Q32.7167 871.121 35.9632 873.795 Q39.1779 876.436 45.2253 876.436 L64.0042 876.436 L64.0042 882.325 L28.3562 882.325 L28.3562 876.436 L33.8944 876.436 Q30.6479 874.59 29.0883 871.63 Q27.4968 868.67 27.4968 864.437 Q27.4968 863.832 27.5923 863.1 Q27.656 862.368 27.8151 861.477 L33.8307 861.445 Z" fill="#000000" fill-rule="nonzero" fill-opacity="1" /><path clip-path="url(#clip310)" d="M32.4621 820.768 Q32.4621 825.479 36.1542 828.216 Q39.8145 830.954 46.212 830.954 Q52.6095 830.954 56.3017 828.248 Q59.9619 825.511 59.9619 820.768 Q59.9619 816.09 56.2698 813.352 Q52.5777 810.615 46.212 810.615 Q39.8781 810.615 36.186 813.352 Q32.4621 816.09 32.4621 820.768 M27.4968 820.768 Q27.4968 813.13 32.4621 808.769 Q37.4273 804.409 46.212 804.409 Q54.9649 804.409 59.9619 808.769 Q64.9272 813.13 64.9272 820.768 Q64.9272 828.439 59.9619 832.8 Q54.9649 837.128 46.212 837.128 Q37.4273 837.128 32.4621 832.8 Q27.4968 828.439 27.4968 820.768 Z" fill="#000000" fill-rule="nonzero" fill-opacity="1" /><path clip-path="url(#clip310)" d="M14.479 776.654 L19.3487 776.654 L19.3487 782.256 Q19.3487 785.407 20.6219 786.648 Q21.895 787.858 25.2052 787.858 L28.3562 787.858 L28.3562 778.214 L32.9077 778.214 L32.9077 787.858 L64.0042 787.858 L64.0042 793.746 L32.9077 793.746 L32.9077 799.348 L28.3562 799.348 L28.3562 793.746 L25.8736 793.746 Q19.9216 793.746 17.2162 790.977 Q14.479 788.208 14.479 782.192 L14.479 776.654 Z" fill="#000000" fill-rule="nonzero" fill-opacity="1" /><path clip-path="url(#clip310)" d="M58.657 745.367 L77.5631 745.367 L77.5631 751.255 L28.3562 751.255 L28.3562 745.367 L33.7671 745.367 Q30.5842 743.521 29.0564 740.72 Q27.4968 737.887 27.4968 733.972 Q27.4968 727.479 32.6531 723.437 Q37.8093 719.363 46.212 719.363 Q54.6147 719.363 59.771 723.437 Q64.9272 727.479 64.9272 733.972 Q64.9272 737.887 63.3994 740.72 Q61.8398 743.521 58.657 745.367 M46.212 725.442 Q39.7508 725.442 36.0905 728.116 Q32.3984 730.757 32.3984 735.404 Q32.3984 740.051 36.0905 742.725 Q39.7508 745.367 46.212 745.367 Q52.6732 745.367 56.3653 742.725 Q60.0256 740.051 60.0256 735.404 Q60.0256 730.757 56.3653 728.116 Q52.6732 725.442 46.212 725.442 Z" fill="#000000" fill-rule="nonzero" fill-opacity="1" /><path clip-path="url(#clip310)" d="M28.3562 709.655 L28.3562 703.799 L64.0042 703.799 L64.0042 709.655 L28.3562 709.655 M14.479 709.655 L14.479 703.799 L21.895 703.799 L21.895 709.655 L14.479 709.655 Z" fill="#000000" fill-rule="nonzero" fill-opacity="1" /><path clip-path="url(#clip310)" d="M44.7161 661.053 L47.5806 661.053 L47.5806 687.98 Q53.6281 687.598 56.8109 684.351 Q59.9619 681.073 59.9619 675.248 Q59.9619 671.874 59.1344 668.723 Q58.3069 665.541 56.6518 662.421 L62.1899 662.421 Q63.5267 665.572 64.227 668.883 Q64.9272 672.193 64.9272 675.598 Q64.9272 684.128 59.9619 689.126 Q54.9967 694.091 46.5303 694.091 Q37.7774 694.091 32.6531 689.38 Q27.4968 684.638 27.4968 676.617 Q27.4968 669.424 32.1438 665.254 Q36.7589 661.053 44.7161 661.053 M42.9973 666.909 Q38.1912 666.973 35.3266 669.615 Q32.4621 672.225 32.4621 676.553 Q32.4621 681.455 35.2312 684.415 Q38.0002 687.343 43.0292 687.789 L42.9973 666.909 Z" fill="#000000" fill-rule="nonzero" fill-opacity="1" /><path clip-path="url(#clip310)" d="M29.4065 628.715 L34.9447 628.715 Q33.6716 631.198 33.035 633.871 Q32.3984 636.545 32.3984 639.409 Q32.3984 643.77 33.7352 645.966 Q35.072 648.13 37.7456 648.13 Q39.7826 648.13 40.9603 646.571 Q42.1061 645.011 43.1565 640.301 L43.6021 638.295 Q44.9389 632.057 47.3897 629.447 Q49.8086 626.805 54.1691 626.805 Q59.1344 626.805 62.0308 630.752 Q64.9272 634.667 64.9272 641.542 Q64.9272 644.406 64.3543 647.526 Q63.8132 650.613 62.6992 654.051 L56.6518 654.051 Q58.3387 650.804 59.198 647.653 Q60.0256 644.502 60.0256 641.415 Q60.0256 637.277 58.6251 635.049 Q57.1929 632.821 54.6147 632.821 Q52.2276 632.821 50.9545 634.444 Q49.6813 636.036 48.5037 641.478 L48.0262 643.515 Q46.8804 648.958 44.5251 651.377 Q42.138 653.796 38.0002 653.796 Q32.9713 653.796 30.2341 650.231 Q27.4968 646.666 27.4968 640.11 Q27.4968 636.863 27.9743 633.999 Q28.4517 631.134 29.4065 628.715 Z" fill="#000000" fill-rule="nonzero" fill-opacity="1" /><path clip-path="url(#clip310)" d="M18.2347 590.966 L28.3562 590.966 L28.3562 578.903 L32.9077 578.903 L32.9077 590.966 L52.2594 590.966 Q56.6199 590.966 57.8613 589.789 Q59.1026 588.579 59.1026 584.919 L59.1026 578.903 L64.0042 578.903 L64.0042 584.919 Q64.0042 591.698 61.4897 594.277 Q58.9434 596.855 52.2594 596.855 L32.9077 596.855 L32.9077 601.151 L28.3562 601.151 L28.3562 596.855 L18.2347 596.855 L18.2347 590.966 Z" fill="#000000" fill-rule="nonzero" fill-opacity="1" /><path clip-path="url(#clip310)" d="M32.4621 557.387 Q32.4621 562.098 36.1542 564.835 Q39.8145 567.572 46.212 567.572 Q52.6095 567.572 56.3017 564.867 Q59.9619 562.13 59.9619 557.387 Q59.9619 552.708 56.2698 549.971 Q52.5777 547.234 46.212 547.234 Q39.8781 547.234 36.186 549.971 Q32.4621 552.708 32.4621 557.387 M27.4968 557.387 Q27.4968 549.748 32.4621 545.388 Q37.4273 541.027 46.212 541.027 Q54.9649 541.027 59.9619 545.388 Q64.9272 549.748 64.9272 557.387 Q64.9272 565.058 59.9619 569.418 Q54.9649 573.747 46.212 573.747 Q37.4273 573.747 32.4621 569.418 Q27.4968 565.058 27.4968 557.387 Z" fill="#000000" fill-rule="nonzero" fill-opacity="1" /><path clip-path="url(#clip310)" d="M35.1993 482.845 Q31.2526 480.649 29.3747 477.593 Q27.4968 474.538 27.4968 470.4 Q27.4968 464.83 31.4117 461.806 Q35.2948 458.782 42.4881 458.782 L64.0042 458.782 L64.0042 464.671 L42.679 464.671 Q37.5546 464.671 35.072 466.485 Q32.5894 468.299 32.5894 472.023 Q32.5894 476.575 35.6131 479.216 Q38.6368 481.858 43.8567 481.858 L64.0042 481.858 L64.0042 487.746 L42.679 487.746 Q37.5228 487.746 35.072 489.561 Q32.5894 491.375 32.5894 495.162 Q32.5894 499.65 35.6449 502.292 Q38.6686 504.934 43.8567 504.934 L64.0042 504.934 L64.0042 510.822 L28.3562 510.822 L28.3562 504.934 L33.8944 504.934 Q30.616 502.929 29.0564 500.128 Q27.4968 497.327 27.4968 493.476 Q27.4968 489.592 29.4702 486.887 Q31.4436 484.15 35.1993 482.845 Z" fill="#000000" fill-rule="nonzero" fill-opacity="1" /><path clip-path="url(#clip310)" d="M46.0847 430.901 Q46.0847 437.998 47.7079 440.736 Q49.3312 443.473 53.2461 443.473 Q56.3653 443.473 58.2114 441.436 Q60.0256 439.367 60.0256 435.834 Q60.0256 430.964 56.5881 428.036 Q53.1188 425.076 47.3897 425.076 L46.0847 425.076 L46.0847 430.901 M43.6657 419.22 L64.0042 419.22 L64.0042 425.076 L58.5933 425.076 Q61.8398 427.081 63.3994 430.073 Q64.9272 433.065 64.9272 437.394 Q64.9272 442.868 61.8716 446.115 Q58.7843 449.329 53.6281 449.329 Q47.6125 449.329 44.5569 445.319 Q41.5014 441.277 41.5014 433.288 L41.5014 425.076 L40.9285 425.076 Q36.8862 425.076 34.6901 427.75 Q32.4621 430.391 32.4621 435.198 Q32.4621 438.253 33.1941 441.149 Q33.9262 444.046 35.3903 446.719 L29.9795 446.719 Q28.7381 443.505 28.1334 440.481 Q27.4968 437.457 27.4968 434.593 Q27.4968 426.858 31.5072 423.039 Q35.5176 419.22 43.6657 419.22 Z" fill="#000000" fill-rule="nonzero" fill-opacity="1" /><path clip-path="url(#clip310)" d="M14.479 407.379 L14.479 401.491 L43.7294 401.491 L28.3562 384.017 L28.3562 376.538 L45.0344 395.444 L64.0042 375.742 L64.0042 383.381 L46.5939 401.491 L64.0042 401.491 L64.0042 407.379 L14.479 407.379 Z" fill="#000000" fill-rule="nonzero" fill-opacity="1" /><path clip-path="url(#clip310)" d="M44.7161 341.24 L47.5806 341.24 L47.5806 368.167 Q53.6281 367.785 56.8109 364.538 Q59.9619 361.26 59.9619 355.435 Q59.9619 352.061 59.1344 348.91 Q58.3069 345.728 56.6518 342.608 L62.1899 342.608 Q63.5267 345.759 64.227 349.07 Q64.9272 352.38 64.9272 355.785 Q64.9272 364.315 59.9619 369.312 Q54.9967 374.278 46.5303 374.278 Q37.7774 374.278 32.6531 369.567 Q27.4968 364.825 27.4968 356.804 Q27.4968 349.611 32.1438 345.441 Q36.7589 341.24 44.7161 341.24 M42.9973 347.096 Q38.1912 347.16 35.3266 349.802 Q32.4621 352.412 32.4621 356.74 Q32.4621 361.642 35.2312 364.602 Q38.0002 367.53 43.0292 367.976 L42.9973 347.096 Z" fill="#000000" fill-rule="nonzero" fill-opacity="1" /><polyline clip-path="url(#clip312)" style="stroke:#009af9; stroke-linecap:round; stroke-linejoin:round; stroke-width:4; stroke-opacity:1; fill:none" points="294.087,85.838 493.957,85.838 693.828,111.624 893.699,196.553 1093.57,412.227 1293.44,865.28 1493.31,1170.6 1693.18,1301.05 1893.05,1350.5 2092.92,1367.07 2292.79,1372.3 "/>
</svg>
