<?xml version="1.0" encoding="utf-8"?>
<svg xmlns="http://www.w3.org/2000/svg" xmlns:xlink="http://www.w3.org/1999/xlink" width="600" height="400" viewBox="0 0 2400 1600">
<defs>
  <clipPath id="clip950">
    <rect x="0" y="0" width="2400" height="1600"/>
  </clipPath>
</defs>
<path clip-path="url(#clip950)" d="M0 1600 L2400 1600 L2400 0 L0 0  Z" fill="#ffffff" fill-rule="evenodd" fill-opacity="1"/>
<defs>
  <clipPath id="clip951">
    <rect x="480" y="0" width="1681" height="1600"/>
  </clipPath>
</defs>
<path clip-path="url(#clip950)" d="M138.959 1423.18 L2352.76 1423.18 L2352.76 47.2441 L138.959 47.2441  Z" fill="#ffffff" fill-rule="evenodd" fill-opacity="1"/>
<defs>
  <clipPath id="clip952">
    <rect x="138" y="47" width="2215" height="1377"/>
  </clipPath>
</defs>
<polyline clip-path="url(#clip952)" style="stroke:#000000; stroke-linecap:round; stroke-linejoin:round; stroke-width:2; stroke-opacity:0.1; fill:none" points="376.62,1423.18 376.62,47.2441 "/>
<polyline clip-path="url(#clip952)" style="stroke:#000000; stroke-linecap:round; stroke-linejoin:round; stroke-width:2; stroke-opacity:0.1; fill:none" points="840.214,1423.18 840.214,47.2441 "/>
<polyline clip-path="url(#clip952)" style="stroke:#000000; stroke-linecap:round; stroke-linejoin:round; stroke-width:2; stroke-opacity:0.1; fill:none" points="1303.81,1423.18 1303.81,47.2441 "/>
<polyline clip-path="url(#clip952)" style="stroke:#000000; stroke-linecap:round; stroke-linejoin:round; stroke-width:2; stroke-opacity:0.1; fill:none" points="1767.4,1423.18 1767.4,47.2441 "/>
<polyline clip-path="url(#clip952)" style="stroke:#000000; stroke-linecap:round; stroke-linejoin:round; stroke-width:2; stroke-opacity:0.1; fill:none" points="2230.99,1423.18 2230.99,47.2441 "/>
<polyline clip-path="url(#clip950)" style="stroke:#000000; stroke-linecap:round; stroke-linejoin:round; stroke-width:4; stroke-opacity:1; fill:none" points="138.959,1423.18 2352.76,1423.18 "/>
<polyline clip-path="url(#clip950)" style="stroke:#000000; stroke-linecap:round; stroke-linejoin:round; stroke-width:4; stroke-opacity:1; fill:none" points="376.62,1423.18 376.62,1404.28 "/>
<polyline clip-path="url(#clip950)" style="stroke:#000000; stroke-linecap:round; stroke-linejoin:round; stroke-width:4; stroke-opacity:1; fill:none" points="840.214,1423.18 840.214,1404.28 "/>
<polyline clip-path="url(#clip950)" style="stroke:#000000; stroke-linecap:round; stroke-linejoin:round; stroke-width:4; stroke-opacity:1; fill:none" points="1303.81,1423.18 1303.81,1404.28 "/>
<polyline clip-path="url(#clip950)" style="stroke:#000000; stroke-linecap:round; stroke-linejoin:round; stroke-width:4; stroke-opacity:1; fill:none" points="1767.4,1423.18 1767.4,1404.28 "/>
<polyline clip-path="url(#clip950)" style="stroke:#000000; stroke-linecap:round; stroke-linejoin:round; stroke-width:4; stroke-opacity:1; fill:none" points="2230.99,1423.18 2230.99,1404.28 "/>
<path clip-path="url(#clip950)" d="M336.227 1481.64 L343.866 1481.64 L343.866 1455.28 L335.556 1456.95 L335.556 1452.69 L343.82 1451.02 L348.496 1451.02 L348.496 1481.64 L356.134 1481.64 L356.134 1485.58 L336.227 1485.58 L336.227 1481.64 Z" fill="#000000" fill-rule="nonzero" fill-opacity="1" /><path clip-path="url(#clip950)" d="M376.158 1466.44 Q373.009 1466.44 371.158 1468.59 Q369.329 1470.74 369.329 1474.49 Q369.329 1478.22 371.158 1480.39 Q373.009 1482.55 376.158 1482.55 Q379.306 1482.55 381.134 1480.39 Q382.986 1478.22 382.986 1474.49 Q382.986 1470.74 381.134 1468.59 Q379.306 1466.44 376.158 1466.44 M385.44 1451.78 L385.44 1456.04 Q383.681 1455.21 381.875 1454.77 Q380.093 1454.33 378.333 1454.33 Q373.704 1454.33 371.25 1457.45 Q368.82 1460.58 368.472 1466.9 Q369.838 1464.89 371.898 1463.82 Q373.958 1462.73 376.435 1462.73 Q381.644 1462.73 384.653 1465.9 Q387.685 1469.05 387.685 1474.49 Q387.685 1479.82 384.537 1483.03 Q381.389 1486.25 376.158 1486.25 Q370.162 1486.25 366.991 1481.67 Q363.82 1477.06 363.82 1468.33 Q363.82 1460.14 367.708 1455.28 Q371.597 1450.39 378.148 1450.39 Q379.907 1450.39 381.69 1450.74 Q383.495 1451.09 385.44 1451.78 Z" fill="#000000" fill-rule="nonzero" fill-opacity="1" /><path clip-path="url(#clip950)" d="M405.741 1454.1 Q402.13 1454.1 400.301 1457.66 Q398.495 1461.2 398.495 1468.33 Q398.495 1475.44 400.301 1479.01 Q402.13 1482.55 405.741 1482.55 Q409.375 1482.55 411.18 1479.01 Q413.009 1475.44 413.009 1468.33 Q413.009 1461.2 411.18 1457.66 Q409.375 1454.1 405.741 1454.1 M405.741 1450.39 Q411.551 1450.39 414.606 1455 Q417.685 1459.58 417.685 1468.33 Q417.685 1477.06 414.606 1481.67 Q411.551 1486.25 405.741 1486.25 Q399.931 1486.25 396.852 1481.67 Q393.796 1477.06 393.796 1468.33 Q393.796 1459.58 396.852 1455 Q399.931 1450.39 405.741 1450.39 Z" fill="#000000" fill-rule="nonzero" fill-opacity="1" /><path clip-path="url(#clip950)" d="M799.82 1481.64 L807.459 1481.64 L807.459 1455.28 L799.149 1456.95 L799.149 1452.69 L807.413 1451.02 L812.089 1451.02 L812.089 1481.64 L819.728 1481.64 L819.728 1485.58 L799.82 1485.58 L799.82 1481.64 Z" fill="#000000" fill-rule="nonzero" fill-opacity="1" /><path clip-path="url(#clip950)" d="M839.172 1469.17 Q835.839 1469.17 833.917 1470.95 Q832.019 1472.73 832.019 1475.86 Q832.019 1478.98 833.917 1480.77 Q835.839 1482.55 839.172 1482.55 Q842.505 1482.55 844.427 1480.77 Q846.348 1478.96 846.348 1475.86 Q846.348 1472.73 844.427 1470.95 Q842.528 1469.17 839.172 1469.17 M834.496 1467.18 Q831.487 1466.44 829.797 1464.38 Q828.13 1462.32 828.13 1459.35 Q828.13 1455.21 831.07 1452.8 Q834.033 1450.39 839.172 1450.39 Q844.334 1450.39 847.274 1452.8 Q850.214 1455.21 850.214 1459.35 Q850.214 1462.32 848.524 1464.38 Q846.857 1466.44 843.871 1467.18 Q847.251 1467.96 849.126 1470.26 Q851.024 1472.55 851.024 1475.86 Q851.024 1480.88 847.945 1483.57 Q844.89 1486.25 839.172 1486.25 Q833.454 1486.25 830.376 1483.57 Q827.32 1480.88 827.32 1475.86 Q827.32 1472.55 829.218 1470.26 Q831.116 1467.96 834.496 1467.18 M832.783 1459.79 Q832.783 1462.48 834.45 1463.98 Q836.14 1465.49 839.172 1465.49 Q842.181 1465.49 843.871 1463.98 Q845.584 1462.48 845.584 1459.79 Q845.584 1457.11 843.871 1455.6 Q842.181 1454.1 839.172 1454.1 Q836.14 1454.1 834.45 1455.6 Q832.783 1457.11 832.783 1459.79 Z" fill="#000000" fill-rule="nonzero" fill-opacity="1" /><path clip-path="url(#clip950)" d="M869.334 1454.1 Q865.723 1454.1 863.894 1457.66 Q862.089 1461.2 862.089 1468.33 Q862.089 1475.44 863.894 1479.01 Q865.723 1482.55 869.334 1482.55 Q872.968 1482.55 874.774 1479.01 Q876.602 1475.44 876.602 1468.33 Q876.602 1461.2 874.774 1457.66 Q872.968 1454.1 869.334 1454.1 M869.334 1450.39 Q875.144 1450.39 878.2 1455 Q881.278 1459.58 881.278 1468.33 Q881.278 1477.06 878.2 1481.67 Q875.144 1486.25 869.334 1486.25 Q863.524 1486.25 860.445 1481.67 Q857.389 1477.06 857.389 1468.33 Q857.389 1459.58 860.445 1455 Q863.524 1450.39 869.334 1450.39 Z" fill="#000000" fill-rule="nonzero" fill-opacity="1" /><path clip-path="url(#clip950)" d="M1267.5 1481.64 L1283.82 1481.64 L1283.82 1485.58 L1261.87 1485.58 L1261.87 1481.64 Q1264.54 1478.89 1269.12 1474.26 Q1273.73 1469.61 1274.91 1468.27 Q1277.15 1465.74 1278.03 1464.01 Q1278.93 1462.25 1278.93 1460.56 Q1278.93 1457.8 1276.99 1456.07 Q1275.07 1454.33 1271.97 1454.33 Q1269.77 1454.33 1267.31 1455.09 Q1264.88 1455.86 1262.11 1457.41 L1262.11 1452.69 Q1264.93 1451.55 1267.38 1450.97 Q1269.84 1450.39 1271.87 1450.39 Q1277.24 1450.39 1280.44 1453.08 Q1283.63 1455.77 1283.63 1460.26 Q1283.63 1462.39 1282.82 1464.31 Q1282.04 1466.2 1279.93 1468.8 Q1279.35 1469.47 1276.25 1472.69 Q1273.15 1475.88 1267.5 1481.64 Z" fill="#000000" fill-rule="nonzero" fill-opacity="1" /><path clip-path="url(#clip950)" d="M1303.63 1454.1 Q1300.02 1454.1 1298.19 1457.66 Q1296.39 1461.2 1296.39 1468.33 Q1296.39 1475.44 1298.19 1479.01 Q1300.02 1482.55 1303.63 1482.55 Q1307.27 1482.55 1309.07 1479.01 Q1310.9 1475.44 1310.9 1468.33 Q1310.9 1461.2 1309.07 1457.66 Q1307.27 1454.1 1303.63 1454.1 M1303.63 1450.39 Q1309.44 1450.39 1312.5 1455 Q1315.58 1459.58 1315.58 1468.33 Q1315.58 1477.06 1312.5 1481.67 Q1309.44 1486.25 1303.63 1486.25 Q1297.82 1486.25 1294.74 1481.67 Q1291.69 1477.06 1291.69 1468.33 Q1291.69 1459.58 1294.74 1455 Q1297.82 1450.39 1303.63 1450.39 Z" fill="#000000" fill-rule="nonzero" fill-opacity="1" /><path clip-path="url(#clip950)" d="M1333.8 1454.1 Q1330.18 1454.1 1328.36 1457.66 Q1326.55 1461.2 1326.55 1468.33 Q1326.55 1475.44 1328.36 1479.01 Q1330.18 1482.55 1333.8 1482.55 Q1337.43 1482.55 1339.23 1479.01 Q1341.06 1475.44 1341.06 1468.33 Q1341.06 1461.2 1339.23 1457.66 Q1337.43 1454.1 1333.8 1454.1 M1333.8 1450.39 Q1339.61 1450.39 1342.66 1455 Q1345.74 1459.58 1345.74 1468.33 Q1345.74 1477.06 1342.66 1481.67 Q1339.61 1486.25 1333.8 1486.25 Q1327.98 1486.25 1324.91 1481.67 Q1321.85 1477.06 1321.85 1468.33 Q1321.85 1459.58 1324.91 1455 Q1327.98 1450.39 1333.8 1450.39 Z" fill="#000000" fill-rule="nonzero" fill-opacity="1" /><path clip-path="url(#clip950)" d="M1731.09 1481.64 L1747.41 1481.64 L1747.41 1485.58 L1725.47 1485.58 L1725.47 1481.64 Q1728.13 1478.89 1732.71 1474.26 Q1737.32 1469.61 1738.5 1468.27 Q1740.75 1465.74 1741.62 1464.01 Q1742.53 1462.25 1742.53 1460.56 Q1742.53 1457.8 1740.58 1456.07 Q1738.66 1454.33 1735.56 1454.33 Q1733.36 1454.33 1730.91 1455.09 Q1728.48 1455.86 1725.7 1457.41 L1725.7 1452.69 Q1728.52 1451.55 1730.98 1450.97 Q1733.43 1450.39 1735.47 1450.39 Q1740.84 1450.39 1744.03 1453.08 Q1747.23 1455.77 1747.23 1460.26 Q1747.23 1462.39 1746.42 1464.31 Q1745.63 1466.2 1743.52 1468.8 Q1742.94 1469.47 1739.84 1472.69 Q1736.74 1475.88 1731.09 1481.64 Z" fill="#000000" fill-rule="nonzero" fill-opacity="1" /><path clip-path="url(#clip950)" d="M1761.25 1481.64 L1777.57 1481.64 L1777.57 1485.58 L1755.63 1485.58 L1755.63 1481.64 Q1758.29 1478.89 1762.87 1474.26 Q1767.48 1469.61 1768.66 1468.27 Q1770.91 1465.74 1771.79 1464.01 Q1772.69 1462.25 1772.69 1460.56 Q1772.69 1457.8 1770.74 1456.07 Q1768.82 1454.33 1765.72 1454.33 Q1763.52 1454.33 1761.07 1455.09 Q1758.64 1455.86 1755.86 1457.41 L1755.86 1452.69 Q1758.68 1451.55 1761.14 1450.97 Q1763.59 1450.39 1765.63 1450.39 Q1771 1450.39 1774.19 1453.08 Q1777.39 1455.77 1777.39 1460.26 Q1777.39 1462.39 1776.58 1464.31 Q1775.79 1466.2 1773.68 1468.8 Q1773.11 1469.47 1770 1472.69 Q1766.9 1475.88 1761.25 1481.64 Z" fill="#000000" fill-rule="nonzero" fill-opacity="1" /><path clip-path="url(#clip950)" d="M1797.39 1454.1 Q1793.78 1454.1 1791.95 1457.66 Q1790.14 1461.2 1790.14 1468.33 Q1790.14 1475.44 1791.95 1479.01 Q1793.78 1482.55 1797.39 1482.55 Q1801.02 1482.55 1802.83 1479.01 Q1804.66 1475.44 1804.66 1468.33 Q1804.66 1461.2 1802.83 1457.66 Q1801.02 1454.1 1797.39 1454.1 M1797.39 1450.39 Q1803.2 1450.39 1806.25 1455 Q1809.33 1459.58 1809.33 1468.33 Q1809.33 1477.06 1806.25 1481.67 Q1803.2 1486.25 1797.39 1486.25 Q1791.58 1486.25 1788.5 1481.67 Q1785.44 1477.06 1785.44 1468.33 Q1785.44 1459.58 1788.5 1455 Q1791.58 1450.39 1797.39 1450.39 Z" fill="#000000" fill-rule="nonzero" fill-opacity="1" /><path clip-path="url(#clip950)" d="M2194.69 1481.64 L2211 1481.64 L2211 1485.58 L2189.06 1485.58 L2189.06 1481.64 Q2191.72 1478.89 2196.31 1474.26 Q2200.91 1469.61 2202.09 1468.27 Q2204.34 1465.74 2205.22 1464.01 Q2206.12 1462.25 2206.12 1460.56 Q2206.12 1457.8 2204.18 1456.07 Q2202.25 1454.33 2199.15 1454.33 Q2196.95 1454.33 2194.5 1455.09 Q2192.07 1455.86 2189.29 1457.41 L2189.29 1452.69 Q2192.12 1451.55 2194.57 1450.97 Q2197.02 1450.39 2199.06 1450.39 Q2204.43 1450.39 2207.63 1453.08 Q2210.82 1455.77 2210.82 1460.26 Q2210.82 1462.39 2210.01 1464.31 Q2209.22 1466.2 2207.12 1468.8 Q2206.54 1469.47 2203.44 1472.69 Q2200.33 1475.88 2194.69 1481.64 Z" fill="#000000" fill-rule="nonzero" fill-opacity="1" /><path clip-path="url(#clip950)" d="M2233.67 1455.09 L2221.86 1473.54 L2233.67 1473.54 L2233.67 1455.09 M2232.44 1451.02 L2238.32 1451.02 L2238.32 1473.54 L2243.25 1473.54 L2243.25 1477.43 L2238.32 1477.43 L2238.32 1485.58 L2233.67 1485.58 L2233.67 1477.43 L2218.06 1477.43 L2218.06 1472.92 L2232.44 1451.02 Z" fill="#000000" fill-rule="nonzero" fill-opacity="1" /><path clip-path="url(#clip950)" d="M2260.98 1454.1 Q2257.37 1454.1 2255.54 1457.66 Q2253.74 1461.2 2253.74 1468.33 Q2253.74 1475.44 2255.54 1479.01 Q2257.37 1482.55 2260.98 1482.55 Q2264.62 1482.55 2266.42 1479.01 Q2268.25 1475.44 2268.25 1468.33 Q2268.25 1461.2 2266.42 1457.66 Q2264.62 1454.1 2260.98 1454.1 M2260.98 1450.39 Q2266.79 1450.39 2269.85 1455 Q2272.93 1459.58 2272.93 1468.33 Q2272.93 1477.06 2269.85 1481.67 Q2266.79 1486.25 2260.98 1486.25 Q2255.17 1486.25 2252.09 1481.67 Q2249.04 1477.06 2249.04 1468.33 Q2249.04 1459.58 2252.09 1455 Q2255.17 1450.39 2260.98 1450.39 Z" fill="#000000" fill-rule="nonzero" fill-opacity="1" /><path clip-path="url(#clip950)" d="M1120.23 1525.81 L1120.23 1562.76 L1128 1562.76 Q1137.83 1562.76 1142.38 1558.3 Q1146.97 1553.85 1146.97 1544.24 Q1146.97 1534.69 1142.38 1530.26 Q1137.83 1525.81 1128 1525.81 L1120.23 1525.81 M1113.8 1520.52 L1127.01 1520.52 Q1140.82 1520.52 1147.28 1526.28 Q1153.75 1532.01 1153.75 1544.24 Q1153.75 1556.52 1147.25 1562.28 Q1140.76 1568.04 1127.01 1568.04 L1113.8 1568.04 L1113.8 1520.52 Z" fill="#000000" fill-rule="nonzero" fill-opacity="1" /><path clip-path="url(#clip950)" d="M1194.23 1548.76 L1194.23 1551.62 L1167.3 1551.62 Q1167.69 1557.67 1170.93 1560.85 Q1174.21 1564 1180.04 1564 Q1183.41 1564 1186.56 1563.17 Q1189.74 1562.35 1192.86 1560.69 L1192.86 1566.23 Q1189.71 1567.57 1186.4 1568.27 Q1183.09 1568.97 1179.69 1568.97 Q1171.16 1568.97 1166.16 1564 Q1161.19 1559.04 1161.19 1550.57 Q1161.19 1541.82 1165.9 1536.69 Q1170.65 1531.54 1178.67 1531.54 Q1185.86 1531.54 1190.03 1536.18 Q1194.23 1540.8 1194.23 1548.76 M1188.38 1547.04 Q1188.31 1542.23 1185.67 1539.37 Q1183.06 1536.5 1178.73 1536.5 Q1173.83 1536.5 1170.87 1539.27 Q1167.94 1542.04 1167.5 1547.07 L1188.38 1547.04 Z" fill="#000000" fill-rule="nonzero" fill-opacity="1" /><path clip-path="url(#clip950)" d="M1231.6 1539.24 Q1233.79 1535.29 1236.85 1533.41 Q1239.91 1531.54 1244.04 1531.54 Q1249.61 1531.54 1252.64 1535.45 Q1255.66 1539.33 1255.66 1546.53 L1255.66 1568.04 L1249.77 1568.04 L1249.77 1546.72 Q1249.77 1541.59 1247.96 1539.11 Q1246.14 1536.63 1242.42 1536.63 Q1237.87 1536.63 1235.23 1539.65 Q1232.59 1542.68 1232.59 1547.9 L1232.59 1568.04 L1226.7 1568.04 L1226.7 1546.72 Q1226.7 1541.56 1224.88 1539.11 Q1223.07 1536.63 1219.28 1536.63 Q1214.79 1536.63 1212.15 1539.68 Q1209.51 1542.71 1209.51 1547.9 L1209.51 1568.04 L1203.62 1568.04 L1203.62 1532.4 L1209.51 1532.4 L1209.51 1537.93 Q1211.51 1534.66 1214.32 1533.1 Q1217.12 1531.54 1220.97 1531.54 Q1224.85 1531.54 1227.56 1533.51 Q1230.29 1535.48 1231.6 1539.24 Z" fill="#000000" fill-rule="nonzero" fill-opacity="1" /><path clip-path="url(#clip950)" d="M1283.54 1550.12 Q1276.44 1550.12 1273.71 1551.75 Q1270.97 1553.37 1270.97 1557.29 Q1270.97 1560.4 1273.01 1562.25 Q1275.08 1564.07 1278.61 1564.07 Q1283.48 1564.07 1286.41 1560.63 Q1289.37 1557.16 1289.37 1551.43 L1289.37 1550.12 L1283.54 1550.12 M1295.22 1547.71 L1295.22 1568.04 L1289.37 1568.04 L1289.37 1562.63 Q1287.36 1565.88 1284.37 1567.44 Q1281.38 1568.97 1277.05 1568.97 Q1271.58 1568.97 1268.33 1565.91 Q1265.11 1562.82 1265.11 1557.67 Q1265.11 1551.65 1269.12 1548.6 Q1273.17 1545.54 1281.16 1545.54 L1289.37 1545.54 L1289.37 1544.97 Q1289.37 1540.93 1286.69 1538.73 Q1284.05 1536.5 1279.25 1536.5 Q1276.19 1536.5 1273.29 1537.23 Q1270.4 1537.97 1267.72 1539.43 L1267.72 1534.02 Q1270.94 1532.78 1273.96 1532.17 Q1276.99 1531.54 1279.85 1531.54 Q1287.58 1531.54 1291.4 1535.55 Q1295.22 1539.56 1295.22 1547.71 Z" fill="#000000" fill-rule="nonzero" fill-opacity="1" /><path clip-path="url(#clip950)" d="M1336.92 1546.53 L1336.92 1568.04 L1331.06 1568.04 L1331.06 1546.72 Q1331.06 1541.66 1329.09 1539.14 Q1327.12 1536.63 1323.17 1536.63 Q1318.43 1536.63 1315.69 1539.65 Q1312.95 1542.68 1312.95 1547.9 L1312.95 1568.04 L1307.06 1568.04 L1307.06 1532.4 L1312.95 1532.4 L1312.95 1537.93 Q1315.05 1534.72 1317.89 1533.13 Q1320.75 1531.54 1324.47 1531.54 Q1330.62 1531.54 1333.77 1535.36 Q1336.92 1539.14 1336.92 1546.53 Z" fill="#000000" fill-rule="nonzero" fill-opacity="1" /><path clip-path="url(#clip950)" d="M1372.06 1537.81 L1372.06 1518.52 L1377.91 1518.52 L1377.91 1568.04 L1372.06 1568.04 L1372.06 1562.7 Q1370.21 1565.88 1367.38 1567.44 Q1364.58 1568.97 1360.63 1568.97 Q1354.17 1568.97 1350.1 1563.81 Q1346.05 1558.65 1346.05 1550.25 Q1346.05 1541.85 1350.1 1536.69 Q1354.17 1531.54 1360.63 1531.54 Q1364.58 1531.54 1367.38 1533.1 Q1370.21 1534.62 1372.06 1537.81 M1352.1 1550.25 Q1352.1 1556.71 1354.74 1560.4 Q1357.42 1564.07 1362.06 1564.07 Q1366.71 1564.07 1369.38 1560.4 Q1372.06 1556.71 1372.06 1550.25 Q1372.06 1543.79 1369.38 1540.13 Q1366.71 1536.44 1362.06 1536.44 Q1357.42 1536.44 1354.74 1540.13 Q1352.1 1543.79 1352.1 1550.25 Z" fill="#000000" fill-rule="nonzero" fill-opacity="1" /><polyline clip-path="url(#clip952)" style="stroke:#000000; stroke-linecap:round; stroke-linejoin:round; stroke-width:2; stroke-opacity:0.1; fill:none" points="138.959,1423.18 2352.76,1423.18 "/>
<polyline clip-path="url(#clip952)" style="stroke:#000000; stroke-linecap:round; stroke-linejoin:round; stroke-width:2; stroke-opacity:0.1; fill:none" points="138.959,993.2 2352.76,993.2 "/>
<polyline clip-path="url(#clip952)" style="stroke:#000000; stroke-linecap:round; stroke-linejoin:round; stroke-width:2; stroke-opacity:0.1; fill:none" points="138.959,563.22 2352.76,563.22 "/>
<polyline clip-path="url(#clip952)" style="stroke:#000000; stroke-linecap:round; stroke-linejoin:round; stroke-width:2; stroke-opacity:0.1; fill:none" points="138.959,133.24 2352.76,133.24 "/>
<polyline clip-path="url(#clip950)" style="stroke:#000000; stroke-linecap:round; stroke-linejoin:round; stroke-width:4; stroke-opacity:1; fill:none" points="138.959,1423.18 138.959,47.2441 "/>
<polyline clip-path="url(#clip950)" style="stroke:#000000; stroke-linecap:round; stroke-linejoin:round; stroke-width:4; stroke-opacity:1; fill:none" points="138.959,1423.18 157.857,1423.18 "/>
<polyline clip-path="url(#clip950)" style="stroke:#000000; stroke-linecap:round; stroke-linejoin:round; stroke-width:4; stroke-opacity:1; fill:none" points="138.959,993.2 157.857,993.2 "/>
<polyline clip-path="url(#clip950)" style="stroke:#000000; stroke-linecap:round; stroke-linejoin:round; stroke-width:4; stroke-opacity:1; fill:none" points="138.959,563.22 157.857,563.22 "/>
<polyline clip-path="url(#clip950)" style="stroke:#000000; stroke-linecap:round; stroke-linejoin:round; stroke-width:4; stroke-opacity:1; fill:none" points="138.959,133.24 157.857,133.24 "/>
<path clip-path="url(#clip950)" d="M91.0151 1408.98 Q87.404 1408.98 85.5753 1412.54 Q83.7697 1416.08 83.7697 1423.21 Q83.7697 1430.32 85.5753 1433.89 Q87.404 1437.43 91.0151 1437.43 Q94.6493 1437.43 96.4548 1433.89 Q98.2835 1430.32 98.2835 1423.21 Q98.2835 1416.08 96.4548 1412.54 Q94.6493 1408.98 91.0151 1408.98 M91.0151 1405.27 Q96.8252 1405.27 99.8808 1409.88 Q102.959 1414.46 102.959 1423.21 Q102.959 1431.94 99.8808 1436.55 Q96.8252 1441.13 91.0151 1441.13 Q85.2049 1441.13 82.1262 1436.55 Q79.0707 1431.94 79.0707 1423.21 Q79.0707 1414.46 82.1262 1409.88 Q85.2049 1405.27 91.0151 1405.27 Z" fill="#000000" fill-rule="nonzero" fill-opacity="1" /><path clip-path="url(#clip950)" d="M82.0568 975.92 L100.413 975.92 L100.413 979.855 L86.3392 979.855 L86.3392 988.327 Q87.3577 987.98 88.3762 987.818 Q89.3947 987.633 90.4132 987.633 Q96.2002 987.633 99.5798 990.804 Q102.959 993.975 102.959 999.392 Q102.959 1004.97 99.4872 1008.07 Q96.015 1011.15 89.6956 1011.15 Q87.5197 1011.15 85.2512 1010.78 Q83.0058 1010.41 80.5984 1009.67 L80.5984 1004.97 Q82.6818 1006.1 84.904 1006.66 Q87.1262 1007.22 89.603 1007.22 Q93.6076 1007.22 95.9456 1005.11 Q98.2835 1003 98.2835 999.392 Q98.2835 995.781 95.9456 993.674 Q93.6076 991.568 89.603 991.568 Q87.728 991.568 85.8531 991.985 Q84.0012 992.401 82.0568 993.281 L82.0568 975.92 Z" fill="#000000" fill-rule="nonzero" fill-opacity="1" /><path clip-path="url(#clip950)" d="M51.6634 576.565 L59.3023 576.565 L59.3023 550.199 L50.9921 551.866 L50.9921 547.607 L59.256 545.94 L63.9319 545.94 L63.9319 576.565 L71.5707 576.565 L71.5707 580.5 L51.6634 580.5 L51.6634 576.565 Z" fill="#000000" fill-rule="nonzero" fill-opacity="1" /><path clip-path="url(#clip950)" d="M91.0151 549.019 Q87.404 549.019 85.5753 552.583 Q83.7697 556.125 83.7697 563.255 Q83.7697 570.361 85.5753 573.926 Q87.404 577.468 91.0151 577.468 Q94.6493 577.468 96.4548 573.926 Q98.2835 570.361 98.2835 563.255 Q98.2835 556.125 96.4548 552.583 Q94.6493 549.019 91.0151 549.019 M91.0151 545.315 Q96.8252 545.315 99.8808 549.921 Q102.959 554.505 102.959 563.255 Q102.959 571.982 99.8808 576.588 Q96.8252 581.171 91.0151 581.171 Q85.2049 581.171 82.1262 576.588 Q79.0707 571.982 79.0707 563.255 Q79.0707 554.505 82.1262 549.921 Q85.2049 545.315 91.0151 545.315 Z" fill="#000000" fill-rule="nonzero" fill-opacity="1" /><path clip-path="url(#clip950)" d="M52.6588 146.585 L60.2976 146.585 L60.2976 120.219 L51.9875 121.886 L51.9875 117.627 L60.2513 115.96 L64.9272 115.96 L64.9272 146.585 L72.5661 146.585 L72.5661 150.52 L52.6588 150.52 L52.6588 146.585 Z" fill="#000000" fill-rule="nonzero" fill-opacity="1" /><path clip-path="url(#clip950)" d="M82.0568 115.96 L100.413 115.96 L100.413 119.895 L86.3392 119.895 L86.3392 128.367 Q87.3577 128.02 88.3762 127.858 Q89.3947 127.673 90.4132 127.673 Q96.2002 127.673 99.5798 130.844 Q102.959 134.016 102.959 139.432 Q102.959 145.011 99.4872 148.113 Q96.015 151.191 89.6956 151.191 Q87.5197 151.191 85.2512 150.821 Q83.0058 150.451 80.5984 149.71 L80.5984 145.011 Q82.6818 146.145 84.904 146.701 Q87.1262 147.256 89.603 147.256 Q93.6076 147.256 95.9456 145.15 Q98.2835 143.043 98.2835 139.432 Q98.2835 135.821 95.9456 133.715 Q93.6076 131.608 89.603 131.608 Q87.728 131.608 85.8531 132.025 Q84.0012 132.441 82.0568 133.321 L82.0568 115.96 Z" fill="#000000" fill-rule="nonzero" fill-opacity="1" /><path clip-path="url(#clip952)" d="M260.722 1165.19 L260.722 1423.18 L376.62 1423.18 L376.62 1165.19 L260.722 1165.19 L260.722 1165.19  Z" fill="#009af9" fill-rule="evenodd" fill-opacity="1"/>
<polyline clip-path="url(#clip952)" style="stroke:#000000; stroke-linecap:round; stroke-linejoin:round; stroke-width:4; stroke-opacity:1; fill:none" points="260.722,1165.19 260.722,1423.18 376.62,1423.18 376.62,1165.19 260.722,1165.19 "/>
<path clip-path="url(#clip952)" d="M376.62 1165.19 L376.62 1423.18 L492.519 1423.18 L492.519 1165.19 L376.62 1165.19 L376.62 1165.19  Z" fill="#009af9" fill-rule="evenodd" fill-opacity="1"/>
<polyline clip-path="url(#clip952)" style="stroke:#000000; stroke-linecap:round; stroke-linejoin:round; stroke-width:4; stroke-opacity:1; fill:none" points="376.62,1165.19 376.62,1423.18 492.519,1423.18 492.519,1165.19 376.62,1165.19 "/>
<path clip-path="url(#clip952)" d="M492.519 1165.19 L492.519 1423.18 L608.417 1423.18 L608.417 1165.19 L492.519 1165.19 L492.519 1165.19  Z" fill="#009af9" fill-rule="evenodd" fill-opacity="1"/>
<polyline clip-path="url(#clip952)" style="stroke:#000000; stroke-linecap:round; stroke-linejoin:round; stroke-width:4; stroke-opacity:1; fill:none" points="492.519,1165.19 492.519,1423.18 608.417,1423.18 608.417,1165.19 492.519,1165.19 "/>
<path clip-path="url(#clip952)" d="M608.417 993.2 L608.417 1423.18 L724.315 1423.18 L724.315 993.2 L608.417 993.2 L608.417 993.2  Z" fill="#009af9" fill-rule="evenodd" fill-opacity="1"/>
<polyline clip-path="url(#clip952)" style="stroke:#000000; stroke-linecap:round; stroke-linejoin:round; stroke-width:4; stroke-opacity:1; fill:none" points="608.417,993.2 608.417,1423.18 724.315,1423.18 724.315,993.2 608.417,993.2 "/>
<path clip-path="url(#clip952)" d="M724.315 735.212 L724.315 1423.18 L840.214 1423.18 L840.214 735.212 L724.315 735.212 L724.315 735.212  Z" fill="#009af9" fill-rule="evenodd" fill-opacity="1"/>
<polyline clip-path="url(#clip952)" style="stroke:#000000; stroke-linecap:round; stroke-linejoin:round; stroke-width:4; stroke-opacity:1; fill:none" points="724.315,735.212 724.315,1423.18 840.214,1423.18 840.214,735.212 724.315,735.212 "/>
<path clip-path="url(#clip952)" d="M840.214 993.2 L840.214 1423.18 L956.112 1423.18 L956.112 993.2 L840.214 993.2 L840.214 993.2  Z" fill="#009af9" fill-rule="evenodd" fill-opacity="1"/>
<polyline clip-path="url(#clip952)" style="stroke:#000000; stroke-linecap:round; stroke-linejoin:round; stroke-width:4; stroke-opacity:1; fill:none" points="840.214,993.2 840.214,1423.18 956.112,1423.18 956.112,993.2 840.214,993.2 "/>
<path clip-path="url(#clip952)" d="M956.112 735.212 L956.112 1423.18 L1072.01 1423.18 L1072.01 735.212 L956.112 735.212 L956.112 735.212  Z" fill="#009af9" fill-rule="evenodd" fill-opacity="1"/>
<polyline clip-path="url(#clip952)" style="stroke:#000000; stroke-linecap:round; stroke-linejoin:round; stroke-width:4; stroke-opacity:1; fill:none" points="956.112,735.212 956.112,1423.18 1072.01,1423.18 1072.01,735.212 956.112,735.212 "/>
<path clip-path="url(#clip952)" d="M1072.01 47.2441 L1072.01 1423.18 L1187.91 1423.18 L1187.91 47.2441 L1072.01 47.2441 L1072.01 47.2441  Z" fill="#009af9" fill-rule="evenodd" fill-opacity="1"/>
<polyline clip-path="url(#clip952)" style="stroke:#000000; stroke-linecap:round; stroke-linejoin:round; stroke-width:4; stroke-opacity:1; fill:none" points="1072.01,47.2441 1072.01,1423.18 1187.91,1423.18 1187.91,47.2441 1072.01,47.2441 "/>
<path clip-path="url(#clip952)" d="M1187.91 649.216 L1187.91 1423.18 L1303.81 1423.18 L1303.81 649.216 L1187.91 649.216 L1187.91 649.216  Z" fill="#009af9" fill-rule="evenodd" fill-opacity="1"/>
<polyline clip-path="url(#clip952)" style="stroke:#000000; stroke-linecap:round; stroke-linejoin:round; stroke-width:4; stroke-opacity:1; fill:none" points="1187.91,649.216 1187.91,1423.18 1303.81,1423.18 1303.81,649.216 1187.91,649.216 "/>
<path clip-path="url(#clip952)" d="M1303.81 907.204 L1303.81 1423.18 L1419.71 1423.18 L1419.71 907.204 L1303.81 907.204 L1303.81 907.204  Z" fill="#009af9" fill-rule="evenodd" fill-opacity="1"/>
<polyline clip-path="url(#clip952)" style="stroke:#000000; stroke-linecap:round; stroke-linejoin:round; stroke-width:4; stroke-opacity:1; fill:none" points="1303.81,907.204 1303.81,1423.18 1419.71,1423.18 1419.71,907.204 1303.81,907.204 "/>
<path clip-path="url(#clip952)" d="M1419.71 649.216 L1419.71 1423.18 L1535.6 1423.18 L1535.6 649.216 L1419.71 649.216 L1419.71 649.216  Z" fill="#009af9" fill-rule="evenodd" fill-opacity="1"/>
<polyline clip-path="url(#clip952)" style="stroke:#000000; stroke-linecap:round; stroke-linejoin:round; stroke-width:4; stroke-opacity:1; fill:none" points="1419.71,649.216 1419.71,1423.18 1535.6,1423.18 1535.6,649.216 1419.71,649.216 "/>
<path clip-path="url(#clip952)" d="M1535.6 993.2 L1535.6 1423.18 L1651.5 1423.18 L1651.5 993.2 L1535.6 993.2 L1535.6 993.2  Z" fill="#009af9" fill-rule="evenodd" fill-opacity="1"/>
<polyline clip-path="url(#clip952)" style="stroke:#000000; stroke-linecap:round; stroke-linejoin:round; stroke-width:4; stroke-opacity:1; fill:none" points="1535.6,993.2 1535.6,1423.18 1651.5,1423.18 1651.5,993.2 1535.6,993.2 "/>
<path clip-path="url(#clip952)" d="M1651.5 907.204 L1651.5 1423.18 L1767.4 1423.18 L1767.4 907.204 L1651.5 907.204 L1651.5 907.204  Z" fill="#009af9" fill-rule="evenodd" fill-opacity="1"/>
<polyline clip-path="url(#clip952)" style="stroke:#000000; stroke-linecap:round; stroke-linejoin:round; stroke-width:4; stroke-opacity:1; fill:none" points="1651.5,907.204 1651.5,1423.18 1767.4,1423.18 1767.4,907.204 1651.5,907.204 "/>
<path clip-path="url(#clip952)" d="M1767.4 735.212 L1767.4 1423.18 L1883.3 1423.18 L1883.3 735.212 L1767.4 735.212 L1767.4 735.212  Z" fill="#009af9" fill-rule="evenodd" fill-opacity="1"/>
<polyline clip-path="url(#clip952)" style="stroke:#000000; stroke-linecap:round; stroke-linejoin:round; stroke-width:4; stroke-opacity:1; fill:none" points="1767.4,735.212 1767.4,1423.18 1883.3,1423.18 1883.3,735.212 1767.4,735.212 "/>
<path clip-path="url(#clip952)" d="M1883.3 1251.19 L1883.3 1423.18 L1999.2 1423.18 L1999.2 1251.19 L1883.3 1251.19 L1883.3 1251.19  Z" fill="#009af9" fill-rule="evenodd" fill-opacity="1"/>
<polyline clip-path="url(#clip952)" style="stroke:#000000; stroke-linecap:round; stroke-linejoin:round; stroke-width:4; stroke-opacity:1; fill:none" points="1883.3,1251.19 1883.3,1423.18 1999.2,1423.18 1999.2,1251.19 1883.3,1251.19 "/>
<path clip-path="url(#clip952)" d="M1999.2 1165.19 L1999.2 1423.18 L2115.09 1423.18 L2115.09 1165.19 L1999.2 1165.19 L1999.2 1165.19  Z" fill="#009af9" fill-rule="evenodd" fill-opacity="1"/>
<polyline clip-path="url(#clip952)" style="stroke:#000000; stroke-linecap:round; stroke-linejoin:round; stroke-width:4; stroke-opacity:1; fill:none" points="1999.2,1165.19 1999.2,1423.18 2115.09,1423.18 2115.09,1165.19 1999.2,1165.19 "/>
<path clip-path="url(#clip952)" d="M2115.09 1337.18 L2115.09 1423.18 L2230.99 1423.18 L2230.99 1337.18 L2115.09 1337.18 L2115.09 1337.18  Z" fill="#009af9" fill-rule="evenodd" fill-opacity="1"/>
<polyline clip-path="url(#clip952)" style="stroke:#000000; stroke-linecap:round; stroke-linejoin:round; stroke-width:4; stroke-opacity:1; fill:none" points="2115.09,1337.18 2115.09,1423.18 2230.99,1423.18 2230.99,1337.18 2115.09,1337.18 "/>
<circle clip-path="url(#clip952)" style="fill:#009af9; stroke:none; fill-opacity:0" cx="318.671" cy="1165.19" r="2"/>
<circle clip-path="url(#clip952)" style="fill:#009af9; stroke:none; fill-opacity:0" cx="434.57" cy="1165.19" r="2"/>
<circle clip-path="url(#clip952)" style="fill:#009af9; stroke:none; fill-opacity:0" cx="550.468" cy="1165.19" r="2"/>
<circle clip-path="url(#clip952)" style="fill:#009af9; stroke:none; fill-opacity:0" cx="666.366" cy="993.2" r="2"/>
<circle clip-path="url(#clip952)" style="fill:#009af9; stroke:none; fill-opacity:0" cx="782.265" cy="735.212" r="2"/>
<circle clip-path="url(#clip952)" style="fill:#009af9; stroke:none; fill-opacity:0" cx="898.163" cy="993.2" r="2"/>
<circle clip-path="url(#clip952)" style="fill:#009af9; stroke:none; fill-opacity:0" cx="1014.06" cy="735.212" r="2"/>
<circle clip-path="url(#clip952)" style="fill:#009af9; stroke:none; fill-opacity:0" cx="1129.96" cy="47.2441" r="2"/>
<circle clip-path="url(#clip952)" style="fill:#009af9; stroke:none; fill-opacity:0" cx="1245.86" cy="649.216" r="2"/>
<circle clip-path="url(#clip952)" style="fill:#009af9; stroke:none; fill-opacity:0" cx="1361.76" cy="907.204" r="2"/>
<circle clip-path="url(#clip952)" style="fill:#009af9; stroke:none; fill-opacity:0" cx="1477.65" cy="649.216" r="2"/>
<circle clip-path="url(#clip952)" style="fill:#009af9; stroke:none; fill-opacity:0" cx="1593.55" cy="993.2" r="2"/>
<circle clip-path="url(#clip952)" style="fill:#009af9; stroke:none; fill-opacity:0" cx="1709.45" cy="907.204" r="2"/>
<circle clip-path="url(#clip952)" style="fill:#009af9; stroke:none; fill-opacity:0" cx="1825.35" cy="735.212" r="2"/>
<circle clip-path="url(#clip952)" style="fill:#009af9; stroke:none; fill-opacity:0" cx="1941.25" cy="1251.19" r="2"/>
<circle clip-path="url(#clip952)" style="fill:#009af9; stroke:none; fill-opacity:0" cx="2057.15" cy="1165.19" r="2"/>
<circle clip-path="url(#clip952)" style="fill:#009af9; stroke:none; fill-opacity:0" cx="2173.04" cy="1337.18" r="2"/>
</svg>
