<?xml version="1.0" encoding="utf-8"?>
<svg xmlns="http://www.w3.org/2000/svg" xmlns:xlink="http://www.w3.org/1999/xlink" width="500" height="300" viewBox="0 0 2000 1200">
<defs>
  <clipPath id="clip200">
    <rect x="0" y="0" width="2000" height="1200"/>
  </clipPath>
</defs>
<path clip-path="url(#clip200)" d="M0 1200 L2000 1200 L2000 0 L0 0  Z" fill="#ffffff" fill-rule="evenodd" fill-opacity="1"/>
<defs>
  <clipPath id="clip201">
    <rect x="400" y="0" width="1401" height="1200"/>
  </clipPath>
</defs>
<path clip-path="url(#clip200)" d="M166.693 1035.39 L1952.76 1035.39 L1952.76 47.2441 L166.693 47.2441  Z" fill="#ffffff" fill-rule="evenodd" fill-opacity="1"/>
<defs>
  <clipPath id="clip202">
    <rect x="166" y="47" width="1787" height="989"/>
  </clipPath>
</defs>
<polyline clip-path="url(#clip202)" style="stroke:#000000; stroke-linecap:round; stroke-linejoin:round; stroke-width:2; stroke-opacity:0.1; fill:none" points="510.28,1035.39 510.28,47.2441 "/>
<polyline clip-path="url(#clip202)" style="stroke:#000000; stroke-linecap:round; stroke-linejoin:round; stroke-width:2; stroke-opacity:0.1; fill:none" points="876.576,1035.39 876.576,47.2441 "/>
<polyline clip-path="url(#clip202)" style="stroke:#000000; stroke-linecap:round; stroke-linejoin:round; stroke-width:2; stroke-opacity:0.1; fill:none" points="1242.87,1035.39 1242.87,47.2441 "/>
<polyline clip-path="url(#clip202)" style="stroke:#000000; stroke-linecap:round; stroke-linejoin:round; stroke-width:2; stroke-opacity:0.1; fill:none" points="1609.17,1035.39 1609.17,47.2441 "/>
<polyline clip-path="url(#clip202)" style="stroke:#000000; stroke-linecap:round; stroke-linejoin:round; stroke-width:2; stroke-opacity:0.1; fill:none" points="166.693,1007.42 1952.76,1007.42 "/>
<polyline clip-path="url(#clip202)" style="stroke:#000000; stroke-linecap:round; stroke-linejoin:round; stroke-width:2; stroke-opacity:0.1; fill:none" points="166.693,823.086 1952.76,823.086 "/>
<polyline clip-path="url(#clip202)" style="stroke:#000000; stroke-linecap:round; stroke-linejoin:round; stroke-width:2; stroke-opacity:0.1; fill:none" points="166.693,638.75 1952.76,638.75 "/>
<polyline clip-path="url(#clip202)" style="stroke:#000000; stroke-linecap:round; stroke-linejoin:round; stroke-width:2; stroke-opacity:0.1; fill:none" points="166.693,454.415 1952.76,454.415 "/>
<polyline clip-path="url(#clip202)" style="stroke:#000000; stroke-linecap:round; stroke-linejoin:round; stroke-width:2; stroke-opacity:0.1; fill:none" points="166.693,270.079 1952.76,270.079 "/>
<polyline clip-path="url(#clip202)" style="stroke:#000000; stroke-linecap:round; stroke-linejoin:round; stroke-width:2; stroke-opacity:0.1; fill:none" points="166.693,85.7439 1952.76,85.7439 "/>
<polyline clip-path="url(#clip200)" style="stroke:#000000; stroke-linecap:round; stroke-linejoin:round; stroke-width:4; stroke-opacity:1; fill:none" points="166.693,1035.39 1952.76,1035.39 "/>
<polyline clip-path="url(#clip200)" style="stroke:#000000; stroke-linecap:round; stroke-linejoin:round; stroke-width:4; stroke-opacity:1; fill:none" points="510.28,1035.39 510.28,1016.49 "/>
<polyline clip-path="url(#clip200)" style="stroke:#000000; stroke-linecap:round; stroke-linejoin:round; stroke-width:4; stroke-opacity:1; fill:none" points="876.576,1035.39 876.576,1016.49 "/>
<polyline clip-path="url(#clip200)" style="stroke:#000000; stroke-linecap:round; stroke-linejoin:round; stroke-width:4; stroke-opacity:1; fill:none" points="1242.87,1035.39 1242.87,1016.49 "/>
<polyline clip-path="url(#clip200)" style="stroke:#000000; stroke-linecap:round; stroke-linejoin:round; stroke-width:4; stroke-opacity:1; fill:none" points="1609.17,1035.39 1609.17,1016.49 "/>
<path clip-path="url(#clip200)" d="M500.557 1060.03 L518.914 1060.03 L518.914 1063.96 L504.84 1063.96 L504.84 1072.44 Q505.858 1072.09 506.877 1071.93 Q507.895 1071.74 508.914 1071.74 Q514.701 1071.74 518.08 1074.91 Q521.46 1078.08 521.46 1083.5 Q521.46 1089.08 517.988 1092.18 Q514.516 1095.26 508.196 1095.26 Q506.02 1095.26 503.752 1094.89 Q501.506 1094.52 499.099 1093.78 L499.099 1089.08 Q501.182 1090.21 503.405 1090.77 Q505.627 1091.32 508.104 1091.32 Q512.108 1091.32 514.446 1089.22 Q516.784 1087.11 516.784 1083.5 Q516.784 1079.89 514.446 1077.78 Q512.108 1075.68 508.104 1075.68 Q506.229 1075.68 504.354 1076.09 Q502.502 1076.51 500.557 1077.39 L500.557 1060.03 Z" fill="#000000" fill-rule="nonzero" fill-opacity="1" /><path clip-path="url(#clip200)" d="M851.264 1090.65 L858.903 1090.65 L858.903 1064.29 L850.593 1065.95 L850.593 1061.69 L858.856 1060.03 L863.532 1060.03 L863.532 1090.65 L871.171 1090.65 L871.171 1094.59 L851.264 1094.59 L851.264 1090.65 Z" fill="#000000" fill-rule="nonzero" fill-opacity="1" /><path clip-path="url(#clip200)" d="M890.615 1063.11 Q887.004 1063.11 885.176 1066.67 Q883.37 1070.21 883.37 1077.34 Q883.37 1084.45 885.176 1088.01 Q887.004 1091.56 890.615 1091.56 Q894.25 1091.56 896.055 1088.01 Q897.884 1084.45 897.884 1077.34 Q897.884 1070.21 896.055 1066.67 Q894.25 1063.11 890.615 1063.11 M890.615 1059.4 Q896.426 1059.4 899.481 1064.01 Q902.56 1068.59 902.56 1077.34 Q902.56 1086.07 899.481 1090.68 Q896.426 1095.26 890.615 1095.26 Q884.805 1095.26 881.727 1090.68 Q878.671 1086.07 878.671 1077.34 Q878.671 1068.59 881.727 1064.01 Q884.805 1059.4 890.615 1059.4 Z" fill="#000000" fill-rule="nonzero" fill-opacity="1" /><path clip-path="url(#clip200)" d="M1218.06 1090.65 L1225.7 1090.65 L1225.7 1064.29 L1217.39 1065.95 L1217.39 1061.69 L1225.65 1060.03 L1230.33 1060.03 L1230.33 1090.65 L1237.97 1090.65 L1237.97 1094.59 L1218.06 1094.59 L1218.06 1090.65 Z" fill="#000000" fill-rule="nonzero" fill-opacity="1" /><path clip-path="url(#clip200)" d="M1247.46 1060.03 L1265.81 1060.03 L1265.81 1063.96 L1251.74 1063.96 L1251.74 1072.44 Q1252.76 1072.09 1253.78 1071.93 Q1254.79 1071.74 1255.81 1071.74 Q1261.6 1071.74 1264.98 1074.91 Q1268.36 1078.08 1268.36 1083.5 Q1268.36 1089.08 1264.89 1092.18 Q1261.41 1095.26 1255.1 1095.26 Q1252.92 1095.26 1250.65 1094.89 Q1248.41 1094.52 1246 1093.78 L1246 1089.08 Q1248.08 1090.21 1250.3 1090.77 Q1252.53 1091.32 1255 1091.32 Q1259.01 1091.32 1261.35 1089.22 Q1263.68 1087.11 1263.68 1083.5 Q1263.68 1079.89 1261.35 1077.78 Q1259.01 1075.68 1255 1075.68 Q1253.13 1075.68 1251.25 1076.09 Q1249.4 1076.51 1247.46 1077.39 L1247.46 1060.03 Z" fill="#000000" fill-rule="nonzero" fill-opacity="1" /><path clip-path="url(#clip200)" d="M1587.94 1090.65 L1604.26 1090.65 L1604.26 1094.59 L1582.32 1094.59 L1582.32 1090.65 Q1584.98 1087.9 1589.56 1083.27 Q1594.17 1078.62 1595.35 1077.27 Q1597.6 1074.75 1598.48 1073.01 Q1599.38 1071.25 1599.38 1069.56 Q1599.38 1066.81 1597.43 1065.07 Q1595.51 1063.34 1592.41 1063.34 Q1590.21 1063.34 1587.76 1064.1 Q1585.33 1064.87 1582.55 1066.42 L1582.55 1061.69 Q1585.37 1060.56 1587.83 1059.98 Q1590.28 1059.4 1592.32 1059.4 Q1597.69 1059.4 1600.88 1062.09 Q1604.08 1064.77 1604.08 1069.26 Q1604.08 1071.39 1603.27 1073.31 Q1602.48 1075.21 1600.37 1077.81 Q1599.79 1078.48 1596.69 1081.69 Q1593.59 1084.89 1587.94 1090.65 Z" fill="#000000" fill-rule="nonzero" fill-opacity="1" /><path clip-path="url(#clip200)" d="M1624.08 1063.11 Q1620.47 1063.11 1618.64 1066.67 Q1616.83 1070.21 1616.83 1077.34 Q1616.83 1084.45 1618.64 1088.01 Q1620.47 1091.56 1624.08 1091.56 Q1627.71 1091.56 1629.52 1088.01 Q1631.35 1084.45 1631.35 1077.34 Q1631.35 1070.21 1629.52 1066.67 Q1627.71 1063.11 1624.08 1063.11 M1624.08 1059.4 Q1629.89 1059.4 1632.94 1064.01 Q1636.02 1068.59 1636.02 1077.34 Q1636.02 1086.07 1632.94 1090.68 Q1629.89 1095.26 1624.08 1095.26 Q1618.27 1095.26 1615.19 1090.68 Q1612.13 1086.07 1612.13 1077.34 Q1612.13 1068.59 1615.19 1064.01 Q1618.27 1059.4 1624.08 1059.4 Z" fill="#000000" fill-rule="nonzero" fill-opacity="1" /><path clip-path="url(#clip200)" d="M984.418 1126.73 L990.848 1126.73 L990.848 1146.21 L1014.21 1146.21 L1014.21 1126.73 L1020.64 1126.73 L1020.64 1174.25 L1014.21 1174.25 L1014.21 1151.62 L990.848 1151.62 L990.848 1174.25 L984.418 1174.25 L984.418 1126.73 Z" fill="#000000" fill-rule="nonzero" fill-opacity="1" /><path clip-path="url(#clip200)" d="M1046.99 1142.71 Q1042.28 1142.71 1039.55 1146.4 Q1036.81 1150.06 1036.81 1156.46 Q1036.81 1162.86 1039.51 1166.55 Q1042.25 1170.21 1046.99 1170.21 Q1051.67 1170.21 1054.41 1166.52 Q1057.15 1162.83 1057.15 1156.46 Q1057.15 1150.13 1054.41 1146.43 Q1051.67 1142.71 1046.99 1142.71 M1046.99 1137.74 Q1054.63 1137.74 1058.99 1142.71 Q1063.35 1147.68 1063.35 1156.46 Q1063.35 1165.21 1058.99 1170.21 Q1054.63 1175.17 1046.99 1175.17 Q1039.32 1175.17 1034.96 1170.21 Q1030.63 1165.21 1030.63 1156.46 Q1030.63 1147.68 1034.96 1142.71 Q1039.32 1137.74 1046.99 1137.74 Z" fill="#000000" fill-rule="nonzero" fill-opacity="1" /><path clip-path="url(#clip200)" d="M1072.46 1160.18 L1072.46 1138.6 L1078.31 1138.6 L1078.31 1159.96 Q1078.31 1165.02 1080.29 1167.57 Q1082.26 1170.08 1086.21 1170.08 Q1090.95 1170.08 1093.69 1167.06 Q1096.45 1164.03 1096.45 1158.82 L1096.45 1138.6 L1102.31 1138.6 L1102.31 1174.25 L1096.45 1174.25 L1096.45 1168.78 Q1094.32 1172.02 1091.49 1173.62 Q1088.69 1175.17 1084.96 1175.17 Q1078.82 1175.17 1075.64 1171.36 Q1072.46 1167.54 1072.46 1160.18 M1087.19 1137.74 L1087.19 1137.74 Z" fill="#000000" fill-rule="nonzero" fill-opacity="1" /><path clip-path="url(#clip200)" d="M1135.03 1144.08 Q1134.04 1143.51 1132.87 1143.25 Q1131.72 1142.96 1130.32 1142.96 Q1125.35 1142.96 1122.68 1146.21 Q1120.04 1149.43 1120.04 1155.47 L1120.04 1174.25 L1114.15 1174.25 L1114.15 1138.6 L1120.04 1138.6 L1120.04 1144.14 Q1121.89 1140.9 1124.85 1139.34 Q1127.81 1137.74 1132.04 1137.74 Q1132.64 1137.74 1133.38 1137.84 Q1134.11 1137.9 1135 1138.06 L1135.03 1144.08 Z" fill="#000000" fill-rule="nonzero" fill-opacity="1" /><polyline clip-path="url(#clip200)" style="stroke:#000000; stroke-linecap:round; stroke-linejoin:round; stroke-width:4; stroke-opacity:1; fill:none" points="166.693,1035.39 166.693,47.2441 "/>
<polyline clip-path="url(#clip200)" style="stroke:#000000; stroke-linecap:round; stroke-linejoin:round; stroke-width:4; stroke-opacity:1; fill:none" points="166.693,1007.42 185.591,1007.42 "/>
<polyline clip-path="url(#clip200)" style="stroke:#000000; stroke-linecap:round; stroke-linejoin:round; stroke-width:4; stroke-opacity:1; fill:none" points="166.693,823.086 185.591,823.086 "/>
<polyline clip-path="url(#clip200)" style="stroke:#000000; stroke-linecap:round; stroke-linejoin:round; stroke-width:4; stroke-opacity:1; fill:none" points="166.693,638.75 185.591,638.75 "/>
<polyline clip-path="url(#clip200)" style="stroke:#000000; stroke-linecap:round; stroke-linejoin:round; stroke-width:4; stroke-opacity:1; fill:none" points="166.693,454.415 185.591,454.415 "/>
<polyline clip-path="url(#clip200)" style="stroke:#000000; stroke-linecap:round; stroke-linejoin:round; stroke-width:4; stroke-opacity:1; fill:none" points="166.693,270.079 185.591,270.079 "/>
<polyline clip-path="url(#clip200)" style="stroke:#000000; stroke-linecap:round; stroke-linejoin:round; stroke-width:4; stroke-opacity:1; fill:none" points="166.693,85.7439 185.591,85.7439 "/>
<path clip-path="url(#clip200)" d="M124.749 993.22 Q121.138 993.22 119.309 996.785 Q117.503 1000.33 117.503 1007.46 Q117.503 1014.56 119.309 1018.13 Q121.138 1021.67 124.749 1021.67 Q128.383 1021.67 130.189 1018.13 Q132.017 1014.56 132.017 1007.46 Q132.017 1000.33 130.189 996.785 Q128.383 993.22 124.749 993.22 M124.749 989.517 Q130.559 989.517 133.615 994.123 Q136.693 998.706 136.693 1007.46 Q136.693 1016.18 133.615 1020.79 Q130.559 1025.37 124.749 1025.37 Q118.939 1025.37 115.86 1020.79 Q112.804 1016.18 112.804 1007.46 Q112.804 998.706 115.86 994.123 Q118.939 989.517 124.749 989.517 Z" fill="#000000" fill-rule="nonzero" fill-opacity="1" /><path clip-path="url(#clip200)" d="M116.786 836.431 L124.425 836.431 L124.425 810.065 L116.115 811.732 L116.115 807.473 L124.378 805.806 L129.054 805.806 L129.054 836.431 L136.693 836.431 L136.693 840.366 L116.786 840.366 L116.786 836.431 Z" fill="#000000" fill-rule="nonzero" fill-opacity="1" /><path clip-path="url(#clip200)" d="M120.374 652.095 L136.693 652.095 L136.693 656.03 L114.749 656.03 L114.749 652.095 Q117.411 649.341 121.994 644.711 Q126.601 640.058 127.781 638.716 Q130.027 636.193 130.906 634.457 Q131.809 632.697 131.809 631.007 Q131.809 628.253 129.865 626.517 Q127.943 624.781 124.841 624.781 Q122.642 624.781 120.189 625.545 Q117.758 626.308 114.98 627.859 L114.98 623.137 Q117.804 622.003 120.258 621.424 Q122.712 620.845 124.749 620.845 Q130.119 620.845 133.314 623.531 Q136.508 626.216 136.508 630.707 Q136.508 632.836 135.698 634.757 Q134.911 636.656 132.804 639.248 Q132.226 639.919 129.124 643.137 Q126.022 646.331 120.374 652.095 Z" fill="#000000" fill-rule="nonzero" fill-opacity="1" /><path clip-path="url(#clip200)" d="M129.564 453.061 Q132.92 453.778 134.795 456.047 Q136.693 458.315 136.693 461.649 Q136.693 466.764 133.175 469.565 Q129.656 472.366 123.175 472.366 Q120.999 472.366 118.684 471.926 Q116.392 471.51 113.939 470.653 L113.939 466.139 Q115.883 467.274 118.198 467.852 Q120.513 468.431 123.036 468.431 Q127.434 468.431 129.726 466.695 Q132.04 464.959 132.04 461.649 Q132.04 458.593 129.888 456.88 Q127.758 455.144 123.939 455.144 L119.911 455.144 L119.911 451.302 L124.124 451.302 Q127.573 451.302 129.402 449.936 Q131.23 448.547 131.23 445.954 Q131.23 443.292 129.332 441.88 Q127.457 440.445 123.939 440.445 Q122.017 440.445 119.818 440.862 Q117.619 441.278 114.98 442.158 L114.98 437.991 Q117.642 437.251 119.957 436.88 Q122.295 436.51 124.355 436.51 Q129.679 436.51 132.781 438.94 Q135.883 441.348 135.883 445.468 Q135.883 448.339 134.24 450.329 Q132.596 452.297 129.564 453.061 Z" fill="#000000" fill-rule="nonzero" fill-opacity="1" /><path clip-path="url(#clip200)" d="M127.11 256.873 L115.304 275.322 L127.11 275.322 L127.11 256.873 M125.883 252.799 L131.763 252.799 L131.763 275.322 L136.693 275.322 L136.693 279.211 L131.763 279.211 L131.763 287.359 L127.11 287.359 L127.11 279.211 L111.508 279.211 L111.508 274.697 L125.883 252.799 Z" fill="#000000" fill-rule="nonzero" fill-opacity="1" /><path clip-path="url(#clip200)" d="M115.791 68.4639 L134.147 68.4639 L134.147 72.399 L120.073 72.399 L120.073 80.8712 Q121.091 80.524 122.11 80.362 Q123.128 80.1768 124.147 80.1768 Q129.934 80.1768 133.314 83.3481 Q136.693 86.5193 136.693 91.936 Q136.693 97.5147 133.221 100.616 Q129.749 103.695 123.429 103.695 Q121.253 103.695 118.985 103.325 Q116.74 102.954 114.332 102.214 L114.332 97.5147 Q116.416 98.6489 118.638 99.2045 Q120.86 99.76 123.337 99.76 Q127.341 99.76 129.679 97.6535 Q132.017 95.5471 132.017 91.936 Q132.017 88.3249 129.679 86.2184 Q127.341 84.1119 123.337 84.1119 Q121.462 84.1119 119.587 84.5286 Q117.735 84.9453 115.791 85.8249 L115.791 68.4639 Z" fill="#000000" fill-rule="nonzero" fill-opacity="1" /><path clip-path="url(#clip200)" d="M19.7322 682.46 L19.7322 676.03 L61.8413 676.03 L61.8413 652.891 L67.2522 652.891 L67.2522 682.46 L19.7322 682.46 Z" fill="#000000" fill-rule="nonzero" fill-opacity="1" /><path clip-path="url(#clip200)" d="M35.7101 633.73 Q35.7101 638.441 39.4022 641.178 Q43.0625 643.915 49.46 643.915 Q55.8575 643.915 59.5497 641.21 Q63.2099 638.473 63.2099 633.73 Q63.2099 629.051 59.5178 626.314 Q55.8257 623.577 49.46 623.577 Q43.1261 623.577 39.434 626.314 Q35.7101 629.051 35.7101 633.73 M30.7448 633.73 Q30.7448 626.091 35.7101 621.731 Q40.6753 617.37 49.46 617.37 Q58.2129 617.37 63.2099 621.731 Q68.1752 626.091 68.1752 633.73 Q68.1752 641.401 63.2099 645.761 Q58.2129 650.09 49.46 650.09 Q40.6753 650.09 35.7101 645.761 Q30.7448 641.401 30.7448 633.73 Z" fill="#000000" fill-rule="nonzero" fill-opacity="1" /><path clip-path="url(#clip200)" d="M32.6545 584.937 L38.1927 584.937 Q36.9196 587.42 36.283 590.093 Q35.6464 592.767 35.6464 595.631 Q35.6464 599.992 36.9832 602.188 Q38.32 604.352 40.9936 604.352 Q43.0306 604.352 44.2083 602.793 Q45.3541 601.233 46.4045 596.523 L46.8501 594.517 Q48.1869 588.279 50.6377 585.669 Q53.0566 583.027 57.4171 583.027 Q62.3824 583.027 65.2788 586.974 Q68.1752 590.889 68.1752 597.764 Q68.1752 600.628 67.6023 603.748 Q67.0612 606.835 65.9472 610.272 L59.8998 610.272 Q61.5867 607.026 62.446 603.875 Q63.2736 600.724 63.2736 597.637 Q63.2736 593.499 61.8731 591.271 Q60.4409 589.043 57.8627 589.043 Q55.4756 589.043 54.2025 590.666 Q52.9293 592.258 51.7517 597.7 L51.2742 599.737 Q50.1284 605.18 47.7731 607.599 Q45.386 610.018 41.2482 610.018 Q36.2193 610.018 33.4821 606.453 Q30.7448 602.888 30.7448 596.332 Q30.7448 593.085 31.2223 590.221 Q31.6997 587.356 32.6545 584.937 Z" fill="#000000" fill-rule="nonzero" fill-opacity="1" /><path clip-path="url(#clip200)" d="M21.4827 567.909 L31.6042 567.909 L31.6042 555.846 L36.1557 555.846 L36.1557 567.909 L55.5074 567.909 Q59.8679 567.909 61.1093 566.731 Q62.3506 565.522 62.3506 561.861 L62.3506 555.846 L67.2522 555.846 L67.2522 561.861 Q67.2522 568.641 64.7377 571.219 Q62.1914 573.797 55.5074 573.797 L36.1557 573.797 L36.1557 578.094 L31.6042 578.094 L31.6042 573.797 L21.4827 573.797 L21.4827 567.909 Z" fill="#000000" fill-rule="nonzero" fill-opacity="1" /><path clip-path="url(#clip200)" d="M17.727 527.423 L17.727 521.566 L67.2522 521.566 L67.2522 527.423 L17.727 527.423 Z" fill="#000000" fill-rule="nonzero" fill-opacity="1" /><path clip-path="url(#clip200)" d="M35.7101 495.499 Q35.7101 500.209 39.4022 502.947 Q43.0625 505.684 49.46 505.684 Q55.8575 505.684 59.5497 502.979 Q63.2099 500.241 63.2099 495.499 Q63.2099 490.82 59.5178 488.083 Q55.8257 485.345 49.46 485.345 Q43.1261 485.345 39.434 488.083 Q35.7101 490.82 35.7101 495.499 M30.7448 495.499 Q30.7448 487.86 35.7101 483.499 Q40.6753 479.139 49.46 479.139 Q58.2129 479.139 63.2099 483.499 Q68.1752 487.86 68.1752 495.499 Q68.1752 503.169 63.2099 507.53 Q58.2129 511.859 49.46 511.859 Q40.6753 511.859 35.7101 507.53 Q30.7448 503.169 30.7448 495.499 Z" fill="#000000" fill-rule="nonzero" fill-opacity="1" /><path clip-path="url(#clip200)" d="M49.3327 453.231 Q49.3327 460.328 50.9559 463.066 Q52.5792 465.803 56.4941 465.803 Q59.6133 465.803 61.4594 463.766 Q63.2736 461.697 63.2736 458.164 Q63.2736 453.294 59.8361 450.366 Q56.3668 447.406 50.6377 447.406 L49.3327 447.406 L49.3327 453.231 M46.9137 441.549 L67.2522 441.549 L67.2522 447.406 L61.8413 447.406 Q65.0878 449.411 66.6474 452.403 Q68.1752 455.395 68.1752 459.724 Q68.1752 465.198 65.1196 468.445 Q62.0323 471.659 56.8761 471.659 Q50.8605 471.659 47.8049 467.649 Q44.7494 463.607 44.7494 455.618 L44.7494 447.406 L44.1765 447.406 Q40.1342 447.406 37.9381 450.079 Q35.7101 452.721 35.7101 457.527 Q35.7101 460.583 36.4421 463.479 Q37.1742 466.376 38.6383 469.049 L33.2275 469.049 Q31.9861 465.835 31.3814 462.811 Q30.7448 459.787 30.7448 456.923 Q30.7448 449.188 34.7552 445.369 Q38.7656 441.549 46.9137 441.549 Z" fill="#000000" fill-rule="nonzero" fill-opacity="1" /><path clip-path="url(#clip200)" d="M37.0151 406.029 L17.727 406.029 L17.727 400.172 L67.2522 400.172 L67.2522 406.029 L61.905 406.029 Q65.0878 407.875 66.6474 410.708 Q68.1752 413.508 68.1752 417.455 Q68.1752 423.916 63.019 427.99 Q57.8627 432.033 49.46 432.033 Q41.0573 432.033 35.9011 427.99 Q30.7448 423.916 30.7448 417.455 Q30.7448 413.508 32.3044 410.708 Q33.8322 407.875 37.0151 406.029 M49.46 425.985 Q55.9212 425.985 59.6133 423.344 Q63.2736 420.67 63.2736 416.023 Q63.2736 411.376 59.6133 408.702 Q55.9212 406.029 49.46 406.029 Q42.9988 406.029 39.3385 408.702 Q35.6464 411.376 35.6464 416.023 Q35.6464 420.67 39.3385 423.344 Q42.9988 425.985 49.46 425.985 Z" fill="#000000" fill-rule="nonzero" fill-opacity="1" /><path clip-path="url(#clip202)" d="M217.242 1007.42 L290.501 1007.42 L363.761 1007.42 L437.02 1007.42 L510.28 1007.42 L583.539 1007.42 L656.798 1007.42 L730.058 1007.42 L803.317 1007.42 L876.576 1007.42 L949.836 1007.42 L1023.09 1007.42 L1096.35 1007.42 L1169.61 1007.42 L1242.87 1007.42 L1316.13 1007.42 L1389.39 1007.42 L1462.65 1007.42 L1535.91 1007.42 L1609.17 1007.42 L1682.43 1007.42 L1755.69 1007.42 L1828.95 1007.42 L1902.21 1007.42 L1902.21 1007.42 L1828.95 1007.42 L1755.69 270.079 L1682.43 75.2104 L1609.17 823.086 L1535.91 1007.42 L1462.65 1007.42 L1389.39 1007.42 L1316.13 1007.42 L1242.87 1007.42 L1169.61 1007.42 L1096.35 1007.42 L1023.09 1007.42 L949.836 1007.42 L876.576 1007.42 L803.317 1007.42 L730.058 1007.42 L656.798 1007.42 L583.539 1007.42 L510.28 1007.42 L437.02 1007.42 L363.761 1007.42 L290.501 1007.42 L217.242 1007.42  Z" fill="#00467f" fill-rule="evenodd" fill-opacity="0.2"/>
<polyline clip-path="url(#clip202)" style="stroke:#00467f; stroke-linecap:round; stroke-linejoin:round; stroke-width:4; stroke-opacity:0; fill:none" points="217.242,1007.42 290.501,1007.42 363.761,1007.42 437.02,1007.42 510.28,1007.42 583.539,1007.42 656.798,1007.42 730.058,1007.42 803.317,1007.42 876.576,1007.42 949.836,1007.42 1023.09,1007.42 1096.35,1007.42 1169.61,1007.42 1242.87,1007.42 1316.13,1007.42 1389.39,1007.42 1462.65,1007.42 1535.91,1007.42 1609.17,915.254 1682.43,541.316 1755.69,638.75 1828.95,1007.42 1902.21,1007.42 "/>
<path clip-path="url(#clip202)" d="M217.242 1007.42 L290.501 1007.42 L363.761 1007.42 L437.02 1007.42 L510.28 1007.42 L583.539 1007.42 L656.798 1007.42 L730.058 1007.42 L803.317 1007.42 L876.576 1007.42 L949.836 1007.42 L1023.09 1007.42 L1096.35 1007.42 L1169.61 1007.42 L1242.87 1007.42 L1316.13 1007.42 L1389.39 1007.42 L1462.65 1007.42 L1535.91 1007.42 L1609.17 1007.42 L1682.43 1007.42 L1755.69 1007.42 L1828.95 1007.42 L1902.21 1007.42 L1902.21 1007.42 L1828.95 1007.42 L1755.69 1007.42 L1682.43 1007.42 L1609.17 1007.42 L1535.91 1007.42 L1462.65 1007.42 L1389.39 1007.42 L1316.13 1007.42 L1242.87 1007.42 L1169.61 1007.42 L1096.35 1007.42 L1023.09 1007.42 L949.836 1007.42 L876.576 1007.42 L803.317 1007.42 L730.058 1007.42 L656.798 1007.42 L583.539 1007.42 L510.28 1007.42 L437.02 1007.42 L363.761 1007.42 L290.501 1007.42 L217.242 1007.42  Z" fill="#00467f" fill-rule="evenodd" fill-opacity="0.2"/>
<polyline clip-path="url(#clip202)" style="stroke:#00467f; stroke-linecap:round; stroke-linejoin:round; stroke-width:4; stroke-opacity:0; fill:none" points="217.242,1007.42 290.501,1007.42 363.761,1007.42 437.02,1007.42 510.28,1007.42 583.539,1007.42 656.798,1007.42 730.058,1007.42 803.317,1007.42 876.576,1007.42 949.836,1007.42 1023.09,1007.42 1096.35,1007.42 1169.61,1007.42 1242.87,1007.42 1316.13,1007.42 1389.39,1007.42 1462.65,1007.42 1535.91,1007.42 1609.17,1007.42 1682.43,1007.42 1755.69,1007.42 1828.95,1007.42 1902.21,1007.42 "/>
<path clip-path="url(#clip202)" d="M217.242 1007.42 L290.501 1007.42 L363.761 1007.42 L437.02 1007.42 L510.28 1007.42 L583.539 1007.42 L656.798 1007.42 L730.058 1007.42 L803.317 1007.42 L876.576 1007.42 L949.836 1007.42 L1023.09 1007.42 L1096.35 1007.42 L1169.61 1007.42 L1242.87 1007.42 L1316.13 1007.42 L1389.39 1007.42 L1462.65 1007.42 L1535.91 1007.42 L1609.17 1007.42 L1682.43 1007.42 L1755.69 1007.42 L1828.95 1007.42 L1902.21 1007.42 L1902.21 1007.42 L1828.95 1007.42 L1755.69 1007.42 L1682.43 1007.42 L1609.17 1007.42 L1535.91 1007.42 L1462.65 1007.42 L1389.39 1007.42 L1316.13 1007.42 L1242.87 1007.42 L1169.61 1007.42 L1096.35 1007.42 L1023.09 1007.42 L949.836 1007.42 L876.576 1007.42 L803.317 1007.42 L730.058 1007.42 L656.798 1007.42 L583.539 1007.42 L510.28 1007.42 L437.02 1007.42 L363.761 1007.42 L290.501 1007.42 L217.242 1007.42  Z" fill="#00467f" fill-rule="evenodd" fill-opacity="0.2"/>
<polyline clip-path="url(#clip202)" style="stroke:#00467f; stroke-linecap:round; stroke-linejoin:round; stroke-width:4; stroke-opacity:0; fill:none" points="217.242,1007.42 290.501,1007.42 363.761,1007.42 437.02,1007.42 510.28,1007.42 583.539,1007.42 656.798,1007.42 730.058,1007.42 803.317,1007.42 876.576,1007.42 949.836,1007.42 1023.09,1007.42 1096.35,1007.42 1169.61,1007.42 1242.87,1007.42 1316.13,1007.42 1389.39,1007.42 1462.65,1007.42 1535.91,1007.42 1609.17,1007.42 1682.43,1007.42 1755.69,1007.42 1828.95,1007.42 1902.21,1007.42 "/>
<polyline clip-path="url(#clip202)" style="stroke:#00467f; stroke-linecap:round; stroke-linejoin:round; stroke-width:4; stroke-opacity:1; fill:none" points="217.242,1007.42 290.501,1007.42 363.761,1007.42 437.02,1007.42 510.28,1007.42 583.539,1007.42 656.798,1007.42 730.058,1007.42 803.317,1007.42 876.576,1007.42 949.836,1007.42 1023.09,1007.42 1096.35,1007.42 1169.61,1007.42 1242.87,1007.42 1316.13,1007.42 1389.39,1007.42 1462.65,1007.42 1535.91,1007.42 1609.17,1007.42 1682.43,1007.42 1755.69,1007.42 1828.95,1007.42 1902.21,1007.42 "/>
</svg>
