<?xml version="1.0" encoding="utf-8"?>
<svg xmlns="http://www.w3.org/2000/svg" xmlns:xlink="http://www.w3.org/1999/xlink" width="500" height="300" viewBox="0 0 2000 1200">
<defs>
  <clipPath id="clip990">
    <rect x="0" y="0" width="2000" height="1200"/>
  </clipPath>
</defs>
<path clip-path="url(#clip990)" d="M0 1200 L2000 1200 L2000 0 L0 0  Z" fill="#ffffff" fill-rule="evenodd" fill-opacity="1"/>
<defs>
  <clipPath id="clip991">
    <rect x="400" y="0" width="1401" height="1200"/>
  </clipPath>
</defs>
<path clip-path="url(#clip990)" d="M152.598 493.904 L937.918 493.904 L937.918 117.424 L152.598 117.424  Z" fill="#ffffff" fill-rule="evenodd" fill-opacity="1"/>
<defs>
  <clipPath id="clip992">
    <rect x="152" y="117" width="786" height="377"/>
  </clipPath>
</defs>
<polyline clip-path="url(#clip992)" style="stroke:#000000; stroke-linecap:round; stroke-linejoin:round; stroke-width:2; stroke-opacity:0.1; fill:none" points="275.852,493.904 275.852,117.424 "/>
<polyline clip-path="url(#clip992)" style="stroke:#000000; stroke-linecap:round; stroke-linejoin:round; stroke-width:2; stroke-opacity:0.1; fill:none" points="444.231,493.904 444.231,117.424 "/>
<polyline clip-path="url(#clip992)" style="stroke:#000000; stroke-linecap:round; stroke-linejoin:round; stroke-width:2; stroke-opacity:0.1; fill:none" points="612.61,493.904 612.61,117.424 "/>
<polyline clip-path="url(#clip992)" style="stroke:#000000; stroke-linecap:round; stroke-linejoin:round; stroke-width:2; stroke-opacity:0.1; fill:none" points="780.989,493.904 780.989,117.424 "/>
<polyline clip-path="url(#clip992)" style="stroke:#000000; stroke-linecap:round; stroke-linejoin:round; stroke-width:2; stroke-opacity:0.1; fill:none" points="152.598,483.249 937.918,483.249 "/>
<polyline clip-path="url(#clip992)" style="stroke:#000000; stroke-linecap:round; stroke-linejoin:round; stroke-width:2; stroke-opacity:0.1; fill:none" points="152.598,377.216 937.918,377.216 "/>
<polyline clip-path="url(#clip992)" style="stroke:#000000; stroke-linecap:round; stroke-linejoin:round; stroke-width:2; stroke-opacity:0.1; fill:none" points="152.598,271.183 937.918,271.183 "/>
<polyline clip-path="url(#clip992)" style="stroke:#000000; stroke-linecap:round; stroke-linejoin:round; stroke-width:2; stroke-opacity:0.1; fill:none" points="152.598,165.15 937.918,165.15 "/>
<polyline clip-path="url(#clip990)" style="stroke:#000000; stroke-linecap:round; stroke-linejoin:round; stroke-width:4; stroke-opacity:1; fill:none" points="152.598,493.904 937.918,493.904 "/>
<polyline clip-path="url(#clip990)" style="stroke:#000000; stroke-linecap:round; stroke-linejoin:round; stroke-width:4; stroke-opacity:1; fill:none" points="275.852,493.904 275.852,475.006 "/>
<polyline clip-path="url(#clip990)" style="stroke:#000000; stroke-linecap:round; stroke-linejoin:round; stroke-width:4; stroke-opacity:1; fill:none" points="444.231,493.904 444.231,475.006 "/>
<polyline clip-path="url(#clip990)" style="stroke:#000000; stroke-linecap:round; stroke-linejoin:round; stroke-width:4; stroke-opacity:1; fill:none" points="612.61,493.904 612.61,475.006 "/>
<polyline clip-path="url(#clip990)" style="stroke:#000000; stroke-linecap:round; stroke-linejoin:round; stroke-width:4; stroke-opacity:1; fill:none" points="780.989,493.904 780.989,475.006 "/>
<path clip-path="url(#clip990)" d="M247.588 549.169 L263.907 549.169 L263.907 553.104 L241.963 553.104 L241.963 549.169 Q244.625 546.414 249.208 541.784 Q253.815 537.132 254.995 535.789 Q257.241 533.266 258.12 531.53 Q259.023 529.771 259.023 528.081 Q259.023 525.326 257.079 523.59 Q255.157 521.854 252.056 521.854 Q249.856 521.854 247.403 522.618 Q244.972 523.382 242.194 524.933 L242.194 520.211 Q245.019 519.076 247.472 518.498 Q249.926 517.919 251.963 517.919 Q257.333 517.919 260.528 520.604 Q263.722 523.289 263.722 527.78 Q263.722 529.91 262.912 531.831 Q262.125 533.729 260.018 536.322 Q259.44 536.993 256.338 540.21 Q253.236 543.405 247.588 549.169 Z" fill="#000000" fill-rule="nonzero" fill-opacity="1" /><path clip-path="url(#clip990)" d="M273.722 547.224 L278.606 547.224 L278.606 553.104 L273.722 553.104 L273.722 547.224 Z" fill="#000000" fill-rule="nonzero" fill-opacity="1" /><path clip-path="url(#clip990)" d="M288.838 518.544 L307.194 518.544 L307.194 522.479 L293.12 522.479 L293.12 530.951 Q294.139 530.604 295.157 530.442 Q296.176 530.257 297.194 530.257 Q302.981 530.257 306.361 533.428 Q309.74 536.599 309.74 542.016 Q309.74 547.595 306.268 550.696 Q302.796 553.775 296.477 553.775 Q294.301 553.775 292.032 553.405 Q289.787 553.034 287.379 552.294 L287.379 547.595 Q289.463 548.729 291.685 549.284 Q293.907 549.84 296.384 549.84 Q300.389 549.84 302.727 547.734 Q305.064 545.627 305.064 542.016 Q305.064 538.405 302.727 536.298 Q300.389 534.192 296.384 534.192 Q294.509 534.192 292.634 534.609 Q290.782 535.025 288.838 535.905 L288.838 518.544 Z" fill="#000000" fill-rule="nonzero" fill-opacity="1" /><path clip-path="url(#clip990)" d="M411.395 518.544 L429.752 518.544 L429.752 522.479 L415.678 522.479 L415.678 530.951 Q416.696 530.604 417.715 530.442 Q418.733 530.257 419.752 530.257 Q425.539 530.257 428.918 533.428 Q432.298 536.599 432.298 542.016 Q432.298 547.595 428.826 550.696 Q425.353 553.775 419.034 553.775 Q416.858 553.775 414.59 553.405 Q412.344 553.034 409.937 552.294 L409.937 547.595 Q412.02 548.729 414.242 549.284 Q416.465 549.84 418.941 549.84 Q422.946 549.84 425.284 547.734 Q427.622 545.627 427.622 542.016 Q427.622 538.405 425.284 536.298 Q422.946 534.192 418.941 534.192 Q417.067 534.192 415.192 534.609 Q413.34 535.025 411.395 535.905 L411.395 518.544 Z" fill="#000000" fill-rule="nonzero" fill-opacity="1" /><path clip-path="url(#clip990)" d="M441.511 547.224 L446.395 547.224 L446.395 553.104 L441.511 553.104 L441.511 547.224 Z" fill="#000000" fill-rule="nonzero" fill-opacity="1" /><path clip-path="url(#clip990)" d="M466.58 521.623 Q462.969 521.623 461.14 525.187 Q459.335 528.729 459.335 535.859 Q459.335 542.965 461.14 546.53 Q462.969 550.071 466.58 550.071 Q470.214 550.071 472.02 546.53 Q473.849 542.965 473.849 535.859 Q473.849 528.729 472.02 525.187 Q470.214 521.623 466.58 521.623 M466.58 517.919 Q472.39 517.919 475.446 522.525 Q478.525 527.109 478.525 535.859 Q478.525 544.585 475.446 549.192 Q472.39 553.775 466.58 553.775 Q460.77 553.775 457.691 549.192 Q454.636 544.585 454.636 535.859 Q454.636 527.109 457.691 522.525 Q460.77 517.919 466.58 517.919 Z" fill="#000000" fill-rule="nonzero" fill-opacity="1" /><path clip-path="url(#clip990)" d="M578.929 518.544 L601.151 518.544 L601.151 520.535 L588.605 553.104 L583.721 553.104 L595.526 522.479 L578.929 522.479 L578.929 518.544 Z" fill="#000000" fill-rule="nonzero" fill-opacity="1" /><path clip-path="url(#clip990)" d="M610.272 547.224 L615.156 547.224 L615.156 553.104 L610.272 553.104 L610.272 547.224 Z" fill="#000000" fill-rule="nonzero" fill-opacity="1" /><path clip-path="url(#clip990)" d="M625.387 518.544 L643.744 518.544 L643.744 522.479 L629.67 522.479 L629.67 530.951 Q630.688 530.604 631.707 530.442 Q632.725 530.257 633.744 530.257 Q639.531 530.257 642.911 533.428 Q646.29 536.599 646.29 542.016 Q646.29 547.595 642.818 550.696 Q639.346 553.775 633.026 553.775 Q630.85 553.775 628.582 553.405 Q626.337 553.034 623.929 552.294 L623.929 547.595 Q626.012 548.729 628.235 549.284 Q630.457 549.84 632.934 549.84 Q636.938 549.84 639.276 547.734 Q641.614 545.627 641.614 542.016 Q641.614 538.405 639.276 536.298 Q636.938 534.192 632.934 534.192 Q631.059 534.192 629.184 534.609 Q627.332 535.025 625.387 535.905 L625.387 518.544 Z" fill="#000000" fill-rule="nonzero" fill-opacity="1" /><path clip-path="url(#clip990)" d="M733.061 549.169 L740.7 549.169 L740.7 522.803 L732.389 524.47 L732.389 520.211 L740.653 518.544 L745.329 518.544 L745.329 549.169 L752.968 549.169 L752.968 553.104 L733.061 553.104 L733.061 549.169 Z" fill="#000000" fill-rule="nonzero" fill-opacity="1" /><path clip-path="url(#clip990)" d="M772.412 521.623 Q768.801 521.623 766.973 525.187 Q765.167 528.729 765.167 535.859 Q765.167 542.965 766.973 546.53 Q768.801 550.071 772.412 550.071 Q776.047 550.071 777.852 546.53 Q779.681 542.965 779.681 535.859 Q779.681 528.729 777.852 525.187 Q776.047 521.623 772.412 521.623 M772.412 517.919 Q778.223 517.919 781.278 522.525 Q784.357 527.109 784.357 535.859 Q784.357 544.585 781.278 549.192 Q778.223 553.775 772.412 553.775 Q766.602 553.775 763.524 549.192 Q760.468 544.585 760.468 535.859 Q760.468 527.109 763.524 522.525 Q766.602 517.919 772.412 517.919 Z" fill="#000000" fill-rule="nonzero" fill-opacity="1" /><path clip-path="url(#clip990)" d="M792.574 547.224 L797.459 547.224 L797.459 553.104 L792.574 553.104 L792.574 547.224 Z" fill="#000000" fill-rule="nonzero" fill-opacity="1" /><path clip-path="url(#clip990)" d="M817.644 521.623 Q814.033 521.623 812.204 525.187 Q810.398 528.729 810.398 535.859 Q810.398 542.965 812.204 546.53 Q814.033 550.071 817.644 550.071 Q821.278 550.071 823.083 546.53 Q824.912 542.965 824.912 535.859 Q824.912 528.729 823.083 525.187 Q821.278 521.623 817.644 521.623 M817.644 517.919 Q823.454 517.919 826.509 522.525 Q829.588 527.109 829.588 535.859 Q829.588 544.585 826.509 549.192 Q823.454 553.775 817.644 553.775 Q811.834 553.775 808.755 549.192 Q805.699 544.585 805.699 535.859 Q805.699 527.109 808.755 522.525 Q811.834 517.919 817.644 517.919 Z" fill="#000000" fill-rule="nonzero" fill-opacity="1" /><polyline clip-path="url(#clip990)" style="stroke:#000000; stroke-linecap:round; stroke-linejoin:round; stroke-width:4; stroke-opacity:1; fill:none" points="152.598,493.904 152.598,117.424 "/>
<polyline clip-path="url(#clip990)" style="stroke:#000000; stroke-linecap:round; stroke-linejoin:round; stroke-width:4; stroke-opacity:1; fill:none" points="152.598,483.249 171.496,483.249 "/>
<polyline clip-path="url(#clip990)" style="stroke:#000000; stroke-linecap:round; stroke-linejoin:round; stroke-width:4; stroke-opacity:1; fill:none" points="152.598,377.216 171.496,377.216 "/>
<polyline clip-path="url(#clip990)" style="stroke:#000000; stroke-linecap:round; stroke-linejoin:round; stroke-width:4; stroke-opacity:1; fill:none" points="152.598,271.183 171.496,271.183 "/>
<polyline clip-path="url(#clip990)" style="stroke:#000000; stroke-linecap:round; stroke-linejoin:round; stroke-width:4; stroke-opacity:1; fill:none" points="152.598,165.15 171.496,165.15 "/>
<path clip-path="url(#clip990)" d="M65.4226 469.047 Q61.8115 469.047 59.9828 472.612 Q58.1773 476.154 58.1773 483.284 Q58.1773 490.39 59.9828 493.955 Q61.8115 497.496 65.4226 497.496 Q69.0569 497.496 70.8624 493.955 Q72.6911 490.39 72.6911 483.284 Q72.6911 476.154 70.8624 472.612 Q69.0569 469.047 65.4226 469.047 M65.4226 465.344 Q71.2328 465.344 74.2883 469.95 Q77.367 474.534 77.367 483.284 Q77.367 492.01 74.2883 496.617 Q71.2328 501.2 65.4226 501.2 Q59.6125 501.2 56.5338 496.617 Q53.4782 492.01 53.4782 483.284 Q53.4782 474.534 56.5338 469.95 Q59.6125 465.344 65.4226 465.344 Z" fill="#000000" fill-rule="nonzero" fill-opacity="1" /><path clip-path="url(#clip990)" d="M85.5845 494.649 L90.4688 494.649 L90.4688 500.529 L85.5845 500.529 L85.5845 494.649 Z" fill="#000000" fill-rule="nonzero" fill-opacity="1" /><path clip-path="url(#clip990)" d="M110.654 469.047 Q107.043 469.047 105.214 472.612 Q103.409 476.154 103.409 483.284 Q103.409 490.39 105.214 493.955 Q107.043 497.496 110.654 497.496 Q114.288 497.496 116.094 493.955 Q117.922 490.39 117.922 483.284 Q117.922 476.154 116.094 472.612 Q114.288 469.047 110.654 469.047 M110.654 465.344 Q116.464 465.344 119.52 469.95 Q122.598 474.534 122.598 483.284 Q122.598 492.01 119.52 496.617 Q116.464 501.2 110.654 501.2 Q104.844 501.2 101.765 496.617 Q98.7095 492.01 98.7095 483.284 Q98.7095 474.534 101.765 469.95 Q104.844 465.344 110.654 465.344 Z" fill="#000000" fill-rule="nonzero" fill-opacity="1" /><path clip-path="url(#clip990)" d="M66.418 363.015 Q62.8069 363.015 60.9782 366.579 Q59.1726 370.121 59.1726 377.251 Q59.1726 384.357 60.9782 387.922 Q62.8069 391.464 66.418 391.464 Q70.0522 391.464 71.8578 387.922 Q73.6865 384.357 73.6865 377.251 Q73.6865 370.121 71.8578 366.579 Q70.0522 363.015 66.418 363.015 M66.418 359.311 Q72.2281 359.311 75.2837 363.917 Q78.3624 368.501 78.3624 377.251 Q78.3624 385.977 75.2837 390.584 Q72.2281 395.167 66.418 395.167 Q60.6078 395.167 57.5291 390.584 Q54.4736 385.977 54.4736 377.251 Q54.4736 368.501 57.5291 363.917 Q60.6078 359.311 66.418 359.311 Z" fill="#000000" fill-rule="nonzero" fill-opacity="1" /><path clip-path="url(#clip990)" d="M86.5799 388.616 L91.4641 388.616 L91.4641 394.496 L86.5799 394.496 L86.5799 388.616 Z" fill="#000000" fill-rule="nonzero" fill-opacity="1" /><path clip-path="url(#clip990)" d="M101.696 359.936 L120.052 359.936 L120.052 363.871 L105.978 363.871 L105.978 372.343 Q106.996 371.996 108.015 371.834 Q109.033 371.649 110.052 371.649 Q115.839 371.649 119.219 374.82 Q122.598 377.991 122.598 383.408 Q122.598 388.987 119.126 392.089 Q115.654 395.167 109.334 395.167 Q107.159 395.167 104.89 394.797 Q102.645 394.426 100.237 393.686 L100.237 388.987 Q102.321 390.121 104.543 390.676 Q106.765 391.232 109.242 391.232 Q113.246 391.232 115.584 389.126 Q117.922 387.019 117.922 383.408 Q117.922 379.797 115.584 377.69 Q113.246 375.584 109.242 375.584 Q107.367 375.584 105.492 376.001 Q103.64 376.417 101.696 377.297 L101.696 359.936 Z" fill="#000000" fill-rule="nonzero" fill-opacity="1" /><path clip-path="url(#clip990)" d="M56.2328 284.528 L63.8717 284.528 L63.8717 258.162 L55.5616 259.829 L55.5616 255.57 L63.8254 253.903 L68.5013 253.903 L68.5013 284.528 L76.1402 284.528 L76.1402 288.463 L56.2328 288.463 L56.2328 284.528 Z" fill="#000000" fill-rule="nonzero" fill-opacity="1" /><path clip-path="url(#clip990)" d="M85.5845 282.583 L90.4688 282.583 L90.4688 288.463 L85.5845 288.463 L85.5845 282.583 Z" fill="#000000" fill-rule="nonzero" fill-opacity="1" /><path clip-path="url(#clip990)" d="M110.654 256.982 Q107.043 256.982 105.214 260.547 Q103.409 264.088 103.409 271.218 Q103.409 278.324 105.214 281.889 Q107.043 285.431 110.654 285.431 Q114.288 285.431 116.094 281.889 Q117.922 278.324 117.922 271.218 Q117.922 264.088 116.094 260.547 Q114.288 256.982 110.654 256.982 M110.654 253.278 Q116.464 253.278 119.52 257.884 Q122.598 262.468 122.598 271.218 Q122.598 279.945 119.52 284.551 Q116.464 289.134 110.654 289.134 Q104.844 289.134 101.765 284.551 Q98.7095 279.945 98.7095 271.218 Q98.7095 262.468 101.765 257.884 Q104.844 253.278 110.654 253.278 Z" fill="#000000" fill-rule="nonzero" fill-opacity="1" /><path clip-path="url(#clip990)" d="M57.2282 178.495 L64.8671 178.495 L64.8671 152.129 L56.5569 153.796 L56.5569 149.537 L64.8208 147.87 L69.4967 147.87 L69.4967 178.495 L77.1355 178.495 L77.1355 182.43 L57.2282 182.43 L57.2282 178.495 Z" fill="#000000" fill-rule="nonzero" fill-opacity="1" /><path clip-path="url(#clip990)" d="M86.5799 176.551 L91.4641 176.551 L91.4641 182.43 L86.5799 182.43 L86.5799 176.551 Z" fill="#000000" fill-rule="nonzero" fill-opacity="1" /><path clip-path="url(#clip990)" d="M101.696 147.87 L120.052 147.87 L120.052 151.805 L105.978 151.805 L105.978 160.277 Q106.996 159.93 108.015 159.768 Q109.033 159.583 110.052 159.583 Q115.839 159.583 119.219 162.754 Q122.598 165.926 122.598 171.342 Q122.598 176.921 119.126 180.023 Q115.654 183.101 109.334 183.101 Q107.159 183.101 104.89 182.731 Q102.645 182.361 100.237 181.62 L100.237 176.921 Q102.321 178.055 104.543 178.611 Q106.765 179.166 109.242 179.166 Q113.246 179.166 115.584 177.06 Q117.922 174.953 117.922 171.342 Q117.922 167.731 115.584 165.625 Q113.246 163.518 109.242 163.518 Q107.367 163.518 105.492 163.935 Q103.64 164.352 101.696 165.231 L101.696 147.87 Z" fill="#000000" fill-rule="nonzero" fill-opacity="1" /><path clip-path="url(#clip990)" d="M354.096 27.2059 L337.69 49.2833 L354.947 72.576 L346.156 72.576 L332.95 54.752 L319.744 72.576 L310.954 72.576 L328.575 48.8377 L312.453 27.2059 L321.243 27.2059 L333.274 43.369 L345.305 27.2059 L354.096 27.2059 Z" fill="#000000" fill-rule="nonzero" fill-opacity="1" /><path clip-path="url(#clip990)" d="M399.952 86.3491 L399.952 92.1419 L356.851 92.1419 L356.851 86.3491 L399.952 86.3491 Z" fill="#000000" fill-rule="nonzero" fill-opacity="1" /><path clip-path="url(#clip990)" d="M435.884 28.5427 L435.884 35.5912 Q432.724 33.9709 429.321 33.1607 Q425.918 32.3505 422.273 32.3505 Q416.723 32.3505 413.928 34.0519 Q411.173 35.7533 411.173 39.156 Q411.173 41.7486 413.158 43.2475 Q415.143 44.7058 421.138 46.0426 L423.69 46.6097 Q431.63 48.3111 434.952 51.4303 Q438.314 54.509 438.314 60.0587 Q438.314 66.3781 433.291 70.0644 Q428.309 73.7508 419.559 73.7508 Q415.913 73.7508 411.943 73.0216 Q408.013 72.3329 403.639 70.9151 L403.639 63.2184 Q407.77 65.3654 411.781 66.4591 Q415.791 67.5124 419.721 67.5124 Q424.987 67.5124 427.822 65.73 Q430.658 63.9071 430.658 60.6258 Q430.658 57.5877 428.592 55.9673 Q426.567 54.3469 419.64 52.8481 L417.047 52.2405 Q410.12 50.7821 407.041 47.7845 Q403.963 44.7463 403.963 39.4801 Q403.963 33.0797 408.5 29.5959 Q413.037 26.1121 421.381 26.1121 Q425.513 26.1121 429.159 26.7198 Q432.805 27.3274 435.884 28.5427 Z" fill="#000000" fill-rule="nonzero" fill-opacity="1" /><path clip-path="url(#clip990)" d="M457.556 14.324 L457.556 27.2059 L472.909 27.2059 L472.909 32.9987 L457.556 32.9987 L457.556 57.6282 Q457.556 63.1779 459.055 64.7578 Q460.594 66.3376 465.253 66.3376 L472.909 66.3376 L472.909 72.576 L465.253 72.576 Q456.624 72.576 453.343 69.3758 Q450.062 66.1351 450.062 57.6282 L450.062 32.9987 L444.593 32.9987 L444.593 27.2059 L450.062 27.2059 L450.062 14.324 L457.556 14.324 Z" fill="#000000" fill-rule="nonzero" fill-opacity="1" /><path clip-path="url(#clip990)" d="M500.293 32.4315 Q494.298 32.4315 490.814 37.1306 Q487.33 41.7891 487.33 49.9314 Q487.33 58.0738 490.773 62.7728 Q494.257 67.4314 500.293 67.4314 Q506.248 67.4314 509.732 62.7323 Q513.215 58.0333 513.215 49.9314 Q513.215 41.8701 509.732 37.1711 Q506.248 32.4315 500.293 32.4315 M500.293 26.1121 Q510.015 26.1121 515.565 32.4315 Q521.115 38.7509 521.115 49.9314 Q521.115 61.0714 515.565 67.4314 Q510.015 73.7508 500.293 73.7508 Q490.53 73.7508 484.981 67.4314 Q479.471 61.0714 479.471 49.9314 Q479.471 38.7509 484.981 32.4315 Q490.53 26.1121 500.293 26.1121 Z" fill="#000000" fill-rule="nonzero" fill-opacity="1" /><path clip-path="url(#clip990)" d="M566.12 28.9478 L566.12 35.9153 Q562.961 34.1734 559.76 33.3227 Q556.601 32.4315 553.36 32.4315 Q546.109 32.4315 542.098 37.0496 Q538.088 41.6271 538.088 49.9314 Q538.088 58.2358 542.098 62.8538 Q546.109 67.4314 553.36 67.4314 Q556.601 67.4314 559.76 66.5807 Q562.961 65.6895 566.12 63.9476 L566.12 70.8341 Q563.001 72.2924 559.639 73.0216 Q556.317 73.7508 552.55 73.7508 Q542.301 73.7508 536.265 67.3098 Q530.229 60.8689 530.229 49.9314 Q530.229 38.832 536.306 32.472 Q542.422 26.1121 553.036 26.1121 Q556.479 26.1121 559.76 26.8413 Q563.042 27.5299 566.12 28.9478 Z" fill="#000000" fill-rule="nonzero" fill-opacity="1" /><path clip-path="url(#clip990)" d="M578.8 9.54393 L586.294 9.54393 L586.294 46.7717 L608.533 27.2059 L618.053 27.2059 L593.991 48.4326 L619.066 72.576 L609.343 72.576 L586.294 50.4176 L586.294 72.576 L578.8 72.576 L578.8 9.54393 Z" fill="#000000" fill-rule="nonzero" fill-opacity="1" /><path clip-path="url(#clip990)" d="M628.18 62.2867 L636.728 62.2867 L636.728 72.576 L628.18 72.576 L628.18 62.2867 Z" fill="#000000" fill-rule="nonzero" fill-opacity="1" /><path clip-path="url(#clip990)" d="M671.079 32.4315 Q665.084 32.4315 661.6 37.1306 Q658.116 41.7891 658.116 49.9314 Q658.116 58.0738 661.56 62.7728 Q665.043 67.4314 671.079 67.4314 Q677.034 67.4314 680.518 62.7323 Q684.002 58.0333 684.002 49.9314 Q684.002 41.8701 680.518 37.1711 Q677.034 32.4315 671.079 32.4315 M671.079 26.1121 Q680.801 26.1121 686.351 32.4315 Q691.901 38.7509 691.901 49.9314 Q691.901 61.0714 686.351 67.4314 Q680.801 73.7508 671.079 73.7508 Q661.317 73.7508 655.767 67.4314 Q650.258 61.0714 650.258 49.9314 Q650.258 38.7509 655.767 32.4315 Q661.317 26.1121 671.079 26.1121 Z" fill="#000000" fill-rule="nonzero" fill-opacity="1" /><path clip-path="url(#clip990)" d="M703.486 54.671 L703.486 27.2059 L710.94 27.2059 L710.94 54.3874 Q710.94 60.8284 713.452 64.0691 Q715.963 67.2693 720.986 67.2693 Q727.022 67.2693 730.506 63.421 Q734.03 59.5726 734.03 52.9291 L734.03 27.2059 L741.484 27.2059 L741.484 72.576 L734.03 72.576 L734.03 65.6084 Q731.316 69.7404 727.711 71.7658 Q724.146 73.7508 719.407 73.7508 Q711.588 73.7508 707.537 68.8897 Q703.486 64.0286 703.486 54.671 M722.242 26.1121 L722.242 26.1121 Z" fill="#000000" fill-rule="nonzero" fill-opacity="1" /><path clip-path="url(#clip990)" d="M764.21 14.324 L764.21 27.2059 L779.562 27.2059 L779.562 32.9987 L764.21 32.9987 L764.21 57.6282 Q764.21 63.1779 765.708 64.7578 Q767.248 66.3376 771.906 66.3376 L779.562 66.3376 L779.562 72.576 L771.906 72.576 Q763.278 72.576 759.997 69.3758 Q756.715 66.1351 756.715 57.6282 L756.715 32.9987 L751.247 32.9987 L751.247 27.2059 L756.715 27.2059 L756.715 14.324 L764.21 14.324 Z" fill="#000000" fill-rule="nonzero" fill-opacity="1" /><path clip-path="url(#clip992)" d="M174.824 462.042 L242.176 440.836 L309.527 419.629 L376.879 398.422 L444.231 480.422 L511.582 483.249 L578.934 483.249 L646.286 483.249 L713.637 483.249 L780.989 483.249 L848.34 483.249 L915.692 483.249 L915.692 483.249 L848.34 391.464 L780.989 128.079 L713.637 152.989 L646.286 178.942 L578.934 223.468 L511.582 255.278 L444.231 281.786 L376.879 313.596 L309.527 356.009 L242.176 398.422 L174.824 440.836  Z" fill="#00467f" fill-rule="evenodd" fill-opacity="0.2"/>
<polyline clip-path="url(#clip992)" style="stroke:#00467f; stroke-linecap:round; stroke-linejoin:round; stroke-width:4; stroke-opacity:0; fill:none" points="174.824,451.439 242.176,419.629 309.527,387.819 376.879,356.009 444.231,381.104 511.582,369.263 578.934,353.359 646.286,331.095 713.637,318.119 780.989,305.664 848.34,437.357 915.692,483.249 "/>
<path clip-path="url(#clip992)" d="M174.824 462.042 L242.176 435.534 L309.527 403.724 L376.879 371.914 L444.231 453.914 L511.582 468.754 L578.934 474.46 L646.286 479.072 L713.637 482.752 L780.989 483.205 L848.34 483.249 L915.692 483.249 L915.692 483.249 L848.34 452.36 L780.989 164.721 L713.637 189.788 L646.286 212.865 L578.934 244.675 L511.582 271.183 L444.231 302.993 L376.879 334.803 L309.527 371.914 L242.176 408.496 L174.824 440.836  Z" fill="#00467f" fill-rule="evenodd" fill-opacity="0.2"/>
<polyline clip-path="url(#clip992)" style="stroke:#00467f; stroke-linecap:round; stroke-linejoin:round; stroke-width:4; stroke-opacity:0; fill:none" points="174.824,451.439 242.176,422.015 309.527,387.819 376.879,353.359 444.231,378.453 511.582,369.969 578.934,359.567 646.286,345.969 713.637,336.27 780.989,323.963 848.34,467.805 915.692,483.249 "/>
<path clip-path="url(#clip992)" d="M174.824 456.741 L242.176 424.931 L309.527 394.446 L376.879 366.613 L444.231 414.456 L511.582 451.144 L578.934 460.599 L646.286 471.509 L713.637 475.802 L780.989 475.605 L848.34 483.249 L915.692 483.249 L915.692 483.249 L848.34 469.136 L780.989 402.73 L713.637 382.338 L646.286 250.442 L578.934 265.881 L511.582 287.088 L444.231 313.596 L376.879 345.406 L309.527 377.216 L242.176 414.327 L174.824 446.137  Z" fill="#00467f" fill-rule="evenodd" fill-opacity="0.2"/>
<polyline clip-path="url(#clip992)" style="stroke:#00467f; stroke-linecap:round; stroke-linejoin:round; stroke-width:4; stroke-opacity:0; fill:none" points="174.824,451.439 242.176,419.629 309.527,385.831 376.879,356.009 444.231,364.026 511.582,369.116 578.934,363.24 646.286,360.975 713.637,429.07 780.989,439.168 848.34,476.193 915.692,483.249 "/>
<polyline clip-path="url(#clip992)" style="stroke:#00467f; stroke-linecap:round; stroke-linejoin:round; stroke-width:4; stroke-opacity:1; fill:none" points="174.824,451.439 242.176,419.629 309.527,387.819 376.879,356.009 444.231,334.803 511.582,313.596 578.934,419.361 646.286,455.797 713.637,459.897 780.989,465.719 848.34,478.605 915.692,483.249 "/>
<path clip-path="url(#clip990)" d="M1167.44 493.904 L1952.76 493.904 L1952.76 117.424 L1167.44 117.424  Z" fill="#ffffff" fill-rule="evenodd" fill-opacity="1"/>
<defs>
  <clipPath id="clip993">
    <rect x="1167" y="117" width="786" height="377"/>
  </clipPath>
</defs>
<polyline clip-path="url(#clip993)" style="stroke:#000000; stroke-linecap:round; stroke-linejoin:round; stroke-width:2; stroke-opacity:0.1; fill:none" points="1290.69,493.904 1290.69,117.424 "/>
<polyline clip-path="url(#clip993)" style="stroke:#000000; stroke-linecap:round; stroke-linejoin:round; stroke-width:2; stroke-opacity:0.1; fill:none" points="1459.07,493.904 1459.07,117.424 "/>
<polyline clip-path="url(#clip993)" style="stroke:#000000; stroke-linecap:round; stroke-linejoin:round; stroke-width:2; stroke-opacity:0.1; fill:none" points="1627.45,493.904 1627.45,117.424 "/>
<polyline clip-path="url(#clip993)" style="stroke:#000000; stroke-linecap:round; stroke-linejoin:round; stroke-width:2; stroke-opacity:0.1; fill:none" points="1795.83,493.904 1795.83,117.424 "/>
<polyline clip-path="url(#clip993)" style="stroke:#000000; stroke-linecap:round; stroke-linejoin:round; stroke-width:2; stroke-opacity:0.1; fill:none" points="1167.44,483.249 1952.76,483.249 "/>
<polyline clip-path="url(#clip993)" style="stroke:#000000; stroke-linecap:round; stroke-linejoin:round; stroke-width:2; stroke-opacity:0.1; fill:none" points="1167.44,384.423 1952.76,384.423 "/>
<polyline clip-path="url(#clip993)" style="stroke:#000000; stroke-linecap:round; stroke-linejoin:round; stroke-width:2; stroke-opacity:0.1; fill:none" points="1167.44,285.598 1952.76,285.598 "/>
<polyline clip-path="url(#clip993)" style="stroke:#000000; stroke-linecap:round; stroke-linejoin:round; stroke-width:2; stroke-opacity:0.1; fill:none" points="1167.44,186.772 1952.76,186.772 "/>
<polyline clip-path="url(#clip990)" style="stroke:#000000; stroke-linecap:round; stroke-linejoin:round; stroke-width:4; stroke-opacity:1; fill:none" points="1167.44,493.904 1952.76,493.904 "/>
<polyline clip-path="url(#clip990)" style="stroke:#000000; stroke-linecap:round; stroke-linejoin:round; stroke-width:4; stroke-opacity:1; fill:none" points="1290.69,493.904 1290.69,475.006 "/>
<polyline clip-path="url(#clip990)" style="stroke:#000000; stroke-linecap:round; stroke-linejoin:round; stroke-width:4; stroke-opacity:1; fill:none" points="1459.07,493.904 1459.07,475.006 "/>
<polyline clip-path="url(#clip990)" style="stroke:#000000; stroke-linecap:round; stroke-linejoin:round; stroke-width:4; stroke-opacity:1; fill:none" points="1627.45,493.904 1627.45,475.006 "/>
<polyline clip-path="url(#clip990)" style="stroke:#000000; stroke-linecap:round; stroke-linejoin:round; stroke-width:4; stroke-opacity:1; fill:none" points="1795.83,493.904 1795.83,475.006 "/>
<path clip-path="url(#clip990)" d="M1262.43 549.169 L1278.75 549.169 L1278.75 553.104 L1256.8 553.104 L1256.8 549.169 Q1259.46 546.414 1264.05 541.784 Q1268.65 537.132 1269.83 535.789 Q1272.08 533.266 1272.96 531.53 Q1273.86 529.771 1273.86 528.081 Q1273.86 525.326 1271.92 523.59 Q1270 521.854 1266.89 521.854 Q1264.69 521.854 1262.24 522.618 Q1259.81 523.382 1257.03 524.933 L1257.03 520.211 Q1259.86 519.076 1262.31 518.498 Q1264.76 517.919 1266.8 517.919 Q1272.17 517.919 1275.37 520.604 Q1278.56 523.289 1278.56 527.78 Q1278.56 529.91 1277.75 531.831 Q1276.96 533.729 1274.86 536.322 Q1274.28 536.993 1271.18 540.21 Q1268.07 543.405 1262.43 549.169 Z" fill="#000000" fill-rule="nonzero" fill-opacity="1" /><path clip-path="url(#clip990)" d="M1288.56 547.224 L1293.44 547.224 L1293.44 553.104 L1288.56 553.104 L1288.56 547.224 Z" fill="#000000" fill-rule="nonzero" fill-opacity="1" /><path clip-path="url(#clip990)" d="M1303.68 518.544 L1322.03 518.544 L1322.03 522.479 L1307.96 522.479 L1307.96 530.951 Q1308.98 530.604 1310 530.442 Q1311.01 530.257 1312.03 530.257 Q1317.82 530.257 1321.2 533.428 Q1324.58 536.599 1324.58 542.016 Q1324.58 547.595 1321.11 550.696 Q1317.63 553.775 1311.31 553.775 Q1309.14 553.775 1306.87 553.405 Q1304.62 553.034 1302.22 552.294 L1302.22 547.595 Q1304.3 548.729 1306.52 549.284 Q1308.75 549.84 1311.22 549.84 Q1315.23 549.84 1317.56 547.734 Q1319.9 545.627 1319.9 542.016 Q1319.9 538.405 1317.56 536.298 Q1315.23 534.192 1311.22 534.192 Q1309.35 534.192 1307.47 534.609 Q1305.62 535.025 1303.68 535.905 L1303.68 518.544 Z" fill="#000000" fill-rule="nonzero" fill-opacity="1" /><path clip-path="url(#clip990)" d="M1426.23 518.544 L1444.59 518.544 L1444.59 522.479 L1430.52 522.479 L1430.52 530.951 Q1431.53 530.604 1432.55 530.442 Q1433.57 530.257 1434.59 530.257 Q1440.38 530.257 1443.76 533.428 Q1447.14 536.599 1447.14 542.016 Q1447.14 547.595 1443.66 550.696 Q1440.19 553.775 1433.87 553.775 Q1431.7 553.775 1429.43 553.405 Q1427.18 553.034 1424.77 552.294 L1424.77 547.595 Q1426.86 548.729 1429.08 549.284 Q1431.3 549.84 1433.78 549.84 Q1437.78 549.84 1440.12 547.734 Q1442.46 545.627 1442.46 542.016 Q1442.46 538.405 1440.12 536.298 Q1437.78 534.192 1433.78 534.192 Q1431.9 534.192 1430.03 534.609 Q1428.18 535.025 1426.23 535.905 L1426.23 518.544 Z" fill="#000000" fill-rule="nonzero" fill-opacity="1" /><path clip-path="url(#clip990)" d="M1456.35 547.224 L1461.23 547.224 L1461.23 553.104 L1456.35 553.104 L1456.35 547.224 Z" fill="#000000" fill-rule="nonzero" fill-opacity="1" /><path clip-path="url(#clip990)" d="M1481.42 521.623 Q1477.81 521.623 1475.98 525.187 Q1474.17 528.729 1474.17 535.859 Q1474.17 542.965 1475.98 546.53 Q1477.81 550.071 1481.42 550.071 Q1485.05 550.071 1486.86 546.53 Q1488.69 542.965 1488.69 535.859 Q1488.69 528.729 1486.86 525.187 Q1485.05 521.623 1481.42 521.623 M1481.42 517.919 Q1487.23 517.919 1490.28 522.525 Q1493.36 527.109 1493.36 535.859 Q1493.36 544.585 1490.28 549.192 Q1487.23 553.775 1481.42 553.775 Q1475.61 553.775 1472.53 549.192 Q1469.47 544.585 1469.47 535.859 Q1469.47 527.109 1472.53 522.525 Q1475.61 517.919 1481.42 517.919 Z" fill="#000000" fill-rule="nonzero" fill-opacity="1" /><path clip-path="url(#clip990)" d="M1593.77 518.544 L1615.99 518.544 L1615.99 520.535 L1603.44 553.104 L1598.56 553.104 L1610.36 522.479 L1593.77 522.479 L1593.77 518.544 Z" fill="#000000" fill-rule="nonzero" fill-opacity="1" /><path clip-path="url(#clip990)" d="M1625.11 547.224 L1629.99 547.224 L1629.99 553.104 L1625.11 553.104 L1625.11 547.224 Z" fill="#000000" fill-rule="nonzero" fill-opacity="1" /><path clip-path="url(#clip990)" d="M1640.23 518.544 L1658.58 518.544 L1658.58 522.479 L1644.51 522.479 L1644.51 530.951 Q1645.53 530.604 1646.54 530.442 Q1647.56 530.257 1648.58 530.257 Q1654.37 530.257 1657.75 533.428 Q1661.13 536.599 1661.13 542.016 Q1661.13 547.595 1657.66 550.696 Q1654.18 553.775 1647.86 553.775 Q1645.69 553.775 1643.42 553.405 Q1641.17 553.034 1638.77 552.294 L1638.77 547.595 Q1640.85 548.729 1643.07 549.284 Q1645.29 549.84 1647.77 549.84 Q1651.78 549.84 1654.11 547.734 Q1656.45 545.627 1656.45 542.016 Q1656.45 538.405 1654.11 536.298 Q1651.78 534.192 1647.77 534.192 Q1645.9 534.192 1644.02 534.609 Q1642.17 535.025 1640.23 535.905 L1640.23 518.544 Z" fill="#000000" fill-rule="nonzero" fill-opacity="1" /><path clip-path="url(#clip990)" d="M1747.9 549.169 L1755.54 549.169 L1755.54 522.803 L1747.23 524.47 L1747.23 520.211 L1755.49 518.544 L1760.17 518.544 L1760.17 549.169 L1767.81 549.169 L1767.81 553.104 L1747.9 553.104 L1747.9 549.169 Z" fill="#000000" fill-rule="nonzero" fill-opacity="1" /><path clip-path="url(#clip990)" d="M1787.25 521.623 Q1783.64 521.623 1781.81 525.187 Q1780 528.729 1780 535.859 Q1780 542.965 1781.81 546.53 Q1783.64 550.071 1787.25 550.071 Q1790.88 550.071 1792.69 546.53 Q1794.52 542.965 1794.52 535.859 Q1794.52 528.729 1792.69 525.187 Q1790.88 521.623 1787.25 521.623 M1787.25 517.919 Q1793.06 517.919 1796.12 522.525 Q1799.19 527.109 1799.19 535.859 Q1799.19 544.585 1796.12 549.192 Q1793.06 553.775 1787.25 553.775 Q1781.44 553.775 1778.36 549.192 Q1775.31 544.585 1775.31 535.859 Q1775.31 527.109 1778.36 522.525 Q1781.44 517.919 1787.25 517.919 Z" fill="#000000" fill-rule="nonzero" fill-opacity="1" /><path clip-path="url(#clip990)" d="M1807.41 547.224 L1812.3 547.224 L1812.3 553.104 L1807.41 553.104 L1807.41 547.224 Z" fill="#000000" fill-rule="nonzero" fill-opacity="1" /><path clip-path="url(#clip990)" d="M1832.48 521.623 Q1828.87 521.623 1827.04 525.187 Q1825.24 528.729 1825.24 535.859 Q1825.24 542.965 1827.04 546.53 Q1828.87 550.071 1832.48 550.071 Q1836.12 550.071 1837.92 546.53 Q1839.75 542.965 1839.75 535.859 Q1839.75 528.729 1837.92 525.187 Q1836.12 521.623 1832.48 521.623 M1832.48 517.919 Q1838.29 517.919 1841.35 522.525 Q1844.43 527.109 1844.43 535.859 Q1844.43 544.585 1841.35 549.192 Q1838.29 553.775 1832.48 553.775 Q1826.67 553.775 1823.59 549.192 Q1820.54 544.585 1820.54 535.859 Q1820.54 527.109 1823.59 522.525 Q1826.67 517.919 1832.48 517.919 Z" fill="#000000" fill-rule="nonzero" fill-opacity="1" /><polyline clip-path="url(#clip990)" style="stroke:#000000; stroke-linecap:round; stroke-linejoin:round; stroke-width:4; stroke-opacity:1; fill:none" points="1167.44,493.904 1167.44,117.424 "/>
<polyline clip-path="url(#clip990)" style="stroke:#000000; stroke-linecap:round; stroke-linejoin:round; stroke-width:4; stroke-opacity:1; fill:none" points="1167.44,483.249 1186.33,483.249 "/>
<polyline clip-path="url(#clip990)" style="stroke:#000000; stroke-linecap:round; stroke-linejoin:round; stroke-width:4; stroke-opacity:1; fill:none" points="1167.44,384.423 1186.33,384.423 "/>
<polyline clip-path="url(#clip990)" style="stroke:#000000; stroke-linecap:round; stroke-linejoin:round; stroke-width:4; stroke-opacity:1; fill:none" points="1167.44,285.598 1186.33,285.598 "/>
<polyline clip-path="url(#clip990)" style="stroke:#000000; stroke-linecap:round; stroke-linejoin:round; stroke-width:4; stroke-opacity:1; fill:none" points="1167.44,186.772 1186.33,186.772 "/>
<path clip-path="url(#clip990)" d="M1080.26 469.047 Q1076.65 469.047 1074.82 472.612 Q1073.02 476.154 1073.02 483.284 Q1073.02 490.39 1074.82 493.955 Q1076.65 497.496 1080.26 497.496 Q1083.89 497.496 1085.7 493.955 Q1087.53 490.39 1087.53 483.284 Q1087.53 476.154 1085.7 472.612 Q1083.89 469.047 1080.26 469.047 M1080.26 465.344 Q1086.07 465.344 1089.13 469.95 Q1092.2 474.534 1092.2 483.284 Q1092.2 492.01 1089.13 496.617 Q1086.07 501.2 1080.26 501.2 Q1074.45 501.2 1071.37 496.617 Q1068.32 492.01 1068.32 483.284 Q1068.32 474.534 1071.37 469.95 Q1074.45 465.344 1080.26 465.344 Z" fill="#000000" fill-rule="nonzero" fill-opacity="1" /><path clip-path="url(#clip990)" d="M1100.42 494.649 L1105.31 494.649 L1105.31 500.529 L1100.42 500.529 L1100.42 494.649 Z" fill="#000000" fill-rule="nonzero" fill-opacity="1" /><path clip-path="url(#clip990)" d="M1125.49 469.047 Q1121.88 469.047 1120.05 472.612 Q1118.25 476.154 1118.25 483.284 Q1118.25 490.39 1120.05 493.955 Q1121.88 497.496 1125.49 497.496 Q1129.13 497.496 1130.93 493.955 Q1132.76 490.39 1132.76 483.284 Q1132.76 476.154 1130.93 472.612 Q1129.13 469.047 1125.49 469.047 M1125.49 465.344 Q1131.3 465.344 1134.36 469.95 Q1137.44 474.534 1137.44 483.284 Q1137.44 492.01 1134.36 496.617 Q1131.3 501.2 1125.49 501.2 Q1119.68 501.2 1116.6 496.617 Q1113.55 492.01 1113.55 483.284 Q1113.55 474.534 1116.6 469.95 Q1119.68 465.344 1125.49 465.344 Z" fill="#000000" fill-rule="nonzero" fill-opacity="1" /><path clip-path="url(#clip990)" d="M1081.26 370.222 Q1077.64 370.222 1075.82 373.787 Q1074.01 377.328 1074.01 384.458 Q1074.01 391.564 1075.82 395.129 Q1077.64 398.671 1081.26 398.671 Q1084.89 398.671 1086.7 395.129 Q1088.52 391.564 1088.52 384.458 Q1088.52 377.328 1086.7 373.787 Q1084.89 370.222 1081.26 370.222 M1081.26 366.518 Q1087.07 366.518 1090.12 371.125 Q1093.2 375.708 1093.2 384.458 Q1093.2 393.185 1090.12 397.791 Q1087.07 402.374 1081.26 402.374 Q1075.45 402.374 1072.37 397.791 Q1069.31 393.185 1069.31 384.458 Q1069.31 375.708 1072.37 371.125 Q1075.45 366.518 1081.26 366.518 Z" fill="#000000" fill-rule="nonzero" fill-opacity="1" /><path clip-path="url(#clip990)" d="M1101.42 395.824 L1106.3 395.824 L1106.3 401.703 L1101.42 401.703 L1101.42 395.824 Z" fill="#000000" fill-rule="nonzero" fill-opacity="1" /><path clip-path="url(#clip990)" d="M1116.53 367.143 L1134.89 367.143 L1134.89 371.078 L1120.82 371.078 L1120.82 379.551 Q1121.83 379.203 1122.85 379.041 Q1123.87 378.856 1124.89 378.856 Q1130.68 378.856 1134.06 382.027 Q1137.44 385.199 1137.44 390.615 Q1137.44 396.194 1133.96 399.296 Q1130.49 402.374 1124.17 402.374 Q1122 402.374 1119.73 402.004 Q1117.48 401.634 1115.08 400.893 L1115.08 396.194 Q1117.16 397.328 1119.38 397.884 Q1121.6 398.439 1124.08 398.439 Q1128.08 398.439 1130.42 396.333 Q1132.76 394.226 1132.76 390.615 Q1132.76 387.004 1130.42 384.898 Q1128.08 382.791 1124.08 382.791 Q1122.2 382.791 1120.33 383.208 Q1118.48 383.625 1116.53 384.504 L1116.53 367.143 Z" fill="#000000" fill-rule="nonzero" fill-opacity="1" /><path clip-path="url(#clip990)" d="M1071.07 298.942 L1078.71 298.942 L1078.71 272.577 L1070.4 274.244 L1070.4 269.984 L1078.66 268.318 L1083.34 268.318 L1083.34 298.942 L1090.98 298.942 L1090.98 302.878 L1071.07 302.878 L1071.07 298.942 Z" fill="#000000" fill-rule="nonzero" fill-opacity="1" /><path clip-path="url(#clip990)" d="M1100.42 296.998 L1105.31 296.998 L1105.31 302.878 L1100.42 302.878 L1100.42 296.998 Z" fill="#000000" fill-rule="nonzero" fill-opacity="1" /><path clip-path="url(#clip990)" d="M1125.49 271.396 Q1121.88 271.396 1120.05 274.961 Q1118.25 278.503 1118.25 285.632 Q1118.25 292.739 1120.05 296.304 Q1121.88 299.845 1125.49 299.845 Q1129.13 299.845 1130.93 296.304 Q1132.76 292.739 1132.76 285.632 Q1132.76 278.503 1130.93 274.961 Q1129.13 271.396 1125.49 271.396 M1125.49 267.693 Q1131.3 267.693 1134.36 272.299 Q1137.44 276.882 1137.44 285.632 Q1137.44 294.359 1134.36 298.966 Q1131.3 303.549 1125.49 303.549 Q1119.68 303.549 1116.6 298.966 Q1113.55 294.359 1113.55 285.632 Q1113.55 276.882 1116.6 272.299 Q1119.68 267.693 1125.49 267.693 Z" fill="#000000" fill-rule="nonzero" fill-opacity="1" /><path clip-path="url(#clip990)" d="M1072.07 200.117 L1079.7 200.117 L1079.7 173.751 L1071.39 175.418 L1071.39 171.159 L1079.66 169.492 L1084.33 169.492 L1084.33 200.117 L1091.97 200.117 L1091.97 204.052 L1072.07 204.052 L1072.07 200.117 Z" fill="#000000" fill-rule="nonzero" fill-opacity="1" /><path clip-path="url(#clip990)" d="M1101.42 198.172 L1106.3 198.172 L1106.3 204.052 L1101.42 204.052 L1101.42 198.172 Z" fill="#000000" fill-rule="nonzero" fill-opacity="1" /><path clip-path="url(#clip990)" d="M1116.53 169.492 L1134.89 169.492 L1134.89 173.427 L1120.82 173.427 L1120.82 181.899 Q1121.83 181.552 1122.85 181.39 Q1123.87 181.205 1124.89 181.205 Q1130.68 181.205 1134.06 184.376 Q1137.44 187.547 1137.44 192.964 Q1137.44 198.543 1133.96 201.645 Q1130.49 204.723 1124.17 204.723 Q1122 204.723 1119.73 204.353 Q1117.48 203.983 1115.08 203.242 L1115.08 198.543 Q1117.16 199.677 1119.38 200.233 Q1121.6 200.788 1124.08 200.788 Q1128.08 200.788 1130.42 198.682 Q1132.76 196.575 1132.76 192.964 Q1132.76 189.353 1130.42 187.247 Q1128.08 185.14 1124.08 185.14 Q1122.2 185.14 1120.33 185.557 Q1118.48 185.973 1116.53 186.853 L1116.53 169.492 Z" fill="#000000" fill-rule="nonzero" fill-opacity="1" /><path clip-path="url(#clip990)" d="M1270.52 54.671 L1270.52 27.2059 L1277.97 27.2059 L1277.97 54.3874 Q1277.97 60.8284 1280.48 64.0691 Q1282.99 67.2693 1288.02 67.2693 Q1294.05 67.2693 1297.54 63.421 Q1301.06 59.5726 1301.06 52.9291 L1301.06 27.2059 L1308.51 27.2059 L1308.51 72.576 L1301.06 72.576 L1301.06 65.6084 Q1298.35 69.7404 1294.74 71.7658 Q1291.18 73.7508 1286.44 73.7508 Q1278.62 73.7508 1274.57 68.8897 Q1270.52 64.0286 1270.52 54.671 M1289.27 26.1121 L1289.27 26.1121 Z" fill="#000000" fill-rule="nonzero" fill-opacity="1" /><path clip-path="url(#clip990)" d="M1358.34 86.3491 L1358.34 92.1419 L1315.24 92.1419 L1315.24 86.3491 L1358.34 86.3491 Z" fill="#000000" fill-rule="nonzero" fill-opacity="1" /><path clip-path="url(#clip990)" d="M1388.32 9.54393 L1388.32 15.7418 L1381.19 15.7418 Q1377.18 15.7418 1375.6 17.3622 Q1374.06 18.9825 1374.06 23.1955 L1374.06 27.2059 L1386.33 27.2059 L1386.33 32.9987 L1374.06 32.9987 L1374.06 72.576 L1366.56 72.576 L1366.56 32.9987 L1359.43 32.9987 L1359.43 27.2059 L1366.56 27.2059 L1366.56 24.0462 Q1366.56 16.471 1370.09 13.0277 Q1373.61 9.54393 1381.27 9.54393 L1388.32 9.54393 Z" fill="#000000" fill-rule="nonzero" fill-opacity="1" /><path clip-path="url(#clip990)" d="M1412.14 32.4315 Q1406.14 32.4315 1402.66 37.1306 Q1399.17 41.7891 1399.17 49.9314 Q1399.17 58.0738 1402.62 62.7728 Q1406.1 67.4314 1412.14 67.4314 Q1418.09 67.4314 1421.58 62.7323 Q1425.06 58.0333 1425.06 49.9314 Q1425.06 41.8701 1421.58 37.1711 Q1418.09 32.4315 1412.14 32.4315 M1412.14 26.1121 Q1421.86 26.1121 1427.41 32.4315 Q1432.96 38.7509 1432.96 49.9314 Q1432.96 61.0714 1427.41 67.4314 Q1421.86 73.7508 1412.14 73.7508 Q1402.37 73.7508 1396.82 67.4314 Q1391.32 61.0714 1391.32 49.9314 Q1391.32 38.7509 1396.82 32.4315 Q1402.37 26.1121 1412.14 26.1121 Z" fill="#000000" fill-rule="nonzero" fill-opacity="1" /><path clip-path="url(#clip990)" d="M1471.6 34.1734 Q1470.35 33.4443 1468.85 33.1202 Q1467.39 32.7556 1465.61 32.7556 Q1459.29 32.7556 1455.89 36.8875 Q1452.52 40.9789 1452.52 48.6757 L1452.52 72.576 L1445.03 72.576 L1445.03 27.2059 L1452.52 27.2059 L1452.52 34.2544 Q1454.87 30.1225 1458.64 28.1376 Q1462.41 26.1121 1467.8 26.1121 Q1468.57 26.1121 1469.5 26.2337 Q1470.43 26.3147 1471.56 26.5172 L1471.6 34.1734 Z" fill="#000000" fill-rule="nonzero" fill-opacity="1" /><path clip-path="url(#clip990)" d="M1475.09 27.2059 L1482.54 27.2059 L1491.86 62.6108 L1501.14 27.2059 L1509.93 27.2059 L1519.24 62.6108 L1528.52 27.2059 L1535.97 27.2059 L1524.1 72.576 L1515.31 72.576 L1505.55 35.3887 L1495.75 72.576 L1486.96 72.576 L1475.09 27.2059 Z" fill="#000000" fill-rule="nonzero" fill-opacity="1" /><path clip-path="url(#clip990)" d="M1567.89 49.7694 Q1558.86 49.7694 1555.38 51.8354 Q1551.89 53.9013 1551.89 58.8839 Q1551.89 62.8538 1554.49 65.2034 Q1557.12 67.5124 1561.62 67.5124 Q1567.81 67.5124 1571.54 63.1374 Q1575.31 58.7219 1575.31 51.4303 L1575.31 49.7694 L1567.89 49.7694 M1582.76 46.6907 L1582.76 72.576 L1575.31 72.576 L1575.31 65.6895 Q1572.76 69.8214 1568.95 71.8063 Q1565.14 73.7508 1559.63 73.7508 Q1552.66 73.7508 1548.53 69.8619 Q1544.44 65.9325 1544.44 59.3701 Q1544.44 51.7138 1549.54 47.825 Q1554.69 43.9361 1564.86 43.9361 L1575.31 43.9361 L1575.31 43.2069 Q1575.31 38.0623 1571.9 35.2672 Q1568.54 32.4315 1562.43 32.4315 Q1558.54 32.4315 1554.85 33.3632 Q1551.16 34.295 1547.76 36.1584 L1547.76 29.2718 Q1551.85 27.692 1555.7 26.9223 Q1559.55 26.1121 1563.19 26.1121 Q1573.04 26.1121 1577.9 31.2163 Q1582.76 36.3204 1582.76 46.6907 Z" fill="#000000" fill-rule="nonzero" fill-opacity="1" /><path clip-path="url(#clip990)" d="M1624.4 34.1734 Q1623.15 33.4443 1621.65 33.1202 Q1620.19 32.7556 1618.41 32.7556 Q1612.09 32.7556 1608.69 36.8875 Q1605.32 40.9789 1605.32 48.6757 L1605.32 72.576 L1597.83 72.576 L1597.83 27.2059 L1605.32 27.2059 L1605.32 34.2544 Q1607.67 30.1225 1611.44 28.1376 Q1615.21 26.1121 1620.6 26.1121 Q1621.37 26.1121 1622.3 26.2337 Q1623.23 26.3147 1624.36 26.5172 L1624.4 34.1734 Z" fill="#000000" fill-rule="nonzero" fill-opacity="1" /><path clip-path="url(#clip990)" d="M1660.62 34.0924 L1660.62 9.54393 L1668.07 9.54393 L1668.07 72.576 L1660.62 72.576 L1660.62 65.7705 Q1658.27 69.8214 1654.66 71.8063 Q1651.1 73.7508 1646.08 73.7508 Q1637.85 73.7508 1632.67 67.1883 Q1627.52 60.6258 1627.52 49.9314 Q1627.52 39.2371 1632.67 32.6746 Q1637.85 26.1121 1646.08 26.1121 Q1651.1 26.1121 1654.66 28.0971 Q1658.27 30.0415 1660.62 34.0924 M1635.22 49.9314 Q1635.22 58.1548 1638.58 62.8538 Q1641.99 67.5124 1647.9 67.5124 Q1653.81 67.5124 1657.22 62.8538 Q1660.62 58.1548 1660.62 49.9314 Q1660.62 41.7081 1657.22 37.0496 Q1653.81 32.3505 1647.9 32.3505 Q1641.99 32.3505 1638.58 37.0496 Q1635.22 41.7081 1635.22 49.9314 Z" fill="#000000" fill-rule="nonzero" fill-opacity="1" /><path clip-path="url(#clip990)" d="M1717.9 86.3491 L1717.9 92.1419 L1674.8 92.1419 L1674.8 86.3491 L1717.9 86.3491 Z" fill="#000000" fill-rule="nonzero" fill-opacity="1" /><path clip-path="url(#clip990)" d="M1753.83 28.5427 L1753.83 35.5912 Q1750.67 33.9709 1747.27 33.1607 Q1743.87 32.3505 1740.22 32.3505 Q1734.67 32.3505 1731.87 34.0519 Q1729.12 35.7533 1729.12 39.156 Q1729.12 41.7486 1731.1 43.2475 Q1733.09 44.7058 1739.09 46.0426 L1741.64 46.6097 Q1749.58 48.3111 1752.9 51.4303 Q1756.26 54.509 1756.26 60.0587 Q1756.26 66.3781 1751.24 70.0644 Q1746.26 73.7508 1737.51 73.7508 Q1733.86 73.7508 1729.89 73.0216 Q1725.96 72.3329 1721.59 70.9151 L1721.59 63.2184 Q1725.72 65.3654 1729.73 66.4591 Q1733.74 67.5124 1737.67 67.5124 Q1742.93 67.5124 1745.77 65.73 Q1748.6 63.9071 1748.6 60.6258 Q1748.6 57.5877 1746.54 55.9673 Q1744.51 54.3469 1737.59 52.8481 L1734.99 52.2405 Q1728.07 50.7821 1724.99 47.7845 Q1721.91 44.7463 1721.91 39.4801 Q1721.91 33.0797 1726.45 29.5959 Q1730.98 26.1121 1739.33 26.1121 Q1743.46 26.1121 1747.11 26.7198 Q1750.75 27.3274 1753.83 28.5427 Z" fill="#000000" fill-rule="nonzero" fill-opacity="1" /><path clip-path="url(#clip990)" d="M1806.94 48.0275 L1806.94 51.6733 L1772.67 51.6733 Q1773.15 59.3701 1777.29 63.421 Q1781.46 67.4314 1788.87 67.4314 Q1793.16 67.4314 1797.18 66.3781 Q1801.23 65.3249 1805.2 63.2184 L1805.2 70.267 Q1801.19 71.9684 1796.97 72.8596 Q1792.76 73.7508 1788.43 73.7508 Q1777.57 73.7508 1771.21 67.4314 Q1764.89 61.1119 1764.89 50.3365 Q1764.89 39.1965 1770.88 32.6746 Q1776.92 26.1121 1787.13 26.1121 Q1796.28 26.1121 1801.59 32.0264 Q1806.94 37.9003 1806.94 48.0275 M1799.48 45.84 Q1799.4 39.7232 1796.04 36.0774 Q1792.72 32.4315 1787.21 32.4315 Q1780.97 32.4315 1777.2 35.9558 Q1773.48 39.4801 1772.91 45.8805 L1799.48 45.84 Z" fill="#000000" fill-rule="nonzero" fill-opacity="1" /><path clip-path="url(#clip990)" d="M1819.17 9.54393 L1826.63 9.54393 L1826.63 72.576 L1819.17 72.576 L1819.17 9.54393 Z" fill="#000000" fill-rule="nonzero" fill-opacity="1" /><path clip-path="url(#clip990)" d="M1842.22 9.54393 L1849.67 9.54393 L1849.67 72.576 L1842.22 72.576 L1842.22 9.54393 Z" fill="#000000" fill-rule="nonzero" fill-opacity="1" /><path clip-path="url(#clip993)" d="M1189.66 483.249 L1257.01 483.249 L1324.37 483.249 L1391.72 483.249 L1459.07 483.249 L1526.42 483.249 L1593.77 483.249 L1661.12 464.67 L1728.48 483.249 L1795.83 483.249 L1863.18 483.249 L1930.53 483.249 L1930.53 483.249 L1863.18 483.249 L1795.83 483.249 L1728.48 483.249 L1661.12 377.938 L1593.77 128.079 L1526.42 191.989 L1459.07 195.802 L1391.72 234.739 L1324.37 270.944 L1257.01 312.674 L1189.66 347.526  Z" fill="#00467f" fill-rule="evenodd" fill-opacity="0.2"/>
<polyline clip-path="url(#clip993)" style="stroke:#00467f; stroke-linecap:round; stroke-linejoin:round; stroke-width:4; stroke-opacity:0; fill:none" points="1189.66,415.387 1257.01,397.961 1324.37,377.096 1391.72,358.994 1459.07,339.525 1526.42,337.619 1593.77,305.664 1661.12,421.304 1728.48,483.249 1795.83,483.249 1863.18,483.249 1930.53,483.249 "/>
<path clip-path="url(#clip993)" d="M1189.66 483.249 L1257.01 483.249 L1324.37 483.249 L1391.72 483.249 L1459.07 483.249 L1526.42 483.249 L1593.77 483.249 L1661.12 459.237 L1728.48 483.249 L1795.83 483.249 L1863.18 483.249 L1930.53 483.249 L1930.53 483.249 L1863.18 483.249 L1795.83 483.249 L1728.48 483.249 L1661.12 434.7 L1593.77 157.728 L1526.42 438.241 L1459.07 414.774 L1391.72 282.219 L1324.37 307.13 L1257.01 332.394 L1189.66 367.016  Z" fill="#00467f" fill-rule="evenodd" fill-opacity="0.2"/>
<polyline clip-path="url(#clip993)" style="stroke:#00467f; stroke-linecap:round; stroke-linejoin:round; stroke-width:4; stroke-opacity:0; fill:none" points="1189.66,425.132 1257.01,407.821 1324.37,395.189 1391.72,382.734 1459.07,449.012 1526.42,460.745 1593.77,320.488 1661.12,446.968 1728.48,483.249 1795.83,483.249 1863.18,483.249 1930.53,483.249 "/>
<path clip-path="url(#clip993)" d="M1189.66 483.249 L1257.01 483.249 L1324.37 483.249 L1391.72 483.249 L1459.07 483.249 L1526.42 483.248 L1593.77 462.246 L1661.12 459.173 L1728.48 483.249 L1795.83 483.249 L1863.18 483.249 L1930.53 483.249 L1930.53 483.249 L1863.18 483.249 L1795.83 483.249 L1728.48 483.249 L1661.12 450.274 L1593.77 386.139 L1526.42 448.311 L1459.07 446.813 L1391.72 435.308 L1324.37 438.894 L1257.01 442.946 L1189.66 382.116  Z" fill="#00467f" fill-rule="evenodd" fill-opacity="0.2"/>
<polyline clip-path="url(#clip993)" style="stroke:#00467f; stroke-linecap:round; stroke-linejoin:round; stroke-width:4; stroke-opacity:0; fill:none" points="1189.66,432.683 1257.01,463.098 1324.37,461.072 1391.72,459.278 1459.07,465.031 1526.42,465.779 1593.77,424.192 1661.12,454.724 1728.48,483.249 1795.83,483.249 1863.18,483.249 1930.53,483.249 "/>
<polyline clip-path="url(#clip993)" style="stroke:#00467f; stroke-linecap:round; stroke-linejoin:round; stroke-width:4; stroke-opacity:1; fill:none" points="1189.66,483.249 1257.01,483.249 1324.37,483.248 1391.72,446.538 1459.07,457.519 1526.42,459.999 1593.77,447.807 1661.12,459.094 1728.48,483.249 1795.83,483.249 1863.18,483.249 1930.53,483.249 "/>
<path clip-path="url(#clip990)" d="M152.598 1093.9 L937.918 1093.9 L937.918 717.424 L152.598 717.424  Z" fill="#ffffff" fill-rule="evenodd" fill-opacity="1"/>
<defs>
  <clipPath id="clip994">
    <rect x="152" y="717" width="786" height="377"/>
  </clipPath>
</defs>
<polyline clip-path="url(#clip994)" style="stroke:#000000; stroke-linecap:round; stroke-linejoin:round; stroke-width:2; stroke-opacity:0.1; fill:none" points="275.852,1093.9 275.852,717.424 "/>
<polyline clip-path="url(#clip994)" style="stroke:#000000; stroke-linecap:round; stroke-linejoin:round; stroke-width:2; stroke-opacity:0.1; fill:none" points="444.231,1093.9 444.231,717.424 "/>
<polyline clip-path="url(#clip994)" style="stroke:#000000; stroke-linecap:round; stroke-linejoin:round; stroke-width:2; stroke-opacity:0.1; fill:none" points="612.61,1093.9 612.61,717.424 "/>
<polyline clip-path="url(#clip994)" style="stroke:#000000; stroke-linecap:round; stroke-linejoin:round; stroke-width:2; stroke-opacity:0.1; fill:none" points="780.989,1093.9 780.989,717.424 "/>
<polyline clip-path="url(#clip994)" style="stroke:#000000; stroke-linecap:round; stroke-linejoin:round; stroke-width:2; stroke-opacity:0.1; fill:none" points="152.598,1083.25 937.918,1083.25 "/>
<polyline clip-path="url(#clip994)" style="stroke:#000000; stroke-linecap:round; stroke-linejoin:round; stroke-width:2; stroke-opacity:0.1; fill:none" points="152.598,985.13 937.918,985.13 "/>
<polyline clip-path="url(#clip994)" style="stroke:#000000; stroke-linecap:round; stroke-linejoin:round; stroke-width:2; stroke-opacity:0.1; fill:none" points="152.598,887.011 937.918,887.011 "/>
<polyline clip-path="url(#clip994)" style="stroke:#000000; stroke-linecap:round; stroke-linejoin:round; stroke-width:2; stroke-opacity:0.1; fill:none" points="152.598,788.892 937.918,788.892 "/>
<polyline clip-path="url(#clip990)" style="stroke:#000000; stroke-linecap:round; stroke-linejoin:round; stroke-width:4; stroke-opacity:1; fill:none" points="152.598,1093.9 937.918,1093.9 "/>
<polyline clip-path="url(#clip990)" style="stroke:#000000; stroke-linecap:round; stroke-linejoin:round; stroke-width:4; stroke-opacity:1; fill:none" points="275.852,1093.9 275.852,1075.01 "/>
<polyline clip-path="url(#clip990)" style="stroke:#000000; stroke-linecap:round; stroke-linejoin:round; stroke-width:4; stroke-opacity:1; fill:none" points="444.231,1093.9 444.231,1075.01 "/>
<polyline clip-path="url(#clip990)" style="stroke:#000000; stroke-linecap:round; stroke-linejoin:round; stroke-width:4; stroke-opacity:1; fill:none" points="612.61,1093.9 612.61,1075.01 "/>
<polyline clip-path="url(#clip990)" style="stroke:#000000; stroke-linecap:round; stroke-linejoin:round; stroke-width:4; stroke-opacity:1; fill:none" points="780.989,1093.9 780.989,1075.01 "/>
<path clip-path="url(#clip990)" d="M247.588 1149.17 L263.907 1149.17 L263.907 1153.1 L241.963 1153.1 L241.963 1149.17 Q244.625 1146.41 249.208 1141.78 Q253.815 1137.13 254.995 1135.79 Q257.241 1133.27 258.12 1131.53 Q259.023 1129.77 259.023 1128.08 Q259.023 1125.33 257.079 1123.59 Q255.157 1121.85 252.056 1121.85 Q249.856 1121.85 247.403 1122.62 Q244.972 1123.38 242.194 1124.93 L242.194 1120.21 Q245.019 1119.08 247.472 1118.5 Q249.926 1117.92 251.963 1117.92 Q257.333 1117.92 260.528 1120.6 Q263.722 1123.29 263.722 1127.78 Q263.722 1129.91 262.912 1131.83 Q262.125 1133.73 260.018 1136.32 Q259.44 1136.99 256.338 1140.21 Q253.236 1143.4 247.588 1149.17 Z" fill="#000000" fill-rule="nonzero" fill-opacity="1" /><path clip-path="url(#clip990)" d="M273.722 1147.22 L278.606 1147.22 L278.606 1153.1 L273.722 1153.1 L273.722 1147.22 Z" fill="#000000" fill-rule="nonzero" fill-opacity="1" /><path clip-path="url(#clip990)" d="M288.838 1118.54 L307.194 1118.54 L307.194 1122.48 L293.12 1122.48 L293.12 1130.95 Q294.139 1130.6 295.157 1130.44 Q296.176 1130.26 297.194 1130.26 Q302.981 1130.26 306.361 1133.43 Q309.74 1136.6 309.74 1142.02 Q309.74 1147.59 306.268 1150.7 Q302.796 1153.78 296.477 1153.78 Q294.301 1153.78 292.032 1153.4 Q289.787 1153.03 287.379 1152.29 L287.379 1147.59 Q289.463 1148.73 291.685 1149.28 Q293.907 1149.84 296.384 1149.84 Q300.389 1149.84 302.727 1147.73 Q305.064 1145.63 305.064 1142.02 Q305.064 1138.4 302.727 1136.3 Q300.389 1134.19 296.384 1134.19 Q294.509 1134.19 292.634 1134.61 Q290.782 1135.03 288.838 1135.9 L288.838 1118.54 Z" fill="#000000" fill-rule="nonzero" fill-opacity="1" /><path clip-path="url(#clip990)" d="M411.395 1118.54 L429.752 1118.54 L429.752 1122.48 L415.678 1122.48 L415.678 1130.95 Q416.696 1130.6 417.715 1130.44 Q418.733 1130.26 419.752 1130.26 Q425.539 1130.26 428.918 1133.43 Q432.298 1136.6 432.298 1142.02 Q432.298 1147.59 428.826 1150.7 Q425.353 1153.78 419.034 1153.78 Q416.858 1153.78 414.59 1153.4 Q412.344 1153.03 409.937 1152.29 L409.937 1147.59 Q412.02 1148.73 414.242 1149.28 Q416.465 1149.84 418.941 1149.84 Q422.946 1149.84 425.284 1147.73 Q427.622 1145.63 427.622 1142.02 Q427.622 1138.4 425.284 1136.3 Q422.946 1134.19 418.941 1134.19 Q417.067 1134.19 415.192 1134.61 Q413.34 1135.03 411.395 1135.9 L411.395 1118.54 Z" fill="#000000" fill-rule="nonzero" fill-opacity="1" /><path clip-path="url(#clip990)" d="M441.511 1147.22 L446.395 1147.22 L446.395 1153.1 L441.511 1153.1 L441.511 1147.22 Z" fill="#000000" fill-rule="nonzero" fill-opacity="1" /><path clip-path="url(#clip990)" d="M466.58 1121.62 Q462.969 1121.62 461.14 1125.19 Q459.335 1128.73 459.335 1135.86 Q459.335 1142.97 461.14 1146.53 Q462.969 1150.07 466.58 1150.07 Q470.214 1150.07 472.02 1146.53 Q473.849 1142.97 473.849 1135.86 Q473.849 1128.73 472.02 1125.19 Q470.214 1121.62 466.58 1121.62 M466.58 1117.92 Q472.39 1117.92 475.446 1122.53 Q478.525 1127.11 478.525 1135.86 Q478.525 1144.59 475.446 1149.19 Q472.39 1153.78 466.58 1153.78 Q460.77 1153.78 457.691 1149.19 Q454.636 1144.59 454.636 1135.86 Q454.636 1127.11 457.691 1122.53 Q460.77 1117.92 466.58 1117.92 Z" fill="#000000" fill-rule="nonzero" fill-opacity="1" /><path clip-path="url(#clip990)" d="M578.929 1118.54 L601.151 1118.54 L601.151 1120.53 L588.605 1153.1 L583.721 1153.1 L595.526 1122.48 L578.929 1122.48 L578.929 1118.54 Z" fill="#000000" fill-rule="nonzero" fill-opacity="1" /><path clip-path="url(#clip990)" d="M610.272 1147.22 L615.156 1147.22 L615.156 1153.1 L610.272 1153.1 L610.272 1147.22 Z" fill="#000000" fill-rule="nonzero" fill-opacity="1" /><path clip-path="url(#clip990)" d="M625.387 1118.54 L643.744 1118.54 L643.744 1122.48 L629.67 1122.48 L629.67 1130.95 Q630.688 1130.6 631.707 1130.44 Q632.725 1130.26 633.744 1130.26 Q639.531 1130.26 642.911 1133.43 Q646.29 1136.6 646.29 1142.02 Q646.29 1147.59 642.818 1150.7 Q639.346 1153.78 633.026 1153.78 Q630.85 1153.78 628.582 1153.4 Q626.337 1153.03 623.929 1152.29 L623.929 1147.59 Q626.012 1148.73 628.235 1149.28 Q630.457 1149.84 632.934 1149.84 Q636.938 1149.84 639.276 1147.73 Q641.614 1145.63 641.614 1142.02 Q641.614 1138.4 639.276 1136.3 Q636.938 1134.19 632.934 1134.19 Q631.059 1134.19 629.184 1134.61 Q627.332 1135.03 625.387 1135.9 L625.387 1118.54 Z" fill="#000000" fill-rule="nonzero" fill-opacity="1" /><path clip-path="url(#clip990)" d="M733.061 1149.17 L740.7 1149.17 L740.7 1122.8 L732.389 1124.47 L732.389 1120.21 L740.653 1118.54 L745.329 1118.54 L745.329 1149.17 L752.968 1149.17 L752.968 1153.1 L733.061 1153.1 L733.061 1149.17 Z" fill="#000000" fill-rule="nonzero" fill-opacity="1" /><path clip-path="url(#clip990)" d="M772.412 1121.62 Q768.801 1121.62 766.973 1125.19 Q765.167 1128.73 765.167 1135.86 Q765.167 1142.97 766.973 1146.53 Q768.801 1150.07 772.412 1150.07 Q776.047 1150.07 777.852 1146.53 Q779.681 1142.97 779.681 1135.86 Q779.681 1128.73 777.852 1125.19 Q776.047 1121.62 772.412 1121.62 M772.412 1117.92 Q778.223 1117.92 781.278 1122.53 Q784.357 1127.11 784.357 1135.86 Q784.357 1144.59 781.278 1149.19 Q778.223 1153.78 772.412 1153.78 Q766.602 1153.78 763.524 1149.19 Q760.468 1144.59 760.468 1135.86 Q760.468 1127.11 763.524 1122.53 Q766.602 1117.92 772.412 1117.92 Z" fill="#000000" fill-rule="nonzero" fill-opacity="1" /><path clip-path="url(#clip990)" d="M792.574 1147.22 L797.459 1147.22 L797.459 1153.1 L792.574 1153.1 L792.574 1147.22 Z" fill="#000000" fill-rule="nonzero" fill-opacity="1" /><path clip-path="url(#clip990)" d="M817.644 1121.62 Q814.033 1121.62 812.204 1125.19 Q810.398 1128.73 810.398 1135.86 Q810.398 1142.97 812.204 1146.53 Q814.033 1150.07 817.644 1150.07 Q821.278 1150.07 823.083 1146.53 Q824.912 1142.97 824.912 1135.86 Q824.912 1128.73 823.083 1125.19 Q821.278 1121.62 817.644 1121.62 M817.644 1117.92 Q823.454 1117.92 826.509 1122.53 Q829.588 1127.11 829.588 1135.86 Q829.588 1144.59 826.509 1149.19 Q823.454 1153.78 817.644 1153.78 Q811.834 1153.78 808.755 1149.19 Q805.699 1144.59 805.699 1135.86 Q805.699 1127.11 808.755 1122.53 Q811.834 1117.92 817.644 1117.92 Z" fill="#000000" fill-rule="nonzero" fill-opacity="1" /><polyline clip-path="url(#clip990)" style="stroke:#000000; stroke-linecap:round; stroke-linejoin:round; stroke-width:4; stroke-opacity:1; fill:none" points="152.598,1093.9 152.598,717.424 "/>
<polyline clip-path="url(#clip990)" style="stroke:#000000; stroke-linecap:round; stroke-linejoin:round; stroke-width:4; stroke-opacity:1; fill:none" points="152.598,1083.25 171.496,1083.25 "/>
<polyline clip-path="url(#clip990)" style="stroke:#000000; stroke-linecap:round; stroke-linejoin:round; stroke-width:4; stroke-opacity:1; fill:none" points="152.598,985.13 171.496,985.13 "/>
<polyline clip-path="url(#clip990)" style="stroke:#000000; stroke-linecap:round; stroke-linejoin:round; stroke-width:4; stroke-opacity:1; fill:none" points="152.598,887.011 171.496,887.011 "/>
<polyline clip-path="url(#clip990)" style="stroke:#000000; stroke-linecap:round; stroke-linejoin:round; stroke-width:4; stroke-opacity:1; fill:none" points="152.598,788.892 171.496,788.892 "/>
<path clip-path="url(#clip990)" d="M65.4226 1069.05 Q61.8115 1069.05 59.9828 1072.61 Q58.1773 1076.15 58.1773 1083.28 Q58.1773 1090.39 59.9828 1093.95 Q61.8115 1097.5 65.4226 1097.5 Q69.0569 1097.5 70.8624 1093.95 Q72.6911 1090.39 72.6911 1083.28 Q72.6911 1076.15 70.8624 1072.61 Q69.0569 1069.05 65.4226 1069.05 M65.4226 1065.34 Q71.2328 1065.34 74.2883 1069.95 Q77.367 1074.53 77.367 1083.28 Q77.367 1092.01 74.2883 1096.62 Q71.2328 1101.2 65.4226 1101.2 Q59.6125 1101.2 56.5338 1096.62 Q53.4782 1092.01 53.4782 1083.28 Q53.4782 1074.53 56.5338 1069.95 Q59.6125 1065.34 65.4226 1065.34 Z" fill="#000000" fill-rule="nonzero" fill-opacity="1" /><path clip-path="url(#clip990)" d="M85.5845 1094.65 L90.4688 1094.65 L90.4688 1100.53 L85.5845 1100.53 L85.5845 1094.65 Z" fill="#000000" fill-rule="nonzero" fill-opacity="1" /><path clip-path="url(#clip990)" d="M110.654 1069.05 Q107.043 1069.05 105.214 1072.61 Q103.409 1076.15 103.409 1083.28 Q103.409 1090.39 105.214 1093.95 Q107.043 1097.5 110.654 1097.5 Q114.288 1097.5 116.094 1093.95 Q117.922 1090.39 117.922 1083.28 Q117.922 1076.15 116.094 1072.61 Q114.288 1069.05 110.654 1069.05 M110.654 1065.34 Q116.464 1065.34 119.52 1069.95 Q122.598 1074.53 122.598 1083.28 Q122.598 1092.01 119.52 1096.62 Q116.464 1101.2 110.654 1101.2 Q104.844 1101.2 101.765 1096.62 Q98.7095 1092.01 98.7095 1083.28 Q98.7095 1074.53 101.765 1069.95 Q104.844 1065.34 110.654 1065.34 Z" fill="#000000" fill-rule="nonzero" fill-opacity="1" /><path clip-path="url(#clip990)" d="M67.0198 970.929 Q63.4087 970.929 61.58 974.493 Q59.7745 978.035 59.7745 985.165 Q59.7745 992.271 61.58 995.836 Q63.4087 999.378 67.0198 999.378 Q70.6541 999.378 72.4596 995.836 Q74.2883 992.271 74.2883 985.165 Q74.2883 978.035 72.4596 974.493 Q70.6541 970.929 67.0198 970.929 M67.0198 967.225 Q72.83 967.225 75.8855 971.831 Q78.9642 976.415 78.9642 985.165 Q78.9642 993.891 75.8855 998.498 Q72.83 1003.08 67.0198 1003.08 Q61.2097 1003.08 58.131 998.498 Q55.0754 993.891 55.0754 985.165 Q55.0754 976.415 58.131 971.831 Q61.2097 967.225 67.0198 967.225 Z" fill="#000000" fill-rule="nonzero" fill-opacity="1" /><path clip-path="url(#clip990)" d="M87.1818 996.53 L92.066 996.53 L92.066 1002.41 L87.1818 1002.41 L87.1818 996.53 Z" fill="#000000" fill-rule="nonzero" fill-opacity="1" /><path clip-path="url(#clip990)" d="M106.279 998.475 L122.598 998.475 L122.598 1002.41 L100.654 1002.41 L100.654 998.475 Q103.316 995.72 107.899 991.091 Q112.506 986.438 113.686 985.095 Q115.932 982.572 116.811 980.836 Q117.714 979.077 117.714 977.387 Q117.714 974.632 115.77 972.896 Q113.848 971.16 110.746 971.16 Q108.547 971.16 106.094 971.924 Q103.663 972.688 100.885 974.239 L100.885 969.517 Q103.709 968.382 106.163 967.804 Q108.617 967.225 110.654 967.225 Q116.024 967.225 119.219 969.91 Q122.413 972.595 122.413 977.086 Q122.413 979.216 121.603 981.137 Q120.816 983.035 118.709 985.628 Q118.131 986.299 115.029 989.516 Q111.927 992.711 106.279 998.475 Z" fill="#000000" fill-rule="nonzero" fill-opacity="1" /><path clip-path="url(#clip990)" d="M64.9365 872.81 Q61.3254 872.81 59.4967 876.375 Q57.6912 879.916 57.6912 887.046 Q57.6912 894.152 59.4967 897.717 Q61.3254 901.259 64.9365 901.259 Q68.5707 901.259 70.3763 897.717 Q72.205 894.152 72.205 887.046 Q72.205 879.916 70.3763 876.375 Q68.5707 872.81 64.9365 872.81 M64.9365 869.106 Q70.7467 869.106 73.8022 873.713 Q76.8809 878.296 76.8809 887.046 Q76.8809 895.773 73.8022 900.379 Q70.7467 904.962 64.9365 904.962 Q59.1264 904.962 56.0477 900.379 Q52.9921 895.773 52.9921 887.046 Q52.9921 878.296 56.0477 873.713 Q59.1264 869.106 64.9365 869.106 Z" fill="#000000" fill-rule="nonzero" fill-opacity="1" /><path clip-path="url(#clip990)" d="M85.0984 898.411 L89.9827 898.411 L89.9827 904.291 L85.0984 904.291 L85.0984 898.411 Z" fill="#000000" fill-rule="nonzero" fill-opacity="1" /><path clip-path="url(#clip990)" d="M113.015 873.805 L101.209 892.254 L113.015 892.254 L113.015 873.805 M111.788 869.731 L117.668 869.731 L117.668 892.254 L122.598 892.254 L122.598 896.143 L117.668 896.143 L117.668 904.291 L113.015 904.291 L113.015 896.143 L97.4132 896.143 L97.4132 891.629 L111.788 869.731 Z" fill="#000000" fill-rule="nonzero" fill-opacity="1" /><path clip-path="url(#clip990)" d="M65.2606 774.691 Q61.6495 774.691 59.8208 778.256 Q58.0152 781.797 58.0152 788.927 Q58.0152 796.033 59.8208 799.598 Q61.6495 803.14 65.2606 803.14 Q68.8948 803.14 70.7004 799.598 Q72.5291 796.033 72.5291 788.927 Q72.5291 781.797 70.7004 778.256 Q68.8948 774.691 65.2606 774.691 M65.2606 770.987 Q71.0707 770.987 74.1263 775.594 Q77.205 780.177 77.205 788.927 Q77.205 797.654 74.1263 802.26 Q71.0707 806.844 65.2606 806.844 Q59.4504 806.844 56.3717 802.26 Q53.3162 797.654 53.3162 788.927 Q53.3162 780.177 56.3717 775.594 Q59.4504 770.987 65.2606 770.987 Z" fill="#000000" fill-rule="nonzero" fill-opacity="1" /><path clip-path="url(#clip990)" d="M85.4225 800.293 L90.3067 800.293 L90.3067 806.172 L85.4225 806.172 L85.4225 800.293 Z" fill="#000000" fill-rule="nonzero" fill-opacity="1" /><path clip-path="url(#clip990)" d="M111.071 787.029 Q107.922 787.029 106.071 789.182 Q104.242 791.334 104.242 795.084 Q104.242 798.811 106.071 800.987 Q107.922 803.14 111.071 803.14 Q114.219 803.14 116.047 800.987 Q117.899 798.811 117.899 795.084 Q117.899 791.334 116.047 789.182 Q114.219 787.029 111.071 787.029 M120.353 772.376 L120.353 776.635 Q118.594 775.802 116.788 775.362 Q115.006 774.922 113.246 774.922 Q108.617 774.922 106.163 778.047 Q103.733 781.172 103.385 787.492 Q104.751 785.478 106.811 784.413 Q108.871 783.325 111.348 783.325 Q116.557 783.325 119.566 786.496 Q122.598 789.645 122.598 795.084 Q122.598 800.408 119.45 803.626 Q116.302 806.844 111.071 806.844 Q105.075 806.844 101.904 802.26 Q98.7326 797.654 98.7326 788.927 Q98.7326 780.733 102.621 775.871 Q106.51 770.987 113.061 770.987 Q114.82 770.987 116.603 771.334 Q118.408 771.682 120.353 772.376 Z" fill="#000000" fill-rule="nonzero" fill-opacity="1" /><path clip-path="url(#clip990)" d="M315.491 654.671 L315.491 627.206 L322.945 627.206 L322.945 654.387 Q322.945 660.828 325.456 664.069 Q327.968 667.269 332.991 667.269 Q339.027 667.269 342.51 663.421 Q346.035 659.573 346.035 652.929 L346.035 627.206 L353.488 627.206 L353.488 672.576 L346.035 672.576 L346.035 665.608 Q343.321 669.74 339.715 671.766 Q336.15 673.751 331.411 673.751 Q323.593 673.751 319.542 668.89 Q315.491 664.029 315.491 654.671 M334.247 626.112 L334.247 626.112 Z" fill="#000000" fill-rule="nonzero" fill-opacity="1" /><path clip-path="url(#clip990)" d="M403.314 686.349 L403.314 692.142 L360.213 692.142 L360.213 686.349 L403.314 686.349 Z" fill="#000000" fill-rule="nonzero" fill-opacity="1" /><path clip-path="url(#clip990)" d="M439.246 628.543 L439.246 635.591 Q436.086 633.971 432.684 633.161 Q429.281 632.351 425.635 632.351 Q420.085 632.351 417.29 634.052 Q414.535 635.753 414.535 639.156 Q414.535 641.749 416.52 643.247 Q418.505 644.706 424.501 646.043 L427.053 646.61 Q434.993 648.311 438.314 651.43 Q441.677 654.509 441.677 660.059 Q441.677 666.378 436.653 670.064 Q431.671 673.751 422.921 673.751 Q419.275 673.751 415.305 673.022 Q411.376 672.333 407.001 670.915 L407.001 663.218 Q411.133 665.365 415.143 666.459 Q419.153 667.512 423.083 667.512 Q428.349 667.512 431.185 665.73 Q434.02 663.907 434.02 660.626 Q434.02 657.588 431.954 655.967 Q429.929 654.347 423.002 652.848 L420.409 652.24 Q413.482 650.782 410.404 647.784 Q407.325 644.746 407.325 639.48 Q407.325 633.08 411.862 629.596 Q416.399 626.112 424.744 626.112 Q428.876 626.112 432.521 626.72 Q436.167 627.327 439.246 628.543 Z" fill="#000000" fill-rule="nonzero" fill-opacity="1" /><path clip-path="url(#clip990)" d="M460.756 665.77 L460.756 689.833 L453.262 689.833 L453.262 627.206 L460.756 627.206 L460.756 634.092 Q463.106 630.042 466.671 628.097 Q470.276 626.112 475.259 626.112 Q483.522 626.112 488.667 632.675 Q493.852 639.237 493.852 649.931 Q493.852 660.626 488.667 667.188 Q483.522 673.751 475.259 673.751 Q470.276 673.751 466.671 671.806 Q463.106 669.821 460.756 665.77 M486.115 649.931 Q486.115 641.708 482.712 637.05 Q479.35 632.351 473.436 632.351 Q467.521 632.351 464.119 637.05 Q460.756 641.708 460.756 649.931 Q460.756 658.155 464.119 662.854 Q467.521 667.512 473.436 667.512 Q479.35 667.512 482.712 662.854 Q486.115 658.155 486.115 649.931 Z" fill="#000000" fill-rule="nonzero" fill-opacity="1" /><path clip-path="url(#clip990)" d="M523.788 632.432 Q517.793 632.432 514.309 637.131 Q510.825 641.789 510.825 649.931 Q510.825 658.074 514.269 662.773 Q517.752 667.431 523.788 667.431 Q529.743 667.431 533.227 662.732 Q536.711 658.033 536.711 649.931 Q536.711 641.87 533.227 637.171 Q529.743 632.432 523.788 632.432 M523.788 626.112 Q533.511 626.112 539.06 632.432 Q544.61 638.751 544.61 649.931 Q544.61 661.071 539.06 667.431 Q533.511 673.751 523.788 673.751 Q514.026 673.751 508.476 667.431 Q502.967 661.071 502.967 649.931 Q502.967 638.751 508.476 632.432 Q514.026 626.112 523.788 626.112 Z" fill="#000000" fill-rule="nonzero" fill-opacity="1" /><path clip-path="url(#clip990)" d="M564.338 614.324 L564.338 627.206 L579.691 627.206 L579.691 632.999 L564.338 632.999 L564.338 657.628 Q564.338 663.178 565.837 664.758 Q567.376 666.338 572.035 666.338 L579.691 666.338 L579.691 672.576 L572.035 672.576 Q563.406 672.576 560.125 669.376 Q556.844 666.135 556.844 657.628 L556.844 632.999 L551.375 632.999 L551.375 627.206 L556.844 627.206 L556.844 614.324 L564.338 614.324 Z" fill="#000000" fill-rule="nonzero" fill-opacity="1" /><path clip-path="url(#clip990)" d="M623.967 686.349 L623.967 692.142 L580.866 692.142 L580.866 686.349 L623.967 686.349 Z" fill="#000000" fill-rule="nonzero" fill-opacity="1" /><path clip-path="url(#clip990)" d="M663.545 649.931 Q663.545 641.708 660.142 637.05 Q656.78 632.351 650.865 632.351 Q644.951 632.351 641.548 637.05 Q638.186 641.708 638.186 649.931 Q638.186 658.155 641.548 662.854 Q644.951 667.512 650.865 667.512 Q656.78 667.512 660.142 662.854 Q663.545 658.155 663.545 649.931 M638.186 634.092 Q640.535 630.042 644.1 628.097 Q647.705 626.112 652.688 626.112 Q660.952 626.112 666.097 632.675 Q671.282 639.237 671.282 649.931 Q671.282 660.626 666.097 667.188 Q660.952 673.751 652.688 673.751 Q647.705 673.751 644.1 671.806 Q640.535 669.821 638.186 665.77 L638.186 672.576 L630.692 672.576 L630.692 609.544 L638.186 609.544 L638.186 634.092 Z" fill="#000000" fill-rule="nonzero" fill-opacity="1" /><path clip-path="url(#clip990)" d="M682.867 654.671 L682.867 627.206 L690.321 627.206 L690.321 654.387 Q690.321 660.828 692.833 664.069 Q695.344 667.269 700.367 667.269 Q706.403 667.269 709.887 663.421 Q713.411 659.573 713.411 652.929 L713.411 627.206 L720.865 627.206 L720.865 672.576 L713.411 672.576 L713.411 665.608 Q710.697 669.74 707.092 671.766 Q703.527 673.751 698.787 673.751 Q690.969 673.751 686.918 668.89 Q682.867 664.029 682.867 654.671 M701.623 626.112 L701.623 626.112 Z" fill="#000000" fill-rule="nonzero" fill-opacity="1" /><path clip-path="url(#clip990)" d="M755.095 676.789 Q751.935 684.891 748.938 687.362 Q745.94 689.833 740.917 689.833 L734.962 689.833 L734.962 683.594 L739.337 683.594 Q742.416 683.594 744.117 682.136 Q745.818 680.678 747.884 675.25 L749.221 671.847 L730.871 627.206 L738.77 627.206 L752.948 662.692 L767.126 627.206 L775.025 627.206 L755.095 676.789 Z" fill="#000000" fill-rule="nonzero" fill-opacity="1" /><path clip-path="url(#clip994)" d="M174.824 1083.25 L242.176 1083.25 L309.527 1083.25 L376.879 1083.25 L444.231 1083.25 L511.582 1083.25 L578.934 1083.25 L646.286 1083.25 L713.637 1083.25 L780.989 1083.25 L848.34 1083.25 L915.692 1083.25 L915.692 1063.89 L848.34 1035.68 L780.989 1038.33 L713.637 1036.41 L646.286 1021.84 L578.934 728.079 L511.582 1075.61 L444.231 1063.13 L376.879 1083.25 L309.527 1083.25 L242.176 1083.25 L174.824 1083.25  Z" fill="#00467f" fill-rule="evenodd" fill-opacity="0.2"/>
<polyline clip-path="url(#clip994)" style="stroke:#00467f; stroke-linecap:round; stroke-linejoin:round; stroke-width:4; stroke-opacity:0; fill:none" points="174.824,1083.25 242.176,1083.25 309.527,1083.25 376.879,1083.25 444.231,1073.19 511.582,1079.43 578.934,905.664 646.286,1052.55 713.637,1059.83 780.989,1060.79 848.34,1059.47 915.692,1073.57 "/>
<path clip-path="url(#clip994)" d="M174.824 1083.25 L242.176 1083.25 L309.527 1083.25 L376.879 1083.25 L444.231 1083.25 L511.582 1083.25 L578.934 1083.25 L646.286 1083.25 L713.637 1083.25 L780.989 1083.25 L848.34 1083.25 L915.692 1083.25 L915.692 1074.3 L848.34 1072.39 L780.989 1076.12 L713.637 1070.99 L646.286 1059.4 L578.934 1083.25 L511.582 1083.25 L444.231 1083.25 L376.879 1083.25 L309.527 1083.25 L242.176 1083.25 L174.824 1083.25  Z" fill="#00467f" fill-rule="evenodd" fill-opacity="0.2"/>
<polyline clip-path="url(#clip994)" style="stroke:#00467f; stroke-linecap:round; stroke-linejoin:round; stroke-width:4; stroke-opacity:0; fill:none" points="174.824,1083.25 242.176,1083.25 309.527,1083.25 376.879,1083.25 444.231,1083.25 511.582,1083.25 578.934,1083.25 646.286,1071.33 713.637,1077.12 780.989,1079.69 848.34,1077.82 915.692,1078.77 "/>
<path clip-path="url(#clip994)" d="M174.824 1083.25 L242.176 1083.25 L309.527 1083.25 L376.879 1083.25 L444.231 1083.25 L511.582 1083.25 L578.934 1083.25 L646.286 1083.25 L713.637 1083.25 L780.989 1083.25 L848.34 1083.25 L915.692 1083.25 L915.692 1083.25 L848.34 1083.25 L780.989 1083.25 L713.637 1083.25 L646.286 1075.9 L578.934 1083.25 L511.582 1083.25 L444.231 1083.25 L376.879 1083.25 L309.527 1083.25 L242.176 1083.25 L174.824 1083.25  Z" fill="#00467f" fill-rule="evenodd" fill-opacity="0.2"/>
<polyline clip-path="url(#clip994)" style="stroke:#00467f; stroke-linecap:round; stroke-linejoin:round; stroke-width:4; stroke-opacity:0; fill:none" points="174.824,1083.25 242.176,1083.25 309.527,1083.25 376.879,1083.25 444.231,1083.25 511.582,1083.25 578.934,1083.25 646.286,1079.57 713.637,1083.25 780.989,1083.25 848.34,1083.25 915.692,1083.25 "/>
<polyline clip-path="url(#clip994)" style="stroke:#00467f; stroke-linecap:round; stroke-linejoin:round; stroke-width:4; stroke-opacity:1; fill:none" points="174.824,1083.25 242.176,1083.25 309.527,1083.25 376.879,1083.25 444.231,1083.25 511.582,1083.25 578.934,1083.25 646.286,1083.25 713.637,1083.25 780.989,1083.25 848.34,1083.25 915.692,1083.25 "/>
<path clip-path="url(#clip990)" d="M1167.44 1093.9 L1952.76 1093.9 L1952.76 717.424 L1167.44 717.424  Z" fill="#ffffff" fill-rule="evenodd" fill-opacity="1"/>
<defs>
  <clipPath id="clip995">
    <rect x="1167" y="717" width="786" height="377"/>
  </clipPath>
</defs>
<polyline clip-path="url(#clip995)" style="stroke:#000000; stroke-linecap:round; stroke-linejoin:round; stroke-width:2; stroke-opacity:0.1; fill:none" points="1290.69,1093.9 1290.69,717.424 "/>
<polyline clip-path="url(#clip995)" style="stroke:#000000; stroke-linecap:round; stroke-linejoin:round; stroke-width:2; stroke-opacity:0.1; fill:none" points="1459.07,1093.9 1459.07,717.424 "/>
<polyline clip-path="url(#clip995)" style="stroke:#000000; stroke-linecap:round; stroke-linejoin:round; stroke-width:2; stroke-opacity:0.1; fill:none" points="1627.45,1093.9 1627.45,717.424 "/>
<polyline clip-path="url(#clip995)" style="stroke:#000000; stroke-linecap:round; stroke-linejoin:round; stroke-width:2; stroke-opacity:0.1; fill:none" points="1795.83,1093.9 1795.83,717.424 "/>
<polyline clip-path="url(#clip995)" style="stroke:#000000; stroke-linecap:round; stroke-linejoin:round; stroke-width:2; stroke-opacity:0.1; fill:none" points="1167.44,1083.25 1952.76,1083.25 "/>
<polyline clip-path="url(#clip995)" style="stroke:#000000; stroke-linecap:round; stroke-linejoin:round; stroke-width:2; stroke-opacity:0.1; fill:none" points="1167.44,964.859 1952.76,964.859 "/>
<polyline clip-path="url(#clip995)" style="stroke:#000000; stroke-linecap:round; stroke-linejoin:round; stroke-width:2; stroke-opacity:0.1; fill:none" points="1167.44,846.469 1952.76,846.469 "/>
<polyline clip-path="url(#clip995)" style="stroke:#000000; stroke-linecap:round; stroke-linejoin:round; stroke-width:2; stroke-opacity:0.1; fill:none" points="1167.44,728.079 1952.76,728.079 "/>
<polyline clip-path="url(#clip990)" style="stroke:#000000; stroke-linecap:round; stroke-linejoin:round; stroke-width:4; stroke-opacity:1; fill:none" points="1167.44,1093.9 1952.76,1093.9 "/>
<polyline clip-path="url(#clip990)" style="stroke:#000000; stroke-linecap:round; stroke-linejoin:round; stroke-width:4; stroke-opacity:1; fill:none" points="1290.69,1093.9 1290.69,1075.01 "/>
<polyline clip-path="url(#clip990)" style="stroke:#000000; stroke-linecap:round; stroke-linejoin:round; stroke-width:4; stroke-opacity:1; fill:none" points="1459.07,1093.9 1459.07,1075.01 "/>
<polyline clip-path="url(#clip990)" style="stroke:#000000; stroke-linecap:round; stroke-linejoin:round; stroke-width:4; stroke-opacity:1; fill:none" points="1627.45,1093.9 1627.45,1075.01 "/>
<polyline clip-path="url(#clip990)" style="stroke:#000000; stroke-linecap:round; stroke-linejoin:round; stroke-width:4; stroke-opacity:1; fill:none" points="1795.83,1093.9 1795.83,1075.01 "/>
<path clip-path="url(#clip990)" d="M1262.43 1149.17 L1278.75 1149.17 L1278.75 1153.1 L1256.8 1153.1 L1256.8 1149.17 Q1259.46 1146.41 1264.05 1141.78 Q1268.65 1137.13 1269.83 1135.79 Q1272.08 1133.27 1272.96 1131.53 Q1273.86 1129.77 1273.86 1128.08 Q1273.86 1125.33 1271.92 1123.59 Q1270 1121.85 1266.89 1121.85 Q1264.69 1121.85 1262.24 1122.62 Q1259.81 1123.38 1257.03 1124.93 L1257.03 1120.21 Q1259.86 1119.08 1262.31 1118.5 Q1264.76 1117.92 1266.8 1117.92 Q1272.17 1117.92 1275.37 1120.6 Q1278.56 1123.29 1278.56 1127.78 Q1278.56 1129.91 1277.75 1131.83 Q1276.96 1133.73 1274.86 1136.32 Q1274.28 1136.99 1271.18 1140.21 Q1268.07 1143.4 1262.43 1149.17 Z" fill="#000000" fill-rule="nonzero" fill-opacity="1" /><path clip-path="url(#clip990)" d="M1288.56 1147.22 L1293.44 1147.22 L1293.44 1153.1 L1288.56 1153.1 L1288.56 1147.22 Z" fill="#000000" fill-rule="nonzero" fill-opacity="1" /><path clip-path="url(#clip990)" d="M1303.68 1118.54 L1322.03 1118.54 L1322.03 1122.48 L1307.96 1122.48 L1307.96 1130.95 Q1308.98 1130.6 1310 1130.44 Q1311.01 1130.26 1312.03 1130.26 Q1317.82 1130.26 1321.2 1133.43 Q1324.58 1136.6 1324.58 1142.02 Q1324.58 1147.59 1321.11 1150.7 Q1317.63 1153.78 1311.31 1153.78 Q1309.14 1153.78 1306.87 1153.4 Q1304.62 1153.03 1302.22 1152.29 L1302.22 1147.59 Q1304.3 1148.73 1306.52 1149.28 Q1308.75 1149.84 1311.22 1149.84 Q1315.23 1149.84 1317.56 1147.73 Q1319.9 1145.63 1319.9 1142.02 Q1319.9 1138.4 1317.56 1136.3 Q1315.23 1134.19 1311.22 1134.19 Q1309.35 1134.19 1307.47 1134.61 Q1305.62 1135.03 1303.68 1135.9 L1303.68 1118.54 Z" fill="#000000" fill-rule="nonzero" fill-opacity="1" /><path clip-path="url(#clip990)" d="M1426.23 1118.54 L1444.59 1118.54 L1444.59 1122.48 L1430.52 1122.48 L1430.52 1130.95 Q1431.53 1130.6 1432.55 1130.44 Q1433.57 1130.26 1434.59 1130.26 Q1440.38 1130.26 1443.76 1133.43 Q1447.14 1136.6 1447.14 1142.02 Q1447.14 1147.59 1443.66 1150.7 Q1440.19 1153.78 1433.87 1153.78 Q1431.7 1153.78 1429.43 1153.4 Q1427.18 1153.03 1424.77 1152.29 L1424.77 1147.59 Q1426.86 1148.73 1429.08 1149.28 Q1431.3 1149.84 1433.78 1149.84 Q1437.78 1149.84 1440.12 1147.73 Q1442.46 1145.63 1442.46 1142.02 Q1442.46 1138.4 1440.12 1136.3 Q1437.78 1134.19 1433.78 1134.19 Q1431.9 1134.19 1430.03 1134.61 Q1428.18 1135.03 1426.23 1135.9 L1426.23 1118.54 Z" fill="#000000" fill-rule="nonzero" fill-opacity="1" /><path clip-path="url(#clip990)" d="M1456.35 1147.22 L1461.23 1147.22 L1461.23 1153.1 L1456.35 1153.1 L1456.35 1147.22 Z" fill="#000000" fill-rule="nonzero" fill-opacity="1" /><path clip-path="url(#clip990)" d="M1481.42 1121.62 Q1477.81 1121.62 1475.98 1125.19 Q1474.17 1128.73 1474.17 1135.86 Q1474.17 1142.97 1475.98 1146.53 Q1477.81 1150.07 1481.42 1150.07 Q1485.05 1150.07 1486.86 1146.53 Q1488.69 1142.97 1488.69 1135.86 Q1488.69 1128.73 1486.86 1125.19 Q1485.05 1121.62 1481.42 1121.62 M1481.42 1117.92 Q1487.23 1117.92 1490.28 1122.53 Q1493.36 1127.11 1493.36 1135.86 Q1493.36 1144.59 1490.28 1149.19 Q1487.23 1153.78 1481.42 1153.78 Q1475.61 1153.78 1472.53 1149.19 Q1469.47 1144.59 1469.47 1135.86 Q1469.47 1127.11 1472.53 1122.53 Q1475.61 1117.92 1481.42 1117.92 Z" fill="#000000" fill-rule="nonzero" fill-opacity="1" /><path clip-path="url(#clip990)" d="M1593.77 1118.54 L1615.99 1118.54 L1615.99 1120.53 L1603.44 1153.1 L1598.56 1153.1 L1610.36 1122.48 L1593.77 1122.48 L1593.77 1118.54 Z" fill="#000000" fill-rule="nonzero" fill-opacity="1" /><path clip-path="url(#clip990)" d="M1625.11 1147.22 L1629.99 1147.22 L1629.99 1153.1 L1625.11 1153.1 L1625.11 1147.22 Z" fill="#000000" fill-rule="nonzero" fill-opacity="1" /><path clip-path="url(#clip990)" d="M1640.23 1118.54 L1658.58 1118.54 L1658.58 1122.48 L1644.51 1122.48 L1644.51 1130.95 Q1645.53 1130.6 1646.54 1130.44 Q1647.56 1130.26 1648.58 1130.26 Q1654.37 1130.26 1657.75 1133.43 Q1661.13 1136.6 1661.13 1142.02 Q1661.13 1147.59 1657.66 1150.7 Q1654.18 1153.78 1647.86 1153.78 Q1645.69 1153.78 1643.42 1153.4 Q1641.17 1153.03 1638.77 1152.29 L1638.77 1147.59 Q1640.85 1148.73 1643.07 1149.28 Q1645.29 1149.84 1647.77 1149.84 Q1651.78 1149.84 1654.11 1147.73 Q1656.45 1145.63 1656.45 1142.02 Q1656.45 1138.4 1654.11 1136.3 Q1651.78 1134.19 1647.77 1134.19 Q1645.9 1134.19 1644.02 1134.61 Q1642.17 1135.03 1640.23 1135.9 L1640.23 1118.54 Z" fill="#000000" fill-rule="nonzero" fill-opacity="1" /><path clip-path="url(#clip990)" d="M1747.9 1149.17 L1755.54 1149.17 L1755.54 1122.8 L1747.23 1124.47 L1747.23 1120.21 L1755.49 1118.54 L1760.17 1118.54 L1760.17 1149.17 L1767.81 1149.17 L1767.81 1153.1 L1747.9 1153.1 L1747.9 1149.17 Z" fill="#000000" fill-rule="nonzero" fill-opacity="1" /><path clip-path="url(#clip990)" d="M1787.25 1121.62 Q1783.64 1121.62 1781.81 1125.19 Q1780 1128.73 1780 1135.86 Q1780 1142.97 1781.81 1146.53 Q1783.64 1150.07 1787.25 1150.07 Q1790.88 1150.07 1792.69 1146.53 Q1794.52 1142.97 1794.52 1135.86 Q1794.52 1128.73 1792.69 1125.19 Q1790.88 1121.62 1787.25 1121.62 M1787.25 1117.92 Q1793.06 1117.92 1796.12 1122.53 Q1799.19 1127.11 1799.19 1135.86 Q1799.19 1144.59 1796.12 1149.19 Q1793.06 1153.78 1787.25 1153.78 Q1781.44 1153.78 1778.36 1149.19 Q1775.31 1144.59 1775.31 1135.86 Q1775.31 1127.11 1778.36 1122.53 Q1781.44 1117.92 1787.25 1117.92 Z" fill="#000000" fill-rule="nonzero" fill-opacity="1" /><path clip-path="url(#clip990)" d="M1807.41 1147.22 L1812.3 1147.22 L1812.3 1153.1 L1807.41 1153.1 L1807.41 1147.22 Z" fill="#000000" fill-rule="nonzero" fill-opacity="1" /><path clip-path="url(#clip990)" d="M1832.48 1121.62 Q1828.87 1121.62 1827.04 1125.19 Q1825.24 1128.73 1825.24 1135.86 Q1825.24 1142.97 1827.04 1146.53 Q1828.87 1150.07 1832.48 1150.07 Q1836.12 1150.07 1837.92 1146.53 Q1839.75 1142.97 1839.75 1135.86 Q1839.75 1128.73 1837.92 1125.19 Q1836.12 1121.62 1832.48 1121.62 M1832.48 1117.92 Q1838.29 1117.92 1841.35 1122.53 Q1844.43 1127.11 1844.43 1135.86 Q1844.43 1144.59 1841.35 1149.19 Q1838.29 1153.78 1832.48 1153.78 Q1826.67 1153.78 1823.59 1149.19 Q1820.54 1144.59 1820.54 1135.86 Q1820.54 1127.11 1823.59 1122.53 Q1826.67 1117.92 1832.48 1117.92 Z" fill="#000000" fill-rule="nonzero" fill-opacity="1" /><polyline clip-path="url(#clip990)" style="stroke:#000000; stroke-linecap:round; stroke-linejoin:round; stroke-width:4; stroke-opacity:1; fill:none" points="1167.44,1093.9 1167.44,717.424 "/>
<polyline clip-path="url(#clip990)" style="stroke:#000000; stroke-linecap:round; stroke-linejoin:round; stroke-width:4; stroke-opacity:1; fill:none" points="1167.44,1083.25 1186.33,1083.25 "/>
<polyline clip-path="url(#clip990)" style="stroke:#000000; stroke-linecap:round; stroke-linejoin:round; stroke-width:4; stroke-opacity:1; fill:none" points="1167.44,964.859 1186.33,964.859 "/>
<polyline clip-path="url(#clip990)" style="stroke:#000000; stroke-linecap:round; stroke-linejoin:round; stroke-width:4; stroke-opacity:1; fill:none" points="1167.44,846.469 1186.33,846.469 "/>
<polyline clip-path="url(#clip990)" style="stroke:#000000; stroke-linecap:round; stroke-linejoin:round; stroke-width:4; stroke-opacity:1; fill:none" points="1167.44,728.079 1186.33,728.079 "/>
<path clip-path="url(#clip990)" d="M1050.1 1069.05 Q1046.49 1069.05 1044.66 1072.61 Q1042.85 1076.15 1042.85 1083.28 Q1042.85 1090.39 1044.66 1093.95 Q1046.49 1097.5 1050.1 1097.5 Q1053.73 1097.5 1055.54 1093.95 Q1057.37 1090.39 1057.37 1083.28 Q1057.37 1076.15 1055.54 1072.61 Q1053.73 1069.05 1050.1 1069.05 M1050.1 1065.34 Q1055.91 1065.34 1058.96 1069.95 Q1062.04 1074.53 1062.04 1083.28 Q1062.04 1092.01 1058.96 1096.62 Q1055.91 1101.2 1050.1 1101.2 Q1044.29 1101.2 1041.21 1096.62 Q1038.15 1092.01 1038.15 1083.28 Q1038.15 1074.53 1041.21 1069.95 Q1044.29 1065.34 1050.1 1065.34 Z" fill="#000000" fill-rule="nonzero" fill-opacity="1" /><path clip-path="url(#clip990)" d="M1070.26 1094.65 L1075.14 1094.65 L1075.14 1100.53 L1070.26 1100.53 L1070.26 1094.65 Z" fill="#000000" fill-rule="nonzero" fill-opacity="1" /><path clip-path="url(#clip990)" d="M1095.33 1069.05 Q1091.72 1069.05 1089.89 1072.61 Q1088.08 1076.15 1088.08 1083.28 Q1088.08 1090.39 1089.89 1093.95 Q1091.72 1097.5 1095.33 1097.5 Q1098.96 1097.5 1100.77 1093.95 Q1102.6 1090.39 1102.6 1083.28 Q1102.6 1076.15 1100.77 1072.61 Q1098.96 1069.05 1095.33 1069.05 M1095.33 1065.34 Q1101.14 1065.34 1104.2 1069.95 Q1107.27 1074.53 1107.27 1083.28 Q1107.27 1092.01 1104.2 1096.62 Q1101.14 1101.2 1095.33 1101.2 Q1089.52 1101.2 1086.44 1096.62 Q1083.39 1092.01 1083.39 1083.28 Q1083.39 1074.53 1086.44 1069.95 Q1089.52 1065.34 1095.33 1065.34 Z" fill="#000000" fill-rule="nonzero" fill-opacity="1" /><path clip-path="url(#clip990)" d="M1125.49 1069.05 Q1121.88 1069.05 1120.05 1072.61 Q1118.25 1076.15 1118.25 1083.28 Q1118.25 1090.39 1120.05 1093.95 Q1121.88 1097.5 1125.49 1097.5 Q1129.13 1097.5 1130.93 1093.95 Q1132.76 1090.39 1132.76 1083.28 Q1132.76 1076.15 1130.93 1072.61 Q1129.13 1069.05 1125.49 1069.05 M1125.49 1065.34 Q1131.3 1065.34 1134.36 1069.95 Q1137.44 1074.53 1137.44 1083.28 Q1137.44 1092.01 1134.36 1096.62 Q1131.3 1101.2 1125.49 1101.2 Q1119.68 1101.2 1116.6 1096.62 Q1113.55 1092.01 1113.55 1083.28 Q1113.55 1074.53 1116.6 1069.95 Q1119.68 1065.34 1125.49 1065.34 Z" fill="#000000" fill-rule="nonzero" fill-opacity="1" /><path clip-path="url(#clip990)" d="M1051.09 950.658 Q1047.48 950.658 1045.65 954.222 Q1043.85 957.764 1043.85 964.894 Q1043.85 972 1045.65 975.565 Q1047.48 979.107 1051.09 979.107 Q1054.73 979.107 1056.53 975.565 Q1058.36 972 1058.36 964.894 Q1058.36 957.764 1056.53 954.222 Q1054.73 950.658 1051.09 950.658 M1051.09 946.954 Q1056.9 946.954 1059.96 951.56 Q1063.04 956.144 1063.04 964.894 Q1063.04 973.62 1059.96 978.227 Q1056.9 982.81 1051.09 982.81 Q1045.28 982.81 1042.21 978.227 Q1039.15 973.62 1039.15 964.894 Q1039.15 956.144 1042.21 951.56 Q1045.28 946.954 1051.09 946.954 Z" fill="#000000" fill-rule="nonzero" fill-opacity="1" /><path clip-path="url(#clip990)" d="M1071.26 976.259 L1076.14 976.259 L1076.14 982.139 L1071.26 982.139 L1071.26 976.259 Z" fill="#000000" fill-rule="nonzero" fill-opacity="1" /><path clip-path="url(#clip990)" d="M1096.33 950.658 Q1092.71 950.658 1090.89 954.222 Q1089.08 957.764 1089.08 964.894 Q1089.08 972 1090.89 975.565 Q1092.71 979.107 1096.33 979.107 Q1099.96 979.107 1101.77 975.565 Q1103.59 972 1103.59 964.894 Q1103.59 957.764 1101.77 954.222 Q1099.96 950.658 1096.33 950.658 M1096.33 946.954 Q1102.14 946.954 1105.19 951.56 Q1108.27 956.144 1108.27 964.894 Q1108.27 973.62 1105.19 978.227 Q1102.14 982.81 1096.33 982.81 Q1090.52 982.81 1087.44 978.227 Q1084.38 973.62 1084.38 964.894 Q1084.38 956.144 1087.44 951.56 Q1090.52 946.954 1096.33 946.954 Z" fill="#000000" fill-rule="nonzero" fill-opacity="1" /><path clip-path="url(#clip990)" d="M1116.53 947.579 L1134.89 947.579 L1134.89 951.514 L1120.82 951.514 L1120.82 959.986 Q1121.83 959.639 1122.85 959.477 Q1123.87 959.292 1124.89 959.292 Q1130.68 959.292 1134.06 962.463 Q1137.44 965.634 1137.44 971.051 Q1137.44 976.63 1133.96 979.732 Q1130.49 982.81 1124.17 982.81 Q1122 982.81 1119.73 982.44 Q1117.48 982.069 1115.08 981.329 L1115.08 976.63 Q1117.16 977.764 1119.38 978.32 Q1121.6 978.875 1124.08 978.875 Q1128.08 978.875 1130.42 976.769 Q1132.76 974.662 1132.76 971.051 Q1132.76 967.44 1130.42 965.333 Q1128.08 963.227 1124.08 963.227 Q1122.2 963.227 1120.33 963.644 Q1118.48 964.06 1116.53 964.94 L1116.53 947.579 Z" fill="#000000" fill-rule="nonzero" fill-opacity="1" /><path clip-path="url(#clip990)" d="M1050.1 832.268 Q1046.49 832.268 1044.66 835.833 Q1042.85 839.374 1042.85 846.504 Q1042.85 853.61 1044.66 857.175 Q1046.49 860.717 1050.1 860.717 Q1053.73 860.717 1055.54 857.175 Q1057.37 853.61 1057.37 846.504 Q1057.37 839.374 1055.54 835.833 Q1053.73 832.268 1050.1 832.268 M1050.1 828.564 Q1055.91 828.564 1058.96 833.171 Q1062.04 837.754 1062.04 846.504 Q1062.04 855.231 1058.96 859.837 Q1055.91 864.42 1050.1 864.42 Q1044.29 864.42 1041.21 859.837 Q1038.15 855.231 1038.15 846.504 Q1038.15 837.754 1041.21 833.171 Q1044.29 828.564 1050.1 828.564 Z" fill="#000000" fill-rule="nonzero" fill-opacity="1" /><path clip-path="url(#clip990)" d="M1070.26 857.869 L1075.14 857.869 L1075.14 863.749 L1070.26 863.749 L1070.26 857.869 Z" fill="#000000" fill-rule="nonzero" fill-opacity="1" /><path clip-path="url(#clip990)" d="M1086.14 859.814 L1093.78 859.814 L1093.78 833.448 L1085.47 835.115 L1085.47 830.856 L1093.73 829.189 L1098.41 829.189 L1098.41 859.814 L1106.05 859.814 L1106.05 863.749 L1086.14 863.749 L1086.14 859.814 Z" fill="#000000" fill-rule="nonzero" fill-opacity="1" /><path clip-path="url(#clip990)" d="M1125.49 832.268 Q1121.88 832.268 1120.05 835.833 Q1118.25 839.374 1118.25 846.504 Q1118.25 853.61 1120.05 857.175 Q1121.88 860.717 1125.49 860.717 Q1129.13 860.717 1130.93 857.175 Q1132.76 853.61 1132.76 846.504 Q1132.76 839.374 1130.93 835.833 Q1129.13 832.268 1125.49 832.268 M1125.49 828.564 Q1131.3 828.564 1134.36 833.171 Q1137.44 837.754 1137.44 846.504 Q1137.44 855.231 1134.36 859.837 Q1131.3 864.42 1125.49 864.42 Q1119.68 864.42 1116.6 859.837 Q1113.55 855.231 1113.55 846.504 Q1113.55 837.754 1116.6 833.171 Q1119.68 828.564 1125.49 828.564 Z" fill="#000000" fill-rule="nonzero" fill-opacity="1" /><path clip-path="url(#clip990)" d="M1051.09 713.878 Q1047.48 713.878 1045.65 717.443 Q1043.85 720.984 1043.85 728.114 Q1043.85 735.22 1045.65 738.785 Q1047.48 742.327 1051.09 742.327 Q1054.73 742.327 1056.53 738.785 Q1058.36 735.22 1058.36 728.114 Q1058.36 720.984 1056.53 717.443 Q1054.73 713.878 1051.09 713.878 M1051.09 710.174 Q1056.9 710.174 1059.96 714.781 Q1063.04 719.364 1063.04 728.114 Q1063.04 736.841 1059.96 741.447 Q1056.9 746.031 1051.09 746.031 Q1045.28 746.031 1042.21 741.447 Q1039.15 736.841 1039.15 728.114 Q1039.15 719.364 1042.21 714.781 Q1045.28 710.174 1051.09 710.174 Z" fill="#000000" fill-rule="nonzero" fill-opacity="1" /><path clip-path="url(#clip990)" d="M1071.26 739.48 L1076.14 739.48 L1076.14 745.359 L1071.26 745.359 L1071.26 739.48 Z" fill="#000000" fill-rule="nonzero" fill-opacity="1" /><path clip-path="url(#clip990)" d="M1087.14 741.424 L1094.77 741.424 L1094.77 715.058 L1086.46 716.725 L1086.46 712.466 L1094.73 710.799 L1099.4 710.799 L1099.4 741.424 L1107.04 741.424 L1107.04 745.359 L1087.14 745.359 L1087.14 741.424 Z" fill="#000000" fill-rule="nonzero" fill-opacity="1" /><path clip-path="url(#clip990)" d="M1116.53 710.799 L1134.89 710.799 L1134.89 714.734 L1120.82 714.734 L1120.82 723.207 Q1121.83 722.859 1122.85 722.697 Q1123.87 722.512 1124.89 722.512 Q1130.68 722.512 1134.06 725.683 Q1137.44 728.855 1137.44 734.271 Q1137.44 739.85 1133.96 742.952 Q1130.49 746.031 1124.17 746.031 Q1122 746.031 1119.73 745.66 Q1117.48 745.29 1115.08 744.549 L1115.08 739.85 Q1117.16 740.984 1119.38 741.54 Q1121.6 742.095 1124.08 742.095 Q1128.08 742.095 1130.42 739.989 Q1132.76 737.882 1132.76 734.271 Q1132.76 730.66 1130.42 728.554 Q1128.08 726.447 1124.08 726.447 Q1122.2 726.447 1120.33 726.864 Q1118.48 727.281 1116.53 728.16 L1116.53 710.799 Z" fill="#000000" fill-rule="nonzero" fill-opacity="1" /><path clip-path="url(#clip990)" d="M1339.97 654.671 L1339.97 627.206 L1347.42 627.206 L1347.42 654.387 Q1347.42 660.828 1349.94 664.069 Q1352.45 667.269 1357.47 667.269 Q1363.51 667.269 1366.99 663.421 Q1370.51 659.573 1370.51 652.929 L1370.51 627.206 L1377.97 627.206 L1377.97 672.576 L1370.51 672.576 L1370.51 665.608 Q1367.8 669.74 1364.19 671.766 Q1360.63 673.751 1355.89 673.751 Q1348.07 673.751 1344.02 668.89 Q1339.97 664.029 1339.97 654.671 M1358.73 626.112 L1358.73 626.112 Z" fill="#000000" fill-rule="nonzero" fill-opacity="1" /><path clip-path="url(#clip990)" d="M1427.79 686.349 L1427.79 692.142 L1384.69 692.142 L1384.69 686.349 L1427.79 686.349 Z" fill="#000000" fill-rule="nonzero" fill-opacity="1" /><path clip-path="url(#clip990)" d="M1463.73 628.543 L1463.73 635.591 Q1460.57 633.971 1457.16 633.161 Q1453.76 632.351 1450.11 632.351 Q1444.56 632.351 1441.77 634.052 Q1439.01 635.753 1439.01 639.156 Q1439.01 641.749 1441 643.247 Q1442.98 644.706 1448.98 646.043 L1451.53 646.61 Q1459.47 648.311 1462.79 651.43 Q1466.16 654.509 1466.16 660.059 Q1466.16 666.378 1461.13 670.064 Q1456.15 673.751 1447.4 673.751 Q1443.75 673.751 1439.78 673.022 Q1435.85 672.333 1431.48 670.915 L1431.48 663.218 Q1435.61 665.365 1439.62 666.459 Q1443.63 667.512 1447.56 667.512 Q1452.83 667.512 1455.66 665.73 Q1458.5 663.907 1458.5 660.626 Q1458.5 657.588 1456.43 655.967 Q1454.41 654.347 1447.48 652.848 L1444.89 652.24 Q1437.96 650.782 1434.88 647.784 Q1431.8 644.746 1431.8 639.48 Q1431.8 633.08 1436.34 629.596 Q1440.88 626.112 1449.22 626.112 Q1453.35 626.112 1457 626.72 Q1460.65 627.327 1463.73 628.543 Z" fill="#000000" fill-rule="nonzero" fill-opacity="1" /><path clip-path="url(#clip990)" d="M1485.24 665.77 L1485.24 689.833 L1477.74 689.833 L1477.74 627.206 L1485.24 627.206 L1485.24 634.092 Q1487.58 630.042 1491.15 628.097 Q1494.75 626.112 1499.74 626.112 Q1508 626.112 1513.15 632.675 Q1518.33 639.237 1518.33 649.931 Q1518.33 660.626 1513.15 667.188 Q1508 673.751 1499.74 673.751 Q1494.75 673.751 1491.15 671.806 Q1487.58 669.821 1485.24 665.77 M1510.59 649.931 Q1510.59 641.708 1507.19 637.05 Q1503.83 632.351 1497.91 632.351 Q1492 632.351 1488.6 637.05 Q1485.24 641.708 1485.24 649.931 Q1485.24 658.155 1488.6 662.854 Q1492 667.512 1497.91 667.512 Q1503.83 667.512 1507.19 662.854 Q1510.59 658.155 1510.59 649.931 Z" fill="#000000" fill-rule="nonzero" fill-opacity="1" /><path clip-path="url(#clip990)" d="M1548.27 632.432 Q1542.27 632.432 1538.79 637.131 Q1535.3 641.789 1535.3 649.931 Q1535.3 658.074 1538.75 662.773 Q1542.23 667.431 1548.27 667.431 Q1554.22 667.431 1557.71 662.732 Q1561.19 658.033 1561.19 649.931 Q1561.19 641.87 1557.71 637.171 Q1554.22 632.432 1548.27 632.432 M1548.27 626.112 Q1557.99 626.112 1563.54 632.432 Q1569.09 638.751 1569.09 649.931 Q1569.09 661.071 1563.54 667.431 Q1557.99 673.751 1548.27 673.751 Q1538.5 673.751 1532.95 667.431 Q1527.45 661.071 1527.45 649.931 Q1527.45 638.751 1532.95 632.432 Q1538.5 626.112 1548.27 626.112 Z" fill="#000000" fill-rule="nonzero" fill-opacity="1" /><path clip-path="url(#clip990)" d="M1588.82 614.324 L1588.82 627.206 L1604.17 627.206 L1604.17 632.999 L1588.82 632.999 L1588.82 657.628 Q1588.82 663.178 1590.32 664.758 Q1591.86 666.338 1596.51 666.338 L1604.17 666.338 L1604.17 672.576 L1596.51 672.576 Q1587.89 672.576 1584.6 669.376 Q1581.32 666.135 1581.32 657.628 L1581.32 632.999 L1575.85 632.999 L1575.85 627.206 L1581.32 627.206 L1581.32 614.324 L1588.82 614.324 Z" fill="#000000" fill-rule="nonzero" fill-opacity="1" /><path clip-path="url(#clip990)" d="M1648.45 686.349 L1648.45 692.142 L1605.34 692.142 L1605.34 686.349 L1648.45 686.349 Z" fill="#000000" fill-rule="nonzero" fill-opacity="1" /><path clip-path="url(#clip990)" d="M1684.38 628.543 L1684.38 635.591 Q1681.22 633.971 1677.82 633.161 Q1674.41 632.351 1670.77 632.351 Q1665.22 632.351 1662.42 634.052 Q1659.67 635.753 1659.67 639.156 Q1659.67 641.749 1661.65 643.247 Q1663.64 644.706 1669.63 646.043 L1672.18 646.61 Q1680.12 648.311 1683.45 651.43 Q1686.81 654.509 1686.81 660.059 Q1686.81 666.378 1681.79 670.064 Q1676.8 673.751 1668.05 673.751 Q1664.41 673.751 1660.44 673.022 Q1656.51 672.333 1652.13 670.915 L1652.13 663.218 Q1656.26 665.365 1660.27 666.459 Q1664.29 667.512 1668.21 667.512 Q1673.48 667.512 1676.32 665.73 Q1679.15 663.907 1679.15 660.626 Q1679.15 657.588 1677.09 655.967 Q1675.06 654.347 1668.13 652.848 L1665.54 652.24 Q1658.61 650.782 1655.54 647.784 Q1652.46 644.746 1652.46 639.48 Q1652.46 633.08 1656.99 629.596 Q1661.53 626.112 1669.88 626.112 Q1674.01 626.112 1677.65 626.72 Q1681.3 627.327 1684.38 628.543 Z" fill="#000000" fill-rule="nonzero" fill-opacity="1" /><path clip-path="url(#clip990)" d="M1737.49 648.028 L1737.49 651.673 L1703.21 651.673 Q1703.7 659.37 1707.83 663.421 Q1712 667.431 1719.42 667.431 Q1723.71 667.431 1727.72 666.378 Q1731.77 665.325 1735.74 663.218 L1735.74 670.267 Q1731.73 671.968 1727.52 672.86 Q1723.31 673.751 1718.97 673.751 Q1708.12 673.751 1701.76 667.431 Q1695.44 661.112 1695.44 650.337 Q1695.44 639.197 1701.43 632.675 Q1707.47 626.112 1717.68 626.112 Q1726.83 626.112 1732.14 632.026 Q1737.49 637.9 1737.49 648.028 M1730.03 645.84 Q1729.95 639.723 1726.59 636.077 Q1723.27 632.432 1717.76 632.432 Q1711.52 632.432 1707.75 635.956 Q1704.02 639.48 1703.46 645.881 L1730.03 645.84 Z" fill="#000000" fill-rule="nonzero" fill-opacity="1" /><path clip-path="url(#clip990)" d="M1749.72 609.544 L1757.17 609.544 L1757.17 672.576 L1749.72 672.576 L1749.72 609.544 Z" fill="#000000" fill-rule="nonzero" fill-opacity="1" /><path clip-path="url(#clip990)" d="M1772.77 609.544 L1780.22 609.544 L1780.22 672.576 L1772.77 672.576 L1772.77 609.544 Z" fill="#000000" fill-rule="nonzero" fill-opacity="1" /><path clip-path="url(#clip995)" d="M1189.66 1083.25 L1257.01 1083.25 L1324.37 1083.25 L1391.72 1083.25 L1459.07 1083.25 L1526.42 1083.25 L1593.77 1083.25 L1661.12 1083.25 L1728.48 1083.25 L1795.83 1083.25 L1863.18 1083.25 L1930.53 1083.25 L1930.53 728.079 L1863.18 794.828 L1795.83 824.537 L1728.48 818.209 L1661.12 1083.25 L1593.77 1083.25 L1526.42 1083.25 L1459.07 1083.25 L1391.72 1083.25 L1324.37 1083.25 L1257.01 1083.25 L1189.66 1083.25  Z" fill="#00467f" fill-rule="evenodd" fill-opacity="0.2"/>
<polyline clip-path="url(#clip995)" style="stroke:#00467f; stroke-linecap:round; stroke-linejoin:round; stroke-width:4; stroke-opacity:0; fill:none" points="1189.66,1083.25 1257.01,1083.25 1324.37,1083.25 1391.72,1083.25 1459.07,1083.25 1526.42,1083.25 1593.77,1083.25 1661.12,1083.25 1728.48,950.729 1795.83,953.893 1863.18,939.039 1930.53,905.664 "/>
<path clip-path="url(#clip995)" d="M1189.66 1083.25 L1257.01 1083.25 L1324.37 1083.25 L1391.72 1083.25 L1459.07 1083.25 L1526.42 1083.25 L1593.77 1083.25 L1661.12 1083.25 L1728.48 1083.25 L1795.83 1083.25 L1863.18 1083.25 L1930.53 1083.25 L1930.53 881.443 L1863.18 915.368 L1795.83 947.01 L1728.48 971.263 L1661.12 1083.25 L1593.77 1083.25 L1526.42 1083.25 L1459.07 1083.25 L1391.72 1083.25 L1324.37 1083.25 L1257.01 1083.25 L1189.66 1083.25  Z" fill="#00467f" fill-rule="evenodd" fill-opacity="0.2"/>
<polyline clip-path="url(#clip995)" style="stroke:#00467f; stroke-linecap:round; stroke-linejoin:round; stroke-width:4; stroke-opacity:0; fill:none" points="1189.66,1083.25 1257.01,1083.25 1324.37,1083.25 1391.72,1083.25 1459.07,1083.25 1526.42,1083.25 1593.77,1083.25 1661.12,1083.25 1728.48,1027.26 1795.83,1015.13 1863.18,999.308 1930.53,982.346 "/>
<path clip-path="url(#clip995)" d="M1189.66 1083.25 L1257.01 1083.25 L1324.37 1083.25 L1391.72 1083.25 L1459.07 1083.25 L1526.42 1083.25 L1593.77 1083.25 L1661.12 1083.25 L1728.48 1083.25 L1795.83 1083.25 L1863.18 1083.25 L1930.53 1075.72 L1930.53 905.664 L1863.18 964.859 L1795.83 1008.35 L1728.48 1041.47 L1661.12 1083.25 L1593.77 1083.25 L1526.42 1083.25 L1459.07 1083.25 L1391.72 1083.25 L1324.37 1083.25 L1257.01 1083.25 L1189.66 1083.25  Z" fill="#00467f" fill-rule="evenodd" fill-opacity="0.2"/>
<polyline clip-path="url(#clip995)" style="stroke:#00467f; stroke-linecap:round; stroke-linejoin:round; stroke-width:4; stroke-opacity:0; fill:none" points="1189.66,1083.25 1257.01,1083.25 1324.37,1083.25 1391.72,1083.25 1459.07,1083.25 1526.42,1083.25 1593.77,1083.25 1661.12,1083.25 1728.48,1062.36 1795.83,1045.8 1863.18,1024.05 1930.53,990.691 "/>
<polyline clip-path="url(#clip995)" style="stroke:#00467f; stroke-linecap:round; stroke-linejoin:round; stroke-width:4; stroke-opacity:1; fill:none" points="1189.66,1083.25 1257.01,1083.25 1324.37,1083.25 1391.72,1083.25 1459.07,1083.25 1526.42,1083.25 1593.77,1083.25 1661.12,1083.25 1728.48,1083.25 1795.83,1083.25 1863.18,1072.75 1930.53,1016.46 "/>
</svg>
