<?xml version="1.0" encoding="utf-8"?>
<svg xmlns="http://www.w3.org/2000/svg" xmlns:xlink="http://www.w3.org/1999/xlink" width="500" height="300" viewBox="0 0 2000 1200">
<defs>
  <clipPath id="clip710">
    <rect x="0" y="0" width="2000" height="1200"/>
  </clipPath>
</defs>
<path clip-path="url(#clip710)" d="M0 1200 L2000 1200 L2000 0 L0 0  Z" fill="#ffffff" fill-rule="evenodd" fill-opacity="1"/>
<defs>
  <clipPath id="clip711">
    <rect x="400" y="0" width="1401" height="1200"/>
  </clipPath>
</defs>
<path clip-path="url(#clip710)" d="M152.112 493.904 L952.756 493.904 L952.756 117.424 L152.112 117.424  Z" fill="#ffffff" fill-rule="evenodd" fill-opacity="1"/>
<defs>
  <clipPath id="clip712">
    <rect x="152" y="117" width="802" height="377"/>
  </clipPath>
</defs>
<polyline clip-path="url(#clip712)" style="stroke:#000000; stroke-linecap:round; stroke-linejoin:round; stroke-width:2; stroke-opacity:0.1; fill:none" points="277.771,493.904 277.771,117.424 "/>
<polyline clip-path="url(#clip712)" style="stroke:#000000; stroke-linecap:round; stroke-linejoin:round; stroke-width:2; stroke-opacity:0.1; fill:none" points="449.435,493.904 449.435,117.424 "/>
<polyline clip-path="url(#clip712)" style="stroke:#000000; stroke-linecap:round; stroke-linejoin:round; stroke-width:2; stroke-opacity:0.1; fill:none" points="621.1,493.904 621.1,117.424 "/>
<polyline clip-path="url(#clip712)" style="stroke:#000000; stroke-linecap:round; stroke-linejoin:round; stroke-width:2; stroke-opacity:0.1; fill:none" points="792.764,493.904 792.764,117.424 "/>
<polyline clip-path="url(#clip712)" style="stroke:#000000; stroke-linecap:round; stroke-linejoin:round; stroke-width:2; stroke-opacity:0.1; fill:none" points="152.112,483.249 952.756,483.249 "/>
<polyline clip-path="url(#clip712)" style="stroke:#000000; stroke-linecap:round; stroke-linejoin:round; stroke-width:2; stroke-opacity:0.1; fill:none" points="152.112,396.248 952.756,396.248 "/>
<polyline clip-path="url(#clip712)" style="stroke:#000000; stroke-linecap:round; stroke-linejoin:round; stroke-width:2; stroke-opacity:0.1; fill:none" points="152.112,309.246 952.756,309.246 "/>
<polyline clip-path="url(#clip712)" style="stroke:#000000; stroke-linecap:round; stroke-linejoin:round; stroke-width:2; stroke-opacity:0.1; fill:none" points="152.112,222.245 952.756,222.245 "/>
<polyline clip-path="url(#clip712)" style="stroke:#000000; stroke-linecap:round; stroke-linejoin:round; stroke-width:2; stroke-opacity:0.1; fill:none" points="152.112,135.244 952.756,135.244 "/>
<polyline clip-path="url(#clip710)" style="stroke:#000000; stroke-linecap:round; stroke-linejoin:round; stroke-width:4; stroke-opacity:1; fill:none" points="152.112,493.904 952.756,493.904 "/>
<polyline clip-path="url(#clip710)" style="stroke:#000000; stroke-linecap:round; stroke-linejoin:round; stroke-width:4; stroke-opacity:1; fill:none" points="277.771,493.904 277.771,475.006 "/>
<polyline clip-path="url(#clip710)" style="stroke:#000000; stroke-linecap:round; stroke-linejoin:round; stroke-width:4; stroke-opacity:1; fill:none" points="449.435,493.904 449.435,475.006 "/>
<polyline clip-path="url(#clip710)" style="stroke:#000000; stroke-linecap:round; stroke-linejoin:round; stroke-width:4; stroke-opacity:1; fill:none" points="621.1,493.904 621.1,475.006 "/>
<polyline clip-path="url(#clip710)" style="stroke:#000000; stroke-linecap:round; stroke-linejoin:round; stroke-width:4; stroke-opacity:1; fill:none" points="792.764,493.904 792.764,475.006 "/>
<path clip-path="url(#clip710)" d="M249.507 549.169 L265.826 549.169 L265.826 553.104 L243.882 553.104 L243.882 549.169 Q246.544 546.414 251.127 541.784 Q255.734 537.132 256.914 535.789 Q259.16 533.266 260.039 531.53 Q260.942 529.771 260.942 528.081 Q260.942 525.326 258.998 523.59 Q257.076 521.854 253.974 521.854 Q251.775 521.854 249.322 522.618 Q246.891 523.382 244.113 524.933 L244.113 520.211 Q246.937 519.076 249.391 518.498 Q251.845 517.919 253.882 517.919 Q259.252 517.919 262.447 520.604 Q265.641 523.289 265.641 527.78 Q265.641 529.91 264.831 531.831 Q264.044 533.729 261.937 536.322 Q261.359 536.993 258.257 540.21 Q255.155 543.405 249.507 549.169 Z" fill="#000000" fill-rule="nonzero" fill-opacity="1" /><path clip-path="url(#clip710)" d="M275.641 547.224 L280.525 547.224 L280.525 553.104 L275.641 553.104 L275.641 547.224 Z" fill="#000000" fill-rule="nonzero" fill-opacity="1" /><path clip-path="url(#clip710)" d="M290.757 518.544 L309.113 518.544 L309.113 522.479 L295.039 522.479 L295.039 530.951 Q296.058 530.604 297.076 530.442 Q298.095 530.257 299.113 530.257 Q304.9 530.257 308.28 533.428 Q311.659 536.599 311.659 542.016 Q311.659 547.595 308.187 550.696 Q304.715 553.775 298.396 553.775 Q296.22 553.775 293.951 553.405 Q291.706 553.034 289.298 552.294 L289.298 547.595 Q291.382 548.729 293.604 549.284 Q295.826 549.84 298.303 549.84 Q302.308 549.84 304.645 547.734 Q306.983 545.627 306.983 542.016 Q306.983 538.405 304.645 536.298 Q302.308 534.192 298.303 534.192 Q296.428 534.192 294.553 534.609 Q292.701 535.025 290.757 535.905 L290.757 518.544 Z" fill="#000000" fill-rule="nonzero" fill-opacity="1" /><path clip-path="url(#clip710)" d="M416.6 518.544 L434.956 518.544 L434.956 522.479 L420.882 522.479 L420.882 530.951 Q421.901 530.604 422.919 530.442 Q423.938 530.257 424.956 530.257 Q430.743 530.257 434.123 533.428 Q437.502 536.599 437.502 542.016 Q437.502 547.595 434.03 550.696 Q430.558 553.775 424.239 553.775 Q422.063 553.775 419.794 553.405 Q417.549 553.034 415.141 552.294 L415.141 547.595 Q417.225 548.729 419.447 549.284 Q421.669 549.84 424.146 549.84 Q428.151 549.84 430.489 547.734 Q432.827 545.627 432.827 542.016 Q432.827 538.405 430.489 536.298 Q428.151 534.192 424.146 534.192 Q422.271 534.192 420.396 534.609 Q418.544 535.025 416.6 535.905 L416.6 518.544 Z" fill="#000000" fill-rule="nonzero" fill-opacity="1" /><path clip-path="url(#clip710)" d="M446.715 547.224 L451.6 547.224 L451.6 553.104 L446.715 553.104 L446.715 547.224 Z" fill="#000000" fill-rule="nonzero" fill-opacity="1" /><path clip-path="url(#clip710)" d="M471.785 521.623 Q468.174 521.623 466.345 525.187 Q464.539 528.729 464.539 535.859 Q464.539 542.965 466.345 546.53 Q468.174 550.071 471.785 550.071 Q475.419 550.071 477.224 546.53 Q479.053 542.965 479.053 535.859 Q479.053 528.729 477.224 525.187 Q475.419 521.623 471.785 521.623 M471.785 517.919 Q477.595 517.919 480.65 522.525 Q483.729 527.109 483.729 535.859 Q483.729 544.585 480.65 549.192 Q477.595 553.775 471.785 553.775 Q465.975 553.775 462.896 549.192 Q459.84 544.585 459.84 535.859 Q459.84 527.109 462.896 522.525 Q465.975 517.919 471.785 517.919 Z" fill="#000000" fill-rule="nonzero" fill-opacity="1" /><path clip-path="url(#clip710)" d="M587.419 518.544 L609.642 518.544 L609.642 520.535 L597.095 553.104 L592.211 553.104 L604.017 522.479 L587.419 522.479 L587.419 518.544 Z" fill="#000000" fill-rule="nonzero" fill-opacity="1" /><path clip-path="url(#clip710)" d="M618.762 547.224 L623.646 547.224 L623.646 553.104 L618.762 553.104 L618.762 547.224 Z" fill="#000000" fill-rule="nonzero" fill-opacity="1" /><path clip-path="url(#clip710)" d="M633.878 518.544 L652.234 518.544 L652.234 522.479 L638.16 522.479 L638.16 530.951 Q639.178 530.604 640.197 530.442 Q641.215 530.257 642.234 530.257 Q648.021 530.257 651.401 533.428 Q654.78 536.599 654.78 542.016 Q654.78 547.595 651.308 550.696 Q647.836 553.775 641.516 553.775 Q639.341 553.775 637.072 553.405 Q634.827 553.034 632.419 552.294 L632.419 547.595 Q634.503 548.729 636.725 549.284 Q638.947 549.84 641.424 549.84 Q645.428 549.84 647.766 547.734 Q650.104 545.627 650.104 542.016 Q650.104 538.405 647.766 536.298 Q645.428 534.192 641.424 534.192 Q639.549 534.192 637.674 534.609 Q635.822 535.025 633.878 535.905 L633.878 518.544 Z" fill="#000000" fill-rule="nonzero" fill-opacity="1" /><path clip-path="url(#clip710)" d="M744.836 549.169 L752.475 549.169 L752.475 522.803 L744.165 524.47 L744.165 520.211 L752.429 518.544 L757.105 518.544 L757.105 549.169 L764.744 549.169 L764.744 553.104 L744.836 553.104 L744.836 549.169 Z" fill="#000000" fill-rule="nonzero" fill-opacity="1" /><path clip-path="url(#clip710)" d="M784.188 521.623 Q780.577 521.623 778.748 525.187 Q776.943 528.729 776.943 535.859 Q776.943 542.965 778.748 546.53 Q780.577 550.071 784.188 550.071 Q787.822 550.071 789.628 546.53 Q791.457 542.965 791.457 535.859 Q791.457 528.729 789.628 525.187 Q787.822 521.623 784.188 521.623 M784.188 517.919 Q789.998 517.919 793.054 522.525 Q796.133 527.109 796.133 535.859 Q796.133 544.585 793.054 549.192 Q789.998 553.775 784.188 553.775 Q778.378 553.775 775.299 549.192 Q772.244 544.585 772.244 535.859 Q772.244 527.109 775.299 522.525 Q778.378 517.919 784.188 517.919 Z" fill="#000000" fill-rule="nonzero" fill-opacity="1" /><path clip-path="url(#clip710)" d="M804.35 547.224 L809.234 547.224 L809.234 553.104 L804.35 553.104 L804.35 547.224 Z" fill="#000000" fill-rule="nonzero" fill-opacity="1" /><path clip-path="url(#clip710)" d="M829.419 521.623 Q825.808 521.623 823.98 525.187 Q822.174 528.729 822.174 535.859 Q822.174 542.965 823.98 546.53 Q825.808 550.071 829.419 550.071 Q833.054 550.071 834.859 546.53 Q836.688 542.965 836.688 535.859 Q836.688 528.729 834.859 525.187 Q833.054 521.623 829.419 521.623 M829.419 517.919 Q835.23 517.919 838.285 522.525 Q841.364 527.109 841.364 535.859 Q841.364 544.585 838.285 549.192 Q835.23 553.775 829.419 553.775 Q823.609 553.775 820.531 549.192 Q817.475 544.585 817.475 535.859 Q817.475 527.109 820.531 522.525 Q823.609 517.919 829.419 517.919 Z" fill="#000000" fill-rule="nonzero" fill-opacity="1" /><polyline clip-path="url(#clip710)" style="stroke:#000000; stroke-linecap:round; stroke-linejoin:round; stroke-width:4; stroke-opacity:1; fill:none" points="152.112,493.904 152.112,117.424 "/>
<polyline clip-path="url(#clip710)" style="stroke:#000000; stroke-linecap:round; stroke-linejoin:round; stroke-width:4; stroke-opacity:1; fill:none" points="152.112,483.249 171.01,483.249 "/>
<polyline clip-path="url(#clip710)" style="stroke:#000000; stroke-linecap:round; stroke-linejoin:round; stroke-width:4; stroke-opacity:1; fill:none" points="152.112,396.248 171.01,396.248 "/>
<polyline clip-path="url(#clip710)" style="stroke:#000000; stroke-linecap:round; stroke-linejoin:round; stroke-width:4; stroke-opacity:1; fill:none" points="152.112,309.246 171.01,309.246 "/>
<polyline clip-path="url(#clip710)" style="stroke:#000000; stroke-linecap:round; stroke-linejoin:round; stroke-width:4; stroke-opacity:1; fill:none" points="152.112,222.245 171.01,222.245 "/>
<polyline clip-path="url(#clip710)" style="stroke:#000000; stroke-linecap:round; stroke-linejoin:round; stroke-width:4; stroke-opacity:1; fill:none" points="152.112,135.244 171.01,135.244 "/>
<path clip-path="url(#clip710)" d="M110.168 469.047 Q106.557 469.047 104.728 472.612 Q102.922 476.154 102.922 483.284 Q102.922 490.39 104.728 493.955 Q106.557 497.496 110.168 497.496 Q113.802 497.496 115.608 493.955 Q117.436 490.39 117.436 483.284 Q117.436 476.154 115.608 472.612 Q113.802 469.047 110.168 469.047 M110.168 465.344 Q115.978 465.344 119.033 469.95 Q122.112 474.534 122.112 483.284 Q122.112 492.01 119.033 496.617 Q115.978 501.2 110.168 501.2 Q104.358 501.2 101.279 496.617 Q98.2234 492.01 98.2234 483.284 Q98.2234 474.534 101.279 469.95 Q104.358 465.344 110.168 465.344 Z" fill="#000000" fill-rule="nonzero" fill-opacity="1" /><path clip-path="url(#clip710)" d="M102.205 409.592 L109.844 409.592 L109.844 383.227 L101.534 384.893 L101.534 380.634 L109.797 378.968 L114.473 378.968 L114.473 409.592 L122.112 409.592 L122.112 413.528 L102.205 413.528 L102.205 409.592 Z" fill="#000000" fill-rule="nonzero" fill-opacity="1" /><path clip-path="url(#clip710)" d="M105.793 322.591 L122.112 322.591 L122.112 326.526 L100.168 326.526 L100.168 322.591 Q102.83 319.837 107.413 315.207 Q112.02 310.554 113.2 309.212 Q115.445 306.689 116.325 304.952 Q117.228 303.193 117.228 301.503 Q117.228 298.749 115.283 297.013 Q113.362 295.277 110.26 295.277 Q108.061 295.277 105.608 296.04 Q103.177 296.804 100.399 298.355 L100.399 293.633 Q103.223 292.499 105.677 291.92 Q108.131 291.341 110.168 291.341 Q115.538 291.341 118.733 294.027 Q121.927 296.712 121.927 301.202 Q121.927 303.332 121.117 305.253 Q120.33 307.152 118.223 309.744 Q117.645 310.415 114.543 313.633 Q111.441 316.827 105.793 322.591 Z" fill="#000000" fill-rule="nonzero" fill-opacity="1" /><path clip-path="url(#clip710)" d="M114.983 220.891 Q118.339 221.609 120.214 223.877 Q122.112 226.146 122.112 229.479 Q122.112 234.595 118.594 237.396 Q115.075 240.197 108.594 240.197 Q106.418 240.197 104.103 239.757 Q101.811 239.34 99.3576 238.484 L99.3576 233.97 Q101.302 235.104 103.617 235.683 Q105.932 236.261 108.455 236.261 Q112.853 236.261 115.145 234.525 Q117.459 232.789 117.459 229.479 Q117.459 226.423 115.307 224.71 Q113.177 222.974 109.358 222.974 L105.33 222.974 L105.33 219.132 L109.543 219.132 Q112.992 219.132 114.82 217.766 Q116.649 216.377 116.649 213.785 Q116.649 211.123 114.751 209.711 Q112.876 208.275 109.358 208.275 Q107.436 208.275 105.237 208.692 Q103.038 209.109 100.399 209.988 L100.399 205.822 Q103.061 205.081 105.376 204.711 Q107.714 204.34 109.774 204.34 Q115.098 204.34 118.2 206.771 Q121.302 209.178 121.302 213.299 Q121.302 216.169 119.658 218.16 Q118.015 220.127 114.983 220.891 Z" fill="#000000" fill-rule="nonzero" fill-opacity="1" /><path clip-path="url(#clip710)" d="M112.529 122.038 L100.723 140.487 L112.529 140.487 L112.529 122.038 M111.302 117.964 L117.182 117.964 L117.182 140.487 L122.112 140.487 L122.112 144.376 L117.182 144.376 L117.182 152.524 L112.529 152.524 L112.529 144.376 L96.9271 144.376 L96.9271 139.862 L111.302 117.964 Z" fill="#000000" fill-rule="nonzero" fill-opacity="1" /><path clip-path="url(#clip710)" d="M361.272 27.2059 L344.866 49.2833 L362.123 72.576 L353.332 72.576 L340.126 54.752 L326.92 72.576 L318.13 72.576 L335.751 48.8377 L319.629 27.2059 L328.419 27.2059 L340.45 43.369 L352.481 27.2059 L361.272 27.2059 Z" fill="#000000" fill-rule="nonzero" fill-opacity="1" /><path clip-path="url(#clip710)" d="M407.128 86.3491 L407.128 92.1419 L364.026 92.1419 L364.026 86.3491 L407.128 86.3491 Z" fill="#000000" fill-rule="nonzero" fill-opacity="1" /><path clip-path="url(#clip710)" d="M443.06 28.5427 L443.06 35.5912 Q439.9 33.9709 436.497 33.1607 Q433.094 32.3505 429.449 32.3505 Q423.899 32.3505 421.104 34.0519 Q418.349 35.7533 418.349 39.156 Q418.349 41.7486 420.334 43.2475 Q422.319 44.7058 428.314 46.0426 L430.866 46.6097 Q438.806 48.3111 442.128 51.4303 Q445.49 54.509 445.49 60.0587 Q445.49 66.3781 440.467 70.0644 Q435.484 73.7508 426.734 73.7508 Q423.089 73.7508 419.119 73.0216 Q415.189 72.3329 410.814 70.9151 L410.814 63.2184 Q414.946 65.3654 418.957 66.4591 Q422.967 67.5124 426.896 67.5124 Q432.163 67.5124 434.998 65.73 Q437.834 63.9071 437.834 60.6258 Q437.834 57.5877 435.768 55.9673 Q433.743 54.3469 426.815 52.8481 L424.223 52.2405 Q417.296 50.7821 414.217 47.7845 Q411.138 44.7463 411.138 39.4801 Q411.138 33.0797 415.675 29.5959 Q420.213 26.1121 428.557 26.1121 Q432.689 26.1121 436.335 26.7198 Q439.981 27.3274 443.06 28.5427 Z" fill="#000000" fill-rule="nonzero" fill-opacity="1" /><path clip-path="url(#clip710)" d="M464.732 14.324 L464.732 27.2059 L480.085 27.2059 L480.085 32.9987 L464.732 32.9987 L464.732 57.6282 Q464.732 63.1779 466.231 64.7578 Q467.77 66.3376 472.429 66.3376 L480.085 66.3376 L480.085 72.576 L472.429 72.576 Q463.8 72.576 460.519 69.3758 Q457.238 66.1351 457.238 57.6282 L457.238 32.9987 L451.769 32.9987 L451.769 27.2059 L457.238 27.2059 L457.238 14.324 L464.732 14.324 Z" fill="#000000" fill-rule="nonzero" fill-opacity="1" /><path clip-path="url(#clip710)" d="M507.469 32.4315 Q501.474 32.4315 497.99 37.1306 Q494.506 41.7891 494.506 49.9314 Q494.506 58.0738 497.949 62.7728 Q501.433 67.4314 507.469 67.4314 Q513.424 67.4314 516.908 62.7323 Q520.391 58.0333 520.391 49.9314 Q520.391 41.8701 516.908 37.1711 Q513.424 32.4315 507.469 32.4315 M507.469 26.1121 Q517.191 26.1121 522.741 32.4315 Q528.291 38.7509 528.291 49.9314 Q528.291 61.0714 522.741 67.4314 Q517.191 73.7508 507.469 73.7508 Q497.706 73.7508 492.157 67.4314 Q486.647 61.0714 486.647 49.9314 Q486.647 38.7509 492.157 32.4315 Q497.706 26.1121 507.469 26.1121 Z" fill="#000000" fill-rule="nonzero" fill-opacity="1" /><path clip-path="url(#clip710)" d="M573.296 28.9478 L573.296 35.9153 Q570.136 34.1734 566.936 33.3227 Q563.777 32.4315 560.536 32.4315 Q553.285 32.4315 549.274 37.0496 Q545.264 41.6271 545.264 49.9314 Q545.264 58.2358 549.274 62.8538 Q553.285 67.4314 560.536 67.4314 Q563.777 67.4314 566.936 66.5807 Q570.136 65.6895 573.296 63.9476 L573.296 70.8341 Q570.177 72.2924 566.815 73.0216 Q563.493 73.7508 559.726 73.7508 Q549.477 73.7508 543.441 67.3098 Q537.405 60.8689 537.405 49.9314 Q537.405 38.832 543.482 32.472 Q549.598 26.1121 560.212 26.1121 Q563.655 26.1121 566.936 26.8413 Q570.217 27.5299 573.296 28.9478 Z" fill="#000000" fill-rule="nonzero" fill-opacity="1" /><path clip-path="url(#clip710)" d="M585.976 9.54393 L593.47 9.54393 L593.47 46.7717 L615.709 27.2059 L625.229 27.2059 L601.166 48.4326 L626.241 72.576 L616.519 72.576 L593.47 50.4176 L593.47 72.576 L585.976 72.576 L585.976 9.54393 Z" fill="#000000" fill-rule="nonzero" fill-opacity="1" /><path clip-path="url(#clip710)" d="M635.356 62.2867 L643.903 62.2867 L643.903 72.576 L635.356 72.576 L635.356 62.2867 Z" fill="#000000" fill-rule="nonzero" fill-opacity="1" /><path clip-path="url(#clip710)" d="M678.255 32.4315 Q672.26 32.4315 668.776 37.1306 Q665.292 41.7891 665.292 49.9314 Q665.292 58.0738 668.735 62.7728 Q672.219 67.4314 678.255 67.4314 Q684.21 67.4314 687.694 62.7323 Q691.177 58.0333 691.177 49.9314 Q691.177 41.8701 687.694 37.1711 Q684.21 32.4315 678.255 32.4315 M678.255 26.1121 Q687.977 26.1121 693.527 32.4315 Q699.077 38.7509 699.077 49.9314 Q699.077 61.0714 693.527 67.4314 Q687.977 73.7508 678.255 73.7508 Q668.492 73.7508 662.943 67.4314 Q657.433 61.0714 657.433 49.9314 Q657.433 38.7509 662.943 32.4315 Q668.492 26.1121 678.255 26.1121 Z" fill="#000000" fill-rule="nonzero" fill-opacity="1" /><path clip-path="url(#clip710)" d="M710.662 54.671 L710.662 27.2059 L718.116 27.2059 L718.116 54.3874 Q718.116 60.8284 720.628 64.0691 Q723.139 67.2693 728.162 67.2693 Q734.198 67.2693 737.682 63.421 Q741.206 59.5726 741.206 52.9291 L741.206 27.2059 L748.66 27.2059 L748.66 72.576 L741.206 72.576 L741.206 65.6084 Q738.492 69.7404 734.887 71.7658 Q731.322 73.7508 726.582 73.7508 Q718.764 73.7508 714.713 68.8897 Q710.662 64.0286 710.662 54.671 M729.418 26.1121 L729.418 26.1121 Z" fill="#000000" fill-rule="nonzero" fill-opacity="1" /><path clip-path="url(#clip710)" d="M771.385 14.324 L771.385 27.2059 L786.738 27.2059 L786.738 32.9987 L771.385 32.9987 L771.385 57.6282 Q771.385 63.1779 772.884 64.7578 Q774.424 66.3376 779.082 66.3376 L786.738 66.3376 L786.738 72.576 L779.082 72.576 Q770.454 72.576 767.172 69.3758 Q763.891 66.1351 763.891 57.6282 L763.891 32.9987 L758.422 32.9987 L758.422 27.2059 L763.891 27.2059 L763.891 14.324 L771.385 14.324 Z" fill="#000000" fill-rule="nonzero" fill-opacity="1" /><path clip-path="url(#clip712)" d="M174.772 474.549 L243.438 465.849 L312.104 457.148 L380.769 444.098 L449.435 483.249 L518.101 483.249 L586.767 483.249 L655.433 483.249 L724.099 483.249 L792.764 483.249 L861.43 483.249 L930.096 483.249 L930.096 483.249 L861.43 289.671 L792.764 128.079 L724.099 141.129 L655.433 149.83 L586.767 158.53 L518.101 191.795 L449.435 402.773 L380.769 415.823 L312.104 431.048 L243.438 448.448 L174.772 465.849  Z" fill="#00467f" fill-rule="evenodd" fill-opacity="0.2"/>
<polyline clip-path="url(#clip712)" style="stroke:#00467f; stroke-linecap:round; stroke-linejoin:round; stroke-width:4; stroke-opacity:0; fill:none" points="174.772,470.199 243.438,457.148 312.104,444.098 380.769,429.961 449.435,443.011 518.101,337.522 586.767,320.889 655.433,316.539 724.099,312.189 792.764,305.664 861.43,386.46 930.096,483.249 "/>
<path clip-path="url(#clip712)" d="M174.772 474.549 L243.438 461.716 L312.104 450.623 L380.769 439.748 L449.435 470.605 L518.101 475.064 L586.767 478.014 L655.433 477.533 L724.099 479.748 L792.764 482.533 L861.43 483.236 L930.096 483.249 L930.096 483.249 L861.43 347.07 L792.764 354.922 L724.099 363.622 L655.433 372.322 L586.767 385.372 L518.101 398.205 L449.435 409.298 L380.769 422.348 L312.104 437.573 L243.438 450.623 L174.772 465.849  Z" fill="#00467f" fill-rule="evenodd" fill-opacity="0.2"/>
<polyline clip-path="url(#clip712)" style="stroke:#00467f; stroke-linecap:round; stroke-linejoin:round; stroke-width:4; stroke-opacity:0; fill:none" points="174.772,470.199 243.438,456.17 312.104,444.098 380.769,431.048 449.435,439.951 518.101,436.634 586.767,431.693 655.433,424.928 724.099,421.685 792.764,418.727 861.43,415.153 930.096,483.249 "/>
<path clip-path="url(#clip712)" d="M174.772 472.374 L243.438 461.498 L312.104 448.448 L380.769 435.398 L449.435 428.873 L518.101 466.283 L586.767 470.498 L655.433 472.573 L724.099 474.88 L792.764 477.422 L861.43 479.002 L930.096 483.249 L930.096 483.249 L861.43 458.585 L792.764 430.901 L724.099 378.304 L655.433 387.547 L586.767 393.529 L518.101 404.948 L449.435 415.823 L380.769 426.698 L312.104 439.748 L243.438 454.973 L174.772 468.024  Z" fill="#00467f" fill-rule="evenodd" fill-opacity="0.2"/>
<polyline clip-path="url(#clip712)" style="stroke:#00467f; stroke-linecap:round; stroke-linejoin:round; stroke-width:4; stroke-opacity:0; fill:none" points="174.772,470.199 243.438,458.236 312.104,444.098 380.769,431.048 449.435,422.348 518.101,435.615 586.767,432.013 655.433,430.06 724.099,426.592 792.764,454.162 861.43,468.794 930.096,483.249 "/>
<polyline clip-path="url(#clip712)" style="stroke:#00467f; stroke-linecap:round; stroke-linejoin:round; stroke-width:4; stroke-opacity:1; fill:none" points="174.772,470.199 243.438,457.148 312.104,444.098 380.769,431.048 449.435,420.173 518.101,413.648 586.767,455.774 655.433,463.629 724.099,467.972 792.764,468.379 861.43,472.365 930.096,483.249 "/>
<path clip-path="url(#clip710)" d="M1152.11 493.904 L1952.76 493.904 L1952.76 117.424 L1152.11 117.424  Z" fill="#ffffff" fill-rule="evenodd" fill-opacity="1"/>
<defs>
  <clipPath id="clip713">
    <rect x="1152" y="117" width="802" height="377"/>
  </clipPath>
</defs>
<polyline clip-path="url(#clip713)" style="stroke:#000000; stroke-linecap:round; stroke-linejoin:round; stroke-width:2; stroke-opacity:0.1; fill:none" points="1277.77,493.904 1277.77,117.424 "/>
<polyline clip-path="url(#clip713)" style="stroke:#000000; stroke-linecap:round; stroke-linejoin:round; stroke-width:2; stroke-opacity:0.1; fill:none" points="1449.44,493.904 1449.44,117.424 "/>
<polyline clip-path="url(#clip713)" style="stroke:#000000; stroke-linecap:round; stroke-linejoin:round; stroke-width:2; stroke-opacity:0.1; fill:none" points="1621.1,493.904 1621.1,117.424 "/>
<polyline clip-path="url(#clip713)" style="stroke:#000000; stroke-linecap:round; stroke-linejoin:round; stroke-width:2; stroke-opacity:0.1; fill:none" points="1792.76,493.904 1792.76,117.424 "/>
<polyline clip-path="url(#clip713)" style="stroke:#000000; stroke-linecap:round; stroke-linejoin:round; stroke-width:2; stroke-opacity:0.1; fill:none" points="1152.11,483.249 1952.76,483.249 "/>
<polyline clip-path="url(#clip713)" style="stroke:#000000; stroke-linecap:round; stroke-linejoin:round; stroke-width:2; stroke-opacity:0.1; fill:none" points="1152.11,384.591 1952.76,384.591 "/>
<polyline clip-path="url(#clip713)" style="stroke:#000000; stroke-linecap:round; stroke-linejoin:round; stroke-width:2; stroke-opacity:0.1; fill:none" points="1152.11,285.932 1952.76,285.932 "/>
<polyline clip-path="url(#clip713)" style="stroke:#000000; stroke-linecap:round; stroke-linejoin:round; stroke-width:2; stroke-opacity:0.1; fill:none" points="1152.11,187.274 1952.76,187.274 "/>
<polyline clip-path="url(#clip710)" style="stroke:#000000; stroke-linecap:round; stroke-linejoin:round; stroke-width:4; stroke-opacity:1; fill:none" points="1152.11,493.904 1952.76,493.904 "/>
<polyline clip-path="url(#clip710)" style="stroke:#000000; stroke-linecap:round; stroke-linejoin:round; stroke-width:4; stroke-opacity:1; fill:none" points="1277.77,493.904 1277.77,475.006 "/>
<polyline clip-path="url(#clip710)" style="stroke:#000000; stroke-linecap:round; stroke-linejoin:round; stroke-width:4; stroke-opacity:1; fill:none" points="1449.44,493.904 1449.44,475.006 "/>
<polyline clip-path="url(#clip710)" style="stroke:#000000; stroke-linecap:round; stroke-linejoin:round; stroke-width:4; stroke-opacity:1; fill:none" points="1621.1,493.904 1621.1,475.006 "/>
<polyline clip-path="url(#clip710)" style="stroke:#000000; stroke-linecap:round; stroke-linejoin:round; stroke-width:4; stroke-opacity:1; fill:none" points="1792.76,493.904 1792.76,475.006 "/>
<path clip-path="url(#clip710)" d="M1249.51 549.169 L1265.83 549.169 L1265.83 553.104 L1243.88 553.104 L1243.88 549.169 Q1246.54 546.414 1251.13 541.784 Q1255.73 537.132 1256.91 535.789 Q1259.16 533.266 1260.04 531.53 Q1260.94 529.771 1260.94 528.081 Q1260.94 525.326 1259 523.59 Q1257.08 521.854 1253.97 521.854 Q1251.78 521.854 1249.32 522.618 Q1246.89 523.382 1244.11 524.933 L1244.11 520.211 Q1246.94 519.076 1249.39 518.498 Q1251.84 517.919 1253.88 517.919 Q1259.25 517.919 1262.45 520.604 Q1265.64 523.289 1265.64 527.78 Q1265.64 529.91 1264.83 531.831 Q1264.04 533.729 1261.94 536.322 Q1261.36 536.993 1258.26 540.21 Q1255.16 543.405 1249.51 549.169 Z" fill="#000000" fill-rule="nonzero" fill-opacity="1" /><path clip-path="url(#clip710)" d="M1275.64 547.224 L1280.53 547.224 L1280.53 553.104 L1275.64 553.104 L1275.64 547.224 Z" fill="#000000" fill-rule="nonzero" fill-opacity="1" /><path clip-path="url(#clip710)" d="M1290.76 518.544 L1309.11 518.544 L1309.11 522.479 L1295.04 522.479 L1295.04 530.951 Q1296.06 530.604 1297.08 530.442 Q1298.09 530.257 1299.11 530.257 Q1304.9 530.257 1308.28 533.428 Q1311.66 536.599 1311.66 542.016 Q1311.66 547.595 1308.19 550.696 Q1304.71 553.775 1298.4 553.775 Q1296.22 553.775 1293.95 553.405 Q1291.71 553.034 1289.3 552.294 L1289.3 547.595 Q1291.38 548.729 1293.6 549.284 Q1295.83 549.84 1298.3 549.84 Q1302.31 549.84 1304.65 547.734 Q1306.98 545.627 1306.98 542.016 Q1306.98 538.405 1304.65 536.298 Q1302.31 534.192 1298.3 534.192 Q1296.43 534.192 1294.55 534.609 Q1292.7 535.025 1290.76 535.905 L1290.76 518.544 Z" fill="#000000" fill-rule="nonzero" fill-opacity="1" /><path clip-path="url(#clip710)" d="M1416.6 518.544 L1434.96 518.544 L1434.96 522.479 L1420.88 522.479 L1420.88 530.951 Q1421.9 530.604 1422.92 530.442 Q1423.94 530.257 1424.96 530.257 Q1430.74 530.257 1434.12 533.428 Q1437.5 536.599 1437.5 542.016 Q1437.5 547.595 1434.03 550.696 Q1430.56 553.775 1424.24 553.775 Q1422.06 553.775 1419.79 553.405 Q1417.55 553.034 1415.14 552.294 L1415.14 547.595 Q1417.22 548.729 1419.45 549.284 Q1421.67 549.84 1424.15 549.84 Q1428.15 549.84 1430.49 547.734 Q1432.83 545.627 1432.83 542.016 Q1432.83 538.405 1430.49 536.298 Q1428.15 534.192 1424.15 534.192 Q1422.27 534.192 1420.4 534.609 Q1418.54 535.025 1416.6 535.905 L1416.6 518.544 Z" fill="#000000" fill-rule="nonzero" fill-opacity="1" /><path clip-path="url(#clip710)" d="M1446.72 547.224 L1451.6 547.224 L1451.6 553.104 L1446.72 553.104 L1446.72 547.224 Z" fill="#000000" fill-rule="nonzero" fill-opacity="1" /><path clip-path="url(#clip710)" d="M1471.78 521.623 Q1468.17 521.623 1466.34 525.187 Q1464.54 528.729 1464.54 535.859 Q1464.54 542.965 1466.34 546.53 Q1468.17 550.071 1471.78 550.071 Q1475.42 550.071 1477.22 546.53 Q1479.05 542.965 1479.05 535.859 Q1479.05 528.729 1477.22 525.187 Q1475.42 521.623 1471.78 521.623 M1471.78 517.919 Q1477.59 517.919 1480.65 522.525 Q1483.73 527.109 1483.73 535.859 Q1483.73 544.585 1480.65 549.192 Q1477.59 553.775 1471.78 553.775 Q1465.97 553.775 1462.9 549.192 Q1459.84 544.585 1459.84 535.859 Q1459.84 527.109 1462.9 522.525 Q1465.97 517.919 1471.78 517.919 Z" fill="#000000" fill-rule="nonzero" fill-opacity="1" /><path clip-path="url(#clip710)" d="M1587.42 518.544 L1609.64 518.544 L1609.64 520.535 L1597.1 553.104 L1592.21 553.104 L1604.02 522.479 L1587.42 522.479 L1587.42 518.544 Z" fill="#000000" fill-rule="nonzero" fill-opacity="1" /><path clip-path="url(#clip710)" d="M1618.76 547.224 L1623.65 547.224 L1623.65 553.104 L1618.76 553.104 L1618.76 547.224 Z" fill="#000000" fill-rule="nonzero" fill-opacity="1" /><path clip-path="url(#clip710)" d="M1633.88 518.544 L1652.23 518.544 L1652.23 522.479 L1638.16 522.479 L1638.16 530.951 Q1639.18 530.604 1640.2 530.442 Q1641.22 530.257 1642.23 530.257 Q1648.02 530.257 1651.4 533.428 Q1654.78 536.599 1654.78 542.016 Q1654.78 547.595 1651.31 550.696 Q1647.84 553.775 1641.52 553.775 Q1639.34 553.775 1637.07 553.405 Q1634.83 553.034 1632.42 552.294 L1632.42 547.595 Q1634.5 548.729 1636.72 549.284 Q1638.95 549.84 1641.42 549.84 Q1645.43 549.84 1647.77 547.734 Q1650.1 545.627 1650.1 542.016 Q1650.1 538.405 1647.77 536.298 Q1645.43 534.192 1641.42 534.192 Q1639.55 534.192 1637.67 534.609 Q1635.82 535.025 1633.88 535.905 L1633.88 518.544 Z" fill="#000000" fill-rule="nonzero" fill-opacity="1" /><path clip-path="url(#clip710)" d="M1744.84 549.169 L1752.48 549.169 L1752.48 522.803 L1744.17 524.47 L1744.17 520.211 L1752.43 518.544 L1757.1 518.544 L1757.1 549.169 L1764.74 549.169 L1764.74 553.104 L1744.84 553.104 L1744.84 549.169 Z" fill="#000000" fill-rule="nonzero" fill-opacity="1" /><path clip-path="url(#clip710)" d="M1784.19 521.623 Q1780.58 521.623 1778.75 525.187 Q1776.94 528.729 1776.94 535.859 Q1776.94 542.965 1778.75 546.53 Q1780.58 550.071 1784.19 550.071 Q1787.82 550.071 1789.63 546.53 Q1791.46 542.965 1791.46 535.859 Q1791.46 528.729 1789.63 525.187 Q1787.82 521.623 1784.19 521.623 M1784.19 517.919 Q1790 517.919 1793.05 522.525 Q1796.13 527.109 1796.13 535.859 Q1796.13 544.585 1793.05 549.192 Q1790 553.775 1784.19 553.775 Q1778.38 553.775 1775.3 549.192 Q1772.24 544.585 1772.24 535.859 Q1772.24 527.109 1775.3 522.525 Q1778.38 517.919 1784.19 517.919 Z" fill="#000000" fill-rule="nonzero" fill-opacity="1" /><path clip-path="url(#clip710)" d="M1804.35 547.224 L1809.23 547.224 L1809.23 553.104 L1804.35 553.104 L1804.35 547.224 Z" fill="#000000" fill-rule="nonzero" fill-opacity="1" /><path clip-path="url(#clip710)" d="M1829.42 521.623 Q1825.81 521.623 1823.98 525.187 Q1822.17 528.729 1822.17 535.859 Q1822.17 542.965 1823.98 546.53 Q1825.81 550.071 1829.42 550.071 Q1833.05 550.071 1834.86 546.53 Q1836.69 542.965 1836.69 535.859 Q1836.69 528.729 1834.86 525.187 Q1833.05 521.623 1829.42 521.623 M1829.42 517.919 Q1835.23 517.919 1838.29 522.525 Q1841.36 527.109 1841.36 535.859 Q1841.36 544.585 1838.29 549.192 Q1835.23 553.775 1829.42 553.775 Q1823.61 553.775 1820.53 549.192 Q1817.47 544.585 1817.47 535.859 Q1817.47 527.109 1820.53 522.525 Q1823.61 517.919 1829.42 517.919 Z" fill="#000000" fill-rule="nonzero" fill-opacity="1" /><polyline clip-path="url(#clip710)" style="stroke:#000000; stroke-linecap:round; stroke-linejoin:round; stroke-width:4; stroke-opacity:1; fill:none" points="1152.11,493.904 1152.11,117.424 "/>
<polyline clip-path="url(#clip710)" style="stroke:#000000; stroke-linecap:round; stroke-linejoin:round; stroke-width:4; stroke-opacity:1; fill:none" points="1152.11,483.249 1171.01,483.249 "/>
<polyline clip-path="url(#clip710)" style="stroke:#000000; stroke-linecap:round; stroke-linejoin:round; stroke-width:4; stroke-opacity:1; fill:none" points="1152.11,384.591 1171.01,384.591 "/>
<polyline clip-path="url(#clip710)" style="stroke:#000000; stroke-linecap:round; stroke-linejoin:round; stroke-width:4; stroke-opacity:1; fill:none" points="1152.11,285.932 1171.01,285.932 "/>
<polyline clip-path="url(#clip710)" style="stroke:#000000; stroke-linecap:round; stroke-linejoin:round; stroke-width:4; stroke-opacity:1; fill:none" points="1152.11,187.274 1171.01,187.274 "/>
<path clip-path="url(#clip710)" d="M1064.94 469.047 Q1061.33 469.047 1059.5 472.612 Q1057.69 476.154 1057.69 483.284 Q1057.69 490.39 1059.5 493.955 Q1061.33 497.496 1064.94 497.496 Q1068.57 497.496 1070.38 493.955 Q1072.2 490.39 1072.2 483.284 Q1072.2 476.154 1070.38 472.612 Q1068.57 469.047 1064.94 469.047 M1064.94 465.344 Q1070.75 465.344 1073.8 469.95 Q1076.88 474.534 1076.88 483.284 Q1076.88 492.01 1073.8 496.617 Q1070.75 501.2 1064.94 501.2 Q1059.13 501.2 1056.05 496.617 Q1052.99 492.01 1052.99 483.284 Q1052.99 474.534 1056.05 469.95 Q1059.13 465.344 1064.94 465.344 Z" fill="#000000" fill-rule="nonzero" fill-opacity="1" /><path clip-path="url(#clip710)" d="M1085.1 494.649 L1089.98 494.649 L1089.98 500.529 L1085.1 500.529 L1085.1 494.649 Z" fill="#000000" fill-rule="nonzero" fill-opacity="1" /><path clip-path="url(#clip710)" d="M1110.17 469.047 Q1106.56 469.047 1104.73 472.612 Q1102.92 476.154 1102.92 483.284 Q1102.92 490.39 1104.73 493.955 Q1106.56 497.496 1110.17 497.496 Q1113.8 497.496 1115.61 493.955 Q1117.44 490.39 1117.44 483.284 Q1117.44 476.154 1115.61 472.612 Q1113.8 469.047 1110.17 469.047 M1110.17 465.344 Q1115.98 465.344 1119.03 469.95 Q1122.11 474.534 1122.11 483.284 Q1122.11 492.01 1119.03 496.617 Q1115.98 501.2 1110.17 501.2 Q1104.36 501.2 1101.28 496.617 Q1098.22 492.01 1098.22 483.284 Q1098.22 474.534 1101.28 469.95 Q1104.36 465.344 1110.17 465.344 Z" fill="#000000" fill-rule="nonzero" fill-opacity="1" /><path clip-path="url(#clip710)" d="M1065.93 370.389 Q1062.32 370.389 1060.49 373.954 Q1058.69 377.496 1058.69 384.625 Q1058.69 391.732 1060.49 395.297 Q1062.32 398.838 1065.93 398.838 Q1069.57 398.838 1071.37 395.297 Q1073.2 391.732 1073.2 384.625 Q1073.2 377.496 1071.37 373.954 Q1069.57 370.389 1065.93 370.389 M1065.93 366.686 Q1071.74 366.686 1074.8 371.292 Q1077.88 375.875 1077.88 384.625 Q1077.88 393.352 1074.8 397.959 Q1071.74 402.542 1065.93 402.542 Q1060.12 402.542 1057.04 397.959 Q1053.99 393.352 1053.99 384.625 Q1053.99 375.875 1057.04 371.292 Q1060.12 366.686 1065.93 366.686 Z" fill="#000000" fill-rule="nonzero" fill-opacity="1" /><path clip-path="url(#clip710)" d="M1086.09 395.991 L1090.98 395.991 L1090.98 401.871 L1086.09 401.871 L1086.09 395.991 Z" fill="#000000" fill-rule="nonzero" fill-opacity="1" /><path clip-path="url(#clip710)" d="M1101.21 367.311 L1119.57 367.311 L1119.57 371.246 L1105.49 371.246 L1105.49 379.718 Q1106.51 379.371 1107.53 379.209 Q1108.55 379.023 1109.57 379.023 Q1115.35 379.023 1118.73 382.195 Q1122.11 385.366 1122.11 390.783 Q1122.11 396.361 1118.64 399.463 Q1115.17 402.542 1108.85 402.542 Q1106.67 402.542 1104.4 402.171 Q1102.16 401.801 1099.75 401.06 L1099.75 396.361 Q1101.83 397.496 1104.06 398.051 Q1106.28 398.607 1108.76 398.607 Q1112.76 398.607 1115.1 396.5 Q1117.44 394.394 1117.44 390.783 Q1117.44 387.172 1115.1 385.065 Q1112.76 382.959 1108.76 382.959 Q1106.88 382.959 1105.01 383.375 Q1103.15 383.792 1101.21 384.672 L1101.21 367.311 Z" fill="#000000" fill-rule="nonzero" fill-opacity="1" /><path clip-path="url(#clip710)" d="M1055.75 299.277 L1063.39 299.277 L1063.39 272.912 L1055.08 274.578 L1055.08 270.319 L1063.34 268.652 L1068.02 268.652 L1068.02 299.277 L1075.65 299.277 L1075.65 303.212 L1055.75 303.212 L1055.75 299.277 Z" fill="#000000" fill-rule="nonzero" fill-opacity="1" /><path clip-path="url(#clip710)" d="M1085.1 297.333 L1089.98 297.333 L1089.98 303.212 L1085.1 303.212 L1085.1 297.333 Z" fill="#000000" fill-rule="nonzero" fill-opacity="1" /><path clip-path="url(#clip710)" d="M1110.17 271.731 Q1106.56 271.731 1104.73 275.296 Q1102.92 278.837 1102.92 285.967 Q1102.92 293.074 1104.73 296.638 Q1106.56 300.18 1110.17 300.18 Q1113.8 300.18 1115.61 296.638 Q1117.44 293.074 1117.44 285.967 Q1117.44 278.837 1115.61 275.296 Q1113.8 271.731 1110.17 271.731 M1110.17 268.027 Q1115.98 268.027 1119.03 272.634 Q1122.11 277.217 1122.11 285.967 Q1122.11 294.694 1119.03 299.3 Q1115.98 303.884 1110.17 303.884 Q1104.36 303.884 1101.28 299.3 Q1098.22 294.694 1098.22 285.967 Q1098.22 277.217 1101.28 272.634 Q1104.36 268.027 1110.17 268.027 Z" fill="#000000" fill-rule="nonzero" fill-opacity="1" /><path clip-path="url(#clip710)" d="M1056.74 200.619 L1064.38 200.619 L1064.38 174.253 L1056.07 175.92 L1056.07 171.661 L1064.33 169.994 L1069.01 169.994 L1069.01 200.619 L1076.65 200.619 L1076.65 204.554 L1056.74 204.554 L1056.74 200.619 Z" fill="#000000" fill-rule="nonzero" fill-opacity="1" /><path clip-path="url(#clip710)" d="M1086.09 198.675 L1090.98 198.675 L1090.98 204.554 L1086.09 204.554 L1086.09 198.675 Z" fill="#000000" fill-rule="nonzero" fill-opacity="1" /><path clip-path="url(#clip710)" d="M1101.21 169.994 L1119.57 169.994 L1119.57 173.929 L1105.49 173.929 L1105.49 182.401 Q1106.51 182.054 1107.53 181.892 Q1108.55 181.707 1109.57 181.707 Q1115.35 181.707 1118.73 184.878 Q1122.11 188.05 1122.11 193.466 Q1122.11 199.045 1118.64 202.147 Q1115.17 205.225 1108.85 205.225 Q1106.67 205.225 1104.4 204.855 Q1102.16 204.485 1099.75 203.744 L1099.75 199.045 Q1101.83 200.179 1104.06 200.735 Q1106.28 201.29 1108.76 201.29 Q1112.76 201.29 1115.1 199.184 Q1117.44 197.077 1117.44 193.466 Q1117.44 189.855 1115.1 187.749 Q1112.76 185.642 1108.76 185.642 Q1106.88 185.642 1105.01 186.059 Q1103.15 186.476 1101.21 187.355 L1101.21 169.994 Z" fill="#000000" fill-rule="nonzero" fill-opacity="1" /><path clip-path="url(#clip710)" d="M1262.86 54.671 L1262.86 27.2059 L1270.31 27.2059 L1270.31 54.3874 Q1270.31 60.8284 1272.82 64.0691 Q1275.33 67.2693 1280.36 67.2693 Q1286.39 67.2693 1289.87 63.421 Q1293.4 59.5726 1293.4 52.9291 L1293.4 27.2059 L1300.85 27.2059 L1300.85 72.576 L1293.4 72.576 L1293.4 65.6084 Q1290.68 69.7404 1287.08 71.7658 Q1283.51 73.7508 1278.78 73.7508 Q1270.96 73.7508 1266.91 68.8897 Q1262.86 64.0286 1262.86 54.671 M1281.61 26.1121 L1281.61 26.1121 Z" fill="#000000" fill-rule="nonzero" fill-opacity="1" /><path clip-path="url(#clip710)" d="M1350.68 86.3491 L1350.68 92.1419 L1307.58 92.1419 L1307.58 86.3491 L1350.68 86.3491 Z" fill="#000000" fill-rule="nonzero" fill-opacity="1" /><path clip-path="url(#clip710)" d="M1380.66 9.54393 L1380.66 15.7418 L1373.53 15.7418 Q1369.52 15.7418 1367.94 17.3622 Q1366.4 18.9825 1366.4 23.1955 L1366.4 27.2059 L1378.67 27.2059 L1378.67 32.9987 L1366.4 32.9987 L1366.4 72.576 L1358.9 72.576 L1358.9 32.9987 L1351.77 32.9987 L1351.77 27.2059 L1358.9 27.2059 L1358.9 24.0462 Q1358.9 16.471 1362.43 13.0277 Q1365.95 9.54393 1373.61 9.54393 L1380.66 9.54393 Z" fill="#000000" fill-rule="nonzero" fill-opacity="1" /><path clip-path="url(#clip710)" d="M1404.47 32.4315 Q1398.48 32.4315 1395 37.1306 Q1391.51 41.7891 1391.51 49.9314 Q1391.51 58.0738 1394.96 62.7728 Q1398.44 67.4314 1404.47 67.4314 Q1410.43 67.4314 1413.91 62.7323 Q1417.4 58.0333 1417.4 49.9314 Q1417.4 41.8701 1413.91 37.1711 Q1410.43 32.4315 1404.47 32.4315 M1404.47 26.1121 Q1414.2 26.1121 1419.75 32.4315 Q1425.3 38.7509 1425.3 49.9314 Q1425.3 61.0714 1419.75 67.4314 Q1414.2 73.7508 1404.47 73.7508 Q1394.71 73.7508 1389.16 67.4314 Q1383.65 61.0714 1383.65 49.9314 Q1383.65 38.7509 1389.16 32.4315 Q1394.71 26.1121 1404.47 26.1121 Z" fill="#000000" fill-rule="nonzero" fill-opacity="1" /><path clip-path="url(#clip710)" d="M1463.94 34.1734 Q1462.69 33.4443 1461.19 33.1202 Q1459.73 32.7556 1457.95 32.7556 Q1451.63 32.7556 1448.22 36.8875 Q1444.86 40.9789 1444.86 48.6757 L1444.86 72.576 L1437.37 72.576 L1437.37 27.2059 L1444.86 27.2059 L1444.86 34.2544 Q1447.21 30.1225 1450.98 28.1376 Q1454.75 26.1121 1460.13 26.1121 Q1460.9 26.1121 1461.84 26.2337 Q1462.77 26.3147 1463.9 26.5172 L1463.94 34.1734 Z" fill="#000000" fill-rule="nonzero" fill-opacity="1" /><path clip-path="url(#clip710)" d="M1467.43 27.2059 L1474.88 27.2059 L1484.2 62.6108 L1493.47 27.2059 L1502.26 27.2059 L1511.58 62.6108 L1520.86 27.2059 L1528.31 27.2059 L1516.44 72.576 L1507.65 72.576 L1497.89 35.3887 L1488.09 72.576 L1479.29 72.576 L1467.43 27.2059 Z" fill="#000000" fill-rule="nonzero" fill-opacity="1" /><path clip-path="url(#clip710)" d="M1560.23 49.7694 Q1551.2 49.7694 1547.71 51.8354 Q1544.23 53.9013 1544.23 58.8839 Q1544.23 62.8538 1546.82 65.2034 Q1549.46 67.5124 1553.95 67.5124 Q1560.15 67.5124 1563.88 63.1374 Q1567.65 58.7219 1567.65 51.4303 L1567.65 49.7694 L1560.23 49.7694 M1575.1 46.6907 L1575.1 72.576 L1567.65 72.576 L1567.65 65.6895 Q1565.09 69.8214 1561.29 71.8063 Q1557.48 73.7508 1551.97 73.7508 Q1545 73.7508 1540.87 69.8619 Q1536.78 65.9325 1536.78 59.3701 Q1536.78 51.7138 1541.88 47.825 Q1547.03 43.9361 1557.19 43.9361 L1567.65 43.9361 L1567.65 43.2069 Q1567.65 38.0623 1564.24 35.2672 Q1560.88 32.4315 1554.76 32.4315 Q1550.87 32.4315 1547.19 33.3632 Q1543.5 34.295 1540.1 36.1584 L1540.1 29.2718 Q1544.19 27.692 1548.04 26.9223 Q1551.89 26.1121 1555.53 26.1121 Q1565.38 26.1121 1570.24 31.2163 Q1575.1 36.3204 1575.1 46.6907 Z" fill="#000000" fill-rule="nonzero" fill-opacity="1" /><path clip-path="url(#clip710)" d="M1616.74 34.1734 Q1615.49 33.4443 1613.99 33.1202 Q1612.53 32.7556 1610.75 32.7556 Q1604.43 32.7556 1601.02 36.8875 Q1597.66 40.9789 1597.66 48.6757 L1597.66 72.576 L1590.17 72.576 L1590.17 27.2059 L1597.66 27.2059 L1597.66 34.2544 Q1600.01 30.1225 1603.78 28.1376 Q1607.55 26.1121 1612.93 26.1121 Q1613.7 26.1121 1614.64 26.2337 Q1615.57 26.3147 1616.7 26.5172 L1616.74 34.1734 Z" fill="#000000" fill-rule="nonzero" fill-opacity="1" /><path clip-path="url(#clip710)" d="M1652.96 34.0924 L1652.96 9.54393 L1660.41 9.54393 L1660.41 72.576 L1652.96 72.576 L1652.96 65.7705 Q1650.61 69.8214 1647 71.8063 Q1643.44 73.7508 1638.41 73.7508 Q1630.19 73.7508 1625.01 67.1883 Q1619.86 60.6258 1619.86 49.9314 Q1619.86 39.2371 1625.01 32.6746 Q1630.19 26.1121 1638.41 26.1121 Q1643.44 26.1121 1647 28.0971 Q1650.61 30.0415 1652.96 34.0924 M1627.56 49.9314 Q1627.56 58.1548 1630.92 62.8538 Q1634.32 67.5124 1640.24 67.5124 Q1646.15 67.5124 1649.55 62.8538 Q1652.96 58.1548 1652.96 49.9314 Q1652.96 41.7081 1649.55 37.0496 Q1646.15 32.3505 1640.24 32.3505 Q1634.32 32.3505 1630.92 37.0496 Q1627.56 41.7081 1627.56 49.9314 Z" fill="#000000" fill-rule="nonzero" fill-opacity="1" /><path clip-path="url(#clip710)" d="M1710.24 86.3491 L1710.24 92.1419 L1667.14 92.1419 L1667.14 86.3491 L1710.24 86.3491 Z" fill="#000000" fill-rule="nonzero" fill-opacity="1" /><path clip-path="url(#clip710)" d="M1746.17 28.5427 L1746.17 35.5912 Q1743.01 33.9709 1739.61 33.1607 Q1736.2 32.3505 1732.56 32.3505 Q1727.01 32.3505 1724.21 34.0519 Q1721.46 35.7533 1721.46 39.156 Q1721.46 41.7486 1723.44 43.2475 Q1725.43 44.7058 1731.42 46.0426 L1733.98 46.6097 Q1741.92 48.3111 1745.24 51.4303 Q1748.6 54.509 1748.6 60.0587 Q1748.6 66.3781 1743.58 70.0644 Q1738.59 73.7508 1729.84 73.7508 Q1726.2 73.7508 1722.23 73.0216 Q1718.3 72.3329 1713.92 70.9151 L1713.92 63.2184 Q1718.06 65.3654 1722.07 66.4591 Q1726.08 67.5124 1730.01 67.5124 Q1735.27 67.5124 1738.11 65.73 Q1740.94 63.9071 1740.94 60.6258 Q1740.94 57.5877 1738.88 55.9673 Q1736.85 54.3469 1729.92 52.8481 L1727.33 52.2405 Q1720.4 50.7821 1717.33 47.7845 Q1714.25 44.7463 1714.25 39.4801 Q1714.25 33.0797 1718.78 29.5959 Q1723.32 26.1121 1731.67 26.1121 Q1735.8 26.1121 1739.44 26.7198 Q1743.09 27.3274 1746.17 28.5427 Z" fill="#000000" fill-rule="nonzero" fill-opacity="1" /><path clip-path="url(#clip710)" d="M1799.28 48.0275 L1799.28 51.6733 L1765.01 51.6733 Q1765.49 59.3701 1769.62 63.421 Q1773.8 67.4314 1781.21 67.4314 Q1785.5 67.4314 1789.51 66.3781 Q1793.56 65.3249 1797.53 63.2184 L1797.53 70.267 Q1793.52 71.9684 1789.31 72.8596 Q1785.1 73.7508 1780.76 73.7508 Q1769.91 73.7508 1763.55 67.4314 Q1757.23 61.1119 1757.23 50.3365 Q1757.23 39.1965 1763.22 32.6746 Q1769.26 26.1121 1779.47 26.1121 Q1788.62 26.1121 1793.93 32.0264 Q1799.28 37.9003 1799.28 48.0275 M1791.82 45.84 Q1791.74 39.7232 1788.38 36.0774 Q1785.06 32.4315 1779.55 32.4315 Q1773.31 32.4315 1769.54 35.9558 Q1765.82 39.4801 1765.25 45.8805 L1791.82 45.84 Z" fill="#000000" fill-rule="nonzero" fill-opacity="1" /><path clip-path="url(#clip710)" d="M1811.51 9.54393 L1818.96 9.54393 L1818.96 72.576 L1811.51 72.576 L1811.51 9.54393 Z" fill="#000000" fill-rule="nonzero" fill-opacity="1" /><path clip-path="url(#clip710)" d="M1834.56 9.54393 L1842.01 9.54393 L1842.01 72.576 L1834.56 72.576 L1834.56 9.54393 Z" fill="#000000" fill-rule="nonzero" fill-opacity="1" /><path clip-path="url(#clip713)" d="M1174.77 483.249 L1243.44 483.249 L1312.1 483.249 L1380.77 483.249 L1449.44 483.249 L1518.1 483.249 L1586.77 483.249 L1655.43 483.249 L1724.1 483.249 L1792.76 483.249 L1861.43 483.249 L1930.1 483.249 L1930.1 483.249 L1861.43 483.249 L1792.76 483.249 L1724.1 483.249 L1655.43 128.079 L1586.77 182.374 L1518.1 193.821 L1449.44 221.969 L1380.77 259.42 L1312.1 280.534 L1243.44 313.459 L1174.77 344.783  Z" fill="#00467f" fill-rule="evenodd" fill-opacity="0.2"/>
<polyline clip-path="url(#clip713)" style="stroke:#00467f; stroke-linecap:round; stroke-linejoin:round; stroke-width:4; stroke-opacity:0; fill:none" points="1174.77,414.016 1243.44,398.354 1312.1,381.891 1380.77,371.335 1449.44,352.609 1518.1,338.535 1586.77,332.811 1655.43,305.664 1724.1,483.249 1792.76,483.249 1861.43,483.249 1930.1,483.249 "/>
<path clip-path="url(#clip713)" d="M1174.77 483.249 L1243.44 483.249 L1312.1 483.249 L1380.77 483.249 L1449.44 483.249 L1518.1 483.249 L1586.77 483.249 L1655.43 483.249 L1724.1 483.249 L1792.76 483.249 L1861.43 483.249 L1930.1 483.249 L1930.1 483.249 L1861.43 483.249 L1792.76 483.249 L1724.1 483.249 L1655.43 353.209 L1586.77 412.865 L1518.1 439.673 L1449.44 419.821 L1380.77 309.892 L1312.1 326.915 L1243.44 336.644 L1174.77 365.087  Z" fill="#00467f" fill-rule="evenodd" fill-opacity="0.2"/>
<polyline clip-path="url(#clip713)" style="stroke:#00467f; stroke-linecap:round; stroke-linejoin:round; stroke-width:4; stroke-opacity:0; fill:none" points="1174.77,424.168 1243.44,409.946 1312.1,405.082 1380.77,396.57 1449.44,451.535 1518.1,461.461 1586.77,448.057 1655.43,418.229 1724.1,483.249 1792.76,483.249 1861.43,483.249 1930.1,483.249 "/>
<path clip-path="url(#clip713)" d="M1174.77 483.249 L1243.44 483.249 L1312.1 483.249 L1380.77 483.249 L1449.44 483.249 L1518.1 483.249 L1586.77 483.249 L1655.43 463.547 L1724.1 483.249 L1792.76 483.249 L1861.43 483.249 L1930.1 483.249 L1930.1 483.249 L1861.43 483.249 L1792.76 483.249 L1724.1 483.249 L1655.43 431.925 L1586.77 450.177 L1518.1 451.863 L1449.44 445.059 L1380.77 447.683 L1312.1 444.617 L1243.44 437.054 L1174.77 483.249  Z" fill="#00467f" fill-rule="evenodd" fill-opacity="0.2"/>
<polyline clip-path="url(#clip713)" style="stroke:#00467f; stroke-linecap:round; stroke-linejoin:round; stroke-width:4; stroke-opacity:0; fill:none" points="1174.77,483.249 1243.44,460.152 1312.1,463.933 1380.77,465.466 1449.44,464.154 1518.1,467.556 1586.77,466.713 1655.43,447.736 1724.1,483.249 1792.76,483.249 1861.43,483.249 1930.1,483.249 "/>
<polyline clip-path="url(#clip713)" style="stroke:#00467f; stroke-linecap:round; stroke-linejoin:round; stroke-width:4; stroke-opacity:1; fill:none" points="1174.77,483.249 1243.44,483.249 1312.1,483.249 1380.77,461.951 1449.44,458.795 1518.1,483.249 1586.77,468.173 1655.43,452.191 1724.1,483.249 1792.76,483.249 1861.43,483.249 1930.1,483.249 "/>
<path clip-path="url(#clip710)" d="M152.112 1093.9 L952.756 1093.9 L952.756 717.424 L152.112 717.424  Z" fill="#ffffff" fill-rule="evenodd" fill-opacity="1"/>
<defs>
  <clipPath id="clip714">
    <rect x="152" y="717" width="802" height="377"/>
  </clipPath>
</defs>
<polyline clip-path="url(#clip714)" style="stroke:#000000; stroke-linecap:round; stroke-linejoin:round; stroke-width:2; stroke-opacity:0.1; fill:none" points="277.771,1093.9 277.771,717.424 "/>
<polyline clip-path="url(#clip714)" style="stroke:#000000; stroke-linecap:round; stroke-linejoin:round; stroke-width:2; stroke-opacity:0.1; fill:none" points="449.435,1093.9 449.435,717.424 "/>
<polyline clip-path="url(#clip714)" style="stroke:#000000; stroke-linecap:round; stroke-linejoin:round; stroke-width:2; stroke-opacity:0.1; fill:none" points="621.1,1093.9 621.1,717.424 "/>
<polyline clip-path="url(#clip714)" style="stroke:#000000; stroke-linecap:round; stroke-linejoin:round; stroke-width:2; stroke-opacity:0.1; fill:none" points="792.764,1093.9 792.764,717.424 "/>
<polyline clip-path="url(#clip714)" style="stroke:#000000; stroke-linecap:round; stroke-linejoin:round; stroke-width:2; stroke-opacity:0.1; fill:none" points="152.112,1083.25 952.756,1083.25 "/>
<polyline clip-path="url(#clip714)" style="stroke:#000000; stroke-linecap:round; stroke-linejoin:round; stroke-width:2; stroke-opacity:0.1; fill:none" points="152.112,1009.26 952.756,1009.26 "/>
<polyline clip-path="url(#clip714)" style="stroke:#000000; stroke-linecap:round; stroke-linejoin:round; stroke-width:2; stroke-opacity:0.1; fill:none" points="152.112,935.261 952.756,935.261 "/>
<polyline clip-path="url(#clip714)" style="stroke:#000000; stroke-linecap:round; stroke-linejoin:round; stroke-width:2; stroke-opacity:0.1; fill:none" points="152.112,861.268 952.756,861.268 "/>
<polyline clip-path="url(#clip714)" style="stroke:#000000; stroke-linecap:round; stroke-linejoin:round; stroke-width:2; stroke-opacity:0.1; fill:none" points="152.112,787.274 952.756,787.274 "/>
<polyline clip-path="url(#clip710)" style="stroke:#000000; stroke-linecap:round; stroke-linejoin:round; stroke-width:4; stroke-opacity:1; fill:none" points="152.112,1093.9 952.756,1093.9 "/>
<polyline clip-path="url(#clip710)" style="stroke:#000000; stroke-linecap:round; stroke-linejoin:round; stroke-width:4; stroke-opacity:1; fill:none" points="277.771,1093.9 277.771,1075.01 "/>
<polyline clip-path="url(#clip710)" style="stroke:#000000; stroke-linecap:round; stroke-linejoin:round; stroke-width:4; stroke-opacity:1; fill:none" points="449.435,1093.9 449.435,1075.01 "/>
<polyline clip-path="url(#clip710)" style="stroke:#000000; stroke-linecap:round; stroke-linejoin:round; stroke-width:4; stroke-opacity:1; fill:none" points="621.1,1093.9 621.1,1075.01 "/>
<polyline clip-path="url(#clip710)" style="stroke:#000000; stroke-linecap:round; stroke-linejoin:round; stroke-width:4; stroke-opacity:1; fill:none" points="792.764,1093.9 792.764,1075.01 "/>
<path clip-path="url(#clip710)" d="M249.507 1149.17 L265.826 1149.17 L265.826 1153.1 L243.882 1153.1 L243.882 1149.17 Q246.544 1146.41 251.127 1141.78 Q255.734 1137.13 256.914 1135.79 Q259.16 1133.27 260.039 1131.53 Q260.942 1129.77 260.942 1128.08 Q260.942 1125.33 258.998 1123.59 Q257.076 1121.85 253.974 1121.85 Q251.775 1121.85 249.322 1122.62 Q246.891 1123.38 244.113 1124.93 L244.113 1120.21 Q246.937 1119.08 249.391 1118.5 Q251.845 1117.92 253.882 1117.92 Q259.252 1117.92 262.447 1120.6 Q265.641 1123.29 265.641 1127.78 Q265.641 1129.91 264.831 1131.83 Q264.044 1133.73 261.937 1136.32 Q261.359 1136.99 258.257 1140.21 Q255.155 1143.4 249.507 1149.17 Z" fill="#000000" fill-rule="nonzero" fill-opacity="1" /><path clip-path="url(#clip710)" d="M275.641 1147.22 L280.525 1147.22 L280.525 1153.1 L275.641 1153.1 L275.641 1147.22 Z" fill="#000000" fill-rule="nonzero" fill-opacity="1" /><path clip-path="url(#clip710)" d="M290.757 1118.54 L309.113 1118.54 L309.113 1122.48 L295.039 1122.48 L295.039 1130.95 Q296.058 1130.6 297.076 1130.44 Q298.095 1130.26 299.113 1130.26 Q304.9 1130.26 308.28 1133.43 Q311.659 1136.6 311.659 1142.02 Q311.659 1147.59 308.187 1150.7 Q304.715 1153.78 298.396 1153.78 Q296.22 1153.78 293.951 1153.4 Q291.706 1153.03 289.298 1152.29 L289.298 1147.59 Q291.382 1148.73 293.604 1149.28 Q295.826 1149.84 298.303 1149.84 Q302.308 1149.84 304.645 1147.73 Q306.983 1145.63 306.983 1142.02 Q306.983 1138.4 304.645 1136.3 Q302.308 1134.19 298.303 1134.19 Q296.428 1134.19 294.553 1134.61 Q292.701 1135.03 290.757 1135.9 L290.757 1118.54 Z" fill="#000000" fill-rule="nonzero" fill-opacity="1" /><path clip-path="url(#clip710)" d="M416.6 1118.54 L434.956 1118.54 L434.956 1122.48 L420.882 1122.48 L420.882 1130.95 Q421.901 1130.6 422.919 1130.44 Q423.938 1130.26 424.956 1130.26 Q430.743 1130.26 434.123 1133.43 Q437.502 1136.6 437.502 1142.02 Q437.502 1147.59 434.03 1150.7 Q430.558 1153.78 424.239 1153.78 Q422.063 1153.78 419.794 1153.4 Q417.549 1153.03 415.141 1152.29 L415.141 1147.59 Q417.225 1148.73 419.447 1149.28 Q421.669 1149.84 424.146 1149.84 Q428.151 1149.84 430.489 1147.73 Q432.827 1145.63 432.827 1142.02 Q432.827 1138.4 430.489 1136.3 Q428.151 1134.19 424.146 1134.19 Q422.271 1134.19 420.396 1134.61 Q418.544 1135.03 416.6 1135.9 L416.6 1118.54 Z" fill="#000000" fill-rule="nonzero" fill-opacity="1" /><path clip-path="url(#clip710)" d="M446.715 1147.22 L451.6 1147.22 L451.6 1153.1 L446.715 1153.1 L446.715 1147.22 Z" fill="#000000" fill-rule="nonzero" fill-opacity="1" /><path clip-path="url(#clip710)" d="M471.785 1121.62 Q468.174 1121.62 466.345 1125.19 Q464.539 1128.73 464.539 1135.86 Q464.539 1142.97 466.345 1146.53 Q468.174 1150.07 471.785 1150.07 Q475.419 1150.07 477.224 1146.53 Q479.053 1142.97 479.053 1135.86 Q479.053 1128.73 477.224 1125.19 Q475.419 1121.62 471.785 1121.62 M471.785 1117.92 Q477.595 1117.92 480.65 1122.53 Q483.729 1127.11 483.729 1135.86 Q483.729 1144.59 480.65 1149.19 Q477.595 1153.78 471.785 1153.78 Q465.975 1153.78 462.896 1149.19 Q459.84 1144.59 459.84 1135.86 Q459.84 1127.11 462.896 1122.53 Q465.975 1117.92 471.785 1117.92 Z" fill="#000000" fill-rule="nonzero" fill-opacity="1" /><path clip-path="url(#clip710)" d="M587.419 1118.54 L609.642 1118.54 L609.642 1120.53 L597.095 1153.1 L592.211 1153.1 L604.017 1122.48 L587.419 1122.48 L587.419 1118.54 Z" fill="#000000" fill-rule="nonzero" fill-opacity="1" /><path clip-path="url(#clip710)" d="M618.762 1147.22 L623.646 1147.22 L623.646 1153.1 L618.762 1153.1 L618.762 1147.22 Z" fill="#000000" fill-rule="nonzero" fill-opacity="1" /><path clip-path="url(#clip710)" d="M633.878 1118.54 L652.234 1118.54 L652.234 1122.48 L638.16 1122.48 L638.16 1130.95 Q639.178 1130.6 640.197 1130.44 Q641.215 1130.26 642.234 1130.26 Q648.021 1130.26 651.401 1133.43 Q654.78 1136.6 654.78 1142.02 Q654.78 1147.59 651.308 1150.7 Q647.836 1153.78 641.516 1153.78 Q639.341 1153.78 637.072 1153.4 Q634.827 1153.03 632.419 1152.29 L632.419 1147.59 Q634.503 1148.73 636.725 1149.28 Q638.947 1149.84 641.424 1149.84 Q645.428 1149.84 647.766 1147.73 Q650.104 1145.63 650.104 1142.02 Q650.104 1138.4 647.766 1136.3 Q645.428 1134.19 641.424 1134.19 Q639.549 1134.19 637.674 1134.61 Q635.822 1135.03 633.878 1135.9 L633.878 1118.54 Z" fill="#000000" fill-rule="nonzero" fill-opacity="1" /><path clip-path="url(#clip710)" d="M744.836 1149.17 L752.475 1149.17 L752.475 1122.8 L744.165 1124.47 L744.165 1120.21 L752.429 1118.54 L757.105 1118.54 L757.105 1149.17 L764.744 1149.17 L764.744 1153.1 L744.836 1153.1 L744.836 1149.17 Z" fill="#000000" fill-rule="nonzero" fill-opacity="1" /><path clip-path="url(#clip710)" d="M784.188 1121.62 Q780.577 1121.62 778.748 1125.19 Q776.943 1128.73 776.943 1135.86 Q776.943 1142.97 778.748 1146.53 Q780.577 1150.07 784.188 1150.07 Q787.822 1150.07 789.628 1146.53 Q791.457 1142.97 791.457 1135.86 Q791.457 1128.73 789.628 1125.19 Q787.822 1121.62 784.188 1121.62 M784.188 1117.92 Q789.998 1117.92 793.054 1122.53 Q796.133 1127.11 796.133 1135.86 Q796.133 1144.59 793.054 1149.19 Q789.998 1153.78 784.188 1153.78 Q778.378 1153.78 775.299 1149.19 Q772.244 1144.59 772.244 1135.86 Q772.244 1127.11 775.299 1122.53 Q778.378 1117.92 784.188 1117.92 Z" fill="#000000" fill-rule="nonzero" fill-opacity="1" /><path clip-path="url(#clip710)" d="M804.35 1147.22 L809.234 1147.22 L809.234 1153.1 L804.35 1153.1 L804.35 1147.22 Z" fill="#000000" fill-rule="nonzero" fill-opacity="1" /><path clip-path="url(#clip710)" d="M829.419 1121.62 Q825.808 1121.62 823.98 1125.19 Q822.174 1128.73 822.174 1135.86 Q822.174 1142.97 823.98 1146.53 Q825.808 1150.07 829.419 1150.07 Q833.054 1150.07 834.859 1146.53 Q836.688 1142.97 836.688 1135.86 Q836.688 1128.73 834.859 1125.19 Q833.054 1121.62 829.419 1121.62 M829.419 1117.92 Q835.23 1117.92 838.285 1122.53 Q841.364 1127.11 841.364 1135.86 Q841.364 1144.59 838.285 1149.19 Q835.23 1153.78 829.419 1153.78 Q823.609 1153.78 820.531 1149.19 Q817.475 1144.59 817.475 1135.86 Q817.475 1127.11 820.531 1122.53 Q823.609 1117.92 829.419 1117.92 Z" fill="#000000" fill-rule="nonzero" fill-opacity="1" /><polyline clip-path="url(#clip710)" style="stroke:#000000; stroke-linecap:round; stroke-linejoin:round; stroke-width:4; stroke-opacity:1; fill:none" points="152.112,1093.9 152.112,717.424 "/>
<polyline clip-path="url(#clip710)" style="stroke:#000000; stroke-linecap:round; stroke-linejoin:round; stroke-width:4; stroke-opacity:1; fill:none" points="152.112,1083.25 171.01,1083.25 "/>
<polyline clip-path="url(#clip710)" style="stroke:#000000; stroke-linecap:round; stroke-linejoin:round; stroke-width:4; stroke-opacity:1; fill:none" points="152.112,1009.26 171.01,1009.26 "/>
<polyline clip-path="url(#clip710)" style="stroke:#000000; stroke-linecap:round; stroke-linejoin:round; stroke-width:4; stroke-opacity:1; fill:none" points="152.112,935.261 171.01,935.261 "/>
<polyline clip-path="url(#clip710)" style="stroke:#000000; stroke-linecap:round; stroke-linejoin:round; stroke-width:4; stroke-opacity:1; fill:none" points="152.112,861.268 171.01,861.268 "/>
<polyline clip-path="url(#clip710)" style="stroke:#000000; stroke-linecap:round; stroke-linejoin:round; stroke-width:4; stroke-opacity:1; fill:none" points="152.112,787.274 171.01,787.274 "/>
<path clip-path="url(#clip710)" d="M64.9365 1069.05 Q61.3254 1069.05 59.4967 1072.61 Q57.6912 1076.15 57.6912 1083.28 Q57.6912 1090.39 59.4967 1093.95 Q61.3254 1097.5 64.9365 1097.5 Q68.5707 1097.5 70.3763 1093.95 Q72.205 1090.39 72.205 1083.28 Q72.205 1076.15 70.3763 1072.61 Q68.5707 1069.05 64.9365 1069.05 M64.9365 1065.34 Q70.7467 1065.34 73.8022 1069.95 Q76.8809 1074.53 76.8809 1083.28 Q76.8809 1092.01 73.8022 1096.62 Q70.7467 1101.2 64.9365 1101.2 Q59.1264 1101.2 56.0477 1096.62 Q52.9921 1092.01 52.9921 1083.28 Q52.9921 1074.53 56.0477 1069.95 Q59.1264 1065.34 64.9365 1065.34 Z" fill="#000000" fill-rule="nonzero" fill-opacity="1" /><path clip-path="url(#clip710)" d="M85.0984 1094.65 L89.9827 1094.65 L89.9827 1100.53 L85.0984 1100.53 L85.0984 1094.65 Z" fill="#000000" fill-rule="nonzero" fill-opacity="1" /><path clip-path="url(#clip710)" d="M110.168 1069.05 Q106.557 1069.05 104.728 1072.61 Q102.922 1076.15 102.922 1083.28 Q102.922 1090.39 104.728 1093.95 Q106.557 1097.5 110.168 1097.5 Q113.802 1097.5 115.608 1093.95 Q117.436 1090.39 117.436 1083.28 Q117.436 1076.15 115.608 1072.61 Q113.802 1069.05 110.168 1069.05 M110.168 1065.34 Q115.978 1065.34 119.033 1069.95 Q122.112 1074.53 122.112 1083.28 Q122.112 1092.01 119.033 1096.62 Q115.978 1101.2 110.168 1101.2 Q104.358 1101.2 101.279 1096.62 Q98.2234 1092.01 98.2234 1083.28 Q98.2234 1074.53 101.279 1069.95 Q104.358 1065.34 110.168 1065.34 Z" fill="#000000" fill-rule="nonzero" fill-opacity="1" /><path clip-path="url(#clip710)" d="M65.9319 995.054 Q62.3208 995.054 60.4921 998.619 Q58.6865 1002.16 58.6865 1009.29 Q58.6865 1016.4 60.4921 1019.96 Q62.3208 1023.5 65.9319 1023.5 Q69.5661 1023.5 71.3717 1019.96 Q73.2004 1016.4 73.2004 1009.29 Q73.2004 1002.16 71.3717 998.619 Q69.5661 995.054 65.9319 995.054 M65.9319 991.35 Q71.742 991.35 74.7976 995.957 Q77.8763 1000.54 77.8763 1009.29 Q77.8763 1018.02 74.7976 1022.62 Q71.742 1027.21 65.9319 1027.21 Q60.1217 1027.21 57.043 1022.62 Q53.9875 1018.02 53.9875 1009.29 Q53.9875 1000.54 57.043 995.957 Q60.1217 991.35 65.9319 991.35 Z" fill="#000000" fill-rule="nonzero" fill-opacity="1" /><path clip-path="url(#clip710)" d="M86.0938 1020.66 L90.978 1020.66 L90.978 1026.54 L86.0938 1026.54 L86.0938 1020.66 Z" fill="#000000" fill-rule="nonzero" fill-opacity="1" /><path clip-path="url(#clip710)" d="M101.209 991.975 L119.566 991.975 L119.566 995.91 L105.492 995.91 L105.492 1004.38 Q106.51 1004.04 107.529 1003.87 Q108.547 1003.69 109.566 1003.69 Q115.353 1003.69 118.733 1006.86 Q122.112 1010.03 122.112 1015.45 Q122.112 1021.03 118.64 1024.13 Q115.168 1027.21 108.848 1027.21 Q106.672 1027.21 104.404 1026.84 Q102.159 1026.47 99.7511 1025.72 L99.7511 1021.03 Q101.834 1022.16 104.057 1022.72 Q106.279 1023.27 108.756 1023.27 Q112.76 1023.27 115.098 1021.16 Q117.436 1019.06 117.436 1015.45 Q117.436 1011.84 115.098 1009.73 Q112.76 1007.62 108.756 1007.62 Q106.881 1007.62 105.006 1008.04 Q103.154 1008.46 101.209 1009.34 L101.209 991.975 Z" fill="#000000" fill-rule="nonzero" fill-opacity="1" /><path clip-path="url(#clip710)" d="M55.7467 948.606 L63.3856 948.606 L63.3856 922.241 L55.0754 923.907 L55.0754 919.648 L63.3393 917.981 L68.0152 917.981 L68.0152 948.606 L75.654 948.606 L75.654 952.541 L55.7467 952.541 L55.7467 948.606 Z" fill="#000000" fill-rule="nonzero" fill-opacity="1" /><path clip-path="url(#clip710)" d="M85.0984 946.662 L89.9827 946.662 L89.9827 952.541 L85.0984 952.541 L85.0984 946.662 Z" fill="#000000" fill-rule="nonzero" fill-opacity="1" /><path clip-path="url(#clip710)" d="M110.168 921.06 Q106.557 921.06 104.728 924.625 Q102.922 928.167 102.922 935.296 Q102.922 942.403 104.728 945.967 Q106.557 949.509 110.168 949.509 Q113.802 949.509 115.608 945.967 Q117.436 942.403 117.436 935.296 Q117.436 928.167 115.608 924.625 Q113.802 921.06 110.168 921.06 M110.168 917.356 Q115.978 917.356 119.033 921.963 Q122.112 926.546 122.112 935.296 Q122.112 944.023 119.033 948.629 Q115.978 953.213 110.168 953.213 Q104.358 953.213 101.279 948.629 Q98.2234 944.023 98.2234 935.296 Q98.2234 926.546 101.279 921.963 Q104.358 917.356 110.168 917.356 Z" fill="#000000" fill-rule="nonzero" fill-opacity="1" /><path clip-path="url(#clip710)" d="M56.7421 874.613 L64.381 874.613 L64.381 848.247 L56.0708 849.914 L56.0708 845.654 L64.3347 843.988 L69.0106 843.988 L69.0106 874.613 L76.6494 874.613 L76.6494 878.548 L56.7421 878.548 L56.7421 874.613 Z" fill="#000000" fill-rule="nonzero" fill-opacity="1" /><path clip-path="url(#clip710)" d="M86.0938 872.668 L90.978 872.668 L90.978 878.548 L86.0938 878.548 L86.0938 872.668 Z" fill="#000000" fill-rule="nonzero" fill-opacity="1" /><path clip-path="url(#clip710)" d="M101.209 843.988 L119.566 843.988 L119.566 847.923 L105.492 847.923 L105.492 856.395 Q106.51 856.048 107.529 855.886 Q108.547 855.701 109.566 855.701 Q115.353 855.701 118.733 858.872 Q122.112 862.043 122.112 867.46 Q122.112 873.039 118.64 876.14 Q115.168 879.219 108.848 879.219 Q106.672 879.219 104.404 878.849 Q102.159 878.478 99.7511 877.738 L99.7511 873.039 Q101.834 874.173 104.057 874.728 Q106.279 875.284 108.756 875.284 Q112.76 875.284 115.098 873.177 Q117.436 871.071 117.436 867.46 Q117.436 863.849 115.098 861.742 Q112.76 859.636 108.756 859.636 Q106.881 859.636 105.006 860.053 Q103.154 860.469 101.209 861.349 L101.209 843.988 Z" fill="#000000" fill-rule="nonzero" fill-opacity="1" /><path clip-path="url(#clip710)" d="M58.9643 800.619 L75.2837 800.619 L75.2837 804.554 L53.3393 804.554 L53.3393 800.619 Q56.0014 797.864 60.5847 793.235 Q65.1911 788.582 66.3717 787.239 Q68.617 784.716 69.4967 782.98 Q70.3994 781.221 70.3994 779.531 Q70.3994 776.777 68.455 775.04 Q66.5337 773.304 63.4319 773.304 Q61.2328 773.304 58.7791 774.068 Q56.3486 774.832 53.5708 776.383 L53.5708 771.661 Q56.3949 770.527 58.8486 769.948 Q61.3023 769.369 63.3393 769.369 Q68.7096 769.369 71.9041 772.054 Q75.0985 774.739 75.0985 779.23 Q75.0985 781.36 74.2883 783.281 Q73.5013 785.179 71.3948 787.772 Q70.8161 788.443 67.7143 791.661 Q64.6124 794.855 58.9643 800.619 Z" fill="#000000" fill-rule="nonzero" fill-opacity="1" /><path clip-path="url(#clip710)" d="M85.0984 798.675 L89.9827 798.675 L89.9827 804.554 L85.0984 804.554 L85.0984 798.675 Z" fill="#000000" fill-rule="nonzero" fill-opacity="1" /><path clip-path="url(#clip710)" d="M110.168 773.073 Q106.557 773.073 104.728 776.638 Q102.922 780.179 102.922 787.309 Q102.922 794.415 104.728 797.98 Q106.557 801.522 110.168 801.522 Q113.802 801.522 115.608 797.98 Q117.436 794.415 117.436 787.309 Q117.436 780.179 115.608 776.638 Q113.802 773.073 110.168 773.073 M110.168 769.369 Q115.978 769.369 119.033 773.976 Q122.112 778.559 122.112 787.309 Q122.112 796.036 119.033 800.642 Q115.978 805.225 110.168 805.225 Q104.358 805.225 101.279 800.642 Q98.2234 796.036 98.2234 787.309 Q98.2234 778.559 101.279 773.976 Q104.358 769.369 110.168 769.369 Z" fill="#000000" fill-rule="nonzero" fill-opacity="1" /><path clip-path="url(#clip710)" d="M322.667 654.671 L322.667 627.206 L330.12 627.206 L330.12 654.387 Q330.12 660.828 332.632 664.069 Q335.144 667.269 340.167 667.269 Q346.202 667.269 349.686 663.421 Q353.211 659.573 353.211 652.929 L353.211 627.206 L360.664 627.206 L360.664 672.576 L353.211 672.576 L353.211 665.608 Q350.496 669.74 346.891 671.766 Q343.326 673.751 338.587 673.751 Q330.769 673.751 326.718 668.89 Q322.667 664.029 322.667 654.671 M341.422 626.112 L341.422 626.112 Z" fill="#000000" fill-rule="nonzero" fill-opacity="1" /><path clip-path="url(#clip710)" d="M410.49 686.349 L410.49 692.142 L367.389 692.142 L367.389 686.349 L410.49 686.349 Z" fill="#000000" fill-rule="nonzero" fill-opacity="1" /><path clip-path="url(#clip710)" d="M446.422 628.543 L446.422 635.591 Q443.262 633.971 439.859 633.161 Q436.457 632.351 432.811 632.351 Q427.261 632.351 424.466 634.052 Q421.711 635.753 421.711 639.156 Q421.711 641.749 423.696 643.247 Q425.681 644.706 431.677 646.043 L434.229 646.61 Q442.168 648.311 445.49 651.43 Q448.852 654.509 448.852 660.059 Q448.852 666.378 443.829 670.064 Q438.847 673.751 430.097 673.751 Q426.451 673.751 422.481 673.022 Q418.552 672.333 414.177 670.915 L414.177 663.218 Q418.309 665.365 422.319 666.459 Q426.329 667.512 430.259 667.512 Q435.525 667.512 438.361 665.73 Q441.196 663.907 441.196 660.626 Q441.196 657.588 439.13 655.967 Q437.105 654.347 430.178 652.848 L427.585 652.24 Q420.658 650.782 417.579 647.784 Q414.501 644.746 414.501 639.48 Q414.501 633.08 419.038 629.596 Q423.575 626.112 431.92 626.112 Q436.052 626.112 439.697 626.72 Q443.343 627.327 446.422 628.543 Z" fill="#000000" fill-rule="nonzero" fill-opacity="1" /><path clip-path="url(#clip710)" d="M467.932 665.77 L467.932 689.833 L460.438 689.833 L460.438 627.206 L467.932 627.206 L467.932 634.092 Q470.282 630.042 473.846 628.097 Q477.452 626.112 482.434 626.112 Q490.698 626.112 495.843 632.675 Q501.028 639.237 501.028 649.931 Q501.028 660.626 495.843 667.188 Q490.698 673.751 482.434 673.751 Q477.452 673.751 473.846 671.806 Q470.282 669.821 467.932 665.77 M493.291 649.931 Q493.291 641.708 489.888 637.05 Q486.526 632.351 480.611 632.351 Q474.697 632.351 471.294 637.05 Q467.932 641.708 467.932 649.931 Q467.932 658.155 471.294 662.854 Q474.697 667.512 480.611 667.512 Q486.526 667.512 489.888 662.854 Q493.291 658.155 493.291 649.931 Z" fill="#000000" fill-rule="nonzero" fill-opacity="1" /><path clip-path="url(#clip710)" d="M530.964 632.432 Q524.969 632.432 521.485 637.131 Q518.001 641.789 518.001 649.931 Q518.001 658.074 521.445 662.773 Q524.928 667.431 530.964 667.431 Q536.919 667.431 540.403 662.732 Q543.887 658.033 543.887 649.931 Q543.887 641.87 540.403 637.171 Q536.919 632.432 530.964 632.432 M530.964 626.112 Q540.686 626.112 546.236 632.432 Q551.786 638.751 551.786 649.931 Q551.786 661.071 546.236 667.431 Q540.686 673.751 530.964 673.751 Q521.202 673.751 515.652 667.431 Q510.143 661.071 510.143 649.931 Q510.143 638.751 515.652 632.432 Q521.202 626.112 530.964 626.112 Z" fill="#000000" fill-rule="nonzero" fill-opacity="1" /><path clip-path="url(#clip710)" d="M571.514 614.324 L571.514 627.206 L586.867 627.206 L586.867 632.999 L571.514 632.999 L571.514 657.628 Q571.514 663.178 573.013 664.758 Q574.552 666.338 579.21 666.338 L586.867 666.338 L586.867 672.576 L579.21 672.576 Q570.582 672.576 567.301 669.376 Q564.02 666.135 564.02 657.628 L564.02 632.999 L558.551 632.999 L558.551 627.206 L564.02 627.206 L564.02 614.324 L571.514 614.324 Z" fill="#000000" fill-rule="nonzero" fill-opacity="1" /><path clip-path="url(#clip710)" d="M631.143 686.349 L631.143 692.142 L588.041 692.142 L588.041 686.349 L631.143 686.349 Z" fill="#000000" fill-rule="nonzero" fill-opacity="1" /><path clip-path="url(#clip710)" d="M670.72 649.931 Q670.72 641.708 667.318 637.05 Q663.955 632.351 658.041 632.351 Q652.127 632.351 648.724 637.05 Q645.362 641.708 645.362 649.931 Q645.362 658.155 648.724 662.854 Q652.127 667.512 658.041 667.512 Q663.955 667.512 667.318 662.854 Q670.72 658.155 670.72 649.931 M645.362 634.092 Q647.711 630.042 651.276 628.097 Q654.881 626.112 659.864 626.112 Q668.128 626.112 673.272 632.675 Q678.458 639.237 678.458 649.931 Q678.458 660.626 673.272 667.188 Q668.128 673.751 659.864 673.751 Q654.881 673.751 651.276 671.806 Q647.711 669.821 645.362 665.77 L645.362 672.576 L637.868 672.576 L637.868 609.544 L645.362 609.544 L645.362 634.092 Z" fill="#000000" fill-rule="nonzero" fill-opacity="1" /><path clip-path="url(#clip710)" d="M690.043 654.671 L690.043 627.206 L697.497 627.206 L697.497 654.387 Q697.497 660.828 700.008 664.069 Q702.52 667.269 707.543 667.269 Q713.579 667.269 717.063 663.421 Q720.587 659.573 720.587 652.929 L720.587 627.206 L728.041 627.206 L728.041 672.576 L720.587 672.576 L720.587 665.608 Q717.873 669.74 714.268 671.766 Q710.703 673.751 705.963 673.751 Q698.145 673.751 694.094 668.89 Q690.043 664.029 690.043 654.671 M708.799 626.112 L708.799 626.112 Z" fill="#000000" fill-rule="nonzero" fill-opacity="1" /><path clip-path="url(#clip710)" d="M762.271 676.789 Q759.111 684.891 756.113 687.362 Q753.116 689.833 748.093 689.833 L742.138 689.833 L742.138 683.594 L746.513 683.594 Q749.592 683.594 751.293 682.136 Q752.994 680.678 755.06 675.25 L756.397 671.847 L738.046 627.206 L745.946 627.206 L760.124 662.692 L774.302 627.206 L782.201 627.206 L762.271 676.789 Z" fill="#000000" fill-rule="nonzero" fill-opacity="1" /><path clip-path="url(#clip714)" d="M174.772 1083.25 L243.438 1083.25 L312.104 1083.25 L380.769 1083.25 L449.435 1083.25 L518.101 1083.25 L586.767 1083.25 L655.433 1083.25 L724.099 1083.25 L792.764 1083.25 L861.43 1083.25 L930.096 1083.25 L930.096 1079.06 L861.43 1079.02 L792.764 1071.78 L724.099 1036.16 L655.433 1073.14 L586.767 1041.46 L518.101 728.079 L449.435 1050.51 L380.769 1083.25 L312.104 1083.25 L243.438 1083.25 L174.772 1083.25  Z" fill="#00467f" fill-rule="evenodd" fill-opacity="0.2"/>
<polyline clip-path="url(#clip714)" style="stroke:#00467f; stroke-linecap:round; stroke-linejoin:round; stroke-width:4; stroke-opacity:0; fill:none" points="174.772,1083.25 243.438,1083.25 312.104,1083.25 380.769,1083.25 449.435,1066.88 518.101,905.664 586.767,1062.36 655.433,1078.2 724.099,1059.7 792.764,1077.52 861.43,1081.13 930.096,1081.15 "/>
<path clip-path="url(#clip714)" d="M174.772 1083.25 L243.438 1083.25 L312.104 1083.25 L380.769 1083.25 L449.435 1083.25 L518.101 1083.25 L586.767 1083.25 L655.433 1083.25 L724.099 1083.25 L792.764 1083.25 L861.43 1083.25 L930.096 1083.25 L930.096 1083.25 L861.43 1083.25 L792.764 1083.25 L724.099 1083.25 L655.433 1083.25 L586.767 1083.25 L518.101 1083.25 L449.435 1083.25 L380.769 1083.25 L312.104 1083.25 L243.438 1083.25 L174.772 1083.25  Z" fill="#00467f" fill-rule="evenodd" fill-opacity="0.2"/>
<polyline clip-path="url(#clip714)" style="stroke:#00467f; stroke-linecap:round; stroke-linejoin:round; stroke-width:4; stroke-opacity:0; fill:none" points="174.772,1083.25 243.438,1083.25 312.104,1083.25 380.769,1083.25 449.435,1083.25 518.101,1083.25 586.767,1083.25 655.433,1083.25 724.099,1083.25 792.764,1083.25 861.43,1083.25 930.096,1083.25 "/>
<path clip-path="url(#clip714)" d="M174.772 1083.25 L243.438 1083.25 L312.104 1083.25 L380.769 1083.25 L449.435 1083.25 L518.101 1083.25 L586.767 1083.25 L655.433 1083.25 L724.099 1083.25 L792.764 1083.25 L861.43 1083.25 L930.096 1083.25 L930.096 1083.25 L861.43 1083.25 L792.764 1083.25 L724.099 1083.25 L655.433 1083.25 L586.767 1083.25 L518.101 1083.25 L449.435 1083.25 L380.769 1083.25 L312.104 1083.25 L243.438 1083.25 L174.772 1083.25  Z" fill="#00467f" fill-rule="evenodd" fill-opacity="0.2"/>
<polyline clip-path="url(#clip714)" style="stroke:#00467f; stroke-linecap:round; stroke-linejoin:round; stroke-width:4; stroke-opacity:0; fill:none" points="174.772,1083.25 243.438,1083.25 312.104,1083.25 380.769,1083.25 449.435,1083.25 518.101,1083.25 586.767,1083.25 655.433,1083.25 724.099,1083.25 792.764,1083.25 861.43,1083.25 930.096,1083.25 "/>
<polyline clip-path="url(#clip714)" style="stroke:#00467f; stroke-linecap:round; stroke-linejoin:round; stroke-width:4; stroke-opacity:1; fill:none" points="174.772,1083.25 243.438,1083.25 312.104,1083.25 380.769,1083.25 449.435,1083.25 518.101,1083.25 586.767,1083.25 655.433,1083.25 724.099,1083.25 792.764,1083.25 861.43,1083.25 930.096,1083.25 "/>
<path clip-path="url(#clip710)" d="M1152.11 1093.9 L1952.76 1093.9 L1952.76 717.424 L1152.11 717.424  Z" fill="#ffffff" fill-rule="evenodd" fill-opacity="1"/>
<defs>
  <clipPath id="clip715">
    <rect x="1152" y="717" width="802" height="377"/>
  </clipPath>
</defs>
<polyline clip-path="url(#clip715)" style="stroke:#000000; stroke-linecap:round; stroke-linejoin:round; stroke-width:2; stroke-opacity:0.1; fill:none" points="1277.77,1093.9 1277.77,717.424 "/>
<polyline clip-path="url(#clip715)" style="stroke:#000000; stroke-linecap:round; stroke-linejoin:round; stroke-width:2; stroke-opacity:0.1; fill:none" points="1449.44,1093.9 1449.44,717.424 "/>
<polyline clip-path="url(#clip715)" style="stroke:#000000; stroke-linecap:round; stroke-linejoin:round; stroke-width:2; stroke-opacity:0.1; fill:none" points="1621.1,1093.9 1621.1,717.424 "/>
<polyline clip-path="url(#clip715)" style="stroke:#000000; stroke-linecap:round; stroke-linejoin:round; stroke-width:2; stroke-opacity:0.1; fill:none" points="1792.76,1093.9 1792.76,717.424 "/>
<polyline clip-path="url(#clip715)" style="stroke:#000000; stroke-linecap:round; stroke-linejoin:round; stroke-width:2; stroke-opacity:0.1; fill:none" points="1152.11,1083.25 1952.76,1083.25 "/>
<polyline clip-path="url(#clip715)" style="stroke:#000000; stroke-linecap:round; stroke-linejoin:round; stroke-width:2; stroke-opacity:0.1; fill:none" points="1152.11,1009.26 1952.76,1009.26 "/>
<polyline clip-path="url(#clip715)" style="stroke:#000000; stroke-linecap:round; stroke-linejoin:round; stroke-width:2; stroke-opacity:0.1; fill:none" points="1152.11,935.261 1952.76,935.261 "/>
<polyline clip-path="url(#clip715)" style="stroke:#000000; stroke-linecap:round; stroke-linejoin:round; stroke-width:2; stroke-opacity:0.1; fill:none" points="1152.11,861.268 1952.76,861.268 "/>
<polyline clip-path="url(#clip715)" style="stroke:#000000; stroke-linecap:round; stroke-linejoin:round; stroke-width:2; stroke-opacity:0.1; fill:none" points="1152.11,787.274 1952.76,787.274 "/>
<polyline clip-path="url(#clip710)" style="stroke:#000000; stroke-linecap:round; stroke-linejoin:round; stroke-width:4; stroke-opacity:1; fill:none" points="1152.11,1093.9 1952.76,1093.9 "/>
<polyline clip-path="url(#clip710)" style="stroke:#000000; stroke-linecap:round; stroke-linejoin:round; stroke-width:4; stroke-opacity:1; fill:none" points="1277.77,1093.9 1277.77,1075.01 "/>
<polyline clip-path="url(#clip710)" style="stroke:#000000; stroke-linecap:round; stroke-linejoin:round; stroke-width:4; stroke-opacity:1; fill:none" points="1449.44,1093.9 1449.44,1075.01 "/>
<polyline clip-path="url(#clip710)" style="stroke:#000000; stroke-linecap:round; stroke-linejoin:round; stroke-width:4; stroke-opacity:1; fill:none" points="1621.1,1093.9 1621.1,1075.01 "/>
<polyline clip-path="url(#clip710)" style="stroke:#000000; stroke-linecap:round; stroke-linejoin:round; stroke-width:4; stroke-opacity:1; fill:none" points="1792.76,1093.9 1792.76,1075.01 "/>
<path clip-path="url(#clip710)" d="M1249.51 1149.17 L1265.83 1149.17 L1265.83 1153.1 L1243.88 1153.1 L1243.88 1149.17 Q1246.54 1146.41 1251.13 1141.78 Q1255.73 1137.13 1256.91 1135.79 Q1259.16 1133.27 1260.04 1131.53 Q1260.94 1129.77 1260.94 1128.08 Q1260.94 1125.33 1259 1123.59 Q1257.08 1121.85 1253.97 1121.85 Q1251.78 1121.85 1249.32 1122.62 Q1246.89 1123.38 1244.11 1124.93 L1244.11 1120.21 Q1246.94 1119.08 1249.39 1118.5 Q1251.84 1117.92 1253.88 1117.92 Q1259.25 1117.92 1262.45 1120.6 Q1265.64 1123.29 1265.64 1127.78 Q1265.64 1129.91 1264.83 1131.83 Q1264.04 1133.73 1261.94 1136.32 Q1261.36 1136.99 1258.26 1140.21 Q1255.16 1143.4 1249.51 1149.17 Z" fill="#000000" fill-rule="nonzero" fill-opacity="1" /><path clip-path="url(#clip710)" d="M1275.64 1147.22 L1280.53 1147.22 L1280.53 1153.1 L1275.64 1153.1 L1275.64 1147.22 Z" fill="#000000" fill-rule="nonzero" fill-opacity="1" /><path clip-path="url(#clip710)" d="M1290.76 1118.54 L1309.11 1118.54 L1309.11 1122.48 L1295.04 1122.48 L1295.04 1130.95 Q1296.06 1130.6 1297.08 1130.44 Q1298.09 1130.26 1299.11 1130.26 Q1304.9 1130.26 1308.28 1133.43 Q1311.66 1136.6 1311.66 1142.02 Q1311.66 1147.59 1308.19 1150.7 Q1304.71 1153.78 1298.4 1153.78 Q1296.22 1153.78 1293.95 1153.4 Q1291.71 1153.03 1289.3 1152.29 L1289.3 1147.59 Q1291.38 1148.73 1293.6 1149.28 Q1295.83 1149.84 1298.3 1149.84 Q1302.31 1149.84 1304.65 1147.73 Q1306.98 1145.63 1306.98 1142.02 Q1306.98 1138.4 1304.65 1136.3 Q1302.31 1134.19 1298.3 1134.19 Q1296.43 1134.19 1294.55 1134.61 Q1292.7 1135.03 1290.76 1135.9 L1290.76 1118.54 Z" fill="#000000" fill-rule="nonzero" fill-opacity="1" /><path clip-path="url(#clip710)" d="M1416.6 1118.54 L1434.96 1118.54 L1434.96 1122.48 L1420.88 1122.48 L1420.88 1130.95 Q1421.9 1130.6 1422.92 1130.44 Q1423.94 1130.26 1424.96 1130.26 Q1430.74 1130.26 1434.12 1133.43 Q1437.5 1136.6 1437.5 1142.02 Q1437.5 1147.59 1434.03 1150.7 Q1430.56 1153.78 1424.24 1153.78 Q1422.06 1153.78 1419.79 1153.4 Q1417.55 1153.03 1415.14 1152.29 L1415.14 1147.59 Q1417.22 1148.73 1419.45 1149.28 Q1421.67 1149.84 1424.15 1149.84 Q1428.15 1149.84 1430.49 1147.73 Q1432.83 1145.63 1432.83 1142.02 Q1432.83 1138.4 1430.49 1136.3 Q1428.15 1134.19 1424.15 1134.19 Q1422.27 1134.19 1420.4 1134.61 Q1418.54 1135.03 1416.6 1135.9 L1416.6 1118.54 Z" fill="#000000" fill-rule="nonzero" fill-opacity="1" /><path clip-path="url(#clip710)" d="M1446.72 1147.22 L1451.6 1147.22 L1451.6 1153.1 L1446.72 1153.1 L1446.72 1147.22 Z" fill="#000000" fill-rule="nonzero" fill-opacity="1" /><path clip-path="url(#clip710)" d="M1471.78 1121.62 Q1468.17 1121.62 1466.34 1125.19 Q1464.54 1128.73 1464.54 1135.86 Q1464.54 1142.97 1466.34 1146.53 Q1468.17 1150.07 1471.78 1150.07 Q1475.42 1150.07 1477.22 1146.53 Q1479.05 1142.97 1479.05 1135.86 Q1479.05 1128.73 1477.22 1125.19 Q1475.42 1121.62 1471.78 1121.62 M1471.78 1117.92 Q1477.59 1117.92 1480.65 1122.53 Q1483.73 1127.11 1483.73 1135.86 Q1483.73 1144.59 1480.65 1149.19 Q1477.59 1153.78 1471.78 1153.78 Q1465.97 1153.78 1462.9 1149.19 Q1459.84 1144.59 1459.84 1135.86 Q1459.84 1127.11 1462.9 1122.53 Q1465.97 1117.92 1471.78 1117.92 Z" fill="#000000" fill-rule="nonzero" fill-opacity="1" /><path clip-path="url(#clip710)" d="M1587.42 1118.54 L1609.64 1118.54 L1609.64 1120.53 L1597.1 1153.1 L1592.21 1153.1 L1604.02 1122.48 L1587.42 1122.48 L1587.42 1118.54 Z" fill="#000000" fill-rule="nonzero" fill-opacity="1" /><path clip-path="url(#clip710)" d="M1618.76 1147.22 L1623.65 1147.22 L1623.65 1153.1 L1618.76 1153.1 L1618.76 1147.22 Z" fill="#000000" fill-rule="nonzero" fill-opacity="1" /><path clip-path="url(#clip710)" d="M1633.88 1118.54 L1652.23 1118.54 L1652.23 1122.48 L1638.16 1122.48 L1638.16 1130.95 Q1639.18 1130.6 1640.2 1130.44 Q1641.22 1130.26 1642.23 1130.26 Q1648.02 1130.26 1651.4 1133.43 Q1654.78 1136.6 1654.78 1142.02 Q1654.78 1147.59 1651.31 1150.7 Q1647.84 1153.78 1641.52 1153.78 Q1639.34 1153.78 1637.07 1153.4 Q1634.83 1153.03 1632.42 1152.29 L1632.42 1147.59 Q1634.5 1148.73 1636.72 1149.28 Q1638.95 1149.84 1641.42 1149.84 Q1645.43 1149.84 1647.77 1147.73 Q1650.1 1145.63 1650.1 1142.02 Q1650.1 1138.4 1647.77 1136.3 Q1645.43 1134.19 1641.42 1134.19 Q1639.55 1134.19 1637.67 1134.61 Q1635.82 1135.03 1633.88 1135.9 L1633.88 1118.54 Z" fill="#000000" fill-rule="nonzero" fill-opacity="1" /><path clip-path="url(#clip710)" d="M1744.84 1149.17 L1752.48 1149.17 L1752.48 1122.8 L1744.17 1124.47 L1744.17 1120.21 L1752.43 1118.54 L1757.1 1118.54 L1757.1 1149.17 L1764.74 1149.17 L1764.74 1153.1 L1744.84 1153.1 L1744.84 1149.17 Z" fill="#000000" fill-rule="nonzero" fill-opacity="1" /><path clip-path="url(#clip710)" d="M1784.19 1121.62 Q1780.58 1121.62 1778.75 1125.19 Q1776.94 1128.73 1776.94 1135.86 Q1776.94 1142.97 1778.75 1146.53 Q1780.58 1150.07 1784.19 1150.07 Q1787.82 1150.07 1789.63 1146.53 Q1791.46 1142.97 1791.46 1135.86 Q1791.46 1128.73 1789.63 1125.19 Q1787.82 1121.62 1784.19 1121.62 M1784.19 1117.92 Q1790 1117.92 1793.05 1122.53 Q1796.13 1127.11 1796.13 1135.86 Q1796.13 1144.59 1793.05 1149.19 Q1790 1153.78 1784.19 1153.78 Q1778.38 1153.78 1775.3 1149.19 Q1772.24 1144.59 1772.24 1135.86 Q1772.24 1127.11 1775.3 1122.53 Q1778.38 1117.92 1784.19 1117.92 Z" fill="#000000" fill-rule="nonzero" fill-opacity="1" /><path clip-path="url(#clip710)" d="M1804.35 1147.22 L1809.23 1147.22 L1809.23 1153.1 L1804.35 1153.1 L1804.35 1147.22 Z" fill="#000000" fill-rule="nonzero" fill-opacity="1" /><path clip-path="url(#clip710)" d="M1829.42 1121.62 Q1825.81 1121.62 1823.98 1125.19 Q1822.17 1128.73 1822.17 1135.86 Q1822.17 1142.97 1823.98 1146.53 Q1825.81 1150.07 1829.42 1150.07 Q1833.05 1150.07 1834.86 1146.53 Q1836.69 1142.97 1836.69 1135.86 Q1836.69 1128.73 1834.86 1125.19 Q1833.05 1121.62 1829.42 1121.62 M1829.42 1117.92 Q1835.23 1117.92 1838.29 1122.53 Q1841.36 1127.11 1841.36 1135.86 Q1841.36 1144.59 1838.29 1149.19 Q1835.23 1153.78 1829.42 1153.78 Q1823.61 1153.78 1820.53 1149.19 Q1817.47 1144.59 1817.47 1135.86 Q1817.47 1127.11 1820.53 1122.53 Q1823.61 1117.92 1829.42 1117.92 Z" fill="#000000" fill-rule="nonzero" fill-opacity="1" /><polyline clip-path="url(#clip710)" style="stroke:#000000; stroke-linecap:round; stroke-linejoin:round; stroke-width:4; stroke-opacity:1; fill:none" points="1152.11,1093.9 1152.11,717.424 "/>
<polyline clip-path="url(#clip710)" style="stroke:#000000; stroke-linecap:round; stroke-linejoin:round; stroke-width:4; stroke-opacity:1; fill:none" points="1152.11,1083.25 1171.01,1083.25 "/>
<polyline clip-path="url(#clip710)" style="stroke:#000000; stroke-linecap:round; stroke-linejoin:round; stroke-width:4; stroke-opacity:1; fill:none" points="1152.11,1009.26 1171.01,1009.26 "/>
<polyline clip-path="url(#clip710)" style="stroke:#000000; stroke-linecap:round; stroke-linejoin:round; stroke-width:4; stroke-opacity:1; fill:none" points="1152.11,935.261 1171.01,935.261 "/>
<polyline clip-path="url(#clip710)" style="stroke:#000000; stroke-linecap:round; stroke-linejoin:round; stroke-width:4; stroke-opacity:1; fill:none" points="1152.11,861.268 1171.01,861.268 "/>
<polyline clip-path="url(#clip710)" style="stroke:#000000; stroke-linecap:round; stroke-linejoin:round; stroke-width:4; stroke-opacity:1; fill:none" points="1152.11,787.274 1171.01,787.274 "/>
<path clip-path="url(#clip710)" d="M1064.94 1069.05 Q1061.33 1069.05 1059.5 1072.61 Q1057.69 1076.15 1057.69 1083.28 Q1057.69 1090.39 1059.5 1093.95 Q1061.33 1097.5 1064.94 1097.5 Q1068.57 1097.5 1070.38 1093.95 Q1072.2 1090.39 1072.2 1083.28 Q1072.2 1076.15 1070.38 1072.61 Q1068.57 1069.05 1064.94 1069.05 M1064.94 1065.34 Q1070.75 1065.34 1073.8 1069.95 Q1076.88 1074.53 1076.88 1083.28 Q1076.88 1092.01 1073.8 1096.62 Q1070.75 1101.2 1064.94 1101.2 Q1059.13 1101.2 1056.05 1096.62 Q1052.99 1092.01 1052.99 1083.28 Q1052.99 1074.53 1056.05 1069.95 Q1059.13 1065.34 1064.94 1065.34 Z" fill="#000000" fill-rule="nonzero" fill-opacity="1" /><path clip-path="url(#clip710)" d="M1085.1 1094.65 L1089.98 1094.65 L1089.98 1100.53 L1085.1 1100.53 L1085.1 1094.65 Z" fill="#000000" fill-rule="nonzero" fill-opacity="1" /><path clip-path="url(#clip710)" d="M1110.17 1069.05 Q1106.56 1069.05 1104.73 1072.61 Q1102.92 1076.15 1102.92 1083.28 Q1102.92 1090.39 1104.73 1093.95 Q1106.56 1097.5 1110.17 1097.5 Q1113.8 1097.5 1115.61 1093.95 Q1117.44 1090.39 1117.44 1083.28 Q1117.44 1076.15 1115.61 1072.61 Q1113.8 1069.05 1110.17 1069.05 M1110.17 1065.34 Q1115.98 1065.34 1119.03 1069.95 Q1122.11 1074.53 1122.11 1083.28 Q1122.11 1092.01 1119.03 1096.62 Q1115.98 1101.2 1110.17 1101.2 Q1104.36 1101.2 1101.28 1096.62 Q1098.22 1092.01 1098.22 1083.28 Q1098.22 1074.53 1101.28 1069.95 Q1104.36 1065.34 1110.17 1065.34 Z" fill="#000000" fill-rule="nonzero" fill-opacity="1" /><path clip-path="url(#clip710)" d="M1065.93 995.054 Q1062.32 995.054 1060.49 998.619 Q1058.69 1002.16 1058.69 1009.29 Q1058.69 1016.4 1060.49 1019.96 Q1062.32 1023.5 1065.93 1023.5 Q1069.57 1023.5 1071.37 1019.96 Q1073.2 1016.4 1073.2 1009.29 Q1073.2 1002.16 1071.37 998.619 Q1069.57 995.054 1065.93 995.054 M1065.93 991.35 Q1071.74 991.35 1074.8 995.957 Q1077.88 1000.54 1077.88 1009.29 Q1077.88 1018.02 1074.8 1022.62 Q1071.74 1027.21 1065.93 1027.21 Q1060.12 1027.21 1057.04 1022.62 Q1053.99 1018.02 1053.99 1009.29 Q1053.99 1000.54 1057.04 995.957 Q1060.12 991.35 1065.93 991.35 Z" fill="#000000" fill-rule="nonzero" fill-opacity="1" /><path clip-path="url(#clip710)" d="M1086.09 1020.66 L1090.98 1020.66 L1090.98 1026.54 L1086.09 1026.54 L1086.09 1020.66 Z" fill="#000000" fill-rule="nonzero" fill-opacity="1" /><path clip-path="url(#clip710)" d="M1101.21 991.975 L1119.57 991.975 L1119.57 995.91 L1105.49 995.91 L1105.49 1004.38 Q1106.51 1004.04 1107.53 1003.87 Q1108.55 1003.69 1109.57 1003.69 Q1115.35 1003.69 1118.73 1006.86 Q1122.11 1010.03 1122.11 1015.45 Q1122.11 1021.03 1118.64 1024.13 Q1115.17 1027.21 1108.85 1027.21 Q1106.67 1027.21 1104.4 1026.84 Q1102.16 1026.47 1099.75 1025.72 L1099.75 1021.03 Q1101.83 1022.16 1104.06 1022.72 Q1106.28 1023.27 1108.76 1023.27 Q1112.76 1023.27 1115.1 1021.16 Q1117.44 1019.06 1117.44 1015.45 Q1117.44 1011.84 1115.1 1009.73 Q1112.76 1007.62 1108.76 1007.62 Q1106.88 1007.62 1105.01 1008.04 Q1103.15 1008.46 1101.21 1009.34 L1101.21 991.975 Z" fill="#000000" fill-rule="nonzero" fill-opacity="1" /><path clip-path="url(#clip710)" d="M1055.75 948.606 L1063.39 948.606 L1063.39 922.241 L1055.08 923.907 L1055.08 919.648 L1063.34 917.981 L1068.02 917.981 L1068.02 948.606 L1075.65 948.606 L1075.65 952.541 L1055.75 952.541 L1055.75 948.606 Z" fill="#000000" fill-rule="nonzero" fill-opacity="1" /><path clip-path="url(#clip710)" d="M1085.1 946.662 L1089.98 946.662 L1089.98 952.541 L1085.1 952.541 L1085.1 946.662 Z" fill="#000000" fill-rule="nonzero" fill-opacity="1" /><path clip-path="url(#clip710)" d="M1110.17 921.06 Q1106.56 921.06 1104.73 924.625 Q1102.92 928.167 1102.92 935.296 Q1102.92 942.403 1104.73 945.967 Q1106.56 949.509 1110.17 949.509 Q1113.8 949.509 1115.61 945.967 Q1117.44 942.403 1117.44 935.296 Q1117.44 928.167 1115.61 924.625 Q1113.8 921.06 1110.17 921.06 M1110.17 917.356 Q1115.98 917.356 1119.03 921.963 Q1122.11 926.546 1122.11 935.296 Q1122.11 944.023 1119.03 948.629 Q1115.98 953.213 1110.17 953.213 Q1104.36 953.213 1101.28 948.629 Q1098.22 944.023 1098.22 935.296 Q1098.22 926.546 1101.28 921.963 Q1104.36 917.356 1110.17 917.356 Z" fill="#000000" fill-rule="nonzero" fill-opacity="1" /><path clip-path="url(#clip710)" d="M1056.74 874.613 L1064.38 874.613 L1064.38 848.247 L1056.07 849.914 L1056.07 845.654 L1064.33 843.988 L1069.01 843.988 L1069.01 874.613 L1076.65 874.613 L1076.65 878.548 L1056.74 878.548 L1056.74 874.613 Z" fill="#000000" fill-rule="nonzero" fill-opacity="1" /><path clip-path="url(#clip710)" d="M1086.09 872.668 L1090.98 872.668 L1090.98 878.548 L1086.09 878.548 L1086.09 872.668 Z" fill="#000000" fill-rule="nonzero" fill-opacity="1" /><path clip-path="url(#clip710)" d="M1101.21 843.988 L1119.57 843.988 L1119.57 847.923 L1105.49 847.923 L1105.49 856.395 Q1106.51 856.048 1107.53 855.886 Q1108.55 855.701 1109.57 855.701 Q1115.35 855.701 1118.73 858.872 Q1122.11 862.043 1122.11 867.46 Q1122.11 873.039 1118.64 876.14 Q1115.17 879.219 1108.85 879.219 Q1106.67 879.219 1104.4 878.849 Q1102.16 878.478 1099.75 877.738 L1099.75 873.039 Q1101.83 874.173 1104.06 874.728 Q1106.28 875.284 1108.76 875.284 Q1112.76 875.284 1115.1 873.177 Q1117.44 871.071 1117.44 867.46 Q1117.44 863.849 1115.1 861.742 Q1112.76 859.636 1108.76 859.636 Q1106.88 859.636 1105.01 860.053 Q1103.15 860.469 1101.21 861.349 L1101.21 843.988 Z" fill="#000000" fill-rule="nonzero" fill-opacity="1" /><path clip-path="url(#clip710)" d="M1058.96 800.619 L1075.28 800.619 L1075.28 804.554 L1053.34 804.554 L1053.34 800.619 Q1056 797.864 1060.58 793.235 Q1065.19 788.582 1066.37 787.239 Q1068.62 784.716 1069.5 782.98 Q1070.4 781.221 1070.4 779.531 Q1070.4 776.777 1068.46 775.04 Q1066.53 773.304 1063.43 773.304 Q1061.23 773.304 1058.78 774.068 Q1056.35 774.832 1053.57 776.383 L1053.57 771.661 Q1056.39 770.527 1058.85 769.948 Q1061.3 769.369 1063.34 769.369 Q1068.71 769.369 1071.9 772.054 Q1075.1 774.739 1075.1 779.23 Q1075.1 781.36 1074.29 783.281 Q1073.5 785.179 1071.39 787.772 Q1070.82 788.443 1067.71 791.661 Q1064.61 794.855 1058.96 800.619 Z" fill="#000000" fill-rule="nonzero" fill-opacity="1" /><path clip-path="url(#clip710)" d="M1085.1 798.675 L1089.98 798.675 L1089.98 804.554 L1085.1 804.554 L1085.1 798.675 Z" fill="#000000" fill-rule="nonzero" fill-opacity="1" /><path clip-path="url(#clip710)" d="M1110.17 773.073 Q1106.56 773.073 1104.73 776.638 Q1102.92 780.179 1102.92 787.309 Q1102.92 794.415 1104.73 797.98 Q1106.56 801.522 1110.17 801.522 Q1113.8 801.522 1115.61 797.98 Q1117.44 794.415 1117.44 787.309 Q1117.44 780.179 1115.61 776.638 Q1113.8 773.073 1110.17 773.073 M1110.17 769.369 Q1115.98 769.369 1119.03 773.976 Q1122.11 778.559 1122.11 787.309 Q1122.11 796.036 1119.03 800.642 Q1115.98 805.225 1110.17 805.225 Q1104.36 805.225 1101.28 800.642 Q1098.22 796.036 1098.22 787.309 Q1098.22 778.559 1101.28 773.976 Q1104.36 769.369 1110.17 769.369 Z" fill="#000000" fill-rule="nonzero" fill-opacity="1" /><path clip-path="url(#clip710)" d="M1332.31 654.671 L1332.31 627.206 L1339.76 627.206 L1339.76 654.387 Q1339.76 660.828 1342.27 664.069 Q1344.78 667.269 1349.81 667.269 Q1355.84 667.269 1359.33 663.421 Q1362.85 659.573 1362.85 652.929 L1362.85 627.206 L1370.31 627.206 L1370.31 672.576 L1362.85 672.576 L1362.85 665.608 Q1360.14 669.74 1356.53 671.766 Q1352.97 673.751 1348.23 673.751 Q1340.41 673.751 1336.36 668.89 Q1332.31 664.029 1332.31 654.671 M1351.06 626.112 L1351.06 626.112 Z" fill="#000000" fill-rule="nonzero" fill-opacity="1" /><path clip-path="url(#clip710)" d="M1420.13 686.349 L1420.13 692.142 L1377.03 692.142 L1377.03 686.349 L1420.13 686.349 Z" fill="#000000" fill-rule="nonzero" fill-opacity="1" /><path clip-path="url(#clip710)" d="M1456.06 628.543 L1456.06 635.591 Q1452.9 633.971 1449.5 633.161 Q1446.1 632.351 1442.45 632.351 Q1436.9 632.351 1434.11 634.052 Q1431.35 635.753 1431.35 639.156 Q1431.35 641.749 1433.34 643.247 Q1435.32 644.706 1441.32 646.043 L1443.87 646.61 Q1451.81 648.311 1455.13 651.43 Q1458.49 654.509 1458.49 660.059 Q1458.49 666.378 1453.47 670.064 Q1448.49 673.751 1439.74 673.751 Q1436.09 673.751 1432.12 673.022 Q1428.19 672.333 1423.82 670.915 L1423.82 663.218 Q1427.95 665.365 1431.96 666.459 Q1435.97 667.512 1439.9 667.512 Q1445.17 667.512 1448 665.73 Q1450.84 663.907 1450.84 660.626 Q1450.84 657.588 1448.77 655.967 Q1446.75 654.347 1439.82 652.848 L1437.23 652.24 Q1430.3 650.782 1427.22 647.784 Q1424.14 644.746 1424.14 639.48 Q1424.14 633.08 1428.68 629.596 Q1433.22 626.112 1441.56 626.112 Q1445.69 626.112 1449.34 626.72 Q1452.98 627.327 1456.06 628.543 Z" fill="#000000" fill-rule="nonzero" fill-opacity="1" /><path clip-path="url(#clip710)" d="M1477.57 665.77 L1477.57 689.833 L1470.08 689.833 L1470.08 627.206 L1477.57 627.206 L1477.57 634.092 Q1479.92 630.042 1483.49 628.097 Q1487.09 626.112 1492.08 626.112 Q1500.34 626.112 1505.48 632.675 Q1510.67 639.237 1510.67 649.931 Q1510.67 660.626 1505.48 667.188 Q1500.34 673.751 1492.08 673.751 Q1487.09 673.751 1483.49 671.806 Q1479.92 669.821 1477.57 665.77 M1502.93 649.931 Q1502.93 641.708 1499.53 637.05 Q1496.17 632.351 1490.25 632.351 Q1484.34 632.351 1480.94 637.05 Q1477.57 641.708 1477.57 649.931 Q1477.57 658.155 1480.94 662.854 Q1484.34 667.512 1490.25 667.512 Q1496.17 667.512 1499.53 662.854 Q1502.93 658.155 1502.93 649.931 Z" fill="#000000" fill-rule="nonzero" fill-opacity="1" /><path clip-path="url(#clip710)" d="M1540.61 632.432 Q1534.61 632.432 1531.13 637.131 Q1527.64 641.789 1527.64 649.931 Q1527.64 658.074 1531.09 662.773 Q1534.57 667.431 1540.61 667.431 Q1546.56 667.431 1550.04 662.732 Q1553.53 658.033 1553.53 649.931 Q1553.53 641.87 1550.04 637.171 Q1546.56 632.432 1540.61 632.432 M1540.61 626.112 Q1550.33 626.112 1555.88 632.432 Q1561.43 638.751 1561.43 649.931 Q1561.43 661.071 1555.88 667.431 Q1550.33 673.751 1540.61 673.751 Q1530.84 673.751 1525.29 667.431 Q1519.78 661.071 1519.78 649.931 Q1519.78 638.751 1525.29 632.432 Q1530.84 626.112 1540.61 626.112 Z" fill="#000000" fill-rule="nonzero" fill-opacity="1" /><path clip-path="url(#clip710)" d="M1581.15 614.324 L1581.15 627.206 L1596.51 627.206 L1596.51 632.999 L1581.15 632.999 L1581.15 657.628 Q1581.15 663.178 1582.65 664.758 Q1584.19 666.338 1588.85 666.338 L1596.51 666.338 L1596.51 672.576 L1588.85 672.576 Q1580.22 672.576 1576.94 669.376 Q1573.66 666.135 1573.66 657.628 L1573.66 632.999 L1568.19 632.999 L1568.19 627.206 L1573.66 627.206 L1573.66 614.324 L1581.15 614.324 Z" fill="#000000" fill-rule="nonzero" fill-opacity="1" /><path clip-path="url(#clip710)" d="M1640.78 686.349 L1640.78 692.142 L1597.68 692.142 L1597.68 686.349 L1640.78 686.349 Z" fill="#000000" fill-rule="nonzero" fill-opacity="1" /><path clip-path="url(#clip710)" d="M1676.72 628.543 L1676.72 635.591 Q1673.56 633.971 1670.15 633.161 Q1666.75 632.351 1663.1 632.351 Q1657.55 632.351 1654.76 634.052 Q1652.01 635.753 1652.01 639.156 Q1652.01 641.749 1653.99 643.247 Q1655.98 644.706 1661.97 646.043 L1664.52 646.61 Q1672.46 648.311 1675.78 651.43 Q1679.15 654.509 1679.15 660.059 Q1679.15 666.378 1674.12 670.064 Q1669.14 673.751 1660.39 673.751 Q1656.74 673.751 1652.77 673.022 Q1648.85 672.333 1644.47 670.915 L1644.47 663.218 Q1648.6 665.365 1652.61 666.459 Q1656.62 667.512 1660.55 667.512 Q1665.82 667.512 1668.65 665.73 Q1671.49 663.907 1671.49 660.626 Q1671.49 657.588 1669.42 655.967 Q1667.4 654.347 1660.47 652.848 L1657.88 652.24 Q1650.95 650.782 1647.87 647.784 Q1644.79 644.746 1644.79 639.48 Q1644.79 633.08 1649.33 629.596 Q1653.87 626.112 1662.21 626.112 Q1666.35 626.112 1669.99 626.72 Q1673.64 627.327 1676.72 628.543 Z" fill="#000000" fill-rule="nonzero" fill-opacity="1" /><path clip-path="url(#clip710)" d="M1729.82 648.028 L1729.82 651.673 L1695.55 651.673 Q1696.04 659.37 1700.17 663.421 Q1704.34 667.431 1711.76 667.431 Q1716.05 667.431 1720.06 666.378 Q1724.11 665.325 1728.08 663.218 L1728.08 670.267 Q1724.07 671.968 1719.86 672.86 Q1715.64 673.751 1711.31 673.751 Q1700.45 673.751 1694.09 667.431 Q1687.77 661.112 1687.77 650.337 Q1687.77 639.197 1693.77 632.675 Q1699.81 626.112 1710.01 626.112 Q1719.17 626.112 1724.48 632.026 Q1729.82 637.9 1729.82 648.028 M1722.37 645.84 Q1722.29 639.723 1718.93 636.077 Q1715.6 632.432 1710.1 632.432 Q1703.86 632.432 1700.09 635.956 Q1696.36 639.48 1695.8 645.881 L1722.37 645.84 Z" fill="#000000" fill-rule="nonzero" fill-opacity="1" /><path clip-path="url(#clip710)" d="M1742.06 609.544 L1749.51 609.544 L1749.51 672.576 L1742.06 672.576 L1742.06 609.544 Z" fill="#000000" fill-rule="nonzero" fill-opacity="1" /><path clip-path="url(#clip710)" d="M1765.11 609.544 L1772.56 609.544 L1772.56 672.576 L1765.11 672.576 L1765.11 609.544 Z" fill="#000000" fill-rule="nonzero" fill-opacity="1" /><path clip-path="url(#clip715)" d="M1174.77 1083.25 L1243.44 1083.25 L1312.1 1083.25 L1380.77 1083.25 L1449.44 1083.25 L1518.1 1083.25 L1586.77 1083.25 L1655.43 1083.25 L1724.1 1083.25 L1792.76 1083.25 L1861.43 1083.25 L1930.1 1083.25 L1930.1 731.779 L1861.43 728.079 L1792.76 835.37 L1724.1 1055.39 L1655.43 1083.25 L1586.77 1083.25 L1518.1 1083.25 L1449.44 1083.25 L1380.77 1083.25 L1312.1 1083.25 L1243.44 1083.25 L1174.77 1083.25  Z" fill="#00467f" fill-rule="evenodd" fill-opacity="0.2"/>
<polyline clip-path="url(#clip715)" style="stroke:#00467f; stroke-linecap:round; stroke-linejoin:round; stroke-width:4; stroke-opacity:0; fill:none" points="1174.77,1083.25 1243.44,1083.25 1312.1,1083.25 1380.77,1083.25 1449.44,1083.25 1518.1,1083.25 1586.77,1083.25 1655.43,1083.25 1724.1,1069.32 1792.76,959.309 1861.43,905.664 1930.1,907.514 "/>
<path clip-path="url(#clip715)" d="M1174.77 1083.25 L1243.44 1083.25 L1312.1 1083.25 L1380.77 1083.25 L1449.44 1083.25 L1518.1 1083.25 L1586.77 1083.25 L1655.43 1083.25 L1724.1 1083.25 L1792.76 1083.25 L1861.43 1083.25 L1930.1 1083.25 L1930.1 1035.14 L1861.43 1062.53 L1792.76 1068.45 L1724.1 1075.76 L1655.43 1083.25 L1586.77 1083.25 L1518.1 1083.25 L1449.44 1083.25 L1380.77 1083.25 L1312.1 1083.25 L1243.44 1083.25 L1174.77 1083.25  Z" fill="#00467f" fill-rule="evenodd" fill-opacity="0.2"/>
<polyline clip-path="url(#clip715)" style="stroke:#00467f; stroke-linecap:round; stroke-linejoin:round; stroke-width:4; stroke-opacity:0; fill:none" points="1174.77,1083.25 1243.44,1083.25 1312.1,1083.25 1380.77,1083.25 1449.44,1083.25 1518.1,1083.25 1586.77,1083.25 1655.43,1083.25 1724.1,1079.5 1792.76,1075.85 1861.43,1072.89 1930.1,1059.19 "/>
<path clip-path="url(#clip715)" d="M1174.77 1083.25 L1243.44 1083.25 L1312.1 1083.25 L1380.77 1083.25 L1449.44 1083.25 L1518.1 1083.25 L1586.77 1083.25 L1655.43 1083.25 L1724.1 1083.25 L1792.76 1083.25 L1861.43 1083.25 L1930.1 1079.55 L1930.1 1060.27 L1861.43 1072.15 L1792.76 1075.85 L1724.1 1082.82 L1655.43 1083.25 L1586.77 1083.25 L1518.1 1083.25 L1449.44 1083.25 L1380.77 1083.25 L1312.1 1083.25 L1243.44 1083.25 L1174.77 1083.25  Z" fill="#00467f" fill-rule="evenodd" fill-opacity="0.2"/>
<polyline clip-path="url(#clip715)" style="stroke:#00467f; stroke-linecap:round; stroke-linejoin:round; stroke-width:4; stroke-opacity:0; fill:none" points="1174.77,1083.25 1243.44,1083.25 1312.1,1083.25 1380.77,1083.25 1449.44,1083.25 1518.1,1083.25 1586.77,1083.25 1655.43,1083.25 1724.1,1083.03 1792.76,1079.55 1861.43,1077.7 1930.1,1069.91 "/>
<polyline clip-path="url(#clip715)" style="stroke:#00467f; stroke-linecap:round; stroke-linejoin:round; stroke-width:4; stroke-opacity:1; fill:none" points="1174.77,1083.25 1243.44,1083.25 1312.1,1083.25 1380.77,1083.25 1449.44,1083.25 1518.1,1083.25 1586.77,1083.25 1655.43,1083.25 1724.1,1083.25 1792.76,1083.25 1861.43,1083.25 1930.1,1070.15 "/>
</svg>
