<?xml version="1.0" encoding="utf-8"?>
<svg xmlns="http://www.w3.org/2000/svg" xmlns:xlink="http://www.w3.org/1999/xlink" width="600" height="400" viewBox="0 0 2400 1600">
<defs>
  <clipPath id="clip230">
    <rect x="0" y="0" width="2400" height="1600"/>
  </clipPath>
</defs>
<path clip-path="url(#clip230)" d="M0 1600 L2400 1600 L2400 0 L0 0  Z" fill="#ffffff" fill-rule="evenodd" fill-opacity="1"/>
<defs>
  <clipPath id="clip231">
    <rect x="480" y="0" width="1681" height="1600"/>
  </clipPath>
</defs>
<path clip-path="url(#clip230)" d="M140.696 1423.18 L2352.76 1423.18 L2352.76 47.2441 L140.696 47.2441  Z" fill="#ffffff" fill-rule="evenodd" fill-opacity="1"/>
<defs>
  <clipPath id="clip232">
    <rect x="140" y="47" width="2213" height="1377"/>
  </clipPath>
</defs>
<polyline clip-path="url(#clip232)" style="stroke:#000000; stroke-linecap:round; stroke-linejoin:round; stroke-width:2; stroke-opacity:0.1; fill:none" points="262.363,1423.18 262.363,47.2441 "/>
<polyline clip-path="url(#clip232)" style="stroke:#000000; stroke-linecap:round; stroke-linejoin:round; stroke-width:2; stroke-opacity:0.1; fill:none" points="699.857,1423.18 699.857,47.2441 "/>
<polyline clip-path="url(#clip232)" style="stroke:#000000; stroke-linecap:round; stroke-linejoin:round; stroke-width:2; stroke-opacity:0.1; fill:none" points="1137.35,1423.18 1137.35,47.2441 "/>
<polyline clip-path="url(#clip232)" style="stroke:#000000; stroke-linecap:round; stroke-linejoin:round; stroke-width:2; stroke-opacity:0.1; fill:none" points="1574.85,1423.18 1574.85,47.2441 "/>
<polyline clip-path="url(#clip232)" style="stroke:#000000; stroke-linecap:round; stroke-linejoin:round; stroke-width:2; stroke-opacity:0.1; fill:none" points="2012.34,1423.18 2012.34,47.2441 "/>
<polyline clip-path="url(#clip232)" style="stroke:#000000; stroke-linecap:round; stroke-linejoin:round; stroke-width:2; stroke-opacity:0.1; fill:none" points="140.696,1423.18 2352.76,1423.18 "/>
<polyline clip-path="url(#clip232)" style="stroke:#000000; stroke-linecap:round; stroke-linejoin:round; stroke-width:2; stroke-opacity:0.1; fill:none" points="140.696,1079.2 2352.76,1079.2 "/>
<polyline clip-path="url(#clip232)" style="stroke:#000000; stroke-linecap:round; stroke-linejoin:round; stroke-width:2; stroke-opacity:0.1; fill:none" points="140.696,735.212 2352.76,735.212 "/>
<polyline clip-path="url(#clip232)" style="stroke:#000000; stroke-linecap:round; stroke-linejoin:round; stroke-width:2; stroke-opacity:0.1; fill:none" points="140.696,391.228 2352.76,391.228 "/>
<polyline clip-path="url(#clip232)" style="stroke:#000000; stroke-linecap:round; stroke-linejoin:round; stroke-width:2; stroke-opacity:0.1; fill:none" points="140.696,47.2441 2352.76,47.2441 "/>
<polyline clip-path="url(#clip230)" style="stroke:#000000; stroke-linecap:round; stroke-linejoin:round; stroke-width:4; stroke-opacity:1; fill:none" points="140.696,1423.18 2352.76,1423.18 "/>
<polyline clip-path="url(#clip230)" style="stroke:#000000; stroke-linecap:round; stroke-linejoin:round; stroke-width:4; stroke-opacity:1; fill:none" points="262.363,1423.18 262.363,1404.28 "/>
<polyline clip-path="url(#clip230)" style="stroke:#000000; stroke-linecap:round; stroke-linejoin:round; stroke-width:4; stroke-opacity:1; fill:none" points="699.857,1423.18 699.857,1404.28 "/>
<polyline clip-path="url(#clip230)" style="stroke:#000000; stroke-linecap:round; stroke-linejoin:round; stroke-width:4; stroke-opacity:1; fill:none" points="1137.35,1423.18 1137.35,1404.28 "/>
<polyline clip-path="url(#clip230)" style="stroke:#000000; stroke-linecap:round; stroke-linejoin:round; stroke-width:4; stroke-opacity:1; fill:none" points="1574.85,1423.18 1574.85,1404.28 "/>
<polyline clip-path="url(#clip230)" style="stroke:#000000; stroke-linecap:round; stroke-linejoin:round; stroke-width:4; stroke-opacity:1; fill:none" points="2012.34,1423.18 2012.34,1404.28 "/>
<path clip-path="url(#clip230)" d="M221.969 1481.64 L229.608 1481.64 L229.608 1455.28 L221.298 1456.95 L221.298 1452.69 L229.562 1451.02 L234.238 1451.02 L234.238 1481.64 L241.877 1481.64 L241.877 1485.58 L221.969 1485.58 L221.969 1481.64 Z" fill="#000000" fill-rule="nonzero" fill-opacity="1" /><path clip-path="url(#clip230)" d="M261.9 1466.44 Q258.752 1466.44 256.9 1468.59 Q255.071 1470.74 255.071 1474.49 Q255.071 1478.22 256.9 1480.39 Q258.752 1482.55 261.9 1482.55 Q265.048 1482.55 266.877 1480.39 Q268.729 1478.22 268.729 1474.49 Q268.729 1470.74 266.877 1468.59 Q265.048 1466.44 261.9 1466.44 M271.182 1451.78 L271.182 1456.04 Q269.423 1455.21 267.617 1454.77 Q265.835 1454.33 264.076 1454.33 Q259.446 1454.33 256.992 1457.45 Q254.562 1460.58 254.215 1466.9 Q255.58 1464.89 257.641 1463.82 Q259.701 1462.73 262.178 1462.73 Q267.386 1462.73 270.395 1465.9 Q273.428 1469.05 273.428 1474.49 Q273.428 1479.82 270.279 1483.03 Q267.131 1486.25 261.9 1486.25 Q255.905 1486.25 252.733 1481.67 Q249.562 1477.06 249.562 1468.33 Q249.562 1460.14 253.451 1455.28 Q257.34 1450.39 263.891 1450.39 Q265.65 1450.39 267.432 1450.74 Q269.238 1451.09 271.182 1451.78 Z" fill="#000000" fill-rule="nonzero" fill-opacity="1" /><path clip-path="url(#clip230)" d="M291.483 1454.1 Q287.872 1454.1 286.043 1457.66 Q284.238 1461.2 284.238 1468.33 Q284.238 1475.44 286.043 1479.01 Q287.872 1482.55 291.483 1482.55 Q295.117 1482.55 296.923 1479.01 Q298.751 1475.44 298.751 1468.33 Q298.751 1461.2 296.923 1457.66 Q295.117 1454.1 291.483 1454.1 M291.483 1450.39 Q297.293 1450.39 300.349 1455 Q303.427 1459.58 303.427 1468.33 Q303.427 1477.06 300.349 1481.67 Q297.293 1486.25 291.483 1486.25 Q285.673 1486.25 282.594 1481.67 Q279.539 1477.06 279.539 1468.33 Q279.539 1459.58 282.594 1455 Q285.673 1450.39 291.483 1450.39 Z" fill="#000000" fill-rule="nonzero" fill-opacity="1" /><path clip-path="url(#clip230)" d="M659.464 1481.64 L667.103 1481.64 L667.103 1455.28 L658.793 1456.95 L658.793 1452.69 L667.057 1451.02 L671.733 1451.02 L671.733 1481.64 L679.371 1481.64 L679.371 1485.58 L659.464 1485.58 L659.464 1481.64 Z" fill="#000000" fill-rule="nonzero" fill-opacity="1" /><path clip-path="url(#clip230)" d="M698.816 1469.17 Q695.482 1469.17 693.561 1470.95 Q691.663 1472.73 691.663 1475.86 Q691.663 1478.98 693.561 1480.77 Q695.482 1482.55 698.816 1482.55 Q702.149 1482.55 704.07 1480.77 Q705.992 1478.96 705.992 1475.86 Q705.992 1472.73 704.07 1470.95 Q702.172 1469.17 698.816 1469.17 M694.14 1467.18 Q691.131 1466.44 689.441 1464.38 Q687.774 1462.32 687.774 1459.35 Q687.774 1455.21 690.714 1452.8 Q693.677 1450.39 698.816 1450.39 Q703.978 1450.39 706.918 1452.8 Q709.857 1455.21 709.857 1459.35 Q709.857 1462.32 708.168 1464.38 Q706.501 1466.44 703.515 1467.18 Q706.894 1467.96 708.769 1470.26 Q710.668 1472.55 710.668 1475.86 Q710.668 1480.88 707.589 1483.57 Q704.533 1486.25 698.816 1486.25 Q693.098 1486.25 690.02 1483.57 Q686.964 1480.88 686.964 1475.86 Q686.964 1472.55 688.862 1470.26 Q690.76 1467.96 694.14 1467.18 M692.427 1459.79 Q692.427 1462.48 694.094 1463.98 Q695.783 1465.49 698.816 1465.49 Q701.825 1465.49 703.515 1463.98 Q705.228 1462.48 705.228 1459.79 Q705.228 1457.11 703.515 1455.6 Q701.825 1454.1 698.816 1454.1 Q695.783 1454.1 694.094 1455.6 Q692.427 1457.11 692.427 1459.79 Z" fill="#000000" fill-rule="nonzero" fill-opacity="1" /><path clip-path="url(#clip230)" d="M728.978 1454.1 Q725.367 1454.1 723.538 1457.66 Q721.732 1461.2 721.732 1468.33 Q721.732 1475.44 723.538 1479.01 Q725.367 1482.55 728.978 1482.55 Q732.612 1482.55 734.417 1479.01 Q736.246 1475.44 736.246 1468.33 Q736.246 1461.2 734.417 1457.66 Q732.612 1454.1 728.978 1454.1 M728.978 1450.39 Q734.788 1450.39 737.843 1455 Q740.922 1459.58 740.922 1468.33 Q740.922 1477.06 737.843 1481.67 Q734.788 1486.25 728.978 1486.25 Q723.167 1486.25 720.089 1481.67 Q717.033 1477.06 717.033 1468.33 Q717.033 1459.58 720.089 1455 Q723.167 1450.39 728.978 1450.39 Z" fill="#000000" fill-rule="nonzero" fill-opacity="1" /><path clip-path="url(#clip230)" d="M1101.04 1481.64 L1117.36 1481.64 L1117.36 1485.58 L1095.42 1485.58 L1095.42 1481.64 Q1098.08 1478.89 1102.66 1474.26 Q1107.27 1469.61 1108.45 1468.27 Q1110.7 1465.74 1111.58 1464.01 Q1112.48 1462.25 1112.48 1460.56 Q1112.48 1457.8 1110.54 1456.07 Q1108.61 1454.33 1105.51 1454.33 Q1103.31 1454.33 1100.86 1455.09 Q1098.43 1455.86 1095.65 1457.41 L1095.65 1452.69 Q1098.47 1451.55 1100.93 1450.97 Q1103.38 1450.39 1105.42 1450.39 Q1110.79 1450.39 1113.98 1453.08 Q1117.18 1455.77 1117.18 1460.26 Q1117.18 1462.39 1116.37 1464.31 Q1115.58 1466.2 1113.47 1468.8 Q1112.9 1469.47 1109.79 1472.69 Q1106.69 1475.88 1101.04 1481.64 Z" fill="#000000" fill-rule="nonzero" fill-opacity="1" /><path clip-path="url(#clip230)" d="M1137.18 1454.1 Q1133.57 1454.1 1131.74 1457.66 Q1129.93 1461.2 1129.93 1468.33 Q1129.93 1475.44 1131.74 1479.01 Q1133.57 1482.55 1137.18 1482.55 Q1140.81 1482.55 1142.62 1479.01 Q1144.45 1475.44 1144.45 1468.33 Q1144.45 1461.2 1142.62 1457.66 Q1140.81 1454.1 1137.18 1454.1 M1137.18 1450.39 Q1142.99 1450.39 1146.04 1455 Q1149.12 1459.58 1149.12 1468.33 Q1149.12 1477.06 1146.04 1481.67 Q1142.99 1486.25 1137.18 1486.25 Q1131.37 1486.25 1128.29 1481.67 Q1125.23 1477.06 1125.23 1468.33 Q1125.23 1459.58 1128.29 1455 Q1131.37 1450.39 1137.18 1450.39 Z" fill="#000000" fill-rule="nonzero" fill-opacity="1" /><path clip-path="url(#clip230)" d="M1167.34 1454.1 Q1163.73 1454.1 1161.9 1457.66 Q1160.09 1461.2 1160.09 1468.33 Q1160.09 1475.44 1161.9 1479.01 Q1163.73 1482.55 1167.34 1482.55 Q1170.97 1482.55 1172.78 1479.01 Q1174.61 1475.44 1174.61 1468.33 Q1174.61 1461.2 1172.78 1457.66 Q1170.97 1454.1 1167.34 1454.1 M1167.34 1450.39 Q1173.15 1450.39 1176.21 1455 Q1179.28 1459.58 1179.28 1468.33 Q1179.28 1477.06 1176.21 1481.67 Q1173.15 1486.25 1167.34 1486.25 Q1161.53 1486.25 1158.45 1481.67 Q1155.4 1477.06 1155.4 1468.33 Q1155.4 1459.58 1158.45 1455 Q1161.53 1450.39 1167.34 1450.39 Z" fill="#000000" fill-rule="nonzero" fill-opacity="1" /><path clip-path="url(#clip230)" d="M1538.54 1481.64 L1554.86 1481.64 L1554.86 1485.58 L1532.91 1485.58 L1532.91 1481.64 Q1535.58 1478.89 1540.16 1474.26 Q1544.77 1469.61 1545.95 1468.27 Q1548.19 1465.74 1549.07 1464.01 Q1549.97 1462.25 1549.97 1460.56 Q1549.97 1457.8 1548.03 1456.07 Q1546.11 1454.33 1543.01 1454.33 Q1540.81 1454.33 1538.35 1455.09 Q1535.92 1455.86 1533.15 1457.41 L1533.15 1452.69 Q1535.97 1451.55 1538.42 1450.97 Q1540.88 1450.39 1542.91 1450.39 Q1548.28 1450.39 1551.48 1453.08 Q1554.67 1455.77 1554.67 1460.26 Q1554.67 1462.39 1553.86 1464.31 Q1553.08 1466.2 1550.97 1468.8 Q1550.39 1469.47 1547.29 1472.69 Q1544.19 1475.88 1538.54 1481.64 Z" fill="#000000" fill-rule="nonzero" fill-opacity="1" /><path clip-path="url(#clip230)" d="M1568.7 1481.64 L1585.02 1481.64 L1585.02 1485.58 L1563.08 1485.58 L1563.08 1481.64 Q1565.74 1478.89 1570.32 1474.26 Q1574.93 1469.61 1576.11 1468.27 Q1578.35 1465.74 1579.23 1464.01 Q1580.14 1462.25 1580.14 1460.56 Q1580.14 1457.8 1578.19 1456.07 Q1576.27 1454.33 1573.17 1454.33 Q1570.97 1454.33 1568.52 1455.09 Q1566.09 1455.86 1563.31 1457.41 L1563.31 1452.69 Q1566.13 1451.55 1568.59 1450.97 Q1571.04 1450.39 1573.08 1450.39 Q1578.45 1450.39 1581.64 1453.08 Q1584.84 1455.77 1584.84 1460.26 Q1584.84 1462.39 1584.02 1464.31 Q1583.24 1466.2 1581.13 1468.8 Q1580.55 1469.47 1577.45 1472.69 Q1574.35 1475.88 1568.7 1481.64 Z" fill="#000000" fill-rule="nonzero" fill-opacity="1" /><path clip-path="url(#clip230)" d="M1604.83 1454.1 Q1601.22 1454.1 1599.4 1457.66 Q1597.59 1461.2 1597.59 1468.33 Q1597.59 1475.44 1599.4 1479.01 Q1601.22 1482.55 1604.83 1482.55 Q1608.47 1482.55 1610.27 1479.01 Q1612.1 1475.44 1612.1 1468.33 Q1612.1 1461.2 1610.27 1457.66 Q1608.47 1454.1 1604.83 1454.1 M1604.83 1450.39 Q1610.65 1450.39 1613.7 1455 Q1616.78 1459.58 1616.78 1468.33 Q1616.78 1477.06 1613.7 1481.67 Q1610.65 1486.25 1604.83 1486.25 Q1599.02 1486.25 1595.95 1481.67 Q1592.89 1477.06 1592.89 1468.33 Q1592.89 1459.58 1595.95 1455 Q1599.02 1450.39 1604.83 1450.39 Z" fill="#000000" fill-rule="nonzero" fill-opacity="1" /><path clip-path="url(#clip230)" d="M1976.03 1481.64 L1992.35 1481.64 L1992.35 1485.58 L1970.41 1485.58 L1970.41 1481.64 Q1973.07 1478.89 1977.65 1474.26 Q1982.26 1469.61 1983.44 1468.27 Q1985.69 1465.74 1986.57 1464.01 Q1987.47 1462.25 1987.47 1460.56 Q1987.47 1457.8 1985.52 1456.07 Q1983.6 1454.33 1980.5 1454.33 Q1978.3 1454.33 1975.85 1455.09 Q1973.42 1455.86 1970.64 1457.41 L1970.64 1452.69 Q1973.46 1451.55 1975.92 1450.97 Q1978.37 1450.39 1980.41 1450.39 Q1985.78 1450.39 1988.97 1453.08 Q1992.17 1455.77 1992.17 1460.26 Q1992.17 1462.39 1991.36 1464.31 Q1990.57 1466.2 1988.46 1468.8 Q1987.89 1469.47 1984.78 1472.69 Q1981.68 1475.88 1976.03 1481.64 Z" fill="#000000" fill-rule="nonzero" fill-opacity="1" /><path clip-path="url(#clip230)" d="M2015.01 1455.09 L2003.21 1473.54 L2015.01 1473.54 L2015.01 1455.09 M2013.79 1451.02 L2019.67 1451.02 L2019.67 1473.54 L2024.6 1473.54 L2024.6 1477.43 L2019.67 1477.43 L2019.67 1485.58 L2015.01 1485.58 L2015.01 1477.43 L1999.41 1477.43 L1999.41 1472.92 L2013.79 1451.02 Z" fill="#000000" fill-rule="nonzero" fill-opacity="1" /><path clip-path="url(#clip230)" d="M2042.33 1454.1 Q2038.72 1454.1 2036.89 1457.66 Q2035.08 1461.2 2035.08 1468.33 Q2035.08 1475.44 2036.89 1479.01 Q2038.72 1482.55 2042.33 1482.55 Q2045.96 1482.55 2047.77 1479.01 Q2049.6 1475.44 2049.6 1468.33 Q2049.6 1461.2 2047.77 1457.66 Q2045.96 1454.1 2042.33 1454.1 M2042.33 1450.39 Q2048.14 1450.39 2051.2 1455 Q2054.27 1459.58 2054.27 1468.33 Q2054.27 1477.06 2051.2 1481.67 Q2048.14 1486.25 2042.33 1486.25 Q2036.52 1486.25 2033.44 1481.67 Q2030.39 1477.06 2030.39 1468.33 Q2030.39 1459.58 2033.44 1455 Q2036.52 1450.39 2042.33 1450.39 Z" fill="#000000" fill-rule="nonzero" fill-opacity="1" /><path clip-path="url(#clip230)" d="M1121.1 1525.81 L1121.1 1562.76 L1128.86 1562.76 Q1138.7 1562.76 1143.25 1558.3 Q1147.83 1553.85 1147.83 1544.24 Q1147.83 1534.69 1143.25 1530.26 Q1138.7 1525.81 1128.86 1525.81 L1121.1 1525.81 M1114.67 1520.52 L1127.88 1520.52 Q1141.69 1520.52 1148.15 1526.28 Q1154.61 1532.01 1154.61 1544.24 Q1154.61 1556.52 1148.12 1562.28 Q1141.63 1568.04 1127.88 1568.04 L1114.67 1568.04 L1114.67 1520.52 Z" fill="#000000" fill-rule="nonzero" fill-opacity="1" /><path clip-path="url(#clip230)" d="M1195.1 1548.76 L1195.1 1551.62 L1168.17 1551.62 Q1168.55 1557.67 1171.8 1560.85 Q1175.08 1564 1180.9 1564 Q1184.28 1564 1187.43 1563.17 Q1190.61 1562.35 1193.73 1560.69 L1193.73 1566.23 Q1190.58 1567.57 1187.27 1568.27 Q1183.96 1568.97 1180.55 1568.97 Q1172.02 1568.97 1167.03 1564 Q1162.06 1559.04 1162.06 1550.57 Q1162.06 1541.82 1166.77 1536.69 Q1171.51 1531.54 1179.54 1531.54 Q1186.73 1531.54 1190.9 1536.18 Q1195.1 1540.8 1195.1 1548.76 M1189.24 1547.04 Q1189.18 1542.23 1186.54 1539.37 Q1183.93 1536.5 1179.6 1536.5 Q1174.7 1536.5 1171.74 1539.27 Q1168.81 1542.04 1168.36 1547.07 L1189.24 1547.04 Z" fill="#000000" fill-rule="nonzero" fill-opacity="1" /><path clip-path="url(#clip230)" d="M1232.47 1539.24 Q1234.66 1535.29 1237.72 1533.41 Q1240.77 1531.54 1244.91 1531.54 Q1250.48 1531.54 1253.51 1535.45 Q1256.53 1539.33 1256.53 1546.53 L1256.53 1568.04 L1250.64 1568.04 L1250.64 1546.72 Q1250.64 1541.59 1248.83 1539.11 Q1247.01 1536.63 1243.29 1536.63 Q1238.74 1536.63 1236.09 1539.65 Q1233.45 1542.68 1233.45 1547.9 L1233.45 1568.04 L1227.56 1568.04 L1227.56 1546.72 Q1227.56 1541.56 1225.75 1539.11 Q1223.94 1536.63 1220.15 1536.63 Q1215.66 1536.63 1213.02 1539.68 Q1210.38 1542.71 1210.38 1547.9 L1210.38 1568.04 L1204.49 1568.04 L1204.49 1532.4 L1210.38 1532.4 L1210.38 1537.93 Q1212.38 1534.66 1215.18 1533.1 Q1217.98 1531.54 1221.84 1531.54 Q1225.72 1531.54 1228.42 1533.51 Q1231.16 1535.48 1232.47 1539.24 Z" fill="#000000" fill-rule="nonzero" fill-opacity="1" /><path clip-path="url(#clip230)" d="M1284.41 1550.12 Q1277.31 1550.12 1274.58 1551.75 Q1271.84 1553.37 1271.84 1557.29 Q1271.84 1560.4 1273.88 1562.25 Q1275.94 1564.07 1279.48 1564.07 Q1284.35 1564.07 1287.28 1560.63 Q1290.24 1557.16 1290.24 1551.43 L1290.24 1550.12 L1284.41 1550.12 M1296.09 1547.71 L1296.09 1568.04 L1290.24 1568.04 L1290.24 1562.63 Q1288.23 1565.88 1285.24 1567.44 Q1282.25 1568.97 1277.92 1568.97 Q1272.44 1568.97 1269.2 1565.91 Q1265.98 1562.82 1265.98 1557.67 Q1265.98 1551.65 1269.99 1548.6 Q1274.03 1545.54 1282.02 1545.54 L1290.24 1545.54 L1290.24 1544.97 Q1290.24 1540.93 1287.56 1538.73 Q1284.92 1536.5 1280.11 1536.5 Q1277.06 1536.5 1274.16 1537.23 Q1271.27 1537.97 1268.59 1539.43 L1268.59 1534.02 Q1271.81 1532.78 1274.83 1532.17 Q1277.85 1531.54 1280.72 1531.54 Q1288.45 1531.54 1292.27 1535.55 Q1296.09 1539.56 1296.09 1547.71 Z" fill="#000000" fill-rule="nonzero" fill-opacity="1" /><path clip-path="url(#clip230)" d="M1337.79 1546.53 L1337.79 1568.04 L1331.93 1568.04 L1331.93 1546.72 Q1331.93 1541.66 1329.96 1539.14 Q1327.98 1536.63 1324.04 1536.63 Q1319.29 1536.63 1316.56 1539.65 Q1313.82 1542.68 1313.82 1547.9 L1313.82 1568.04 L1307.93 1568.04 L1307.93 1532.4 L1313.82 1532.4 L1313.82 1537.93 Q1315.92 1534.72 1318.75 1533.13 Q1321.62 1531.54 1325.34 1531.54 Q1331.49 1531.54 1334.64 1535.36 Q1337.79 1539.14 1337.79 1546.53 Z" fill="#000000" fill-rule="nonzero" fill-opacity="1" /><path clip-path="url(#clip230)" d="M1372.93 1537.81 L1372.93 1518.52 L1378.78 1518.52 L1378.78 1568.04 L1372.93 1568.04 L1372.93 1562.7 Q1371.08 1565.88 1368.25 1567.44 Q1365.45 1568.97 1361.5 1568.97 Q1355.04 1568.97 1350.96 1563.81 Q1346.92 1558.65 1346.92 1550.25 Q1346.92 1541.85 1350.96 1536.69 Q1355.04 1531.54 1361.5 1531.54 Q1365.45 1531.54 1368.25 1533.1 Q1371.08 1534.62 1372.93 1537.81 M1352.97 1550.25 Q1352.97 1556.71 1355.61 1560.4 Q1358.28 1564.07 1362.93 1564.07 Q1367.58 1564.07 1370.25 1560.4 Q1372.93 1556.71 1372.93 1550.25 Q1372.93 1543.79 1370.25 1540.13 Q1367.58 1536.44 1362.93 1536.44 Q1358.28 1536.44 1355.61 1540.13 Q1352.97 1543.79 1352.97 1550.25 Z" fill="#000000" fill-rule="nonzero" fill-opacity="1" /><polyline clip-path="url(#clip230)" style="stroke:#000000; stroke-linecap:round; stroke-linejoin:round; stroke-width:4; stroke-opacity:1; fill:none" points="140.696,1423.18 140.696,47.2441 "/>
<polyline clip-path="url(#clip230)" style="stroke:#000000; stroke-linecap:round; stroke-linejoin:round; stroke-width:4; stroke-opacity:1; fill:none" points="140.696,1423.18 159.593,1423.18 "/>
<polyline clip-path="url(#clip230)" style="stroke:#000000; stroke-linecap:round; stroke-linejoin:round; stroke-width:4; stroke-opacity:1; fill:none" points="140.696,1079.2 159.593,1079.2 "/>
<polyline clip-path="url(#clip230)" style="stroke:#000000; stroke-linecap:round; stroke-linejoin:round; stroke-width:4; stroke-opacity:1; fill:none" points="140.696,735.212 159.593,735.212 "/>
<polyline clip-path="url(#clip230)" style="stroke:#000000; stroke-linecap:round; stroke-linejoin:round; stroke-width:4; stroke-opacity:1; fill:none" points="140.696,391.228 159.593,391.228 "/>
<polyline clip-path="url(#clip230)" style="stroke:#000000; stroke-linecap:round; stroke-linejoin:round; stroke-width:4; stroke-opacity:1; fill:none" points="140.696,47.2441 159.593,47.2441 "/>
<path clip-path="url(#clip230)" d="M92.7512 1408.98 Q89.1401 1408.98 87.3114 1412.54 Q85.5058 1416.08 85.5058 1423.21 Q85.5058 1430.32 87.3114 1433.89 Q89.1401 1437.43 92.7512 1437.43 Q96.3854 1437.43 98.1909 1433.89 Q100.02 1430.32 100.02 1423.21 Q100.02 1416.08 98.1909 1412.54 Q96.3854 1408.98 92.7512 1408.98 M92.7512 1405.27 Q98.5613 1405.27 101.617 1409.88 Q104.696 1414.46 104.696 1423.21 Q104.696 1431.94 101.617 1436.55 Q98.5613 1441.13 92.7512 1441.13 Q86.941 1441.13 83.8623 1436.55 Q80.8068 1431.94 80.8068 1423.21 Q80.8068 1414.46 83.8623 1409.88 Q86.941 1405.27 92.7512 1405.27 Z" fill="#000000" fill-rule="nonzero" fill-opacity="1" /><path clip-path="url(#clip230)" d="M83.7929 1061.92 L102.149 1061.92 L102.149 1065.85 L88.0753 1065.85 L88.0753 1074.32 Q89.0938 1073.98 90.1123 1073.81 Q91.1308 1073.63 92.1493 1073.63 Q97.9363 1073.63 101.316 1076.8 Q104.696 1079.97 104.696 1085.39 Q104.696 1090.97 101.223 1094.07 Q97.7511 1097.15 91.4317 1097.15 Q89.2558 1097.15 86.9873 1096.78 Q84.7419 1096.41 82.3346 1095.67 L82.3346 1090.97 Q84.4179 1092.1 86.6401 1092.66 Q88.8623 1093.21 91.3391 1093.21 Q95.3437 1093.21 97.6817 1091.11 Q100.02 1089 100.02 1085.39 Q100.02 1081.78 97.6817 1079.67 Q95.3437 1077.56 91.3391 1077.56 Q89.4641 1077.56 87.5892 1077.98 Q85.7373 1078.4 83.7929 1079.28 L83.7929 1061.92 Z" fill="#000000" fill-rule="nonzero" fill-opacity="1" /><path clip-path="url(#clip230)" d="M53.3995 748.557 L61.0384 748.557 L61.0384 722.191 L52.7282 723.858 L52.7282 719.599 L60.9921 717.932 L65.668 717.932 L65.668 748.557 L73.3068 748.557 L73.3068 752.492 L53.3995 752.492 L53.3995 748.557 Z" fill="#000000" fill-rule="nonzero" fill-opacity="1" /><path clip-path="url(#clip230)" d="M92.7512 721.011 Q89.1401 721.011 87.3114 724.575 Q85.5058 728.117 85.5058 735.247 Q85.5058 742.353 87.3114 745.918 Q89.1401 749.46 92.7512 749.46 Q96.3854 749.46 98.1909 745.918 Q100.02 742.353 100.02 735.247 Q100.02 728.117 98.1909 724.575 Q96.3854 721.011 92.7512 721.011 M92.7512 717.307 Q98.5613 717.307 101.617 721.913 Q104.696 726.497 104.696 735.247 Q104.696 743.973 101.617 748.58 Q98.5613 753.163 92.7512 753.163 Q86.941 753.163 83.8623 748.58 Q80.8068 743.973 80.8068 735.247 Q80.8068 726.497 83.8623 721.913 Q86.941 717.307 92.7512 717.307 Z" fill="#000000" fill-rule="nonzero" fill-opacity="1" /><path clip-path="url(#clip230)" d="M54.3949 404.573 L62.0337 404.573 L62.0337 378.207 L53.7236 379.874 L53.7236 375.615 L61.9874 373.948 L66.6633 373.948 L66.6633 404.573 L74.3022 404.573 L74.3022 408.508 L54.3949 408.508 L54.3949 404.573 Z" fill="#000000" fill-rule="nonzero" fill-opacity="1" /><path clip-path="url(#clip230)" d="M83.7929 373.948 L102.149 373.948 L102.149 377.883 L88.0753 377.883 L88.0753 386.355 Q89.0938 386.008 90.1123 385.846 Q91.1308 385.661 92.1493 385.661 Q97.9363 385.661 101.316 388.832 Q104.696 392.003 104.696 397.42 Q104.696 402.999 101.223 406.101 Q97.7511 409.179 91.4317 409.179 Q89.2558 409.179 86.9873 408.809 Q84.7419 408.439 82.3346 407.698 L82.3346 402.999 Q84.4179 404.133 86.6401 404.689 Q88.8623 405.244 91.3391 405.244 Q95.3437 405.244 97.6817 403.138 Q100.02 401.031 100.02 397.42 Q100.02 393.809 97.6817 391.703 Q95.3437 389.596 91.3391 389.596 Q89.4641 389.596 87.5892 390.013 Q85.7373 390.429 83.7929 391.309 L83.7929 373.948 Z" fill="#000000" fill-rule="nonzero" fill-opacity="1" /><path clip-path="url(#clip230)" d="M56.6171 60.5889 L72.9365 60.5889 L72.9365 64.5241 L50.9921 64.5241 L50.9921 60.5889 Q53.6541 57.8343 58.2375 53.2047 Q62.8439 48.552 64.0245 47.2094 Q66.2698 44.6862 67.1494 42.9501 Q68.0522 41.1909 68.0522 39.5011 Q68.0522 36.7465 66.1078 35.0104 Q64.1865 33.2743 61.0847 33.2743 Q58.8856 33.2743 56.4319 34.0381 Q54.0014 34.802 51.2236 36.3529 L51.2236 31.6308 Q54.0477 30.4965 56.5014 29.9178 Q58.955 29.3391 60.9921 29.3391 Q66.3624 29.3391 69.5568 32.0243 Q72.7513 34.7094 72.7513 39.2002 Q72.7513 41.3298 71.9411 43.2511 Q71.1541 45.1492 69.0476 47.7418 Q68.4689 48.4131 65.367 51.6306 Q62.2652 54.8251 56.6171 60.5889 Z" fill="#000000" fill-rule="nonzero" fill-opacity="1" /><path clip-path="url(#clip230)" d="M92.7512 33.0428 Q89.1401 33.0428 87.3114 36.6076 Q85.5058 40.1492 85.5058 47.2788 Q85.5058 54.3853 87.3114 57.9501 Q89.1401 61.4917 92.7512 61.4917 Q96.3854 61.4917 98.1909 57.9501 Q100.02 54.3853 100.02 47.2788 Q100.02 40.1492 98.1909 36.6076 Q96.3854 33.0428 92.7512 33.0428 M92.7512 29.3391 Q98.5613 29.3391 101.617 33.9456 Q104.696 38.5289 104.696 47.2788 Q104.696 56.0056 101.617 60.6121 Q98.5613 65.1954 92.7512 65.1954 Q86.941 65.1954 83.8623 60.6121 Q80.8068 56.0056 80.8068 47.2788 Q80.8068 38.5289 83.8623 33.9456 Q86.941 29.3391 92.7512 29.3391 Z" fill="#000000" fill-rule="nonzero" fill-opacity="1" /><path clip-path="url(#clip232)" d="M262.363 1354.38 L262.363 1423.18 L371.736 1423.18 L371.736 1354.38 L262.363 1354.38 L262.363 1354.38  Z" fill="#009af9" fill-rule="evenodd" fill-opacity="1"/>
<polyline clip-path="url(#clip232)" style="stroke:#000000; stroke-linecap:round; stroke-linejoin:round; stroke-width:4; stroke-opacity:1; fill:none" points="262.363,1354.38 262.363,1423.18 371.736,1423.18 371.736,1354.38 262.363,1354.38 "/>
<path clip-path="url(#clip232)" d="M371.736 1216.79 L371.736 1423.18 L481.11 1423.18 L481.11 1216.79 L371.736 1216.79 L371.736 1216.79  Z" fill="#009af9" fill-rule="evenodd" fill-opacity="1"/>
<polyline clip-path="url(#clip232)" style="stroke:#000000; stroke-linecap:round; stroke-linejoin:round; stroke-width:4; stroke-opacity:1; fill:none" points="371.736,1216.79 371.736,1423.18 481.11,1423.18 481.11,1216.79 371.736,1216.79 "/>
<path clip-path="url(#clip232)" d="M481.11 1285.59 L481.11 1423.18 L590.484 1423.18 L590.484 1285.59 L481.11 1285.59 L481.11 1285.59  Z" fill="#009af9" fill-rule="evenodd" fill-opacity="1"/>
<polyline clip-path="url(#clip232)" style="stroke:#000000; stroke-linecap:round; stroke-linejoin:round; stroke-width:4; stroke-opacity:1; fill:none" points="481.11,1285.59 481.11,1423.18 590.484,1423.18 590.484,1285.59 481.11,1285.59 "/>
<path clip-path="url(#clip232)" d="M590.484 1079.2 L590.484 1423.18 L699.857 1423.18 L699.857 1079.2 L590.484 1079.2 L590.484 1079.2  Z" fill="#009af9" fill-rule="evenodd" fill-opacity="1"/>
<polyline clip-path="url(#clip232)" style="stroke:#000000; stroke-linecap:round; stroke-linejoin:round; stroke-width:4; stroke-opacity:1; fill:none" points="590.484,1079.2 590.484,1423.18 699.857,1423.18 699.857,1079.2 590.484,1079.2 "/>
<path clip-path="url(#clip232)" d="M699.857 1079.2 L699.857 1423.18 L809.231 1423.18 L809.231 1079.2 L699.857 1079.2 L699.857 1079.2  Z" fill="#009af9" fill-rule="evenodd" fill-opacity="1"/>
<polyline clip-path="url(#clip232)" style="stroke:#000000; stroke-linecap:round; stroke-linejoin:round; stroke-width:4; stroke-opacity:1; fill:none" points="699.857,1079.2 699.857,1423.18 809.231,1423.18 809.231,1079.2 699.857,1079.2 "/>
<path clip-path="url(#clip232)" d="M809.231 1010.4 L809.231 1423.18 L918.605 1423.18 L918.605 1010.4 L809.231 1010.4 L809.231 1010.4  Z" fill="#009af9" fill-rule="evenodd" fill-opacity="1"/>
<polyline clip-path="url(#clip232)" style="stroke:#000000; stroke-linecap:round; stroke-linejoin:round; stroke-width:4; stroke-opacity:1; fill:none" points="809.231,1010.4 809.231,1423.18 918.605,1423.18 918.605,1010.4 809.231,1010.4 "/>
<path clip-path="url(#clip232)" d="M918.605 941.602 L918.605 1423.18 L1027.98 1423.18 L1027.98 941.602 L918.605 941.602 L918.605 941.602  Z" fill="#009af9" fill-rule="evenodd" fill-opacity="1"/>
<polyline clip-path="url(#clip232)" style="stroke:#000000; stroke-linecap:round; stroke-linejoin:round; stroke-width:4; stroke-opacity:1; fill:none" points="918.605,941.602 918.605,1423.18 1027.98,1423.18 1027.98,941.602 918.605,941.602 "/>
<path clip-path="url(#clip232)" d="M1027.98 597.618 L1027.98 1423.18 L1137.35 1423.18 L1137.35 597.618 L1027.98 597.618 L1027.98 597.618  Z" fill="#009af9" fill-rule="evenodd" fill-opacity="1"/>
<polyline clip-path="url(#clip232)" style="stroke:#000000; stroke-linecap:round; stroke-linejoin:round; stroke-width:4; stroke-opacity:1; fill:none" points="1027.98,597.618 1027.98,1423.18 1137.35,1423.18 1137.35,597.618 1027.98,597.618 "/>
<path clip-path="url(#clip232)" d="M1137.35 872.806 L1137.35 1423.18 L1246.73 1423.18 L1246.73 872.806 L1137.35 872.806 L1137.35 872.806  Z" fill="#009af9" fill-rule="evenodd" fill-opacity="1"/>
<polyline clip-path="url(#clip232)" style="stroke:#000000; stroke-linecap:round; stroke-linejoin:round; stroke-width:4; stroke-opacity:1; fill:none" points="1137.35,872.806 1137.35,1423.18 1246.73,1423.18 1246.73,872.806 1137.35,872.806 "/>
<path clip-path="url(#clip232)" d="M1246.73 47.2441 L1246.73 1423.18 L1356.1 1423.18 L1356.1 47.2441 L1246.73 47.2441 L1246.73 47.2441  Z" fill="#009af9" fill-rule="evenodd" fill-opacity="1"/>
<polyline clip-path="url(#clip232)" style="stroke:#000000; stroke-linecap:round; stroke-linejoin:round; stroke-width:4; stroke-opacity:1; fill:none" points="1246.73,47.2441 1246.73,1423.18 1356.1,1423.18 1356.1,47.2441 1246.73,47.2441 "/>
<path clip-path="url(#clip232)" d="M1356.1 941.602 L1356.1 1423.18 L1465.47 1423.18 L1465.47 941.602 L1356.1 941.602 L1356.1 941.602  Z" fill="#009af9" fill-rule="evenodd" fill-opacity="1"/>
<polyline clip-path="url(#clip232)" style="stroke:#000000; stroke-linecap:round; stroke-linejoin:round; stroke-width:4; stroke-opacity:1; fill:none" points="1356.1,941.602 1356.1,1423.18 1465.47,1423.18 1465.47,941.602 1356.1,941.602 "/>
<path clip-path="url(#clip232)" d="M1465.47 1079.2 L1465.47 1423.18 L1574.85 1423.18 L1574.85 1079.2 L1465.47 1079.2 L1465.47 1079.2  Z" fill="#009af9" fill-rule="evenodd" fill-opacity="1"/>
<polyline clip-path="url(#clip232)" style="stroke:#000000; stroke-linecap:round; stroke-linejoin:round; stroke-width:4; stroke-opacity:1; fill:none" points="1465.47,1079.2 1465.47,1423.18 1574.85,1423.18 1574.85,1079.2 1465.47,1079.2 "/>
<path clip-path="url(#clip232)" d="M1574.85 941.602 L1574.85 1423.18 L1684.22 1423.18 L1684.22 941.602 L1574.85 941.602 L1574.85 941.602  Z" fill="#009af9" fill-rule="evenodd" fill-opacity="1"/>
<polyline clip-path="url(#clip232)" style="stroke:#000000; stroke-linecap:round; stroke-linejoin:round; stroke-width:4; stroke-opacity:1; fill:none" points="1574.85,941.602 1574.85,1423.18 1684.22,1423.18 1684.22,941.602 1574.85,941.602 "/>
<path clip-path="url(#clip232)" d="M1684.22 1147.99 L1684.22 1423.18 L1793.59 1423.18 L1793.59 1147.99 L1684.22 1147.99 L1684.22 1147.99  Z" fill="#009af9" fill-rule="evenodd" fill-opacity="1"/>
<polyline clip-path="url(#clip232)" style="stroke:#000000; stroke-linecap:round; stroke-linejoin:round; stroke-width:4; stroke-opacity:1; fill:none" points="1684.22,1147.99 1684.22,1423.18 1793.59,1423.18 1793.59,1147.99 1684.22,1147.99 "/>
<path clip-path="url(#clip232)" d="M1793.59 1216.79 L1793.59 1423.18 L1902.97 1423.18 L1902.97 1216.79 L1793.59 1216.79 L1793.59 1216.79  Z" fill="#009af9" fill-rule="evenodd" fill-opacity="1"/>
<polyline clip-path="url(#clip232)" style="stroke:#000000; stroke-linecap:round; stroke-linejoin:round; stroke-width:4; stroke-opacity:1; fill:none" points="1793.59,1216.79 1793.59,1423.18 1902.97,1423.18 1902.97,1216.79 1793.59,1216.79 "/>
<path clip-path="url(#clip232)" d="M1902.97 1285.59 L1902.97 1423.18 L2012.34 1423.18 L2012.34 1285.59 L1902.97 1285.59 L1902.97 1285.59  Z" fill="#009af9" fill-rule="evenodd" fill-opacity="1"/>
<polyline clip-path="url(#clip232)" style="stroke:#000000; stroke-linecap:round; stroke-linejoin:round; stroke-width:4; stroke-opacity:1; fill:none" points="1902.97,1285.59 1902.97,1423.18 2012.34,1423.18 2012.34,1285.59 1902.97,1285.59 "/>
<path clip-path="url(#clip232)" d="M2012.34 1354.38 L2012.34 1423.18 L2121.71 1423.18 L2121.71 1354.38 L2012.34 1354.38 L2012.34 1354.38  Z" fill="#009af9" fill-rule="evenodd" fill-opacity="1"/>
<polyline clip-path="url(#clip232)" style="stroke:#000000; stroke-linecap:round; stroke-linejoin:round; stroke-width:4; stroke-opacity:1; fill:none" points="2012.34,1354.38 2012.34,1423.18 2121.71,1423.18 2121.71,1354.38 2012.34,1354.38 "/>
<path clip-path="url(#clip232)" d="M2121.71 1285.59 L2121.71 1423.18 L2231.09 1423.18 L2231.09 1285.59 L2121.71 1285.59 L2121.71 1285.59  Z" fill="#009af9" fill-rule="evenodd" fill-opacity="1"/>
<polyline clip-path="url(#clip232)" style="stroke:#000000; stroke-linecap:round; stroke-linejoin:round; stroke-width:4; stroke-opacity:1; fill:none" points="2121.71,1285.59 2121.71,1423.18 2231.09,1423.18 2231.09,1285.59 2121.71,1285.59 "/>
<circle clip-path="url(#clip232)" style="fill:#009af9; stroke:none; fill-opacity:0" cx="317.05" cy="1354.38" r="2"/>
<circle clip-path="url(#clip232)" style="fill:#009af9; stroke:none; fill-opacity:0" cx="426.423" cy="1216.79" r="2"/>
<circle clip-path="url(#clip232)" style="fill:#009af9; stroke:none; fill-opacity:0" cx="535.797" cy="1285.59" r="2"/>
<circle clip-path="url(#clip232)" style="fill:#009af9; stroke:none; fill-opacity:0" cx="645.171" cy="1079.2" r="2"/>
<circle clip-path="url(#clip232)" style="fill:#009af9; stroke:none; fill-opacity:0" cx="754.544" cy="1079.2" r="2"/>
<circle clip-path="url(#clip232)" style="fill:#009af9; stroke:none; fill-opacity:0" cx="863.918" cy="1010.4" r="2"/>
<circle clip-path="url(#clip232)" style="fill:#009af9; stroke:none; fill-opacity:0" cx="973.292" cy="941.602" r="2"/>
<circle clip-path="url(#clip232)" style="fill:#009af9; stroke:none; fill-opacity:0" cx="1082.67" cy="597.618" r="2"/>
<circle clip-path="url(#clip232)" style="fill:#009af9; stroke:none; fill-opacity:0" cx="1192.04" cy="872.806" r="2"/>
<circle clip-path="url(#clip232)" style="fill:#009af9; stroke:none; fill-opacity:0" cx="1301.41" cy="47.2441" r="2"/>
<circle clip-path="url(#clip232)" style="fill:#009af9; stroke:none; fill-opacity:0" cx="1410.79" cy="941.602" r="2"/>
<circle clip-path="url(#clip232)" style="fill:#009af9; stroke:none; fill-opacity:0" cx="1520.16" cy="1079.2" r="2"/>
<circle clip-path="url(#clip232)" style="fill:#009af9; stroke:none; fill-opacity:0" cx="1629.53" cy="941.602" r="2"/>
<circle clip-path="url(#clip232)" style="fill:#009af9; stroke:none; fill-opacity:0" cx="1738.91" cy="1147.99" r="2"/>
<circle clip-path="url(#clip232)" style="fill:#009af9; stroke:none; fill-opacity:0" cx="1848.28" cy="1216.79" r="2"/>
<circle clip-path="url(#clip232)" style="fill:#009af9; stroke:none; fill-opacity:0" cx="1957.65" cy="1285.59" r="2"/>
<circle clip-path="url(#clip232)" style="fill:#009af9; stroke:none; fill-opacity:0" cx="2067.03" cy="1354.38" r="2"/>
<circle clip-path="url(#clip232)" style="fill:#009af9; stroke:none; fill-opacity:0" cx="2176.4" cy="1285.59" r="2"/>
</svg>
