<?xml version="1.0" encoding="utf-8"?>
<svg xmlns="http://www.w3.org/2000/svg" xmlns:xlink="http://www.w3.org/1999/xlink" width="600" height="400" viewBox="0 0 2400 1600">
<defs>
  <clipPath id="clip860">
    <rect x="0" y="0" width="2400" height="1600"/>
  </clipPath>
</defs>
<path clip-path="url(#clip860)" d="M0 1600 L2400 1600 L2400 0 L0 0  Z" fill="#ffffff" fill-rule="evenodd" fill-opacity="1"/>
<defs>
  <clipPath id="clip861">
    <rect x="480" y="0" width="1681" height="1600"/>
  </clipPath>
</defs>
<path clip-path="url(#clip860)" d="M170.857 1423.18 L2352.76 1423.18 L2352.76 47.2441 L170.857 47.2441  Z" fill="#ffffff" fill-rule="evenodd" fill-opacity="1"/>
<defs>
  <clipPath id="clip862">
    <rect x="170" y="47" width="2183" height="1377"/>
  </clipPath>
</defs>
<polyline clip-path="url(#clip862)" style="stroke:#000000; stroke-linecap:round; stroke-linejoin:round; stroke-width:2; stroke-opacity:0.1; fill:none" points="192.249,1423.18 192.249,47.2441 "/>
<polyline clip-path="url(#clip862)" style="stroke:#000000; stroke-linecap:round; stroke-linejoin:round; stroke-width:2; stroke-opacity:0.1; fill:none" points="595.855,1423.18 595.855,47.2441 "/>
<polyline clip-path="url(#clip862)" style="stroke:#000000; stroke-linecap:round; stroke-linejoin:round; stroke-width:2; stroke-opacity:0.1; fill:none" points="999.462,1423.18 999.462,47.2441 "/>
<polyline clip-path="url(#clip862)" style="stroke:#000000; stroke-linecap:round; stroke-linejoin:round; stroke-width:2; stroke-opacity:0.1; fill:none" points="1403.07,1423.18 1403.07,47.2441 "/>
<polyline clip-path="url(#clip862)" style="stroke:#000000; stroke-linecap:round; stroke-linejoin:round; stroke-width:2; stroke-opacity:0.1; fill:none" points="1806.68,1423.18 1806.68,47.2441 "/>
<polyline clip-path="url(#clip862)" style="stroke:#000000; stroke-linecap:round; stroke-linejoin:round; stroke-width:2; stroke-opacity:0.1; fill:none" points="2210.28,1423.18 2210.28,47.2441 "/>
<polyline clip-path="url(#clip862)" style="stroke:#000000; stroke-linecap:round; stroke-linejoin:round; stroke-width:2; stroke-opacity:0.1; fill:none" points="170.857,1384.24 2352.76,1384.24 "/>
<polyline clip-path="url(#clip862)" style="stroke:#000000; stroke-linecap:round; stroke-linejoin:round; stroke-width:2; stroke-opacity:0.1; fill:none" points="170.857,978.597 2352.76,978.597 "/>
<polyline clip-path="url(#clip862)" style="stroke:#000000; stroke-linecap:round; stroke-linejoin:round; stroke-width:2; stroke-opacity:0.1; fill:none" points="170.857,572.955 2352.76,572.955 "/>
<polyline clip-path="url(#clip862)" style="stroke:#000000; stroke-linecap:round; stroke-linejoin:round; stroke-width:2; stroke-opacity:0.1; fill:none" points="170.857,167.314 2352.76,167.314 "/>
<polyline clip-path="url(#clip860)" style="stroke:#000000; stroke-linecap:round; stroke-linejoin:round; stroke-width:4; stroke-opacity:1; fill:none" points="170.857,1423.18 2352.76,1423.18 "/>
<polyline clip-path="url(#clip860)" style="stroke:#000000; stroke-linecap:round; stroke-linejoin:round; stroke-width:4; stroke-opacity:1; fill:none" points="192.249,1423.18 192.249,1404.28 "/>
<polyline clip-path="url(#clip860)" style="stroke:#000000; stroke-linecap:round; stroke-linejoin:round; stroke-width:4; stroke-opacity:1; fill:none" points="595.855,1423.18 595.855,1404.28 "/>
<polyline clip-path="url(#clip860)" style="stroke:#000000; stroke-linecap:round; stroke-linejoin:round; stroke-width:4; stroke-opacity:1; fill:none" points="999.462,1423.18 999.462,1404.28 "/>
<polyline clip-path="url(#clip860)" style="stroke:#000000; stroke-linecap:round; stroke-linejoin:round; stroke-width:4; stroke-opacity:1; fill:none" points="1403.07,1423.18 1403.07,1404.28 "/>
<polyline clip-path="url(#clip860)" style="stroke:#000000; stroke-linecap:round; stroke-linejoin:round; stroke-width:4; stroke-opacity:1; fill:none" points="1806.68,1423.18 1806.68,1404.28 "/>
<polyline clip-path="url(#clip860)" style="stroke:#000000; stroke-linecap:round; stroke-linejoin:round; stroke-width:4; stroke-opacity:1; fill:none" points="2210.28,1423.18 2210.28,1404.28 "/>
<path clip-path="url(#clip860)" d="M192.249 1454.1 Q188.637 1454.1 186.809 1457.66 Q185.003 1461.2 185.003 1468.33 Q185.003 1475.44 186.809 1479.01 Q188.637 1482.55 192.249 1482.55 Q195.883 1482.55 197.688 1479.01 Q199.517 1475.44 199.517 1468.33 Q199.517 1461.2 197.688 1457.66 Q195.883 1454.1 192.249 1454.1 M192.249 1450.39 Q198.059 1450.39 201.114 1455 Q204.193 1459.58 204.193 1468.33 Q204.193 1477.06 201.114 1481.67 Q198.059 1486.25 192.249 1486.25 Q186.438 1486.25 183.36 1481.67 Q180.304 1477.06 180.304 1468.33 Q180.304 1459.58 183.36 1455 Q186.438 1450.39 192.249 1450.39 Z" fill="#000000" fill-rule="nonzero" fill-opacity="1" /><path clip-path="url(#clip860)" d="M570.543 1481.64 L578.182 1481.64 L578.182 1455.28 L569.872 1456.95 L569.872 1452.69 L578.136 1451.02 L582.811 1451.02 L582.811 1481.64 L590.45 1481.64 L590.45 1485.58 L570.543 1485.58 L570.543 1481.64 Z" fill="#000000" fill-rule="nonzero" fill-opacity="1" /><path clip-path="url(#clip860)" d="M609.895 1454.1 Q606.284 1454.1 604.455 1457.66 Q602.649 1461.2 602.649 1468.33 Q602.649 1475.44 604.455 1479.01 Q606.284 1482.55 609.895 1482.55 Q613.529 1482.55 615.334 1479.01 Q617.163 1475.44 617.163 1468.33 Q617.163 1461.2 615.334 1457.66 Q613.529 1454.1 609.895 1454.1 M609.895 1450.39 Q615.705 1450.39 618.76 1455 Q621.839 1459.58 621.839 1468.33 Q621.839 1477.06 618.76 1481.67 Q615.705 1486.25 609.895 1486.25 Q604.085 1486.25 601.006 1481.67 Q597.95 1477.06 597.95 1468.33 Q597.95 1459.58 601.006 1455 Q604.085 1450.39 609.895 1450.39 Z" fill="#000000" fill-rule="nonzero" fill-opacity="1" /><path clip-path="url(#clip860)" d="M978.235 1481.64 L994.555 1481.64 L994.555 1485.58 L972.611 1485.58 L972.611 1481.64 Q975.273 1478.89 979.856 1474.26 Q984.462 1469.61 985.643 1468.27 Q987.888 1465.74 988.768 1464.01 Q989.671 1462.25 989.671 1460.56 Q989.671 1457.8 987.726 1456.07 Q985.805 1454.33 982.703 1454.33 Q980.504 1454.33 978.05 1455.09 Q975.62 1455.86 972.842 1457.41 L972.842 1452.69 Q975.666 1451.55 978.12 1450.97 Q980.573 1450.39 982.61 1450.39 Q987.981 1450.39 991.175 1453.08 Q994.37 1455.77 994.37 1460.26 Q994.37 1462.39 993.559 1464.31 Q992.772 1466.2 990.666 1468.8 Q990.087 1469.47 986.985 1472.69 Q983.884 1475.88 978.235 1481.64 Z" fill="#000000" fill-rule="nonzero" fill-opacity="1" /><path clip-path="url(#clip860)" d="M1014.37 1454.1 Q1010.76 1454.1 1008.93 1457.66 Q1007.12 1461.2 1007.12 1468.33 Q1007.12 1475.44 1008.93 1479.01 Q1010.76 1482.55 1014.37 1482.55 Q1018 1482.55 1019.81 1479.01 Q1021.64 1475.44 1021.64 1468.33 Q1021.64 1461.2 1019.81 1457.66 Q1018 1454.1 1014.37 1454.1 M1014.37 1450.39 Q1020.18 1450.39 1023.24 1455 Q1026.31 1459.58 1026.31 1468.33 Q1026.31 1477.06 1023.24 1481.67 Q1020.18 1486.25 1014.37 1486.25 Q1008.56 1486.25 1005.48 1481.67 Q1002.43 1477.06 1002.43 1468.33 Q1002.43 1459.58 1005.48 1455 Q1008.56 1450.39 1014.37 1450.39 Z" fill="#000000" fill-rule="nonzero" fill-opacity="1" /><path clip-path="url(#clip860)" d="M1391.91 1466.95 Q1395.27 1467.66 1397.14 1469.93 Q1399.04 1472.2 1399.04 1475.53 Q1399.04 1480.65 1395.52 1483.45 Q1392 1486.25 1385.52 1486.25 Q1383.35 1486.25 1381.03 1485.81 Q1378.74 1485.39 1376.29 1484.54 L1376.29 1480.02 Q1378.23 1481.16 1380.55 1481.74 Q1382.86 1482.32 1385.38 1482.32 Q1389.78 1482.32 1392.07 1480.58 Q1394.39 1478.84 1394.39 1475.53 Q1394.39 1472.48 1392.24 1470.77 Q1390.11 1469.03 1386.29 1469.03 L1382.26 1469.03 L1382.26 1465.19 L1386.47 1465.19 Q1389.92 1465.19 1391.75 1463.82 Q1393.58 1462.43 1393.58 1459.84 Q1393.58 1457.18 1391.68 1455.77 Q1389.81 1454.33 1386.29 1454.33 Q1384.37 1454.33 1382.17 1454.75 Q1379.97 1455.16 1377.33 1456.04 L1377.33 1451.88 Q1379.99 1451.14 1382.31 1450.77 Q1384.64 1450.39 1386.7 1450.39 Q1392.03 1450.39 1395.13 1452.83 Q1398.23 1455.23 1398.23 1459.35 Q1398.23 1462.22 1396.59 1464.21 Q1394.94 1466.18 1391.91 1466.95 Z" fill="#000000" fill-rule="nonzero" fill-opacity="1" /><path clip-path="url(#clip860)" d="M1417.91 1454.1 Q1414.3 1454.1 1412.47 1457.66 Q1410.66 1461.2 1410.66 1468.33 Q1410.66 1475.44 1412.47 1479.01 Q1414.3 1482.55 1417.91 1482.55 Q1421.54 1482.55 1423.35 1479.01 Q1425.18 1475.44 1425.18 1468.33 Q1425.18 1461.2 1423.35 1457.66 Q1421.54 1454.1 1417.91 1454.1 M1417.91 1450.39 Q1423.72 1450.39 1426.77 1455 Q1429.85 1459.58 1429.85 1468.33 Q1429.85 1477.06 1426.77 1481.67 Q1423.72 1486.25 1417.91 1486.25 Q1412.1 1486.25 1409.02 1481.67 Q1405.96 1477.06 1405.96 1468.33 Q1405.96 1459.58 1409.02 1455 Q1412.1 1450.39 1417.91 1450.39 Z" fill="#000000" fill-rule="nonzero" fill-opacity="1" /><path clip-path="url(#clip860)" d="M1794.85 1455.09 L1783.04 1473.54 L1794.85 1473.54 L1794.85 1455.09 M1793.62 1451.02 L1799.5 1451.02 L1799.5 1473.54 L1804.43 1473.54 L1804.43 1477.43 L1799.5 1477.43 L1799.5 1485.58 L1794.85 1485.58 L1794.85 1477.43 L1779.25 1477.43 L1779.25 1472.92 L1793.62 1451.02 Z" fill="#000000" fill-rule="nonzero" fill-opacity="1" /><path clip-path="url(#clip860)" d="M1822.16 1454.1 Q1818.55 1454.1 1816.72 1457.66 Q1814.92 1461.2 1814.92 1468.33 Q1814.92 1475.44 1816.72 1479.01 Q1818.55 1482.55 1822.16 1482.55 Q1825.8 1482.55 1827.6 1479.01 Q1829.43 1475.44 1829.43 1468.33 Q1829.43 1461.2 1827.6 1457.66 Q1825.8 1454.1 1822.16 1454.1 M1822.16 1450.39 Q1827.97 1450.39 1831.03 1455 Q1834.11 1459.58 1834.11 1468.33 Q1834.11 1477.06 1831.03 1481.67 Q1827.97 1486.25 1822.16 1486.25 Q1816.35 1486.25 1813.27 1481.67 Q1810.22 1477.06 1810.22 1468.33 Q1810.22 1459.58 1813.27 1455 Q1816.35 1450.39 1822.16 1450.39 Z" fill="#000000" fill-rule="nonzero" fill-opacity="1" /><path clip-path="url(#clip860)" d="M2184.98 1451.02 L2203.34 1451.02 L2203.34 1454.96 L2189.26 1454.96 L2189.26 1463.43 Q2190.28 1463.08 2191.3 1462.92 Q2192.32 1462.73 2193.34 1462.73 Q2199.13 1462.73 2202.5 1465.9 Q2205.88 1469.08 2205.88 1474.49 Q2205.88 1480.07 2202.41 1483.17 Q2198.94 1486.25 2192.62 1486.25 Q2190.44 1486.25 2188.18 1485.88 Q2185.93 1485.51 2183.52 1484.77 L2183.52 1480.07 Q2185.61 1481.2 2187.83 1481.76 Q2190.05 1482.32 2192.53 1482.32 Q2196.53 1482.32 2198.87 1480.21 Q2201.21 1478.1 2201.21 1474.49 Q2201.21 1470.88 2198.87 1468.77 Q2196.53 1466.67 2192.53 1466.67 Q2190.65 1466.67 2188.78 1467.08 Q2186.93 1467.5 2184.98 1468.38 L2184.98 1451.02 Z" fill="#000000" fill-rule="nonzero" fill-opacity="1" /><path clip-path="url(#clip860)" d="M2225.1 1454.1 Q2221.49 1454.1 2219.66 1457.66 Q2217.85 1461.2 2217.85 1468.33 Q2217.85 1475.44 2219.66 1479.01 Q2221.49 1482.55 2225.1 1482.55 Q2228.73 1482.55 2230.54 1479.01 Q2232.37 1475.44 2232.37 1468.33 Q2232.37 1461.2 2230.54 1457.66 Q2228.73 1454.1 2225.1 1454.1 M2225.1 1450.39 Q2230.91 1450.39 2233.96 1455 Q2237.04 1459.58 2237.04 1468.33 Q2237.04 1477.06 2233.96 1481.67 Q2230.91 1486.25 2225.1 1486.25 Q2219.29 1486.25 2216.21 1481.67 Q2213.15 1477.06 2213.15 1468.33 Q2213.15 1459.58 2216.21 1455 Q2219.29 1450.39 2225.1 1450.39 Z" fill="#000000" fill-rule="nonzero" fill-opacity="1" /><path clip-path="url(#clip860)" d="M1173.69 1520.52 L1180.18 1520.52 L1190.18 1560.69 L1200.14 1520.52 L1207.36 1520.52 L1217.36 1560.69 L1227.32 1520.52 L1233.85 1520.52 L1221.91 1568.04 L1213.83 1568.04 L1203.8 1526.79 L1193.68 1568.04 L1185.59 1568.04 L1173.69 1520.52 Z" fill="#000000" fill-rule="nonzero" fill-opacity="1" /><path clip-path="url(#clip860)" d="M1268.79 1548.76 L1268.79 1551.62 L1241.87 1551.62 Q1242.25 1557.67 1245.49 1560.85 Q1248.77 1564 1254.6 1564 Q1257.97 1564 1261.12 1563.17 Q1264.31 1562.35 1267.42 1560.69 L1267.42 1566.23 Q1264.27 1567.57 1260.96 1568.27 Q1257.65 1568.97 1254.25 1568.97 Q1245.72 1568.97 1240.72 1564 Q1235.76 1559.04 1235.76 1550.57 Q1235.76 1541.82 1240.47 1536.69 Q1245.21 1531.54 1253.23 1531.54 Q1260.42 1531.54 1264.59 1536.18 Q1268.79 1540.8 1268.79 1548.76 M1262.94 1547.04 Q1262.87 1542.23 1260.23 1539.37 Q1257.62 1536.5 1253.29 1536.5 Q1248.39 1536.5 1245.43 1539.27 Q1242.5 1542.04 1242.06 1547.07 L1262.94 1547.04 Z" fill="#000000" fill-rule="nonzero" fill-opacity="1" /><path clip-path="url(#clip860)" d="M1308.9 1548.76 L1308.9 1551.62 L1281.97 1551.62 Q1282.35 1557.67 1285.6 1560.85 Q1288.88 1564 1294.7 1564 Q1298.08 1564 1301.23 1563.17 Q1304.41 1562.35 1307.53 1560.69 L1307.53 1566.23 Q1304.38 1567.57 1301.07 1568.27 Q1297.76 1568.97 1294.35 1568.97 Q1285.82 1568.97 1280.82 1564 Q1275.86 1559.04 1275.86 1550.57 Q1275.86 1541.82 1280.57 1536.69 Q1285.31 1531.54 1293.33 1531.54 Q1300.53 1531.54 1304.7 1536.18 Q1308.9 1540.8 1308.9 1548.76 M1303.04 1547.04 Q1302.98 1542.23 1300.34 1539.37 Q1297.73 1536.5 1293.4 1536.5 Q1288.49 1536.5 1285.53 1539.27 Q1282.61 1542.04 1282.16 1547.07 L1303.04 1547.04 Z" fill="#000000" fill-rule="nonzero" fill-opacity="1" /><path clip-path="url(#clip860)" d="M1318.29 1518.52 L1324.17 1518.52 L1324.17 1547.77 L1341.65 1532.4 L1349.13 1532.4 L1330.22 1549.07 L1349.92 1568.04 L1342.29 1568.04 L1324.17 1550.63 L1324.17 1568.04 L1318.29 1568.04 L1318.29 1518.52 Z" fill="#000000" fill-rule="nonzero" fill-opacity="1" /><polyline clip-path="url(#clip860)" style="stroke:#000000; stroke-linecap:round; stroke-linejoin:round; stroke-width:4; stroke-opacity:1; fill:none" points="170.857,1423.18 170.857,47.2441 "/>
<polyline clip-path="url(#clip860)" style="stroke:#000000; stroke-linecap:round; stroke-linejoin:round; stroke-width:4; stroke-opacity:1; fill:none" points="170.857,1384.24 189.755,1384.24 "/>
<polyline clip-path="url(#clip860)" style="stroke:#000000; stroke-linecap:round; stroke-linejoin:round; stroke-width:4; stroke-opacity:1; fill:none" points="170.857,978.597 189.755,978.597 "/>
<polyline clip-path="url(#clip860)" style="stroke:#000000; stroke-linecap:round; stroke-linejoin:round; stroke-width:4; stroke-opacity:1; fill:none" points="170.857,572.955 189.755,572.955 "/>
<polyline clip-path="url(#clip860)" style="stroke:#000000; stroke-linecap:round; stroke-linejoin:round; stroke-width:4; stroke-opacity:1; fill:none" points="170.857,167.314 189.755,167.314 "/>
<path clip-path="url(#clip860)" d="M122.913 1370.04 Q119.302 1370.04 117.473 1373.6 Q115.668 1377.14 115.668 1384.27 Q115.668 1391.38 117.473 1394.94 Q119.302 1398.49 122.913 1398.49 Q126.547 1398.49 128.353 1394.94 Q130.182 1391.38 130.182 1384.27 Q130.182 1377.14 128.353 1373.6 Q126.547 1370.04 122.913 1370.04 M122.913 1366.33 Q128.723 1366.33 131.779 1370.94 Q134.857 1375.52 134.857 1384.27 Q134.857 1393 131.779 1397.61 Q128.723 1402.19 122.913 1402.19 Q117.103 1402.19 114.024 1397.61 Q110.969 1393 110.969 1384.27 Q110.969 1375.52 114.024 1370.94 Q117.103 1366.33 122.913 1366.33 Z" fill="#000000" fill-rule="nonzero" fill-opacity="1" /><path clip-path="url(#clip860)" d="M53.3995 991.942 L61.0384 991.942 L61.0384 965.576 L52.7282 967.243 L52.7282 962.983 L60.9921 961.317 L65.668 961.317 L65.668 991.942 L73.3068 991.942 L73.3068 995.877 L53.3995 995.877 L53.3995 991.942 Z" fill="#000000" fill-rule="nonzero" fill-opacity="1" /><path clip-path="url(#clip860)" d="M92.7512 964.396 Q89.1401 964.396 87.3114 967.96 Q85.5058 971.502 85.5058 978.632 Q85.5058 985.738 87.3114 989.303 Q89.1401 992.844 92.7512 992.844 Q96.3854 992.844 98.1909 989.303 Q100.02 985.738 100.02 978.632 Q100.02 971.502 98.1909 967.96 Q96.3854 964.396 92.7512 964.396 M92.7512 960.692 Q98.5613 960.692 101.617 965.298 Q104.696 969.882 104.696 978.632 Q104.696 987.358 101.617 991.965 Q98.5613 996.548 92.7512 996.548 Q86.941 996.548 83.8623 991.965 Q80.8068 987.358 80.8068 978.632 Q80.8068 969.882 83.8623 965.298 Q86.941 960.692 92.7512 960.692 Z" fill="#000000" fill-rule="nonzero" fill-opacity="1" /><path clip-path="url(#clip860)" d="M122.913 964.396 Q119.302 964.396 117.473 967.96 Q115.668 971.502 115.668 978.632 Q115.668 985.738 117.473 989.303 Q119.302 992.844 122.913 992.844 Q126.547 992.844 128.353 989.303 Q130.182 985.738 130.182 978.632 Q130.182 971.502 128.353 967.96 Q126.547 964.396 122.913 964.396 M122.913 960.692 Q128.723 960.692 131.779 965.298 Q134.857 969.882 134.857 978.632 Q134.857 987.358 131.779 991.965 Q128.723 996.548 122.913 996.548 Q117.103 996.548 114.024 991.965 Q110.969 987.358 110.969 978.632 Q110.969 969.882 114.024 965.298 Q117.103 960.692 122.913 960.692 Z" fill="#000000" fill-rule="nonzero" fill-opacity="1" /><path clip-path="url(#clip860)" d="M56.6171 586.3 L72.9365 586.3 L72.9365 590.235 L50.9921 590.235 L50.9921 586.3 Q53.6541 583.546 58.2375 578.916 Q62.8439 574.263 64.0245 572.921 Q66.2698 570.398 67.1494 568.661 Q68.0522 566.902 68.0522 565.212 Q68.0522 562.458 66.1078 560.722 Q64.1865 558.986 61.0847 558.986 Q58.8856 558.986 56.4319 559.749 Q54.0014 560.513 51.2236 562.064 L51.2236 557.342 Q54.0477 556.208 56.5014 555.629 Q58.955 555.05 60.9921 555.05 Q66.3624 555.05 69.5568 557.736 Q72.7513 560.421 72.7513 564.911 Q72.7513 567.041 71.9411 568.962 Q71.1541 570.86 69.0476 573.453 Q68.4689 574.124 65.367 577.342 Q62.2652 580.536 56.6171 586.3 Z" fill="#000000" fill-rule="nonzero" fill-opacity="1" /><path clip-path="url(#clip860)" d="M92.7512 558.754 Q89.1401 558.754 87.3114 562.319 Q85.5058 565.861 85.5058 572.99 Q85.5058 580.097 87.3114 583.661 Q89.1401 587.203 92.7512 587.203 Q96.3854 587.203 98.1909 583.661 Q100.02 580.097 100.02 572.99 Q100.02 565.861 98.1909 562.319 Q96.3854 558.754 92.7512 558.754 M92.7512 555.05 Q98.5613 555.05 101.617 559.657 Q104.696 564.24 104.696 572.99 Q104.696 581.717 101.617 586.323 Q98.5613 590.907 92.7512 590.907 Q86.941 590.907 83.8623 586.323 Q80.8068 581.717 80.8068 572.99 Q80.8068 564.24 83.8623 559.657 Q86.941 555.05 92.7512 555.05 Z" fill="#000000" fill-rule="nonzero" fill-opacity="1" /><path clip-path="url(#clip860)" d="M122.913 558.754 Q119.302 558.754 117.473 562.319 Q115.668 565.861 115.668 572.99 Q115.668 580.097 117.473 583.661 Q119.302 587.203 122.913 587.203 Q126.547 587.203 128.353 583.661 Q130.182 580.097 130.182 572.99 Q130.182 565.861 128.353 562.319 Q126.547 558.754 122.913 558.754 M122.913 555.05 Q128.723 555.05 131.779 559.657 Q134.857 564.24 134.857 572.99 Q134.857 581.717 131.779 586.323 Q128.723 590.907 122.913 590.907 Q117.103 590.907 114.024 586.323 Q110.969 581.717 110.969 572.99 Q110.969 564.24 114.024 559.657 Q117.103 555.05 122.913 555.05 Z" fill="#000000" fill-rule="nonzero" fill-opacity="1" /><path clip-path="url(#clip860)" d="M66.7559 165.96 Q70.1124 166.677 71.9874 168.946 Q73.8855 171.214 73.8855 174.548 Q73.8855 179.663 70.367 182.464 Q66.8485 185.265 60.3671 185.265 Q58.1912 185.265 55.8764 184.825 Q53.5847 184.409 51.131 183.552 L51.131 179.038 Q53.0754 180.173 55.3903 180.751 Q57.7051 181.33 60.2282 181.33 Q64.6263 181.33 66.918 179.594 Q69.2328 177.858 69.2328 174.548 Q69.2328 171.492 67.08 169.779 Q64.9504 168.043 61.131 168.043 L57.1032 168.043 L57.1032 164.201 L61.3161 164.201 Q64.7652 164.201 66.5939 162.835 Q68.4226 161.446 68.4226 158.853 Q68.4226 156.191 66.5245 154.779 Q64.6495 153.344 61.131 153.344 Q59.2097 153.344 57.0106 153.761 Q54.8115 154.177 52.1727 155.057 L52.1727 150.89 Q54.8347 150.15 57.1495 149.779 Q59.4875 149.409 61.5476 149.409 Q66.8717 149.409 69.9735 151.84 Q73.0753 154.247 73.0753 158.367 Q73.0753 161.238 71.4318 163.228 Q69.7883 165.196 66.7559 165.96 Z" fill="#000000" fill-rule="nonzero" fill-opacity="1" /><path clip-path="url(#clip860)" d="M92.7512 153.113 Q89.1401 153.113 87.3114 156.677 Q85.5058 160.219 85.5058 167.349 Q85.5058 174.455 87.3114 178.02 Q89.1401 181.562 92.7512 181.562 Q96.3854 181.562 98.1909 178.02 Q100.02 174.455 100.02 167.349 Q100.02 160.219 98.1909 156.677 Q96.3854 153.113 92.7512 153.113 M92.7512 149.409 Q98.5613 149.409 101.617 154.015 Q104.696 158.599 104.696 167.349 Q104.696 176.075 101.617 180.682 Q98.5613 185.265 92.7512 185.265 Q86.941 185.265 83.8623 180.682 Q80.8068 176.075 80.8068 167.349 Q80.8068 158.599 83.8623 154.015 Q86.941 149.409 92.7512 149.409 Z" fill="#000000" fill-rule="nonzero" fill-opacity="1" /><path clip-path="url(#clip860)" d="M122.913 153.113 Q119.302 153.113 117.473 156.677 Q115.668 160.219 115.668 167.349 Q115.668 174.455 117.473 178.02 Q119.302 181.562 122.913 181.562 Q126.547 181.562 128.353 178.02 Q130.182 174.455 130.182 167.349 Q130.182 160.219 128.353 156.677 Q126.547 153.113 122.913 153.113 M122.913 149.409 Q128.723 149.409 131.779 154.015 Q134.857 158.599 134.857 167.349 Q134.857 176.075 131.779 180.682 Q128.723 185.265 122.913 185.265 Q117.103 185.265 114.024 180.682 Q110.969 176.075 110.969 167.349 Q110.969 158.599 114.024 154.015 Q117.103 149.409 122.913 149.409 Z" fill="#000000" fill-rule="nonzero" fill-opacity="1" /><polyline clip-path="url(#clip862)" style="stroke:#009af9; stroke-linecap:round; stroke-linejoin:round; stroke-width:4; stroke-opacity:1; fill:none" points="232.609,155.145 272.97,147.032 313.331,134.863 353.691,126.75 394.052,114.581 434.413,106.468 474.773,94.2985 515.134,86.1857 555.495,101.6 595.855,128.372 636.216,152.305 676.577,181.511 716.937,207.878 757.298,239.518 797.659,268.319 838.019,302.393 878.38,333.627 918.741,369.729 959.102,402.992 999.462,437.066 1039.82,471.951 1080.18,511.298 1120.54,546.994 1160.9,587.153 1201.27,623.661 1241.63,664.225 1281.99,700.732 1322.35,740.891 1362.71,776.587 1403.07,815.935 1443.43,850.82 1483.79,888.95 1524.15,922.213 1564.51,958.315 1604.87,989.549 1645.23,1023.62 1685.59,1052.42 1725.95,1084.06 1766.32,1110.43 1806.68,1135.58 1847.04,1163.57 1887.4,1186.29 1927.76,1211.84 1968.12,1232.53 2008.48,1256.06 2048.84,1274.72 2089.2,1296.62 2129.56,1314.06 2169.92,1335.16 2210.28,1351.79 2250.64,1368.01 2291,1384.24 "/>
<path clip-path="url(#clip860)" d="M1882 196.789 L2280.03 196.789 L2280.03 93.1086 L1882 93.1086  Z" fill="#ffffff" fill-rule="evenodd" fill-opacity="1"/>
<polyline clip-path="url(#clip860)" style="stroke:#000000; stroke-linecap:round; stroke-linejoin:round; stroke-width:4; stroke-opacity:1; fill:none" points="1882,196.789 2280.03,196.789 2280.03,93.1086 1882,93.1086 1882,196.789 "/>
<polyline clip-path="url(#clip860)" style="stroke:#009af9; stroke-linecap:round; stroke-linejoin:round; stroke-width:4; stroke-opacity:1; fill:none" points="1906.24,144.949 2051.7,144.949 "/>
<path clip-path="url(#clip860)" d="M2098.19 128.803 L2098.19 133.363 Q2095.53 132.09 2093.17 131.465 Q2090.81 130.84 2088.61 130.84 Q2084.79 130.84 2082.7 132.321 Q2080.64 133.803 2080.64 136.534 Q2080.64 138.826 2082.01 140.007 Q2083.4 141.164 2087.24 141.882 L2090.07 142.46 Q2095.3 143.456 2097.77 145.979 Q2100.27 148.479 2100.27 152.692 Q2100.27 157.715 2096.89 160.307 Q2093.54 162.9 2087.03 162.9 Q2084.58 162.9 2081.8 162.344 Q2079.05 161.789 2076.08 160.701 L2076.08 155.886 Q2078.93 157.483 2081.66 158.293 Q2084.39 159.104 2087.03 159.104 Q2091.04 159.104 2093.21 157.53 Q2095.39 155.956 2095.39 153.039 Q2095.39 150.493 2093.82 149.057 Q2092.26 147.622 2088.7 146.905 L2085.85 146.349 Q2080.62 145.307 2078.28 143.085 Q2075.95 140.863 2075.95 136.905 Q2075.95 132.321 2079.16 129.682 Q2082.4 127.044 2088.08 127.044 Q2090.51 127.044 2093.03 127.483 Q2095.55 127.923 2098.19 128.803 Z" fill="#000000" fill-rule="nonzero" fill-opacity="1" /><path clip-path="url(#clip860)" d="M2111.59 128.942 L2111.59 136.303 L2120.37 136.303 L2120.37 139.613 L2111.59 139.613 L2111.59 153.687 Q2111.59 156.858 2112.45 157.761 Q2113.33 158.664 2115.99 158.664 L2120.37 158.664 L2120.37 162.229 L2115.99 162.229 Q2111.06 162.229 2109.19 160.4 Q2107.31 158.548 2107.31 153.687 L2107.31 139.613 L2104.19 139.613 L2104.19 136.303 L2107.31 136.303 L2107.31 128.942 L2111.59 128.942 Z" fill="#000000" fill-rule="nonzero" fill-opacity="1" /><path clip-path="url(#clip860)" d="M2136.01 139.289 Q2132.59 139.289 2130.6 141.974 Q2128.61 144.636 2128.61 149.289 Q2128.61 153.942 2130.57 156.627 Q2132.57 159.289 2136.01 159.289 Q2139.42 159.289 2141.41 156.604 Q2143.4 153.918 2143.4 149.289 Q2143.4 144.682 2141.41 141.997 Q2139.42 139.289 2136.01 139.289 M2136.01 135.678 Q2141.57 135.678 2144.74 139.289 Q2147.91 142.9 2147.91 149.289 Q2147.91 155.655 2144.74 159.289 Q2141.57 162.9 2136.01 162.9 Q2130.44 162.9 2127.26 159.289 Q2124.12 155.655 2124.12 149.289 Q2124.12 142.9 2127.26 139.289 Q2130.44 135.678 2136.01 135.678 Z" fill="#000000" fill-rule="nonzero" fill-opacity="1" /><path clip-path="url(#clip860)" d="M2170 140.284 Q2169.28 139.868 2168.42 139.682 Q2167.59 139.474 2166.57 139.474 Q2162.96 139.474 2161.01 141.835 Q2159.09 144.173 2159.09 148.571 L2159.09 162.229 L2154.81 162.229 L2154.81 136.303 L2159.09 136.303 L2159.09 140.331 Q2160.44 137.969 2162.59 136.835 Q2164.74 135.678 2167.82 135.678 Q2168.26 135.678 2168.79 135.747 Q2169.32 135.794 2169.97 135.909 L2170 140.284 Z" fill="#000000" fill-rule="nonzero" fill-opacity="1" /><path clip-path="url(#clip860)" d="M2186.25 149.196 Q2181.08 149.196 2179.09 150.377 Q2177.1 151.557 2177.1 154.405 Q2177.1 156.673 2178.58 158.016 Q2180.09 159.335 2182.66 159.335 Q2186.2 159.335 2188.33 156.835 Q2190.48 154.312 2190.48 150.145 L2190.48 149.196 L2186.25 149.196 M2194.74 147.437 L2194.74 162.229 L2190.48 162.229 L2190.48 158.293 Q2189.02 160.655 2186.85 161.789 Q2184.67 162.9 2181.52 162.9 Q2177.54 162.9 2175.18 160.678 Q2172.84 158.432 2172.84 154.682 Q2172.84 150.307 2175.76 148.085 Q2178.7 145.863 2184.51 145.863 L2190.48 145.863 L2190.48 145.446 Q2190.48 142.507 2188.54 140.909 Q2186.62 139.289 2183.12 139.289 Q2180.9 139.289 2178.79 139.821 Q2176.69 140.354 2174.74 141.419 L2174.74 137.483 Q2177.08 136.581 2179.28 136.141 Q2181.48 135.678 2183.56 135.678 Q2189.19 135.678 2191.96 138.594 Q2194.74 141.511 2194.74 147.437 Z" fill="#000000" fill-rule="nonzero" fill-opacity="1" /><path clip-path="url(#clip860)" d="M2220.57 148.965 Q2220.57 144.335 2218.65 141.789 Q2216.76 139.243 2213.31 139.243 Q2209.88 139.243 2207.96 141.789 Q2206.06 144.335 2206.06 148.965 Q2206.06 153.571 2207.96 156.118 Q2209.88 158.664 2213.31 158.664 Q2216.76 158.664 2218.65 156.118 Q2220.57 153.571 2220.57 148.965 M2224.83 159.011 Q2224.83 165.631 2221.89 168.849 Q2218.95 172.09 2212.89 172.09 Q2210.64 172.09 2208.65 171.742 Q2206.66 171.418 2204.79 170.724 L2204.79 166.58 Q2206.66 167.599 2208.49 168.085 Q2210.32 168.571 2212.22 168.571 Q2216.41 168.571 2218.49 166.372 Q2220.57 164.196 2220.57 159.775 L2220.57 157.668 Q2219.26 159.96 2217.19 161.094 Q2215.13 162.229 2212.26 162.229 Q2207.5 162.229 2204.58 158.594 Q2201.66 154.96 2201.66 148.965 Q2201.66 142.946 2204.58 139.312 Q2207.5 135.678 2212.26 135.678 Q2215.13 135.678 2217.19 136.812 Q2219.26 137.946 2220.57 140.238 L2220.57 136.303 L2224.83 136.303 L2224.83 159.011 Z" fill="#000000" fill-rule="nonzero" fill-opacity="1" /><path clip-path="url(#clip860)" d="M2255.78 148.201 L2255.78 150.284 L2236.2 150.284 Q2236.48 154.682 2238.84 156.997 Q2241.22 159.289 2245.46 159.289 Q2247.91 159.289 2250.2 158.687 Q2252.52 158.085 2254.79 156.881 L2254.79 160.909 Q2252.5 161.881 2250.09 162.391 Q2247.68 162.9 2245.2 162.9 Q2239 162.9 2235.37 159.289 Q2231.75 155.678 2231.75 149.52 Q2231.75 143.155 2235.18 139.428 Q2238.63 135.678 2244.46 135.678 Q2249.69 135.678 2252.73 139.057 Q2255.78 142.414 2255.78 148.201 M2251.52 146.951 Q2251.48 143.456 2249.56 141.372 Q2247.66 139.289 2244.51 139.289 Q2240.94 139.289 2238.79 141.303 Q2236.66 143.317 2236.34 146.974 L2251.52 146.951 Z" fill="#000000" fill-rule="nonzero" fill-opacity="1" /></svg>
