<?xml version="1.0" encoding="utf-8"?>
<svg xmlns="http://www.w3.org/2000/svg" xmlns:xlink="http://www.w3.org/1999/xlink" width="600" height="400" viewBox="0 0 2400 1600">
<defs>
  <clipPath id="clip680">
    <rect x="0" y="0" width="2400" height="1600"/>
  </clipPath>
</defs>
<path clip-path="url(#clip680)" d="M0 1600 L2400 1600 L2400 0 L0 0  Z" fill="#ffffff" fill-rule="evenodd" fill-opacity="1"/>
<defs>
  <clipPath id="clip681">
    <rect x="480" y="0" width="1681" height="1600"/>
  </clipPath>
</defs>
<path clip-path="url(#clip680)" d="M249.195 398.692 L2352.76 398.692 L2352.76 47.2441 L249.195 47.2441  Z" fill="#ffffff" fill-rule="evenodd" fill-opacity="1"/>
<defs>
  <clipPath id="clip682">
    <rect x="249" y="47" width="2105" height="352"/>
  </clipPath>
</defs>
<polyline clip-path="url(#clip682)" style="stroke:#000000; stroke-linecap:round; stroke-linejoin:round; stroke-width:2; stroke-opacity:0.1; fill:none" points="269.818,398.692 269.818,47.2441 "/>
<polyline clip-path="url(#clip682)" style="stroke:#000000; stroke-linecap:round; stroke-linejoin:round; stroke-width:2; stroke-opacity:0.1; fill:none" points="658.934,398.692 658.934,47.2441 "/>
<polyline clip-path="url(#clip682)" style="stroke:#000000; stroke-linecap:round; stroke-linejoin:round; stroke-width:2; stroke-opacity:0.1; fill:none" points="1048.05,398.692 1048.05,47.2441 "/>
<polyline clip-path="url(#clip682)" style="stroke:#000000; stroke-linecap:round; stroke-linejoin:round; stroke-width:2; stroke-opacity:0.1; fill:none" points="1437.17,398.692 1437.17,47.2441 "/>
<polyline clip-path="url(#clip682)" style="stroke:#000000; stroke-linecap:round; stroke-linejoin:round; stroke-width:2; stroke-opacity:0.1; fill:none" points="1826.28,398.692 1826.28,47.2441 "/>
<polyline clip-path="url(#clip682)" style="stroke:#000000; stroke-linecap:round; stroke-linejoin:round; stroke-width:2; stroke-opacity:0.1; fill:none" points="2215.4,398.692 2215.4,47.2441 "/>
<polyline clip-path="url(#clip682)" style="stroke:#000000; stroke-linecap:round; stroke-linejoin:round; stroke-width:2; stroke-opacity:0.1; fill:none" points="249.195,388.745 2352.76,388.745 "/>
<polyline clip-path="url(#clip682)" style="stroke:#000000; stroke-linecap:round; stroke-linejoin:round; stroke-width:2; stroke-opacity:0.1; fill:none" points="249.195,305.857 2352.76,305.857 "/>
<polyline clip-path="url(#clip682)" style="stroke:#000000; stroke-linecap:round; stroke-linejoin:round; stroke-width:2; stroke-opacity:0.1; fill:none" points="249.195,222.968 2352.76,222.968 "/>
<polyline clip-path="url(#clip682)" style="stroke:#000000; stroke-linecap:round; stroke-linejoin:round; stroke-width:2; stroke-opacity:0.1; fill:none" points="249.195,140.079 2352.76,140.079 "/>
<polyline clip-path="url(#clip682)" style="stroke:#000000; stroke-linecap:round; stroke-linejoin:round; stroke-width:2; stroke-opacity:0.1; fill:none" points="249.195,57.1907 2352.76,57.1907 "/>
<polyline clip-path="url(#clip680)" style="stroke:#000000; stroke-linecap:round; stroke-linejoin:round; stroke-width:4; stroke-opacity:1; fill:none" points="249.195,398.692 2352.76,398.692 "/>
<polyline clip-path="url(#clip680)" style="stroke:#000000; stroke-linecap:round; stroke-linejoin:round; stroke-width:4; stroke-opacity:1; fill:none" points="269.818,398.692 269.818,379.794 "/>
<polyline clip-path="url(#clip680)" style="stroke:#000000; stroke-linecap:round; stroke-linejoin:round; stroke-width:4; stroke-opacity:1; fill:none" points="658.934,398.692 658.934,379.794 "/>
<polyline clip-path="url(#clip680)" style="stroke:#000000; stroke-linecap:round; stroke-linejoin:round; stroke-width:4; stroke-opacity:1; fill:none" points="1048.05,398.692 1048.05,379.794 "/>
<polyline clip-path="url(#clip680)" style="stroke:#000000; stroke-linecap:round; stroke-linejoin:round; stroke-width:4; stroke-opacity:1; fill:none" points="1437.17,398.692 1437.17,379.794 "/>
<polyline clip-path="url(#clip680)" style="stroke:#000000; stroke-linecap:round; stroke-linejoin:round; stroke-width:4; stroke-opacity:1; fill:none" points="1826.28,398.692 1826.28,379.794 "/>
<polyline clip-path="url(#clip680)" style="stroke:#000000; stroke-linecap:round; stroke-linejoin:round; stroke-width:4; stroke-opacity:1; fill:none" points="2215.4,398.692 2215.4,379.794 "/>
<path clip-path="url(#clip680)" d="M269.818 429.611 Q266.207 429.611 264.378 433.175 Q262.573 436.717 262.573 443.847 Q262.573 450.953 264.378 454.518 Q266.207 458.059 269.818 458.059 Q273.452 458.059 275.258 454.518 Q277.086 450.953 277.086 443.847 Q277.086 436.717 275.258 433.175 Q273.452 429.611 269.818 429.611 M269.818 425.907 Q275.628 425.907 278.684 430.513 Q281.762 435.097 281.762 443.847 Q281.762 452.573 278.684 457.18 Q275.628 461.763 269.818 461.763 Q264.008 461.763 260.929 457.18 Q257.874 452.573 257.874 443.847 Q257.874 435.097 260.929 430.513 Q264.008 425.907 269.818 425.907 Z" fill="#000000" fill-rule="nonzero" fill-opacity="1" /><path clip-path="url(#clip680)" d="M633.622 457.157 L641.26 457.157 L641.26 430.791 L632.95 432.458 L632.95 428.199 L641.214 426.532 L645.89 426.532 L645.89 457.157 L653.529 457.157 L653.529 461.092 L633.622 461.092 L633.622 457.157 Z" fill="#000000" fill-rule="nonzero" fill-opacity="1" /><path clip-path="url(#clip680)" d="M672.973 429.611 Q669.362 429.611 667.533 433.175 Q665.728 436.717 665.728 443.847 Q665.728 450.953 667.533 454.518 Q669.362 458.059 672.973 458.059 Q676.607 458.059 678.413 454.518 Q680.242 450.953 680.242 443.847 Q680.242 436.717 678.413 433.175 Q676.607 429.611 672.973 429.611 M672.973 425.907 Q678.783 425.907 681.839 430.513 Q684.918 435.097 684.918 443.847 Q684.918 452.573 681.839 457.18 Q678.783 461.763 672.973 461.763 Q667.163 461.763 664.084 457.18 Q661.029 452.573 661.029 443.847 Q661.029 435.097 664.084 430.513 Q667.163 425.907 672.973 425.907 Z" fill="#000000" fill-rule="nonzero" fill-opacity="1" /><path clip-path="url(#clip680)" d="M1026.82 457.157 L1043.14 457.157 L1043.14 461.092 L1021.2 461.092 L1021.2 457.157 Q1023.86 454.402 1028.44 449.772 Q1033.05 445.12 1034.23 443.777 Q1036.48 441.254 1037.36 439.518 Q1038.26 437.759 1038.26 436.069 Q1038.26 433.314 1036.31 431.578 Q1034.39 429.842 1031.29 429.842 Q1029.09 429.842 1026.64 430.606 Q1024.21 431.37 1021.43 432.921 L1021.43 428.199 Q1024.25 427.064 1026.71 426.486 Q1029.16 425.907 1031.2 425.907 Q1036.57 425.907 1039.76 428.592 Q1042.96 431.277 1042.96 435.768 Q1042.96 437.898 1042.15 439.819 Q1041.36 441.717 1039.25 444.31 Q1038.68 444.981 1035.57 448.198 Q1032.47 451.393 1026.82 457.157 Z" fill="#000000" fill-rule="nonzero" fill-opacity="1" /><path clip-path="url(#clip680)" d="M1062.96 429.611 Q1059.35 429.611 1057.52 433.175 Q1055.71 436.717 1055.71 443.847 Q1055.71 450.953 1057.52 454.518 Q1059.35 458.059 1062.96 458.059 Q1066.59 458.059 1068.4 454.518 Q1070.23 450.953 1070.23 443.847 Q1070.23 436.717 1068.4 433.175 Q1066.59 429.611 1062.96 429.611 M1062.96 425.907 Q1068.77 425.907 1071.82 430.513 Q1074.9 435.097 1074.9 443.847 Q1074.9 452.573 1071.82 457.18 Q1068.77 461.763 1062.96 461.763 Q1057.15 461.763 1054.07 457.18 Q1051.01 452.573 1051.01 443.847 Q1051.01 435.097 1054.07 430.513 Q1057.15 425.907 1062.96 425.907 Z" fill="#000000" fill-rule="nonzero" fill-opacity="1" /><path clip-path="url(#clip680)" d="M1426.01 442.458 Q1429.37 443.175 1431.24 445.444 Q1433.14 447.712 1433.14 451.046 Q1433.14 456.161 1429.62 458.962 Q1426.1 461.763 1419.62 461.763 Q1417.44 461.763 1415.13 461.323 Q1412.84 460.907 1410.38 460.05 L1410.38 455.536 Q1412.33 456.671 1414.64 457.249 Q1416.96 457.828 1419.48 457.828 Q1423.88 457.828 1426.17 456.092 Q1428.49 454.356 1428.49 451.046 Q1428.49 447.99 1426.33 446.277 Q1424.2 444.541 1420.38 444.541 L1416.36 444.541 L1416.36 440.698 L1420.57 440.698 Q1424.02 440.698 1425.85 439.333 Q1427.68 437.944 1427.68 435.351 Q1427.68 432.689 1425.78 431.277 Q1423.9 429.842 1420.38 429.842 Q1418.46 429.842 1416.26 430.259 Q1414.06 430.675 1411.43 431.555 L1411.43 427.388 Q1414.09 426.648 1416.4 426.277 Q1418.74 425.907 1420.8 425.907 Q1426.12 425.907 1429.23 428.337 Q1432.33 430.745 1432.33 434.865 Q1432.33 437.736 1430.68 439.726 Q1429.04 441.694 1426.01 442.458 Z" fill="#000000" fill-rule="nonzero" fill-opacity="1" /><path clip-path="url(#clip680)" d="M1452 429.611 Q1448.39 429.611 1446.56 433.175 Q1444.76 436.717 1444.76 443.847 Q1444.76 450.953 1446.56 454.518 Q1448.39 458.059 1452 458.059 Q1455.64 458.059 1457.44 454.518 Q1459.27 450.953 1459.27 443.847 Q1459.27 436.717 1457.44 433.175 Q1455.64 429.611 1452 429.611 M1452 425.907 Q1457.81 425.907 1460.87 430.513 Q1463.95 435.097 1463.95 443.847 Q1463.95 452.573 1460.87 457.18 Q1457.81 461.763 1452 461.763 Q1446.19 461.763 1443.12 457.18 Q1440.06 452.573 1440.06 443.847 Q1440.06 435.097 1443.12 430.513 Q1446.19 425.907 1452 425.907 Z" fill="#000000" fill-rule="nonzero" fill-opacity="1" /><path clip-path="url(#clip680)" d="M1814.45 430.606 L1802.65 449.055 L1814.45 449.055 L1814.45 430.606 M1813.23 426.532 L1819.11 426.532 L1819.11 449.055 L1824.04 449.055 L1824.04 452.944 L1819.11 452.944 L1819.11 461.092 L1814.45 461.092 L1814.45 452.944 L1798.85 452.944 L1798.85 448.43 L1813.23 426.532 Z" fill="#000000" fill-rule="nonzero" fill-opacity="1" /><path clip-path="url(#clip680)" d="M1841.77 429.611 Q1838.16 429.611 1836.33 433.175 Q1834.52 436.717 1834.52 443.847 Q1834.52 450.953 1836.33 454.518 Q1838.16 458.059 1841.77 458.059 Q1845.4 458.059 1847.21 454.518 Q1849.04 450.953 1849.04 443.847 Q1849.04 436.717 1847.21 433.175 Q1845.4 429.611 1841.77 429.611 M1841.77 425.907 Q1847.58 425.907 1850.63 430.513 Q1853.71 435.097 1853.71 443.847 Q1853.71 452.573 1850.63 457.18 Q1847.58 461.763 1841.77 461.763 Q1835.96 461.763 1832.88 457.18 Q1829.82 452.573 1829.82 443.847 Q1829.82 435.097 1832.88 430.513 Q1835.96 425.907 1841.77 425.907 Z" fill="#000000" fill-rule="nonzero" fill-opacity="1" /><path clip-path="url(#clip680)" d="M2190.1 426.532 L2208.45 426.532 L2208.45 430.467 L2194.38 430.467 L2194.38 438.939 Q2195.4 438.592 2196.42 438.43 Q2197.44 438.245 2198.45 438.245 Q2204.24 438.245 2207.62 441.416 Q2211 444.587 2211 450.004 Q2211 455.583 2207.53 458.684 Q2204.06 461.763 2197.74 461.763 Q2195.56 461.763 2193.29 461.393 Q2191.05 461.022 2188.64 460.282 L2188.64 455.583 Q2190.72 456.717 2192.94 457.272 Q2195.17 457.828 2197.64 457.828 Q2201.65 457.828 2203.99 455.722 Q2206.32 453.615 2206.32 450.004 Q2206.32 446.393 2203.99 444.286 Q2201.65 442.18 2197.64 442.18 Q2195.77 442.18 2193.89 442.597 Q2192.04 443.013 2190.1 443.893 L2190.1 426.532 Z" fill="#000000" fill-rule="nonzero" fill-opacity="1" /><path clip-path="url(#clip680)" d="M2230.21 429.611 Q2226.6 429.611 2224.77 433.175 Q2222.97 436.717 2222.97 443.847 Q2222.97 450.953 2224.77 454.518 Q2226.6 458.059 2230.21 458.059 Q2233.85 458.059 2235.65 454.518 Q2237.48 450.953 2237.48 443.847 Q2237.48 436.717 2235.65 433.175 Q2233.85 429.611 2230.21 429.611 M2230.21 425.907 Q2236.02 425.907 2239.08 430.513 Q2242.16 435.097 2242.16 443.847 Q2242.16 452.573 2239.08 457.18 Q2236.02 461.763 2230.21 461.763 Q2224.4 461.763 2221.32 457.18 Q2218.27 452.573 2218.27 443.847 Q2218.27 435.097 2221.32 430.513 Q2224.4 425.907 2230.21 425.907 Z" fill="#000000" fill-rule="nonzero" fill-opacity="1" /><polyline clip-path="url(#clip680)" style="stroke:#000000; stroke-linecap:round; stroke-linejoin:round; stroke-width:4; stroke-opacity:1; fill:none" points="249.195,398.692 249.195,47.2441 "/>
<polyline clip-path="url(#clip680)" style="stroke:#000000; stroke-linecap:round; stroke-linejoin:round; stroke-width:4; stroke-opacity:1; fill:none" points="249.195,388.745 268.092,388.745 "/>
<polyline clip-path="url(#clip680)" style="stroke:#000000; stroke-linecap:round; stroke-linejoin:round; stroke-width:4; stroke-opacity:1; fill:none" points="249.195,305.857 268.092,305.857 "/>
<polyline clip-path="url(#clip680)" style="stroke:#000000; stroke-linecap:round; stroke-linejoin:round; stroke-width:4; stroke-opacity:1; fill:none" points="249.195,222.968 268.092,222.968 "/>
<polyline clip-path="url(#clip680)" style="stroke:#000000; stroke-linecap:round; stroke-linejoin:round; stroke-width:4; stroke-opacity:1; fill:none" points="249.195,140.079 268.092,140.079 "/>
<polyline clip-path="url(#clip680)" style="stroke:#000000; stroke-linecap:round; stroke-linejoin:round; stroke-width:4; stroke-opacity:1; fill:none" points="249.195,57.1907 268.092,57.1907 "/>
<path clip-path="url(#clip680)" d="M119.885 402.09 L136.204 402.09 L136.204 406.025 L114.26 406.025 L114.26 402.09 Q116.922 399.335 121.505 394.706 Q126.112 390.053 127.292 388.711 Q129.538 386.187 130.417 384.451 Q131.32 382.692 131.32 381.002 Q131.32 378.248 129.376 376.511 Q127.455 374.775 124.353 374.775 Q122.154 374.775 119.7 375.539 Q117.269 376.303 114.492 377.854 L114.492 373.132 Q117.316 371.998 119.769 371.419 Q122.223 370.84 124.26 370.84 Q129.63 370.84 132.825 373.525 Q136.019 376.211 136.019 380.701 Q136.019 382.831 135.209 384.752 Q134.422 386.65 132.316 389.243 Q131.737 389.914 128.635 393.132 Q125.533 396.326 119.885 402.09 Z" fill="#000000" fill-rule="nonzero" fill-opacity="1" /><path clip-path="url(#clip680)" d="M146.019 400.146 L150.903 400.146 L150.903 406.025 L146.019 406.025 L146.019 400.146 Z" fill="#000000" fill-rule="nonzero" fill-opacity="1" /><path clip-path="url(#clip680)" d="M171.089 374.544 Q167.477 374.544 165.649 378.109 Q163.843 381.65 163.843 388.78 Q163.843 395.886 165.649 399.451 Q167.477 402.993 171.089 402.993 Q174.723 402.993 176.528 399.451 Q178.357 395.886 178.357 388.78 Q178.357 381.65 176.528 378.109 Q174.723 374.544 171.089 374.544 M171.089 370.84 Q176.899 370.84 179.954 375.447 Q183.033 380.03 183.033 388.78 Q183.033 397.507 179.954 402.113 Q176.899 406.697 171.089 406.697 Q165.278 406.697 162.2 402.113 Q159.144 397.507 159.144 388.78 Q159.144 380.03 162.2 375.447 Q165.278 370.84 171.089 370.84 Z" fill="#000000" fill-rule="nonzero" fill-opacity="1" /><path clip-path="url(#clip680)" d="M201.25 374.544 Q197.639 374.544 195.811 378.109 Q194.005 381.65 194.005 388.78 Q194.005 395.886 195.811 399.451 Q197.639 402.993 201.25 402.993 Q204.885 402.993 206.69 399.451 Q208.519 395.886 208.519 388.78 Q208.519 381.65 206.69 378.109 Q204.885 374.544 201.25 374.544 M201.25 370.84 Q207.061 370.84 210.116 375.447 Q213.195 380.03 213.195 388.78 Q213.195 397.507 210.116 402.113 Q207.061 406.697 201.25 406.697 Q195.44 406.697 192.362 402.113 Q189.306 397.507 189.306 388.78 Q189.306 380.03 192.362 375.447 Q195.44 370.84 201.25 370.84 Z" fill="#000000" fill-rule="nonzero" fill-opacity="1" /><path clip-path="url(#clip680)" d="M120.88 319.201 L137.2 319.201 L137.2 323.137 L115.256 323.137 L115.256 319.201 Q117.918 316.447 122.501 311.817 Q127.107 307.164 128.288 305.822 Q130.533 303.299 131.413 301.563 Q132.316 299.803 132.316 298.114 Q132.316 295.359 130.371 293.623 Q128.45 291.887 125.348 291.887 Q123.149 291.887 120.695 292.651 Q118.265 293.415 115.487 294.965 L115.487 290.243 Q118.311 289.109 120.765 288.53 Q123.218 287.952 125.255 287.952 Q130.626 287.952 133.82 290.637 Q137.015 293.322 137.015 297.813 Q137.015 299.942 136.204 301.864 Q135.417 303.762 133.311 306.354 Q132.732 307.026 129.63 310.243 Q126.529 313.438 120.88 319.201 Z" fill="#000000" fill-rule="nonzero" fill-opacity="1" /><path clip-path="url(#clip680)" d="M147.015 317.257 L151.899 317.257 L151.899 323.137 L147.015 323.137 L147.015 317.257 Z" fill="#000000" fill-rule="nonzero" fill-opacity="1" /><path clip-path="url(#clip680)" d="M166.112 319.201 L182.431 319.201 L182.431 323.137 L160.487 323.137 L160.487 319.201 Q163.149 316.447 167.732 311.817 Q172.339 307.164 173.519 305.822 Q175.764 303.299 176.644 301.563 Q177.547 299.803 177.547 298.114 Q177.547 295.359 175.602 293.623 Q173.681 291.887 170.579 291.887 Q168.38 291.887 165.927 292.651 Q163.496 293.415 160.718 294.965 L160.718 290.243 Q163.542 289.109 165.996 288.53 Q168.45 287.952 170.487 287.952 Q175.857 287.952 179.051 290.637 Q182.246 293.322 182.246 297.813 Q182.246 299.942 181.436 301.864 Q180.649 303.762 178.542 306.354 Q177.964 307.026 174.862 310.243 Q171.76 313.438 166.112 319.201 Z" fill="#000000" fill-rule="nonzero" fill-opacity="1" /><path clip-path="url(#clip680)" d="M192.292 288.577 L210.649 288.577 L210.649 292.512 L196.575 292.512 L196.575 300.984 Q197.593 300.637 198.612 300.475 Q199.63 300.29 200.649 300.29 Q206.436 300.29 209.815 303.461 Q213.195 306.632 213.195 312.049 Q213.195 317.627 209.723 320.729 Q206.25 323.808 199.931 323.808 Q197.755 323.808 195.487 323.438 Q193.241 323.067 190.834 322.326 L190.834 317.627 Q192.917 318.762 195.139 319.317 Q197.362 319.873 199.838 319.873 Q203.843 319.873 206.181 317.766 Q208.519 315.66 208.519 312.049 Q208.519 308.438 206.181 306.331 Q203.843 304.225 199.838 304.225 Q197.963 304.225 196.088 304.641 Q194.237 305.058 192.292 305.938 L192.292 288.577 Z" fill="#000000" fill-rule="nonzero" fill-opacity="1" /><path clip-path="url(#clip680)" d="M119.885 236.313 L136.204 236.313 L136.204 240.248 L114.26 240.248 L114.26 236.313 Q116.922 233.558 121.505 228.929 Q126.112 224.276 127.292 222.933 Q129.538 220.41 130.417 218.674 Q131.32 216.915 131.32 215.225 Q131.32 212.47 129.376 210.734 Q127.455 208.998 124.353 208.998 Q122.154 208.998 119.7 209.762 Q117.269 210.526 114.492 212.077 L114.492 207.355 Q117.316 206.22 119.769 205.642 Q122.223 205.063 124.26 205.063 Q129.63 205.063 132.825 207.748 Q136.019 210.433 136.019 214.924 Q136.019 217.054 135.209 218.975 Q134.422 220.873 132.316 223.466 Q131.737 224.137 128.635 227.355 Q125.533 230.549 119.885 236.313 Z" fill="#000000" fill-rule="nonzero" fill-opacity="1" /><path clip-path="url(#clip680)" d="M146.019 234.368 L150.903 234.368 L150.903 240.248 L146.019 240.248 L146.019 234.368 Z" fill="#000000" fill-rule="nonzero" fill-opacity="1" /><path clip-path="url(#clip680)" d="M161.135 205.688 L179.491 205.688 L179.491 209.623 L165.417 209.623 L165.417 218.095 Q166.436 217.748 167.454 217.586 Q168.473 217.401 169.491 217.401 Q175.278 217.401 178.658 220.572 Q182.038 223.743 182.038 229.16 Q182.038 234.739 178.565 237.841 Q175.093 240.919 168.774 240.919 Q166.598 240.919 164.329 240.549 Q162.084 240.179 159.677 239.438 L159.677 234.739 Q161.76 235.873 163.982 236.429 Q166.204 236.984 168.681 236.984 Q172.686 236.984 175.024 234.878 Q177.362 232.771 177.362 229.16 Q177.362 225.549 175.024 223.443 Q172.686 221.336 168.681 221.336 Q166.806 221.336 164.931 221.753 Q163.079 222.169 161.135 223.049 L161.135 205.688 Z" fill="#000000" fill-rule="nonzero" fill-opacity="1" /><path clip-path="url(#clip680)" d="M201.25 208.767 Q197.639 208.767 195.811 212.331 Q194.005 215.873 194.005 223.003 Q194.005 230.109 195.811 233.674 Q197.639 237.216 201.25 237.216 Q204.885 237.216 206.69 233.674 Q208.519 230.109 208.519 223.003 Q208.519 215.873 206.69 212.331 Q204.885 208.767 201.25 208.767 M201.25 205.063 Q207.061 205.063 210.116 209.669 Q213.195 214.253 213.195 223.003 Q213.195 231.73 210.116 236.336 Q207.061 240.919 201.25 240.919 Q195.44 240.919 192.362 236.336 Q189.306 231.73 189.306 223.003 Q189.306 214.253 192.362 209.669 Q195.44 205.063 201.25 205.063 Z" fill="#000000" fill-rule="nonzero" fill-opacity="1" /><path clip-path="url(#clip680)" d="M120.88 153.424 L137.2 153.424 L137.2 157.359 L115.256 157.359 L115.256 153.424 Q117.918 150.67 122.501 146.04 Q127.107 141.387 128.288 140.045 Q130.533 137.521 131.413 135.785 Q132.316 134.026 132.316 132.336 Q132.316 129.582 130.371 127.846 Q128.45 126.11 125.348 126.11 Q123.149 126.11 120.695 126.873 Q118.265 127.637 115.487 129.188 L115.487 124.466 Q118.311 123.332 120.765 122.753 Q123.218 122.174 125.255 122.174 Q130.626 122.174 133.82 124.86 Q137.015 127.545 137.015 132.035 Q137.015 134.165 136.204 136.086 Q135.417 137.984 133.311 140.577 Q132.732 141.248 129.63 144.466 Q126.529 147.66 120.88 153.424 Z" fill="#000000" fill-rule="nonzero" fill-opacity="1" /><path clip-path="url(#clip680)" d="M147.015 151.48 L151.899 151.48 L151.899 157.359 L147.015 157.359 L147.015 151.48 Z" fill="#000000" fill-rule="nonzero" fill-opacity="1" /><path clip-path="url(#clip680)" d="M160.903 122.799 L183.126 122.799 L183.126 124.79 L170.579 157.359 L165.695 157.359 L177.501 126.735 L160.903 126.735 L160.903 122.799 Z" fill="#000000" fill-rule="nonzero" fill-opacity="1" /><path clip-path="url(#clip680)" d="M192.292 122.799 L210.649 122.799 L210.649 126.735 L196.575 126.735 L196.575 135.207 Q197.593 134.859 198.612 134.697 Q199.63 134.512 200.649 134.512 Q206.436 134.512 209.815 137.684 Q213.195 140.855 213.195 146.271 Q213.195 151.85 209.723 154.952 Q206.25 158.031 199.931 158.031 Q197.755 158.031 195.487 157.66 Q193.241 157.29 190.834 156.549 L190.834 151.85 Q192.917 152.984 195.139 153.54 Q197.362 154.095 199.838 154.095 Q203.843 154.095 206.181 151.989 Q208.519 149.883 208.519 146.271 Q208.519 142.66 206.181 140.554 Q203.843 138.447 199.838 138.447 Q197.963 138.447 196.088 138.864 Q194.237 139.281 192.292 140.16 L192.292 122.799 Z" fill="#000000" fill-rule="nonzero" fill-opacity="1" /><path clip-path="url(#clip680)" d="M130.024 55.8366 Q133.38 56.5542 135.255 58.8227 Q137.154 61.0912 137.154 64.4245 Q137.154 69.5402 133.635 72.3411 Q130.117 75.142 123.635 75.142 Q121.459 75.142 119.144 74.7022 Q116.853 74.2855 114.399 73.4291 L114.399 68.9152 Q116.343 70.0495 118.658 70.6282 Q120.973 71.2069 123.496 71.2069 Q127.894 71.2069 130.186 69.4708 Q132.501 67.7347 132.501 64.4245 Q132.501 61.3689 130.348 59.656 Q128.218 57.9199 124.399 57.9199 L120.371 57.9199 L120.371 54.0773 L124.584 54.0773 Q128.033 54.0773 129.862 52.7116 Q131.691 51.3227 131.691 48.7301 Q131.691 46.0681 129.792 44.6561 Q127.917 43.2209 124.399 43.2209 Q122.478 43.2209 120.279 43.6376 Q118.08 44.0542 115.441 44.9339 L115.441 40.7672 Q118.103 40.0265 120.418 39.6561 Q122.755 39.2857 124.816 39.2857 Q130.14 39.2857 133.242 41.7163 Q136.343 44.1237 136.343 48.244 Q136.343 51.1144 134.7 53.1051 Q133.056 55.0727 130.024 55.8366 Z" fill="#000000" fill-rule="nonzero" fill-opacity="1" /><path clip-path="url(#clip680)" d="M146.019 68.5911 L150.903 68.5911 L150.903 74.4707 L146.019 74.4707 L146.019 68.5911 Z" fill="#000000" fill-rule="nonzero" fill-opacity="1" /><path clip-path="url(#clip680)" d="M171.089 42.9894 Q167.477 42.9894 165.649 46.5542 Q163.843 50.0959 163.843 57.2255 Q163.843 64.3319 165.649 67.8967 Q167.477 71.4383 171.089 71.4383 Q174.723 71.4383 176.528 67.8967 Q178.357 64.3319 178.357 57.2255 Q178.357 50.0959 176.528 46.5542 Q174.723 42.9894 171.089 42.9894 M171.089 39.2857 Q176.899 39.2857 179.954 43.8922 Q183.033 48.4755 183.033 57.2255 Q183.033 65.9523 179.954 70.5587 Q176.899 75.142 171.089 75.142 Q165.278 75.142 162.2 70.5587 Q159.144 65.9523 159.144 57.2255 Q159.144 48.4755 162.2 43.8922 Q165.278 39.2857 171.089 39.2857 Z" fill="#000000" fill-rule="nonzero" fill-opacity="1" /><path clip-path="url(#clip680)" d="M201.25 42.9894 Q197.639 42.9894 195.811 46.5542 Q194.005 50.0959 194.005 57.2255 Q194.005 64.3319 195.811 67.8967 Q197.639 71.4383 201.25 71.4383 Q204.885 71.4383 206.69 67.8967 Q208.519 64.3319 208.519 57.2255 Q208.519 50.0959 206.69 46.5542 Q204.885 42.9894 201.25 42.9894 M201.25 39.2857 Q207.061 39.2857 210.116 43.8922 Q213.195 48.4755 213.195 57.2255 Q213.195 65.9523 210.116 70.5587 Q207.061 75.142 201.25 75.142 Q195.44 75.142 192.362 70.5587 Q189.306 65.9523 189.306 57.2255 Q189.306 48.4755 192.362 43.8922 Q195.44 39.2857 201.25 39.2857 Z" fill="#000000" fill-rule="nonzero" fill-opacity="1" /><path clip-path="url(#clip680)" d="M16.4842 315.796 L16.4842 309.367 L64.0042 309.367 L64.0042 315.796 L16.4842 315.796 Z" fill="#000000" fill-rule="nonzero" fill-opacity="1" /><path clip-path="url(#clip680)" d="M42.4881 267.194 L64.0042 267.194 L64.0042 273.05 L42.679 273.05 Q37.6183 273.05 35.1038 275.024 Q32.5894 276.997 32.5894 280.944 Q32.5894 285.686 35.6131 288.423 Q38.6368 291.161 43.8567 291.161 L64.0042 291.161 L64.0042 297.049 L28.3562 297.049 L28.3562 291.161 L33.8944 291.161 Q30.6797 289.06 29.0883 286.227 Q27.4968 283.363 27.4968 279.639 Q27.4968 273.496 31.3163 270.345 Q35.1038 267.194 42.4881 267.194 Z" fill="#000000" fill-rule="nonzero" fill-opacity="1" /><path clip-path="url(#clip680)" d="M14.479 237.466 L19.3487 237.466 L19.3487 243.068 Q19.3487 246.219 20.6219 247.46 Q21.895 248.67 25.2052 248.67 L28.3562 248.67 L28.3562 239.025 L32.9077 239.025 L32.9077 248.67 L64.0042 248.67 L64.0042 254.558 L32.9077 254.558 L32.9077 260.16 L28.3562 260.16 L28.3562 254.558 L25.8736 254.558 Q19.9216 254.558 17.2162 251.789 Q14.479 249.02 14.479 243.004 L14.479 237.466 Z" fill="#000000" fill-rule="nonzero" fill-opacity="1" /><path clip-path="url(#clip680)" d="M14.479 232.564 L14.479 226.708 L64.0042 226.708 L64.0042 232.564 L14.479 232.564 Z" fill="#000000" fill-rule="nonzero" fill-opacity="1" /><path clip-path="url(#clip680)" d="M32.4621 200.64 Q32.4621 205.351 36.1542 208.088 Q39.8145 210.825 46.212 210.825 Q52.6095 210.825 56.3017 208.12 Q59.9619 205.383 59.9619 200.64 Q59.9619 195.961 56.2698 193.224 Q52.5777 190.487 46.212 190.487 Q39.8781 190.487 36.186 193.224 Q32.4621 195.961 32.4621 200.64 M27.4968 200.64 Q27.4968 193.001 32.4621 188.641 Q37.4273 184.28 46.212 184.28 Q54.9649 184.28 59.9619 188.641 Q64.9272 193.001 64.9272 200.64 Q64.9272 208.311 59.9619 212.671 Q54.9649 217 46.212 217 Q37.4273 217 32.4621 212.671 Q27.4968 208.311 27.4968 200.64 Z" fill="#000000" fill-rule="nonzero" fill-opacity="1" /><path clip-path="url(#clip680)" d="M28.3562 177.978 L28.3562 172.122 L56.1743 164.801 L28.3562 157.513 L28.3562 150.606 L56.1743 143.285 L28.3562 135.997 L28.3562 130.14 L64.0042 139.466 L64.0042 146.373 L34.7856 154.043 L64.0042 161.746 L64.0042 168.653 L28.3562 177.978 Z" fill="#000000" fill-rule="nonzero" fill-opacity="1" /><polyline clip-path="url(#clip682)" style="stroke:#009af9; stroke-linecap:round; stroke-linejoin:round; stroke-width:4; stroke-opacity:1; fill:none" points="308.73,57.1907 347.641,388.745 386.553,57.1907 425.464,388.745 464.376,57.1907 503.288,388.745 542.199,57.1907 581.111,388.745 620.022,57.1907 658.934,388.745 697.846,57.1907 736.757,388.745 775.669,57.1907 814.58,388.745 853.492,57.1907 892.404,388.745 931.315,57.1907 970.227,388.745 1009.14,57.1907 1048.05,57.1907 1086.96,57.1907 1125.87,388.745 1164.78,57.1907 1203.7,388.745 1242.61,57.1907 1281.52,388.745 1320.43,57.1907 1359.34,388.745 1398.25,57.1907 1437.17,388.745 1476.08,57.1907 1514.99,388.745 1553.9,57.1907 1592.81,388.745 1631.72,57.1907 1670.64,388.745 1709.55,57.1907 1748.46,388.745 1787.37,57.1907 1826.28,57.1907 1865.19,388.745 1904.11,57.1907 1943.02,388.745 1981.93,57.1907 2020.84,388.745 2059.75,57.1907 2098.66,388.745 2137.57,57.1907 2176.49,388.745 2215.4,57.1907 2254.31,57.1907 2293.22,57.1907 "/>
<path clip-path="url(#clip680)" d="M249.195 910.936 L2352.76 910.936 L2352.76 559.488 L249.195 559.488  Z" fill="#ffffff" fill-rule="evenodd" fill-opacity="1"/>
<defs>
  <clipPath id="clip683">
    <rect x="249" y="559" width="2105" height="352"/>
  </clipPath>
</defs>
<polyline clip-path="url(#clip683)" style="stroke:#000000; stroke-linecap:round; stroke-linejoin:round; stroke-width:2; stroke-opacity:0.1; fill:none" points="269.818,910.936 269.818,559.488 "/>
<polyline clip-path="url(#clip683)" style="stroke:#000000; stroke-linecap:round; stroke-linejoin:round; stroke-width:2; stroke-opacity:0.1; fill:none" points="658.934,910.936 658.934,559.488 "/>
<polyline clip-path="url(#clip683)" style="stroke:#000000; stroke-linecap:round; stroke-linejoin:round; stroke-width:2; stroke-opacity:0.1; fill:none" points="1048.05,910.936 1048.05,559.488 "/>
<polyline clip-path="url(#clip683)" style="stroke:#000000; stroke-linecap:round; stroke-linejoin:round; stroke-width:2; stroke-opacity:0.1; fill:none" points="1437.17,910.936 1437.17,559.488 "/>
<polyline clip-path="url(#clip683)" style="stroke:#000000; stroke-linecap:round; stroke-linejoin:round; stroke-width:2; stroke-opacity:0.1; fill:none" points="1826.28,910.936 1826.28,559.488 "/>
<polyline clip-path="url(#clip683)" style="stroke:#000000; stroke-linecap:round; stroke-linejoin:round; stroke-width:2; stroke-opacity:0.1; fill:none" points="2215.4,910.936 2215.4,559.488 "/>
<polyline clip-path="url(#clip683)" style="stroke:#000000; stroke-linecap:round; stroke-linejoin:round; stroke-width:2; stroke-opacity:0.1; fill:none" points="249.195,900.989 2352.76,900.989 "/>
<polyline clip-path="url(#clip683)" style="stroke:#000000; stroke-linecap:round; stroke-linejoin:round; stroke-width:2; stroke-opacity:0.1; fill:none" points="249.195,834.678 2352.76,834.678 "/>
<polyline clip-path="url(#clip683)" style="stroke:#000000; stroke-linecap:round; stroke-linejoin:round; stroke-width:2; stroke-opacity:0.1; fill:none" points="249.195,768.367 2352.76,768.367 "/>
<polyline clip-path="url(#clip683)" style="stroke:#000000; stroke-linecap:round; stroke-linejoin:round; stroke-width:2; stroke-opacity:0.1; fill:none" points="249.195,702.057 2352.76,702.057 "/>
<polyline clip-path="url(#clip683)" style="stroke:#000000; stroke-linecap:round; stroke-linejoin:round; stroke-width:2; stroke-opacity:0.1; fill:none" points="249.195,635.746 2352.76,635.746 "/>
<polyline clip-path="url(#clip683)" style="stroke:#000000; stroke-linecap:round; stroke-linejoin:round; stroke-width:2; stroke-opacity:0.1; fill:none" points="249.195,569.435 2352.76,569.435 "/>
<polyline clip-path="url(#clip680)" style="stroke:#000000; stroke-linecap:round; stroke-linejoin:round; stroke-width:4; stroke-opacity:1; fill:none" points="249.195,910.936 2352.76,910.936 "/>
<polyline clip-path="url(#clip680)" style="stroke:#000000; stroke-linecap:round; stroke-linejoin:round; stroke-width:4; stroke-opacity:1; fill:none" points="269.818,910.936 269.818,892.038 "/>
<polyline clip-path="url(#clip680)" style="stroke:#000000; stroke-linecap:round; stroke-linejoin:round; stroke-width:4; stroke-opacity:1; fill:none" points="658.934,910.936 658.934,892.038 "/>
<polyline clip-path="url(#clip680)" style="stroke:#000000; stroke-linecap:round; stroke-linejoin:round; stroke-width:4; stroke-opacity:1; fill:none" points="1048.05,910.936 1048.05,892.038 "/>
<polyline clip-path="url(#clip680)" style="stroke:#000000; stroke-linecap:round; stroke-linejoin:round; stroke-width:4; stroke-opacity:1; fill:none" points="1437.17,910.936 1437.17,892.038 "/>
<polyline clip-path="url(#clip680)" style="stroke:#000000; stroke-linecap:round; stroke-linejoin:round; stroke-width:4; stroke-opacity:1; fill:none" points="1826.28,910.936 1826.28,892.038 "/>
<polyline clip-path="url(#clip680)" style="stroke:#000000; stroke-linecap:round; stroke-linejoin:round; stroke-width:4; stroke-opacity:1; fill:none" points="2215.4,910.936 2215.4,892.038 "/>
<path clip-path="url(#clip680)" d="M269.818 941.855 Q266.207 941.855 264.378 945.419 Q262.573 948.961 262.573 956.091 Q262.573 963.197 264.378 966.762 Q266.207 970.303 269.818 970.303 Q273.452 970.303 275.258 966.762 Q277.086 963.197 277.086 956.091 Q277.086 948.961 275.258 945.419 Q273.452 941.855 269.818 941.855 M269.818 938.151 Q275.628 938.151 278.684 942.757 Q281.762 947.341 281.762 956.091 Q281.762 964.817 278.684 969.424 Q275.628 974.007 269.818 974.007 Q264.008 974.007 260.929 969.424 Q257.874 964.817 257.874 956.091 Q257.874 947.341 260.929 942.757 Q264.008 938.151 269.818 938.151 Z" fill="#000000" fill-rule="nonzero" fill-opacity="1" /><path clip-path="url(#clip680)" d="M633.622 969.401 L641.26 969.401 L641.26 943.035 L632.95 944.702 L632.95 940.443 L641.214 938.776 L645.89 938.776 L645.89 969.401 L653.529 969.401 L653.529 973.336 L633.622 973.336 L633.622 969.401 Z" fill="#000000" fill-rule="nonzero" fill-opacity="1" /><path clip-path="url(#clip680)" d="M672.973 941.855 Q669.362 941.855 667.533 945.419 Q665.728 948.961 665.728 956.091 Q665.728 963.197 667.533 966.762 Q669.362 970.303 672.973 970.303 Q676.607 970.303 678.413 966.762 Q680.242 963.197 680.242 956.091 Q680.242 948.961 678.413 945.419 Q676.607 941.855 672.973 941.855 M672.973 938.151 Q678.783 938.151 681.839 942.757 Q684.918 947.341 684.918 956.091 Q684.918 964.817 681.839 969.424 Q678.783 974.007 672.973 974.007 Q667.163 974.007 664.084 969.424 Q661.029 964.817 661.029 956.091 Q661.029 947.341 664.084 942.757 Q667.163 938.151 672.973 938.151 Z" fill="#000000" fill-rule="nonzero" fill-opacity="1" /><path clip-path="url(#clip680)" d="M1026.82 969.401 L1043.14 969.401 L1043.14 973.336 L1021.2 973.336 L1021.2 969.401 Q1023.86 966.646 1028.44 962.016 Q1033.05 957.364 1034.23 956.021 Q1036.48 953.498 1037.36 951.762 Q1038.26 950.003 1038.26 948.313 Q1038.26 945.558 1036.31 943.822 Q1034.39 942.086 1031.29 942.086 Q1029.09 942.086 1026.64 942.85 Q1024.21 943.614 1021.43 945.165 L1021.43 940.443 Q1024.25 939.308 1026.71 938.73 Q1029.16 938.151 1031.2 938.151 Q1036.57 938.151 1039.76 940.836 Q1042.96 943.521 1042.96 948.012 Q1042.96 950.142 1042.15 952.063 Q1041.36 953.961 1039.25 956.554 Q1038.68 957.225 1035.57 960.442 Q1032.47 963.637 1026.82 969.401 Z" fill="#000000" fill-rule="nonzero" fill-opacity="1" /><path clip-path="url(#clip680)" d="M1062.96 941.855 Q1059.35 941.855 1057.52 945.419 Q1055.71 948.961 1055.71 956.091 Q1055.71 963.197 1057.52 966.762 Q1059.35 970.303 1062.96 970.303 Q1066.59 970.303 1068.4 966.762 Q1070.23 963.197 1070.23 956.091 Q1070.23 948.961 1068.4 945.419 Q1066.59 941.855 1062.96 941.855 M1062.96 938.151 Q1068.77 938.151 1071.82 942.757 Q1074.9 947.341 1074.9 956.091 Q1074.9 964.817 1071.82 969.424 Q1068.77 974.007 1062.96 974.007 Q1057.15 974.007 1054.07 969.424 Q1051.01 964.817 1051.01 956.091 Q1051.01 947.341 1054.07 942.757 Q1057.15 938.151 1062.96 938.151 Z" fill="#000000" fill-rule="nonzero" fill-opacity="1" /><path clip-path="url(#clip680)" d="M1426.01 954.702 Q1429.37 955.419 1431.24 957.688 Q1433.14 959.956 1433.14 963.29 Q1433.14 968.405 1429.62 971.206 Q1426.1 974.007 1419.62 974.007 Q1417.44 974.007 1415.13 973.567 Q1412.84 973.151 1410.38 972.294 L1410.38 967.78 Q1412.33 968.915 1414.64 969.493 Q1416.96 970.072 1419.48 970.072 Q1423.88 970.072 1426.17 968.336 Q1428.49 966.6 1428.49 963.29 Q1428.49 960.234 1426.33 958.521 Q1424.2 956.785 1420.38 956.785 L1416.36 956.785 L1416.36 952.942 L1420.57 952.942 Q1424.02 952.942 1425.85 951.577 Q1427.68 950.188 1427.68 947.595 Q1427.68 944.933 1425.78 943.521 Q1423.9 942.086 1420.38 942.086 Q1418.46 942.086 1416.26 942.503 Q1414.06 942.919 1411.43 943.799 L1411.43 939.632 Q1414.09 938.892 1416.4 938.521 Q1418.74 938.151 1420.8 938.151 Q1426.12 938.151 1429.23 940.581 Q1432.33 942.989 1432.33 947.109 Q1432.33 949.979 1430.68 951.97 Q1429.04 953.938 1426.01 954.702 Z" fill="#000000" fill-rule="nonzero" fill-opacity="1" /><path clip-path="url(#clip680)" d="M1452 941.855 Q1448.39 941.855 1446.56 945.419 Q1444.76 948.961 1444.76 956.091 Q1444.76 963.197 1446.56 966.762 Q1448.39 970.303 1452 970.303 Q1455.64 970.303 1457.44 966.762 Q1459.27 963.197 1459.27 956.091 Q1459.27 948.961 1457.44 945.419 Q1455.64 941.855 1452 941.855 M1452 938.151 Q1457.81 938.151 1460.87 942.757 Q1463.95 947.341 1463.95 956.091 Q1463.95 964.817 1460.87 969.424 Q1457.81 974.007 1452 974.007 Q1446.19 974.007 1443.12 969.424 Q1440.06 964.817 1440.06 956.091 Q1440.06 947.341 1443.12 942.757 Q1446.19 938.151 1452 938.151 Z" fill="#000000" fill-rule="nonzero" fill-opacity="1" /><path clip-path="url(#clip680)" d="M1814.45 942.85 L1802.65 961.299 L1814.45 961.299 L1814.45 942.85 M1813.23 938.776 L1819.11 938.776 L1819.11 961.299 L1824.04 961.299 L1824.04 965.188 L1819.11 965.188 L1819.11 973.336 L1814.45 973.336 L1814.45 965.188 L1798.85 965.188 L1798.85 960.674 L1813.23 938.776 Z" fill="#000000" fill-rule="nonzero" fill-opacity="1" /><path clip-path="url(#clip680)" d="M1841.77 941.855 Q1838.16 941.855 1836.33 945.419 Q1834.52 948.961 1834.52 956.091 Q1834.52 963.197 1836.33 966.762 Q1838.16 970.303 1841.77 970.303 Q1845.4 970.303 1847.21 966.762 Q1849.04 963.197 1849.04 956.091 Q1849.04 948.961 1847.21 945.419 Q1845.4 941.855 1841.77 941.855 M1841.77 938.151 Q1847.58 938.151 1850.63 942.757 Q1853.71 947.341 1853.71 956.091 Q1853.71 964.817 1850.63 969.424 Q1847.58 974.007 1841.77 974.007 Q1835.96 974.007 1832.88 969.424 Q1829.82 964.817 1829.82 956.091 Q1829.82 947.341 1832.88 942.757 Q1835.96 938.151 1841.77 938.151 Z" fill="#000000" fill-rule="nonzero" fill-opacity="1" /><path clip-path="url(#clip680)" d="M2190.1 938.776 L2208.45 938.776 L2208.45 942.711 L2194.38 942.711 L2194.38 951.183 Q2195.4 950.836 2196.42 950.674 Q2197.44 950.489 2198.45 950.489 Q2204.24 950.489 2207.62 953.66 Q2211 956.831 2211 962.248 Q2211 967.827 2207.53 970.928 Q2204.06 974.007 2197.74 974.007 Q2195.56 974.007 2193.29 973.637 Q2191.05 973.266 2188.64 972.526 L2188.64 967.827 Q2190.72 968.961 2192.94 969.516 Q2195.17 970.072 2197.64 970.072 Q2201.65 970.072 2203.99 967.966 Q2206.32 965.859 2206.32 962.248 Q2206.32 958.637 2203.99 956.53 Q2201.65 954.424 2197.64 954.424 Q2195.77 954.424 2193.89 954.841 Q2192.04 955.257 2190.1 956.137 L2190.1 938.776 Z" fill="#000000" fill-rule="nonzero" fill-opacity="1" /><path clip-path="url(#clip680)" d="M2230.21 941.855 Q2226.6 941.855 2224.77 945.419 Q2222.97 948.961 2222.97 956.091 Q2222.97 963.197 2224.77 966.762 Q2226.6 970.303 2230.21 970.303 Q2233.85 970.303 2235.65 966.762 Q2237.48 963.197 2237.48 956.091 Q2237.48 948.961 2235.65 945.419 Q2233.85 941.855 2230.21 941.855 M2230.21 938.151 Q2236.02 938.151 2239.08 942.757 Q2242.16 947.341 2242.16 956.091 Q2242.16 964.817 2239.08 969.424 Q2236.02 974.007 2230.21 974.007 Q2224.4 974.007 2221.32 969.424 Q2218.27 964.817 2218.27 956.091 Q2218.27 947.341 2221.32 942.757 Q2224.4 938.151 2230.21 938.151 Z" fill="#000000" fill-rule="nonzero" fill-opacity="1" /><polyline clip-path="url(#clip680)" style="stroke:#000000; stroke-linecap:round; stroke-linejoin:round; stroke-width:4; stroke-opacity:1; fill:none" points="249.195,910.936 249.195,559.488 "/>
<polyline clip-path="url(#clip680)" style="stroke:#000000; stroke-linecap:round; stroke-linejoin:round; stroke-width:4; stroke-opacity:1; fill:none" points="249.195,900.989 268.092,900.989 "/>
<polyline clip-path="url(#clip680)" style="stroke:#000000; stroke-linecap:round; stroke-linejoin:round; stroke-width:4; stroke-opacity:1; fill:none" points="249.195,834.678 268.092,834.678 "/>
<polyline clip-path="url(#clip680)" style="stroke:#000000; stroke-linecap:round; stroke-linejoin:round; stroke-width:4; stroke-opacity:1; fill:none" points="249.195,768.367 268.092,768.367 "/>
<polyline clip-path="url(#clip680)" style="stroke:#000000; stroke-linecap:round; stroke-linejoin:round; stroke-width:4; stroke-opacity:1; fill:none" points="249.195,702.057 268.092,702.057 "/>
<polyline clip-path="url(#clip680)" style="stroke:#000000; stroke-linecap:round; stroke-linejoin:round; stroke-width:4; stroke-opacity:1; fill:none" points="249.195,635.746 268.092,635.746 "/>
<polyline clip-path="url(#clip680)" style="stroke:#000000; stroke-linecap:round; stroke-linejoin:round; stroke-width:4; stroke-opacity:1; fill:none" points="249.195,569.435 268.092,569.435 "/>
<path clip-path="url(#clip680)" d="M190.973 883.709 L213.195 883.709 L213.195 885.7 L200.649 918.269 L195.764 918.269 L207.57 887.644 L190.973 887.644 L190.973 883.709 Z" fill="#000000" fill-rule="nonzero" fill-opacity="1" /><path clip-path="url(#clip680)" d="M201.343 835.546 Q198.01 835.546 196.088 837.329 Q194.19 839.111 194.19 842.236 Q194.19 845.361 196.088 847.144 Q198.01 848.926 201.343 848.926 Q204.676 848.926 206.598 847.144 Q208.519 845.338 208.519 842.236 Q208.519 839.111 206.598 837.329 Q204.699 835.546 201.343 835.546 M196.667 833.556 Q193.658 832.815 191.968 830.755 Q190.301 828.695 190.301 825.732 Q190.301 821.588 193.241 819.181 Q196.204 816.773 201.343 816.773 Q206.505 816.773 209.445 819.181 Q212.385 821.588 212.385 825.732 Q212.385 828.695 210.695 830.755 Q209.028 832.815 206.042 833.556 Q209.422 834.343 211.297 836.634 Q213.195 838.926 213.195 842.236 Q213.195 847.259 210.116 849.944 Q207.061 852.63 201.343 852.63 Q195.625 852.63 192.547 849.944 Q189.491 847.259 189.491 842.236 Q189.491 838.926 191.389 836.634 Q193.288 834.343 196.667 833.556 M194.954 826.171 Q194.954 828.857 196.621 830.361 Q198.311 831.866 201.343 831.866 Q204.352 831.866 206.042 830.361 Q207.755 828.857 207.755 826.171 Q207.755 823.486 206.042 821.982 Q204.352 820.477 201.343 820.477 Q198.311 820.477 196.621 821.982 Q194.954 823.486 194.954 826.171 Z" fill="#000000" fill-rule="nonzero" fill-opacity="1" /><path clip-path="url(#clip680)" d="M191.575 784.93 L191.575 780.671 Q193.334 781.504 195.139 781.944 Q196.945 782.384 198.681 782.384 Q203.311 782.384 205.741 779.282 Q208.195 776.157 208.542 769.814 Q207.199 771.805 205.139 772.87 Q203.079 773.935 200.579 773.935 Q195.394 773.935 192.362 770.81 Q189.352 767.661 189.352 762.222 Q189.352 756.898 192.5 753.68 Q195.649 750.462 200.88 750.462 Q206.875 750.462 210.024 755.069 Q213.195 759.652 213.195 768.402 Q213.195 776.573 209.306 781.458 Q205.44 786.319 198.889 786.319 Q197.13 786.319 195.325 785.971 Q193.519 785.624 191.575 784.93 M200.88 770.277 Q204.028 770.277 205.857 768.124 Q207.709 765.972 207.709 762.222 Q207.709 758.495 205.857 756.342 Q204.028 754.166 200.88 754.166 Q197.732 754.166 195.88 756.342 Q194.051 758.495 194.051 762.222 Q194.051 765.972 195.88 768.124 Q197.732 770.277 200.88 770.277 Z" fill="#000000" fill-rule="nonzero" fill-opacity="1" /><path clip-path="url(#clip680)" d="M161.899 715.401 L169.538 715.401 L169.538 689.036 L161.227 690.702 L161.227 686.443 L169.491 684.777 L174.167 684.777 L174.167 715.401 L181.806 715.401 L181.806 719.337 L161.899 719.337 L161.899 715.401 Z" fill="#000000" fill-rule="nonzero" fill-opacity="1" /><path clip-path="url(#clip680)" d="M201.25 687.855 Q197.639 687.855 195.811 691.42 Q194.005 694.962 194.005 702.091 Q194.005 709.198 195.811 712.762 Q197.639 716.304 201.25 716.304 Q204.885 716.304 206.69 712.762 Q208.519 709.198 208.519 702.091 Q208.519 694.962 206.69 691.42 Q204.885 687.855 201.25 687.855 M201.25 684.152 Q207.061 684.152 210.116 688.758 Q213.195 693.341 213.195 702.091 Q213.195 710.818 210.116 715.425 Q207.061 720.008 201.25 720.008 Q195.44 720.008 192.362 715.425 Q189.306 710.818 189.306 702.091 Q189.306 693.341 192.362 688.758 Q195.44 684.152 201.25 684.152 Z" fill="#000000" fill-rule="nonzero" fill-opacity="1" /><path clip-path="url(#clip680)" d="M163.126 649.09 L170.764 649.09 L170.764 622.725 L162.454 624.392 L162.454 620.132 L170.718 618.466 L175.394 618.466 L175.394 649.09 L183.033 649.09 L183.033 653.026 L163.126 653.026 L163.126 649.09 Z" fill="#000000" fill-rule="nonzero" fill-opacity="1" /><path clip-path="url(#clip680)" d="M193.288 649.09 L200.926 649.09 L200.926 622.725 L192.616 624.392 L192.616 620.132 L200.88 618.466 L205.556 618.466 L205.556 649.09 L213.195 649.09 L213.195 653.026 L193.288 653.026 L193.288 649.09 Z" fill="#000000" fill-rule="nonzero" fill-opacity="1" /><path clip-path="url(#clip680)" d="M163.496 582.78 L171.135 582.78 L171.135 556.414 L162.825 558.081 L162.825 553.821 L171.089 552.155 L175.764 552.155 L175.764 582.78 L183.403 582.78 L183.403 586.715 L163.496 586.715 L163.496 582.78 Z" fill="#000000" fill-rule="nonzero" fill-opacity="1" /><path clip-path="url(#clip680)" d="M196.875 582.78 L213.195 582.78 L213.195 586.715 L191.25 586.715 L191.25 582.78 Q193.913 580.025 198.496 575.395 Q203.102 570.743 204.283 569.4 Q206.528 566.877 207.408 565.141 Q208.311 563.382 208.311 561.692 Q208.311 558.937 206.366 557.201 Q204.445 555.465 201.343 555.465 Q199.144 555.465 196.69 556.229 Q194.26 556.993 191.482 558.544 L191.482 553.821 Q194.306 552.687 196.76 552.108 Q199.213 551.53 201.25 551.53 Q206.621 551.53 209.815 554.215 Q213.01 556.9 213.01 561.391 Q213.01 563.52 212.199 565.442 Q211.412 567.34 209.306 569.932 Q208.727 570.604 205.625 573.821 Q202.524 577.016 196.875 582.78 Z" fill="#000000" fill-rule="nonzero" fill-opacity="1" /><path clip-path="url(#clip680)" d="M68.735 860.839 L105.688 860.839 L105.688 853.073 Q105.688 843.238 101.232 838.687 Q96.776 834.103 87.1638 834.103 Q77.6152 834.103 73.191 838.687 Q68.735 843.238 68.735 853.073 L68.735 860.839 M63.4515 867.269 L63.4515 854.06 Q63.4515 840.246 69.2125 833.785 Q74.9416 827.324 87.1638 827.324 Q99.4496 827.324 105.211 833.817 Q110.971 840.31 110.971 854.06 L110.971 867.269 L63.4515 867.269 Z" fill="#000000" fill-rule="nonzero" fill-opacity="1" /><path clip-path="url(#clip680)" d="M91.6834 786.838 L94.548 786.838 L94.548 813.765 Q100.595 813.383 103.778 810.136 Q106.929 806.858 106.929 801.033 Q106.929 797.66 106.102 794.509 Q105.274 791.326 103.619 788.206 L109.157 788.206 Q110.494 791.358 111.194 794.668 Q111.895 797.978 111.895 801.383 Q111.895 809.914 106.929 814.911 Q101.964 819.876 93.4976 819.876 Q84.7448 819.876 79.6204 815.165 Q74.4642 810.423 74.4642 802.402 Q74.4642 795.209 79.1111 791.039 Q83.7263 786.838 91.6834 786.838 M89.9647 792.694 Q85.1586 792.758 82.294 795.4 Q79.4294 798.01 79.4294 802.338 Q79.4294 807.24 82.1985 810.2 Q84.9676 813.128 89.9965 813.574 L89.9647 792.694 Z" fill="#000000" fill-rule="nonzero" fill-opacity="1" /><path clip-path="url(#clip680)" d="M82.1667 749.471 Q78.2199 747.275 76.3421 744.219 Q74.4642 741.164 74.4642 737.026 Q74.4642 731.456 78.3791 728.432 Q82.2622 725.409 89.4554 725.409 L110.971 725.409 L110.971 731.297 L89.6464 731.297 Q84.522 731.297 82.0394 733.111 Q79.5567 734.926 79.5567 738.649 Q79.5567 743.201 82.5804 745.843 Q85.6042 748.484 90.824 748.484 L110.971 748.484 L110.971 754.373 L89.6464 754.373 Q84.4902 754.373 82.0394 756.187 Q79.5567 758.001 79.5567 761.789 Q79.5567 766.277 82.6123 768.918 Q85.636 771.56 90.824 771.56 L110.971 771.56 L110.971 777.448 L75.3235 777.448 L75.3235 771.56 L80.8617 771.56 Q77.5834 769.555 76.0238 766.754 Q74.4642 763.953 74.4642 760.102 Q74.4642 756.219 76.4375 753.513 Q78.4109 750.776 82.1667 749.471 Z" fill="#000000" fill-rule="nonzero" fill-opacity="1" /><path clip-path="url(#clip680)" d="M93.052 697.527 Q93.052 704.625 94.6753 707.362 Q96.2985 710.099 100.213 710.099 Q103.333 710.099 105.179 708.062 Q106.993 705.993 106.993 702.46 Q106.993 697.591 103.555 694.662 Q100.086 691.702 94.357 691.702 L93.052 691.702 L93.052 697.527 M90.6331 685.846 L110.971 685.846 L110.971 691.702 L105.561 691.702 Q108.807 693.708 110.367 696.699 Q111.895 699.691 111.895 704.02 Q111.895 709.495 108.839 712.741 Q105.752 715.956 100.595 715.956 Q94.5798 715.956 91.5243 711.945 Q88.4687 707.903 88.4687 699.914 L88.4687 691.702 L87.8958 691.702 Q83.8536 691.702 81.6574 694.376 Q79.4294 697.018 79.4294 701.824 Q79.4294 704.879 80.1615 707.776 Q80.8935 710.672 82.3576 713.346 L76.9468 713.346 Q75.7055 710.131 75.1007 707.107 Q74.4642 704.084 74.4642 701.219 Q74.4642 693.485 78.4746 689.665 Q82.485 685.846 90.6331 685.846 Z" fill="#000000" fill-rule="nonzero" fill-opacity="1" /><path clip-path="url(#clip680)" d="M89.4554 644.151 L110.971 644.151 L110.971 650.007 L89.6464 650.007 Q84.5856 650.007 82.0712 651.98 Q79.5567 653.954 79.5567 657.9 Q79.5567 662.643 82.5804 665.38 Q85.6042 668.117 90.824 668.117 L110.971 668.117 L110.971 674.006 L75.3235 674.006 L75.3235 668.117 L80.8617 668.117 Q77.647 666.017 76.0556 663.184 Q74.4642 660.319 74.4642 656.595 Q74.4642 650.453 78.2836 647.302 Q82.0712 644.151 89.4554 644.151 Z" fill="#000000" fill-rule="nonzero" fill-opacity="1" /><path clip-path="url(#clip680)" d="M80.7344 609.012 L61.4463 609.012 L61.4463 603.155 L110.971 603.155 L110.971 609.012 L105.624 609.012 Q108.807 610.858 110.367 613.691 Q111.895 616.492 111.895 620.438 Q111.895 626.899 106.738 630.974 Q101.582 635.016 93.1793 635.016 Q84.7766 635.016 79.6204 630.974 Q74.4642 626.899 74.4642 620.438 Q74.4642 616.492 76.0238 613.691 Q77.5515 610.858 80.7344 609.012 M93.1793 628.968 Q99.6405 628.968 103.333 626.327 Q106.993 623.653 106.993 619.006 Q106.993 614.359 103.333 611.685 Q99.6405 609.012 93.1793 609.012 Q86.7182 609.012 83.0579 611.685 Q79.3658 614.359 79.3658 619.006 Q79.3658 623.653 83.0579 626.327 Q86.7182 628.968 93.1793 628.968 Z" fill="#000000" fill-rule="nonzero" fill-opacity="1" /><polyline clip-path="url(#clip683)" style="stroke:#009af9; stroke-linecap:round; stroke-linejoin:round; stroke-width:4; stroke-opacity:1; fill:none" points="308.73,900.989 347.641,894.358 386.553,887.727 425.464,881.096 464.376,874.465 503.288,861.203 542.199,847.94 581.111,828.047 620.022,814.785 658.934,794.892 697.846,774.999 736.757,755.105 775.669,735.212 814.58,715.319 853.492,695.425 892.404,675.532 931.315,655.639 970.227,642.377 1009.14,622.483 1048.05,609.221 1086.96,595.959 1125.87,589.328 1164.78,582.697 1203.7,576.066 1242.61,569.435 1281.52,569.435 1320.43,569.435 1359.34,576.066 1398.25,582.697 1437.17,589.328 1476.08,595.959 1514.99,609.221 1553.9,622.483 1592.81,642.377 1631.72,655.639 1670.64,675.532 1709.55,695.425 1748.46,715.319 1787.37,735.212 1826.28,755.105 1865.19,774.999 1904.11,794.892 1943.02,814.785 1981.93,828.047 2020.84,847.94 2059.75,861.203 2098.66,874.465 2137.57,881.096 2176.49,887.727 2215.4,894.358 2254.31,900.989 2293.22,900.989 "/>
<path clip-path="url(#clip680)" d="M249.195 1423.18 L2352.76 1423.18 L2352.76 1071.73 L249.195 1071.73  Z" fill="#ffffff" fill-rule="evenodd" fill-opacity="1"/>
<defs>
  <clipPath id="clip684">
    <rect x="249" y="1071" width="2105" height="352"/>
  </clipPath>
</defs>
<polyline clip-path="url(#clip684)" style="stroke:#000000; stroke-linecap:round; stroke-linejoin:round; stroke-width:2; stroke-opacity:0.1; fill:none" points="269.818,1423.18 269.818,1071.73 "/>
<polyline clip-path="url(#clip684)" style="stroke:#000000; stroke-linecap:round; stroke-linejoin:round; stroke-width:2; stroke-opacity:0.1; fill:none" points="658.934,1423.18 658.934,1071.73 "/>
<polyline clip-path="url(#clip684)" style="stroke:#000000; stroke-linecap:round; stroke-linejoin:round; stroke-width:2; stroke-opacity:0.1; fill:none" points="1048.05,1423.18 1048.05,1071.73 "/>
<polyline clip-path="url(#clip684)" style="stroke:#000000; stroke-linecap:round; stroke-linejoin:round; stroke-width:2; stroke-opacity:0.1; fill:none" points="1437.17,1423.18 1437.17,1071.73 "/>
<polyline clip-path="url(#clip684)" style="stroke:#000000; stroke-linecap:round; stroke-linejoin:round; stroke-width:2; stroke-opacity:0.1; fill:none" points="1826.28,1423.18 1826.28,1071.73 "/>
<polyline clip-path="url(#clip684)" style="stroke:#000000; stroke-linecap:round; stroke-linejoin:round; stroke-width:2; stroke-opacity:0.1; fill:none" points="2215.4,1423.18 2215.4,1071.73 "/>
<polyline clip-path="url(#clip684)" style="stroke:#000000; stroke-linecap:round; stroke-linejoin:round; stroke-width:2; stroke-opacity:0.1; fill:none" points="249.195,1420.6 2352.76,1420.6 "/>
<polyline clip-path="url(#clip684)" style="stroke:#000000; stroke-linecap:round; stroke-linejoin:round; stroke-width:2; stroke-opacity:0.1; fill:none" points="249.195,1346.92 2352.76,1346.92 "/>
<polyline clip-path="url(#clip684)" style="stroke:#000000; stroke-linecap:round; stroke-linejoin:round; stroke-width:2; stroke-opacity:0.1; fill:none" points="249.195,1273.24 2352.76,1273.24 "/>
<polyline clip-path="url(#clip684)" style="stroke:#000000; stroke-linecap:round; stroke-linejoin:round; stroke-width:2; stroke-opacity:0.1; fill:none" points="249.195,1199.56 2352.76,1199.56 "/>
<polyline clip-path="url(#clip684)" style="stroke:#000000; stroke-linecap:round; stroke-linejoin:round; stroke-width:2; stroke-opacity:0.1; fill:none" points="249.195,1125.89 2352.76,1125.89 "/>
<polyline clip-path="url(#clip680)" style="stroke:#000000; stroke-linecap:round; stroke-linejoin:round; stroke-width:4; stroke-opacity:1; fill:none" points="249.195,1423.18 2352.76,1423.18 "/>
<polyline clip-path="url(#clip680)" style="stroke:#000000; stroke-linecap:round; stroke-linejoin:round; stroke-width:4; stroke-opacity:1; fill:none" points="269.818,1423.18 269.818,1404.28 "/>
<polyline clip-path="url(#clip680)" style="stroke:#000000; stroke-linecap:round; stroke-linejoin:round; stroke-width:4; stroke-opacity:1; fill:none" points="658.934,1423.18 658.934,1404.28 "/>
<polyline clip-path="url(#clip680)" style="stroke:#000000; stroke-linecap:round; stroke-linejoin:round; stroke-width:4; stroke-opacity:1; fill:none" points="1048.05,1423.18 1048.05,1404.28 "/>
<polyline clip-path="url(#clip680)" style="stroke:#000000; stroke-linecap:round; stroke-linejoin:round; stroke-width:4; stroke-opacity:1; fill:none" points="1437.17,1423.18 1437.17,1404.28 "/>
<polyline clip-path="url(#clip680)" style="stroke:#000000; stroke-linecap:round; stroke-linejoin:round; stroke-width:4; stroke-opacity:1; fill:none" points="1826.28,1423.18 1826.28,1404.28 "/>
<polyline clip-path="url(#clip680)" style="stroke:#000000; stroke-linecap:round; stroke-linejoin:round; stroke-width:4; stroke-opacity:1; fill:none" points="2215.4,1423.18 2215.4,1404.28 "/>
<path clip-path="url(#clip680)" d="M269.818 1454.1 Q266.207 1454.1 264.378 1457.66 Q262.573 1461.2 262.573 1468.33 Q262.573 1475.44 264.378 1479.01 Q266.207 1482.55 269.818 1482.55 Q273.452 1482.55 275.258 1479.01 Q277.086 1475.44 277.086 1468.33 Q277.086 1461.2 275.258 1457.66 Q273.452 1454.1 269.818 1454.1 M269.818 1450.39 Q275.628 1450.39 278.684 1455 Q281.762 1459.58 281.762 1468.33 Q281.762 1477.06 278.684 1481.67 Q275.628 1486.25 269.818 1486.25 Q264.008 1486.25 260.929 1481.67 Q257.874 1477.06 257.874 1468.33 Q257.874 1459.58 260.929 1455 Q264.008 1450.39 269.818 1450.39 Z" fill="#000000" fill-rule="nonzero" fill-opacity="1" /><path clip-path="url(#clip680)" d="M633.622 1481.64 L641.26 1481.64 L641.26 1455.28 L632.95 1456.95 L632.95 1452.69 L641.214 1451.02 L645.89 1451.02 L645.89 1481.64 L653.529 1481.64 L653.529 1485.58 L633.622 1485.58 L633.622 1481.64 Z" fill="#000000" fill-rule="nonzero" fill-opacity="1" /><path clip-path="url(#clip680)" d="M672.973 1454.1 Q669.362 1454.1 667.533 1457.66 Q665.728 1461.2 665.728 1468.33 Q665.728 1475.44 667.533 1479.01 Q669.362 1482.55 672.973 1482.55 Q676.607 1482.55 678.413 1479.01 Q680.242 1475.44 680.242 1468.33 Q680.242 1461.2 678.413 1457.66 Q676.607 1454.1 672.973 1454.1 M672.973 1450.39 Q678.783 1450.39 681.839 1455 Q684.918 1459.58 684.918 1468.33 Q684.918 1477.06 681.839 1481.67 Q678.783 1486.25 672.973 1486.25 Q667.163 1486.25 664.084 1481.67 Q661.029 1477.06 661.029 1468.33 Q661.029 1459.58 664.084 1455 Q667.163 1450.39 672.973 1450.39 Z" fill="#000000" fill-rule="nonzero" fill-opacity="1" /><path clip-path="url(#clip680)" d="M1026.82 1481.64 L1043.14 1481.64 L1043.14 1485.58 L1021.2 1485.58 L1021.2 1481.64 Q1023.86 1478.89 1028.44 1474.26 Q1033.05 1469.61 1034.23 1468.27 Q1036.48 1465.74 1037.36 1464.01 Q1038.26 1462.25 1038.26 1460.56 Q1038.26 1457.8 1036.31 1456.07 Q1034.39 1454.33 1031.29 1454.33 Q1029.09 1454.33 1026.64 1455.09 Q1024.21 1455.86 1021.43 1457.41 L1021.43 1452.69 Q1024.25 1451.55 1026.71 1450.97 Q1029.16 1450.39 1031.2 1450.39 Q1036.57 1450.39 1039.76 1453.08 Q1042.96 1455.77 1042.96 1460.26 Q1042.96 1462.39 1042.15 1464.31 Q1041.36 1466.2 1039.25 1468.8 Q1038.68 1469.47 1035.57 1472.69 Q1032.47 1475.88 1026.82 1481.64 Z" fill="#000000" fill-rule="nonzero" fill-opacity="1" /><path clip-path="url(#clip680)" d="M1062.96 1454.1 Q1059.35 1454.1 1057.52 1457.66 Q1055.71 1461.2 1055.71 1468.33 Q1055.71 1475.44 1057.52 1479.01 Q1059.35 1482.55 1062.96 1482.55 Q1066.59 1482.55 1068.4 1479.01 Q1070.23 1475.44 1070.23 1468.33 Q1070.23 1461.2 1068.4 1457.66 Q1066.59 1454.1 1062.96 1454.1 M1062.96 1450.39 Q1068.77 1450.39 1071.82 1455 Q1074.9 1459.58 1074.9 1468.33 Q1074.9 1477.06 1071.82 1481.67 Q1068.77 1486.25 1062.96 1486.25 Q1057.15 1486.25 1054.07 1481.67 Q1051.01 1477.06 1051.01 1468.33 Q1051.01 1459.58 1054.07 1455 Q1057.15 1450.39 1062.96 1450.39 Z" fill="#000000" fill-rule="nonzero" fill-opacity="1" /><path clip-path="url(#clip680)" d="M1426.01 1466.95 Q1429.37 1467.66 1431.24 1469.93 Q1433.14 1472.2 1433.14 1475.53 Q1433.14 1480.65 1429.62 1483.45 Q1426.1 1486.25 1419.62 1486.25 Q1417.44 1486.25 1415.13 1485.81 Q1412.84 1485.39 1410.38 1484.54 L1410.38 1480.02 Q1412.33 1481.16 1414.64 1481.74 Q1416.96 1482.32 1419.48 1482.32 Q1423.88 1482.32 1426.17 1480.58 Q1428.49 1478.84 1428.49 1475.53 Q1428.49 1472.48 1426.33 1470.77 Q1424.2 1469.03 1420.38 1469.03 L1416.36 1469.03 L1416.36 1465.19 L1420.57 1465.19 Q1424.02 1465.19 1425.85 1463.82 Q1427.68 1462.43 1427.68 1459.84 Q1427.68 1457.18 1425.78 1455.77 Q1423.9 1454.33 1420.38 1454.33 Q1418.46 1454.33 1416.26 1454.75 Q1414.06 1455.16 1411.43 1456.04 L1411.43 1451.88 Q1414.09 1451.14 1416.4 1450.77 Q1418.74 1450.39 1420.8 1450.39 Q1426.12 1450.39 1429.23 1452.83 Q1432.33 1455.23 1432.33 1459.35 Q1432.33 1462.22 1430.68 1464.21 Q1429.04 1466.18 1426.01 1466.95 Z" fill="#000000" fill-rule="nonzero" fill-opacity="1" /><path clip-path="url(#clip680)" d="M1452 1454.1 Q1448.39 1454.1 1446.56 1457.66 Q1444.76 1461.2 1444.76 1468.33 Q1444.76 1475.44 1446.56 1479.01 Q1448.39 1482.55 1452 1482.55 Q1455.64 1482.55 1457.44 1479.01 Q1459.27 1475.44 1459.27 1468.33 Q1459.27 1461.2 1457.44 1457.66 Q1455.64 1454.1 1452 1454.1 M1452 1450.39 Q1457.81 1450.39 1460.87 1455 Q1463.95 1459.58 1463.95 1468.33 Q1463.95 1477.06 1460.87 1481.67 Q1457.81 1486.25 1452 1486.25 Q1446.19 1486.25 1443.12 1481.67 Q1440.06 1477.06 1440.06 1468.33 Q1440.06 1459.58 1443.12 1455 Q1446.19 1450.39 1452 1450.39 Z" fill="#000000" fill-rule="nonzero" fill-opacity="1" /><path clip-path="url(#clip680)" d="M1814.45 1455.09 L1802.65 1473.54 L1814.45 1473.54 L1814.45 1455.09 M1813.23 1451.02 L1819.11 1451.02 L1819.11 1473.54 L1824.04 1473.54 L1824.04 1477.43 L1819.11 1477.43 L1819.11 1485.58 L1814.45 1485.58 L1814.45 1477.43 L1798.85 1477.43 L1798.85 1472.92 L1813.23 1451.02 Z" fill="#000000" fill-rule="nonzero" fill-opacity="1" /><path clip-path="url(#clip680)" d="M1841.77 1454.1 Q1838.16 1454.1 1836.33 1457.66 Q1834.52 1461.2 1834.52 1468.33 Q1834.52 1475.44 1836.33 1479.01 Q1838.16 1482.55 1841.77 1482.55 Q1845.4 1482.55 1847.21 1479.01 Q1849.04 1475.44 1849.04 1468.33 Q1849.04 1461.2 1847.21 1457.66 Q1845.4 1454.1 1841.77 1454.1 M1841.77 1450.39 Q1847.58 1450.39 1850.63 1455 Q1853.71 1459.58 1853.71 1468.33 Q1853.71 1477.06 1850.63 1481.67 Q1847.58 1486.25 1841.77 1486.25 Q1835.96 1486.25 1832.88 1481.67 Q1829.82 1477.06 1829.82 1468.33 Q1829.82 1459.58 1832.88 1455 Q1835.96 1450.39 1841.77 1450.39 Z" fill="#000000" fill-rule="nonzero" fill-opacity="1" /><path clip-path="url(#clip680)" d="M2190.1 1451.02 L2208.45 1451.02 L2208.45 1454.96 L2194.38 1454.96 L2194.38 1463.43 Q2195.4 1463.08 2196.42 1462.92 Q2197.44 1462.73 2198.45 1462.73 Q2204.24 1462.73 2207.62 1465.9 Q2211 1469.08 2211 1474.49 Q2211 1480.07 2207.53 1483.17 Q2204.06 1486.25 2197.74 1486.25 Q2195.56 1486.25 2193.29 1485.88 Q2191.05 1485.51 2188.64 1484.77 L2188.64 1480.07 Q2190.72 1481.2 2192.94 1481.76 Q2195.17 1482.32 2197.64 1482.32 Q2201.65 1482.32 2203.99 1480.21 Q2206.32 1478.1 2206.32 1474.49 Q2206.32 1470.88 2203.99 1468.77 Q2201.65 1466.67 2197.64 1466.67 Q2195.77 1466.67 2193.89 1467.08 Q2192.04 1467.5 2190.1 1468.38 L2190.1 1451.02 Z" fill="#000000" fill-rule="nonzero" fill-opacity="1" /><path clip-path="url(#clip680)" d="M2230.21 1454.1 Q2226.6 1454.1 2224.77 1457.66 Q2222.97 1461.2 2222.97 1468.33 Q2222.97 1475.44 2224.77 1479.01 Q2226.6 1482.55 2230.21 1482.55 Q2233.85 1482.55 2235.65 1479.01 Q2237.48 1475.44 2237.48 1468.33 Q2237.48 1461.2 2235.65 1457.66 Q2233.85 1454.1 2230.21 1454.1 M2230.21 1450.39 Q2236.02 1450.39 2239.08 1455 Q2242.16 1459.58 2242.16 1468.33 Q2242.16 1477.06 2239.08 1481.67 Q2236.02 1486.25 2230.21 1486.25 Q2224.4 1486.25 2221.32 1481.67 Q2218.27 1477.06 2218.27 1468.33 Q2218.27 1459.58 2221.32 1455 Q2224.4 1450.39 2230.21 1450.39 Z" fill="#000000" fill-rule="nonzero" fill-opacity="1" /><path clip-path="url(#clip680)" d="M1212.86 1520.52 L1219.35 1520.52 L1229.35 1560.69 L1239.31 1520.52 L1246.53 1520.52 L1256.53 1560.69 L1266.49 1520.52 L1273.01 1520.52 L1261.08 1568.04 L1252.99 1568.04 L1242.97 1526.79 L1232.85 1568.04 L1224.76 1568.04 L1212.86 1520.52 Z" fill="#000000" fill-rule="nonzero" fill-opacity="1" /><path clip-path="url(#clip680)" d="M1307.96 1548.76 L1307.96 1551.62 L1281.03 1551.62 Q1281.42 1557.67 1284.66 1560.85 Q1287.94 1564 1293.77 1564 Q1297.14 1564 1300.29 1563.17 Q1303.47 1562.35 1306.59 1560.69 L1306.59 1566.23 Q1303.44 1567.57 1300.13 1568.27 Q1296.82 1568.97 1293.42 1568.97 Q1284.89 1568.97 1279.89 1564 Q1274.92 1559.04 1274.92 1550.57 Q1274.92 1541.82 1279.63 1536.69 Q1284.38 1531.54 1292.4 1531.54 Q1299.59 1531.54 1303.76 1536.18 Q1307.96 1540.8 1307.96 1548.76 M1302.11 1547.04 Q1302.04 1542.23 1299.4 1539.37 Q1296.79 1536.5 1292.46 1536.5 Q1287.56 1536.5 1284.6 1539.27 Q1281.67 1542.04 1281.23 1547.07 L1302.11 1547.04 Z" fill="#000000" fill-rule="nonzero" fill-opacity="1" /><path clip-path="url(#clip680)" d="M1348.07 1548.76 L1348.07 1551.62 L1321.14 1551.62 Q1321.52 1557.67 1324.77 1560.85 Q1328.05 1564 1333.87 1564 Q1337.24 1564 1340.39 1563.17 Q1343.58 1562.35 1346.7 1560.69 L1346.7 1566.23 Q1343.55 1567.57 1340.24 1568.27 Q1336.93 1568.97 1333.52 1568.97 Q1324.99 1568.97 1319.99 1564 Q1315.03 1559.04 1315.03 1550.57 Q1315.03 1541.82 1319.74 1536.69 Q1324.48 1531.54 1332.5 1531.54 Q1339.69 1531.54 1343.86 1536.18 Q1348.07 1540.8 1348.07 1548.76 M1342.21 1547.04 Q1342.15 1542.23 1339.5 1539.37 Q1336.89 1536.5 1332.57 1536.5 Q1327.66 1536.5 1324.7 1539.27 Q1321.78 1542.04 1321.33 1547.07 L1342.21 1547.04 Z" fill="#000000" fill-rule="nonzero" fill-opacity="1" /><path clip-path="url(#clip680)" d="M1357.46 1518.52 L1363.34 1518.52 L1363.34 1547.77 L1380.82 1532.4 L1388.3 1532.4 L1369.39 1549.07 L1389.09 1568.04 L1381.45 1568.04 L1363.34 1550.63 L1363.34 1568.04 L1357.46 1568.04 L1357.46 1518.52 Z" fill="#000000" fill-rule="nonzero" fill-opacity="1" /><polyline clip-path="url(#clip680)" style="stroke:#000000; stroke-linecap:round; stroke-linejoin:round; stroke-width:4; stroke-opacity:1; fill:none" points="249.195,1423.18 249.195,1071.73 "/>
<polyline clip-path="url(#clip680)" style="stroke:#000000; stroke-linecap:round; stroke-linejoin:round; stroke-width:4; stroke-opacity:1; fill:none" points="249.195,1420.6 268.092,1420.6 "/>
<polyline clip-path="url(#clip680)" style="stroke:#000000; stroke-linecap:round; stroke-linejoin:round; stroke-width:4; stroke-opacity:1; fill:none" points="249.195,1346.92 268.092,1346.92 "/>
<polyline clip-path="url(#clip680)" style="stroke:#000000; stroke-linecap:round; stroke-linejoin:round; stroke-width:4; stroke-opacity:1; fill:none" points="249.195,1273.24 268.092,1273.24 "/>
<polyline clip-path="url(#clip680)" style="stroke:#000000; stroke-linecap:round; stroke-linejoin:round; stroke-width:4; stroke-opacity:1; fill:none" points="249.195,1199.56 268.092,1199.56 "/>
<polyline clip-path="url(#clip680)" style="stroke:#000000; stroke-linecap:round; stroke-linejoin:round; stroke-width:4; stroke-opacity:1; fill:none" points="249.195,1125.89 268.092,1125.89 "/>
<path clip-path="url(#clip680)" d="M161.899 1433.95 L169.538 1433.95 L169.538 1407.58 L161.227 1409.25 L161.227 1404.99 L169.491 1403.32 L174.167 1403.32 L174.167 1433.95 L181.806 1433.95 L181.806 1437.88 L161.899 1437.88 L161.899 1433.95 Z" fill="#000000" fill-rule="nonzero" fill-opacity="1" /><path clip-path="url(#clip680)" d="M201.25 1406.4 Q197.639 1406.4 195.811 1409.96 Q194.005 1413.51 194.005 1420.64 Q194.005 1427.74 195.811 1431.31 Q197.639 1434.85 201.25 1434.85 Q204.885 1434.85 206.69 1431.31 Q208.519 1427.74 208.519 1420.64 Q208.519 1413.51 206.69 1409.96 Q204.885 1406.4 201.25 1406.4 M201.25 1402.7 Q207.061 1402.7 210.116 1407.3 Q213.195 1411.89 213.195 1420.64 Q213.195 1429.36 210.116 1433.97 Q207.061 1438.55 201.25 1438.55 Q195.44 1438.55 192.362 1433.97 Q189.306 1429.36 189.306 1420.64 Q189.306 1411.89 192.362 1407.3 Q195.44 1402.7 201.25 1402.7 Z" fill="#000000" fill-rule="nonzero" fill-opacity="1" /><path clip-path="url(#clip680)" d="M163.496 1360.27 L171.135 1360.27 L171.135 1333.9 L162.825 1335.57 L162.825 1331.31 L171.089 1329.64 L175.764 1329.64 L175.764 1360.27 L183.403 1360.27 L183.403 1364.2 L163.496 1364.2 L163.496 1360.27 Z" fill="#000000" fill-rule="nonzero" fill-opacity="1" /><path clip-path="url(#clip680)" d="M196.875 1360.27 L213.195 1360.27 L213.195 1364.2 L191.25 1364.2 L191.25 1360.27 Q193.913 1357.51 198.496 1352.88 Q203.102 1348.23 204.283 1346.89 Q206.528 1344.36 207.408 1342.63 Q208.311 1340.87 208.311 1339.18 Q208.311 1336.42 206.366 1334.69 Q204.445 1332.95 201.343 1332.95 Q199.144 1332.95 196.69 1333.72 Q194.26 1334.48 191.482 1336.03 L191.482 1331.31 Q194.306 1330.17 196.76 1329.6 Q199.213 1329.02 201.25 1329.02 Q206.621 1329.02 209.815 1331.7 Q213.01 1334.39 213.01 1338.88 Q213.01 1341.01 212.199 1342.93 Q211.412 1344.83 209.306 1347.42 Q208.727 1348.09 205.625 1351.31 Q202.524 1354.5 196.875 1360.27 Z" fill="#000000" fill-rule="nonzero" fill-opacity="1" /><path clip-path="url(#clip680)" d="M161.413 1286.59 L169.052 1286.59 L169.052 1260.22 L160.741 1261.89 L160.741 1257.63 L169.005 1255.96 L173.681 1255.96 L173.681 1286.59 L181.32 1286.59 L181.32 1290.52 L161.413 1290.52 L161.413 1286.59 Z" fill="#000000" fill-rule="nonzero" fill-opacity="1" /><path clip-path="url(#clip680)" d="M203.612 1260.04 L191.806 1278.49 L203.612 1278.49 L203.612 1260.04 M202.385 1255.96 L208.264 1255.96 L208.264 1278.49 L213.195 1278.49 L213.195 1282.38 L208.264 1282.38 L208.264 1290.52 L203.612 1290.52 L203.612 1282.38 L188.01 1282.38 L188.01 1277.86 L202.385 1255.96 Z" fill="#000000" fill-rule="nonzero" fill-opacity="1" /><path clip-path="url(#clip680)" d="M161.737 1212.91 L169.376 1212.91 L169.376 1186.54 L161.065 1188.21 L161.065 1183.95 L169.329 1182.28 L174.005 1182.28 L174.005 1212.91 L181.644 1212.91 L181.644 1216.84 L161.737 1216.84 L161.737 1212.91 Z" fill="#000000" fill-rule="nonzero" fill-opacity="1" /><path clip-path="url(#clip680)" d="M201.667 1197.7 Q198.519 1197.7 196.667 1199.85 Q194.838 1202.01 194.838 1205.76 Q194.838 1209.48 196.667 1211.66 Q198.519 1213.81 201.667 1213.81 Q204.815 1213.81 206.644 1211.66 Q208.496 1209.48 208.496 1205.76 Q208.496 1202.01 206.644 1199.85 Q204.815 1197.7 201.667 1197.7 M210.949 1183.05 L210.949 1187.31 Q209.19 1186.47 207.385 1186.03 Q205.602 1185.59 203.843 1185.59 Q199.213 1185.59 196.76 1188.72 Q194.329 1191.84 193.982 1198.16 Q195.348 1196.15 197.408 1195.09 Q199.468 1194 201.945 1194 Q207.153 1194 210.162 1197.17 Q213.195 1200.32 213.195 1205.76 Q213.195 1211.08 210.047 1214.3 Q206.899 1217.52 201.667 1217.52 Q195.672 1217.52 192.5 1212.93 Q189.329 1208.33 189.329 1199.6 Q189.329 1191.41 193.218 1186.54 Q197.107 1181.66 203.658 1181.66 Q205.417 1181.66 207.199 1182.01 Q209.005 1182.35 210.949 1183.05 Z" fill="#000000" fill-rule="nonzero" fill-opacity="1" /><path clip-path="url(#clip680)" d="M161.991 1139.23 L169.63 1139.23 L169.63 1112.87 L161.32 1114.53 L161.32 1110.27 L169.584 1108.61 L174.26 1108.61 L174.26 1139.23 L181.899 1139.23 L181.899 1143.17 L161.991 1143.17 L161.991 1139.23 Z" fill="#000000" fill-rule="nonzero" fill-opacity="1" /><path clip-path="url(#clip680)" d="M201.343 1126.75 Q198.01 1126.75 196.088 1128.54 Q194.19 1130.32 194.19 1133.44 Q194.19 1136.57 196.088 1138.35 Q198.01 1140.13 201.343 1140.13 Q204.676 1140.13 206.598 1138.35 Q208.519 1136.55 208.519 1133.44 Q208.519 1130.32 206.598 1128.54 Q204.699 1126.75 201.343 1126.75 M196.667 1124.76 Q193.658 1124.02 191.968 1121.96 Q190.301 1119.9 190.301 1116.94 Q190.301 1112.8 193.241 1110.39 Q196.204 1107.98 201.343 1107.98 Q206.505 1107.98 209.445 1110.39 Q212.385 1112.8 212.385 1116.94 Q212.385 1119.9 210.695 1121.96 Q209.028 1124.02 206.042 1124.76 Q209.422 1125.55 211.297 1127.84 Q213.195 1130.13 213.195 1133.44 Q213.195 1138.47 210.116 1141.15 Q207.061 1143.84 201.343 1143.84 Q195.625 1143.84 192.547 1141.15 Q189.491 1138.47 189.491 1133.44 Q189.491 1130.13 191.389 1127.84 Q193.288 1125.55 196.667 1124.76 M194.954 1117.38 Q194.954 1120.06 196.621 1121.57 Q198.311 1123.07 201.343 1123.07 Q204.352 1123.07 206.042 1121.57 Q207.755 1120.06 207.755 1117.38 Q207.755 1114.69 206.042 1113.19 Q204.352 1111.68 201.343 1111.68 Q198.311 1111.68 196.621 1113.19 Q194.954 1114.69 194.954 1117.38 Z" fill="#000000" fill-rule="nonzero" fill-opacity="1" /><path clip-path="url(#clip680)" d="M66.6257 1278.98 L73.4051 1278.98 Q70.3814 1282.23 68.8855 1285.92 Q67.3896 1289.58 67.3896 1293.72 Q67.3896 1301.87 72.3866 1306.2 Q77.3519 1310.52 86.7731 1310.52 Q96.1625 1310.52 101.16 1306.2 Q106.125 1301.87 106.125 1293.72 Q106.125 1289.58 104.629 1285.92 Q103.133 1282.23 100.109 1278.98 L106.825 1278.98 Q109.117 1282.36 110.263 1286.14 Q111.408 1289.9 111.408 1294.1 Q111.408 1304.89 104.82 1311.1 Q98.1996 1317.3 86.7731 1317.3 Q75.3149 1317.3 68.7264 1311.1 Q62.106 1304.89 62.106 1294.1 Q62.106 1289.84 63.2518 1286.08 Q64.3658 1282.29 66.6257 1278.98 Z" fill="#000000" fill-rule="nonzero" fill-opacity="1" /><path clip-path="url(#clip680)" d="M78.9433 1255.49 Q78.9433 1260.2 82.6354 1262.94 Q86.2957 1265.68 92.6932 1265.68 Q99.0908 1265.68 102.783 1262.97 Q106.443 1260.24 106.443 1255.49 Q106.443 1250.81 102.751 1248.08 Q99.0589 1245.34 92.6932 1245.34 Q86.3594 1245.34 82.6673 1248.08 Q78.9433 1250.81 78.9433 1255.49 M73.9781 1255.49 Q73.9781 1247.85 78.9433 1243.49 Q83.9086 1239.13 92.6932 1239.13 Q101.446 1239.13 106.443 1243.49 Q111.408 1247.85 111.408 1255.49 Q111.408 1263.16 106.443 1267.52 Q101.446 1271.85 92.6932 1271.85 Q83.9086 1271.85 78.9433 1267.52 Q73.9781 1263.16 73.9781 1255.49 Z" fill="#000000" fill-rule="nonzero" fill-opacity="1" /><path clip-path="url(#clip680)" d="M75.8878 1206.7 L81.4259 1206.7 Q80.1528 1209.18 79.5162 1211.86 Q78.8797 1214.53 78.8797 1217.39 Q78.8797 1221.75 80.2165 1223.95 Q81.5533 1226.11 84.2269 1226.11 Q86.2639 1226.11 87.4415 1224.56 Q88.5874 1223 89.6377 1218.29 L90.0833 1216.28 Q91.4201 1210.04 93.8709 1207.43 Q96.2899 1204.79 100.65 1204.79 Q105.616 1204.79 108.512 1208.74 Q111.408 1212.65 111.408 1219.53 Q111.408 1222.39 110.836 1225.51 Q110.294 1228.6 109.18 1232.04 L103.133 1232.04 Q104.82 1228.79 105.679 1225.64 Q106.507 1222.49 106.507 1219.4 Q106.507 1215.26 105.106 1213.03 Q103.674 1210.81 101.096 1210.81 Q98.7088 1210.81 97.4357 1212.43 Q96.1625 1214.02 94.9849 1219.46 L94.5075 1221.5 Q93.3616 1226.94 91.0063 1229.36 Q88.6192 1231.78 84.4815 1231.78 Q79.4526 1231.78 76.7153 1228.22 Q73.9781 1224.65 73.9781 1218.09 Q73.9781 1214.85 74.4555 1211.98 Q74.9329 1209.12 75.8878 1206.7 Z" fill="#000000" fill-rule="nonzero" fill-opacity="1" /><path clip-path="url(#clip680)" d="M64.716 1189.67 L74.8374 1189.67 L74.8374 1177.61 L79.3889 1177.61 L79.3889 1189.67 L98.7407 1189.67 Q103.101 1189.67 104.342 1188.49 Q105.584 1187.28 105.584 1183.62 L105.584 1177.61 L110.485 1177.61 L110.485 1183.62 Q110.485 1190.4 107.971 1192.98 Q105.425 1195.56 98.7407 1195.56 L79.3889 1195.56 L79.3889 1199.86 L74.8374 1199.86 L74.8374 1195.56 L64.716 1195.56 L64.716 1189.67 Z" fill="#000000" fill-rule="nonzero" fill-opacity="1" /><polyline clip-path="url(#clip684)" style="stroke:#009af9; stroke-linecap:round; stroke-linejoin:round; stroke-width:4; stroke-opacity:1; fill:none" points="308.73,1413.23 347.641,1405.87 386.553,1398.5 425.464,1387.45 464.376,1376.39 503.288,1365.34 542.199,1350.61 581.111,1335.87 620.022,1321.13 658.934,1306.4 697.846,1287.98 736.757,1273.24 775.669,1254.82 814.58,1240.09 853.492,1225.35 892.404,1206.93 931.315,1192.2 970.227,1177.46 1009.14,1162.73 1048.05,1147.99 1086.96,1136.94 1125.87,1125.89 1164.78,1114.83 1203.7,1107.47 1242.61,1100.1 1281.52,1092.73 1320.43,1089.05 1359.34,1085.36 1398.25,1081.68 1437.17,1081.68 1476.08,1081.68 1514.99,1081.68 1553.9,1085.36 1592.81,1089.05 1631.72,1092.73 1670.64,1096.41 1709.55,1103.78 1748.46,1107.47 1787.37,1111.15 1826.28,1118.52 1865.19,1122.2 1904.11,1129.57 1943.02,1133.25 1981.93,1136.94 2020.84,1140.62 2059.75,1144.31 2098.66,1144.31 2137.57,1144.31 2176.49,1144.31 2215.4,1140.62 2254.31,1136.94 2293.22,1133.25 "/>
</svg>
