<?xml version="1.0" encoding="utf-8"?>
<svg xmlns="http://www.w3.org/2000/svg" xmlns:xlink="http://www.w3.org/1999/xlink" width="600" height="400" viewBox="0 0 2400 1600">
<defs>
  <clipPath id="clip290">
    <rect x="0" y="0" width="2400" height="1600"/>
  </clipPath>
</defs>
<path clip-path="url(#clip290)" d="M0 1600 L2400 1600 L2400 0 L0 0  Z" fill="#ffffff" fill-rule="evenodd" fill-opacity="1"/>
<defs>
  <clipPath id="clip291">
    <rect x="480" y="0" width="1681" height="1600"/>
  </clipPath>
</defs>
<path clip-path="url(#clip290)" d="M184.191 1423.18 L2352.76 1423.18 L2352.76 47.2441 L184.191 47.2441  Z" fill="#ffffff" fill-rule="evenodd" fill-opacity="1"/>
<defs>
  <clipPath id="clip292">
    <rect x="184" y="47" width="2170" height="1377"/>
  </clipPath>
</defs>
<polyline clip-path="url(#clip292)" style="stroke:#000000; stroke-linecap:round; stroke-linejoin:round; stroke-width:2; stroke-opacity:0.1; fill:none" points="205.451,1423.18 205.451,47.2441 "/>
<polyline clip-path="url(#clip292)" style="stroke:#000000; stroke-linecap:round; stroke-linejoin:round; stroke-width:2; stroke-opacity:0.1; fill:none" points="606.592,1423.18 606.592,47.2441 "/>
<polyline clip-path="url(#clip292)" style="stroke:#000000; stroke-linecap:round; stroke-linejoin:round; stroke-width:2; stroke-opacity:0.1; fill:none" points="1007.73,1423.18 1007.73,47.2441 "/>
<polyline clip-path="url(#clip292)" style="stroke:#000000; stroke-linecap:round; stroke-linejoin:round; stroke-width:2; stroke-opacity:0.1; fill:none" points="1408.87,1423.18 1408.87,47.2441 "/>
<polyline clip-path="url(#clip292)" style="stroke:#000000; stroke-linecap:round; stroke-linejoin:round; stroke-width:2; stroke-opacity:0.1; fill:none" points="1810.01,1423.18 1810.01,47.2441 "/>
<polyline clip-path="url(#clip292)" style="stroke:#000000; stroke-linecap:round; stroke-linejoin:round; stroke-width:2; stroke-opacity:0.1; fill:none" points="2211.15,1423.18 2211.15,47.2441 "/>
<polyline clip-path="url(#clip292)" style="stroke:#000000; stroke-linecap:round; stroke-linejoin:round; stroke-width:2; stroke-opacity:0.1; fill:none" points="184.191,1384.24 2352.76,1384.24 "/>
<polyline clip-path="url(#clip292)" style="stroke:#000000; stroke-linecap:round; stroke-linejoin:round; stroke-width:2; stroke-opacity:0.1; fill:none" points="184.191,1113.81 2352.76,1113.81 "/>
<polyline clip-path="url(#clip292)" style="stroke:#000000; stroke-linecap:round; stroke-linejoin:round; stroke-width:2; stroke-opacity:0.1; fill:none" points="184.191,843.383 2352.76,843.383 "/>
<polyline clip-path="url(#clip292)" style="stroke:#000000; stroke-linecap:round; stroke-linejoin:round; stroke-width:2; stroke-opacity:0.1; fill:none" points="184.191,572.955 2352.76,572.955 "/>
<polyline clip-path="url(#clip292)" style="stroke:#000000; stroke-linecap:round; stroke-linejoin:round; stroke-width:2; stroke-opacity:0.1; fill:none" points="184.191,302.528 2352.76,302.528 "/>
<polyline clip-path="url(#clip290)" style="stroke:#000000; stroke-linecap:round; stroke-linejoin:round; stroke-width:4; stroke-opacity:1; fill:none" points="184.191,1423.18 2352.76,1423.18 "/>
<polyline clip-path="url(#clip290)" style="stroke:#000000; stroke-linecap:round; stroke-linejoin:round; stroke-width:4; stroke-opacity:1; fill:none" points="205.451,1423.18 205.451,1404.28 "/>
<polyline clip-path="url(#clip290)" style="stroke:#000000; stroke-linecap:round; stroke-linejoin:round; stroke-width:4; stroke-opacity:1; fill:none" points="606.592,1423.18 606.592,1404.28 "/>
<polyline clip-path="url(#clip290)" style="stroke:#000000; stroke-linecap:round; stroke-linejoin:round; stroke-width:4; stroke-opacity:1; fill:none" points="1007.73,1423.18 1007.73,1404.28 "/>
<polyline clip-path="url(#clip290)" style="stroke:#000000; stroke-linecap:round; stroke-linejoin:round; stroke-width:4; stroke-opacity:1; fill:none" points="1408.87,1423.18 1408.87,1404.28 "/>
<polyline clip-path="url(#clip290)" style="stroke:#000000; stroke-linecap:round; stroke-linejoin:round; stroke-width:4; stroke-opacity:1; fill:none" points="1810.01,1423.18 1810.01,1404.28 "/>
<polyline clip-path="url(#clip290)" style="stroke:#000000; stroke-linecap:round; stroke-linejoin:round; stroke-width:4; stroke-opacity:1; fill:none" points="2211.15,1423.18 2211.15,1404.28 "/>
<path clip-path="url(#clip290)" d="M205.451 1454.1 Q201.84 1454.1 200.011 1457.66 Q198.206 1461.2 198.206 1468.33 Q198.206 1475.44 200.011 1479.01 Q201.84 1482.55 205.451 1482.55 Q209.085 1482.55 210.891 1479.01 Q212.72 1475.44 212.72 1468.33 Q212.72 1461.2 210.891 1457.66 Q209.085 1454.1 205.451 1454.1 M205.451 1450.39 Q211.261 1450.39 214.317 1455 Q217.396 1459.58 217.396 1468.33 Q217.396 1477.06 214.317 1481.67 Q211.261 1486.25 205.451 1486.25 Q199.641 1486.25 196.562 1481.67 Q193.507 1477.06 193.507 1468.33 Q193.507 1459.58 196.562 1455 Q199.641 1450.39 205.451 1450.39 Z" fill="#000000" fill-rule="nonzero" fill-opacity="1" /><path clip-path="url(#clip290)" d="M581.279 1481.64 L588.918 1481.64 L588.918 1455.28 L580.608 1456.95 L580.608 1452.69 L588.872 1451.02 L593.548 1451.02 L593.548 1481.64 L601.187 1481.64 L601.187 1485.58 L581.279 1485.58 L581.279 1481.64 Z" fill="#000000" fill-rule="nonzero" fill-opacity="1" /><path clip-path="url(#clip290)" d="M620.631 1454.1 Q617.02 1454.1 615.191 1457.66 Q613.386 1461.2 613.386 1468.33 Q613.386 1475.44 615.191 1479.01 Q617.02 1482.55 620.631 1482.55 Q624.265 1482.55 626.071 1479.01 Q627.899 1475.44 627.899 1468.33 Q627.899 1461.2 626.071 1457.66 Q624.265 1454.1 620.631 1454.1 M620.631 1450.39 Q626.441 1450.39 629.497 1455 Q632.575 1459.58 632.575 1468.33 Q632.575 1477.06 629.497 1481.67 Q626.441 1486.25 620.631 1486.25 Q614.821 1486.25 611.742 1481.67 Q608.686 1477.06 608.686 1468.33 Q608.686 1459.58 611.742 1455 Q614.821 1450.39 620.631 1450.39 Z" fill="#000000" fill-rule="nonzero" fill-opacity="1" /><path clip-path="url(#clip290)" d="M986.505 1481.64 L1002.82 1481.64 L1002.82 1485.58 L980.88 1485.58 L980.88 1481.64 Q983.542 1478.89 988.126 1474.26 Q992.732 1469.61 993.913 1468.27 Q996.158 1465.74 997.038 1464.01 Q997.94 1462.25 997.94 1460.56 Q997.94 1457.8 995.996 1456.07 Q994.075 1454.33 990.973 1454.33 Q988.774 1454.33 986.32 1455.09 Q983.89 1455.86 981.112 1457.41 L981.112 1452.69 Q983.936 1451.55 986.39 1450.97 Q988.843 1450.39 990.88 1450.39 Q996.251 1450.39 999.445 1453.08 Q1002.64 1455.77 1002.64 1460.26 Q1002.64 1462.39 1001.83 1464.31 Q1001.04 1466.2 998.936 1468.8 Q998.357 1469.47 995.255 1472.69 Q992.153 1475.88 986.505 1481.64 Z" fill="#000000" fill-rule="nonzero" fill-opacity="1" /><path clip-path="url(#clip290)" d="M1022.64 1454.1 Q1019.03 1454.1 1017.2 1457.66 Q1015.39 1461.2 1015.39 1468.33 Q1015.39 1475.44 1017.2 1479.01 Q1019.03 1482.55 1022.64 1482.55 Q1026.27 1482.55 1028.08 1479.01 Q1029.91 1475.44 1029.91 1468.33 Q1029.91 1461.2 1028.08 1457.66 Q1026.27 1454.1 1022.64 1454.1 M1022.64 1450.39 Q1028.45 1450.39 1031.51 1455 Q1034.58 1459.58 1034.58 1468.33 Q1034.58 1477.06 1031.51 1481.67 Q1028.45 1486.25 1022.64 1486.25 Q1016.83 1486.25 1013.75 1481.67 Q1010.69 1477.06 1010.69 1468.33 Q1010.69 1459.58 1013.75 1455 Q1016.83 1450.39 1022.64 1450.39 Z" fill="#000000" fill-rule="nonzero" fill-opacity="1" /><path clip-path="url(#clip290)" d="M1397.72 1466.95 Q1401.07 1467.66 1402.95 1469.93 Q1404.84 1472.2 1404.84 1475.53 Q1404.84 1480.65 1401.33 1483.45 Q1397.81 1486.25 1391.33 1486.25 Q1389.15 1486.25 1386.84 1485.81 Q1384.54 1485.39 1382.09 1484.54 L1382.09 1480.02 Q1384.03 1481.16 1386.35 1481.74 Q1388.66 1482.32 1391.19 1482.32 Q1395.59 1482.32 1397.88 1480.58 Q1400.19 1478.84 1400.19 1475.53 Q1400.19 1472.48 1398.04 1470.77 Q1395.91 1469.03 1392.09 1469.03 L1388.06 1469.03 L1388.06 1465.19 L1392.28 1465.19 Q1395.72 1465.19 1397.55 1463.82 Q1399.38 1462.43 1399.38 1459.84 Q1399.38 1457.18 1397.48 1455.77 Q1395.61 1454.33 1392.09 1454.33 Q1390.17 1454.33 1387.97 1454.75 Q1385.77 1455.16 1383.13 1456.04 L1383.13 1451.88 Q1385.79 1451.14 1388.11 1450.77 Q1390.45 1450.39 1392.51 1450.39 Q1397.83 1450.39 1400.93 1452.83 Q1404.03 1455.23 1404.03 1459.35 Q1404.03 1462.22 1402.39 1464.21 Q1400.75 1466.18 1397.72 1466.95 Z" fill="#000000" fill-rule="nonzero" fill-opacity="1" /><path clip-path="url(#clip290)" d="M1423.71 1454.1 Q1420.1 1454.1 1418.27 1457.66 Q1416.46 1461.2 1416.46 1468.33 Q1416.46 1475.44 1418.27 1479.01 Q1420.1 1482.55 1423.71 1482.55 Q1427.34 1482.55 1429.15 1479.01 Q1430.98 1475.44 1430.98 1468.33 Q1430.98 1461.2 1429.15 1457.66 Q1427.34 1454.1 1423.71 1454.1 M1423.71 1450.39 Q1429.52 1450.39 1432.58 1455 Q1435.65 1459.58 1435.65 1468.33 Q1435.65 1477.06 1432.58 1481.67 Q1429.52 1486.25 1423.71 1486.25 Q1417.9 1486.25 1414.82 1481.67 Q1411.77 1477.06 1411.77 1468.33 Q1411.77 1459.58 1414.82 1455 Q1417.9 1450.39 1423.71 1450.39 Z" fill="#000000" fill-rule="nonzero" fill-opacity="1" /><path clip-path="url(#clip290)" d="M1798.18 1455.09 L1786.38 1473.54 L1798.18 1473.54 L1798.18 1455.09 M1796.96 1451.02 L1802.84 1451.02 L1802.84 1473.54 L1807.77 1473.54 L1807.77 1477.43 L1802.84 1477.43 L1802.84 1485.58 L1798.18 1485.58 L1798.18 1477.43 L1782.58 1477.43 L1782.58 1472.92 L1796.96 1451.02 Z" fill="#000000" fill-rule="nonzero" fill-opacity="1" /><path clip-path="url(#clip290)" d="M1825.5 1454.1 Q1821.89 1454.1 1820.06 1457.66 Q1818.25 1461.2 1818.25 1468.33 Q1818.25 1475.44 1820.06 1479.01 Q1821.89 1482.55 1825.5 1482.55 Q1829.13 1482.55 1830.94 1479.01 Q1832.77 1475.44 1832.77 1468.33 Q1832.77 1461.2 1830.94 1457.66 Q1829.13 1454.1 1825.5 1454.1 M1825.5 1450.39 Q1831.31 1450.39 1834.36 1455 Q1837.44 1459.58 1837.44 1468.33 Q1837.44 1477.06 1834.36 1481.67 Q1831.31 1486.25 1825.5 1486.25 Q1819.69 1486.25 1816.61 1481.67 Q1813.55 1477.06 1813.55 1468.33 Q1813.55 1459.58 1816.61 1455 Q1819.69 1450.39 1825.5 1450.39 Z" fill="#000000" fill-rule="nonzero" fill-opacity="1" /><path clip-path="url(#clip290)" d="M2185.85 1451.02 L2204.21 1451.02 L2204.21 1454.96 L2190.13 1454.96 L2190.13 1463.43 Q2191.15 1463.08 2192.17 1462.92 Q2193.19 1462.73 2194.21 1462.73 Q2200 1462.73 2203.38 1465.9 Q2206.76 1469.08 2206.76 1474.49 Q2206.76 1480.07 2203.28 1483.17 Q2199.81 1486.25 2193.49 1486.25 Q2191.32 1486.25 2189.05 1485.88 Q2186.8 1485.51 2184.39 1484.77 L2184.39 1480.07 Q2186.48 1481.2 2188.7 1481.76 Q2190.92 1482.32 2193.4 1482.32 Q2197.4 1482.32 2199.74 1480.21 Q2202.08 1478.1 2202.08 1474.49 Q2202.08 1470.88 2199.74 1468.77 Q2197.4 1466.67 2193.4 1466.67 Q2191.52 1466.67 2189.65 1467.08 Q2187.8 1467.5 2185.85 1468.38 L2185.85 1451.02 Z" fill="#000000" fill-rule="nonzero" fill-opacity="1" /><path clip-path="url(#clip290)" d="M2225.97 1454.1 Q2222.36 1454.1 2220.53 1457.66 Q2218.72 1461.2 2218.72 1468.33 Q2218.72 1475.44 2220.53 1479.01 Q2222.36 1482.55 2225.97 1482.55 Q2229.6 1482.55 2231.41 1479.01 Q2233.24 1475.44 2233.24 1468.33 Q2233.24 1461.2 2231.41 1457.66 Q2229.6 1454.1 2225.97 1454.1 M2225.97 1450.39 Q2231.78 1450.39 2234.83 1455 Q2237.91 1459.58 2237.91 1468.33 Q2237.91 1477.06 2234.83 1481.67 Q2231.78 1486.25 2225.97 1486.25 Q2220.16 1486.25 2217.08 1481.67 Q2214.02 1477.06 2214.02 1468.33 Q2214.02 1459.58 2217.08 1455 Q2220.16 1450.39 2225.97 1450.39 Z" fill="#000000" fill-rule="nonzero" fill-opacity="1" /><path clip-path="url(#clip290)" d="M1180.36 1520.52 L1186.85 1520.52 L1196.84 1560.69 L1206.81 1520.52 L1214.03 1520.52 L1224.02 1560.69 L1233.99 1520.52 L1240.51 1520.52 L1228.58 1568.04 L1220.49 1568.04 L1210.47 1526.79 L1200.34 1568.04 L1192.26 1568.04 L1180.36 1520.52 Z" fill="#000000" fill-rule="nonzero" fill-opacity="1" /><path clip-path="url(#clip290)" d="M1275.46 1548.76 L1275.46 1551.62 L1248.53 1551.62 Q1248.91 1557.67 1252.16 1560.85 Q1255.44 1564 1261.26 1564 Q1264.64 1564 1267.79 1563.17 Q1270.97 1562.35 1274.09 1560.69 L1274.09 1566.23 Q1270.94 1567.57 1267.63 1568.27 Q1264.32 1568.97 1260.91 1568.97 Q1252.38 1568.97 1247.39 1564 Q1242.42 1559.04 1242.42 1550.57 Q1242.42 1541.82 1247.13 1536.69 Q1251.87 1531.54 1259.9 1531.54 Q1267.09 1531.54 1271.26 1536.18 Q1275.46 1540.8 1275.46 1548.76 M1269.6 1547.04 Q1269.54 1542.23 1266.9 1539.37 Q1264.29 1536.5 1259.96 1536.5 Q1255.06 1536.5 1252.1 1539.27 Q1249.17 1542.04 1248.72 1547.07 L1269.6 1547.04 Z" fill="#000000" fill-rule="nonzero" fill-opacity="1" /><path clip-path="url(#clip290)" d="M1315.56 1548.76 L1315.56 1551.62 L1288.64 1551.62 Q1289.02 1557.67 1292.27 1560.85 Q1295.54 1564 1301.37 1564 Q1304.74 1564 1307.89 1563.17 Q1311.08 1562.35 1314.19 1560.69 L1314.19 1566.23 Q1311.04 1567.57 1307.73 1568.27 Q1304.42 1568.97 1301.02 1568.97 Q1292.49 1568.97 1287.49 1564 Q1282.53 1559.04 1282.53 1550.57 Q1282.53 1541.82 1287.24 1536.69 Q1291.98 1531.54 1300 1531.54 Q1307.19 1531.54 1311.36 1536.18 Q1315.56 1540.8 1315.56 1548.76 M1309.71 1547.04 Q1309.64 1542.23 1307 1539.37 Q1304.39 1536.5 1300.06 1536.5 Q1295.16 1536.5 1292.2 1539.27 Q1289.27 1542.04 1288.83 1547.07 L1309.71 1547.04 Z" fill="#000000" fill-rule="nonzero" fill-opacity="1" /><path clip-path="url(#clip290)" d="M1324.95 1518.52 L1330.84 1518.52 L1330.84 1547.77 L1348.32 1532.4 L1355.79 1532.4 L1336.89 1549.07 L1356.59 1568.04 L1348.95 1568.04 L1330.84 1550.63 L1330.84 1568.04 L1324.95 1568.04 L1324.95 1518.52 Z" fill="#000000" fill-rule="nonzero" fill-opacity="1" /><polyline clip-path="url(#clip290)" style="stroke:#000000; stroke-linecap:round; stroke-linejoin:round; stroke-width:4; stroke-opacity:1; fill:none" points="184.191,1423.18 184.191,47.2441 "/>
<polyline clip-path="url(#clip290)" style="stroke:#000000; stroke-linecap:round; stroke-linejoin:round; stroke-width:4; stroke-opacity:1; fill:none" points="184.191,1384.24 203.088,1384.24 "/>
<polyline clip-path="url(#clip290)" style="stroke:#000000; stroke-linecap:round; stroke-linejoin:round; stroke-width:4; stroke-opacity:1; fill:none" points="184.191,1113.81 203.088,1113.81 "/>
<polyline clip-path="url(#clip290)" style="stroke:#000000; stroke-linecap:round; stroke-linejoin:round; stroke-width:4; stroke-opacity:1; fill:none" points="184.191,843.383 203.088,843.383 "/>
<polyline clip-path="url(#clip290)" style="stroke:#000000; stroke-linecap:round; stroke-linejoin:round; stroke-width:4; stroke-opacity:1; fill:none" points="184.191,572.955 203.088,572.955 "/>
<polyline clip-path="url(#clip290)" style="stroke:#000000; stroke-linecap:round; stroke-linejoin:round; stroke-width:4; stroke-opacity:1; fill:none" points="184.191,302.528 203.088,302.528 "/>
<path clip-path="url(#clip290)" d="M91.0151 1370.04 Q87.404 1370.04 85.5753 1373.6 Q83.7697 1377.14 83.7697 1384.27 Q83.7697 1391.38 85.5753 1394.94 Q87.404 1398.49 91.0151 1398.49 Q94.6493 1398.49 96.4548 1394.94 Q98.2835 1391.38 98.2835 1384.27 Q98.2835 1377.14 96.4548 1373.6 Q94.6493 1370.04 91.0151 1370.04 M91.0151 1366.33 Q96.8252 1366.33 99.8808 1370.94 Q102.959 1375.52 102.959 1384.27 Q102.959 1393 99.8808 1397.61 Q96.8252 1402.19 91.0151 1402.19 Q85.2049 1402.19 82.1262 1397.61 Q79.0707 1393 79.0707 1384.27 Q79.0707 1375.52 82.1262 1370.94 Q85.2049 1366.33 91.0151 1366.33 Z" fill="#000000" fill-rule="nonzero" fill-opacity="1" /><path clip-path="url(#clip290)" d="M111.177 1395.64 L116.061 1395.64 L116.061 1401.52 L111.177 1401.52 L111.177 1395.64 Z" fill="#000000" fill-rule="nonzero" fill-opacity="1" /><path clip-path="url(#clip290)" d="M136.246 1370.04 Q132.635 1370.04 130.807 1373.6 Q129.001 1377.14 129.001 1384.27 Q129.001 1391.38 130.807 1394.94 Q132.635 1398.49 136.246 1398.49 Q139.881 1398.49 141.686 1394.94 Q143.515 1391.38 143.515 1384.27 Q143.515 1377.14 141.686 1373.6 Q139.881 1370.04 136.246 1370.04 M136.246 1366.33 Q142.056 1366.33 145.112 1370.94 Q148.191 1375.52 148.191 1384.27 Q148.191 1393 145.112 1397.61 Q142.056 1402.19 136.246 1402.19 Q130.436 1402.19 127.357 1397.61 Q124.302 1393 124.302 1384.27 Q124.302 1375.52 127.357 1370.94 Q130.436 1366.33 136.246 1366.33 Z" fill="#000000" fill-rule="nonzero" fill-opacity="1" /><path clip-path="url(#clip290)" d="M86.0382 1127.16 L102.358 1127.16 L102.358 1131.09 L80.4133 1131.09 L80.4133 1127.16 Q83.0753 1124.4 87.6586 1119.77 Q92.2651 1115.12 93.4456 1113.78 Q95.691 1111.25 96.5706 1109.52 Q97.4734 1107.76 97.4734 1106.07 Q97.4734 1103.31 95.5289 1101.58 Q93.6076 1099.84 90.5058 1099.84 Q88.3067 1099.84 85.8531 1100.6 Q83.4225 1101.37 80.6447 1102.92 L80.6447 1098.2 Q83.4688 1097.06 85.9225 1096.48 Q88.3762 1095.91 90.4132 1095.91 Q95.7836 1095.91 98.978 1098.59 Q102.172 1101.28 102.172 1105.77 Q102.172 1107.9 101.362 1109.82 Q100.575 1111.72 98.4687 1114.31 Q97.89 1114.98 94.7882 1118.2 Q91.6864 1121.39 86.0382 1127.16 Z" fill="#000000" fill-rule="nonzero" fill-opacity="1" /><path clip-path="url(#clip290)" d="M112.172 1125.21 L117.057 1125.21 L117.057 1131.09 L112.172 1131.09 L112.172 1125.21 Z" fill="#000000" fill-rule="nonzero" fill-opacity="1" /><path clip-path="url(#clip290)" d="M127.288 1096.53 L145.644 1096.53 L145.644 1100.47 L131.57 1100.47 L131.57 1108.94 Q132.589 1108.59 133.607 1108.43 Q134.626 1108.24 135.644 1108.24 Q141.431 1108.24 144.811 1111.41 Q148.191 1114.59 148.191 1120 Q148.191 1125.58 144.718 1128.68 Q141.246 1131.76 134.927 1131.76 Q132.751 1131.76 130.482 1131.39 Q128.237 1131.02 125.83 1130.28 L125.83 1125.58 Q127.913 1126.72 130.135 1127.27 Q132.357 1127.83 134.834 1127.83 Q138.839 1127.83 141.177 1125.72 Q143.515 1123.61 143.515 1120 Q143.515 1116.39 141.177 1114.29 Q138.839 1112.18 134.834 1112.18 Q132.959 1112.18 131.084 1112.6 Q129.232 1113.01 127.288 1113.89 L127.288 1096.53 Z" fill="#000000" fill-rule="nonzero" fill-opacity="1" /><path clip-path="url(#clip290)" d="M81.0614 826.103 L99.4178 826.103 L99.4178 830.038 L85.3438 830.038 L85.3438 838.51 Q86.3623 838.163 87.3808 838.001 Q88.3993 837.816 89.4178 837.816 Q95.2049 837.816 98.5845 840.987 Q101.964 844.158 101.964 849.575 Q101.964 855.154 98.4919 858.256 Q95.0197 861.334 88.7003 861.334 Q86.5243 861.334 84.2558 860.964 Q82.0105 860.594 79.6031 859.853 L79.6031 855.154 Q81.6864 856.288 83.9086 856.844 Q86.1308 857.399 88.6077 857.399 Q92.6123 857.399 94.9502 855.293 Q97.2882 853.186 97.2882 849.575 Q97.2882 845.964 94.9502 843.858 Q92.6123 841.751 88.6077 841.751 Q86.7327 841.751 84.8577 842.168 Q83.0058 842.584 81.0614 843.464 L81.0614 826.103 Z" fill="#000000" fill-rule="nonzero" fill-opacity="1" /><path clip-path="url(#clip290)" d="M111.177 854.783 L116.061 854.783 L116.061 860.663 L111.177 860.663 L111.177 854.783 Z" fill="#000000" fill-rule="nonzero" fill-opacity="1" /><path clip-path="url(#clip290)" d="M136.246 829.182 Q132.635 829.182 130.807 832.747 Q129.001 836.288 129.001 843.418 Q129.001 850.524 130.807 854.089 Q132.635 857.631 136.246 857.631 Q139.881 857.631 141.686 854.089 Q143.515 850.524 143.515 843.418 Q143.515 836.288 141.686 832.747 Q139.881 829.182 136.246 829.182 M136.246 825.478 Q142.056 825.478 145.112 830.084 Q148.191 834.668 148.191 843.418 Q148.191 852.145 145.112 856.751 Q142.056 861.334 136.246 861.334 Q130.436 861.334 127.357 856.751 Q124.302 852.145 124.302 843.418 Q124.302 834.668 127.357 830.084 Q130.436 825.478 136.246 825.478 Z" fill="#000000" fill-rule="nonzero" fill-opacity="1" /><path clip-path="url(#clip290)" d="M80.8299 555.675 L103.052 555.675 L103.052 557.666 L90.5058 590.235 L85.6216 590.235 L97.4271 559.611 L80.8299 559.611 L80.8299 555.675 Z" fill="#000000" fill-rule="nonzero" fill-opacity="1" /><path clip-path="url(#clip290)" d="M112.172 584.356 L117.057 584.356 L117.057 590.235 L112.172 590.235 L112.172 584.356 Z" fill="#000000" fill-rule="nonzero" fill-opacity="1" /><path clip-path="url(#clip290)" d="M127.288 555.675 L145.644 555.675 L145.644 559.611 L131.57 559.611 L131.57 568.083 Q132.589 567.736 133.607 567.573 Q134.626 567.388 135.644 567.388 Q141.431 567.388 144.811 570.56 Q148.191 573.731 148.191 579.147 Q148.191 584.726 144.718 587.828 Q141.246 590.907 134.927 590.907 Q132.751 590.907 130.482 590.536 Q128.237 590.166 125.83 589.425 L125.83 584.726 Q127.913 585.86 130.135 586.416 Q132.357 586.972 134.834 586.972 Q138.839 586.972 141.177 584.865 Q143.515 582.759 143.515 579.147 Q143.515 575.536 141.177 573.43 Q138.839 571.323 134.834 571.323 Q132.959 571.323 131.084 571.74 Q129.232 572.157 127.288 573.036 L127.288 555.675 Z" fill="#000000" fill-rule="nonzero" fill-opacity="1" /><path clip-path="url(#clip290)" d="M51.6634 315.873 L59.3023 315.873 L59.3023 289.507 L50.9921 291.174 L50.9921 286.914 L59.256 285.248 L63.9319 285.248 L63.9319 315.873 L71.5707 315.873 L71.5707 319.808 L51.6634 319.808 L51.6634 315.873 Z" fill="#000000" fill-rule="nonzero" fill-opacity="1" /><path clip-path="url(#clip290)" d="M91.0151 288.326 Q87.404 288.326 85.5753 291.891 Q83.7697 295.433 83.7697 302.562 Q83.7697 309.669 85.5753 313.234 Q87.404 316.775 91.0151 316.775 Q94.6493 316.775 96.4548 313.234 Q98.2835 309.669 98.2835 302.562 Q98.2835 295.433 96.4548 291.891 Q94.6493 288.326 91.0151 288.326 M91.0151 284.623 Q96.8252 284.623 99.8808 289.229 Q102.959 293.813 102.959 302.562 Q102.959 311.289 99.8808 315.896 Q96.8252 320.479 91.0151 320.479 Q85.2049 320.479 82.1262 315.896 Q79.0707 311.289 79.0707 302.562 Q79.0707 293.813 82.1262 289.229 Q85.2049 284.623 91.0151 284.623 Z" fill="#000000" fill-rule="nonzero" fill-opacity="1" /><path clip-path="url(#clip290)" d="M111.177 313.928 L116.061 313.928 L116.061 319.808 L111.177 319.808 L111.177 313.928 Z" fill="#000000" fill-rule="nonzero" fill-opacity="1" /><path clip-path="url(#clip290)" d="M136.246 288.326 Q132.635 288.326 130.807 291.891 Q129.001 295.433 129.001 302.562 Q129.001 309.669 130.807 313.234 Q132.635 316.775 136.246 316.775 Q139.881 316.775 141.686 313.234 Q143.515 309.669 143.515 302.562 Q143.515 295.433 141.686 291.891 Q139.881 288.326 136.246 288.326 M136.246 284.623 Q142.056 284.623 145.112 289.229 Q148.191 293.813 148.191 302.562 Q148.191 311.289 145.112 315.896 Q142.056 320.479 136.246 320.479 Q130.436 320.479 127.357 315.896 Q124.302 311.289 124.302 302.562 Q124.302 293.813 127.357 289.229 Q130.436 284.623 136.246 284.623 Z" fill="#000000" fill-rule="nonzero" fill-opacity="1" /><polyline clip-path="url(#clip292)" style="stroke:#009af9; stroke-linecap:round; stroke-linejoin:round; stroke-width:4; stroke-opacity:1; fill:none" points="245.565,627.041 285.679,616.224 325.793,605.407 365.907,594.59 406.021,583.772 446.135,562.138 486.249,540.504 526.363,508.053 566.478,486.419 606.592,453.967 646.706,421.516 686.82,389.065 726.934,356.613 767.048,324.162 807.162,291.711 847.276,259.259 887.39,226.808 927.504,205.174 967.618,172.723 1007.73,151.088 1047.85,129.454 1087.96,118.637 1128.07,107.82 1168.19,97.0028 1208.3,86.1857 1248.42,86.1857 1288.53,86.1857 1328.64,97.0028 1368.76,107.82 1408.87,118.637 1448.99,129.454 1489.1,151.088 1529.21,172.723 1569.33,205.174 1609.44,226.808 1649.56,259.259 1689.67,291.711 1729.78,324.162 1769.9,356.613 1810.01,389.065 1850.13,421.516 1890.24,453.967 1930.36,486.419 1970.47,508.053 2010.58,540.504 2050.7,562.138 2090.81,583.772 2130.93,594.59 2171.04,605.407 2211.15,616.224 2251.27,627.041 2291.38,627.041 "/>
<polyline clip-path="url(#clip292)" style="stroke:#e26f46; stroke-linecap:round; stroke-linejoin:round; stroke-width:4; stroke-opacity:1; fill:none" points="245.565,627.041 285.679,616.224 325.793,605.407 365.907,594.59 406.021,583.772 446.135,562.138 486.249,540.504 526.363,508.053 566.478,1221.98 606.592,1384.24 646.706,1384.24 686.82,1384.24 726.934,1384.24 767.048,1384.24 807.162,1384.24 847.276,1384.24 887.39,1384.24 927.504,1384.24 967.618,1384.24 1007.73,1384.24 1047.85,1384.24 1087.96,1384.24 1128.07,1384.24 1168.19,1384.24 1208.3,1384.24 1248.42,1384.24 1288.53,1384.24 1328.64,1384.24 1368.76,1384.24 1408.87,1384.24 1448.99,1384.24 1489.1,1384.24 1529.21,1384.24 1569.33,1384.24 1609.44,1384.24 1649.56,1384.24 1689.67,1384.24 1729.78,1384.24 1769.9,1384.24 1810.01,1384.24 1850.13,1384.24 1890.24,1384.24 1930.36,1384.24 1970.47,1384.24 2010.58,1384.24 2050.7,1384.24 2090.81,1384.24 2130.93,1384.24 2171.04,1384.24 2211.15,1384.24 2251.27,1384.24 2291.38,1384.24 "/>
<polyline clip-path="url(#clip292)" style="stroke:#3da44d; stroke-linecap:round; stroke-linejoin:round; stroke-width:4; stroke-opacity:1; fill:none" points="245.565,1384.24 285.679,1384.24 325.793,1384.24 365.907,1384.24 406.021,1384.24 446.135,1384.24 486.249,1384.24 526.363,1384.24 566.478,648.675 606.592,453.967 646.706,421.516 686.82,389.065 726.934,356.613 767.048,324.162 807.162,291.711 847.276,259.259 887.39,226.808 927.504,205.174 967.618,172.723 1007.73,151.088 1047.85,129.454 1087.96,118.637 1128.07,107.82 1168.19,97.0028 1208.3,86.1857 1248.42,86.1857 1288.53,86.1857 1328.64,97.0028 1368.76,107.82 1408.87,118.637 1448.99,129.454 1489.1,151.088 1529.21,172.723 1569.33,205.174 1609.44,226.808 1649.56,259.259 1689.67,291.711 1729.78,324.162 1769.9,356.613 1810.01,389.065 1850.13,421.516 1890.24,453.967 1930.36,486.419 1970.47,508.053 2010.58,540.504 2050.7,562.138 2090.81,583.772 2130.93,594.59 2171.04,605.407 2211.15,616.224 2251.27,627.041 2291.38,627.041 "/>
<path clip-path="url(#clip290)" d="M1871.53 300.469 L2280.47 300.469 L2280.47 93.1086 L1871.53 93.1086  Z" fill="#ffffff" fill-rule="evenodd" fill-opacity="1"/>
<polyline clip-path="url(#clip290)" style="stroke:#000000; stroke-linecap:round; stroke-linejoin:round; stroke-width:4; stroke-opacity:1; fill:none" points="1871.53,300.469 2280.47,300.469 2280.47,93.1086 1871.53,93.1086 1871.53,300.469 "/>
<polyline clip-path="url(#clip290)" style="stroke:#009af9; stroke-linecap:round; stroke-linejoin:round; stroke-width:4; stroke-opacity:1; fill:none" points="1895.63,144.949 2040.2,144.949 "/>
<path clip-path="url(#clip290)" d="M2068.97 131.511 L2068.97 158.386 L2074.62 158.386 Q2081.77 158.386 2085.08 155.145 Q2088.41 151.905 2088.41 144.914 Q2088.41 137.969 2085.08 134.752 Q2081.77 131.511 2074.62 131.511 L2068.97 131.511 M2064.29 127.669 L2073.9 127.669 Q2083.95 127.669 2088.64 131.858 Q2093.34 136.025 2093.34 144.914 Q2093.34 153.849 2088.62 158.039 Q2083.9 162.229 2073.9 162.229 L2064.29 162.229 L2064.29 127.669 Z" fill="#000000" fill-rule="nonzero" fill-opacity="1" /><path clip-path="url(#clip290)" d="M2122.79 148.201 L2122.79 150.284 L2103.2 150.284 Q2103.48 154.682 2105.84 156.997 Q2108.23 159.289 2112.46 159.289 Q2114.92 159.289 2117.21 158.687 Q2119.52 158.085 2121.79 156.881 L2121.79 160.909 Q2119.5 161.881 2117.09 162.391 Q2114.69 162.9 2112.21 162.9 Q2106.01 162.9 2102.37 159.289 Q2098.76 155.678 2098.76 149.52 Q2098.76 143.155 2102.19 139.428 Q2105.64 135.678 2111.47 135.678 Q2116.7 135.678 2119.73 139.057 Q2122.79 142.414 2122.79 148.201 M2118.53 146.951 Q2118.48 143.456 2116.56 141.372 Q2114.66 139.289 2111.51 139.289 Q2107.95 139.289 2105.8 141.303 Q2103.67 143.317 2103.34 146.974 L2118.53 146.951 Z" fill="#000000" fill-rule="nonzero" fill-opacity="1" /><path clip-path="url(#clip290)" d="M2149.96 141.28 Q2151.56 138.409 2153.78 137.044 Q2156.01 135.678 2159.01 135.678 Q2163.07 135.678 2165.26 138.525 Q2167.46 141.349 2167.46 146.581 L2167.46 162.229 L2163.18 162.229 L2163.18 146.719 Q2163.18 142.993 2161.86 141.187 Q2160.54 139.382 2157.83 139.382 Q2154.52 139.382 2152.6 141.581 Q2150.68 143.78 2150.68 147.576 L2150.68 162.229 L2146.4 162.229 L2146.4 146.719 Q2146.4 142.969 2145.08 141.187 Q2143.76 139.382 2141.01 139.382 Q2137.74 139.382 2135.82 141.604 Q2133.9 143.803 2133.9 147.576 L2133.9 162.229 L2129.62 162.229 L2129.62 136.303 L2133.9 136.303 L2133.9 140.331 Q2135.36 137.946 2137.39 136.812 Q2139.43 135.678 2142.23 135.678 Q2145.06 135.678 2147.02 137.113 Q2149.01 138.548 2149.96 141.28 Z" fill="#000000" fill-rule="nonzero" fill-opacity="1" /><path clip-path="url(#clip290)" d="M2187.74 149.196 Q2182.58 149.196 2180.59 150.377 Q2178.6 151.557 2178.6 154.405 Q2178.6 156.673 2180.08 158.016 Q2181.58 159.335 2184.15 159.335 Q2187.7 159.335 2189.82 156.835 Q2191.98 154.312 2191.98 150.145 L2191.98 149.196 L2187.74 149.196 M2196.24 147.437 L2196.24 162.229 L2191.98 162.229 L2191.98 158.293 Q2190.52 160.655 2188.34 161.789 Q2186.17 162.9 2183.02 162.9 Q2179.04 162.9 2176.68 160.678 Q2174.34 158.432 2174.34 154.682 Q2174.34 150.307 2177.26 148.085 Q2180.2 145.863 2186.01 145.863 L2191.98 145.863 L2191.98 145.446 Q2191.98 142.507 2190.03 140.909 Q2188.11 139.289 2184.62 139.289 Q2182.39 139.289 2180.29 139.821 Q2178.18 140.354 2176.24 141.419 L2176.24 137.483 Q2178.57 136.581 2180.77 136.141 Q2182.97 135.678 2185.06 135.678 Q2190.68 135.678 2193.46 138.594 Q2196.24 141.511 2196.24 147.437 Z" fill="#000000" fill-rule="nonzero" fill-opacity="1" /><path clip-path="url(#clip290)" d="M2226.56 146.581 L2226.56 162.229 L2222.3 162.229 L2222.3 146.719 Q2222.3 143.039 2220.87 141.21 Q2219.43 139.382 2216.56 139.382 Q2213.11 139.382 2211.12 141.581 Q2209.13 143.78 2209.13 147.576 L2209.13 162.229 L2204.85 162.229 L2204.85 136.303 L2209.13 136.303 L2209.13 140.331 Q2210.66 137.993 2212.72 136.835 Q2214.8 135.678 2217.51 135.678 Q2221.98 135.678 2224.27 138.456 Q2226.56 141.21 2226.56 146.581 Z" fill="#000000" fill-rule="nonzero" fill-opacity="1" /><path clip-path="url(#clip290)" d="M2252.12 140.238 L2252.12 126.21 L2256.38 126.21 L2256.38 162.229 L2252.12 162.229 L2252.12 158.34 Q2250.77 160.655 2248.71 161.789 Q2246.68 162.9 2243.81 162.9 Q2239.11 162.9 2236.14 159.15 Q2233.2 155.4 2233.2 149.289 Q2233.2 143.178 2236.14 139.428 Q2239.11 135.678 2243.81 135.678 Q2246.68 135.678 2248.71 136.812 Q2250.77 137.923 2252.12 140.238 M2237.6 149.289 Q2237.6 153.988 2239.52 156.673 Q2241.47 159.335 2244.85 159.335 Q2248.23 159.335 2250.17 156.673 Q2252.12 153.988 2252.12 149.289 Q2252.12 144.59 2250.17 141.928 Q2248.23 139.243 2244.85 139.243 Q2241.47 139.243 2239.52 141.928 Q2237.6 144.59 2237.6 149.289 Z" fill="#000000" fill-rule="nonzero" fill-opacity="1" /><polyline clip-path="url(#clip290)" style="stroke:#e26f46; stroke-linecap:round; stroke-linejoin:round; stroke-width:4; stroke-opacity:1; fill:none" points="1895.63,196.789 2040.2,196.789 "/>
<path clip-path="url(#clip290)" d="M2064.29 179.509 L2093.53 179.509 L2093.53 183.444 L2081.26 183.444 L2081.26 214.069 L2076.56 214.069 L2076.56 183.444 L2064.29 183.444 L2064.29 179.509 Z" fill="#000000" fill-rule="nonzero" fill-opacity="1" /><path clip-path="url(#clip290)" d="M2119.41 198.421 L2119.41 214.069 L2115.15 214.069 L2115.15 198.559 Q2115.15 194.879 2113.71 193.05 Q2112.28 191.222 2109.41 191.222 Q2105.96 191.222 2103.97 193.421 Q2101.98 195.62 2101.98 199.416 L2101.98 214.069 L2097.7 214.069 L2097.7 178.05 L2101.98 178.05 L2101.98 192.171 Q2103.51 189.833 2105.57 188.675 Q2107.65 187.518 2110.36 187.518 Q2114.83 187.518 2117.12 190.296 Q2119.41 193.05 2119.41 198.421 Z" fill="#000000" fill-rule="nonzero" fill-opacity="1" /><path clip-path="url(#clip290)" d="M2150.08 200.041 L2150.08 202.124 L2130.5 202.124 Q2130.77 206.522 2133.14 208.837 Q2135.52 211.129 2139.76 211.129 Q2142.21 211.129 2144.5 210.527 Q2146.82 209.925 2149.08 208.721 L2149.08 212.749 Q2146.79 213.721 2144.39 214.231 Q2141.98 214.74 2139.5 214.74 Q2133.3 214.74 2129.66 211.129 Q2126.05 207.518 2126.05 201.36 Q2126.05 194.995 2129.48 191.268 Q2132.93 187.518 2138.76 187.518 Q2143.99 187.518 2147.02 190.897 Q2150.08 194.254 2150.08 200.041 M2145.82 198.791 Q2145.77 195.296 2143.85 193.212 Q2141.95 191.129 2138.81 191.129 Q2135.24 191.129 2133.09 193.143 Q2130.96 195.157 2130.64 198.814 L2145.82 198.791 Z" fill="#000000" fill-rule="nonzero" fill-opacity="1" /><path clip-path="url(#clip290)" d="M2172.09 192.124 Q2171.38 191.708 2170.52 191.522 Q2169.69 191.314 2168.67 191.314 Q2165.06 191.314 2163.11 193.675 Q2161.19 196.013 2161.19 200.411 L2161.19 214.069 L2156.91 214.069 L2156.91 188.143 L2161.19 188.143 L2161.19 192.171 Q2162.53 189.809 2164.69 188.675 Q2166.84 187.518 2169.92 187.518 Q2170.36 187.518 2170.89 187.587 Q2171.42 187.634 2172.07 187.749 L2172.09 192.124 Z" fill="#000000" fill-rule="nonzero" fill-opacity="1" /><path clip-path="url(#clip290)" d="M2195.91 193.12 Q2197.51 190.249 2199.73 188.884 Q2201.95 187.518 2204.96 187.518 Q2209.01 187.518 2211.21 190.365 Q2213.41 193.189 2213.41 198.421 L2213.41 214.069 L2209.13 214.069 L2209.13 198.559 Q2209.13 194.833 2207.81 193.027 Q2206.49 191.222 2203.78 191.222 Q2200.47 191.222 2198.55 193.421 Q2196.63 195.62 2196.63 199.416 L2196.63 214.069 L2192.35 214.069 L2192.35 198.559 Q2192.35 194.809 2191.03 193.027 Q2189.71 191.222 2186.95 191.222 Q2183.69 191.222 2181.77 193.444 Q2179.85 195.643 2179.85 199.416 L2179.85 214.069 L2175.57 214.069 L2175.57 188.143 L2179.85 188.143 L2179.85 192.171 Q2181.31 189.786 2183.34 188.652 Q2185.38 187.518 2188.18 187.518 Q2191.01 187.518 2192.97 188.953 Q2194.96 190.388 2195.91 193.12 Z" fill="#000000" fill-rule="nonzero" fill-opacity="1" /><path clip-path="url(#clip290)" d="M2233.69 201.036 Q2228.53 201.036 2226.54 202.217 Q2224.55 203.397 2224.55 206.245 Q2224.55 208.513 2226.03 209.856 Q2227.53 211.175 2230.1 211.175 Q2233.64 211.175 2235.77 208.675 Q2237.93 206.152 2237.93 201.985 L2237.93 201.036 L2233.69 201.036 M2242.19 199.277 L2242.19 214.069 L2237.93 214.069 L2237.93 210.133 Q2236.47 212.495 2234.29 213.629 Q2232.12 214.74 2228.97 214.74 Q2224.99 214.74 2222.63 212.518 Q2220.29 210.272 2220.29 206.522 Q2220.29 202.147 2223.2 199.925 Q2226.14 197.703 2231.95 197.703 L2237.93 197.703 L2237.93 197.286 Q2237.93 194.347 2235.98 192.749 Q2234.06 191.129 2230.57 191.129 Q2228.34 191.129 2226.24 191.661 Q2224.13 192.194 2222.19 193.259 L2222.19 189.323 Q2224.52 188.421 2226.72 187.981 Q2228.92 187.518 2231 187.518 Q2236.63 187.518 2239.41 190.434 Q2242.19 193.351 2242.19 199.277 Z" fill="#000000" fill-rule="nonzero" fill-opacity="1" /><path clip-path="url(#clip290)" d="M2250.96 178.05 L2255.22 178.05 L2255.22 214.069 L2250.96 214.069 L2250.96 178.05 Z" fill="#000000" fill-rule="nonzero" fill-opacity="1" /><polyline clip-path="url(#clip290)" style="stroke:#3da44d; stroke-linecap:round; stroke-linejoin:round; stroke-width:4; stroke-opacity:1; fill:none" points="1895.63,248.629 2040.2,248.629 "/>
<path clip-path="url(#clip290)" d="M2064.29 231.349 L2068.97 231.349 L2068.97 245.515 L2085.96 245.515 L2085.96 231.349 L2090.64 231.349 L2090.64 265.909 L2085.96 265.909 L2085.96 249.45 L2068.97 249.45 L2068.97 265.909 L2064.29 265.909 L2064.29 231.349 Z" fill="#000000" fill-rule="nonzero" fill-opacity="1" /><path clip-path="url(#clip290)" d="M2110.54 268.316 Q2108.74 272.946 2107.02 274.358 Q2105.31 275.77 2102.44 275.77 L2099.04 275.77 L2099.04 272.205 L2101.54 272.205 Q2103.3 272.205 2104.27 271.372 Q2105.24 270.538 2106.42 267.436 L2107.19 265.492 L2096.7 239.983 L2101.21 239.983 L2109.32 260.261 L2117.42 239.983 L2121.93 239.983 L2110.54 268.316 Z" fill="#000000" fill-rule="nonzero" fill-opacity="1" /><path clip-path="url(#clip290)" d="M2144.87 243.918 L2144.87 229.89 L2149.13 229.89 L2149.13 265.909 L2144.87 265.909 L2144.87 262.02 Q2143.53 264.335 2141.47 265.469 Q2139.43 266.58 2136.56 266.58 Q2131.86 266.58 2128.9 262.83 Q2125.96 259.08 2125.96 252.969 Q2125.96 246.858 2128.9 243.108 Q2131.86 239.358 2136.56 239.358 Q2139.43 239.358 2141.47 240.492 Q2143.53 241.603 2144.87 243.918 M2130.36 252.969 Q2130.36 257.668 2132.28 260.353 Q2134.22 263.015 2137.6 263.015 Q2140.98 263.015 2142.93 260.353 Q2144.87 257.668 2144.87 252.969 Q2144.87 248.27 2142.93 245.608 Q2140.98 242.923 2137.6 242.923 Q2134.22 242.923 2132.28 245.608 Q2130.36 248.27 2130.36 252.969 Z" fill="#000000" fill-rule="nonzero" fill-opacity="1" /><path clip-path="url(#clip290)" d="M2172.93 243.964 Q2172.21 243.548 2171.35 243.362 Q2170.52 243.154 2169.5 243.154 Q2165.89 243.154 2163.95 245.515 Q2162.02 247.853 2162.02 252.251 L2162.02 265.909 L2157.74 265.909 L2157.74 239.983 L2162.02 239.983 L2162.02 244.011 Q2163.37 241.649 2165.52 240.515 Q2167.67 239.358 2170.75 239.358 Q2171.19 239.358 2171.72 239.427 Q2172.26 239.474 2172.9 239.589 L2172.93 243.964 Z" fill="#000000" fill-rule="nonzero" fill-opacity="1" /><path clip-path="url(#clip290)" d="M2186.4 242.969 Q2182.97 242.969 2180.98 245.654 Q2178.99 248.316 2178.99 252.969 Q2178.99 257.622 2180.96 260.307 Q2182.95 262.969 2186.4 262.969 Q2189.8 262.969 2191.79 260.284 Q2193.78 257.598 2193.78 252.969 Q2193.78 248.362 2191.79 245.677 Q2189.8 242.969 2186.4 242.969 M2186.4 239.358 Q2191.95 239.358 2195.13 242.969 Q2198.3 246.58 2198.3 252.969 Q2198.3 259.335 2195.13 262.969 Q2191.95 266.58 2186.4 266.58 Q2180.82 266.58 2177.65 262.969 Q2174.5 259.335 2174.5 252.969 Q2174.5 246.58 2177.65 242.969 Q2180.82 239.358 2186.4 239.358 Z" fill="#000000" fill-rule="nonzero" fill-opacity="1" /></svg>
