<?xml version="1.0" encoding="utf-8"?>
<svg xmlns="http://www.w3.org/2000/svg" xmlns:xlink="http://www.w3.org/1999/xlink" width="500" height="300" viewBox="0 0 2000 1200">
<defs>
  <clipPath id="clip790">
    <rect x="0" y="0" width="2000" height="1200"/>
  </clipPath>
</defs>
<path clip-path="url(#clip790)" d="M0 1200 L2000 1200 L2000 0 L0 0  Z" fill="#ffffff" fill-rule="evenodd" fill-opacity="1"/>
<defs>
  <clipPath id="clip791">
    <rect x="400" y="0" width="1401" height="1200"/>
  </clipPath>
</defs>
<path clip-path="url(#clip790)" d="M253.799 1035.39 L1952.76 1035.39 L1952.76 117.424 L253.799 117.424  Z" fill="#ffffff" fill-rule="evenodd" fill-opacity="1"/>
<defs>
  <clipPath id="clip792">
    <rect x="253" y="117" width="1700" height="919"/>
  </clipPath>
</defs>
<polyline clip-path="url(#clip792)" style="stroke:#000000; stroke-linecap:round; stroke-linejoin:round; stroke-width:2; stroke-opacity:0.1; fill:none" points="269.173,1035.39 269.173,117.424 "/>
<polyline clip-path="url(#clip792)" style="stroke:#000000; stroke-linecap:round; stroke-linejoin:round; stroke-width:2; stroke-opacity:0.1; fill:none" points="596.273,1035.39 596.273,117.424 "/>
<polyline clip-path="url(#clip792)" style="stroke:#000000; stroke-linecap:round; stroke-linejoin:round; stroke-width:2; stroke-opacity:0.1; fill:none" points="923.373,1035.39 923.373,117.424 "/>
<polyline clip-path="url(#clip792)" style="stroke:#000000; stroke-linecap:round; stroke-linejoin:round; stroke-width:2; stroke-opacity:0.1; fill:none" points="1250.47,1035.39 1250.47,117.424 "/>
<polyline clip-path="url(#clip792)" style="stroke:#000000; stroke-linecap:round; stroke-linejoin:round; stroke-width:2; stroke-opacity:0.1; fill:none" points="1577.57,1035.39 1577.57,117.424 "/>
<polyline clip-path="url(#clip792)" style="stroke:#000000; stroke-linecap:round; stroke-linejoin:round; stroke-width:2; stroke-opacity:0.1; fill:none" points="1904.67,1035.39 1904.67,117.424 "/>
<polyline clip-path="url(#clip792)" style="stroke:#000000; stroke-linecap:round; stroke-linejoin:round; stroke-width:2; stroke-opacity:0.1; fill:none" points="253.799,1035.39 1952.76,1035.39 "/>
<polyline clip-path="url(#clip792)" style="stroke:#000000; stroke-linecap:round; stroke-linejoin:round; stroke-width:2; stroke-opacity:0.1; fill:none" points="253.799,851.795 1952.76,851.795 "/>
<polyline clip-path="url(#clip792)" style="stroke:#000000; stroke-linecap:round; stroke-linejoin:round; stroke-width:2; stroke-opacity:0.1; fill:none" points="253.799,668.202 1952.76,668.202 "/>
<polyline clip-path="url(#clip792)" style="stroke:#000000; stroke-linecap:round; stroke-linejoin:round; stroke-width:2; stroke-opacity:0.1; fill:none" points="253.799,484.61 1952.76,484.61 "/>
<polyline clip-path="url(#clip792)" style="stroke:#000000; stroke-linecap:round; stroke-linejoin:round; stroke-width:2; stroke-opacity:0.1; fill:none" points="253.799,301.017 1952.76,301.017 "/>
<polyline clip-path="url(#clip792)" style="stroke:#000000; stroke-linecap:round; stroke-linejoin:round; stroke-width:2; stroke-opacity:0.1; fill:none" points="253.799,117.424 1952.76,117.424 "/>
<polyline clip-path="url(#clip790)" style="stroke:#000000; stroke-linecap:round; stroke-linejoin:round; stroke-width:4; stroke-opacity:1; fill:none" points="253.799,1035.39 1952.76,1035.39 "/>
<polyline clip-path="url(#clip790)" style="stroke:#000000; stroke-linecap:round; stroke-linejoin:round; stroke-width:4; stroke-opacity:1; fill:none" points="269.173,1035.39 269.173,1016.49 "/>
<polyline clip-path="url(#clip790)" style="stroke:#000000; stroke-linecap:round; stroke-linejoin:round; stroke-width:4; stroke-opacity:1; fill:none" points="596.273,1035.39 596.273,1016.49 "/>
<polyline clip-path="url(#clip790)" style="stroke:#000000; stroke-linecap:round; stroke-linejoin:round; stroke-width:4; stroke-opacity:1; fill:none" points="923.373,1035.39 923.373,1016.49 "/>
<polyline clip-path="url(#clip790)" style="stroke:#000000; stroke-linecap:round; stroke-linejoin:round; stroke-width:4; stroke-opacity:1; fill:none" points="1250.47,1035.39 1250.47,1016.49 "/>
<polyline clip-path="url(#clip790)" style="stroke:#000000; stroke-linecap:round; stroke-linejoin:round; stroke-width:4; stroke-opacity:1; fill:none" points="1577.57,1035.39 1577.57,1016.49 "/>
<polyline clip-path="url(#clip790)" style="stroke:#000000; stroke-linecap:round; stroke-linejoin:round; stroke-width:4; stroke-opacity:1; fill:none" points="1904.67,1035.39 1904.67,1016.49 "/>
<path clip-path="url(#clip790)" d="M269.173 1063.11 Q265.562 1063.11 263.733 1066.67 Q261.928 1070.21 261.928 1077.34 Q261.928 1084.45 263.733 1088.01 Q265.562 1091.56 269.173 1091.56 Q272.807 1091.56 274.613 1088.01 Q276.441 1084.45 276.441 1077.34 Q276.441 1070.21 274.613 1066.67 Q272.807 1063.11 269.173 1063.11 M269.173 1059.4 Q274.983 1059.4 278.039 1064.01 Q281.117 1068.59 281.117 1077.34 Q281.117 1086.07 278.039 1090.68 Q274.983 1095.26 269.173 1095.26 Q263.363 1095.26 260.284 1090.68 Q257.229 1086.07 257.229 1077.34 Q257.229 1068.59 260.284 1064.01 Q263.363 1059.4 269.173 1059.4 Z" fill="#000000" fill-rule="nonzero" fill-opacity="1" /><path clip-path="url(#clip790)" d="M570.96 1090.65 L578.599 1090.65 L578.599 1064.29 L570.289 1065.95 L570.289 1061.69 L578.553 1060.03 L583.229 1060.03 L583.229 1090.65 L590.868 1090.65 L590.868 1094.59 L570.96 1094.59 L570.96 1090.65 Z" fill="#000000" fill-rule="nonzero" fill-opacity="1" /><path clip-path="url(#clip790)" d="M610.312 1063.11 Q606.701 1063.11 604.872 1066.67 Q603.067 1070.21 603.067 1077.34 Q603.067 1084.45 604.872 1088.01 Q606.701 1091.56 610.312 1091.56 Q613.946 1091.56 615.752 1088.01 Q617.581 1084.45 617.581 1077.34 Q617.581 1070.21 615.752 1066.67 Q613.946 1063.11 610.312 1063.11 M610.312 1059.4 Q616.122 1059.4 619.178 1064.01 Q622.256 1068.59 622.256 1077.34 Q622.256 1086.07 619.178 1090.68 Q616.122 1095.26 610.312 1095.26 Q604.502 1095.26 601.423 1090.68 Q598.368 1086.07 598.368 1077.34 Q598.368 1068.59 601.423 1064.01 Q604.502 1059.4 610.312 1059.4 Z" fill="#000000" fill-rule="nonzero" fill-opacity="1" /><path clip-path="url(#clip790)" d="M902.146 1090.65 L918.465 1090.65 L918.465 1094.59 L896.521 1094.59 L896.521 1090.65 Q899.183 1087.9 903.766 1083.27 Q908.373 1078.62 909.553 1077.27 Q911.799 1074.75 912.678 1073.01 Q913.581 1071.25 913.581 1069.56 Q913.581 1066.81 911.637 1065.07 Q909.715 1063.34 906.613 1063.34 Q904.414 1063.34 901.961 1064.1 Q899.53 1064.87 896.752 1066.42 L896.752 1061.69 Q899.576 1060.56 902.03 1059.98 Q904.484 1059.4 906.521 1059.4 Q911.891 1059.4 915.086 1062.09 Q918.28 1064.77 918.28 1069.26 Q918.28 1071.39 917.47 1073.31 Q916.683 1075.21 914.576 1077.81 Q913.998 1078.48 910.896 1081.69 Q907.794 1084.89 902.146 1090.65 Z" fill="#000000" fill-rule="nonzero" fill-opacity="1" /><path clip-path="url(#clip790)" d="M938.28 1063.11 Q934.669 1063.11 932.84 1066.67 Q931.035 1070.21 931.035 1077.34 Q931.035 1084.45 932.84 1088.01 Q934.669 1091.56 938.28 1091.56 Q941.914 1091.56 943.72 1088.01 Q945.548 1084.45 945.548 1077.34 Q945.548 1070.21 943.72 1066.67 Q941.914 1063.11 938.28 1063.11 M938.28 1059.4 Q944.09 1059.4 947.146 1064.01 Q950.224 1068.59 950.224 1077.34 Q950.224 1086.07 947.146 1090.68 Q944.09 1095.26 938.28 1095.26 Q932.47 1095.26 929.391 1090.68 Q926.336 1086.07 926.336 1077.34 Q926.336 1068.59 929.391 1064.01 Q932.47 1059.4 938.28 1059.4 Z" fill="#000000" fill-rule="nonzero" fill-opacity="1" /><path clip-path="url(#clip790)" d="M1239.32 1075.95 Q1242.67 1076.67 1244.55 1078.94 Q1246.44 1081.21 1246.44 1084.54 Q1246.44 1089.66 1242.93 1092.46 Q1239.41 1095.26 1232.93 1095.26 Q1230.75 1095.26 1228.44 1094.82 Q1226.14 1094.4 1223.69 1093.55 L1223.69 1089.03 Q1225.63 1090.17 1227.95 1090.75 Q1230.26 1091.32 1232.79 1091.32 Q1237.19 1091.32 1239.48 1089.59 Q1241.79 1087.85 1241.79 1084.54 Q1241.79 1081.49 1239.64 1079.77 Q1237.51 1078.04 1233.69 1078.04 L1229.66 1078.04 L1229.66 1074.19 L1233.88 1074.19 Q1237.32 1074.19 1239.15 1072.83 Q1240.98 1071.44 1240.98 1068.85 Q1240.98 1066.19 1239.08 1064.77 Q1237.21 1063.34 1233.69 1063.34 Q1231.77 1063.34 1229.57 1063.75 Q1227.37 1064.17 1224.73 1065.05 L1224.73 1060.88 Q1227.39 1060.14 1229.71 1059.77 Q1232.05 1059.4 1234.11 1059.4 Q1239.43 1059.4 1242.53 1061.83 Q1245.63 1064.24 1245.63 1068.36 Q1245.63 1071.23 1243.99 1073.22 Q1242.35 1075.19 1239.32 1075.95 Z" fill="#000000" fill-rule="nonzero" fill-opacity="1" /><path clip-path="url(#clip790)" d="M1265.31 1063.11 Q1261.7 1063.11 1259.87 1066.67 Q1258.07 1070.21 1258.07 1077.34 Q1258.07 1084.45 1259.87 1088.01 Q1261.7 1091.56 1265.31 1091.56 Q1268.94 1091.56 1270.75 1088.01 Q1272.58 1084.45 1272.58 1077.34 Q1272.58 1070.21 1270.75 1066.67 Q1268.94 1063.11 1265.31 1063.11 M1265.31 1059.4 Q1271.12 1059.4 1274.18 1064.01 Q1277.25 1068.59 1277.25 1077.34 Q1277.25 1086.07 1274.18 1090.68 Q1271.12 1095.26 1265.31 1095.26 Q1259.5 1095.26 1256.42 1090.68 Q1253.37 1086.07 1253.37 1077.34 Q1253.37 1068.59 1256.42 1064.01 Q1259.5 1059.4 1265.31 1059.4 Z" fill="#000000" fill-rule="nonzero" fill-opacity="1" /><path clip-path="url(#clip790)" d="M1565.74 1064.1 L1553.94 1082.55 L1565.74 1082.55 L1565.74 1064.1 M1564.52 1060.03 L1570.4 1060.03 L1570.4 1082.55 L1575.33 1082.55 L1575.33 1086.44 L1570.4 1086.44 L1570.4 1094.59 L1565.74 1094.59 L1565.74 1086.44 L1550.14 1086.44 L1550.14 1081.93 L1564.52 1060.03 Z" fill="#000000" fill-rule="nonzero" fill-opacity="1" /><path clip-path="url(#clip790)" d="M1593.06 1063.11 Q1589.45 1063.11 1587.62 1066.67 Q1585.81 1070.21 1585.81 1077.34 Q1585.81 1084.45 1587.62 1088.01 Q1589.45 1091.56 1593.06 1091.56 Q1596.69 1091.56 1598.5 1088.01 Q1600.33 1084.45 1600.33 1077.34 Q1600.33 1070.21 1598.5 1066.67 Q1596.69 1063.11 1593.06 1063.11 M1593.06 1059.4 Q1598.87 1059.4 1601.92 1064.01 Q1605 1068.59 1605 1077.34 Q1605 1086.07 1601.92 1090.68 Q1598.87 1095.26 1593.06 1095.26 Q1587.25 1095.26 1584.17 1090.68 Q1581.11 1086.07 1581.11 1077.34 Q1581.11 1068.59 1584.17 1064.01 Q1587.25 1059.4 1593.06 1059.4 Z" fill="#000000" fill-rule="nonzero" fill-opacity="1" /><path clip-path="url(#clip790)" d="M1879.37 1060.03 L1897.73 1060.03 L1897.73 1063.96 L1883.65 1063.96 L1883.65 1072.44 Q1884.67 1072.09 1885.69 1071.93 Q1886.71 1071.74 1887.73 1071.74 Q1893.51 1071.74 1896.89 1074.91 Q1900.27 1078.08 1900.27 1083.5 Q1900.27 1089.08 1896.8 1092.18 Q1893.33 1095.26 1887.01 1095.26 Q1884.83 1095.26 1882.57 1094.89 Q1880.32 1094.52 1877.91 1093.78 L1877.91 1089.08 Q1880 1090.21 1882.22 1090.77 Q1884.44 1091.32 1886.92 1091.32 Q1890.92 1091.32 1893.26 1089.22 Q1895.6 1087.11 1895.6 1083.5 Q1895.6 1079.89 1893.26 1077.78 Q1890.92 1075.68 1886.92 1075.68 Q1885.04 1075.68 1883.17 1076.09 Q1881.32 1076.51 1879.37 1077.39 L1879.37 1060.03 Z" fill="#000000" fill-rule="nonzero" fill-opacity="1" /><path clip-path="url(#clip790)" d="M1919.49 1063.11 Q1915.88 1063.11 1914.05 1066.67 Q1912.24 1070.21 1912.24 1077.34 Q1912.24 1084.45 1914.05 1088.01 Q1915.88 1091.56 1919.49 1091.56 Q1923.12 1091.56 1924.93 1088.01 Q1926.76 1084.45 1926.76 1077.34 Q1926.76 1070.21 1924.93 1066.67 Q1923.12 1063.11 1919.49 1063.11 M1919.49 1059.4 Q1925.3 1059.4 1928.35 1064.01 Q1931.43 1068.59 1931.43 1077.34 Q1931.43 1086.07 1928.35 1090.68 Q1925.3 1095.26 1919.49 1095.26 Q1913.68 1095.26 1910.6 1090.68 Q1907.54 1086.07 1907.54 1077.34 Q1907.54 1068.59 1910.6 1064.01 Q1913.68 1059.4 1919.49 1059.4 Z" fill="#000000" fill-rule="nonzero" fill-opacity="1" /><path clip-path="url(#clip790)" d="M1043.57 1128.29 L1043.57 1134.56 Q1039.91 1132.81 1036.66 1131.95 Q1033.41 1131.09 1030.39 1131.09 Q1025.14 1131.09 1022.27 1133.13 Q1019.44 1135.17 1019.44 1138.92 Q1019.44 1142.07 1021.32 1143.7 Q1023.23 1145.29 1028.51 1146.27 L1032.4 1147.07 Q1039.59 1148.44 1042.99 1151.91 Q1046.43 1155.35 1046.43 1161.14 Q1046.43 1168.05 1041.78 1171.61 Q1037.17 1175.17 1028.23 1175.17 Q1024.85 1175.17 1021.03 1174.41 Q1017.25 1173.65 1013.17 1172.15 L1013.17 1165.53 Q1017.09 1167.73 1020.84 1168.84 Q1024.6 1169.95 1028.23 1169.95 Q1033.73 1169.95 1036.72 1167.79 Q1039.72 1165.63 1039.72 1161.62 Q1039.72 1158.11 1037.55 1156.14 Q1035.42 1154.17 1030.52 1153.18 L1026.6 1152.42 Q1019.41 1150.99 1016.19 1147.93 Q1012.98 1144.87 1012.98 1139.43 Q1012.98 1133.13 1017.4 1129.5 Q1021.86 1125.87 1029.66 1125.87 Q1033 1125.87 1036.47 1126.48 Q1039.94 1127.08 1043.57 1128.29 Z" fill="#000000" fill-rule="nonzero" fill-opacity="1" /><path clip-path="url(#clip790)" d="M1062 1128.48 L1062 1138.6 L1074.06 1138.6 L1074.06 1143.16 L1062 1143.16 L1062 1162.51 Q1062 1166.87 1063.17 1168.11 Q1064.38 1169.35 1068.04 1169.35 L1074.06 1169.35 L1074.06 1174.25 L1068.04 1174.25 Q1061.26 1174.25 1058.69 1171.74 Q1056.11 1169.19 1056.11 1162.51 L1056.11 1143.16 L1051.81 1143.16 L1051.81 1138.6 L1056.11 1138.6 L1056.11 1128.48 L1062 1128.48 Z" fill="#000000" fill-rule="nonzero" fill-opacity="1" /><path clip-path="url(#clip790)" d="M1097.96 1156.33 Q1090.86 1156.33 1088.13 1157.96 Q1085.39 1159.58 1085.39 1163.49 Q1085.39 1166.61 1087.43 1168.46 Q1089.5 1170.27 1093.03 1170.27 Q1097.9 1170.27 1100.83 1166.84 Q1103.79 1163.37 1103.79 1157.64 L1103.79 1156.33 L1097.96 1156.33 M1109.64 1153.91 L1109.64 1174.25 L1103.79 1174.25 L1103.79 1168.84 Q1101.78 1172.09 1098.79 1173.65 Q1095.8 1175.17 1091.47 1175.17 Q1085.99 1175.17 1082.75 1172.12 Q1079.53 1169.03 1079.53 1163.88 Q1079.53 1157.86 1083.54 1154.8 Q1087.59 1151.75 1095.58 1151.75 L1103.79 1151.75 L1103.79 1151.18 Q1103.79 1147.13 1101.11 1144.94 Q1098.47 1142.71 1093.67 1142.71 Q1090.61 1142.71 1087.71 1143.44 Q1084.82 1144.17 1082.14 1145.64 L1082.14 1140.23 Q1085.36 1138.99 1088.38 1138.38 Q1091.41 1137.74 1094.27 1137.74 Q1102 1137.74 1105.82 1141.75 Q1109.64 1145.77 1109.64 1153.91 Z" fill="#000000" fill-rule="nonzero" fill-opacity="1" /><path clip-path="url(#clip790)" d="M1145.16 1156.01 Q1145.16 1149.65 1142.52 1146.15 Q1139.91 1142.65 1135.17 1142.65 Q1130.46 1142.65 1127.82 1146.15 Q1125.21 1149.65 1125.21 1156.01 Q1125.21 1162.35 1127.82 1165.85 Q1130.46 1169.35 1135.17 1169.35 Q1139.91 1169.35 1142.52 1165.85 Q1145.16 1162.35 1145.16 1156.01 M1151.02 1169.83 Q1151.02 1178.93 1146.98 1183.35 Q1142.94 1187.81 1134.6 1187.81 Q1131.51 1187.81 1128.77 1187.33 Q1126.03 1186.89 1123.46 1185.93 L1123.46 1180.24 Q1126.03 1181.64 1128.55 1182.3 Q1131.06 1182.97 1133.67 1182.97 Q1139.43 1182.97 1142.3 1179.95 Q1145.16 1176.96 1145.16 1170.88 L1145.16 1167.98 Q1143.35 1171.13 1140.52 1172.69 Q1137.68 1174.25 1133.74 1174.25 Q1127.18 1174.25 1123.17 1169.25 Q1119.16 1164.26 1119.16 1156.01 Q1119.16 1147.74 1123.17 1142.74 Q1127.18 1137.74 1133.74 1137.74 Q1137.68 1137.74 1140.52 1139.3 Q1143.35 1140.86 1145.16 1144.01 L1145.16 1138.6 L1151.02 1138.6 L1151.02 1169.83 Z" fill="#000000" fill-rule="nonzero" fill-opacity="1" /><path clip-path="url(#clip790)" d="M1193.58 1154.96 L1193.58 1157.83 L1166.65 1157.83 Q1167.03 1163.88 1170.28 1167.06 Q1173.55 1170.21 1179.38 1170.21 Q1182.75 1170.21 1185.9 1169.38 Q1189.09 1168.55 1192.21 1166.9 L1192.21 1172.44 Q1189.06 1173.77 1185.75 1174.47 Q1182.44 1175.17 1179.03 1175.17 Q1170.5 1175.17 1165.5 1170.21 Q1160.54 1165.24 1160.54 1156.78 Q1160.54 1148.03 1165.25 1142.9 Q1169.99 1137.74 1178.01 1137.74 Q1185.2 1137.74 1189.37 1142.39 Q1193.58 1147.01 1193.58 1154.96 M1187.72 1153.25 Q1187.66 1148.44 1185.01 1145.57 Q1182.4 1142.71 1178.07 1142.71 Q1173.17 1142.71 1170.21 1145.48 Q1167.28 1148.25 1166.84 1153.28 L1187.72 1153.25 Z" fill="#000000" fill-rule="nonzero" fill-opacity="1" /><polyline clip-path="url(#clip790)" style="stroke:#000000; stroke-linecap:round; stroke-linejoin:round; stroke-width:4; stroke-opacity:1; fill:none" points="253.799,1035.39 253.799,117.424 "/>
<polyline clip-path="url(#clip790)" style="stroke:#000000; stroke-linecap:round; stroke-linejoin:round; stroke-width:4; stroke-opacity:1; fill:none" points="253.799,1035.39 272.697,1035.39 "/>
<polyline clip-path="url(#clip790)" style="stroke:#000000; stroke-linecap:round; stroke-linejoin:round; stroke-width:4; stroke-opacity:1; fill:none" points="253.799,851.795 272.697,851.795 "/>
<polyline clip-path="url(#clip790)" style="stroke:#000000; stroke-linecap:round; stroke-linejoin:round; stroke-width:4; stroke-opacity:1; fill:none" points="253.799,668.202 272.697,668.202 "/>
<polyline clip-path="url(#clip790)" style="stroke:#000000; stroke-linecap:round; stroke-linejoin:round; stroke-width:4; stroke-opacity:1; fill:none" points="253.799,484.61 272.697,484.61 "/>
<polyline clip-path="url(#clip790)" style="stroke:#000000; stroke-linecap:round; stroke-linejoin:round; stroke-width:4; stroke-opacity:1; fill:none" points="253.799,301.017 272.697,301.017 "/>
<polyline clip-path="url(#clip790)" style="stroke:#000000; stroke-linecap:round; stroke-linejoin:round; stroke-width:4; stroke-opacity:1; fill:none" points="253.799,117.424 272.697,117.424 "/>
<path clip-path="url(#clip790)" d="M211.855 1021.19 Q208.244 1021.19 206.415 1024.75 Q204.61 1028.29 204.61 1035.42 Q204.61 1042.53 206.415 1046.09 Q208.244 1049.64 211.855 1049.64 Q215.489 1049.64 217.295 1046.09 Q219.123 1042.53 219.123 1035.42 Q219.123 1028.29 217.295 1024.75 Q215.489 1021.19 211.855 1021.19 M211.855 1017.48 Q217.665 1017.48 220.721 1022.09 Q223.799 1026.67 223.799 1035.42 Q223.799 1044.15 220.721 1048.76 Q217.665 1053.34 211.855 1053.34 Q206.045 1053.34 202.966 1048.76 Q199.91 1044.15 199.91 1035.42 Q199.91 1026.67 202.966 1022.09 Q206.045 1017.48 211.855 1017.48 Z" fill="#000000" fill-rule="nonzero" fill-opacity="1" /><path clip-path="url(#clip790)" d="M145.559 865.14 L161.878 865.14 L161.878 869.075 L139.934 869.075 L139.934 865.14 Q142.596 862.385 147.179 857.756 Q151.786 853.103 152.966 851.76 Q155.212 849.237 156.091 847.501 Q156.994 845.742 156.994 844.052 Q156.994 841.297 155.05 839.561 Q153.128 837.825 150.026 837.825 Q147.827 837.825 145.374 838.589 Q142.943 839.353 140.165 840.904 L140.165 836.182 Q142.989 835.048 145.443 834.469 Q147.897 833.89 149.934 833.89 Q155.304 833.89 158.499 836.575 Q161.693 839.26 161.693 843.751 Q161.693 845.881 160.883 847.802 Q160.096 849.7 157.989 852.293 Q157.411 852.964 154.309 856.182 Q151.207 859.376 145.559 865.14 Z" fill="#000000" fill-rule="nonzero" fill-opacity="1" /><path clip-path="url(#clip790)" d="M181.693 837.594 Q178.082 837.594 176.253 841.159 Q174.448 844.7 174.448 851.83 Q174.448 858.936 176.253 862.501 Q178.082 866.043 181.693 866.043 Q185.327 866.043 187.133 862.501 Q188.961 858.936 188.961 851.83 Q188.961 844.7 187.133 841.159 Q185.327 837.594 181.693 837.594 M181.693 833.89 Q187.503 833.89 190.559 838.497 Q193.637 843.08 193.637 851.83 Q193.637 860.557 190.559 865.163 Q187.503 869.746 181.693 869.746 Q175.883 869.746 172.804 865.163 Q169.749 860.557 169.749 851.83 Q169.749 843.08 172.804 838.497 Q175.883 833.89 181.693 833.89 Z" fill="#000000" fill-rule="nonzero" fill-opacity="1" /><path clip-path="url(#clip790)" d="M211.855 837.594 Q208.244 837.594 206.415 841.159 Q204.61 844.7 204.61 851.83 Q204.61 858.936 206.415 862.501 Q208.244 866.043 211.855 866.043 Q215.489 866.043 217.295 862.501 Q219.123 858.936 219.123 851.83 Q219.123 844.7 217.295 841.159 Q215.489 837.594 211.855 837.594 M211.855 833.89 Q217.665 833.89 220.721 838.497 Q223.799 843.08 223.799 851.83 Q223.799 860.557 220.721 865.163 Q217.665 869.746 211.855 869.746 Q206.045 869.746 202.966 865.163 Q199.91 860.557 199.91 851.83 Q199.91 843.08 202.966 838.497 Q206.045 833.89 211.855 833.89 Z" fill="#000000" fill-rule="nonzero" fill-opacity="1" /><path clip-path="url(#clip790)" d="M154.378 654.996 L142.573 673.445 L154.378 673.445 L154.378 654.996 M153.151 650.922 L159.031 650.922 L159.031 673.445 L163.962 673.445 L163.962 677.334 L159.031 677.334 L159.031 685.482 L154.378 685.482 L154.378 677.334 L138.777 677.334 L138.777 672.82 L153.151 650.922 Z" fill="#000000" fill-rule="nonzero" fill-opacity="1" /><path clip-path="url(#clip790)" d="M181.693 654.001 Q178.082 654.001 176.253 657.566 Q174.448 661.107 174.448 668.237 Q174.448 675.344 176.253 678.908 Q178.082 682.45 181.693 682.45 Q185.327 682.45 187.133 678.908 Q188.961 675.344 188.961 668.237 Q188.961 661.107 187.133 657.566 Q185.327 654.001 181.693 654.001 M181.693 650.297 Q187.503 650.297 190.559 654.904 Q193.637 659.487 193.637 668.237 Q193.637 676.964 190.559 681.57 Q187.503 686.154 181.693 686.154 Q175.883 686.154 172.804 681.57 Q169.749 676.964 169.749 668.237 Q169.749 659.487 172.804 654.904 Q175.883 650.297 181.693 650.297 Z" fill="#000000" fill-rule="nonzero" fill-opacity="1" /><path clip-path="url(#clip790)" d="M211.855 654.001 Q208.244 654.001 206.415 657.566 Q204.61 661.107 204.61 668.237 Q204.61 675.344 206.415 678.908 Q208.244 682.45 211.855 682.45 Q215.489 682.45 217.295 678.908 Q219.123 675.344 219.123 668.237 Q219.123 661.107 217.295 657.566 Q215.489 654.001 211.855 654.001 M211.855 650.297 Q217.665 650.297 220.721 654.904 Q223.799 659.487 223.799 668.237 Q223.799 676.964 220.721 681.57 Q217.665 686.154 211.855 686.154 Q206.045 686.154 202.966 681.57 Q199.91 676.964 199.91 668.237 Q199.91 659.487 202.966 654.904 Q206.045 650.297 211.855 650.297 Z" fill="#000000" fill-rule="nonzero" fill-opacity="1" /><path clip-path="url(#clip790)" d="M152.11 482.746 Q148.962 482.746 147.11 484.899 Q145.281 487.052 145.281 490.802 Q145.281 494.529 147.11 496.704 Q148.962 498.857 152.11 498.857 Q155.258 498.857 157.087 496.704 Q158.938 494.529 158.938 490.802 Q158.938 487.052 157.087 484.899 Q155.258 482.746 152.11 482.746 M161.392 468.093 L161.392 472.353 Q159.633 471.519 157.827 471.08 Q156.045 470.64 154.286 470.64 Q149.656 470.64 147.202 473.765 Q144.772 476.89 144.425 483.209 Q145.79 481.195 147.851 480.13 Q149.911 479.043 152.388 479.043 Q157.596 479.043 160.605 482.214 Q163.638 485.362 163.638 490.802 Q163.638 496.126 160.489 499.343 Q157.341 502.561 152.11 502.561 Q146.114 502.561 142.943 497.978 Q139.772 493.371 139.772 484.644 Q139.772 476.45 143.661 471.589 Q147.55 466.705 154.101 466.705 Q155.86 466.705 157.642 467.052 Q159.448 467.399 161.392 468.093 Z" fill="#000000" fill-rule="nonzero" fill-opacity="1" /><path clip-path="url(#clip790)" d="M181.693 470.408 Q178.082 470.408 176.253 473.973 Q174.448 477.515 174.448 484.644 Q174.448 491.751 176.253 495.316 Q178.082 498.857 181.693 498.857 Q185.327 498.857 187.133 495.316 Q188.961 491.751 188.961 484.644 Q188.961 477.515 187.133 473.973 Q185.327 470.408 181.693 470.408 M181.693 466.705 Q187.503 466.705 190.559 471.311 Q193.637 475.894 193.637 484.644 Q193.637 493.371 190.559 497.978 Q187.503 502.561 181.693 502.561 Q175.883 502.561 172.804 497.978 Q169.749 493.371 169.749 484.644 Q169.749 475.894 172.804 471.311 Q175.883 466.705 181.693 466.705 Z" fill="#000000" fill-rule="nonzero" fill-opacity="1" /><path clip-path="url(#clip790)" d="M211.855 470.408 Q208.244 470.408 206.415 473.973 Q204.61 477.515 204.61 484.644 Q204.61 491.751 206.415 495.316 Q208.244 498.857 211.855 498.857 Q215.489 498.857 217.295 495.316 Q219.123 491.751 219.123 484.644 Q219.123 477.515 217.295 473.973 Q215.489 470.408 211.855 470.408 M211.855 466.705 Q217.665 466.705 220.721 471.311 Q223.799 475.894 223.799 484.644 Q223.799 493.371 220.721 497.978 Q217.665 502.561 211.855 502.561 Q206.045 502.561 202.966 497.978 Q199.91 493.371 199.91 484.644 Q199.91 475.894 202.966 471.311 Q206.045 466.705 211.855 466.705 Z" fill="#000000" fill-rule="nonzero" fill-opacity="1" /><path clip-path="url(#clip790)" d="M151.531 301.885 Q148.198 301.885 146.276 303.667 Q144.378 305.45 144.378 308.575 Q144.378 311.7 146.276 313.482 Q148.198 315.264 151.531 315.264 Q154.864 315.264 156.786 313.482 Q158.707 311.677 158.707 308.575 Q158.707 305.45 156.786 303.667 Q154.888 301.885 151.531 301.885 M146.855 299.894 Q143.846 299.153 142.156 297.093 Q140.489 295.033 140.489 292.07 Q140.489 287.927 143.429 285.519 Q146.392 283.112 151.531 283.112 Q156.693 283.112 159.633 285.519 Q162.573 287.927 162.573 292.07 Q162.573 295.033 160.883 297.093 Q159.216 299.153 156.23 299.894 Q159.61 300.681 161.485 302.973 Q163.383 305.265 163.383 308.575 Q163.383 313.598 160.304 316.283 Q157.249 318.968 151.531 318.968 Q145.814 318.968 142.735 316.283 Q139.679 313.598 139.679 308.575 Q139.679 305.265 141.577 302.973 Q143.476 300.681 146.855 299.894 M145.142 292.51 Q145.142 295.195 146.809 296.7 Q148.499 298.204 151.531 298.204 Q154.54 298.204 156.23 296.7 Q157.943 295.195 157.943 292.51 Q157.943 289.825 156.23 288.32 Q154.54 286.816 151.531 286.816 Q148.499 286.816 146.809 288.32 Q145.142 289.825 145.142 292.51 Z" fill="#000000" fill-rule="nonzero" fill-opacity="1" /><path clip-path="url(#clip790)" d="M181.693 286.816 Q178.082 286.816 176.253 290.38 Q174.448 293.922 174.448 301.052 Q174.448 308.158 176.253 311.723 Q178.082 315.264 181.693 315.264 Q185.327 315.264 187.133 311.723 Q188.961 308.158 188.961 301.052 Q188.961 293.922 187.133 290.38 Q185.327 286.816 181.693 286.816 M181.693 283.112 Q187.503 283.112 190.559 287.718 Q193.637 292.302 193.637 301.052 Q193.637 309.778 190.559 314.385 Q187.503 318.968 181.693 318.968 Q175.883 318.968 172.804 314.385 Q169.749 309.778 169.749 301.052 Q169.749 292.302 172.804 287.718 Q175.883 283.112 181.693 283.112 Z" fill="#000000" fill-rule="nonzero" fill-opacity="1" /><path clip-path="url(#clip790)" d="M211.855 286.816 Q208.244 286.816 206.415 290.38 Q204.61 293.922 204.61 301.052 Q204.61 308.158 206.415 311.723 Q208.244 315.264 211.855 315.264 Q215.489 315.264 217.295 311.723 Q219.123 308.158 219.123 301.052 Q219.123 293.922 217.295 290.38 Q215.489 286.816 211.855 286.816 M211.855 283.112 Q217.665 283.112 220.721 287.718 Q223.799 292.302 223.799 301.052 Q223.799 309.778 220.721 314.385 Q217.665 318.968 211.855 318.968 Q206.045 318.968 202.966 314.385 Q199.91 309.778 199.91 301.052 Q199.91 292.302 202.966 287.718 Q206.045 283.112 211.855 283.112 Z" fill="#000000" fill-rule="nonzero" fill-opacity="1" /><path clip-path="url(#clip790)" d="M112.179 130.769 L119.818 130.769 L119.818 104.403 L111.508 106.07 L111.508 101.811 L119.772 100.144 L124.448 100.144 L124.448 130.769 L132.087 130.769 L132.087 134.704 L112.179 134.704 L112.179 130.769 Z" fill="#000000" fill-rule="nonzero" fill-opacity="1" /><path clip-path="url(#clip790)" d="M151.531 103.223 Q147.92 103.223 146.091 106.788 Q144.286 110.329 144.286 117.459 Q144.286 124.565 146.091 128.13 Q147.92 131.672 151.531 131.672 Q155.165 131.672 156.971 128.13 Q158.8 124.565 158.8 117.459 Q158.8 110.329 156.971 106.788 Q155.165 103.223 151.531 103.223 M151.531 99.5191 Q157.341 99.5191 160.397 104.126 Q163.475 108.709 163.475 117.459 Q163.475 126.186 160.397 130.792 Q157.341 135.375 151.531 135.375 Q145.721 135.375 142.642 130.792 Q139.587 126.186 139.587 117.459 Q139.587 108.709 142.642 104.126 Q145.721 99.5191 151.531 99.5191 Z" fill="#000000" fill-rule="nonzero" fill-opacity="1" /><path clip-path="url(#clip790)" d="M181.693 103.223 Q178.082 103.223 176.253 106.788 Q174.448 110.329 174.448 117.459 Q174.448 124.565 176.253 128.13 Q178.082 131.672 181.693 131.672 Q185.327 131.672 187.133 128.13 Q188.961 124.565 188.961 117.459 Q188.961 110.329 187.133 106.788 Q185.327 103.223 181.693 103.223 M181.693 99.5191 Q187.503 99.5191 190.559 104.126 Q193.637 108.709 193.637 117.459 Q193.637 126.186 190.559 130.792 Q187.503 135.375 181.693 135.375 Q175.883 135.375 172.804 130.792 Q169.749 126.186 169.749 117.459 Q169.749 108.709 172.804 104.126 Q175.883 99.5191 181.693 99.5191 Z" fill="#000000" fill-rule="nonzero" fill-opacity="1" /><path clip-path="url(#clip790)" d="M211.855 103.223 Q208.244 103.223 206.415 106.788 Q204.61 110.329 204.61 117.459 Q204.61 124.565 206.415 128.13 Q208.244 131.672 211.855 131.672 Q215.489 131.672 217.295 128.13 Q219.123 124.565 219.123 117.459 Q219.123 110.329 217.295 106.788 Q215.489 103.223 211.855 103.223 M211.855 99.5191 Q217.665 99.5191 220.721 104.126 Q223.799 108.709 223.799 117.459 Q223.799 126.186 220.721 130.792 Q217.665 135.375 211.855 135.375 Q206.045 135.375 202.966 130.792 Q199.91 126.186 199.91 117.459 Q199.91 108.709 202.966 104.126 Q206.045 99.5191 211.855 99.5191 Z" fill="#000000" fill-rule="nonzero" fill-opacity="1" /><path clip-path="url(#clip790)" d="M24.0927 692.421 Q24.0927 699.423 29.3125 703.561 Q34.5324 707.667 43.5399 707.667 Q52.5155 707.667 57.7354 703.561 Q62.9553 699.423 62.9553 692.421 Q62.9553 685.419 57.7354 681.345 Q52.5155 677.239 43.5399 677.239 Q34.5324 677.239 29.3125 681.345 Q24.0927 685.419 24.0927 692.421 M66.3928 683.414 L75.6549 674.947 L75.6549 682.713 L68.0479 689.747 Q68.1115 690.798 68.1434 691.371 Q68.1752 691.912 68.1752 692.421 Q68.1752 702.447 61.4912 708.463 Q54.7754 714.446 43.5399 714.446 Q32.2726 714.446 25.5886 708.463 Q18.8728 702.447 18.8728 692.421 Q18.8728 682.427 25.5886 676.443 Q32.2726 670.459 43.5399 670.459 Q51.8153 670.459 57.7036 673.801 Q63.5919 677.111 66.3928 683.414 Z" fill="#000000" fill-rule="nonzero" fill-opacity="1" /><path clip-path="url(#clip790)" d="M53.1839 661.261 L31.6042 661.261 L31.6042 655.404 L52.9611 655.404 Q58.0219 655.404 60.5682 653.431 Q63.0826 651.458 63.0826 647.511 Q63.0826 642.768 60.0589 640.031 Q57.0352 637.262 51.8153 637.262 L31.6042 637.262 L31.6042 631.406 L67.2522 631.406 L67.2522 637.262 L61.7776 637.262 Q65.0242 639.395 66.6156 642.227 Q68.1752 645.028 68.1752 648.752 Q68.1752 654.895 64.3558 658.078 Q60.5363 661.261 53.1839 661.261 M30.7448 646.524 L30.7448 646.524 Z" fill="#000000" fill-rule="nonzero" fill-opacity="1" /><path clip-path="url(#clip790)" d="M49.3327 603.142 Q49.3327 610.24 50.9559 612.977 Q52.5792 615.714 56.4941 615.714 Q59.6133 615.714 61.4594 613.677 Q63.2736 611.608 63.2736 608.075 Q63.2736 603.206 59.8361 600.277 Q56.3668 597.317 50.6377 597.317 L49.3327 597.317 L49.3327 603.142 M46.9137 591.461 L67.2522 591.461 L67.2522 597.317 L61.8413 597.317 Q65.0878 599.323 66.6474 602.314 Q68.1752 605.306 68.1752 609.635 Q68.1752 615.109 65.1196 618.356 Q62.0323 621.571 56.8761 621.571 Q50.8605 621.571 47.8049 617.56 Q44.7494 613.518 44.7494 605.529 L44.7494 597.317 L44.1765 597.317 Q40.1342 597.317 37.9381 599.991 Q35.7101 602.633 35.7101 607.439 Q35.7101 610.494 36.4421 613.391 Q37.1742 616.287 38.6383 618.961 L33.2275 618.961 Q31.9861 615.746 31.3814 612.722 Q30.7448 609.699 30.7448 606.834 Q30.7448 599.1 34.7552 595.28 Q38.7656 591.461 46.9137 591.461 Z" fill="#000000" fill-rule="nonzero" fill-opacity="1" /><path clip-path="url(#clip790)" d="M45.7361 549.766 L67.2522 549.766 L67.2522 555.622 L45.927 555.622 Q40.8663 555.622 38.3518 557.595 Q35.8374 559.569 35.8374 563.515 Q35.8374 568.258 38.8611 570.995 Q41.8848 573.732 47.1047 573.732 L67.2522 573.732 L67.2522 579.621 L31.6042 579.621 L31.6042 573.732 L37.1424 573.732 Q33.9277 571.632 32.3363 568.799 Q30.7448 565.934 30.7448 562.21 Q30.7448 556.068 34.5643 552.917 Q38.3518 549.766 45.7361 549.766 Z" fill="#000000" fill-rule="nonzero" fill-opacity="1" /><path clip-path="url(#clip790)" d="M21.4827 532.292 L31.6042 532.292 L31.6042 520.229 L36.1557 520.229 L36.1557 532.292 L55.5074 532.292 Q59.8679 532.292 61.1093 531.114 Q62.3506 529.904 62.3506 526.244 L62.3506 520.229 L67.2522 520.229 L67.2522 526.244 Q67.2522 533.024 64.7377 535.602 Q62.1914 538.18 55.5074 538.18 L36.1557 538.18 L36.1557 542.477 L31.6042 542.477 L31.6042 538.18 L21.4827 538.18 L21.4827 532.292 Z" fill="#000000" fill-rule="nonzero" fill-opacity="1" /><path clip-path="url(#clip790)" d="M31.6042 512.526 L31.6042 506.67 L67.2522 506.67 L67.2522 512.526 L31.6042 512.526 M17.727 512.526 L17.727 506.67 L25.143 506.67 L25.143 512.526 L17.727 512.526 Z" fill="#000000" fill-rule="nonzero" fill-opacity="1" /><path clip-path="url(#clip790)" d="M21.4827 488.623 L31.6042 488.623 L31.6042 476.56 L36.1557 476.56 L36.1557 488.623 L55.5074 488.623 Q59.8679 488.623 61.1093 487.445 Q62.3506 486.236 62.3506 482.575 L62.3506 476.56 L67.2522 476.56 L67.2522 482.575 Q67.2522 489.355 64.7377 491.933 Q62.1914 494.511 55.5074 494.511 L36.1557 494.511 L36.1557 498.808 L31.6042 498.808 L31.6042 494.511 L21.4827 494.511 L21.4827 488.623 Z" fill="#000000" fill-rule="nonzero" fill-opacity="1" /><path clip-path="url(#clip790)" d="M70.5623 454.025 Q76.928 456.508 78.8696 458.863 Q80.8111 461.219 80.8111 465.165 L80.8111 469.844 L75.9095 469.844 L75.9095 466.407 Q75.9095 463.988 74.7637 462.651 Q73.6179 461.314 69.3528 459.691 L66.6792 458.64 L31.6042 473.059 L31.6042 466.852 L59.486 455.712 L31.6042 444.572 L31.6042 438.366 L70.5623 454.025 Z" fill="#000000" fill-rule="nonzero" fill-opacity="1" /><path clip-path="url(#clip790)" d="M570.158 27.2059 L553.752 49.2833 L571.009 72.576 L562.219 72.576 L549.013 54.752 L535.807 72.576 L527.016 72.576 L544.638 48.8377 L528.515 27.2059 L537.305 27.2059 L549.337 43.369 L561.368 27.2059 L570.158 27.2059 Z" fill="#000000" fill-rule="nonzero" fill-opacity="1" /><path clip-path="url(#clip790)" d="M616.015 86.3491 L616.015 92.1419 L572.913 92.1419 L572.913 86.3491 L616.015 86.3491 Z" fill="#000000" fill-rule="nonzero" fill-opacity="1" /><path clip-path="url(#clip790)" d="M623.023 27.2059 L630.476 27.2059 L630.476 72.576 L623.023 72.576 L623.023 27.2059 M623.023 9.54393 L630.476 9.54393 L630.476 18.9825 L623.023 18.9825 L623.023 9.54393 Z" fill="#000000" fill-rule="nonzero" fill-opacity="1" /><path clip-path="url(#clip790)" d="M683.786 45.1919 L683.786 72.576 L676.333 72.576 L676.333 45.4349 Q676.333 38.994 673.821 35.7938 Q671.309 32.5936 666.286 32.5936 Q660.25 32.5936 656.767 36.4419 Q653.283 40.2903 653.283 46.9338 L653.283 72.576 L645.789 72.576 L645.789 27.2059 L653.283 27.2059 L653.283 34.2544 Q655.956 30.163 659.562 28.1376 Q663.208 26.1121 667.947 26.1121 Q675.765 26.1121 679.776 30.9732 Q683.786 35.7938 683.786 45.1919 Z" fill="#000000" fill-rule="nonzero" fill-opacity="1" /><path clip-path="url(#clip790)" d="M693.306 27.2059 L701.205 27.2059 L715.383 65.2844 L729.561 27.2059 L737.461 27.2059 L720.447 72.576 L710.32 72.576 L693.306 27.2059 Z" fill="#000000" fill-rule="nonzero" fill-opacity="1" /><path clip-path="url(#clip790)" d="M786.558 48.0275 L786.558 51.6733 L752.287 51.6733 Q752.773 59.3701 756.905 63.421 Q761.077 67.4314 768.491 67.4314 Q772.785 67.4314 776.795 66.3781 Q780.846 65.3249 784.816 63.2184 L784.816 70.267 Q780.805 71.9684 776.592 72.8596 Q772.379 73.7508 768.045 73.7508 Q757.189 73.7508 750.829 67.4314 Q744.509 61.1119 744.509 50.3365 Q744.509 39.1965 750.505 32.6746 Q756.54 26.1121 766.749 26.1121 Q775.904 26.1121 781.21 32.0264 Q786.558 37.9003 786.558 48.0275 M779.104 45.84 Q779.023 39.7232 775.661 36.0774 Q772.339 32.4315 766.83 32.4315 Q760.591 32.4315 756.824 35.9558 Q753.097 39.4801 752.53 45.8805 L779.104 45.84 Z" fill="#000000" fill-rule="nonzero" fill-opacity="1" /><path clip-path="url(#clip790)" d="M836.505 45.1919 L836.505 72.576 L829.052 72.576 L829.052 45.4349 Q829.052 38.994 826.54 35.7938 Q824.028 32.5936 819.005 32.5936 Q812.97 32.5936 809.486 36.4419 Q806.002 40.2903 806.002 46.9338 L806.002 72.576 L798.508 72.576 L798.508 27.2059 L806.002 27.2059 L806.002 34.2544 Q808.676 30.163 812.281 28.1376 Q815.927 26.1121 820.666 26.1121 Q828.484 26.1121 832.495 30.9732 Q836.505 35.7938 836.505 45.1919 Z" fill="#000000" fill-rule="nonzero" fill-opacity="1" /><path clip-path="url(#clip790)" d="M858.745 14.324 L858.745 27.2059 L874.098 27.2059 L874.098 32.9987 L858.745 32.9987 L858.745 57.6282 Q858.745 63.1779 860.244 64.7578 Q861.783 66.3376 866.441 66.3376 L874.098 66.3376 L874.098 72.576 L866.441 72.576 Q857.813 72.576 854.532 69.3758 Q851.251 66.1351 851.251 57.6282 L851.251 32.9987 L845.782 32.9987 L845.782 27.2059 L851.251 27.2059 L851.251 14.324 L858.745 14.324 Z" fill="#000000" fill-rule="nonzero" fill-opacity="1" /><path clip-path="url(#clip790)" d="M901.482 32.4315 Q895.486 32.4315 892.003 37.1306 Q888.519 41.7891 888.519 49.9314 Q888.519 58.0738 891.962 62.7728 Q895.446 67.4314 901.482 67.4314 Q907.437 67.4314 910.92 62.7323 Q914.404 58.0333 914.404 49.9314 Q914.404 41.8701 910.92 37.1711 Q907.437 32.4315 901.482 32.4315 M901.482 26.1121 Q911.204 26.1121 916.754 32.4315 Q922.303 38.7509 922.303 49.9314 Q922.303 61.0714 916.754 67.4314 Q911.204 73.7508 901.482 73.7508 Q891.719 73.7508 886.169 67.4314 Q880.66 61.0714 880.66 49.9314 Q880.66 38.7509 886.169 32.4315 Q891.719 26.1121 901.482 26.1121 Z" fill="#000000" fill-rule="nonzero" fill-opacity="1" /><path clip-path="url(#clip790)" d="M960.949 34.1734 Q959.693 33.4443 958.194 33.1202 Q956.736 32.7556 954.954 32.7556 Q948.634 32.7556 945.232 36.8875 Q941.869 40.9789 941.869 48.6757 L941.869 72.576 L934.375 72.576 L934.375 27.2059 L941.869 27.2059 L941.869 34.2544 Q944.219 30.1225 947.986 28.1376 Q951.753 26.1121 957.141 26.1121 Q957.911 26.1121 958.843 26.2337 Q959.774 26.3147 960.909 26.5172 L960.949 34.1734 Z" fill="#000000" fill-rule="nonzero" fill-opacity="1" /><path clip-path="url(#clip790)" d="M987.645 76.7889 Q984.485 84.8907 981.487 87.3618 Q978.489 89.8329 973.466 89.8329 L967.512 89.8329 L967.512 83.5945 L971.886 83.5945 Q974.965 83.5945 976.667 82.1361 Q978.368 80.6778 980.434 75.2496 L981.771 71.8468 L963.42 27.2059 L971.319 27.2059 L985.498 62.6918 L999.676 27.2059 L1007.57 27.2059 L987.645 76.7889 Z" fill="#000000" fill-rule="nonzero" fill-opacity="1" /><path clip-path="url(#clip790)" d="M1007.09 62.2867 L1015.64 62.2867 L1015.64 72.576 L1007.09 72.576 L1007.09 62.2867 Z" fill="#000000" fill-rule="nonzero" fill-opacity="1" /><path clip-path="url(#clip790)" d="M1049.99 32.4315 Q1043.99 32.4315 1040.51 37.1306 Q1037.03 41.7891 1037.03 49.9314 Q1037.03 58.0738 1040.47 62.7728 Q1043.95 67.4314 1049.99 67.4314 Q1055.94 67.4314 1059.43 62.7323 Q1062.91 58.0333 1062.91 49.9314 Q1062.91 41.8701 1059.43 37.1711 Q1055.94 32.4315 1049.99 32.4315 M1049.99 26.1121 Q1059.71 26.1121 1065.26 32.4315 Q1070.81 38.7509 1070.81 49.9314 Q1070.81 61.0714 1065.26 67.4314 Q1059.71 73.7508 1049.99 73.7508 Q1040.23 73.7508 1034.68 67.4314 Q1029.17 61.0714 1029.17 49.9314 Q1029.17 38.7509 1034.68 32.4315 Q1040.23 26.1121 1049.99 26.1121 Z" fill="#000000" fill-rule="nonzero" fill-opacity="1" /><path clip-path="url(#clip790)" d="M1082.4 54.671 L1082.4 27.2059 L1089.85 27.2059 L1089.85 54.3874 Q1089.85 60.8284 1092.36 64.0691 Q1094.87 67.2693 1099.9 67.2693 Q1105.93 67.2693 1109.41 63.421 Q1112.94 59.5726 1112.94 52.9291 L1112.94 27.2059 L1120.39 27.2059 L1120.39 72.576 L1112.94 72.576 L1112.94 65.6084 Q1110.22 69.7404 1106.62 71.7658 Q1103.05 73.7508 1098.32 73.7508 Q1090.5 73.7508 1086.45 68.8897 Q1082.4 64.0286 1082.4 54.671 M1101.15 26.1121 L1101.15 26.1121 Z" fill="#000000" fill-rule="nonzero" fill-opacity="1" /><path clip-path="url(#clip790)" d="M1143.12 14.324 L1143.12 27.2059 L1158.47 27.2059 L1158.47 32.9987 L1143.12 32.9987 L1143.12 57.6282 Q1143.12 63.1779 1144.62 64.7578 Q1146.16 66.3376 1150.81 66.3376 L1158.47 66.3376 L1158.47 72.576 L1150.81 72.576 Q1142.19 72.576 1138.91 69.3758 Q1135.62 66.1351 1135.62 57.6282 L1135.62 32.9987 L1130.16 32.9987 L1130.16 27.2059 L1135.62 27.2059 L1135.62 14.324 L1143.12 14.324 Z" fill="#000000" fill-rule="nonzero" fill-opacity="1" /><path clip-path="url(#clip790)" d="M1224.99 20.5624 L1224.99 43.1259 L1247.55 43.1259 L1247.55 50.0125 L1224.99 50.0125 L1224.99 72.576 L1218.18 72.576 L1218.18 50.0125 L1195.62 50.0125 L1195.62 43.1259 L1218.18 43.1259 L1218.18 20.5624 L1224.99 20.5624 Z" fill="#000000" fill-rule="nonzero" fill-opacity="1" /><path clip-path="url(#clip790)" d="M1289.76 54.671 L1289.76 27.2059 L1297.21 27.2059 L1297.21 54.3874 Q1297.21 60.8284 1299.73 64.0691 Q1302.24 67.2693 1307.26 67.2693 Q1313.3 67.2693 1316.78 63.421 Q1320.3 59.5726 1320.3 52.9291 L1320.3 27.2059 L1327.76 27.2059 L1327.76 72.576 L1320.3 72.576 L1320.3 65.6084 Q1317.59 69.7404 1313.99 71.7658 Q1310.42 73.7508 1305.68 73.7508 Q1297.86 73.7508 1293.81 68.8897 Q1289.76 64.0286 1289.76 54.671 M1308.52 26.1121 L1308.52 26.1121 Z" fill="#000000" fill-rule="nonzero" fill-opacity="1" /><path clip-path="url(#clip790)" d="M1377.58 86.3491 L1377.58 92.1419 L1334.48 92.1419 L1334.48 86.3491 L1377.58 86.3491 Z" fill="#000000" fill-rule="nonzero" fill-opacity="1" /><path clip-path="url(#clip790)" d="M1417.16 49.9314 Q1417.16 41.7081 1413.76 37.0496 Q1410.4 32.3505 1404.48 32.3505 Q1398.57 32.3505 1395.17 37.0496 Q1391.8 41.7081 1391.8 49.9314 Q1391.8 58.1548 1395.17 62.8538 Q1398.57 67.5124 1404.48 67.5124 Q1410.4 67.5124 1413.76 62.8538 Q1417.16 58.1548 1417.16 49.9314 M1391.8 34.0924 Q1394.15 30.0415 1397.72 28.0971 Q1401.32 26.1121 1406.31 26.1121 Q1414.57 26.1121 1419.71 32.6746 Q1424.9 39.2371 1424.9 49.9314 Q1424.9 60.6258 1419.71 67.1883 Q1414.57 73.7508 1406.31 73.7508 Q1401.32 73.7508 1397.72 71.8063 Q1394.15 69.8214 1391.8 65.7705 L1391.8 72.576 L1384.31 72.576 L1384.31 9.54393 L1391.8 9.54393 L1391.8 34.0924 Z" fill="#000000" fill-rule="nonzero" fill-opacity="1" /><path clip-path="url(#clip790)" d="M1436.48 54.671 L1436.48 27.2059 L1443.94 27.2059 L1443.94 54.3874 Q1443.94 60.8284 1446.45 64.0691 Q1448.96 67.2693 1453.98 67.2693 Q1460.02 67.2693 1463.5 63.421 Q1467.03 59.5726 1467.03 52.9291 L1467.03 27.2059 L1474.48 27.2059 L1474.48 72.576 L1467.03 72.576 L1467.03 65.6084 Q1464.31 69.7404 1460.71 71.7658 Q1457.14 73.7508 1452.4 73.7508 Q1444.59 73.7508 1440.54 68.8897 Q1436.48 64.0286 1436.48 54.671 M1455.24 26.1121 L1455.24 26.1121 Z" fill="#000000" fill-rule="nonzero" fill-opacity="1" /><path clip-path="url(#clip790)" d="M1508.71 76.7889 Q1505.55 84.8907 1502.55 87.3618 Q1499.56 89.8329 1494.53 89.8329 L1488.58 89.8329 L1488.58 83.5945 L1492.95 83.5945 Q1496.03 83.5945 1497.73 82.1361 Q1499.44 80.6778 1501.5 75.2496 L1502.84 71.8468 L1484.49 27.2059 L1492.39 27.2059 L1506.57 62.6918 L1520.74 27.2059 L1528.64 27.2059 L1508.71 76.7889 Z" fill="#000000" fill-rule="nonzero" fill-opacity="1" /><path clip-path="url(#clip790)" d="M1528.16 62.2867 L1536.7 62.2867 L1536.7 72.576 L1528.16 72.576 L1528.16 62.2867 Z" fill="#000000" fill-rule="nonzero" fill-opacity="1" /><path clip-path="url(#clip790)" d="M1571.06 32.4315 Q1565.06 32.4315 1561.58 37.1306 Q1558.09 41.7891 1558.09 49.9314 Q1558.09 58.0738 1561.54 62.7728 Q1565.02 67.4314 1571.06 67.4314 Q1577.01 67.4314 1580.49 62.7323 Q1583.98 58.0333 1583.98 49.9314 Q1583.98 41.8701 1580.49 37.1711 Q1577.01 32.4315 1571.06 32.4315 M1571.06 26.1121 Q1580.78 26.1121 1586.33 32.4315 Q1591.88 38.7509 1591.88 49.9314 Q1591.88 61.0714 1586.33 67.4314 Q1580.78 73.7508 1571.06 73.7508 Q1561.29 73.7508 1555.74 67.4314 Q1550.23 61.0714 1550.23 49.9314 Q1550.23 38.7509 1555.74 32.4315 Q1561.29 26.1121 1571.06 26.1121 Z" fill="#000000" fill-rule="nonzero" fill-opacity="1" /><path clip-path="url(#clip790)" d="M1603.46 54.671 L1603.46 27.2059 L1610.92 27.2059 L1610.92 54.3874 Q1610.92 60.8284 1613.43 64.0691 Q1615.94 67.2693 1620.96 67.2693 Q1627 67.2693 1630.48 63.421 Q1634.01 59.5726 1634.01 52.9291 L1634.01 27.2059 L1641.46 27.2059 L1641.46 72.576 L1634.01 72.576 L1634.01 65.6084 Q1631.29 69.7404 1627.69 71.7658 Q1624.12 73.7508 1619.38 73.7508 Q1611.56 73.7508 1607.51 68.8897 Q1603.46 64.0286 1603.46 54.671 M1622.22 26.1121 L1622.22 26.1121 Z" fill="#000000" fill-rule="nonzero" fill-opacity="1" /><path clip-path="url(#clip790)" d="M1664.19 14.324 L1664.19 27.2059 L1679.54 27.2059 L1679.54 32.9987 L1664.19 32.9987 L1664.19 57.6282 Q1664.19 63.1779 1665.68 64.7578 Q1667.22 66.3376 1671.88 66.3376 L1679.54 66.3376 L1679.54 72.576 L1671.88 72.576 Q1663.25 72.576 1659.97 69.3758 Q1656.69 66.1351 1656.69 57.6282 L1656.69 32.9987 L1651.22 32.9987 L1651.22 27.2059 L1656.69 27.2059 L1656.69 14.324 L1664.19 14.324 Z" fill="#000000" fill-rule="nonzero" fill-opacity="1" /><path clip-path="url(#clip792)" d="M301.883 339.668 L334.593 416.97 L367.303 416.97 L400.013 416.97 L432.723 416.97 L465.433 416.97 L498.143 416.97 L530.853 416.97 L563.563 416.97 L596.273 416.97 L628.983 416.97 L661.693 416.97 L694.403 416.97 L727.113 416.97 L759.823 416.97 L792.533 416.97 L825.243 416.97 L857.953 416.97 L890.663 416.97 L923.373 416.97 L956.083 416.97 L988.793 416.97 L1021.5 416.97 L1054.21 416.97 L1086.92 416.97 L1119.63 416.97 L1152.34 416.97 L1185.05 416.97 L1217.76 416.97 L1250.47 416.97 L1283.18 416.97 L1315.89 416.97 L1348.6 416.97 L1381.31 416.97 L1414.02 416.97 L1446.73 416.97 L1479.44 416.97 L1512.15 416.97 L1544.86 416.97 L1577.57 416.97 L1610.28 416.97 L1642.99 416.97 L1675.7 416.97 L1708.41 416.97 L1741.12 416.97 L1773.83 416.97 L1806.54 416.97 L1839.25 416.97 L1871.96 416.97 L1904.67 416.97 L1904.67 301.017 L1871.96 301.017 L1839.25 301.017 L1806.54 301.017 L1773.83 301.017 L1741.12 301.017 L1708.41 301.017 L1675.7 301.017 L1642.99 301.017 L1610.28 301.017 L1577.57 301.017 L1544.86 301.017 L1512.15 301.017 L1479.44 301.017 L1446.73 301.017 L1414.02 301.017 L1381.31 301.017 L1348.6 301.017 L1315.89 301.017 L1283.18 301.017 L1250.47 301.017 L1217.76 301.017 L1185.05 301.017 L1152.34 301.017 L1119.63 301.017 L1086.92 301.017 L1054.21 301.017 L1021.5 301.017 L988.793 301.017 L956.083 301.017 L923.373 301.017 L890.663 301.017 L857.953 301.017 L825.243 301.017 L792.533 301.017 L759.823 301.017 L727.113 301.017 L694.403 301.017 L661.693 301.017 L628.983 301.017 L596.273 301.017 L563.563 301.017 L530.853 301.017 L498.143 301.017 L465.433 301.017 L432.723 301.017 L400.013 301.017 L367.303 301.017 L334.593 339.668 L301.883 339.668  Z" fill="#00467f" fill-rule="evenodd" fill-opacity="0.2"/>
<polyline clip-path="url(#clip792)" style="stroke:#00467f; stroke-linecap:round; stroke-linejoin:round; stroke-width:4; stroke-opacity:0; fill:none" points="301.883,339.668 334.593,378.319 367.303,358.994 400.013,358.994 432.723,358.994 465.433,358.994 498.143,358.994 530.853,358.994 563.563,358.994 596.273,358.994 628.983,358.994 661.693,358.994 694.403,358.994 727.113,358.994 759.823,358.994 792.533,358.994 825.243,358.994 857.953,358.994 890.663,358.994 923.373,358.994 956.083,358.994 988.793,358.994 1021.5,358.994 1054.21,358.994 1086.92,358.994 1119.63,358.994 1152.34,358.994 1185.05,358.994 1217.76,358.994 1250.47,358.994 1283.18,358.994 1315.89,358.994 1348.6,358.994 1381.31,358.994 1414.02,358.994 1446.73,358.994 1479.44,358.994 1512.15,358.994 1544.86,358.994 1577.57,358.994 1610.28,358.994 1642.99,358.994 1675.7,358.994 1708.41,358.994 1741.12,358.994 1773.83,358.994 1806.54,358.994 1839.25,358.994 1871.96,358.994 1904.67,358.994 "/>
<path clip-path="url(#clip792)" d="M301.883 339.668 L334.593 416.97 L367.303 416.97 L400.013 416.97 L432.723 416.97 L465.433 416.97 L498.143 416.97 L530.853 416.97 L563.563 416.97 L596.273 416.97 L628.983 416.97 L661.693 416.97 L694.403 416.97 L727.113 416.97 L759.823 416.97 L792.533 416.97 L825.243 416.97 L857.953 416.97 L890.663 416.97 L923.373 416.97 L956.083 416.97 L988.793 416.97 L1021.5 416.97 L1054.21 416.97 L1086.92 416.97 L1119.63 416.97 L1152.34 416.97 L1185.05 416.97 L1217.76 416.97 L1250.47 416.97 L1283.18 416.97 L1315.89 416.97 L1348.6 416.97 L1381.31 416.97 L1414.02 416.97 L1446.73 416.97 L1479.44 416.97 L1512.15 416.97 L1544.86 416.97 L1577.57 416.97 L1610.28 416.97 L1642.99 416.97 L1675.7 416.97 L1708.41 416.97 L1741.12 416.97 L1773.83 416.97 L1806.54 416.97 L1839.25 416.97 L1871.96 416.97 L1904.67 416.97 L1904.67 378.319 L1871.96 339.668 L1839.25 378.319 L1806.54 378.319 L1773.83 339.668 L1741.12 339.668 L1708.41 374.454 L1675.7 413.105 L1642.99 339.668 L1610.28 378.319 L1577.57 378.319 L1544.86 339.668 L1512.15 378.319 L1479.44 339.668 L1446.73 374.454 L1414.02 378.319 L1381.31 378.319 L1348.6 339.668 L1315.89 339.668 L1283.18 339.668 L1250.47 339.668 L1217.76 339.668 L1185.05 339.668 L1152.34 378.319 L1119.63 378.319 L1086.92 339.668 L1054.21 339.668 L1021.5 378.319 L988.793 339.668 L956.083 339.668 L923.373 339.668 L890.663 339.668 L857.953 339.668 L825.243 374.454 L792.533 378.319 L759.823 378.319 L727.113 378.319 L694.403 339.668 L661.693 378.319 L628.983 378.319 L596.273 339.668 L563.563 339.668 L530.853 378.319 L498.143 378.319 L465.433 339.668 L432.723 378.319 L400.013 378.319 L367.303 339.668 L334.593 378.319 L301.883 339.668  Z" fill="#00467f" fill-rule="evenodd" fill-opacity="0.2"/>
<polyline clip-path="url(#clip792)" style="stroke:#00467f; stroke-linecap:round; stroke-linejoin:round; stroke-width:4; stroke-opacity:0; fill:none" points="301.883,339.668 334.593,397.645 367.303,378.319 400.013,397.645 432.723,397.645 465.433,378.319 498.143,397.645 530.853,397.645 563.563,378.319 596.273,378.319 628.983,397.645 661.693,397.645 694.403,378.319 727.113,397.645 759.823,397.645 792.533,397.645 825.243,395.712 857.953,378.319 890.663,378.319 923.373,378.319 956.083,378.319 988.793,378.319 1021.5,397.645 1054.21,378.319 1086.92,378.319 1119.63,397.645 1152.34,397.645 1185.05,378.319 1217.76,378.319 1250.47,378.319 1283.18,378.319 1315.89,378.319 1348.6,378.319 1381.31,397.645 1414.02,397.645 1446.73,395.712 1479.44,378.319 1512.15,397.645 1544.86,378.319 1577.57,397.645 1610.28,397.645 1642.99,378.319 1675.7,415.038 1708.41,395.712 1741.12,378.319 1773.83,378.319 1806.54,397.645 1839.25,397.645 1871.96,378.319 1904.67,397.645 "/>
<path clip-path="url(#clip792)" d="M301.883 339.668 L334.593 416.97 L367.303 416.97 L400.013 416.97 L432.723 416.97 L465.433 416.97 L498.143 416.97 L530.853 416.97 L563.563 416.97 L596.273 416.97 L628.983 416.97 L661.693 416.97 L694.403 416.97 L727.113 416.97 L759.823 416.97 L792.533 416.97 L825.243 416.97 L857.953 416.97 L890.663 416.97 L923.373 416.97 L956.083 416.97 L988.793 416.97 L1021.5 416.97 L1054.21 416.97 L1086.92 416.97 L1119.63 416.97 L1152.34 416.97 L1185.05 416.97 L1217.76 416.97 L1250.47 416.97 L1283.18 416.97 L1315.89 416.97 L1348.6 416.97 L1381.31 416.97 L1414.02 416.97 L1446.73 416.97 L1479.44 416.97 L1512.15 416.97 L1544.86 416.97 L1577.57 416.97 L1610.28 416.97 L1642.99 416.97 L1675.7 416.97 L1708.41 416.97 L1741.12 416.97 L1773.83 416.97 L1806.54 416.97 L1839.25 416.97 L1871.96 416.97 L1904.67 416.97 L1904.67 416.97 L1871.96 416.97 L1839.25 416.97 L1806.54 416.97 L1773.83 416.97 L1741.12 416.97 L1708.41 416.97 L1675.7 416.97 L1642.99 416.97 L1610.28 416.97 L1577.57 416.97 L1544.86 416.97 L1512.15 416.97 L1479.44 416.97 L1446.73 416.97 L1414.02 416.97 L1381.31 416.97 L1348.6 416.97 L1315.89 416.97 L1283.18 416.97 L1250.47 416.97 L1217.76 416.97 L1185.05 416.97 L1152.34 416.97 L1119.63 416.97 L1086.92 416.97 L1054.21 416.97 L1021.5 416.97 L988.793 416.97 L956.083 416.97 L923.373 416.97 L890.663 416.97 L857.953 416.97 L825.243 416.97 L792.533 416.97 L759.823 416.97 L727.113 416.97 L694.403 416.97 L661.693 416.97 L628.983 416.97 L596.273 416.97 L563.563 416.97 L530.853 416.97 L498.143 416.97 L465.433 416.97 L432.723 416.97 L400.013 416.97 L367.303 416.97 L334.593 416.97 L301.883 339.668  Z" fill="#00467f" fill-rule="evenodd" fill-opacity="0.2"/>
<polyline clip-path="url(#clip792)" style="stroke:#00467f; stroke-linecap:round; stroke-linejoin:round; stroke-width:4; stroke-opacity:0; fill:none" points="301.883,339.668 334.593,416.97 367.303,416.97 400.013,416.97 432.723,416.97 465.433,416.97 498.143,416.97 530.853,416.97 563.563,416.97 596.273,416.97 628.983,416.97 661.693,416.97 694.403,416.97 727.113,416.97 759.823,416.97 792.533,416.97 825.243,416.97 857.953,416.97 890.663,416.97 923.373,416.97 956.083,416.97 988.793,416.97 1021.5,416.97 1054.21,416.97 1086.92,416.97 1119.63,416.97 1152.34,416.97 1185.05,416.97 1217.76,416.97 1250.47,416.97 1283.18,416.97 1315.89,416.97 1348.6,416.97 1381.31,416.97 1414.02,416.97 1446.73,416.97 1479.44,416.97 1512.15,416.97 1544.86,416.97 1577.57,416.97 1610.28,416.97 1642.99,416.97 1675.7,416.97 1708.41,416.97 1741.12,416.97 1773.83,416.97 1806.54,416.97 1839.25,416.97 1871.96,416.97 1904.67,416.97 "/>
<polyline clip-path="url(#clip792)" style="stroke:#00467f; stroke-linecap:round; stroke-linejoin:round; stroke-width:4; stroke-opacity:1; fill:none" points="301.883,339.668 334.593,416.97 367.303,416.97 400.013,416.97 432.723,416.97 465.433,416.97 498.143,416.97 530.853,416.97 563.563,416.97 596.273,416.97 628.983,416.97 661.693,416.97 694.403,416.97 727.113,416.97 759.823,416.97 792.533,416.97 825.243,416.97 857.953,416.97 890.663,416.97 923.373,416.97 956.083,416.97 988.793,416.97 1021.5,416.97 1054.21,416.97 1086.92,416.97 1119.63,416.97 1152.34,416.97 1185.05,416.97 1217.76,416.97 1250.47,416.97 1283.18,416.97 1315.89,416.97 1348.6,416.97 1381.31,416.97 1414.02,416.97 1446.73,416.97 1479.44,416.97 1512.15,416.97 1544.86,416.97 1577.57,416.97 1610.28,416.97 1642.99,416.97 1675.7,416.97 1708.41,416.97 1741.12,416.97 1773.83,416.97 1806.54,416.97 1839.25,416.97 1871.96,416.97 1904.67,416.97 "/>
<polyline clip-path="url(#clip792)" style="stroke:#ac8d18; stroke-linecap:round; stroke-linejoin:round; stroke-width:4; stroke-opacity:1; fill:none" points="-1445.16,427.696 3651.71,427.696 "/>
<path clip-path="url(#clip790)" d="M1337.25 251.703 L1896.12 251.703 L1896.12 148.023 L1337.25 148.023  Z" fill="#ffffff" fill-rule="evenodd" fill-opacity="1"/>
<polyline clip-path="url(#clip790)" style="stroke:#000000; stroke-linecap:round; stroke-linejoin:round; stroke-width:4; stroke-opacity:1; fill:none" points="1337.25,251.703 1896.12,251.703 1896.12,148.023 1337.25,148.023 1337.25,251.703 "/>
<polyline clip-path="url(#clip790)" style="stroke:#ac8d18; stroke-linecap:round; stroke-linejoin:round; stroke-width:4; stroke-opacity:1; fill:none" points="1356.13,199.863 1469.39,199.863 "/>
<path clip-path="url(#clip790)" d="M1504.1 187.189 L1497.76 204.388 L1510.47 204.388 L1504.1 187.189 M1501.46 182.583 L1506.76 182.583 L1519.93 217.143 L1515.07 217.143 L1511.92 208.277 L1496.35 208.277 L1493.2 217.143 L1488.27 217.143 L1501.46 182.583 Z" fill="#000000" fill-rule="nonzero" fill-opacity="1" /><path clip-path="url(#clip790)" d="M1546.35 201.495 L1546.35 217.143 L1542.09 217.143 L1542.09 201.634 Q1542.09 197.953 1540.65 196.125 Q1539.22 194.296 1536.35 194.296 Q1532.9 194.296 1530.91 196.495 Q1528.92 198.694 1528.92 202.49 L1528.92 217.143 L1524.63 217.143 L1524.63 191.217 L1528.92 191.217 L1528.92 195.245 Q1530.44 192.907 1532.5 191.75 Q1534.59 190.592 1537.29 190.592 Q1541.76 190.592 1544.05 193.37 Q1546.35 196.125 1546.35 201.495 Z" fill="#000000" fill-rule="nonzero" fill-opacity="1" /><path clip-path="url(#clip790)" d="M1566.62 204.111 Q1561.46 204.111 1559.47 205.291 Q1557.48 206.472 1557.48 209.319 Q1557.48 211.587 1558.96 212.93 Q1560.47 214.249 1563.04 214.249 Q1566.58 214.249 1568.71 211.749 Q1570.86 209.226 1570.86 205.06 L1570.86 204.111 L1566.62 204.111 M1575.12 202.351 L1575.12 217.143 L1570.86 217.143 L1570.86 213.208 Q1569.4 215.569 1567.23 216.703 Q1565.05 217.814 1561.9 217.814 Q1557.92 217.814 1555.56 215.592 Q1553.22 213.347 1553.22 209.597 Q1553.22 205.222 1556.14 202.999 Q1559.08 200.777 1564.89 200.777 L1570.86 200.777 L1570.86 200.361 Q1570.86 197.421 1568.92 195.824 Q1566.99 194.203 1563.5 194.203 Q1561.28 194.203 1559.17 194.736 Q1557.06 195.268 1555.12 196.333 L1555.12 192.398 Q1557.46 191.495 1559.66 191.055 Q1561.85 190.592 1563.94 190.592 Q1569.56 190.592 1572.34 193.509 Q1575.12 196.425 1575.12 202.351 Z" fill="#000000" fill-rule="nonzero" fill-opacity="1" /><path clip-path="url(#clip790)" d="M1583.89 181.125 L1588.15 181.125 L1588.15 217.143 L1583.89 217.143 L1583.89 181.125 Z" fill="#000000" fill-rule="nonzero" fill-opacity="1" /><path clip-path="url(#clip790)" d="M1607.85 219.55 Q1606.04 224.18 1604.33 225.592 Q1602.62 227.004 1599.75 227.004 L1596.35 227.004 L1596.35 223.439 L1598.85 223.439 Q1600.6 223.439 1601.58 222.606 Q1602.55 221.773 1603.73 218.671 L1604.49 216.726 L1594.01 191.217 L1598.52 191.217 L1606.62 211.495 L1614.72 191.217 L1619.24 191.217 L1607.85 219.55 Z" fill="#000000" fill-rule="nonzero" fill-opacity="1" /><path clip-path="url(#clip790)" d="M1629.33 183.856 L1629.33 191.217 L1638.1 191.217 L1638.1 194.527 L1629.33 194.527 L1629.33 208.601 Q1629.33 211.773 1630.19 212.675 Q1631.07 213.578 1633.73 213.578 L1638.1 213.578 L1638.1 217.143 L1633.73 217.143 Q1628.8 217.143 1626.92 215.314 Q1625.05 213.462 1625.05 208.601 L1625.05 194.527 L1621.92 194.527 L1621.92 191.217 L1625.05 191.217 L1625.05 183.856 L1629.33 183.856 Z" fill="#000000" fill-rule="nonzero" fill-opacity="1" /><path clip-path="url(#clip790)" d="M1643.71 191.217 L1647.97 191.217 L1647.97 217.143 L1643.71 217.143 L1643.71 191.217 M1643.71 181.125 L1647.97 181.125 L1647.97 186.518 L1643.71 186.518 L1643.71 181.125 Z" fill="#000000" fill-rule="nonzero" fill-opacity="1" /><path clip-path="url(#clip790)" d="M1675.53 192.212 L1675.53 196.194 Q1673.73 195.199 1671.9 194.712 Q1670.1 194.203 1668.24 194.203 Q1664.1 194.203 1661.81 196.842 Q1659.52 199.458 1659.52 204.203 Q1659.52 208.949 1661.81 211.587 Q1664.1 214.203 1668.24 214.203 Q1670.1 214.203 1671.9 213.717 Q1673.73 213.208 1675.53 212.212 L1675.53 216.148 Q1673.75 216.981 1671.83 217.398 Q1669.93 217.814 1667.78 217.814 Q1661.92 217.814 1658.47 214.134 Q1655.03 210.453 1655.03 204.203 Q1655.03 197.861 1658.5 194.226 Q1661.99 190.592 1668.06 190.592 Q1670.03 190.592 1671.9 191.009 Q1673.78 191.402 1675.53 192.212 Z" fill="#000000" fill-rule="nonzero" fill-opacity="1" /><path clip-path="url(#clip790)" d="M1714.54 191.981 L1714.54 196.009 Q1712.73 195.083 1710.79 194.62 Q1708.84 194.157 1706.76 194.157 Q1703.59 194.157 1701.99 195.129 Q1700.42 196.101 1700.42 198.046 Q1700.42 199.527 1701.55 200.384 Q1702.69 201.217 1706.11 201.981 L1707.57 202.305 Q1712.11 203.277 1714.01 205.06 Q1715.93 206.819 1715.93 209.99 Q1715.93 213.601 1713.06 215.708 Q1710.21 217.814 1705.21 217.814 Q1703.13 217.814 1700.86 217.398 Q1698.61 217.004 1696.11 216.194 L1696.11 211.796 Q1698.47 213.023 1700.77 213.648 Q1703.06 214.249 1705.3 214.249 Q1708.31 214.249 1709.93 213.231 Q1711.55 212.189 1711.55 210.314 Q1711.55 208.578 1710.37 207.652 Q1709.22 206.726 1705.26 205.87 L1703.78 205.523 Q1699.82 204.689 1698.06 202.976 Q1696.3 201.24 1696.3 198.231 Q1696.3 194.574 1698.89 192.583 Q1701.48 190.592 1706.25 190.592 Q1708.61 190.592 1710.7 190.939 Q1712.78 191.287 1714.54 191.981 Z" fill="#000000" fill-rule="nonzero" fill-opacity="1" /><path clip-path="url(#clip790)" d="M1732.76 194.203 Q1729.33 194.203 1727.34 196.888 Q1725.35 199.55 1725.35 204.203 Q1725.35 208.856 1727.32 211.541 Q1729.31 214.203 1732.76 214.203 Q1736.16 214.203 1738.15 211.518 Q1740.14 208.833 1740.14 204.203 Q1740.14 199.597 1738.15 196.912 Q1736.16 194.203 1732.76 194.203 M1732.76 190.592 Q1738.31 190.592 1741.48 194.203 Q1744.65 197.814 1744.65 204.203 Q1744.65 210.569 1741.48 214.203 Q1738.31 217.814 1732.76 217.814 Q1727.18 217.814 1724.01 214.203 Q1720.86 210.569 1720.86 204.203 Q1720.86 197.814 1724.01 194.203 Q1727.18 190.592 1732.76 190.592 Z" fill="#000000" fill-rule="nonzero" fill-opacity="1" /><path clip-path="url(#clip790)" d="M1751.71 181.125 L1755.97 181.125 L1755.97 217.143 L1751.71 217.143 L1751.71 181.125 Z" fill="#000000" fill-rule="nonzero" fill-opacity="1" /><path clip-path="url(#clip790)" d="M1764.45 206.911 L1764.45 191.217 L1768.71 191.217 L1768.71 206.749 Q1768.71 210.43 1770.14 212.282 Q1771.58 214.111 1774.45 214.111 Q1777.9 214.111 1779.89 211.911 Q1781.9 209.712 1781.9 205.916 L1781.9 191.217 L1786.16 191.217 L1786.16 217.143 L1781.9 217.143 L1781.9 213.161 Q1780.35 215.523 1778.29 216.68 Q1776.25 217.814 1773.54 217.814 Q1769.08 217.814 1766.76 215.036 Q1764.45 212.259 1764.45 206.911 M1775.16 190.592 L1775.16 190.592 Z" fill="#000000" fill-rule="nonzero" fill-opacity="1" /><path clip-path="url(#clip790)" d="M1799.15 183.856 L1799.15 191.217 L1807.92 191.217 L1807.92 194.527 L1799.15 194.527 L1799.15 208.601 Q1799.15 211.773 1800 212.675 Q1800.88 213.578 1803.54 213.578 L1807.92 213.578 L1807.92 217.143 L1803.54 217.143 Q1798.61 217.143 1796.74 215.314 Q1794.86 213.462 1794.86 208.601 L1794.86 194.527 L1791.74 194.527 L1791.74 191.217 L1794.86 191.217 L1794.86 183.856 L1799.15 183.856 Z" fill="#000000" fill-rule="nonzero" fill-opacity="1" /><path clip-path="url(#clip790)" d="M1813.52 191.217 L1817.78 191.217 L1817.78 217.143 L1813.52 217.143 L1813.52 191.217 M1813.52 181.125 L1817.78 181.125 L1817.78 186.518 L1813.52 186.518 L1813.52 181.125 Z" fill="#000000" fill-rule="nonzero" fill-opacity="1" /><path clip-path="url(#clip790)" d="M1836.74 194.203 Q1833.31 194.203 1831.32 196.888 Q1829.33 199.55 1829.33 204.203 Q1829.33 208.856 1831.3 211.541 Q1833.29 214.203 1836.74 214.203 Q1840.14 214.203 1842.13 211.518 Q1844.12 208.833 1844.12 204.203 Q1844.12 199.597 1842.13 196.912 Q1840.14 194.203 1836.74 194.203 M1836.74 190.592 Q1842.29 190.592 1845.46 194.203 Q1848.64 197.814 1848.64 204.203 Q1848.64 210.569 1845.46 214.203 Q1842.29 217.814 1836.74 217.814 Q1831.16 217.814 1827.99 214.203 Q1824.84 210.569 1824.84 204.203 Q1824.84 197.814 1827.99 194.203 Q1831.16 190.592 1836.74 190.592 Z" fill="#000000" fill-rule="nonzero" fill-opacity="1" /><path clip-path="url(#clip790)" d="M1877.25 201.495 L1877.25 217.143 L1872.99 217.143 L1872.99 201.634 Q1872.99 197.953 1871.55 196.125 Q1870.12 194.296 1867.25 194.296 Q1863.8 194.296 1861.81 196.495 Q1859.82 198.694 1859.82 202.49 L1859.82 217.143 L1855.53 217.143 L1855.53 191.217 L1859.82 191.217 L1859.82 195.245 Q1861.34 192.907 1863.4 191.75 Q1865.49 190.592 1868.2 190.592 Q1872.66 190.592 1874.96 193.37 Q1877.25 196.125 1877.25 201.495 Z" fill="#000000" fill-rule="nonzero" fill-opacity="1" /></svg>
