<?xml version="1.0" encoding="utf-8"?>
<svg xmlns="http://www.w3.org/2000/svg" xmlns:xlink="http://www.w3.org/1999/xlink" width="500" height="300" viewBox="0 0 2000 1200">
<defs>
  <clipPath id="clip730">
    <rect x="0" y="0" width="2000" height="1200"/>
  </clipPath>
</defs>
<path clip-path="url(#clip730)" d="M0 1200 L2000 1200 L2000 0 L0 0  Z" fill="#ffffff" fill-rule="evenodd" fill-opacity="1"/>
<defs>
  <clipPath id="clip731">
    <rect x="400" y="0" width="1401" height="1200"/>
  </clipPath>
</defs>
<path clip-path="url(#clip730)" d="M253.799 1035.39 L1952.76 1035.39 L1952.76 117.424 L253.799 117.424  Z" fill="#ffffff" fill-rule="evenodd" fill-opacity="1"/>
<defs>
  <clipPath id="clip732">
    <rect x="253" y="117" width="1700" height="919"/>
  </clipPath>
</defs>
<polyline clip-path="url(#clip732)" style="stroke:#000000; stroke-linecap:round; stroke-linejoin:round; stroke-width:2; stroke-opacity:0.1; fill:none" points="462.162,1035.39 462.162,117.424 "/>
<polyline clip-path="url(#clip732)" style="stroke:#000000; stroke-linecap:round; stroke-linejoin:round; stroke-width:2; stroke-opacity:0.1; fill:none" points="782.72,1035.39 782.72,117.424 "/>
<polyline clip-path="url(#clip732)" style="stroke:#000000; stroke-linecap:round; stroke-linejoin:round; stroke-width:2; stroke-opacity:0.1; fill:none" points="1103.28,1035.39 1103.28,117.424 "/>
<polyline clip-path="url(#clip732)" style="stroke:#000000; stroke-linecap:round; stroke-linejoin:round; stroke-width:2; stroke-opacity:0.1; fill:none" points="1423.84,1035.39 1423.84,117.424 "/>
<polyline clip-path="url(#clip732)" style="stroke:#000000; stroke-linecap:round; stroke-linejoin:round; stroke-width:2; stroke-opacity:0.1; fill:none" points="1744.39,1035.39 1744.39,117.424 "/>
<polyline clip-path="url(#clip732)" style="stroke:#000000; stroke-linecap:round; stroke-linejoin:round; stroke-width:2; stroke-opacity:0.1; fill:none" points="253.799,1035.39 1952.76,1035.39 "/>
<polyline clip-path="url(#clip732)" style="stroke:#000000; stroke-linecap:round; stroke-linejoin:round; stroke-width:2; stroke-opacity:0.1; fill:none" points="253.799,851.795 1952.76,851.795 "/>
<polyline clip-path="url(#clip732)" style="stroke:#000000; stroke-linecap:round; stroke-linejoin:round; stroke-width:2; stroke-opacity:0.1; fill:none" points="253.799,668.202 1952.76,668.202 "/>
<polyline clip-path="url(#clip732)" style="stroke:#000000; stroke-linecap:round; stroke-linejoin:round; stroke-width:2; stroke-opacity:0.1; fill:none" points="253.799,484.61 1952.76,484.61 "/>
<polyline clip-path="url(#clip732)" style="stroke:#000000; stroke-linecap:round; stroke-linejoin:round; stroke-width:2; stroke-opacity:0.1; fill:none" points="253.799,301.017 1952.76,301.017 "/>
<polyline clip-path="url(#clip732)" style="stroke:#000000; stroke-linecap:round; stroke-linejoin:round; stroke-width:2; stroke-opacity:0.1; fill:none" points="253.799,117.424 1952.76,117.424 "/>
<polyline clip-path="url(#clip730)" style="stroke:#000000; stroke-linecap:round; stroke-linejoin:round; stroke-width:4; stroke-opacity:1; fill:none" points="253.799,1035.39 1952.76,1035.39 "/>
<polyline clip-path="url(#clip730)" style="stroke:#000000; stroke-linecap:round; stroke-linejoin:round; stroke-width:4; stroke-opacity:1; fill:none" points="462.162,1035.39 462.162,1016.49 "/>
<polyline clip-path="url(#clip730)" style="stroke:#000000; stroke-linecap:round; stroke-linejoin:round; stroke-width:4; stroke-opacity:1; fill:none" points="782.72,1035.39 782.72,1016.49 "/>
<polyline clip-path="url(#clip730)" style="stroke:#000000; stroke-linecap:round; stroke-linejoin:round; stroke-width:4; stroke-opacity:1; fill:none" points="1103.28,1035.39 1103.28,1016.49 "/>
<polyline clip-path="url(#clip730)" style="stroke:#000000; stroke-linecap:round; stroke-linejoin:round; stroke-width:4; stroke-opacity:1; fill:none" points="1423.84,1035.39 1423.84,1016.49 "/>
<polyline clip-path="url(#clip730)" style="stroke:#000000; stroke-linecap:round; stroke-linejoin:round; stroke-width:4; stroke-opacity:1; fill:none" points="1744.39,1035.39 1744.39,1016.49 "/>
<path clip-path="url(#clip730)" d="M456.815 1090.65 L473.134 1090.65 L473.134 1094.59 L451.19 1094.59 L451.19 1090.65 Q453.852 1087.9 458.435 1083.27 Q463.041 1078.62 464.222 1077.27 Q466.467 1074.75 467.347 1073.01 Q468.25 1071.25 468.25 1069.56 Q468.25 1066.81 466.305 1065.07 Q464.384 1063.34 461.282 1063.34 Q459.083 1063.34 456.629 1064.1 Q454.199 1064.87 451.421 1066.42 L451.421 1061.69 Q454.245 1060.56 456.699 1059.98 Q459.153 1059.4 461.19 1059.4 Q466.56 1059.4 469.754 1062.09 Q472.949 1064.77 472.949 1069.26 Q472.949 1071.39 472.139 1073.31 Q471.352 1075.21 469.245 1077.81 Q468.666 1078.48 465.565 1081.69 Q462.463 1084.89 456.815 1090.65 Z" fill="#000000" fill-rule="nonzero" fill-opacity="1" /><path clip-path="url(#clip730)" d="M785.729 1064.1 L773.923 1082.55 L785.729 1082.55 L785.729 1064.1 M784.502 1060.03 L790.382 1060.03 L790.382 1082.55 L795.312 1082.55 L795.312 1086.44 L790.382 1086.44 L790.382 1094.59 L785.729 1094.59 L785.729 1086.44 L770.127 1086.44 L770.127 1081.93 L784.502 1060.03 Z" fill="#000000" fill-rule="nonzero" fill-opacity="1" /><path clip-path="url(#clip730)" d="M1103.68 1075.44 Q1100.53 1075.44 1098.68 1077.6 Q1096.85 1079.75 1096.85 1083.5 Q1096.85 1087.23 1098.68 1089.4 Q1100.53 1091.56 1103.68 1091.56 Q1106.83 1091.56 1108.66 1089.4 Q1110.51 1087.23 1110.51 1083.5 Q1110.51 1079.75 1108.66 1077.6 Q1106.83 1075.44 1103.68 1075.44 M1112.97 1060.79 L1112.97 1065.05 Q1111.21 1064.22 1109.4 1063.78 Q1107.62 1063.34 1105.86 1063.34 Q1101.23 1063.34 1098.78 1066.46 Q1096.34 1069.59 1096 1075.91 Q1097.36 1073.89 1099.42 1072.83 Q1101.48 1071.74 1103.96 1071.74 Q1109.17 1071.74 1112.18 1074.91 Q1115.21 1078.06 1115.21 1083.5 Q1115.21 1088.82 1112.06 1092.04 Q1108.91 1095.26 1103.68 1095.26 Q1097.69 1095.26 1094.52 1090.68 Q1091.34 1086.07 1091.34 1077.34 Q1091.34 1069.15 1095.23 1064.29 Q1099.12 1059.4 1105.67 1059.4 Q1107.43 1059.4 1109.22 1059.75 Q1111.02 1060.1 1112.97 1060.79 Z" fill="#000000" fill-rule="nonzero" fill-opacity="1" /><path clip-path="url(#clip730)" d="M1423.84 1078.18 Q1420.5 1078.18 1418.58 1079.96 Q1416.68 1081.74 1416.68 1084.87 Q1416.68 1087.99 1418.58 1089.77 Q1420.5 1091.56 1423.84 1091.56 Q1427.17 1091.56 1429.09 1089.77 Q1431.01 1087.97 1431.01 1084.87 Q1431.01 1081.74 1429.09 1079.96 Q1427.19 1078.18 1423.84 1078.18 M1419.16 1076.19 Q1416.15 1075.44 1414.46 1073.38 Q1412.79 1071.32 1412.79 1068.36 Q1412.79 1064.22 1415.73 1061.81 Q1418.7 1059.4 1423.84 1059.4 Q1429 1059.4 1431.94 1061.81 Q1434.88 1064.22 1434.88 1068.36 Q1434.88 1071.32 1433.19 1073.38 Q1431.52 1075.44 1428.53 1076.19 Q1431.91 1076.97 1433.79 1079.26 Q1435.69 1081.56 1435.69 1084.87 Q1435.69 1089.89 1432.61 1092.57 Q1429.55 1095.26 1423.84 1095.26 Q1418.12 1095.26 1415.04 1092.57 Q1411.98 1089.89 1411.98 1084.87 Q1411.98 1081.56 1413.88 1079.26 Q1415.78 1076.97 1419.16 1076.19 M1417.45 1068.8 Q1417.45 1071.49 1419.11 1072.99 Q1420.8 1074.5 1423.84 1074.5 Q1426.84 1074.5 1428.53 1072.99 Q1430.25 1071.49 1430.25 1068.8 Q1430.25 1066.12 1428.53 1064.61 Q1426.84 1063.11 1423.84 1063.11 Q1420.8 1063.11 1419.11 1064.61 Q1417.45 1066.12 1417.45 1068.8 Z" fill="#000000" fill-rule="nonzero" fill-opacity="1" /><path clip-path="url(#clip730)" d="M1719.08 1090.65 L1726.72 1090.65 L1726.72 1064.29 L1718.41 1065.95 L1718.41 1061.69 L1726.67 1060.03 L1731.35 1060.03 L1731.35 1090.65 L1738.99 1090.65 L1738.99 1094.59 L1719.08 1094.59 L1719.08 1090.65 Z" fill="#000000" fill-rule="nonzero" fill-opacity="1" /><path clip-path="url(#clip730)" d="M1758.43 1063.11 Q1754.82 1063.11 1752.99 1066.67 Q1751.19 1070.21 1751.19 1077.34 Q1751.19 1084.45 1752.99 1088.01 Q1754.82 1091.56 1758.43 1091.56 Q1762.07 1091.56 1763.87 1088.01 Q1765.7 1084.45 1765.7 1077.34 Q1765.7 1070.21 1763.87 1066.67 Q1762.07 1063.11 1758.43 1063.11 M1758.43 1059.4 Q1764.24 1059.4 1767.3 1064.01 Q1770.38 1068.59 1770.38 1077.34 Q1770.38 1086.07 1767.3 1090.68 Q1764.24 1095.26 1758.43 1095.26 Q1752.62 1095.26 1749.54 1090.68 Q1746.49 1086.07 1746.49 1077.34 Q1746.49 1068.59 1749.54 1064.01 Q1752.62 1059.4 1758.43 1059.4 Z" fill="#000000" fill-rule="nonzero" fill-opacity="1" /><path clip-path="url(#clip730)" d="M1043.57 1128.29 L1043.57 1134.56 Q1039.91 1132.81 1036.66 1131.95 Q1033.41 1131.09 1030.39 1131.09 Q1025.14 1131.09 1022.27 1133.13 Q1019.44 1135.17 1019.44 1138.92 Q1019.44 1142.07 1021.32 1143.7 Q1023.23 1145.29 1028.51 1146.27 L1032.4 1147.07 Q1039.59 1148.44 1042.99 1151.91 Q1046.43 1155.35 1046.43 1161.14 Q1046.43 1168.05 1041.78 1171.61 Q1037.17 1175.17 1028.23 1175.17 Q1024.85 1175.17 1021.03 1174.41 Q1017.25 1173.65 1013.17 1172.15 L1013.17 1165.53 Q1017.09 1167.73 1020.84 1168.84 Q1024.6 1169.95 1028.23 1169.95 Q1033.73 1169.95 1036.72 1167.79 Q1039.72 1165.63 1039.72 1161.62 Q1039.72 1158.11 1037.55 1156.14 Q1035.42 1154.17 1030.52 1153.18 L1026.6 1152.42 Q1019.41 1150.99 1016.19 1147.93 Q1012.98 1144.87 1012.98 1139.43 Q1012.98 1133.13 1017.4 1129.5 Q1021.86 1125.87 1029.66 1125.87 Q1033 1125.87 1036.47 1126.48 Q1039.94 1127.08 1043.57 1128.29 Z" fill="#000000" fill-rule="nonzero" fill-opacity="1" /><path clip-path="url(#clip730)" d="M1062 1128.48 L1062 1138.6 L1074.06 1138.6 L1074.06 1143.16 L1062 1143.16 L1062 1162.51 Q1062 1166.87 1063.17 1168.11 Q1064.38 1169.35 1068.04 1169.35 L1074.06 1169.35 L1074.06 1174.25 L1068.04 1174.25 Q1061.26 1174.25 1058.69 1171.74 Q1056.11 1169.19 1056.11 1162.51 L1056.11 1143.16 L1051.81 1143.16 L1051.81 1138.6 L1056.11 1138.6 L1056.11 1128.48 L1062 1128.48 Z" fill="#000000" fill-rule="nonzero" fill-opacity="1" /><path clip-path="url(#clip730)" d="M1097.96 1156.33 Q1090.86 1156.33 1088.13 1157.96 Q1085.39 1159.58 1085.39 1163.49 Q1085.39 1166.61 1087.43 1168.46 Q1089.5 1170.27 1093.03 1170.27 Q1097.9 1170.27 1100.83 1166.84 Q1103.79 1163.37 1103.79 1157.64 L1103.79 1156.33 L1097.96 1156.33 M1109.64 1153.91 L1109.64 1174.25 L1103.79 1174.25 L1103.79 1168.84 Q1101.78 1172.09 1098.79 1173.65 Q1095.8 1175.17 1091.47 1175.17 Q1085.99 1175.17 1082.75 1172.12 Q1079.53 1169.03 1079.53 1163.88 Q1079.53 1157.86 1083.54 1154.8 Q1087.59 1151.75 1095.58 1151.75 L1103.79 1151.75 L1103.79 1151.18 Q1103.79 1147.13 1101.11 1144.94 Q1098.47 1142.71 1093.67 1142.71 Q1090.61 1142.71 1087.71 1143.44 Q1084.82 1144.17 1082.14 1145.64 L1082.14 1140.23 Q1085.36 1138.99 1088.38 1138.38 Q1091.41 1137.74 1094.27 1137.74 Q1102 1137.74 1105.82 1141.75 Q1109.64 1145.77 1109.64 1153.91 Z" fill="#000000" fill-rule="nonzero" fill-opacity="1" /><path clip-path="url(#clip730)" d="M1145.16 1156.01 Q1145.16 1149.65 1142.52 1146.15 Q1139.91 1142.65 1135.17 1142.65 Q1130.46 1142.65 1127.82 1146.15 Q1125.21 1149.65 1125.21 1156.01 Q1125.21 1162.35 1127.82 1165.85 Q1130.46 1169.35 1135.17 1169.35 Q1139.91 1169.35 1142.52 1165.85 Q1145.16 1162.35 1145.16 1156.01 M1151.02 1169.83 Q1151.02 1178.93 1146.98 1183.35 Q1142.94 1187.81 1134.6 1187.81 Q1131.51 1187.81 1128.77 1187.33 Q1126.03 1186.89 1123.46 1185.93 L1123.46 1180.24 Q1126.03 1181.64 1128.55 1182.3 Q1131.06 1182.97 1133.67 1182.97 Q1139.43 1182.97 1142.3 1179.95 Q1145.16 1176.96 1145.16 1170.88 L1145.16 1167.98 Q1143.35 1171.13 1140.52 1172.69 Q1137.68 1174.25 1133.74 1174.25 Q1127.18 1174.25 1123.17 1169.25 Q1119.16 1164.26 1119.16 1156.01 Q1119.16 1147.74 1123.17 1142.74 Q1127.18 1137.74 1133.74 1137.74 Q1137.68 1137.74 1140.52 1139.3 Q1143.35 1140.86 1145.16 1144.01 L1145.16 1138.6 L1151.02 1138.6 L1151.02 1169.83 Z" fill="#000000" fill-rule="nonzero" fill-opacity="1" /><path clip-path="url(#clip730)" d="M1193.58 1154.96 L1193.58 1157.83 L1166.65 1157.83 Q1167.03 1163.88 1170.28 1167.06 Q1173.55 1170.21 1179.38 1170.21 Q1182.75 1170.21 1185.9 1169.38 Q1189.09 1168.55 1192.21 1166.9 L1192.21 1172.44 Q1189.06 1173.77 1185.75 1174.47 Q1182.44 1175.17 1179.03 1175.17 Q1170.5 1175.17 1165.5 1170.21 Q1160.54 1165.24 1160.54 1156.78 Q1160.54 1148.03 1165.25 1142.9 Q1169.99 1137.74 1178.01 1137.74 Q1185.2 1137.74 1189.37 1142.39 Q1193.58 1147.01 1193.58 1154.96 M1187.72 1153.25 Q1187.66 1148.44 1185.01 1145.57 Q1182.4 1142.71 1178.07 1142.71 Q1173.17 1142.71 1170.21 1145.48 Q1167.28 1148.25 1166.84 1153.28 L1187.72 1153.25 Z" fill="#000000" fill-rule="nonzero" fill-opacity="1" /><polyline clip-path="url(#clip730)" style="stroke:#000000; stroke-linecap:round; stroke-linejoin:round; stroke-width:4; stroke-opacity:1; fill:none" points="253.799,1035.39 253.799,117.424 "/>
<polyline clip-path="url(#clip730)" style="stroke:#000000; stroke-linecap:round; stroke-linejoin:round; stroke-width:4; stroke-opacity:1; fill:none" points="253.799,1035.39 272.697,1035.39 "/>
<polyline clip-path="url(#clip730)" style="stroke:#000000; stroke-linecap:round; stroke-linejoin:round; stroke-width:4; stroke-opacity:1; fill:none" points="253.799,851.795 272.697,851.795 "/>
<polyline clip-path="url(#clip730)" style="stroke:#000000; stroke-linecap:round; stroke-linejoin:round; stroke-width:4; stroke-opacity:1; fill:none" points="253.799,668.202 272.697,668.202 "/>
<polyline clip-path="url(#clip730)" style="stroke:#000000; stroke-linecap:round; stroke-linejoin:round; stroke-width:4; stroke-opacity:1; fill:none" points="253.799,484.61 272.697,484.61 "/>
<polyline clip-path="url(#clip730)" style="stroke:#000000; stroke-linecap:round; stroke-linejoin:round; stroke-width:4; stroke-opacity:1; fill:none" points="253.799,301.017 272.697,301.017 "/>
<polyline clip-path="url(#clip730)" style="stroke:#000000; stroke-linecap:round; stroke-linejoin:round; stroke-width:4; stroke-opacity:1; fill:none" points="253.799,117.424 272.697,117.424 "/>
<path clip-path="url(#clip730)" d="M211.855 1021.19 Q208.244 1021.19 206.415 1024.75 Q204.61 1028.29 204.61 1035.42 Q204.61 1042.53 206.415 1046.09 Q208.244 1049.64 211.855 1049.64 Q215.489 1049.64 217.295 1046.09 Q219.123 1042.53 219.123 1035.42 Q219.123 1028.29 217.295 1024.75 Q215.489 1021.19 211.855 1021.19 M211.855 1017.48 Q217.665 1017.48 220.721 1022.09 Q223.799 1026.67 223.799 1035.42 Q223.799 1044.15 220.721 1048.76 Q217.665 1053.34 211.855 1053.34 Q206.045 1053.34 202.966 1048.76 Q199.91 1044.15 199.91 1035.42 Q199.91 1026.67 202.966 1022.09 Q206.045 1017.48 211.855 1017.48 Z" fill="#000000" fill-rule="nonzero" fill-opacity="1" /><path clip-path="url(#clip730)" d="M145.559 865.14 L161.878 865.14 L161.878 869.075 L139.934 869.075 L139.934 865.14 Q142.596 862.385 147.179 857.756 Q151.786 853.103 152.966 851.76 Q155.212 849.237 156.091 847.501 Q156.994 845.742 156.994 844.052 Q156.994 841.297 155.05 839.561 Q153.128 837.825 150.026 837.825 Q147.827 837.825 145.374 838.589 Q142.943 839.353 140.165 840.904 L140.165 836.182 Q142.989 835.048 145.443 834.469 Q147.897 833.89 149.934 833.89 Q155.304 833.89 158.499 836.575 Q161.693 839.26 161.693 843.751 Q161.693 845.881 160.883 847.802 Q160.096 849.7 157.989 852.293 Q157.411 852.964 154.309 856.182 Q151.207 859.376 145.559 865.14 Z" fill="#000000" fill-rule="nonzero" fill-opacity="1" /><path clip-path="url(#clip730)" d="M181.693 837.594 Q178.082 837.594 176.253 841.159 Q174.448 844.7 174.448 851.83 Q174.448 858.936 176.253 862.501 Q178.082 866.043 181.693 866.043 Q185.327 866.043 187.133 862.501 Q188.961 858.936 188.961 851.83 Q188.961 844.7 187.133 841.159 Q185.327 837.594 181.693 837.594 M181.693 833.89 Q187.503 833.89 190.559 838.497 Q193.637 843.08 193.637 851.83 Q193.637 860.557 190.559 865.163 Q187.503 869.746 181.693 869.746 Q175.883 869.746 172.804 865.163 Q169.749 860.557 169.749 851.83 Q169.749 843.08 172.804 838.497 Q175.883 833.89 181.693 833.89 Z" fill="#000000" fill-rule="nonzero" fill-opacity="1" /><path clip-path="url(#clip730)" d="M211.855 837.594 Q208.244 837.594 206.415 841.159 Q204.61 844.7 204.61 851.83 Q204.61 858.936 206.415 862.501 Q208.244 866.043 211.855 866.043 Q215.489 866.043 217.295 862.501 Q219.123 858.936 219.123 851.83 Q219.123 844.7 217.295 841.159 Q215.489 837.594 211.855 837.594 M211.855 833.89 Q217.665 833.89 220.721 838.497 Q223.799 843.08 223.799 851.83 Q223.799 860.557 220.721 865.163 Q217.665 869.746 211.855 869.746 Q206.045 869.746 202.966 865.163 Q199.91 860.557 199.91 851.83 Q199.91 843.08 202.966 838.497 Q206.045 833.89 211.855 833.89 Z" fill="#000000" fill-rule="nonzero" fill-opacity="1" /><path clip-path="url(#clip730)" d="M154.378 654.996 L142.573 673.445 L154.378 673.445 L154.378 654.996 M153.151 650.922 L159.031 650.922 L159.031 673.445 L163.962 673.445 L163.962 677.334 L159.031 677.334 L159.031 685.482 L154.378 685.482 L154.378 677.334 L138.777 677.334 L138.777 672.82 L153.151 650.922 Z" fill="#000000" fill-rule="nonzero" fill-opacity="1" /><path clip-path="url(#clip730)" d="M181.693 654.001 Q178.082 654.001 176.253 657.566 Q174.448 661.107 174.448 668.237 Q174.448 675.344 176.253 678.908 Q178.082 682.45 181.693 682.45 Q185.327 682.45 187.133 678.908 Q188.961 675.344 188.961 668.237 Q188.961 661.107 187.133 657.566 Q185.327 654.001 181.693 654.001 M181.693 650.297 Q187.503 650.297 190.559 654.904 Q193.637 659.487 193.637 668.237 Q193.637 676.964 190.559 681.57 Q187.503 686.154 181.693 686.154 Q175.883 686.154 172.804 681.57 Q169.749 676.964 169.749 668.237 Q169.749 659.487 172.804 654.904 Q175.883 650.297 181.693 650.297 Z" fill="#000000" fill-rule="nonzero" fill-opacity="1" /><path clip-path="url(#clip730)" d="M211.855 654.001 Q208.244 654.001 206.415 657.566 Q204.61 661.107 204.61 668.237 Q204.61 675.344 206.415 678.908 Q208.244 682.45 211.855 682.45 Q215.489 682.45 217.295 678.908 Q219.123 675.344 219.123 668.237 Q219.123 661.107 217.295 657.566 Q215.489 654.001 211.855 654.001 M211.855 650.297 Q217.665 650.297 220.721 654.904 Q223.799 659.487 223.799 668.237 Q223.799 676.964 220.721 681.57 Q217.665 686.154 211.855 686.154 Q206.045 686.154 202.966 681.57 Q199.91 676.964 199.91 668.237 Q199.91 659.487 202.966 654.904 Q206.045 650.297 211.855 650.297 Z" fill="#000000" fill-rule="nonzero" fill-opacity="1" /><path clip-path="url(#clip730)" d="M152.11 482.746 Q148.962 482.746 147.11 484.899 Q145.281 487.052 145.281 490.802 Q145.281 494.529 147.11 496.704 Q148.962 498.857 152.11 498.857 Q155.258 498.857 157.087 496.704 Q158.938 494.529 158.938 490.802 Q158.938 487.052 157.087 484.899 Q155.258 482.746 152.11 482.746 M161.392 468.093 L161.392 472.353 Q159.633 471.519 157.827 471.08 Q156.045 470.64 154.286 470.64 Q149.656 470.64 147.202 473.765 Q144.772 476.89 144.425 483.209 Q145.79 481.195 147.851 480.13 Q149.911 479.043 152.388 479.043 Q157.596 479.043 160.605 482.214 Q163.638 485.362 163.638 490.802 Q163.638 496.126 160.489 499.343 Q157.341 502.561 152.11 502.561 Q146.114 502.561 142.943 497.978 Q139.772 493.371 139.772 484.644 Q139.772 476.45 143.661 471.589 Q147.55 466.705 154.101 466.705 Q155.86 466.705 157.642 467.052 Q159.448 467.399 161.392 468.093 Z" fill="#000000" fill-rule="nonzero" fill-opacity="1" /><path clip-path="url(#clip730)" d="M181.693 470.408 Q178.082 470.408 176.253 473.973 Q174.448 477.515 174.448 484.644 Q174.448 491.751 176.253 495.316 Q178.082 498.857 181.693 498.857 Q185.327 498.857 187.133 495.316 Q188.961 491.751 188.961 484.644 Q188.961 477.515 187.133 473.973 Q185.327 470.408 181.693 470.408 M181.693 466.705 Q187.503 466.705 190.559 471.311 Q193.637 475.894 193.637 484.644 Q193.637 493.371 190.559 497.978 Q187.503 502.561 181.693 502.561 Q175.883 502.561 172.804 497.978 Q169.749 493.371 169.749 484.644 Q169.749 475.894 172.804 471.311 Q175.883 466.705 181.693 466.705 Z" fill="#000000" fill-rule="nonzero" fill-opacity="1" /><path clip-path="url(#clip730)" d="M211.855 470.408 Q208.244 470.408 206.415 473.973 Q204.61 477.515 204.61 484.644 Q204.61 491.751 206.415 495.316 Q208.244 498.857 211.855 498.857 Q215.489 498.857 217.295 495.316 Q219.123 491.751 219.123 484.644 Q219.123 477.515 217.295 473.973 Q215.489 470.408 211.855 470.408 M211.855 466.705 Q217.665 466.705 220.721 471.311 Q223.799 475.894 223.799 484.644 Q223.799 493.371 220.721 497.978 Q217.665 502.561 211.855 502.561 Q206.045 502.561 202.966 497.978 Q199.91 493.371 199.91 484.644 Q199.91 475.894 202.966 471.311 Q206.045 466.705 211.855 466.705 Z" fill="#000000" fill-rule="nonzero" fill-opacity="1" /><path clip-path="url(#clip730)" d="M151.531 301.885 Q148.198 301.885 146.276 303.667 Q144.378 305.45 144.378 308.575 Q144.378 311.7 146.276 313.482 Q148.198 315.264 151.531 315.264 Q154.864 315.264 156.786 313.482 Q158.707 311.677 158.707 308.575 Q158.707 305.45 156.786 303.667 Q154.888 301.885 151.531 301.885 M146.855 299.894 Q143.846 299.153 142.156 297.093 Q140.489 295.033 140.489 292.07 Q140.489 287.927 143.429 285.519 Q146.392 283.112 151.531 283.112 Q156.693 283.112 159.633 285.519 Q162.573 287.927 162.573 292.07 Q162.573 295.033 160.883 297.093 Q159.216 299.153 156.23 299.894 Q159.61 300.681 161.485 302.973 Q163.383 305.265 163.383 308.575 Q163.383 313.598 160.304 316.283 Q157.249 318.968 151.531 318.968 Q145.814 318.968 142.735 316.283 Q139.679 313.598 139.679 308.575 Q139.679 305.265 141.577 302.973 Q143.476 300.681 146.855 299.894 M145.142 292.51 Q145.142 295.195 146.809 296.7 Q148.499 298.204 151.531 298.204 Q154.54 298.204 156.23 296.7 Q157.943 295.195 157.943 292.51 Q157.943 289.825 156.23 288.32 Q154.54 286.816 151.531 286.816 Q148.499 286.816 146.809 288.32 Q145.142 289.825 145.142 292.51 Z" fill="#000000" fill-rule="nonzero" fill-opacity="1" /><path clip-path="url(#clip730)" d="M181.693 286.816 Q178.082 286.816 176.253 290.38 Q174.448 293.922 174.448 301.052 Q174.448 308.158 176.253 311.723 Q178.082 315.264 181.693 315.264 Q185.327 315.264 187.133 311.723 Q188.961 308.158 188.961 301.052 Q188.961 293.922 187.133 290.38 Q185.327 286.816 181.693 286.816 M181.693 283.112 Q187.503 283.112 190.559 287.718 Q193.637 292.302 193.637 301.052 Q193.637 309.778 190.559 314.385 Q187.503 318.968 181.693 318.968 Q175.883 318.968 172.804 314.385 Q169.749 309.778 169.749 301.052 Q169.749 292.302 172.804 287.718 Q175.883 283.112 181.693 283.112 Z" fill="#000000" fill-rule="nonzero" fill-opacity="1" /><path clip-path="url(#clip730)" d="M211.855 286.816 Q208.244 286.816 206.415 290.38 Q204.61 293.922 204.61 301.052 Q204.61 308.158 206.415 311.723 Q208.244 315.264 211.855 315.264 Q215.489 315.264 217.295 311.723 Q219.123 308.158 219.123 301.052 Q219.123 293.922 217.295 290.38 Q215.489 286.816 211.855 286.816 M211.855 283.112 Q217.665 283.112 220.721 287.718 Q223.799 292.302 223.799 301.052 Q223.799 309.778 220.721 314.385 Q217.665 318.968 211.855 318.968 Q206.045 318.968 202.966 314.385 Q199.91 309.778 199.91 301.052 Q199.91 292.302 202.966 287.718 Q206.045 283.112 211.855 283.112 Z" fill="#000000" fill-rule="nonzero" fill-opacity="1" /><path clip-path="url(#clip730)" d="M112.179 130.769 L119.818 130.769 L119.818 104.403 L111.508 106.07 L111.508 101.811 L119.772 100.144 L124.448 100.144 L124.448 130.769 L132.087 130.769 L132.087 134.704 L112.179 134.704 L112.179 130.769 Z" fill="#000000" fill-rule="nonzero" fill-opacity="1" /><path clip-path="url(#clip730)" d="M151.531 103.223 Q147.92 103.223 146.091 106.788 Q144.286 110.329 144.286 117.459 Q144.286 124.565 146.091 128.13 Q147.92 131.672 151.531 131.672 Q155.165 131.672 156.971 128.13 Q158.8 124.565 158.8 117.459 Q158.8 110.329 156.971 106.788 Q155.165 103.223 151.531 103.223 M151.531 99.5191 Q157.341 99.5191 160.397 104.126 Q163.475 108.709 163.475 117.459 Q163.475 126.186 160.397 130.792 Q157.341 135.375 151.531 135.375 Q145.721 135.375 142.642 130.792 Q139.587 126.186 139.587 117.459 Q139.587 108.709 142.642 104.126 Q145.721 99.5191 151.531 99.5191 Z" fill="#000000" fill-rule="nonzero" fill-opacity="1" /><path clip-path="url(#clip730)" d="M181.693 103.223 Q178.082 103.223 176.253 106.788 Q174.448 110.329 174.448 117.459 Q174.448 124.565 176.253 128.13 Q178.082 131.672 181.693 131.672 Q185.327 131.672 187.133 128.13 Q188.961 124.565 188.961 117.459 Q188.961 110.329 187.133 106.788 Q185.327 103.223 181.693 103.223 M181.693 99.5191 Q187.503 99.5191 190.559 104.126 Q193.637 108.709 193.637 117.459 Q193.637 126.186 190.559 130.792 Q187.503 135.375 181.693 135.375 Q175.883 135.375 172.804 130.792 Q169.749 126.186 169.749 117.459 Q169.749 108.709 172.804 104.126 Q175.883 99.5191 181.693 99.5191 Z" fill="#000000" fill-rule="nonzero" fill-opacity="1" /><path clip-path="url(#clip730)" d="M211.855 103.223 Q208.244 103.223 206.415 106.788 Q204.61 110.329 204.61 117.459 Q204.61 124.565 206.415 128.13 Q208.244 131.672 211.855 131.672 Q215.489 131.672 217.295 128.13 Q219.123 124.565 219.123 117.459 Q219.123 110.329 217.295 106.788 Q215.489 103.223 211.855 103.223 M211.855 99.5191 Q217.665 99.5191 220.721 104.126 Q223.799 108.709 223.799 117.459 Q223.799 126.186 220.721 130.792 Q217.665 135.375 211.855 135.375 Q206.045 135.375 202.966 130.792 Q199.91 126.186 199.91 117.459 Q199.91 108.709 202.966 104.126 Q206.045 99.5191 211.855 99.5191 Z" fill="#000000" fill-rule="nonzero" fill-opacity="1" /><path clip-path="url(#clip730)" d="M24.0927 692.421 Q24.0927 699.423 29.3125 703.561 Q34.5324 707.667 43.5399 707.667 Q52.5155 707.667 57.7354 703.561 Q62.9553 699.423 62.9553 692.421 Q62.9553 685.419 57.7354 681.345 Q52.5155 677.239 43.5399 677.239 Q34.5324 677.239 29.3125 681.345 Q24.0927 685.419 24.0927 692.421 M66.3928 683.414 L75.6549 674.947 L75.6549 682.713 L68.0479 689.747 Q68.1115 690.798 68.1434 691.371 Q68.1752 691.912 68.1752 692.421 Q68.1752 702.447 61.4912 708.463 Q54.7754 714.446 43.5399 714.446 Q32.2726 714.446 25.5886 708.463 Q18.8728 702.447 18.8728 692.421 Q18.8728 682.427 25.5886 676.443 Q32.2726 670.459 43.5399 670.459 Q51.8153 670.459 57.7036 673.801 Q63.5919 677.111 66.3928 683.414 Z" fill="#000000" fill-rule="nonzero" fill-opacity="1" /><path clip-path="url(#clip730)" d="M53.1839 661.261 L31.6042 661.261 L31.6042 655.404 L52.9611 655.404 Q58.0219 655.404 60.5682 653.431 Q63.0826 651.458 63.0826 647.511 Q63.0826 642.768 60.0589 640.031 Q57.0352 637.262 51.8153 637.262 L31.6042 637.262 L31.6042 631.406 L67.2522 631.406 L67.2522 637.262 L61.7776 637.262 Q65.0242 639.395 66.6156 642.227 Q68.1752 645.028 68.1752 648.752 Q68.1752 654.895 64.3558 658.078 Q60.5363 661.261 53.1839 661.261 M30.7448 646.524 L30.7448 646.524 Z" fill="#000000" fill-rule="nonzero" fill-opacity="1" /><path clip-path="url(#clip730)" d="M49.3327 603.142 Q49.3327 610.24 50.9559 612.977 Q52.5792 615.714 56.4941 615.714 Q59.6133 615.714 61.4594 613.677 Q63.2736 611.608 63.2736 608.075 Q63.2736 603.206 59.8361 600.277 Q56.3668 597.317 50.6377 597.317 L49.3327 597.317 L49.3327 603.142 M46.9137 591.461 L67.2522 591.461 L67.2522 597.317 L61.8413 597.317 Q65.0878 599.323 66.6474 602.314 Q68.1752 605.306 68.1752 609.635 Q68.1752 615.109 65.1196 618.356 Q62.0323 621.571 56.8761 621.571 Q50.8605 621.571 47.8049 617.56 Q44.7494 613.518 44.7494 605.529 L44.7494 597.317 L44.1765 597.317 Q40.1342 597.317 37.9381 599.991 Q35.7101 602.633 35.7101 607.439 Q35.7101 610.494 36.4421 613.391 Q37.1742 616.287 38.6383 618.961 L33.2275 618.961 Q31.9861 615.746 31.3814 612.722 Q30.7448 609.699 30.7448 606.834 Q30.7448 599.1 34.7552 595.28 Q38.7656 591.461 46.9137 591.461 Z" fill="#000000" fill-rule="nonzero" fill-opacity="1" /><path clip-path="url(#clip730)" d="M45.7361 549.766 L67.2522 549.766 L67.2522 555.622 L45.927 555.622 Q40.8663 555.622 38.3518 557.595 Q35.8374 559.569 35.8374 563.515 Q35.8374 568.258 38.8611 570.995 Q41.8848 573.732 47.1047 573.732 L67.2522 573.732 L67.2522 579.621 L31.6042 579.621 L31.6042 573.732 L37.1424 573.732 Q33.9277 571.632 32.3363 568.799 Q30.7448 565.934 30.7448 562.21 Q30.7448 556.068 34.5643 552.917 Q38.3518 549.766 45.7361 549.766 Z" fill="#000000" fill-rule="nonzero" fill-opacity="1" /><path clip-path="url(#clip730)" d="M21.4827 532.292 L31.6042 532.292 L31.6042 520.229 L36.1557 520.229 L36.1557 532.292 L55.5074 532.292 Q59.8679 532.292 61.1093 531.114 Q62.3506 529.904 62.3506 526.244 L62.3506 520.229 L67.2522 520.229 L67.2522 526.244 Q67.2522 533.024 64.7377 535.602 Q62.1914 538.18 55.5074 538.18 L36.1557 538.18 L36.1557 542.477 L31.6042 542.477 L31.6042 538.18 L21.4827 538.18 L21.4827 532.292 Z" fill="#000000" fill-rule="nonzero" fill-opacity="1" /><path clip-path="url(#clip730)" d="M31.6042 512.526 L31.6042 506.67 L67.2522 506.67 L67.2522 512.526 L31.6042 512.526 M17.727 512.526 L17.727 506.67 L25.143 506.67 L25.143 512.526 L17.727 512.526 Z" fill="#000000" fill-rule="nonzero" fill-opacity="1" /><path clip-path="url(#clip730)" d="M21.4827 488.623 L31.6042 488.623 L31.6042 476.56 L36.1557 476.56 L36.1557 488.623 L55.5074 488.623 Q59.8679 488.623 61.1093 487.445 Q62.3506 486.236 62.3506 482.575 L62.3506 476.56 L67.2522 476.56 L67.2522 482.575 Q67.2522 489.355 64.7377 491.933 Q62.1914 494.511 55.5074 494.511 L36.1557 494.511 L36.1557 498.808 L31.6042 498.808 L31.6042 494.511 L21.4827 494.511 L21.4827 488.623 Z" fill="#000000" fill-rule="nonzero" fill-opacity="1" /><path clip-path="url(#clip730)" d="M70.5623 454.025 Q76.928 456.508 78.8696 458.863 Q80.8111 461.219 80.8111 465.165 L80.8111 469.844 L75.9095 469.844 L75.9095 466.407 Q75.9095 463.988 74.7637 462.651 Q73.6179 461.314 69.3528 459.691 L66.6792 458.64 L31.6042 473.059 L31.6042 466.852 L59.486 455.712 L31.6042 444.572 L31.6042 438.366 L70.5623 454.025 Z" fill="#000000" fill-rule="nonzero" fill-opacity="1" /><path clip-path="url(#clip730)" d="M570.158 27.2059 L553.752 49.2833 L571.009 72.576 L562.219 72.576 L549.013 54.752 L535.807 72.576 L527.016 72.576 L544.638 48.8377 L528.515 27.2059 L537.305 27.2059 L549.337 43.369 L561.368 27.2059 L570.158 27.2059 Z" fill="#000000" fill-rule="nonzero" fill-opacity="1" /><path clip-path="url(#clip730)" d="M616.015 86.3491 L616.015 92.1419 L572.913 92.1419 L572.913 86.3491 L616.015 86.3491 Z" fill="#000000" fill-rule="nonzero" fill-opacity="1" /><path clip-path="url(#clip730)" d="M623.023 27.2059 L630.476 27.2059 L630.476 72.576 L623.023 72.576 L623.023 27.2059 M623.023 9.54393 L630.476 9.54393 L630.476 18.9825 L623.023 18.9825 L623.023 9.54393 Z" fill="#000000" fill-rule="nonzero" fill-opacity="1" /><path clip-path="url(#clip730)" d="M683.786 45.1919 L683.786 72.576 L676.333 72.576 L676.333 45.4349 Q676.333 38.994 673.821 35.7938 Q671.309 32.5936 666.286 32.5936 Q660.25 32.5936 656.767 36.4419 Q653.283 40.2903 653.283 46.9338 L653.283 72.576 L645.789 72.576 L645.789 27.2059 L653.283 27.2059 L653.283 34.2544 Q655.956 30.163 659.562 28.1376 Q663.208 26.1121 667.947 26.1121 Q675.765 26.1121 679.776 30.9732 Q683.786 35.7938 683.786 45.1919 Z" fill="#000000" fill-rule="nonzero" fill-opacity="1" /><path clip-path="url(#clip730)" d="M693.306 27.2059 L701.205 27.2059 L715.383 65.2844 L729.561 27.2059 L737.461 27.2059 L720.447 72.576 L710.32 72.576 L693.306 27.2059 Z" fill="#000000" fill-rule="nonzero" fill-opacity="1" /><path clip-path="url(#clip730)" d="M786.558 48.0275 L786.558 51.6733 L752.287 51.6733 Q752.773 59.3701 756.905 63.421 Q761.077 67.4314 768.491 67.4314 Q772.785 67.4314 776.795 66.3781 Q780.846 65.3249 784.816 63.2184 L784.816 70.267 Q780.805 71.9684 776.592 72.8596 Q772.379 73.7508 768.045 73.7508 Q757.189 73.7508 750.829 67.4314 Q744.509 61.1119 744.509 50.3365 Q744.509 39.1965 750.505 32.6746 Q756.54 26.1121 766.749 26.1121 Q775.904 26.1121 781.21 32.0264 Q786.558 37.9003 786.558 48.0275 M779.104 45.84 Q779.023 39.7232 775.661 36.0774 Q772.339 32.4315 766.83 32.4315 Q760.591 32.4315 756.824 35.9558 Q753.097 39.4801 752.53 45.8805 L779.104 45.84 Z" fill="#000000" fill-rule="nonzero" fill-opacity="1" /><path clip-path="url(#clip730)" d="M836.505 45.1919 L836.505 72.576 L829.052 72.576 L829.052 45.4349 Q829.052 38.994 826.54 35.7938 Q824.028 32.5936 819.005 32.5936 Q812.97 32.5936 809.486 36.4419 Q806.002 40.2903 806.002 46.9338 L806.002 72.576 L798.508 72.576 L798.508 27.2059 L806.002 27.2059 L806.002 34.2544 Q808.676 30.163 812.281 28.1376 Q815.927 26.1121 820.666 26.1121 Q828.484 26.1121 832.495 30.9732 Q836.505 35.7938 836.505 45.1919 Z" fill="#000000" fill-rule="nonzero" fill-opacity="1" /><path clip-path="url(#clip730)" d="M858.745 14.324 L858.745 27.2059 L874.098 27.2059 L874.098 32.9987 L858.745 32.9987 L858.745 57.6282 Q858.745 63.1779 860.244 64.7578 Q861.783 66.3376 866.441 66.3376 L874.098 66.3376 L874.098 72.576 L866.441 72.576 Q857.813 72.576 854.532 69.3758 Q851.251 66.1351 851.251 57.6282 L851.251 32.9987 L845.782 32.9987 L845.782 27.2059 L851.251 27.2059 L851.251 14.324 L858.745 14.324 Z" fill="#000000" fill-rule="nonzero" fill-opacity="1" /><path clip-path="url(#clip730)" d="M901.482 32.4315 Q895.486 32.4315 892.003 37.1306 Q888.519 41.7891 888.519 49.9314 Q888.519 58.0738 891.962 62.7728 Q895.446 67.4314 901.482 67.4314 Q907.437 67.4314 910.92 62.7323 Q914.404 58.0333 914.404 49.9314 Q914.404 41.8701 910.92 37.1711 Q907.437 32.4315 901.482 32.4315 M901.482 26.1121 Q911.204 26.1121 916.754 32.4315 Q922.303 38.7509 922.303 49.9314 Q922.303 61.0714 916.754 67.4314 Q911.204 73.7508 901.482 73.7508 Q891.719 73.7508 886.169 67.4314 Q880.66 61.0714 880.66 49.9314 Q880.66 38.7509 886.169 32.4315 Q891.719 26.1121 901.482 26.1121 Z" fill="#000000" fill-rule="nonzero" fill-opacity="1" /><path clip-path="url(#clip730)" d="M960.949 34.1734 Q959.693 33.4443 958.194 33.1202 Q956.736 32.7556 954.954 32.7556 Q948.634 32.7556 945.232 36.8875 Q941.869 40.9789 941.869 48.6757 L941.869 72.576 L934.375 72.576 L934.375 27.2059 L941.869 27.2059 L941.869 34.2544 Q944.219 30.1225 947.986 28.1376 Q951.753 26.1121 957.141 26.1121 Q957.911 26.1121 958.843 26.2337 Q959.774 26.3147 960.909 26.5172 L960.949 34.1734 Z" fill="#000000" fill-rule="nonzero" fill-opacity="1" /><path clip-path="url(#clip730)" d="M987.645 76.7889 Q984.485 84.8907 981.487 87.3618 Q978.489 89.8329 973.466 89.8329 L967.512 89.8329 L967.512 83.5945 L971.886 83.5945 Q974.965 83.5945 976.667 82.1361 Q978.368 80.6778 980.434 75.2496 L981.771 71.8468 L963.42 27.2059 L971.319 27.2059 L985.498 62.6918 L999.676 27.2059 L1007.57 27.2059 L987.645 76.7889 Z" fill="#000000" fill-rule="nonzero" fill-opacity="1" /><path clip-path="url(#clip730)" d="M1007.09 62.2867 L1015.64 62.2867 L1015.64 72.576 L1007.09 72.576 L1007.09 62.2867 Z" fill="#000000" fill-rule="nonzero" fill-opacity="1" /><path clip-path="url(#clip730)" d="M1049.99 32.4315 Q1043.99 32.4315 1040.51 37.1306 Q1037.03 41.7891 1037.03 49.9314 Q1037.03 58.0738 1040.47 62.7728 Q1043.95 67.4314 1049.99 67.4314 Q1055.94 67.4314 1059.43 62.7323 Q1062.91 58.0333 1062.91 49.9314 Q1062.91 41.8701 1059.43 37.1711 Q1055.94 32.4315 1049.99 32.4315 M1049.99 26.1121 Q1059.71 26.1121 1065.26 32.4315 Q1070.81 38.7509 1070.81 49.9314 Q1070.81 61.0714 1065.26 67.4314 Q1059.71 73.7508 1049.99 73.7508 Q1040.23 73.7508 1034.68 67.4314 Q1029.17 61.0714 1029.17 49.9314 Q1029.17 38.7509 1034.68 32.4315 Q1040.23 26.1121 1049.99 26.1121 Z" fill="#000000" fill-rule="nonzero" fill-opacity="1" /><path clip-path="url(#clip730)" d="M1082.4 54.671 L1082.4 27.2059 L1089.85 27.2059 L1089.85 54.3874 Q1089.85 60.8284 1092.36 64.0691 Q1094.87 67.2693 1099.9 67.2693 Q1105.93 67.2693 1109.41 63.421 Q1112.94 59.5726 1112.94 52.9291 L1112.94 27.2059 L1120.39 27.2059 L1120.39 72.576 L1112.94 72.576 L1112.94 65.6084 Q1110.22 69.7404 1106.62 71.7658 Q1103.05 73.7508 1098.32 73.7508 Q1090.5 73.7508 1086.45 68.8897 Q1082.4 64.0286 1082.4 54.671 M1101.15 26.1121 L1101.15 26.1121 Z" fill="#000000" fill-rule="nonzero" fill-opacity="1" /><path clip-path="url(#clip730)" d="M1143.12 14.324 L1143.12 27.2059 L1158.47 27.2059 L1158.47 32.9987 L1143.12 32.9987 L1143.12 57.6282 Q1143.12 63.1779 1144.62 64.7578 Q1146.16 66.3376 1150.81 66.3376 L1158.47 66.3376 L1158.47 72.576 L1150.81 72.576 Q1142.19 72.576 1138.91 69.3758 Q1135.62 66.1351 1135.62 57.6282 L1135.62 32.9987 L1130.16 32.9987 L1130.16 27.2059 L1135.62 27.2059 L1135.62 14.324 L1143.12 14.324 Z" fill="#000000" fill-rule="nonzero" fill-opacity="1" /><path clip-path="url(#clip730)" d="M1224.99 20.5624 L1224.99 43.1259 L1247.55 43.1259 L1247.55 50.0125 L1224.99 50.0125 L1224.99 72.576 L1218.18 72.576 L1218.18 50.0125 L1195.62 50.0125 L1195.62 43.1259 L1218.18 43.1259 L1218.18 20.5624 L1224.99 20.5624 Z" fill="#000000" fill-rule="nonzero" fill-opacity="1" /><path clip-path="url(#clip730)" d="M1289.76 54.671 L1289.76 27.2059 L1297.21 27.2059 L1297.21 54.3874 Q1297.21 60.8284 1299.73 64.0691 Q1302.24 67.2693 1307.26 67.2693 Q1313.3 67.2693 1316.78 63.421 Q1320.3 59.5726 1320.3 52.9291 L1320.3 27.2059 L1327.76 27.2059 L1327.76 72.576 L1320.3 72.576 L1320.3 65.6084 Q1317.59 69.7404 1313.99 71.7658 Q1310.42 73.7508 1305.68 73.7508 Q1297.86 73.7508 1293.81 68.8897 Q1289.76 64.0286 1289.76 54.671 M1308.52 26.1121 L1308.52 26.1121 Z" fill="#000000" fill-rule="nonzero" fill-opacity="1" /><path clip-path="url(#clip730)" d="M1377.58 86.3491 L1377.58 92.1419 L1334.48 92.1419 L1334.48 86.3491 L1377.58 86.3491 Z" fill="#000000" fill-rule="nonzero" fill-opacity="1" /><path clip-path="url(#clip730)" d="M1417.16 49.9314 Q1417.16 41.7081 1413.76 37.0496 Q1410.4 32.3505 1404.48 32.3505 Q1398.57 32.3505 1395.17 37.0496 Q1391.8 41.7081 1391.8 49.9314 Q1391.8 58.1548 1395.17 62.8538 Q1398.57 67.5124 1404.48 67.5124 Q1410.4 67.5124 1413.76 62.8538 Q1417.16 58.1548 1417.16 49.9314 M1391.8 34.0924 Q1394.15 30.0415 1397.72 28.0971 Q1401.32 26.1121 1406.31 26.1121 Q1414.57 26.1121 1419.71 32.6746 Q1424.9 39.2371 1424.9 49.9314 Q1424.9 60.6258 1419.71 67.1883 Q1414.57 73.7508 1406.31 73.7508 Q1401.32 73.7508 1397.72 71.8063 Q1394.15 69.8214 1391.8 65.7705 L1391.8 72.576 L1384.31 72.576 L1384.31 9.54393 L1391.8 9.54393 L1391.8 34.0924 Z" fill="#000000" fill-rule="nonzero" fill-opacity="1" /><path clip-path="url(#clip730)" d="M1436.48 54.671 L1436.48 27.2059 L1443.94 27.2059 L1443.94 54.3874 Q1443.94 60.8284 1446.45 64.0691 Q1448.96 67.2693 1453.98 67.2693 Q1460.02 67.2693 1463.5 63.421 Q1467.03 59.5726 1467.03 52.9291 L1467.03 27.2059 L1474.48 27.2059 L1474.48 72.576 L1467.03 72.576 L1467.03 65.6084 Q1464.31 69.7404 1460.71 71.7658 Q1457.14 73.7508 1452.4 73.7508 Q1444.59 73.7508 1440.54 68.8897 Q1436.48 64.0286 1436.48 54.671 M1455.24 26.1121 L1455.24 26.1121 Z" fill="#000000" fill-rule="nonzero" fill-opacity="1" /><path clip-path="url(#clip730)" d="M1508.71 76.7889 Q1505.55 84.8907 1502.55 87.3618 Q1499.56 89.8329 1494.53 89.8329 L1488.58 89.8329 L1488.58 83.5945 L1492.95 83.5945 Q1496.03 83.5945 1497.73 82.1361 Q1499.44 80.6778 1501.5 75.2496 L1502.84 71.8468 L1484.49 27.2059 L1492.39 27.2059 L1506.57 62.6918 L1520.74 27.2059 L1528.64 27.2059 L1508.71 76.7889 Z" fill="#000000" fill-rule="nonzero" fill-opacity="1" /><path clip-path="url(#clip730)" d="M1528.16 62.2867 L1536.7 62.2867 L1536.7 72.576 L1528.16 72.576 L1528.16 62.2867 Z" fill="#000000" fill-rule="nonzero" fill-opacity="1" /><path clip-path="url(#clip730)" d="M1571.06 32.4315 Q1565.06 32.4315 1561.58 37.1306 Q1558.09 41.7891 1558.09 49.9314 Q1558.09 58.0738 1561.54 62.7728 Q1565.02 67.4314 1571.06 67.4314 Q1577.01 67.4314 1580.49 62.7323 Q1583.98 58.0333 1583.98 49.9314 Q1583.98 41.8701 1580.49 37.1711 Q1577.01 32.4315 1571.06 32.4315 M1571.06 26.1121 Q1580.78 26.1121 1586.33 32.4315 Q1591.88 38.7509 1591.88 49.9314 Q1591.88 61.0714 1586.33 67.4314 Q1580.78 73.7508 1571.06 73.7508 Q1561.29 73.7508 1555.74 67.4314 Q1550.23 61.0714 1550.23 49.9314 Q1550.23 38.7509 1555.74 32.4315 Q1561.29 26.1121 1571.06 26.1121 Z" fill="#000000" fill-rule="nonzero" fill-opacity="1" /><path clip-path="url(#clip730)" d="M1603.46 54.671 L1603.46 27.2059 L1610.92 27.2059 L1610.92 54.3874 Q1610.92 60.8284 1613.43 64.0691 Q1615.94 67.2693 1620.96 67.2693 Q1627 67.2693 1630.48 63.421 Q1634.01 59.5726 1634.01 52.9291 L1634.01 27.2059 L1641.46 27.2059 L1641.46 72.576 L1634.01 72.576 L1634.01 65.6084 Q1631.29 69.7404 1627.69 71.7658 Q1624.12 73.7508 1619.38 73.7508 Q1611.56 73.7508 1607.51 68.8897 Q1603.46 64.0286 1603.46 54.671 M1622.22 26.1121 L1622.22 26.1121 Z" fill="#000000" fill-rule="nonzero" fill-opacity="1" /><path clip-path="url(#clip730)" d="M1664.19 14.324 L1664.19 27.2059 L1679.54 27.2059 L1679.54 32.9987 L1664.19 32.9987 L1664.19 57.6282 Q1664.19 63.1779 1665.68 64.7578 Q1667.22 66.3376 1671.88 66.3376 L1679.54 66.3376 L1679.54 72.576 L1671.88 72.576 Q1663.25 72.576 1659.97 69.3758 Q1656.69 66.1351 1656.69 57.6282 L1656.69 32.9987 L1651.22 32.9987 L1651.22 27.2059 L1656.69 27.2059 L1656.69 14.324 L1664.19 14.324 Z" fill="#000000" fill-rule="nonzero" fill-opacity="1" /><path clip-path="url(#clip732)" d="M301.883 339.668 L462.162 339.668 L622.441 339.668 L782.72 339.668 L942.999 339.668 L1103.28 339.668 L1263.56 339.668 L1423.84 416.97 L1584.11 571.575 L1744.39 668.202 L1904.67 668.202 L1904.67 397.645 L1744.39 397.645 L1584.11 416.97 L1423.84 339.668 L1263.56 301.017 L1103.28 301.017 L942.999 301.017 L782.72 301.017 L622.441 301.017 L462.162 301.017 L301.883 339.668  Z" fill="#00467f" fill-rule="evenodd" fill-opacity="0.2"/>
<polyline clip-path="url(#clip732)" style="stroke:#00467f; stroke-linecap:round; stroke-linejoin:round; stroke-width:4; stroke-opacity:0; fill:none" points="301.883,339.668 462.162,320.342 622.441,320.342 782.72,320.342 942.999,320.342 1103.28,320.342 1263.56,320.342 1423.84,378.319 1584.11,494.272 1744.39,532.923 1904.67,532.923 "/>
<path clip-path="url(#clip732)" d="M301.883 339.668 L462.162 339.668 L622.441 339.668 L782.72 339.668 L942.999 339.668 L1103.28 339.668 L1263.56 339.668 L1423.84 416.97 L1584.11 571.575 L1744.39 668.202 L1904.67 668.202 L1904.67 474.947 L1744.39 474.947 L1584.11 455.621 L1423.84 378.319 L1263.56 339.668 L1103.28 339.668 L942.999 339.668 L782.72 339.668 L622.441 339.668 L462.162 339.668 L301.883 339.668  Z" fill="#00467f" fill-rule="evenodd" fill-opacity="0.2"/>
<polyline clip-path="url(#clip732)" style="stroke:#00467f; stroke-linecap:round; stroke-linejoin:round; stroke-width:4; stroke-opacity:0; fill:none" points="301.883,339.668 462.162,339.668 622.441,339.668 782.72,339.668 942.999,339.668 1103.28,339.668 1263.56,339.668 1423.84,397.645 1584.11,513.598 1744.39,571.575 1904.67,571.575 "/>
<path clip-path="url(#clip732)" d="M301.883 339.668 L462.162 339.668 L622.441 339.668 L782.72 339.668 L942.999 339.668 L1103.28 339.668 L1263.56 339.668 L1423.84 416.97 L1584.11 571.575 L1744.39 668.202 L1904.67 668.202 L1904.67 552.249 L1744.39 552.249 L1584.11 532.923 L1423.84 416.97 L1263.56 339.668 L1103.28 339.668 L942.999 339.668 L782.72 339.668 L622.441 339.668 L462.162 339.668 L301.883 339.668  Z" fill="#00467f" fill-rule="evenodd" fill-opacity="0.2"/>
<polyline clip-path="url(#clip732)" style="stroke:#00467f; stroke-linecap:round; stroke-linejoin:round; stroke-width:4; stroke-opacity:0; fill:none" points="301.883,339.668 462.162,339.668 622.441,339.668 782.72,339.668 942.999,339.668 1103.28,339.668 1263.56,339.668 1423.84,416.97 1584.11,552.249 1744.39,610.226 1904.67,610.226 "/>
<polyline clip-path="url(#clip732)" style="stroke:#00467f; stroke-linecap:round; stroke-linejoin:round; stroke-width:4; stroke-opacity:1; fill:none" points="301.883,339.668 462.162,339.668 622.441,339.668 782.72,339.668 942.999,339.668 1103.28,339.668 1263.56,339.668 1423.84,416.97 1584.11,571.575 1744.39,648.877 1904.67,648.877 "/>
</svg>
